G04 #@! TF.GenerationSoftware,KiCad,Pcbnew,5.1.4*
G04 #@! TF.CreationDate,2019-11-07T00:58:56-05:00*
G04 #@! TF.ProjectId,level-shifter-demo,6c657665-6c2d-4736-9869-667465722d64,rev?*
G04 #@! TF.SameCoordinates,Original*
G04 #@! TF.FileFunction,Legend,Top*
G04 #@! TF.FilePolarity,Positive*
%FSLAX46Y46*%
G04 Gerber Fmt 4.6, Leading zero omitted, Abs format (unit mm)*
G04 Created by KiCad (PCBNEW 5.1.4) date 2019-11-07 00:58:56*
%MOMM*%
%LPD*%
G04 APERTURE LIST*
%ADD10C,0.150000*%
%ADD11C,0.300000*%
%ADD12C,0.120000*%
G04 APERTURE END LIST*
D10*
X212173690Y-159561904D02*
X212440357Y-160361904D01*
X212707023Y-159561904D01*
X212973690Y-160361904D02*
X212973690Y-159561904D01*
X212973690Y-159942857D02*
X213430833Y-159942857D01*
X213430833Y-160361904D02*
X213430833Y-159561904D01*
X214230833Y-160361904D02*
X213773690Y-160361904D01*
X214002261Y-160361904D02*
X214002261Y-159561904D01*
X213926071Y-159676190D01*
X213849880Y-159752380D01*
X213773690Y-159790476D01*
X212173690Y-157061904D02*
X212440357Y-157861904D01*
X212707023Y-157061904D01*
X213354642Y-157861904D02*
X212973690Y-157861904D01*
X212973690Y-157061904D01*
X214040357Y-157861904D02*
X213583214Y-157861904D01*
X213811785Y-157861904D02*
X213811785Y-157061904D01*
X213735595Y-157176190D01*
X213659404Y-157252380D01*
X213583214Y-157290476D01*
X212173690Y-154561904D02*
X212440357Y-155361904D01*
X212707023Y-154561904D01*
X212973690Y-155361904D02*
X212973690Y-154561904D01*
X212973690Y-154942857D02*
X213430833Y-154942857D01*
X213430833Y-155361904D02*
X213430833Y-154561904D01*
X213773690Y-154638095D02*
X213811785Y-154600000D01*
X213887976Y-154561904D01*
X214078452Y-154561904D01*
X214154642Y-154600000D01*
X214192738Y-154638095D01*
X214230833Y-154714285D01*
X214230833Y-154790476D01*
X214192738Y-154904761D01*
X213735595Y-155361904D01*
X214230833Y-155361904D01*
X212173690Y-151811904D02*
X212440357Y-152611904D01*
X212707023Y-151811904D01*
X213354642Y-152611904D02*
X212973690Y-152611904D01*
X212973690Y-151811904D01*
X213583214Y-151888095D02*
X213621309Y-151850000D01*
X213697500Y-151811904D01*
X213887976Y-151811904D01*
X213964166Y-151850000D01*
X214002261Y-151888095D01*
X214040357Y-151964285D01*
X214040357Y-152040476D01*
X214002261Y-152154761D01*
X213545119Y-152611904D01*
X214040357Y-152611904D01*
X212707023Y-149350000D02*
X212630833Y-149311904D01*
X212516547Y-149311904D01*
X212402261Y-149350000D01*
X212326071Y-149426190D01*
X212287976Y-149502380D01*
X212249880Y-149654761D01*
X212249880Y-149769047D01*
X212287976Y-149921428D01*
X212326071Y-149997619D01*
X212402261Y-150073809D01*
X212516547Y-150111904D01*
X212592738Y-150111904D01*
X212707023Y-150073809D01*
X212745119Y-150035714D01*
X212745119Y-149769047D01*
X212592738Y-149769047D01*
X213087976Y-150111904D02*
X213087976Y-149311904D01*
X213545119Y-150111904D01*
X213545119Y-149311904D01*
X213926071Y-150111904D02*
X213926071Y-149311904D01*
X214116547Y-149311904D01*
X214230833Y-149350000D01*
X214307023Y-149426190D01*
X214345119Y-149502380D01*
X214383214Y-149654761D01*
X214383214Y-149769047D01*
X214345119Y-149921428D01*
X214307023Y-149997619D01*
X214230833Y-150073809D01*
X214116547Y-150111904D01*
X213926071Y-150111904D01*
X212211785Y-171061904D02*
X212707023Y-171061904D01*
X212440357Y-171366666D01*
X212554642Y-171366666D01*
X212630833Y-171404761D01*
X212668928Y-171442857D01*
X212707023Y-171519047D01*
X212707023Y-171709523D01*
X212668928Y-171785714D01*
X212630833Y-171823809D01*
X212554642Y-171861904D01*
X212326071Y-171861904D01*
X212249880Y-171823809D01*
X212211785Y-171785714D01*
X213049880Y-171785714D02*
X213087976Y-171823809D01*
X213049880Y-171861904D01*
X213011785Y-171823809D01*
X213049880Y-171785714D01*
X213049880Y-171861904D01*
X213354642Y-171061904D02*
X213849880Y-171061904D01*
X213583214Y-171366666D01*
X213697500Y-171366666D01*
X213773690Y-171404761D01*
X213811785Y-171442857D01*
X213849880Y-171519047D01*
X213849880Y-171709523D01*
X213811785Y-171785714D01*
X213773690Y-171823809D01*
X213697500Y-171861904D01*
X213468928Y-171861904D01*
X213392738Y-171823809D01*
X213354642Y-171785714D01*
X214078452Y-171061904D02*
X214345119Y-171861904D01*
X214611785Y-171061904D01*
X212707023Y-168600000D02*
X212630833Y-168561904D01*
X212516547Y-168561904D01*
X212402261Y-168600000D01*
X212326071Y-168676190D01*
X212287976Y-168752380D01*
X212249880Y-168904761D01*
X212249880Y-169019047D01*
X212287976Y-169171428D01*
X212326071Y-169247619D01*
X212402261Y-169323809D01*
X212516547Y-169361904D01*
X212592738Y-169361904D01*
X212707023Y-169323809D01*
X212745119Y-169285714D01*
X212745119Y-169019047D01*
X212592738Y-169019047D01*
X213087976Y-169361904D02*
X213087976Y-168561904D01*
X213545119Y-169361904D01*
X213545119Y-168561904D01*
X213926071Y-169361904D02*
X213926071Y-168561904D01*
X214116547Y-168561904D01*
X214230833Y-168600000D01*
X214307023Y-168676190D01*
X214345119Y-168752380D01*
X214383214Y-168904761D01*
X214383214Y-169019047D01*
X214345119Y-169171428D01*
X214307023Y-169247619D01*
X214230833Y-169323809D01*
X214116547Y-169361904D01*
X213926071Y-169361904D01*
X212287976Y-185057142D02*
X212897500Y-185057142D01*
X212592738Y-185361904D02*
X212592738Y-184752380D01*
X213240357Y-184638095D02*
X213278452Y-184600000D01*
X213354642Y-184561904D01*
X213545119Y-184561904D01*
X213621309Y-184600000D01*
X213659404Y-184638095D01*
X213697500Y-184714285D01*
X213697500Y-184790476D01*
X213659404Y-184904761D01*
X213202261Y-185361904D01*
X213697500Y-185361904D01*
X214383214Y-184828571D02*
X214383214Y-185361904D01*
X214192738Y-184523809D02*
X214002261Y-185095238D01*
X214497500Y-185095238D01*
X214687976Y-184561904D02*
X214954642Y-185361904D01*
X215221309Y-184561904D01*
X212707023Y-182100000D02*
X212630833Y-182061904D01*
X212516547Y-182061904D01*
X212402261Y-182100000D01*
X212326071Y-182176190D01*
X212287976Y-182252380D01*
X212249880Y-182404761D01*
X212249880Y-182519047D01*
X212287976Y-182671428D01*
X212326071Y-182747619D01*
X212402261Y-182823809D01*
X212516547Y-182861904D01*
X212592738Y-182861904D01*
X212707023Y-182823809D01*
X212745119Y-182785714D01*
X212745119Y-182519047D01*
X212592738Y-182519047D01*
X213087976Y-182861904D02*
X213087976Y-182061904D01*
X213545119Y-182861904D01*
X213545119Y-182061904D01*
X213926071Y-182861904D02*
X213926071Y-182061904D01*
X214116547Y-182061904D01*
X214230833Y-182100000D01*
X214307023Y-182176190D01*
X214345119Y-182252380D01*
X214383214Y-182404761D01*
X214383214Y-182519047D01*
X214345119Y-182671428D01*
X214307023Y-182747619D01*
X214230833Y-182823809D01*
X214116547Y-182861904D01*
X213926071Y-182861904D01*
X212287976Y-179807142D02*
X212897500Y-179807142D01*
X213240357Y-179388095D02*
X213278452Y-179350000D01*
X213354642Y-179311904D01*
X213545119Y-179311904D01*
X213621309Y-179350000D01*
X213659404Y-179388095D01*
X213697500Y-179464285D01*
X213697500Y-179540476D01*
X213659404Y-179654761D01*
X213202261Y-180111904D01*
X213697500Y-180111904D01*
X214383214Y-179578571D02*
X214383214Y-180111904D01*
X214192738Y-179273809D02*
X214002261Y-179845238D01*
X214497500Y-179845238D01*
X214687976Y-179311904D02*
X214954642Y-180111904D01*
X215221309Y-179311904D01*
D11*
X204321428Y-147571428D02*
X204321428Y-146857142D01*
X205821428Y-146857142D01*
X205821428Y-148357142D02*
X205821428Y-148642857D01*
X205750000Y-148785714D01*
X205607142Y-148928571D01*
X205321428Y-149000000D01*
X204821428Y-149000000D01*
X204535714Y-148928571D01*
X204392857Y-148785714D01*
X204321428Y-148642857D01*
X204321428Y-148357142D01*
X204392857Y-148214285D01*
X204535714Y-148071428D01*
X204821428Y-148000000D01*
X205321428Y-148000000D01*
X205607142Y-148071428D01*
X205750000Y-148214285D01*
X205821428Y-148357142D01*
X205750000Y-150428571D02*
X205821428Y-150285714D01*
X205821428Y-150071428D01*
X205750000Y-149857142D01*
X205607142Y-149714285D01*
X205464285Y-149642857D01*
X205178571Y-149571428D01*
X204964285Y-149571428D01*
X204678571Y-149642857D01*
X204535714Y-149714285D01*
X204392857Y-149857142D01*
X204321428Y-150071428D01*
X204321428Y-150214285D01*
X204392857Y-150428571D01*
X204464285Y-150500000D01*
X204964285Y-150500000D01*
X204964285Y-150214285D01*
X204321428Y-151142857D02*
X205821428Y-151142857D01*
X204464285Y-152714285D02*
X204392857Y-152642857D01*
X204321428Y-152428571D01*
X204321428Y-152285714D01*
X204392857Y-152071428D01*
X204535714Y-151928571D01*
X204678571Y-151857142D01*
X204964285Y-151785714D01*
X205178571Y-151785714D01*
X205464285Y-151857142D01*
X205607142Y-151928571D01*
X205750000Y-152071428D01*
X205821428Y-152285714D01*
X205821428Y-152428571D01*
X205750000Y-152642857D01*
X205678571Y-152714285D01*
X205821428Y-154285714D02*
X204321428Y-154785714D01*
X205821428Y-155285714D01*
X205821428Y-156071428D02*
X205821428Y-156357142D01*
X205750000Y-156500000D01*
X205607142Y-156642857D01*
X205321428Y-156714285D01*
X204821428Y-156714285D01*
X204535714Y-156642857D01*
X204392857Y-156500000D01*
X204321428Y-156357142D01*
X204321428Y-156071428D01*
X204392857Y-155928571D01*
X204535714Y-155785714D01*
X204821428Y-155714285D01*
X205321428Y-155714285D01*
X205607142Y-155785714D01*
X205750000Y-155928571D01*
X205821428Y-156071428D01*
X204321428Y-158071428D02*
X204321428Y-157357142D01*
X205821428Y-157357142D01*
X205821428Y-158357142D02*
X205821428Y-159214285D01*
X204321428Y-158785714D02*
X205821428Y-158785714D01*
X204750000Y-159642857D02*
X204750000Y-160357142D01*
X204321428Y-159500000D02*
X205821428Y-160000000D01*
X204321428Y-160500000D01*
X205750000Y-161785714D02*
X205821428Y-161642857D01*
X205821428Y-161428571D01*
X205750000Y-161214285D01*
X205607142Y-161071428D01*
X205464285Y-161000000D01*
X205178571Y-160928571D01*
X204964285Y-160928571D01*
X204678571Y-161000000D01*
X204535714Y-161071428D01*
X204392857Y-161214285D01*
X204321428Y-161428571D01*
X204321428Y-161571428D01*
X204392857Y-161785714D01*
X204464285Y-161857142D01*
X204964285Y-161857142D01*
X204964285Y-161571428D01*
X205107142Y-162500000D02*
X205107142Y-163000000D01*
X204321428Y-163214285D02*
X204321428Y-162500000D01*
X205821428Y-162500000D01*
X205821428Y-163214285D01*
X205821428Y-167785714D02*
X205821428Y-168714285D01*
X205250000Y-168214285D01*
X205250000Y-168428571D01*
X205178571Y-168571428D01*
X205107142Y-168642857D01*
X204964285Y-168714285D01*
X204607142Y-168714285D01*
X204464285Y-168642857D01*
X204392857Y-168571428D01*
X204321428Y-168428571D01*
X204321428Y-168000000D01*
X204392857Y-167857142D01*
X204464285Y-167785714D01*
X204464285Y-169357142D02*
X204392857Y-169428571D01*
X204321428Y-169357142D01*
X204392857Y-169285714D01*
X204464285Y-169357142D01*
X204321428Y-169357142D01*
X205821428Y-169928571D02*
X205821428Y-170857142D01*
X205250000Y-170357142D01*
X205250000Y-170571428D01*
X205178571Y-170714285D01*
X205107142Y-170785714D01*
X204964285Y-170857142D01*
X204607142Y-170857142D01*
X204464285Y-170785714D01*
X204392857Y-170714285D01*
X204321428Y-170571428D01*
X204321428Y-170142857D01*
X204392857Y-170000000D01*
X204464285Y-169928571D01*
X205821428Y-171285714D02*
X204321428Y-171785714D01*
X205821428Y-172285714D01*
X204892857Y-177642857D02*
X204892857Y-178785714D01*
X204321428Y-178214285D02*
X205464285Y-178214285D01*
X205892857Y-180571428D02*
X203964285Y-179285714D01*
X204892857Y-181071428D02*
X204892857Y-182214285D01*
X205678571Y-182857142D02*
X205750000Y-182928571D01*
X205821428Y-183071428D01*
X205821428Y-183428571D01*
X205750000Y-183571428D01*
X205678571Y-183642857D01*
X205535714Y-183714285D01*
X205392857Y-183714285D01*
X205178571Y-183642857D01*
X204321428Y-182785714D01*
X204321428Y-183714285D01*
X205321428Y-185000000D02*
X204321428Y-185000000D01*
X205892857Y-184642857D02*
X204821428Y-184285714D01*
X204821428Y-185214285D01*
X205821428Y-185571428D02*
X204321428Y-186071428D01*
X205821428Y-186571428D01*
X242428571Y-104321428D02*
X242428571Y-105821428D01*
X241928571Y-104750000D01*
X241428571Y-105821428D01*
X241428571Y-104321428D01*
X239857142Y-104464285D02*
X239928571Y-104392857D01*
X240142857Y-104321428D01*
X240285714Y-104321428D01*
X240500000Y-104392857D01*
X240642857Y-104535714D01*
X240714285Y-104678571D01*
X240785714Y-104964285D01*
X240785714Y-105178571D01*
X240714285Y-105464285D01*
X240642857Y-105607142D01*
X240500000Y-105750000D01*
X240285714Y-105821428D01*
X240142857Y-105821428D01*
X239928571Y-105750000D01*
X239857142Y-105678571D01*
X239214285Y-105821428D02*
X239214285Y-104607142D01*
X239142857Y-104464285D01*
X239071428Y-104392857D01*
X238928571Y-104321428D01*
X238642857Y-104321428D01*
X238500000Y-104392857D01*
X238428571Y-104464285D01*
X238357142Y-104607142D01*
X238357142Y-105821428D01*
X235642857Y-104464285D02*
X235714285Y-104392857D01*
X235928571Y-104321428D01*
X236071428Y-104321428D01*
X236285714Y-104392857D01*
X236428571Y-104535714D01*
X236500000Y-104678571D01*
X236571428Y-104964285D01*
X236571428Y-105178571D01*
X236500000Y-105464285D01*
X236428571Y-105607142D01*
X236285714Y-105750000D01*
X236071428Y-105821428D01*
X235928571Y-105821428D01*
X235714285Y-105750000D01*
X235642857Y-105678571D01*
X235214285Y-105821428D02*
X234357142Y-105821428D01*
X234785714Y-104321428D02*
X234785714Y-105821428D01*
X233000000Y-104321428D02*
X233500000Y-105035714D01*
X233857142Y-104321428D02*
X233857142Y-105821428D01*
X233285714Y-105821428D01*
X233142857Y-105750000D01*
X233071428Y-105678571D01*
X233000000Y-105535714D01*
X233000000Y-105321428D01*
X233071428Y-105178571D01*
X233142857Y-105107142D01*
X233285714Y-105035714D01*
X233857142Y-105035714D01*
X231642857Y-104321428D02*
X232357142Y-104321428D01*
X232357142Y-105821428D01*
X230071428Y-104392857D02*
X229857142Y-104321428D01*
X229500000Y-104321428D01*
X229357142Y-104392857D01*
X229285714Y-104464285D01*
X229214285Y-104607142D01*
X229214285Y-104750000D01*
X229285714Y-104892857D01*
X229357142Y-104964285D01*
X229500000Y-105035714D01*
X229785714Y-105107142D01*
X229928571Y-105178571D01*
X230000000Y-105250000D01*
X230071428Y-105392857D01*
X230071428Y-105535714D01*
X230000000Y-105678571D01*
X229928571Y-105750000D01*
X229785714Y-105821428D01*
X229428571Y-105821428D01*
X229214285Y-105750000D01*
X228571428Y-104321428D02*
X228571428Y-105821428D01*
X227071428Y-105750000D02*
X227214285Y-105821428D01*
X227428571Y-105821428D01*
X227642857Y-105750000D01*
X227785714Y-105607142D01*
X227857142Y-105464285D01*
X227928571Y-105178571D01*
X227928571Y-104964285D01*
X227857142Y-104678571D01*
X227785714Y-104535714D01*
X227642857Y-104392857D01*
X227428571Y-104321428D01*
X227285714Y-104321428D01*
X227071428Y-104392857D01*
X227000000Y-104464285D01*
X227000000Y-104964285D01*
X227285714Y-104964285D01*
X226357142Y-104321428D02*
X226357142Y-105821428D01*
X225500000Y-104321428D01*
X225500000Y-105821428D01*
X224857142Y-104750000D02*
X224142857Y-104750000D01*
X225000000Y-104321428D02*
X224500000Y-105821428D01*
X224000000Y-104321428D01*
X222785714Y-104321428D02*
X223500000Y-104321428D01*
X223500000Y-105821428D01*
X222357142Y-104392857D02*
X222142857Y-104321428D01*
X221785714Y-104321428D01*
X221642857Y-104392857D01*
X221571428Y-104464285D01*
X221500000Y-104607142D01*
X221500000Y-104750000D01*
X221571428Y-104892857D01*
X221642857Y-104964285D01*
X221785714Y-105035714D01*
X222071428Y-105107142D01*
X222214285Y-105178571D01*
X222285714Y-105250000D01*
X222357142Y-105392857D01*
X222357142Y-105535714D01*
X222285714Y-105678571D01*
X222214285Y-105750000D01*
X222071428Y-105821428D01*
X221714285Y-105821428D01*
X221500000Y-105750000D01*
X214892857Y-194178571D02*
X215750000Y-194178571D01*
X215321428Y-195678571D02*
X215321428Y-194178571D01*
X216178571Y-195250000D02*
X216892857Y-195250000D01*
X216035714Y-195678571D02*
X216535714Y-194178571D01*
X217035714Y-195678571D01*
X218392857Y-195678571D02*
X217892857Y-194964285D01*
X217535714Y-195678571D02*
X217535714Y-194178571D01*
X218107142Y-194178571D01*
X218250000Y-194250000D01*
X218321428Y-194321428D01*
X218392857Y-194464285D01*
X218392857Y-194678571D01*
X218321428Y-194821428D01*
X218250000Y-194892857D01*
X218107142Y-194964285D01*
X217535714Y-194964285D01*
X219821428Y-194250000D02*
X219678571Y-194178571D01*
X219464285Y-194178571D01*
X219250000Y-194250000D01*
X219107142Y-194392857D01*
X219035714Y-194535714D01*
X218964285Y-194821428D01*
X218964285Y-195035714D01*
X219035714Y-195321428D01*
X219107142Y-195464285D01*
X219250000Y-195607142D01*
X219464285Y-195678571D01*
X219607142Y-195678571D01*
X219821428Y-195607142D01*
X219892857Y-195535714D01*
X219892857Y-195035714D01*
X219607142Y-195035714D01*
X220535714Y-194892857D02*
X221035714Y-194892857D01*
X221250000Y-195678571D02*
X220535714Y-195678571D01*
X220535714Y-194178571D01*
X221250000Y-194178571D01*
X221678571Y-194178571D02*
X222535714Y-194178571D01*
X222107142Y-195678571D02*
X222107142Y-194178571D01*
X224178571Y-195678571D02*
X224178571Y-194178571D01*
X224535714Y-194178571D01*
X224750000Y-194250000D01*
X224892857Y-194392857D01*
X224964285Y-194535714D01*
X225035714Y-194821428D01*
X225035714Y-195035714D01*
X224964285Y-195321428D01*
X224892857Y-195464285D01*
X224750000Y-195607142D01*
X224535714Y-195678571D01*
X224178571Y-195678571D01*
X225678571Y-194892857D02*
X226178571Y-194892857D01*
X226392857Y-195678571D02*
X225678571Y-195678571D01*
X225678571Y-194178571D01*
X226392857Y-194178571D01*
X226821428Y-194178571D02*
X227321428Y-195678571D01*
X227821428Y-194178571D01*
X228321428Y-195678571D02*
X228321428Y-194178571D01*
X229892857Y-195535714D02*
X229821428Y-195607142D01*
X229607142Y-195678571D01*
X229464285Y-195678571D01*
X229250000Y-195607142D01*
X229107142Y-195464285D01*
X229035714Y-195321428D01*
X228964285Y-195035714D01*
X228964285Y-194821428D01*
X229035714Y-194535714D01*
X229107142Y-194392857D01*
X229250000Y-194250000D01*
X229464285Y-194178571D01*
X229607142Y-194178571D01*
X229821428Y-194250000D01*
X229892857Y-194321428D01*
X230535714Y-194892857D02*
X231035714Y-194892857D01*
X231250000Y-195678571D02*
X230535714Y-195678571D01*
X230535714Y-194178571D01*
X231250000Y-194178571D01*
X233892857Y-195535714D02*
X233821428Y-195607142D01*
X233607142Y-195678571D01*
X233464285Y-195678571D01*
X233250000Y-195607142D01*
X233107142Y-195464285D01*
X233035714Y-195321428D01*
X232964285Y-195035714D01*
X232964285Y-194821428D01*
X233035714Y-194535714D01*
X233107142Y-194392857D01*
X233250000Y-194250000D01*
X233464285Y-194178571D01*
X233607142Y-194178571D01*
X233821428Y-194250000D01*
X233892857Y-194321428D01*
X234821428Y-194178571D02*
X235107142Y-194178571D01*
X235250000Y-194250000D01*
X235392857Y-194392857D01*
X235464285Y-194678571D01*
X235464285Y-195178571D01*
X235392857Y-195464285D01*
X235250000Y-195607142D01*
X235107142Y-195678571D01*
X234821428Y-195678571D01*
X234678571Y-195607142D01*
X234535714Y-195464285D01*
X234464285Y-195178571D01*
X234464285Y-194678571D01*
X234535714Y-194392857D01*
X234678571Y-194250000D01*
X234821428Y-194178571D01*
X236107142Y-195678571D02*
X236107142Y-194178571D01*
X236964285Y-195678571D01*
X236964285Y-194178571D01*
X237678571Y-195678571D02*
X237678571Y-194178571D01*
X238535714Y-195678571D01*
X238535714Y-194178571D01*
X239250000Y-194892857D02*
X239750000Y-194892857D01*
X239964285Y-195678571D02*
X239250000Y-195678571D01*
X239250000Y-194178571D01*
X239964285Y-194178571D01*
X241464285Y-195535714D02*
X241392857Y-195607142D01*
X241178571Y-195678571D01*
X241035714Y-195678571D01*
X240821428Y-195607142D01*
X240678571Y-195464285D01*
X240607142Y-195321428D01*
X240535714Y-195035714D01*
X240535714Y-194821428D01*
X240607142Y-194535714D01*
X240678571Y-194392857D01*
X240821428Y-194250000D01*
X241035714Y-194178571D01*
X241178571Y-194178571D01*
X241392857Y-194250000D01*
X241464285Y-194321428D01*
X241892857Y-194178571D02*
X242750000Y-194178571D01*
X242321428Y-195678571D02*
X242321428Y-194178571D01*
X243250000Y-195678571D02*
X243250000Y-194178571D01*
X244250000Y-194178571D02*
X244535714Y-194178571D01*
X244678571Y-194250000D01*
X244821428Y-194392857D01*
X244892857Y-194678571D01*
X244892857Y-195178571D01*
X244821428Y-195464285D01*
X244678571Y-195607142D01*
X244535714Y-195678571D01*
X244250000Y-195678571D01*
X244107142Y-195607142D01*
X243964285Y-195464285D01*
X243892857Y-195178571D01*
X243892857Y-194678571D01*
X243964285Y-194392857D01*
X244107142Y-194250000D01*
X244250000Y-194178571D01*
X245535714Y-195678571D02*
X245535714Y-194178571D01*
X246392857Y-195678571D01*
X246392857Y-194178571D01*
D12*
X221700000Y-129750000D02*
G75*
G03X221700000Y-129750000I-700000J0D01*
G01*
X233950000Y-130250000D02*
G75*
G03X233950000Y-130250000I-700000J0D01*
G01*
X230200000Y-130250000D02*
G75*
G03X230200000Y-130250000I-700000J0D01*
G01*
X242450000Y-129750000D02*
G75*
G03X242450000Y-129750000I-700000J0D01*
G01*
X226490000Y-124750000D02*
X226490000Y-127135000D01*
X226490000Y-127135000D02*
X226770000Y-127135000D01*
X226490000Y-124750000D02*
X226490000Y-122365000D01*
X226490000Y-122365000D02*
X226770000Y-122365000D01*
X237010000Y-124750000D02*
X237010000Y-127135000D01*
X237010000Y-127135000D02*
X236730000Y-127135000D01*
X237010000Y-124750000D02*
X237010000Y-122365000D01*
X237010000Y-122365000D02*
X236730000Y-122365000D01*
X236730000Y-122365000D02*
X236730000Y-120700000D01*
X252510000Y-136125279D02*
X252510000Y-135799721D01*
X251490000Y-136125279D02*
X251490000Y-135799721D01*
X237837221Y-146490000D02*
X238162779Y-146490000D01*
X237837221Y-147510000D02*
X238162779Y-147510000D01*
X232490000Y-135799721D02*
X232490000Y-136125279D01*
X233510000Y-135799721D02*
X233510000Y-136125279D01*
X237624721Y-169490000D02*
X237950279Y-169490000D01*
X237624721Y-170510000D02*
X237950279Y-170510000D01*
X230990000Y-162837221D02*
X230990000Y-163162779D01*
X232010000Y-162837221D02*
X232010000Y-163162779D01*
X230240000Y-136125279D02*
X230240000Y-135799721D01*
X231260000Y-136125279D02*
X231260000Y-135799721D01*
X212260000Y-135799721D02*
X212260000Y-136125279D01*
X211240000Y-135799721D02*
X211240000Y-136125279D01*
X216700000Y-185735000D02*
X218985000Y-185735000D01*
X218985000Y-185735000D02*
X218985000Y-184265000D01*
X218985000Y-184265000D02*
X216700000Y-184265000D01*
X216015000Y-180485000D02*
X218300000Y-180485000D01*
X216015000Y-179015000D02*
X216015000Y-180485000D01*
X218300000Y-179015000D02*
X216015000Y-179015000D01*
X216700000Y-172235000D02*
X218985000Y-172235000D01*
X218985000Y-172235000D02*
X218985000Y-170765000D01*
X218985000Y-170765000D02*
X216700000Y-170765000D01*
X211330000Y-183730000D02*
X208670000Y-183730000D01*
X211330000Y-183730000D02*
X211330000Y-178590000D01*
X211330000Y-178590000D02*
X208670000Y-178590000D01*
X208670000Y-183730000D02*
X208670000Y-178590000D01*
X208670000Y-186330000D02*
X208670000Y-185000000D01*
X210000000Y-186330000D02*
X208670000Y-186330000D01*
X211330000Y-170270000D02*
X208670000Y-170270000D01*
X211330000Y-170270000D02*
X211330000Y-167670000D01*
X211330000Y-167670000D02*
X208670000Y-167670000D01*
X208670000Y-170270000D02*
X208670000Y-167670000D01*
X208670000Y-172870000D02*
X208670000Y-171540000D01*
X210000000Y-172870000D02*
X208670000Y-172870000D01*
X211330000Y-158730000D02*
X208670000Y-158730000D01*
X211330000Y-158730000D02*
X211330000Y-148510000D01*
X211330000Y-148510000D02*
X208670000Y-148510000D01*
X208670000Y-158730000D02*
X208670000Y-148510000D01*
X208670000Y-161330000D02*
X208670000Y-160000000D01*
X210000000Y-161330000D02*
X208670000Y-161330000D01*
X234580000Y-190000000D02*
X234580000Y-191330000D01*
X234580000Y-191330000D02*
X233250000Y-191330000D01*
X231980000Y-191330000D02*
X226840000Y-191330000D01*
X226840000Y-188670000D02*
X226840000Y-191330000D01*
X231980000Y-188670000D02*
X226840000Y-188670000D01*
X231980000Y-188670000D02*
X231980000Y-191330000D01*
X239730000Y-108670000D02*
X239730000Y-111330000D01*
X239730000Y-108670000D02*
X221890000Y-108670000D01*
X221890000Y-108670000D02*
X221890000Y-111330000D01*
X239730000Y-111330000D02*
X221890000Y-111330000D01*
X242330000Y-111330000D02*
X241000000Y-111330000D01*
X242330000Y-110000000D02*
X242330000Y-111330000D01*
X249760000Y-138330000D02*
X248300000Y-138330000D01*
X249760000Y-135170000D02*
X247600000Y-135170000D01*
X249760000Y-135170000D02*
X249760000Y-136100000D01*
X249760000Y-138330000D02*
X249760000Y-137400000D01*
X244240000Y-135170000D02*
X244240000Y-136100000D01*
X244240000Y-138330000D02*
X244240000Y-137400000D01*
X244240000Y-138330000D02*
X246400000Y-138330000D01*
X244240000Y-135170000D02*
X245700000Y-135170000D01*
X240760000Y-138330000D02*
X239300000Y-138330000D01*
X240760000Y-135170000D02*
X238600000Y-135170000D01*
X240760000Y-135170000D02*
X240760000Y-136100000D01*
X240760000Y-138330000D02*
X240760000Y-137400000D01*
X235240000Y-135170000D02*
X236700000Y-135170000D01*
X235240000Y-138330000D02*
X237400000Y-138330000D01*
X235240000Y-138330000D02*
X235240000Y-137400000D01*
X235240000Y-135170000D02*
X235240000Y-136100000D01*
X228510000Y-138330000D02*
X227050000Y-138330000D01*
X228510000Y-135170000D02*
X226350000Y-135170000D01*
X228510000Y-135170000D02*
X228510000Y-136100000D01*
X228510000Y-138330000D02*
X228510000Y-137400000D01*
X222990000Y-135170000D02*
X222990000Y-136100000D01*
X222990000Y-138330000D02*
X222990000Y-137400000D01*
X222990000Y-138330000D02*
X225150000Y-138330000D01*
X222990000Y-135170000D02*
X224450000Y-135170000D01*
X219510000Y-138330000D02*
X219510000Y-137400000D01*
X219510000Y-135170000D02*
X219510000Y-136100000D01*
X219510000Y-135170000D02*
X217350000Y-135170000D01*
X219510000Y-138330000D02*
X218050000Y-138330000D01*
X213990000Y-135170000D02*
X213990000Y-136100000D01*
X213990000Y-138330000D02*
X213990000Y-137400000D01*
X213990000Y-138330000D02*
X216150000Y-138330000D01*
X213990000Y-135170000D02*
X215450000Y-135170000D01*
X249260000Y-133125279D02*
X249260000Y-132799721D01*
X248240000Y-133125279D02*
X248240000Y-132799721D01*
X246510000Y-133125279D02*
X246510000Y-132799721D01*
X245490000Y-133125279D02*
X245490000Y-132799721D01*
X243490000Y-133125279D02*
X243490000Y-132799721D01*
X244510000Y-133125279D02*
X244510000Y-132799721D01*
X221875279Y-127260000D02*
X221549721Y-127260000D01*
X221875279Y-126240000D02*
X221549721Y-126240000D01*
X238200279Y-149510000D02*
X237874721Y-149510000D01*
X238200279Y-148490000D02*
X237874721Y-148490000D01*
X212625279Y-143260000D02*
X212299721Y-143260000D01*
X212625279Y-142240000D02*
X212299721Y-142240000D01*
X239240000Y-133125279D02*
X239240000Y-132799721D01*
X240260000Y-133125279D02*
X240260000Y-132799721D01*
X237837221Y-151510000D02*
X238162779Y-151510000D01*
X237837221Y-150490000D02*
X238162779Y-150490000D01*
X237510000Y-133125279D02*
X237510000Y-132799721D01*
X236490000Y-133125279D02*
X236490000Y-132799721D01*
X235510000Y-133125279D02*
X235510000Y-132799721D01*
X234490000Y-133125279D02*
X234490000Y-132799721D01*
X221875279Y-124240000D02*
X221549721Y-124240000D01*
X221875279Y-125260000D02*
X221549721Y-125260000D01*
X232490000Y-175162779D02*
X232490000Y-174837221D01*
X233510000Y-175162779D02*
X233510000Y-174837221D01*
X230490000Y-175162779D02*
X230490000Y-174837221D01*
X231510000Y-175162779D02*
X231510000Y-174837221D01*
X237950279Y-171490000D02*
X237624721Y-171490000D01*
X237950279Y-172510000D02*
X237624721Y-172510000D01*
X235837221Y-180260000D02*
X236162779Y-180260000D01*
X235837221Y-179240000D02*
X236162779Y-179240000D01*
X236490000Y-175162779D02*
X236490000Y-174837221D01*
X237510000Y-175162779D02*
X237510000Y-174837221D01*
X228490000Y-173162779D02*
X228490000Y-172837221D01*
X229510000Y-173162779D02*
X229510000Y-172837221D01*
X235510000Y-175162779D02*
X235510000Y-174837221D01*
X234490000Y-175162779D02*
X234490000Y-174837221D01*
X239662779Y-178760000D02*
X239337221Y-178760000D01*
X239662779Y-177740000D02*
X239337221Y-177740000D01*
X241260000Y-167412779D02*
X241260000Y-167087221D01*
X240240000Y-167412779D02*
X240240000Y-167087221D01*
X240240000Y-163912779D02*
X240240000Y-163587221D01*
X241260000Y-163912779D02*
X241260000Y-163587221D01*
X238010000Y-163587221D02*
X238010000Y-163912779D01*
X236990000Y-163587221D02*
X236990000Y-163912779D01*
X236010000Y-162837221D02*
X236010000Y-163162779D01*
X234990000Y-162837221D02*
X234990000Y-163162779D01*
X226990000Y-133162779D02*
X226990000Y-132837221D01*
X228010000Y-133162779D02*
X228010000Y-132837221D01*
X232990000Y-162837221D02*
X232990000Y-163162779D01*
X234010000Y-162837221D02*
X234010000Y-163162779D01*
X230837221Y-159510000D02*
X231162779Y-159510000D01*
X230837221Y-158490000D02*
X231162779Y-158490000D01*
X225260000Y-133125279D02*
X225260000Y-132799721D01*
X224240000Y-133125279D02*
X224240000Y-132799721D01*
X223260000Y-133125279D02*
X223260000Y-132799721D01*
X222240000Y-133125279D02*
X222240000Y-132799721D01*
X221875279Y-123260000D02*
X221549721Y-123260000D01*
X221875279Y-122240000D02*
X221549721Y-122240000D01*
X220837221Y-184490000D02*
X221162779Y-184490000D01*
X220837221Y-185510000D02*
X221162779Y-185510000D01*
X221162779Y-180260000D02*
X220837221Y-180260000D01*
X221162779Y-179240000D02*
X220837221Y-179240000D01*
X220837221Y-172010000D02*
X221162779Y-172010000D01*
X220837221Y-170990000D02*
X221162779Y-170990000D01*
X219010000Y-133125279D02*
X219010000Y-132799721D01*
X217990000Y-133125279D02*
X217990000Y-132799721D01*
X216260000Y-133125279D02*
X216260000Y-132799721D01*
X215240000Y-133125279D02*
X215240000Y-132799721D01*
X213240000Y-133125279D02*
X213240000Y-132799721D01*
X214260000Y-133125279D02*
X214260000Y-132799721D01*
X221875279Y-120240000D02*
X221549721Y-120240000D01*
X221875279Y-121260000D02*
X221549721Y-121260000D01*
X225799721Y-145240000D02*
X226125279Y-145240000D01*
X225799721Y-146260000D02*
X226125279Y-146260000D01*
X251837221Y-183490000D02*
X252162779Y-183490000D01*
X251837221Y-184510000D02*
X252162779Y-184510000D01*
X251837221Y-181510000D02*
X252162779Y-181510000D01*
X251837221Y-180490000D02*
X252162779Y-180490000D01*
X251837221Y-178510000D02*
X252162779Y-178510000D01*
X251837221Y-177490000D02*
X252162779Y-177490000D01*
X251837221Y-174490000D02*
X252162779Y-174490000D01*
X251837221Y-175510000D02*
X252162779Y-175510000D01*
X251837221Y-171490000D02*
X252162779Y-171490000D01*
X251837221Y-172510000D02*
X252162779Y-172510000D01*
X251837221Y-169510000D02*
X252162779Y-169510000D01*
X251837221Y-168490000D02*
X252162779Y-168490000D01*
X251837221Y-166510000D02*
X252162779Y-166510000D01*
X251837221Y-165490000D02*
X252162779Y-165490000D01*
X251837221Y-162490000D02*
X252162779Y-162490000D01*
X251837221Y-163510000D02*
X252162779Y-163510000D01*
X226125279Y-147240000D02*
X225799721Y-147240000D01*
X226125279Y-148260000D02*
X225799721Y-148260000D01*
X248700000Y-140500000D02*
G75*
G03X248700000Y-140500000I-700000J0D01*
G01*
X236950000Y-118750000D02*
G75*
G03X236950000Y-118750000I-700000J0D01*
G01*
X235950000Y-151500000D02*
G75*
G03X235950000Y-151500000I-700000J0D01*
G01*
X209450000Y-121500000D02*
G75*
G03X209450000Y-121500000I-700000J0D01*
G01*
X233950000Y-184000000D02*
G75*
G03X233950000Y-184000000I-700000J0D01*
G01*
X237950000Y-152750000D02*
G75*
G03X237950000Y-152750000I-700000J0D01*
G01*
X250750000Y-154000000D02*
G75*
G03X250750000Y-154000000I-1750000J0D01*
G01*
X239700000Y-140500000D02*
G75*
G03X239700000Y-140500000I-700000J0D01*
G01*
X234200000Y-116500000D02*
G75*
G03X234200000Y-116500000I-700000J0D01*
G01*
X237450000Y-181750000D02*
G75*
G03X237450000Y-181750000I-700000J0D01*
G01*
X226450000Y-172250000D02*
G75*
G03X226450000Y-172250000I-700000J0D01*
G01*
X238450000Y-143750000D02*
G75*
G03X238450000Y-143750000I-700000J0D01*
G01*
X239700000Y-174000000D02*
G75*
G03X239700000Y-174000000I-700000J0D01*
G01*
X241450000Y-170000000D02*
G75*
G03X241450000Y-170000000I-700000J0D01*
G01*
X229450000Y-175750000D02*
G75*
G03X229450000Y-175750000I-700000J0D01*
G01*
X239700000Y-176250000D02*
G75*
G03X239700000Y-176250000I-700000J0D01*
G01*
X243700000Y-164750000D02*
G75*
G03X243700000Y-164750000I-700000J0D01*
G01*
X239700000Y-159500000D02*
G75*
G03X239700000Y-159500000I-700000J0D01*
G01*
X238200000Y-166500000D02*
G75*
G03X238200000Y-166500000I-700000J0D01*
G01*
X235200000Y-158250000D02*
G75*
G03X235200000Y-158250000I-700000J0D01*
G01*
X227450000Y-140500000D02*
G75*
G03X227450000Y-140500000I-700000J0D01*
G01*
X231450000Y-116500000D02*
G75*
G03X231450000Y-116500000I-700000J0D01*
G01*
X231450000Y-184000000D02*
G75*
G03X231450000Y-184000000I-700000J0D01*
G01*
X218450000Y-140500000D02*
G75*
G03X218450000Y-140500000I-700000J0D01*
G01*
X228700000Y-118750000D02*
G75*
G03X228700000Y-118750000I-700000J0D01*
G01*
X227450000Y-143750000D02*
G75*
G03X227450000Y-143750000I-700000J0D01*
G01*
X249700000Y-184000000D02*
G75*
G03X249700000Y-184000000I-700000J0D01*
G01*
X249700000Y-181000000D02*
G75*
G03X249700000Y-181000000I-700000J0D01*
G01*
X249700000Y-178000000D02*
G75*
G03X249700000Y-178000000I-700000J0D01*
G01*
X249700000Y-175000000D02*
G75*
G03X249700000Y-175000000I-700000J0D01*
G01*
X249700000Y-172000000D02*
G75*
G03X249700000Y-172000000I-700000J0D01*
G01*
X249700000Y-169000000D02*
G75*
G03X249700000Y-169000000I-700000J0D01*
G01*
X249700000Y-166000000D02*
G75*
G03X249700000Y-166000000I-700000J0D01*
G01*
X249700000Y-163000000D02*
G75*
G03X249700000Y-163000000I-700000J0D01*
G01*
X221700000Y-147250000D02*
G75*
G03X221700000Y-147250000I-700000J0D01*
G01*
X255700000Y-184000000D02*
G75*
G03X255700000Y-184000000I-700000J0D01*
G01*
X255700000Y-181000000D02*
G75*
G03X255700000Y-181000000I-700000J0D01*
G01*
X255700000Y-178000000D02*
G75*
G03X255700000Y-178000000I-700000J0D01*
G01*
X255700000Y-175000000D02*
G75*
G03X255700000Y-175000000I-700000J0D01*
G01*
X255700000Y-172000000D02*
G75*
G03X255700000Y-172000000I-700000J0D01*
G01*
X255700000Y-169000000D02*
G75*
G03X255700000Y-169000000I-700000J0D01*
G01*
X255700000Y-166000000D02*
G75*
G03X255700000Y-166000000I-700000J0D01*
G01*
X255700000Y-163000000D02*
G75*
G03X255700000Y-163000000I-700000J0D01*
G01*
X229450000Y-168250000D02*
G75*
G03X229450000Y-168250000I-700000J0D01*
G01*
X229950000Y-163750000D02*
G75*
G03X229950000Y-163750000I-700000J0D01*
G01*
X229450000Y-166000000D02*
G75*
G03X229450000Y-166000000I-700000J0D01*
G01*
X230950000Y-151750000D02*
G75*
G03X230950000Y-151750000I-700000J0D01*
G01*
X226700000Y-149750000D02*
G75*
G03X226700000Y-149750000I-700000J0D01*
G01*
X228450000Y-151250000D02*
G75*
G03X228450000Y-151250000I-700000J0D01*
G01*
X234325000Y-149500000D02*
X235675000Y-149500000D01*
X234325000Y-144375000D02*
X229675000Y-144375000D01*
X234325000Y-149625000D02*
X229675000Y-149625000D01*
X234325000Y-144375000D02*
X234325000Y-144600000D01*
X229675000Y-144375000D02*
X229675000Y-144600000D01*
X229675000Y-149625000D02*
X229675000Y-149400000D01*
X234325000Y-149625000D02*
X234325000Y-149500000D01*
X215550000Y-144660000D02*
X217450000Y-144660000D01*
X216950000Y-142340000D02*
X215550000Y-142340000D01*
X230375000Y-171325000D02*
X230500000Y-171325000D01*
X230375000Y-166675000D02*
X230600000Y-166675000D01*
X235625000Y-166675000D02*
X235400000Y-166675000D01*
X235625000Y-171325000D02*
X235400000Y-171325000D01*
X230375000Y-171325000D02*
X230375000Y-166675000D01*
X235625000Y-171325000D02*
X235625000Y-166675000D01*
X230500000Y-171325000D02*
X230500000Y-172675000D01*
D10*
X217109523Y-129311904D02*
X217566666Y-129311904D01*
X217338095Y-130111904D02*
X217338095Y-129311904D01*
X217833333Y-130111904D02*
X217833333Y-129311904D01*
X218138095Y-129311904D01*
X218214285Y-129350000D01*
X218252380Y-129388095D01*
X218290476Y-129464285D01*
X218290476Y-129578571D01*
X218252380Y-129654761D01*
X218214285Y-129692857D01*
X218138095Y-129730952D01*
X217833333Y-129730952D01*
X218557142Y-129311904D02*
X219052380Y-129311904D01*
X218785714Y-129616666D01*
X218900000Y-129616666D01*
X218976190Y-129654761D01*
X219014285Y-129692857D01*
X219052380Y-129769047D01*
X219052380Y-129959523D01*
X219014285Y-130035714D01*
X218976190Y-130073809D01*
X218900000Y-130111904D01*
X218671428Y-130111904D01*
X218595238Y-130073809D01*
X218557142Y-130035714D01*
X219319047Y-129311904D02*
X219814285Y-129311904D01*
X219547619Y-129616666D01*
X219661904Y-129616666D01*
X219738095Y-129654761D01*
X219776190Y-129692857D01*
X219814285Y-129769047D01*
X219814285Y-129959523D01*
X219776190Y-130035714D01*
X219738095Y-130073809D01*
X219661904Y-130111904D01*
X219433333Y-130111904D01*
X219357142Y-130073809D01*
X219319047Y-130035714D01*
X234109523Y-129811904D02*
X234566666Y-129811904D01*
X234338095Y-130611904D02*
X234338095Y-129811904D01*
X234833333Y-130611904D02*
X234833333Y-129811904D01*
X235138095Y-129811904D01*
X235214285Y-129850000D01*
X235252380Y-129888095D01*
X235290476Y-129964285D01*
X235290476Y-130078571D01*
X235252380Y-130154761D01*
X235214285Y-130192857D01*
X235138095Y-130230952D01*
X234833333Y-130230952D01*
X236052380Y-130611904D02*
X235595238Y-130611904D01*
X235823809Y-130611904D02*
X235823809Y-129811904D01*
X235747619Y-129926190D01*
X235671428Y-130002380D01*
X235595238Y-130040476D01*
X236547619Y-129811904D02*
X236623809Y-129811904D01*
X236700000Y-129850000D01*
X236738095Y-129888095D01*
X236776190Y-129964285D01*
X236814285Y-130116666D01*
X236814285Y-130307142D01*
X236776190Y-130459523D01*
X236738095Y-130535714D01*
X236700000Y-130573809D01*
X236623809Y-130611904D01*
X236547619Y-130611904D01*
X236471428Y-130573809D01*
X236433333Y-130535714D01*
X236395238Y-130459523D01*
X236357142Y-130307142D01*
X236357142Y-130116666D01*
X236395238Y-129964285D01*
X236433333Y-129888095D01*
X236471428Y-129850000D01*
X236547619Y-129811904D01*
X225609523Y-129811904D02*
X226066666Y-129811904D01*
X225838095Y-130611904D02*
X225838095Y-129811904D01*
X226333333Y-130611904D02*
X226333333Y-129811904D01*
X226638095Y-129811904D01*
X226714285Y-129850000D01*
X226752380Y-129888095D01*
X226790476Y-129964285D01*
X226790476Y-130078571D01*
X226752380Y-130154761D01*
X226714285Y-130192857D01*
X226638095Y-130230952D01*
X226333333Y-130230952D01*
X227095238Y-129888095D02*
X227133333Y-129850000D01*
X227209523Y-129811904D01*
X227400000Y-129811904D01*
X227476190Y-129850000D01*
X227514285Y-129888095D01*
X227552380Y-129964285D01*
X227552380Y-130040476D01*
X227514285Y-130154761D01*
X227057142Y-130611904D01*
X227552380Y-130611904D01*
X228238095Y-129811904D02*
X228085714Y-129811904D01*
X228009523Y-129850000D01*
X227971428Y-129888095D01*
X227895238Y-130002380D01*
X227857142Y-130154761D01*
X227857142Y-130459523D01*
X227895238Y-130535714D01*
X227933333Y-130573809D01*
X228009523Y-130611904D01*
X228161904Y-130611904D01*
X228238095Y-130573809D01*
X228276190Y-130535714D01*
X228314285Y-130459523D01*
X228314285Y-130269047D01*
X228276190Y-130192857D01*
X228238095Y-130154761D01*
X228161904Y-130116666D01*
X228009523Y-130116666D01*
X227933333Y-130154761D01*
X227895238Y-130192857D01*
X227857142Y-130269047D01*
X242740476Y-129311904D02*
X243197619Y-129311904D01*
X242969047Y-130111904D02*
X242969047Y-129311904D01*
X243464285Y-130111904D02*
X243464285Y-129311904D01*
X243769047Y-129311904D01*
X243845238Y-129350000D01*
X243883333Y-129388095D01*
X243921428Y-129464285D01*
X243921428Y-129578571D01*
X243883333Y-129654761D01*
X243845238Y-129692857D01*
X243769047Y-129730952D01*
X243464285Y-129730952D01*
X244683333Y-130111904D02*
X244226190Y-130111904D01*
X244454761Y-130111904D02*
X244454761Y-129311904D01*
X244378571Y-129426190D01*
X244302380Y-129502380D01*
X244226190Y-129540476D01*
X237411904Y-123609523D02*
X238059523Y-123609523D01*
X238135714Y-123571428D01*
X238173809Y-123533333D01*
X238211904Y-123457142D01*
X238211904Y-123304761D01*
X238173809Y-123228571D01*
X238135714Y-123190476D01*
X238059523Y-123152380D01*
X237411904Y-123152380D01*
X238211904Y-122352380D02*
X238211904Y-122809523D01*
X238211904Y-122580952D02*
X237411904Y-122580952D01*
X237526190Y-122657142D01*
X237602380Y-122733333D01*
X237640476Y-122809523D01*
X252285714Y-138383333D02*
X252323809Y-138421428D01*
X252361904Y-138535714D01*
X252361904Y-138611904D01*
X252323809Y-138726190D01*
X252247619Y-138802380D01*
X252171428Y-138840476D01*
X252019047Y-138878571D01*
X251904761Y-138878571D01*
X251752380Y-138840476D01*
X251676190Y-138802380D01*
X251600000Y-138726190D01*
X251561904Y-138611904D01*
X251561904Y-138535714D01*
X251600000Y-138421428D01*
X251638095Y-138383333D01*
X252361904Y-137621428D02*
X252361904Y-138078571D01*
X252361904Y-137850000D02*
X251561904Y-137850000D01*
X251676190Y-137926190D01*
X251752380Y-138002380D01*
X251790476Y-138078571D01*
X240116666Y-147285714D02*
X240078571Y-147323809D01*
X239964285Y-147361904D01*
X239888095Y-147361904D01*
X239773809Y-147323809D01*
X239697619Y-147247619D01*
X239659523Y-147171428D01*
X239621428Y-147019047D01*
X239621428Y-146904761D01*
X239659523Y-146752380D01*
X239697619Y-146676190D01*
X239773809Y-146600000D01*
X239888095Y-146561904D01*
X239964285Y-146561904D01*
X240078571Y-146600000D01*
X240116666Y-146638095D01*
X240421428Y-146638095D02*
X240459523Y-146600000D01*
X240535714Y-146561904D01*
X240726190Y-146561904D01*
X240802380Y-146600000D01*
X240840476Y-146638095D01*
X240878571Y-146714285D01*
X240878571Y-146790476D01*
X240840476Y-146904761D01*
X240383333Y-147361904D01*
X240878571Y-147361904D01*
X233285714Y-138383333D02*
X233323809Y-138421428D01*
X233361904Y-138535714D01*
X233361904Y-138611904D01*
X233323809Y-138726190D01*
X233247619Y-138802380D01*
X233171428Y-138840476D01*
X233019047Y-138878571D01*
X232904761Y-138878571D01*
X232752380Y-138840476D01*
X232676190Y-138802380D01*
X232600000Y-138726190D01*
X232561904Y-138611904D01*
X232561904Y-138535714D01*
X232600000Y-138421428D01*
X232638095Y-138383333D01*
X232561904Y-138116666D02*
X232561904Y-137621428D01*
X232866666Y-137888095D01*
X232866666Y-137773809D01*
X232904761Y-137697619D01*
X232942857Y-137659523D01*
X233019047Y-137621428D01*
X233209523Y-137621428D01*
X233285714Y-137659523D01*
X233323809Y-137697619D01*
X233361904Y-137773809D01*
X233361904Y-138002380D01*
X233323809Y-138078571D01*
X233285714Y-138116666D01*
X237654166Y-168855714D02*
X237616071Y-168893809D01*
X237501785Y-168931904D01*
X237425595Y-168931904D01*
X237311309Y-168893809D01*
X237235119Y-168817619D01*
X237197023Y-168741428D01*
X237158928Y-168589047D01*
X237158928Y-168474761D01*
X237197023Y-168322380D01*
X237235119Y-168246190D01*
X237311309Y-168170000D01*
X237425595Y-168131904D01*
X237501785Y-168131904D01*
X237616071Y-168170000D01*
X237654166Y-168208095D01*
X238339880Y-168398571D02*
X238339880Y-168931904D01*
X238149404Y-168093809D02*
X237958928Y-168665238D01*
X238454166Y-168665238D01*
X231785714Y-160883333D02*
X231823809Y-160921428D01*
X231861904Y-161035714D01*
X231861904Y-161111904D01*
X231823809Y-161226190D01*
X231747619Y-161302380D01*
X231671428Y-161340476D01*
X231519047Y-161378571D01*
X231404761Y-161378571D01*
X231252380Y-161340476D01*
X231176190Y-161302380D01*
X231100000Y-161226190D01*
X231061904Y-161111904D01*
X231061904Y-161035714D01*
X231100000Y-160921428D01*
X231138095Y-160883333D01*
X231061904Y-160159523D02*
X231061904Y-160540476D01*
X231442857Y-160578571D01*
X231404761Y-160540476D01*
X231366666Y-160464285D01*
X231366666Y-160273809D01*
X231404761Y-160197619D01*
X231442857Y-160159523D01*
X231519047Y-160121428D01*
X231709523Y-160121428D01*
X231785714Y-160159523D01*
X231823809Y-160197619D01*
X231861904Y-160273809D01*
X231861904Y-160464285D01*
X231823809Y-160540476D01*
X231785714Y-160578571D01*
X231035714Y-138383333D02*
X231073809Y-138421428D01*
X231111904Y-138535714D01*
X231111904Y-138611904D01*
X231073809Y-138726190D01*
X230997619Y-138802380D01*
X230921428Y-138840476D01*
X230769047Y-138878571D01*
X230654761Y-138878571D01*
X230502380Y-138840476D01*
X230426190Y-138802380D01*
X230350000Y-138726190D01*
X230311904Y-138611904D01*
X230311904Y-138535714D01*
X230350000Y-138421428D01*
X230388095Y-138383333D01*
X230311904Y-137697619D02*
X230311904Y-137850000D01*
X230350000Y-137926190D01*
X230388095Y-137964285D01*
X230502380Y-138040476D01*
X230654761Y-138078571D01*
X230959523Y-138078571D01*
X231035714Y-138040476D01*
X231073809Y-138002380D01*
X231111904Y-137926190D01*
X231111904Y-137773809D01*
X231073809Y-137697619D01*
X231035714Y-137659523D01*
X230959523Y-137621428D01*
X230769047Y-137621428D01*
X230692857Y-137659523D01*
X230654761Y-137697619D01*
X230616666Y-137773809D01*
X230616666Y-137926190D01*
X230654761Y-138002380D01*
X230692857Y-138040476D01*
X230769047Y-138078571D01*
X212035714Y-138133333D02*
X212073809Y-138171428D01*
X212111904Y-138285714D01*
X212111904Y-138361904D01*
X212073809Y-138476190D01*
X211997619Y-138552380D01*
X211921428Y-138590476D01*
X211769047Y-138628571D01*
X211654761Y-138628571D01*
X211502380Y-138590476D01*
X211426190Y-138552380D01*
X211350000Y-138476190D01*
X211311904Y-138361904D01*
X211311904Y-138285714D01*
X211350000Y-138171428D01*
X211388095Y-138133333D01*
X211311904Y-137866666D02*
X211311904Y-137333333D01*
X212111904Y-137676190D01*
X216909523Y-186791904D02*
X216909523Y-185991904D01*
X217100000Y-185991904D01*
X217214285Y-186030000D01*
X217290476Y-186106190D01*
X217328571Y-186182380D01*
X217366666Y-186334761D01*
X217366666Y-186449047D01*
X217328571Y-186601428D01*
X217290476Y-186677619D01*
X217214285Y-186753809D01*
X217100000Y-186791904D01*
X216909523Y-186791904D01*
X218128571Y-186791904D02*
X217671428Y-186791904D01*
X217900000Y-186791904D02*
X217900000Y-185991904D01*
X217823809Y-186106190D01*
X217747619Y-186182380D01*
X217671428Y-186220476D01*
X216909523Y-181611904D02*
X216909523Y-180811904D01*
X217100000Y-180811904D01*
X217214285Y-180850000D01*
X217290476Y-180926190D01*
X217328571Y-181002380D01*
X217366666Y-181154761D01*
X217366666Y-181269047D01*
X217328571Y-181421428D01*
X217290476Y-181497619D01*
X217214285Y-181573809D01*
X217100000Y-181611904D01*
X216909523Y-181611904D01*
X217671428Y-180888095D02*
X217709523Y-180850000D01*
X217785714Y-180811904D01*
X217976190Y-180811904D01*
X218052380Y-180850000D01*
X218090476Y-180888095D01*
X218128571Y-180964285D01*
X218128571Y-181040476D01*
X218090476Y-181154761D01*
X217633333Y-181611904D01*
X218128571Y-181611904D01*
X216909523Y-173291904D02*
X216909523Y-172491904D01*
X217100000Y-172491904D01*
X217214285Y-172530000D01*
X217290476Y-172606190D01*
X217328571Y-172682380D01*
X217366666Y-172834761D01*
X217366666Y-172949047D01*
X217328571Y-173101428D01*
X217290476Y-173177619D01*
X217214285Y-173253809D01*
X217100000Y-173291904D01*
X216909523Y-173291904D01*
X217633333Y-172491904D02*
X218128571Y-172491904D01*
X217861904Y-172796666D01*
X217976190Y-172796666D01*
X218052380Y-172834761D01*
X218090476Y-172872857D01*
X218128571Y-172949047D01*
X218128571Y-173139523D01*
X218090476Y-173215714D01*
X218052380Y-173253809D01*
X217976190Y-173291904D01*
X217747619Y-173291904D01*
X217671428Y-173253809D01*
X217633333Y-173215714D01*
X209733333Y-187331904D02*
X209733333Y-187903333D01*
X209695238Y-188017619D01*
X209619047Y-188093809D01*
X209504761Y-188131904D01*
X209428571Y-188131904D01*
X210533333Y-188131904D02*
X210076190Y-188131904D01*
X210304761Y-188131904D02*
X210304761Y-187331904D01*
X210228571Y-187446190D01*
X210152380Y-187522380D01*
X210076190Y-187560476D01*
X209733333Y-173871904D02*
X209733333Y-174443333D01*
X209695238Y-174557619D01*
X209619047Y-174633809D01*
X209504761Y-174671904D01*
X209428571Y-174671904D01*
X210076190Y-173948095D02*
X210114285Y-173910000D01*
X210190476Y-173871904D01*
X210380952Y-173871904D01*
X210457142Y-173910000D01*
X210495238Y-173948095D01*
X210533333Y-174024285D01*
X210533333Y-174100476D01*
X210495238Y-174214761D01*
X210038095Y-174671904D01*
X210533333Y-174671904D01*
X209733333Y-162331904D02*
X209733333Y-162903333D01*
X209695238Y-163017619D01*
X209619047Y-163093809D01*
X209504761Y-163131904D01*
X209428571Y-163131904D01*
X210038095Y-162331904D02*
X210533333Y-162331904D01*
X210266666Y-162636666D01*
X210380952Y-162636666D01*
X210457142Y-162674761D01*
X210495238Y-162712857D01*
X210533333Y-162789047D01*
X210533333Y-162979523D01*
X210495238Y-163055714D01*
X210457142Y-163093809D01*
X210380952Y-163131904D01*
X210152380Y-163131904D01*
X210076190Y-163093809D01*
X210038095Y-163055714D01*
X235581904Y-190266666D02*
X236153333Y-190266666D01*
X236267619Y-190304761D01*
X236343809Y-190380952D01*
X236381904Y-190495238D01*
X236381904Y-190571428D01*
X235848571Y-189542857D02*
X236381904Y-189542857D01*
X235543809Y-189733333D02*
X236115238Y-189923809D01*
X236115238Y-189428571D01*
X243331904Y-110266666D02*
X243903333Y-110266666D01*
X244017619Y-110304761D01*
X244093809Y-110380952D01*
X244131904Y-110495238D01*
X244131904Y-110571428D01*
X243331904Y-109504761D02*
X243331904Y-109885714D01*
X243712857Y-109923809D01*
X243674761Y-109885714D01*
X243636666Y-109809523D01*
X243636666Y-109619047D01*
X243674761Y-109542857D01*
X243712857Y-109504761D01*
X243789047Y-109466666D01*
X243979523Y-109466666D01*
X244055714Y-109504761D01*
X244093809Y-109542857D01*
X244131904Y-109619047D01*
X244131904Y-109809523D01*
X244093809Y-109885714D01*
X244055714Y-109923809D01*
X249173809Y-139438095D02*
X249097619Y-139400000D01*
X249021428Y-139323809D01*
X248907142Y-139209523D01*
X248830952Y-139171428D01*
X248754761Y-139171428D01*
X248792857Y-139361904D02*
X248716666Y-139323809D01*
X248640476Y-139247619D01*
X248602380Y-139095238D01*
X248602380Y-138828571D01*
X248640476Y-138676190D01*
X248716666Y-138600000D01*
X248792857Y-138561904D01*
X248945238Y-138561904D01*
X249021428Y-138600000D01*
X249097619Y-138676190D01*
X249135714Y-138828571D01*
X249135714Y-139095238D01*
X249097619Y-139247619D01*
X249021428Y-139323809D01*
X248945238Y-139361904D01*
X248792857Y-139361904D01*
X249897619Y-139361904D02*
X249440476Y-139361904D01*
X249669047Y-139361904D02*
X249669047Y-138561904D01*
X249592857Y-138676190D01*
X249516666Y-138752380D01*
X249440476Y-138790476D01*
X244923809Y-139438095D02*
X244847619Y-139400000D01*
X244771428Y-139323809D01*
X244657142Y-139209523D01*
X244580952Y-139171428D01*
X244504761Y-139171428D01*
X244542857Y-139361904D02*
X244466666Y-139323809D01*
X244390476Y-139247619D01*
X244352380Y-139095238D01*
X244352380Y-138828571D01*
X244390476Y-138676190D01*
X244466666Y-138600000D01*
X244542857Y-138561904D01*
X244695238Y-138561904D01*
X244771428Y-138600000D01*
X244847619Y-138676190D01*
X244885714Y-138828571D01*
X244885714Y-139095238D01*
X244847619Y-139247619D01*
X244771428Y-139323809D01*
X244695238Y-139361904D01*
X244542857Y-139361904D01*
X245190476Y-138638095D02*
X245228571Y-138600000D01*
X245304761Y-138561904D01*
X245495238Y-138561904D01*
X245571428Y-138600000D01*
X245609523Y-138638095D01*
X245647619Y-138714285D01*
X245647619Y-138790476D01*
X245609523Y-138904761D01*
X245152380Y-139361904D01*
X245647619Y-139361904D01*
X239923809Y-139438095D02*
X239847619Y-139400000D01*
X239771428Y-139323809D01*
X239657142Y-139209523D01*
X239580952Y-139171428D01*
X239504761Y-139171428D01*
X239542857Y-139361904D02*
X239466666Y-139323809D01*
X239390476Y-139247619D01*
X239352380Y-139095238D01*
X239352380Y-138828571D01*
X239390476Y-138676190D01*
X239466666Y-138600000D01*
X239542857Y-138561904D01*
X239695238Y-138561904D01*
X239771428Y-138600000D01*
X239847619Y-138676190D01*
X239885714Y-138828571D01*
X239885714Y-139095238D01*
X239847619Y-139247619D01*
X239771428Y-139323809D01*
X239695238Y-139361904D01*
X239542857Y-139361904D01*
X240152380Y-138561904D02*
X240647619Y-138561904D01*
X240380952Y-138866666D01*
X240495238Y-138866666D01*
X240571428Y-138904761D01*
X240609523Y-138942857D01*
X240647619Y-139019047D01*
X240647619Y-139209523D01*
X240609523Y-139285714D01*
X240571428Y-139323809D01*
X240495238Y-139361904D01*
X240266666Y-139361904D01*
X240190476Y-139323809D01*
X240152380Y-139285714D01*
X235923809Y-139438095D02*
X235847619Y-139400000D01*
X235771428Y-139323809D01*
X235657142Y-139209523D01*
X235580952Y-139171428D01*
X235504761Y-139171428D01*
X235542857Y-139361904D02*
X235466666Y-139323809D01*
X235390476Y-139247619D01*
X235352380Y-139095238D01*
X235352380Y-138828571D01*
X235390476Y-138676190D01*
X235466666Y-138600000D01*
X235542857Y-138561904D01*
X235695238Y-138561904D01*
X235771428Y-138600000D01*
X235847619Y-138676190D01*
X235885714Y-138828571D01*
X235885714Y-139095238D01*
X235847619Y-139247619D01*
X235771428Y-139323809D01*
X235695238Y-139361904D01*
X235542857Y-139361904D01*
X236571428Y-138828571D02*
X236571428Y-139361904D01*
X236380952Y-138523809D02*
X236190476Y-139095238D01*
X236685714Y-139095238D01*
X227673809Y-139438095D02*
X227597619Y-139400000D01*
X227521428Y-139323809D01*
X227407142Y-139209523D01*
X227330952Y-139171428D01*
X227254761Y-139171428D01*
X227292857Y-139361904D02*
X227216666Y-139323809D01*
X227140476Y-139247619D01*
X227102380Y-139095238D01*
X227102380Y-138828571D01*
X227140476Y-138676190D01*
X227216666Y-138600000D01*
X227292857Y-138561904D01*
X227445238Y-138561904D01*
X227521428Y-138600000D01*
X227597619Y-138676190D01*
X227635714Y-138828571D01*
X227635714Y-139095238D01*
X227597619Y-139247619D01*
X227521428Y-139323809D01*
X227445238Y-139361904D01*
X227292857Y-139361904D01*
X228359523Y-138561904D02*
X227978571Y-138561904D01*
X227940476Y-138942857D01*
X227978571Y-138904761D01*
X228054761Y-138866666D01*
X228245238Y-138866666D01*
X228321428Y-138904761D01*
X228359523Y-138942857D01*
X228397619Y-139019047D01*
X228397619Y-139209523D01*
X228359523Y-139285714D01*
X228321428Y-139323809D01*
X228245238Y-139361904D01*
X228054761Y-139361904D01*
X227978571Y-139323809D01*
X227940476Y-139285714D01*
X223673809Y-139438095D02*
X223597619Y-139400000D01*
X223521428Y-139323809D01*
X223407142Y-139209523D01*
X223330952Y-139171428D01*
X223254761Y-139171428D01*
X223292857Y-139361904D02*
X223216666Y-139323809D01*
X223140476Y-139247619D01*
X223102380Y-139095238D01*
X223102380Y-138828571D01*
X223140476Y-138676190D01*
X223216666Y-138600000D01*
X223292857Y-138561904D01*
X223445238Y-138561904D01*
X223521428Y-138600000D01*
X223597619Y-138676190D01*
X223635714Y-138828571D01*
X223635714Y-139095238D01*
X223597619Y-139247619D01*
X223521428Y-139323809D01*
X223445238Y-139361904D01*
X223292857Y-139361904D01*
X224321428Y-138561904D02*
X224169047Y-138561904D01*
X224092857Y-138600000D01*
X224054761Y-138638095D01*
X223978571Y-138752380D01*
X223940476Y-138904761D01*
X223940476Y-139209523D01*
X223978571Y-139285714D01*
X224016666Y-139323809D01*
X224092857Y-139361904D01*
X224245238Y-139361904D01*
X224321428Y-139323809D01*
X224359523Y-139285714D01*
X224397619Y-139209523D01*
X224397619Y-139019047D01*
X224359523Y-138942857D01*
X224321428Y-138904761D01*
X224245238Y-138866666D01*
X224092857Y-138866666D01*
X224016666Y-138904761D01*
X223978571Y-138942857D01*
X223940476Y-139019047D01*
X218673809Y-139438095D02*
X218597619Y-139400000D01*
X218521428Y-139323809D01*
X218407142Y-139209523D01*
X218330952Y-139171428D01*
X218254761Y-139171428D01*
X218292857Y-139361904D02*
X218216666Y-139323809D01*
X218140476Y-139247619D01*
X218102380Y-139095238D01*
X218102380Y-138828571D01*
X218140476Y-138676190D01*
X218216666Y-138600000D01*
X218292857Y-138561904D01*
X218445238Y-138561904D01*
X218521428Y-138600000D01*
X218597619Y-138676190D01*
X218635714Y-138828571D01*
X218635714Y-139095238D01*
X218597619Y-139247619D01*
X218521428Y-139323809D01*
X218445238Y-139361904D01*
X218292857Y-139361904D01*
X218902380Y-138561904D02*
X219435714Y-138561904D01*
X219092857Y-139361904D01*
X214673809Y-139438095D02*
X214597619Y-139400000D01*
X214521428Y-139323809D01*
X214407142Y-139209523D01*
X214330952Y-139171428D01*
X214254761Y-139171428D01*
X214292857Y-139361904D02*
X214216666Y-139323809D01*
X214140476Y-139247619D01*
X214102380Y-139095238D01*
X214102380Y-138828571D01*
X214140476Y-138676190D01*
X214216666Y-138600000D01*
X214292857Y-138561904D01*
X214445238Y-138561904D01*
X214521428Y-138600000D01*
X214597619Y-138676190D01*
X214635714Y-138828571D01*
X214635714Y-139095238D01*
X214597619Y-139247619D01*
X214521428Y-139323809D01*
X214445238Y-139361904D01*
X214292857Y-139361904D01*
X215092857Y-138904761D02*
X215016666Y-138866666D01*
X214978571Y-138828571D01*
X214940476Y-138752380D01*
X214940476Y-138714285D01*
X214978571Y-138638095D01*
X215016666Y-138600000D01*
X215092857Y-138561904D01*
X215245238Y-138561904D01*
X215321428Y-138600000D01*
X215359523Y-138638095D01*
X215397619Y-138714285D01*
X215397619Y-138752380D01*
X215359523Y-138828571D01*
X215321428Y-138866666D01*
X215245238Y-138904761D01*
X215092857Y-138904761D01*
X215016666Y-138942857D01*
X214978571Y-138980952D01*
X214940476Y-139057142D01*
X214940476Y-139209523D01*
X214978571Y-139285714D01*
X215016666Y-139323809D01*
X215092857Y-139361904D01*
X215245238Y-139361904D01*
X215321428Y-139323809D01*
X215359523Y-139285714D01*
X215397619Y-139209523D01*
X215397619Y-139057142D01*
X215359523Y-138980952D01*
X215321428Y-138942857D01*
X215245238Y-138904761D01*
X250361904Y-133095833D02*
X249980952Y-133362500D01*
X250361904Y-133552976D02*
X249561904Y-133552976D01*
X249561904Y-133248214D01*
X249600000Y-133172023D01*
X249638095Y-133133928D01*
X249714285Y-133095833D01*
X249828571Y-133095833D01*
X249904761Y-133133928D01*
X249942857Y-133172023D01*
X249980952Y-133248214D01*
X249980952Y-133552976D01*
X250361904Y-132333928D02*
X250361904Y-132791071D01*
X250361904Y-132562500D02*
X249561904Y-132562500D01*
X249676190Y-132638690D01*
X249752380Y-132714880D01*
X249790476Y-132791071D01*
X247611904Y-133133333D02*
X247230952Y-133400000D01*
X247611904Y-133590476D02*
X246811904Y-133590476D01*
X246811904Y-133285714D01*
X246850000Y-133209523D01*
X246888095Y-133171428D01*
X246964285Y-133133333D01*
X247078571Y-133133333D01*
X247154761Y-133171428D01*
X247192857Y-133209523D01*
X247230952Y-133285714D01*
X247230952Y-133590476D01*
X246888095Y-132828571D02*
X246850000Y-132790476D01*
X246811904Y-132714285D01*
X246811904Y-132523809D01*
X246850000Y-132447619D01*
X246888095Y-132409523D01*
X246964285Y-132371428D01*
X247040476Y-132371428D01*
X247154761Y-132409523D01*
X247611904Y-132866666D01*
X247611904Y-132371428D01*
X242931904Y-133095833D02*
X242550952Y-133362500D01*
X242931904Y-133552976D02*
X242131904Y-133552976D01*
X242131904Y-133248214D01*
X242170000Y-133172023D01*
X242208095Y-133133928D01*
X242284285Y-133095833D01*
X242398571Y-133095833D01*
X242474761Y-133133928D01*
X242512857Y-133172023D01*
X242550952Y-133248214D01*
X242550952Y-133552976D01*
X242131904Y-132829166D02*
X242131904Y-132333928D01*
X242436666Y-132600595D01*
X242436666Y-132486309D01*
X242474761Y-132410119D01*
X242512857Y-132372023D01*
X242589047Y-132333928D01*
X242779523Y-132333928D01*
X242855714Y-132372023D01*
X242893809Y-132410119D01*
X242931904Y-132486309D01*
X242931904Y-132714880D01*
X242893809Y-132791071D01*
X242855714Y-132829166D01*
X223866666Y-127111904D02*
X223600000Y-126730952D01*
X223409523Y-127111904D02*
X223409523Y-126311904D01*
X223714285Y-126311904D01*
X223790476Y-126350000D01*
X223828571Y-126388095D01*
X223866666Y-126464285D01*
X223866666Y-126578571D01*
X223828571Y-126654761D01*
X223790476Y-126692857D01*
X223714285Y-126730952D01*
X223409523Y-126730952D01*
X224552380Y-126578571D02*
X224552380Y-127111904D01*
X224361904Y-126273809D02*
X224171428Y-126845238D01*
X224666666Y-126845238D01*
X240116666Y-149361904D02*
X239850000Y-148980952D01*
X239659523Y-149361904D02*
X239659523Y-148561904D01*
X239964285Y-148561904D01*
X240040476Y-148600000D01*
X240078571Y-148638095D01*
X240116666Y-148714285D01*
X240116666Y-148828571D01*
X240078571Y-148904761D01*
X240040476Y-148942857D01*
X239964285Y-148980952D01*
X239659523Y-148980952D01*
X240840476Y-148561904D02*
X240459523Y-148561904D01*
X240421428Y-148942857D01*
X240459523Y-148904761D01*
X240535714Y-148866666D01*
X240726190Y-148866666D01*
X240802380Y-148904761D01*
X240840476Y-148942857D01*
X240878571Y-149019047D01*
X240878571Y-149209523D01*
X240840476Y-149285714D01*
X240802380Y-149323809D01*
X240726190Y-149361904D01*
X240535714Y-149361904D01*
X240459523Y-149323809D01*
X240421428Y-149285714D01*
X210116666Y-143111904D02*
X209850000Y-142730952D01*
X209659523Y-143111904D02*
X209659523Y-142311904D01*
X209964285Y-142311904D01*
X210040476Y-142350000D01*
X210078571Y-142388095D01*
X210116666Y-142464285D01*
X210116666Y-142578571D01*
X210078571Y-142654761D01*
X210040476Y-142692857D01*
X209964285Y-142730952D01*
X209659523Y-142730952D01*
X210802380Y-142311904D02*
X210650000Y-142311904D01*
X210573809Y-142350000D01*
X210535714Y-142388095D01*
X210459523Y-142502380D01*
X210421428Y-142654761D01*
X210421428Y-142959523D01*
X210459523Y-143035714D01*
X210497619Y-143073809D01*
X210573809Y-143111904D01*
X210726190Y-143111904D01*
X210802380Y-143073809D01*
X210840476Y-143035714D01*
X210878571Y-142959523D01*
X210878571Y-142769047D01*
X210840476Y-142692857D01*
X210802380Y-142654761D01*
X210726190Y-142616666D01*
X210573809Y-142616666D01*
X210497619Y-142654761D01*
X210459523Y-142692857D01*
X210421428Y-142769047D01*
X241361904Y-133095833D02*
X240980952Y-133362500D01*
X241361904Y-133552976D02*
X240561904Y-133552976D01*
X240561904Y-133248214D01*
X240600000Y-133172023D01*
X240638095Y-133133928D01*
X240714285Y-133095833D01*
X240828571Y-133095833D01*
X240904761Y-133133928D01*
X240942857Y-133172023D01*
X240980952Y-133248214D01*
X240980952Y-133552976D01*
X240561904Y-132829166D02*
X240561904Y-132295833D01*
X241361904Y-132638690D01*
X240116666Y-151361904D02*
X239850000Y-150980952D01*
X239659523Y-151361904D02*
X239659523Y-150561904D01*
X239964285Y-150561904D01*
X240040476Y-150600000D01*
X240078571Y-150638095D01*
X240116666Y-150714285D01*
X240116666Y-150828571D01*
X240078571Y-150904761D01*
X240040476Y-150942857D01*
X239964285Y-150980952D01*
X239659523Y-150980952D01*
X240573809Y-150904761D02*
X240497619Y-150866666D01*
X240459523Y-150828571D01*
X240421428Y-150752380D01*
X240421428Y-150714285D01*
X240459523Y-150638095D01*
X240497619Y-150600000D01*
X240573809Y-150561904D01*
X240726190Y-150561904D01*
X240802380Y-150600000D01*
X240840476Y-150638095D01*
X240878571Y-150714285D01*
X240878571Y-150752380D01*
X240840476Y-150828571D01*
X240802380Y-150866666D01*
X240726190Y-150904761D01*
X240573809Y-150904761D01*
X240497619Y-150942857D01*
X240459523Y-150980952D01*
X240421428Y-151057142D01*
X240421428Y-151209523D01*
X240459523Y-151285714D01*
X240497619Y-151323809D01*
X240573809Y-151361904D01*
X240726190Y-151361904D01*
X240802380Y-151323809D01*
X240840476Y-151285714D01*
X240878571Y-151209523D01*
X240878571Y-151057142D01*
X240840476Y-150980952D01*
X240802380Y-150942857D01*
X240726190Y-150904761D01*
X238611904Y-133095833D02*
X238230952Y-133362500D01*
X238611904Y-133552976D02*
X237811904Y-133552976D01*
X237811904Y-133248214D01*
X237850000Y-133172023D01*
X237888095Y-133133928D01*
X237964285Y-133095833D01*
X238078571Y-133095833D01*
X238154761Y-133133928D01*
X238192857Y-133172023D01*
X238230952Y-133248214D01*
X238230952Y-133552976D01*
X238611904Y-132714880D02*
X238611904Y-132562500D01*
X238573809Y-132486309D01*
X238535714Y-132448214D01*
X238421428Y-132372023D01*
X238269047Y-132333928D01*
X237964285Y-132333928D01*
X237888095Y-132372023D01*
X237850000Y-132410119D01*
X237811904Y-132486309D01*
X237811904Y-132638690D01*
X237850000Y-132714880D01*
X237888095Y-132752976D01*
X237964285Y-132791071D01*
X238154761Y-132791071D01*
X238230952Y-132752976D01*
X238269047Y-132714880D01*
X238307142Y-132638690D01*
X238307142Y-132486309D01*
X238269047Y-132410119D01*
X238230952Y-132372023D01*
X238154761Y-132333928D01*
X233931904Y-133476785D02*
X233550952Y-133743452D01*
X233931904Y-133933928D02*
X233131904Y-133933928D01*
X233131904Y-133629166D01*
X233170000Y-133552976D01*
X233208095Y-133514880D01*
X233284285Y-133476785D01*
X233398571Y-133476785D01*
X233474761Y-133514880D01*
X233512857Y-133552976D01*
X233550952Y-133629166D01*
X233550952Y-133933928D01*
X233931904Y-132714880D02*
X233931904Y-133172023D01*
X233931904Y-132943452D02*
X233131904Y-132943452D01*
X233246190Y-133019642D01*
X233322380Y-133095833D01*
X233360476Y-133172023D01*
X233131904Y-132219642D02*
X233131904Y-132143452D01*
X233170000Y-132067261D01*
X233208095Y-132029166D01*
X233284285Y-131991071D01*
X233436666Y-131952976D01*
X233627142Y-131952976D01*
X233779523Y-131991071D01*
X233855714Y-132029166D01*
X233893809Y-132067261D01*
X233931904Y-132143452D01*
X233931904Y-132219642D01*
X233893809Y-132295833D01*
X233855714Y-132333928D01*
X233779523Y-132372023D01*
X233627142Y-132410119D01*
X233436666Y-132410119D01*
X233284285Y-132372023D01*
X233208095Y-132333928D01*
X233170000Y-132295833D01*
X233131904Y-132219642D01*
X223735714Y-125111904D02*
X223469047Y-124730952D01*
X223278571Y-125111904D02*
X223278571Y-124311904D01*
X223583333Y-124311904D01*
X223659523Y-124350000D01*
X223697619Y-124388095D01*
X223735714Y-124464285D01*
X223735714Y-124578571D01*
X223697619Y-124654761D01*
X223659523Y-124692857D01*
X223583333Y-124730952D01*
X223278571Y-124730952D01*
X224497619Y-125111904D02*
X224040476Y-125111904D01*
X224269047Y-125111904D02*
X224269047Y-124311904D01*
X224192857Y-124426190D01*
X224116666Y-124502380D01*
X224040476Y-124540476D01*
X225259523Y-125111904D02*
X224802380Y-125111904D01*
X225030952Y-125111904D02*
X225030952Y-124311904D01*
X224954761Y-124426190D01*
X224878571Y-124502380D01*
X224802380Y-124540476D01*
X233361904Y-178014285D02*
X232980952Y-178280952D01*
X233361904Y-178471428D02*
X232561904Y-178471428D01*
X232561904Y-178166666D01*
X232600000Y-178090476D01*
X232638095Y-178052380D01*
X232714285Y-178014285D01*
X232828571Y-178014285D01*
X232904761Y-178052380D01*
X232942857Y-178090476D01*
X232980952Y-178166666D01*
X232980952Y-178471428D01*
X233361904Y-177252380D02*
X233361904Y-177709523D01*
X233361904Y-177480952D02*
X232561904Y-177480952D01*
X232676190Y-177557142D01*
X232752380Y-177633333D01*
X232790476Y-177709523D01*
X232638095Y-176947619D02*
X232600000Y-176909523D01*
X232561904Y-176833333D01*
X232561904Y-176642857D01*
X232600000Y-176566666D01*
X232638095Y-176528571D01*
X232714285Y-176490476D01*
X232790476Y-176490476D01*
X232904761Y-176528571D01*
X233361904Y-176985714D01*
X233361904Y-176490476D01*
X231361904Y-178014285D02*
X230980952Y-178280952D01*
X231361904Y-178471428D02*
X230561904Y-178471428D01*
X230561904Y-178166666D01*
X230600000Y-178090476D01*
X230638095Y-178052380D01*
X230714285Y-178014285D01*
X230828571Y-178014285D01*
X230904761Y-178052380D01*
X230942857Y-178090476D01*
X230980952Y-178166666D01*
X230980952Y-178471428D01*
X231361904Y-177252380D02*
X231361904Y-177709523D01*
X231361904Y-177480952D02*
X230561904Y-177480952D01*
X230676190Y-177557142D01*
X230752380Y-177633333D01*
X230790476Y-177709523D01*
X230561904Y-176985714D02*
X230561904Y-176490476D01*
X230866666Y-176757142D01*
X230866666Y-176642857D01*
X230904761Y-176566666D01*
X230942857Y-176528571D01*
X231019047Y-176490476D01*
X231209523Y-176490476D01*
X231285714Y-176528571D01*
X231323809Y-176566666D01*
X231361904Y-176642857D01*
X231361904Y-176871428D01*
X231323809Y-176947619D01*
X231285714Y-176985714D01*
X239985714Y-172361904D02*
X239719047Y-171980952D01*
X239528571Y-172361904D02*
X239528571Y-171561904D01*
X239833333Y-171561904D01*
X239909523Y-171600000D01*
X239947619Y-171638095D01*
X239985714Y-171714285D01*
X239985714Y-171828571D01*
X239947619Y-171904761D01*
X239909523Y-171942857D01*
X239833333Y-171980952D01*
X239528571Y-171980952D01*
X240747619Y-172361904D02*
X240290476Y-172361904D01*
X240519047Y-172361904D02*
X240519047Y-171561904D01*
X240442857Y-171676190D01*
X240366666Y-171752380D01*
X240290476Y-171790476D01*
X241433333Y-171828571D02*
X241433333Y-172361904D01*
X241242857Y-171523809D02*
X241052380Y-172095238D01*
X241547619Y-172095238D01*
X237985714Y-180111904D02*
X237719047Y-179730952D01*
X237528571Y-180111904D02*
X237528571Y-179311904D01*
X237833333Y-179311904D01*
X237909523Y-179350000D01*
X237947619Y-179388095D01*
X237985714Y-179464285D01*
X237985714Y-179578571D01*
X237947619Y-179654761D01*
X237909523Y-179692857D01*
X237833333Y-179730952D01*
X237528571Y-179730952D01*
X238747619Y-180111904D02*
X238290476Y-180111904D01*
X238519047Y-180111904D02*
X238519047Y-179311904D01*
X238442857Y-179426190D01*
X238366666Y-179502380D01*
X238290476Y-179540476D01*
X239471428Y-179311904D02*
X239090476Y-179311904D01*
X239052380Y-179692857D01*
X239090476Y-179654761D01*
X239166666Y-179616666D01*
X239357142Y-179616666D01*
X239433333Y-179654761D01*
X239471428Y-179692857D01*
X239509523Y-179769047D01*
X239509523Y-179959523D01*
X239471428Y-180035714D01*
X239433333Y-180073809D01*
X239357142Y-180111904D01*
X239166666Y-180111904D01*
X239090476Y-180073809D01*
X239052380Y-180035714D01*
X237361904Y-178014285D02*
X236980952Y-178280952D01*
X237361904Y-178471428D02*
X236561904Y-178471428D01*
X236561904Y-178166666D01*
X236600000Y-178090476D01*
X236638095Y-178052380D01*
X236714285Y-178014285D01*
X236828571Y-178014285D01*
X236904761Y-178052380D01*
X236942857Y-178090476D01*
X236980952Y-178166666D01*
X236980952Y-178471428D01*
X237361904Y-177252380D02*
X237361904Y-177709523D01*
X237361904Y-177480952D02*
X236561904Y-177480952D01*
X236676190Y-177557142D01*
X236752380Y-177633333D01*
X236790476Y-177709523D01*
X236561904Y-176566666D02*
X236561904Y-176719047D01*
X236600000Y-176795238D01*
X236638095Y-176833333D01*
X236752380Y-176909523D01*
X236904761Y-176947619D01*
X237209523Y-176947619D01*
X237285714Y-176909523D01*
X237323809Y-176871428D01*
X237361904Y-176795238D01*
X237361904Y-176642857D01*
X237323809Y-176566666D01*
X237285714Y-176528571D01*
X237209523Y-176490476D01*
X237019047Y-176490476D01*
X236942857Y-176528571D01*
X236904761Y-176566666D01*
X236866666Y-176642857D01*
X236866666Y-176795238D01*
X236904761Y-176871428D01*
X236942857Y-176909523D01*
X237019047Y-176947619D01*
X228111904Y-173514285D02*
X227730952Y-173780952D01*
X228111904Y-173971428D02*
X227311904Y-173971428D01*
X227311904Y-173666666D01*
X227350000Y-173590476D01*
X227388095Y-173552380D01*
X227464285Y-173514285D01*
X227578571Y-173514285D01*
X227654761Y-173552380D01*
X227692857Y-173590476D01*
X227730952Y-173666666D01*
X227730952Y-173971428D01*
X228111904Y-172752380D02*
X228111904Y-173209523D01*
X228111904Y-172980952D02*
X227311904Y-172980952D01*
X227426190Y-173057142D01*
X227502380Y-173133333D01*
X227540476Y-173209523D01*
X227311904Y-172485714D02*
X227311904Y-171952380D01*
X228111904Y-172295238D01*
X235361904Y-178014285D02*
X234980952Y-178280952D01*
X235361904Y-178471428D02*
X234561904Y-178471428D01*
X234561904Y-178166666D01*
X234600000Y-178090476D01*
X234638095Y-178052380D01*
X234714285Y-178014285D01*
X234828571Y-178014285D01*
X234904761Y-178052380D01*
X234942857Y-178090476D01*
X234980952Y-178166666D01*
X234980952Y-178471428D01*
X235361904Y-177252380D02*
X235361904Y-177709523D01*
X235361904Y-177480952D02*
X234561904Y-177480952D01*
X234676190Y-177557142D01*
X234752380Y-177633333D01*
X234790476Y-177709523D01*
X234904761Y-176795238D02*
X234866666Y-176871428D01*
X234828571Y-176909523D01*
X234752380Y-176947619D01*
X234714285Y-176947619D01*
X234638095Y-176909523D01*
X234600000Y-176871428D01*
X234561904Y-176795238D01*
X234561904Y-176642857D01*
X234600000Y-176566666D01*
X234638095Y-176528571D01*
X234714285Y-176490476D01*
X234752380Y-176490476D01*
X234828571Y-176528571D01*
X234866666Y-176566666D01*
X234904761Y-176642857D01*
X234904761Y-176795238D01*
X234942857Y-176871428D01*
X234980952Y-176909523D01*
X235057142Y-176947619D01*
X235209523Y-176947619D01*
X235285714Y-176909523D01*
X235323809Y-176871428D01*
X235361904Y-176795238D01*
X235361904Y-176642857D01*
X235323809Y-176566666D01*
X235285714Y-176528571D01*
X235209523Y-176490476D01*
X235057142Y-176490476D01*
X234980952Y-176528571D01*
X234942857Y-176566666D01*
X234904761Y-176642857D01*
X241485714Y-178611904D02*
X241219047Y-178230952D01*
X241028571Y-178611904D02*
X241028571Y-177811904D01*
X241333333Y-177811904D01*
X241409523Y-177850000D01*
X241447619Y-177888095D01*
X241485714Y-177964285D01*
X241485714Y-178078571D01*
X241447619Y-178154761D01*
X241409523Y-178192857D01*
X241333333Y-178230952D01*
X241028571Y-178230952D01*
X242247619Y-178611904D02*
X241790476Y-178611904D01*
X242019047Y-178611904D02*
X242019047Y-177811904D01*
X241942857Y-177926190D01*
X241866666Y-178002380D01*
X241790476Y-178040476D01*
X242628571Y-178611904D02*
X242780952Y-178611904D01*
X242857142Y-178573809D01*
X242895238Y-178535714D01*
X242971428Y-178421428D01*
X243009523Y-178269047D01*
X243009523Y-177964285D01*
X242971428Y-177888095D01*
X242933333Y-177850000D01*
X242857142Y-177811904D01*
X242704761Y-177811904D01*
X242628571Y-177850000D01*
X242590476Y-177888095D01*
X242552380Y-177964285D01*
X242552380Y-178154761D01*
X242590476Y-178230952D01*
X242628571Y-178269047D01*
X242704761Y-178307142D01*
X242857142Y-178307142D01*
X242933333Y-178269047D01*
X242971428Y-178230952D01*
X243009523Y-178154761D01*
X242361904Y-167764285D02*
X241980952Y-168030952D01*
X242361904Y-168221428D02*
X241561904Y-168221428D01*
X241561904Y-167916666D01*
X241600000Y-167840476D01*
X241638095Y-167802380D01*
X241714285Y-167764285D01*
X241828571Y-167764285D01*
X241904761Y-167802380D01*
X241942857Y-167840476D01*
X241980952Y-167916666D01*
X241980952Y-168221428D01*
X241638095Y-167459523D02*
X241600000Y-167421428D01*
X241561904Y-167345238D01*
X241561904Y-167154761D01*
X241600000Y-167078571D01*
X241638095Y-167040476D01*
X241714285Y-167002380D01*
X241790476Y-167002380D01*
X241904761Y-167040476D01*
X242361904Y-167497619D01*
X242361904Y-167002380D01*
X241561904Y-166507142D02*
X241561904Y-166430952D01*
X241600000Y-166354761D01*
X241638095Y-166316666D01*
X241714285Y-166278571D01*
X241866666Y-166240476D01*
X242057142Y-166240476D01*
X242209523Y-166278571D01*
X242285714Y-166316666D01*
X242323809Y-166354761D01*
X242361904Y-166430952D01*
X242361904Y-166507142D01*
X242323809Y-166583333D01*
X242285714Y-166621428D01*
X242209523Y-166659523D01*
X242057142Y-166697619D01*
X241866666Y-166697619D01*
X241714285Y-166659523D01*
X241638095Y-166621428D01*
X241600000Y-166583333D01*
X241561904Y-166507142D01*
X241111904Y-161764285D02*
X240730952Y-162030952D01*
X241111904Y-162221428D02*
X240311904Y-162221428D01*
X240311904Y-161916666D01*
X240350000Y-161840476D01*
X240388095Y-161802380D01*
X240464285Y-161764285D01*
X240578571Y-161764285D01*
X240654761Y-161802380D01*
X240692857Y-161840476D01*
X240730952Y-161916666D01*
X240730952Y-162221428D01*
X240388095Y-161459523D02*
X240350000Y-161421428D01*
X240311904Y-161345238D01*
X240311904Y-161154761D01*
X240350000Y-161078571D01*
X240388095Y-161040476D01*
X240464285Y-161002380D01*
X240540476Y-161002380D01*
X240654761Y-161040476D01*
X241111904Y-161497619D01*
X241111904Y-161002380D01*
X241111904Y-160240476D02*
X241111904Y-160697619D01*
X241111904Y-160469047D02*
X240311904Y-160469047D01*
X240426190Y-160545238D01*
X240502380Y-160621428D01*
X240540476Y-160697619D01*
X237861904Y-161764285D02*
X237480952Y-162030952D01*
X237861904Y-162221428D02*
X237061904Y-162221428D01*
X237061904Y-161916666D01*
X237100000Y-161840476D01*
X237138095Y-161802380D01*
X237214285Y-161764285D01*
X237328571Y-161764285D01*
X237404761Y-161802380D01*
X237442857Y-161840476D01*
X237480952Y-161916666D01*
X237480952Y-162221428D01*
X237138095Y-161459523D02*
X237100000Y-161421428D01*
X237061904Y-161345238D01*
X237061904Y-161154761D01*
X237100000Y-161078571D01*
X237138095Y-161040476D01*
X237214285Y-161002380D01*
X237290476Y-161002380D01*
X237404761Y-161040476D01*
X237861904Y-161497619D01*
X237861904Y-161002380D01*
X237138095Y-160697619D02*
X237100000Y-160659523D01*
X237061904Y-160583333D01*
X237061904Y-160392857D01*
X237100000Y-160316666D01*
X237138095Y-160278571D01*
X237214285Y-160240476D01*
X237290476Y-160240476D01*
X237404761Y-160278571D01*
X237861904Y-160735714D01*
X237861904Y-160240476D01*
X235861904Y-161014285D02*
X235480952Y-161280952D01*
X235861904Y-161471428D02*
X235061904Y-161471428D01*
X235061904Y-161166666D01*
X235100000Y-161090476D01*
X235138095Y-161052380D01*
X235214285Y-161014285D01*
X235328571Y-161014285D01*
X235404761Y-161052380D01*
X235442857Y-161090476D01*
X235480952Y-161166666D01*
X235480952Y-161471428D01*
X235138095Y-160709523D02*
X235100000Y-160671428D01*
X235061904Y-160595238D01*
X235061904Y-160404761D01*
X235100000Y-160328571D01*
X235138095Y-160290476D01*
X235214285Y-160252380D01*
X235290476Y-160252380D01*
X235404761Y-160290476D01*
X235861904Y-160747619D01*
X235861904Y-160252380D01*
X235061904Y-159985714D02*
X235061904Y-159490476D01*
X235366666Y-159757142D01*
X235366666Y-159642857D01*
X235404761Y-159566666D01*
X235442857Y-159528571D01*
X235519047Y-159490476D01*
X235709523Y-159490476D01*
X235785714Y-159528571D01*
X235823809Y-159566666D01*
X235861904Y-159642857D01*
X235861904Y-159871428D01*
X235823809Y-159947619D01*
X235785714Y-159985714D01*
X229111904Y-133514285D02*
X228730952Y-133780952D01*
X229111904Y-133971428D02*
X228311904Y-133971428D01*
X228311904Y-133666666D01*
X228350000Y-133590476D01*
X228388095Y-133552380D01*
X228464285Y-133514285D01*
X228578571Y-133514285D01*
X228654761Y-133552380D01*
X228692857Y-133590476D01*
X228730952Y-133666666D01*
X228730952Y-133971428D01*
X228388095Y-133209523D02*
X228350000Y-133171428D01*
X228311904Y-133095238D01*
X228311904Y-132904761D01*
X228350000Y-132828571D01*
X228388095Y-132790476D01*
X228464285Y-132752380D01*
X228540476Y-132752380D01*
X228654761Y-132790476D01*
X229111904Y-133247619D01*
X229111904Y-132752380D01*
X228578571Y-132066666D02*
X229111904Y-132066666D01*
X228273809Y-132257142D02*
X228845238Y-132447619D01*
X228845238Y-131952380D01*
X233861904Y-161014285D02*
X233480952Y-161280952D01*
X233861904Y-161471428D02*
X233061904Y-161471428D01*
X233061904Y-161166666D01*
X233100000Y-161090476D01*
X233138095Y-161052380D01*
X233214285Y-161014285D01*
X233328571Y-161014285D01*
X233404761Y-161052380D01*
X233442857Y-161090476D01*
X233480952Y-161166666D01*
X233480952Y-161471428D01*
X233138095Y-160709523D02*
X233100000Y-160671428D01*
X233061904Y-160595238D01*
X233061904Y-160404761D01*
X233100000Y-160328571D01*
X233138095Y-160290476D01*
X233214285Y-160252380D01*
X233290476Y-160252380D01*
X233404761Y-160290476D01*
X233861904Y-160747619D01*
X233861904Y-160252380D01*
X233061904Y-159528571D02*
X233061904Y-159909523D01*
X233442857Y-159947619D01*
X233404761Y-159909523D01*
X233366666Y-159833333D01*
X233366666Y-159642857D01*
X233404761Y-159566666D01*
X233442857Y-159528571D01*
X233519047Y-159490476D01*
X233709523Y-159490476D01*
X233785714Y-159528571D01*
X233823809Y-159566666D01*
X233861904Y-159642857D01*
X233861904Y-159833333D01*
X233823809Y-159909523D01*
X233785714Y-159947619D01*
X230485714Y-157931904D02*
X230219047Y-157550952D01*
X230028571Y-157931904D02*
X230028571Y-157131904D01*
X230333333Y-157131904D01*
X230409523Y-157170000D01*
X230447619Y-157208095D01*
X230485714Y-157284285D01*
X230485714Y-157398571D01*
X230447619Y-157474761D01*
X230409523Y-157512857D01*
X230333333Y-157550952D01*
X230028571Y-157550952D01*
X230790476Y-157208095D02*
X230828571Y-157170000D01*
X230904761Y-157131904D01*
X231095238Y-157131904D01*
X231171428Y-157170000D01*
X231209523Y-157208095D01*
X231247619Y-157284285D01*
X231247619Y-157360476D01*
X231209523Y-157474761D01*
X230752380Y-157931904D01*
X231247619Y-157931904D01*
X231933333Y-157131904D02*
X231780952Y-157131904D01*
X231704761Y-157170000D01*
X231666666Y-157208095D01*
X231590476Y-157322380D01*
X231552380Y-157474761D01*
X231552380Y-157779523D01*
X231590476Y-157855714D01*
X231628571Y-157893809D01*
X231704761Y-157931904D01*
X231857142Y-157931904D01*
X231933333Y-157893809D01*
X231971428Y-157855714D01*
X232009523Y-157779523D01*
X232009523Y-157589047D01*
X231971428Y-157512857D01*
X231933333Y-157474761D01*
X231857142Y-157436666D01*
X231704761Y-157436666D01*
X231628571Y-157474761D01*
X231590476Y-157512857D01*
X231552380Y-157589047D01*
X226361904Y-133514285D02*
X225980952Y-133780952D01*
X226361904Y-133971428D02*
X225561904Y-133971428D01*
X225561904Y-133666666D01*
X225600000Y-133590476D01*
X225638095Y-133552380D01*
X225714285Y-133514285D01*
X225828571Y-133514285D01*
X225904761Y-133552380D01*
X225942857Y-133590476D01*
X225980952Y-133666666D01*
X225980952Y-133971428D01*
X225638095Y-133209523D02*
X225600000Y-133171428D01*
X225561904Y-133095238D01*
X225561904Y-132904761D01*
X225600000Y-132828571D01*
X225638095Y-132790476D01*
X225714285Y-132752380D01*
X225790476Y-132752380D01*
X225904761Y-132790476D01*
X226361904Y-133247619D01*
X226361904Y-132752380D01*
X225561904Y-132485714D02*
X225561904Y-131952380D01*
X226361904Y-132295238D01*
X221681904Y-133476785D02*
X221300952Y-133743452D01*
X221681904Y-133933928D02*
X220881904Y-133933928D01*
X220881904Y-133629166D01*
X220920000Y-133552976D01*
X220958095Y-133514880D01*
X221034285Y-133476785D01*
X221148571Y-133476785D01*
X221224761Y-133514880D01*
X221262857Y-133552976D01*
X221300952Y-133629166D01*
X221300952Y-133933928D01*
X220958095Y-133172023D02*
X220920000Y-133133928D01*
X220881904Y-133057738D01*
X220881904Y-132867261D01*
X220920000Y-132791071D01*
X220958095Y-132752976D01*
X221034285Y-132714880D01*
X221110476Y-132714880D01*
X221224761Y-132752976D01*
X221681904Y-133210119D01*
X221681904Y-132714880D01*
X221224761Y-132257738D02*
X221186666Y-132333928D01*
X221148571Y-132372023D01*
X221072380Y-132410119D01*
X221034285Y-132410119D01*
X220958095Y-132372023D01*
X220920000Y-132333928D01*
X220881904Y-132257738D01*
X220881904Y-132105357D01*
X220920000Y-132029166D01*
X220958095Y-131991071D01*
X221034285Y-131952976D01*
X221072380Y-131952976D01*
X221148571Y-131991071D01*
X221186666Y-132029166D01*
X221224761Y-132105357D01*
X221224761Y-132257738D01*
X221262857Y-132333928D01*
X221300952Y-132372023D01*
X221377142Y-132410119D01*
X221529523Y-132410119D01*
X221605714Y-132372023D01*
X221643809Y-132333928D01*
X221681904Y-132257738D01*
X221681904Y-132105357D01*
X221643809Y-132029166D01*
X221605714Y-131991071D01*
X221529523Y-131952976D01*
X221377142Y-131952976D01*
X221300952Y-131991071D01*
X221262857Y-132029166D01*
X221224761Y-132105357D01*
X223735714Y-123111904D02*
X223469047Y-122730952D01*
X223278571Y-123111904D02*
X223278571Y-122311904D01*
X223583333Y-122311904D01*
X223659523Y-122350000D01*
X223697619Y-122388095D01*
X223735714Y-122464285D01*
X223735714Y-122578571D01*
X223697619Y-122654761D01*
X223659523Y-122692857D01*
X223583333Y-122730952D01*
X223278571Y-122730952D01*
X224040476Y-122388095D02*
X224078571Y-122350000D01*
X224154761Y-122311904D01*
X224345238Y-122311904D01*
X224421428Y-122350000D01*
X224459523Y-122388095D01*
X224497619Y-122464285D01*
X224497619Y-122540476D01*
X224459523Y-122654761D01*
X224002380Y-123111904D01*
X224497619Y-123111904D01*
X224878571Y-123111904D02*
X225030952Y-123111904D01*
X225107142Y-123073809D01*
X225145238Y-123035714D01*
X225221428Y-122921428D01*
X225259523Y-122769047D01*
X225259523Y-122464285D01*
X225221428Y-122388095D01*
X225183333Y-122350000D01*
X225107142Y-122311904D01*
X224954761Y-122311904D01*
X224878571Y-122350000D01*
X224840476Y-122388095D01*
X224802380Y-122464285D01*
X224802380Y-122654761D01*
X224840476Y-122730952D01*
X224878571Y-122769047D01*
X224954761Y-122807142D01*
X225107142Y-122807142D01*
X225183333Y-122769047D01*
X225221428Y-122730952D01*
X225259523Y-122654761D01*
X220485714Y-186861904D02*
X220219047Y-186480952D01*
X220028571Y-186861904D02*
X220028571Y-186061904D01*
X220333333Y-186061904D01*
X220409523Y-186100000D01*
X220447619Y-186138095D01*
X220485714Y-186214285D01*
X220485714Y-186328571D01*
X220447619Y-186404761D01*
X220409523Y-186442857D01*
X220333333Y-186480952D01*
X220028571Y-186480952D01*
X220752380Y-186061904D02*
X221247619Y-186061904D01*
X220980952Y-186366666D01*
X221095238Y-186366666D01*
X221171428Y-186404761D01*
X221209523Y-186442857D01*
X221247619Y-186519047D01*
X221247619Y-186709523D01*
X221209523Y-186785714D01*
X221171428Y-186823809D01*
X221095238Y-186861904D01*
X220866666Y-186861904D01*
X220790476Y-186823809D01*
X220752380Y-186785714D01*
X221742857Y-186061904D02*
X221819047Y-186061904D01*
X221895238Y-186100000D01*
X221933333Y-186138095D01*
X221971428Y-186214285D01*
X222009523Y-186366666D01*
X222009523Y-186557142D01*
X221971428Y-186709523D01*
X221933333Y-186785714D01*
X221895238Y-186823809D01*
X221819047Y-186861904D01*
X221742857Y-186861904D01*
X221666666Y-186823809D01*
X221628571Y-186785714D01*
X221590476Y-186709523D01*
X221552380Y-186557142D01*
X221552380Y-186366666D01*
X221590476Y-186214285D01*
X221628571Y-186138095D01*
X221666666Y-186100000D01*
X221742857Y-186061904D01*
X220485714Y-181541904D02*
X220219047Y-181160952D01*
X220028571Y-181541904D02*
X220028571Y-180741904D01*
X220333333Y-180741904D01*
X220409523Y-180780000D01*
X220447619Y-180818095D01*
X220485714Y-180894285D01*
X220485714Y-181008571D01*
X220447619Y-181084761D01*
X220409523Y-181122857D01*
X220333333Y-181160952D01*
X220028571Y-181160952D01*
X220752380Y-180741904D02*
X221247619Y-180741904D01*
X220980952Y-181046666D01*
X221095238Y-181046666D01*
X221171428Y-181084761D01*
X221209523Y-181122857D01*
X221247619Y-181199047D01*
X221247619Y-181389523D01*
X221209523Y-181465714D01*
X221171428Y-181503809D01*
X221095238Y-181541904D01*
X220866666Y-181541904D01*
X220790476Y-181503809D01*
X220752380Y-181465714D01*
X222009523Y-181541904D02*
X221552380Y-181541904D01*
X221780952Y-181541904D02*
X221780952Y-180741904D01*
X221704761Y-180856190D01*
X221628571Y-180932380D01*
X221552380Y-180970476D01*
X220485714Y-173361904D02*
X220219047Y-172980952D01*
X220028571Y-173361904D02*
X220028571Y-172561904D01*
X220333333Y-172561904D01*
X220409523Y-172600000D01*
X220447619Y-172638095D01*
X220485714Y-172714285D01*
X220485714Y-172828571D01*
X220447619Y-172904761D01*
X220409523Y-172942857D01*
X220333333Y-172980952D01*
X220028571Y-172980952D01*
X220752380Y-172561904D02*
X221247619Y-172561904D01*
X220980952Y-172866666D01*
X221095238Y-172866666D01*
X221171428Y-172904761D01*
X221209523Y-172942857D01*
X221247619Y-173019047D01*
X221247619Y-173209523D01*
X221209523Y-173285714D01*
X221171428Y-173323809D01*
X221095238Y-173361904D01*
X220866666Y-173361904D01*
X220790476Y-173323809D01*
X220752380Y-173285714D01*
X221552380Y-172638095D02*
X221590476Y-172600000D01*
X221666666Y-172561904D01*
X221857142Y-172561904D01*
X221933333Y-172600000D01*
X221971428Y-172638095D01*
X222009523Y-172714285D01*
X222009523Y-172790476D01*
X221971428Y-172904761D01*
X221514285Y-173361904D01*
X222009523Y-173361904D01*
X220111904Y-133514285D02*
X219730952Y-133780952D01*
X220111904Y-133971428D02*
X219311904Y-133971428D01*
X219311904Y-133666666D01*
X219350000Y-133590476D01*
X219388095Y-133552380D01*
X219464285Y-133514285D01*
X219578571Y-133514285D01*
X219654761Y-133552380D01*
X219692857Y-133590476D01*
X219730952Y-133666666D01*
X219730952Y-133971428D01*
X219311904Y-133247619D02*
X219311904Y-132752380D01*
X219616666Y-133019047D01*
X219616666Y-132904761D01*
X219654761Y-132828571D01*
X219692857Y-132790476D01*
X219769047Y-132752380D01*
X219959523Y-132752380D01*
X220035714Y-132790476D01*
X220073809Y-132828571D01*
X220111904Y-132904761D01*
X220111904Y-133133333D01*
X220073809Y-133209523D01*
X220035714Y-133247619D01*
X219311904Y-132485714D02*
X219311904Y-131990476D01*
X219616666Y-132257142D01*
X219616666Y-132142857D01*
X219654761Y-132066666D01*
X219692857Y-132028571D01*
X219769047Y-131990476D01*
X219959523Y-131990476D01*
X220035714Y-132028571D01*
X220073809Y-132066666D01*
X220111904Y-132142857D01*
X220111904Y-132371428D01*
X220073809Y-132447619D01*
X220035714Y-132485714D01*
X217361904Y-133476785D02*
X216980952Y-133743452D01*
X217361904Y-133933928D02*
X216561904Y-133933928D01*
X216561904Y-133629166D01*
X216600000Y-133552976D01*
X216638095Y-133514880D01*
X216714285Y-133476785D01*
X216828571Y-133476785D01*
X216904761Y-133514880D01*
X216942857Y-133552976D01*
X216980952Y-133629166D01*
X216980952Y-133933928D01*
X216561904Y-133210119D02*
X216561904Y-132714880D01*
X216866666Y-132981547D01*
X216866666Y-132867261D01*
X216904761Y-132791071D01*
X216942857Y-132752976D01*
X217019047Y-132714880D01*
X217209523Y-132714880D01*
X217285714Y-132752976D01*
X217323809Y-132791071D01*
X217361904Y-132867261D01*
X217361904Y-133095833D01*
X217323809Y-133172023D01*
X217285714Y-133210119D01*
X216828571Y-132029166D02*
X217361904Y-132029166D01*
X216523809Y-132219642D02*
X217095238Y-132410119D01*
X217095238Y-131914880D01*
X212681904Y-133476785D02*
X212300952Y-133743452D01*
X212681904Y-133933928D02*
X211881904Y-133933928D01*
X211881904Y-133629166D01*
X211920000Y-133552976D01*
X211958095Y-133514880D01*
X212034285Y-133476785D01*
X212148571Y-133476785D01*
X212224761Y-133514880D01*
X212262857Y-133552976D01*
X212300952Y-133629166D01*
X212300952Y-133933928D01*
X211881904Y-133210119D02*
X211881904Y-132714880D01*
X212186666Y-132981547D01*
X212186666Y-132867261D01*
X212224761Y-132791071D01*
X212262857Y-132752976D01*
X212339047Y-132714880D01*
X212529523Y-132714880D01*
X212605714Y-132752976D01*
X212643809Y-132791071D01*
X212681904Y-132867261D01*
X212681904Y-133095833D01*
X212643809Y-133172023D01*
X212605714Y-133210119D01*
X211881904Y-131991071D02*
X211881904Y-132372023D01*
X212262857Y-132410119D01*
X212224761Y-132372023D01*
X212186666Y-132295833D01*
X212186666Y-132105357D01*
X212224761Y-132029166D01*
X212262857Y-131991071D01*
X212339047Y-131952976D01*
X212529523Y-131952976D01*
X212605714Y-131991071D01*
X212643809Y-132029166D01*
X212681904Y-132105357D01*
X212681904Y-132295833D01*
X212643809Y-132372023D01*
X212605714Y-132410119D01*
X223735714Y-121111904D02*
X223469047Y-120730952D01*
X223278571Y-121111904D02*
X223278571Y-120311904D01*
X223583333Y-120311904D01*
X223659523Y-120350000D01*
X223697619Y-120388095D01*
X223735714Y-120464285D01*
X223735714Y-120578571D01*
X223697619Y-120654761D01*
X223659523Y-120692857D01*
X223583333Y-120730952D01*
X223278571Y-120730952D01*
X224002380Y-120311904D02*
X224497619Y-120311904D01*
X224230952Y-120616666D01*
X224345238Y-120616666D01*
X224421428Y-120654761D01*
X224459523Y-120692857D01*
X224497619Y-120769047D01*
X224497619Y-120959523D01*
X224459523Y-121035714D01*
X224421428Y-121073809D01*
X224345238Y-121111904D01*
X224116666Y-121111904D01*
X224040476Y-121073809D01*
X224002380Y-121035714D01*
X225183333Y-120311904D02*
X225030952Y-120311904D01*
X224954761Y-120350000D01*
X224916666Y-120388095D01*
X224840476Y-120502380D01*
X224802380Y-120654761D01*
X224802380Y-120959523D01*
X224840476Y-121035714D01*
X224878571Y-121073809D01*
X224954761Y-121111904D01*
X225107142Y-121111904D01*
X225183333Y-121073809D01*
X225221428Y-121035714D01*
X225259523Y-120959523D01*
X225259523Y-120769047D01*
X225221428Y-120692857D01*
X225183333Y-120654761D01*
X225107142Y-120616666D01*
X224954761Y-120616666D01*
X224878571Y-120654761D01*
X224840476Y-120692857D01*
X224802380Y-120769047D01*
X222985714Y-146111904D02*
X222719047Y-145730952D01*
X222528571Y-146111904D02*
X222528571Y-145311904D01*
X222833333Y-145311904D01*
X222909523Y-145350000D01*
X222947619Y-145388095D01*
X222985714Y-145464285D01*
X222985714Y-145578571D01*
X222947619Y-145654761D01*
X222909523Y-145692857D01*
X222833333Y-145730952D01*
X222528571Y-145730952D01*
X223252380Y-145311904D02*
X223747619Y-145311904D01*
X223480952Y-145616666D01*
X223595238Y-145616666D01*
X223671428Y-145654761D01*
X223709523Y-145692857D01*
X223747619Y-145769047D01*
X223747619Y-145959523D01*
X223709523Y-146035714D01*
X223671428Y-146073809D01*
X223595238Y-146111904D01*
X223366666Y-146111904D01*
X223290476Y-146073809D01*
X223252380Y-146035714D01*
X224014285Y-145311904D02*
X224547619Y-145311904D01*
X224204761Y-146111904D01*
X222985714Y-148111904D02*
X222719047Y-147730952D01*
X222528571Y-148111904D02*
X222528571Y-147311904D01*
X222833333Y-147311904D01*
X222909523Y-147350000D01*
X222947619Y-147388095D01*
X222985714Y-147464285D01*
X222985714Y-147578571D01*
X222947619Y-147654761D01*
X222909523Y-147692857D01*
X222833333Y-147730952D01*
X222528571Y-147730952D01*
X223671428Y-147578571D02*
X223671428Y-148111904D01*
X223480952Y-147273809D02*
X223290476Y-147845238D01*
X223785714Y-147845238D01*
X224433333Y-147311904D02*
X224280952Y-147311904D01*
X224204761Y-147350000D01*
X224166666Y-147388095D01*
X224090476Y-147502380D01*
X224052380Y-147654761D01*
X224052380Y-147959523D01*
X224090476Y-148035714D01*
X224128571Y-148073809D01*
X224204761Y-148111904D01*
X224357142Y-148111904D01*
X224433333Y-148073809D01*
X224471428Y-148035714D01*
X224509523Y-147959523D01*
X224509523Y-147769047D01*
X224471428Y-147692857D01*
X224433333Y-147654761D01*
X224357142Y-147616666D01*
X224204761Y-147616666D01*
X224128571Y-147654761D01*
X224090476Y-147692857D01*
X224052380Y-147769047D01*
X244990476Y-140061904D02*
X245447619Y-140061904D01*
X245219047Y-140861904D02*
X245219047Y-140061904D01*
X245714285Y-140861904D02*
X245714285Y-140061904D01*
X246019047Y-140061904D01*
X246095238Y-140100000D01*
X246133333Y-140138095D01*
X246171428Y-140214285D01*
X246171428Y-140328571D01*
X246133333Y-140404761D01*
X246095238Y-140442857D01*
X246019047Y-140480952D01*
X245714285Y-140480952D01*
X246438095Y-140061904D02*
X246933333Y-140061904D01*
X246666666Y-140366666D01*
X246780952Y-140366666D01*
X246857142Y-140404761D01*
X246895238Y-140442857D01*
X246933333Y-140519047D01*
X246933333Y-140709523D01*
X246895238Y-140785714D01*
X246857142Y-140823809D01*
X246780952Y-140861904D01*
X246552380Y-140861904D01*
X246476190Y-140823809D01*
X246438095Y-140785714D01*
X237371428Y-119111904D02*
X237371428Y-118311904D01*
X237904761Y-118311904D02*
X238057142Y-118311904D01*
X238133333Y-118350000D01*
X238209523Y-118426190D01*
X238247619Y-118578571D01*
X238247619Y-118845238D01*
X238209523Y-118997619D01*
X238133333Y-119073809D01*
X238057142Y-119111904D01*
X237904761Y-119111904D01*
X237828571Y-119073809D01*
X237752380Y-118997619D01*
X237714285Y-118845238D01*
X237714285Y-118578571D01*
X237752380Y-118426190D01*
X237828571Y-118350000D01*
X237904761Y-118311904D01*
X239009523Y-119111904D02*
X238552380Y-119111904D01*
X238780952Y-119111904D02*
X238780952Y-118311904D01*
X238704761Y-118426190D01*
X238628571Y-118502380D01*
X238552380Y-118540476D01*
X239161904Y-119188095D02*
X239771428Y-119188095D01*
X240114285Y-118311904D02*
X240266666Y-118311904D01*
X240342857Y-118350000D01*
X240419047Y-118426190D01*
X240457142Y-118578571D01*
X240457142Y-118845238D01*
X240419047Y-118997619D01*
X240342857Y-119073809D01*
X240266666Y-119111904D01*
X240114285Y-119111904D01*
X240038095Y-119073809D01*
X239961904Y-118997619D01*
X239923809Y-118845238D01*
X239923809Y-118578571D01*
X239961904Y-118426190D01*
X240038095Y-118350000D01*
X240114285Y-118311904D01*
X240800000Y-118311904D02*
X240800000Y-118959523D01*
X240838095Y-119035714D01*
X240876190Y-119073809D01*
X240952380Y-119111904D01*
X241104761Y-119111904D01*
X241180952Y-119073809D01*
X241219047Y-119035714D01*
X241257142Y-118959523D01*
X241257142Y-118311904D01*
X241523809Y-118311904D02*
X241980952Y-118311904D01*
X241752380Y-119111904D02*
X241752380Y-118311904D01*
X242666666Y-119111904D02*
X242209523Y-119111904D01*
X242438095Y-119111904D02*
X242438095Y-118311904D01*
X242361904Y-118426190D01*
X242285714Y-118502380D01*
X242209523Y-118540476D01*
X234811904Y-154509523D02*
X234811904Y-154052380D01*
X235611904Y-154280952D02*
X234811904Y-154280952D01*
X235611904Y-153785714D02*
X234811904Y-153785714D01*
X234811904Y-153480952D01*
X234850000Y-153404761D01*
X234888095Y-153366666D01*
X234964285Y-153328571D01*
X235078571Y-153328571D01*
X235154761Y-153366666D01*
X235192857Y-153404761D01*
X235230952Y-153480952D01*
X235230952Y-153785714D01*
X234811904Y-152604761D02*
X234811904Y-152985714D01*
X235192857Y-153023809D01*
X235154761Y-152985714D01*
X235116666Y-152909523D01*
X235116666Y-152719047D01*
X235154761Y-152642857D01*
X235192857Y-152604761D01*
X235269047Y-152566666D01*
X235459523Y-152566666D01*
X235535714Y-152604761D01*
X235573809Y-152642857D01*
X235611904Y-152719047D01*
X235611904Y-152909523D01*
X235573809Y-152985714D01*
X235535714Y-153023809D01*
X209111904Y-120464285D02*
X208311904Y-120464285D01*
X208311904Y-119930952D02*
X208311904Y-119778571D01*
X208350000Y-119702380D01*
X208426190Y-119626190D01*
X208578571Y-119588095D01*
X208845238Y-119588095D01*
X208997619Y-119626190D01*
X209073809Y-119702380D01*
X209111904Y-119778571D01*
X209111904Y-119930952D01*
X209073809Y-120007142D01*
X208997619Y-120083333D01*
X208845238Y-120121428D01*
X208578571Y-120121428D01*
X208426190Y-120083333D01*
X208350000Y-120007142D01*
X208311904Y-119930952D01*
X209111904Y-118826190D02*
X209111904Y-119283333D01*
X209111904Y-119054761D02*
X208311904Y-119054761D01*
X208426190Y-119130952D01*
X208502380Y-119207142D01*
X208540476Y-119283333D01*
X209188095Y-118673809D02*
X209188095Y-118064285D01*
X209111904Y-117873809D02*
X208311904Y-117873809D01*
X209111904Y-117492857D02*
X208311904Y-117492857D01*
X209111904Y-117035714D01*
X208311904Y-117035714D01*
X233611904Y-186800000D02*
X232811904Y-186800000D01*
X232811904Y-186266666D02*
X232811904Y-186114285D01*
X232850000Y-186038095D01*
X232926190Y-185961904D01*
X233078571Y-185923809D01*
X233345238Y-185923809D01*
X233497619Y-185961904D01*
X233573809Y-186038095D01*
X233611904Y-186114285D01*
X233611904Y-186266666D01*
X233573809Y-186342857D01*
X233497619Y-186419047D01*
X233345238Y-186457142D01*
X233078571Y-186457142D01*
X232926190Y-186419047D01*
X232850000Y-186342857D01*
X232811904Y-186266666D01*
X233611904Y-185161904D02*
X233611904Y-185619047D01*
X233611904Y-185390476D02*
X232811904Y-185390476D01*
X232926190Y-185466666D01*
X233002380Y-185542857D01*
X233040476Y-185619047D01*
X237990476Y-152311904D02*
X238447619Y-152311904D01*
X238219047Y-153111904D02*
X238219047Y-152311904D01*
X238714285Y-153111904D02*
X238714285Y-152311904D01*
X239019047Y-152311904D01*
X239095238Y-152350000D01*
X239133333Y-152388095D01*
X239171428Y-152464285D01*
X239171428Y-152578571D01*
X239133333Y-152654761D01*
X239095238Y-152692857D01*
X239019047Y-152730952D01*
X238714285Y-152730952D01*
X239552380Y-153111904D02*
X239704761Y-153111904D01*
X239780952Y-153073809D01*
X239819047Y-153035714D01*
X239895238Y-152921428D01*
X239933333Y-152769047D01*
X239933333Y-152464285D01*
X239895238Y-152388095D01*
X239857142Y-152350000D01*
X239780952Y-152311904D01*
X239628571Y-152311904D01*
X239552380Y-152350000D01*
X239514285Y-152388095D01*
X239476190Y-152464285D01*
X239476190Y-152654761D01*
X239514285Y-152730952D01*
X239552380Y-152769047D01*
X239628571Y-152807142D01*
X239780952Y-152807142D01*
X239857142Y-152769047D01*
X239895238Y-152730952D01*
X239933333Y-152654761D01*
X248390476Y-156350000D02*
X248314285Y-156311904D01*
X248200000Y-156311904D01*
X248085714Y-156350000D01*
X248009523Y-156426190D01*
X247971428Y-156502380D01*
X247933333Y-156654761D01*
X247933333Y-156769047D01*
X247971428Y-156921428D01*
X248009523Y-156997619D01*
X248085714Y-157073809D01*
X248200000Y-157111904D01*
X248276190Y-157111904D01*
X248390476Y-157073809D01*
X248428571Y-157035714D01*
X248428571Y-156769047D01*
X248276190Y-156769047D01*
X248771428Y-157111904D02*
X248771428Y-156311904D01*
X249228571Y-157111904D01*
X249228571Y-156311904D01*
X249609523Y-157111904D02*
X249609523Y-156311904D01*
X249800000Y-156311904D01*
X249914285Y-156350000D01*
X249990476Y-156426190D01*
X250028571Y-156502380D01*
X250066666Y-156654761D01*
X250066666Y-156769047D01*
X250028571Y-156921428D01*
X249990476Y-156997619D01*
X249914285Y-157073809D01*
X249800000Y-157111904D01*
X249609523Y-157111904D01*
X235359523Y-140061904D02*
X235816666Y-140061904D01*
X235588095Y-140861904D02*
X235588095Y-140061904D01*
X236083333Y-140861904D02*
X236083333Y-140061904D01*
X236388095Y-140061904D01*
X236464285Y-140100000D01*
X236502380Y-140138095D01*
X236540476Y-140214285D01*
X236540476Y-140328571D01*
X236502380Y-140404761D01*
X236464285Y-140442857D01*
X236388095Y-140480952D01*
X236083333Y-140480952D01*
X237302380Y-140861904D02*
X236845238Y-140861904D01*
X237073809Y-140861904D02*
X237073809Y-140061904D01*
X236997619Y-140176190D01*
X236921428Y-140252380D01*
X236845238Y-140290476D01*
X237569047Y-140061904D02*
X238064285Y-140061904D01*
X237797619Y-140366666D01*
X237911904Y-140366666D01*
X237988095Y-140404761D01*
X238026190Y-140442857D01*
X238064285Y-140519047D01*
X238064285Y-140709523D01*
X238026190Y-140785714D01*
X237988095Y-140823809D01*
X237911904Y-140861904D01*
X237683333Y-140861904D01*
X237607142Y-140823809D01*
X237569047Y-140785714D01*
X234621428Y-116861904D02*
X234621428Y-116061904D01*
X235154761Y-116061904D02*
X235307142Y-116061904D01*
X235383333Y-116100000D01*
X235459523Y-116176190D01*
X235497619Y-116328571D01*
X235497619Y-116595238D01*
X235459523Y-116747619D01*
X235383333Y-116823809D01*
X235307142Y-116861904D01*
X235154761Y-116861904D01*
X235078571Y-116823809D01*
X235002380Y-116747619D01*
X234964285Y-116595238D01*
X234964285Y-116328571D01*
X235002380Y-116176190D01*
X235078571Y-116100000D01*
X235154761Y-116061904D01*
X236259523Y-116861904D02*
X235802380Y-116861904D01*
X236030952Y-116861904D02*
X236030952Y-116061904D01*
X235954761Y-116176190D01*
X235878571Y-116252380D01*
X235802380Y-116290476D01*
X236411904Y-116938095D02*
X237021428Y-116938095D01*
X237364285Y-116061904D02*
X237516666Y-116061904D01*
X237592857Y-116100000D01*
X237669047Y-116176190D01*
X237707142Y-116328571D01*
X237707142Y-116595238D01*
X237669047Y-116747619D01*
X237592857Y-116823809D01*
X237516666Y-116861904D01*
X237364285Y-116861904D01*
X237288095Y-116823809D01*
X237211904Y-116747619D01*
X237173809Y-116595238D01*
X237173809Y-116328571D01*
X237211904Y-116176190D01*
X237288095Y-116100000D01*
X237364285Y-116061904D01*
X238050000Y-116061904D02*
X238050000Y-116709523D01*
X238088095Y-116785714D01*
X238126190Y-116823809D01*
X238202380Y-116861904D01*
X238354761Y-116861904D01*
X238430952Y-116823809D01*
X238469047Y-116785714D01*
X238507142Y-116709523D01*
X238507142Y-116061904D01*
X238773809Y-116061904D02*
X239230952Y-116061904D01*
X239002380Y-116861904D02*
X239002380Y-116061904D01*
X239459523Y-116138095D02*
X239497619Y-116100000D01*
X239573809Y-116061904D01*
X239764285Y-116061904D01*
X239840476Y-116100000D01*
X239878571Y-116138095D01*
X239916666Y-116214285D01*
X239916666Y-116290476D01*
X239878571Y-116404761D01*
X239421428Y-116861904D01*
X239916666Y-116861904D01*
X237609523Y-181311904D02*
X238066666Y-181311904D01*
X237838095Y-182111904D02*
X237838095Y-181311904D01*
X238333333Y-182111904D02*
X238333333Y-181311904D01*
X238638095Y-181311904D01*
X238714285Y-181350000D01*
X238752380Y-181388095D01*
X238790476Y-181464285D01*
X238790476Y-181578571D01*
X238752380Y-181654761D01*
X238714285Y-181692857D01*
X238638095Y-181730952D01*
X238333333Y-181730952D01*
X239552380Y-182111904D02*
X239095238Y-182111904D01*
X239323809Y-182111904D02*
X239323809Y-181311904D01*
X239247619Y-181426190D01*
X239171428Y-181502380D01*
X239095238Y-181540476D01*
X240238095Y-181311904D02*
X240085714Y-181311904D01*
X240009523Y-181350000D01*
X239971428Y-181388095D01*
X239895238Y-181502380D01*
X239857142Y-181654761D01*
X239857142Y-181959523D01*
X239895238Y-182035714D01*
X239933333Y-182073809D01*
X240009523Y-182111904D01*
X240161904Y-182111904D01*
X240238095Y-182073809D01*
X240276190Y-182035714D01*
X240314285Y-181959523D01*
X240314285Y-181769047D01*
X240276190Y-181692857D01*
X240238095Y-181654761D01*
X240161904Y-181616666D01*
X240009523Y-181616666D01*
X239933333Y-181654761D01*
X239895238Y-181692857D01*
X239857142Y-181769047D01*
X225311904Y-175890476D02*
X225311904Y-175433333D01*
X226111904Y-175661904D02*
X225311904Y-175661904D01*
X226111904Y-175166666D02*
X225311904Y-175166666D01*
X225311904Y-174861904D01*
X225350000Y-174785714D01*
X225388095Y-174747619D01*
X225464285Y-174709523D01*
X225578571Y-174709523D01*
X225654761Y-174747619D01*
X225692857Y-174785714D01*
X225730952Y-174861904D01*
X225730952Y-175166666D01*
X226111904Y-173947619D02*
X226111904Y-174404761D01*
X226111904Y-174176190D02*
X225311904Y-174176190D01*
X225426190Y-174252380D01*
X225502380Y-174328571D01*
X225540476Y-174404761D01*
X225311904Y-173680952D02*
X225311904Y-173147619D01*
X226111904Y-173490476D01*
X238609523Y-143311904D02*
X239066666Y-143311904D01*
X238838095Y-144111904D02*
X238838095Y-143311904D01*
X239333333Y-144111904D02*
X239333333Y-143311904D01*
X239638095Y-143311904D01*
X239714285Y-143350000D01*
X239752380Y-143388095D01*
X239790476Y-143464285D01*
X239790476Y-143578571D01*
X239752380Y-143654761D01*
X239714285Y-143692857D01*
X239638095Y-143730952D01*
X239333333Y-143730952D01*
X240552380Y-144111904D02*
X240095238Y-144111904D01*
X240323809Y-144111904D02*
X240323809Y-143311904D01*
X240247619Y-143426190D01*
X240171428Y-143502380D01*
X240095238Y-143540476D01*
X241009523Y-143654761D02*
X240933333Y-143616666D01*
X240895238Y-143578571D01*
X240857142Y-143502380D01*
X240857142Y-143464285D01*
X240895238Y-143388095D01*
X240933333Y-143350000D01*
X241009523Y-143311904D01*
X241161904Y-143311904D01*
X241238095Y-143350000D01*
X241276190Y-143388095D01*
X241314285Y-143464285D01*
X241314285Y-143502380D01*
X241276190Y-143578571D01*
X241238095Y-143616666D01*
X241161904Y-143654761D01*
X241009523Y-143654761D01*
X240933333Y-143692857D01*
X240895238Y-143730952D01*
X240857142Y-143807142D01*
X240857142Y-143959523D01*
X240895238Y-144035714D01*
X240933333Y-144073809D01*
X241009523Y-144111904D01*
X241161904Y-144111904D01*
X241238095Y-144073809D01*
X241276190Y-144035714D01*
X241314285Y-143959523D01*
X241314285Y-143807142D01*
X241276190Y-143730952D01*
X241238095Y-143692857D01*
X241161904Y-143654761D01*
X239859523Y-173561904D02*
X240316666Y-173561904D01*
X240088095Y-174361904D02*
X240088095Y-173561904D01*
X240583333Y-174361904D02*
X240583333Y-173561904D01*
X240888095Y-173561904D01*
X240964285Y-173600000D01*
X241002380Y-173638095D01*
X241040476Y-173714285D01*
X241040476Y-173828571D01*
X241002380Y-173904761D01*
X240964285Y-173942857D01*
X240888095Y-173980952D01*
X240583333Y-173980952D01*
X241802380Y-174361904D02*
X241345238Y-174361904D01*
X241573809Y-174361904D02*
X241573809Y-173561904D01*
X241497619Y-173676190D01*
X241421428Y-173752380D01*
X241345238Y-173790476D01*
X242183333Y-174361904D02*
X242335714Y-174361904D01*
X242411904Y-174323809D01*
X242450000Y-174285714D01*
X242526190Y-174171428D01*
X242564285Y-174019047D01*
X242564285Y-173714285D01*
X242526190Y-173638095D01*
X242488095Y-173600000D01*
X242411904Y-173561904D01*
X242259523Y-173561904D01*
X242183333Y-173600000D01*
X242145238Y-173638095D01*
X242107142Y-173714285D01*
X242107142Y-173904761D01*
X242145238Y-173980952D01*
X242183333Y-174019047D01*
X242259523Y-174057142D01*
X242411904Y-174057142D01*
X242488095Y-174019047D01*
X242526190Y-173980952D01*
X242564285Y-173904761D01*
X241609523Y-169561904D02*
X242066666Y-169561904D01*
X241838095Y-170361904D02*
X241838095Y-169561904D01*
X242333333Y-170361904D02*
X242333333Y-169561904D01*
X242638095Y-169561904D01*
X242714285Y-169600000D01*
X242752380Y-169638095D01*
X242790476Y-169714285D01*
X242790476Y-169828571D01*
X242752380Y-169904761D01*
X242714285Y-169942857D01*
X242638095Y-169980952D01*
X242333333Y-169980952D01*
X243095238Y-169638095D02*
X243133333Y-169600000D01*
X243209523Y-169561904D01*
X243400000Y-169561904D01*
X243476190Y-169600000D01*
X243514285Y-169638095D01*
X243552380Y-169714285D01*
X243552380Y-169790476D01*
X243514285Y-169904761D01*
X243057142Y-170361904D01*
X243552380Y-170361904D01*
X244047619Y-169561904D02*
X244123809Y-169561904D01*
X244200000Y-169600000D01*
X244238095Y-169638095D01*
X244276190Y-169714285D01*
X244314285Y-169866666D01*
X244314285Y-170057142D01*
X244276190Y-170209523D01*
X244238095Y-170285714D01*
X244200000Y-170323809D01*
X244123809Y-170361904D01*
X244047619Y-170361904D01*
X243971428Y-170323809D01*
X243933333Y-170285714D01*
X243895238Y-170209523D01*
X243857142Y-170057142D01*
X243857142Y-169866666D01*
X243895238Y-169714285D01*
X243933333Y-169638095D01*
X243971428Y-169600000D01*
X244047619Y-169561904D01*
X228311904Y-179390476D02*
X228311904Y-178933333D01*
X229111904Y-179161904D02*
X228311904Y-179161904D01*
X229111904Y-178666666D02*
X228311904Y-178666666D01*
X228311904Y-178361904D01*
X228350000Y-178285714D01*
X228388095Y-178247619D01*
X228464285Y-178209523D01*
X228578571Y-178209523D01*
X228654761Y-178247619D01*
X228692857Y-178285714D01*
X228730952Y-178361904D01*
X228730952Y-178666666D01*
X228388095Y-177904761D02*
X228350000Y-177866666D01*
X228311904Y-177790476D01*
X228311904Y-177600000D01*
X228350000Y-177523809D01*
X228388095Y-177485714D01*
X228464285Y-177447619D01*
X228540476Y-177447619D01*
X228654761Y-177485714D01*
X229111904Y-177942857D01*
X229111904Y-177447619D01*
X229111904Y-176685714D02*
X229111904Y-177142857D01*
X229111904Y-176914285D02*
X228311904Y-176914285D01*
X228426190Y-176990476D01*
X228502380Y-177066666D01*
X228540476Y-177142857D01*
X239859523Y-175811904D02*
X240316666Y-175811904D01*
X240088095Y-176611904D02*
X240088095Y-175811904D01*
X240583333Y-176611904D02*
X240583333Y-175811904D01*
X240888095Y-175811904D01*
X240964285Y-175850000D01*
X241002380Y-175888095D01*
X241040476Y-175964285D01*
X241040476Y-176078571D01*
X241002380Y-176154761D01*
X240964285Y-176192857D01*
X240888095Y-176230952D01*
X240583333Y-176230952D01*
X241345238Y-175888095D02*
X241383333Y-175850000D01*
X241459523Y-175811904D01*
X241650000Y-175811904D01*
X241726190Y-175850000D01*
X241764285Y-175888095D01*
X241802380Y-175964285D01*
X241802380Y-176040476D01*
X241764285Y-176154761D01*
X241307142Y-176611904D01*
X241802380Y-176611904D01*
X242107142Y-175888095D02*
X242145238Y-175850000D01*
X242221428Y-175811904D01*
X242411904Y-175811904D01*
X242488095Y-175850000D01*
X242526190Y-175888095D01*
X242564285Y-175964285D01*
X242564285Y-176040476D01*
X242526190Y-176154761D01*
X242069047Y-176611904D01*
X242564285Y-176611904D01*
X242561904Y-163890476D02*
X242561904Y-163433333D01*
X243361904Y-163661904D02*
X242561904Y-163661904D01*
X243361904Y-163166666D02*
X242561904Y-163166666D01*
X242561904Y-162861904D01*
X242600000Y-162785714D01*
X242638095Y-162747619D01*
X242714285Y-162709523D01*
X242828571Y-162709523D01*
X242904761Y-162747619D01*
X242942857Y-162785714D01*
X242980952Y-162861904D01*
X242980952Y-163166666D01*
X242638095Y-162404761D02*
X242600000Y-162366666D01*
X242561904Y-162290476D01*
X242561904Y-162100000D01*
X242600000Y-162023809D01*
X242638095Y-161985714D01*
X242714285Y-161947619D01*
X242790476Y-161947619D01*
X242904761Y-161985714D01*
X243361904Y-162442857D01*
X243361904Y-161947619D01*
X242561904Y-161680952D02*
X242561904Y-161185714D01*
X242866666Y-161452380D01*
X242866666Y-161338095D01*
X242904761Y-161261904D01*
X242942857Y-161223809D01*
X243019047Y-161185714D01*
X243209523Y-161185714D01*
X243285714Y-161223809D01*
X243323809Y-161261904D01*
X243361904Y-161338095D01*
X243361904Y-161566666D01*
X243323809Y-161642857D01*
X243285714Y-161680952D01*
X240109523Y-159061904D02*
X240566666Y-159061904D01*
X240338095Y-159861904D02*
X240338095Y-159061904D01*
X240833333Y-159861904D02*
X240833333Y-159061904D01*
X241138095Y-159061904D01*
X241214285Y-159100000D01*
X241252380Y-159138095D01*
X241290476Y-159214285D01*
X241290476Y-159328571D01*
X241252380Y-159404761D01*
X241214285Y-159442857D01*
X241138095Y-159480952D01*
X240833333Y-159480952D01*
X241595238Y-159138095D02*
X241633333Y-159100000D01*
X241709523Y-159061904D01*
X241900000Y-159061904D01*
X241976190Y-159100000D01*
X242014285Y-159138095D01*
X242052380Y-159214285D01*
X242052380Y-159290476D01*
X242014285Y-159404761D01*
X241557142Y-159861904D01*
X242052380Y-159861904D01*
X242738095Y-159328571D02*
X242738095Y-159861904D01*
X242547619Y-159023809D02*
X242357142Y-159595238D01*
X242852380Y-159595238D01*
X238561904Y-167890476D02*
X238561904Y-167433333D01*
X239361904Y-167661904D02*
X238561904Y-167661904D01*
X239361904Y-167166666D02*
X238561904Y-167166666D01*
X238561904Y-166861904D01*
X238600000Y-166785714D01*
X238638095Y-166747619D01*
X238714285Y-166709523D01*
X238828571Y-166709523D01*
X238904761Y-166747619D01*
X238942857Y-166785714D01*
X238980952Y-166861904D01*
X238980952Y-167166666D01*
X238638095Y-166404761D02*
X238600000Y-166366666D01*
X238561904Y-166290476D01*
X238561904Y-166100000D01*
X238600000Y-166023809D01*
X238638095Y-165985714D01*
X238714285Y-165947619D01*
X238790476Y-165947619D01*
X238904761Y-165985714D01*
X239361904Y-166442857D01*
X239361904Y-165947619D01*
X238561904Y-165223809D02*
X238561904Y-165604761D01*
X238942857Y-165642857D01*
X238904761Y-165604761D01*
X238866666Y-165528571D01*
X238866666Y-165338095D01*
X238904761Y-165261904D01*
X238942857Y-165223809D01*
X239019047Y-165185714D01*
X239209523Y-165185714D01*
X239285714Y-165223809D01*
X239323809Y-165261904D01*
X239361904Y-165338095D01*
X239361904Y-165528571D01*
X239323809Y-165604761D01*
X239285714Y-165642857D01*
X235609523Y-157811904D02*
X236066666Y-157811904D01*
X235838095Y-158611904D02*
X235838095Y-157811904D01*
X236333333Y-158611904D02*
X236333333Y-157811904D01*
X236638095Y-157811904D01*
X236714285Y-157850000D01*
X236752380Y-157888095D01*
X236790476Y-157964285D01*
X236790476Y-158078571D01*
X236752380Y-158154761D01*
X236714285Y-158192857D01*
X236638095Y-158230952D01*
X236333333Y-158230952D01*
X237095238Y-157888095D02*
X237133333Y-157850000D01*
X237209523Y-157811904D01*
X237400000Y-157811904D01*
X237476190Y-157850000D01*
X237514285Y-157888095D01*
X237552380Y-157964285D01*
X237552380Y-158040476D01*
X237514285Y-158154761D01*
X237057142Y-158611904D01*
X237552380Y-158611904D01*
X238009523Y-158154761D02*
X237933333Y-158116666D01*
X237895238Y-158078571D01*
X237857142Y-158002380D01*
X237857142Y-157964285D01*
X237895238Y-157888095D01*
X237933333Y-157850000D01*
X238009523Y-157811904D01*
X238161904Y-157811904D01*
X238238095Y-157850000D01*
X238276190Y-157888095D01*
X238314285Y-157964285D01*
X238314285Y-158002380D01*
X238276190Y-158078571D01*
X238238095Y-158116666D01*
X238161904Y-158154761D01*
X238009523Y-158154761D01*
X237933333Y-158192857D01*
X237895238Y-158230952D01*
X237857142Y-158307142D01*
X237857142Y-158459523D01*
X237895238Y-158535714D01*
X237933333Y-158573809D01*
X238009523Y-158611904D01*
X238161904Y-158611904D01*
X238238095Y-158573809D01*
X238276190Y-158535714D01*
X238314285Y-158459523D01*
X238314285Y-158307142D01*
X238276190Y-158230952D01*
X238238095Y-158192857D01*
X238161904Y-158154761D01*
X227609523Y-140061904D02*
X228066666Y-140061904D01*
X227838095Y-140861904D02*
X227838095Y-140061904D01*
X228333333Y-140861904D02*
X228333333Y-140061904D01*
X228638095Y-140061904D01*
X228714285Y-140100000D01*
X228752380Y-140138095D01*
X228790476Y-140214285D01*
X228790476Y-140328571D01*
X228752380Y-140404761D01*
X228714285Y-140442857D01*
X228638095Y-140480952D01*
X228333333Y-140480952D01*
X229095238Y-140138095D02*
X229133333Y-140100000D01*
X229209523Y-140061904D01*
X229400000Y-140061904D01*
X229476190Y-140100000D01*
X229514285Y-140138095D01*
X229552380Y-140214285D01*
X229552380Y-140290476D01*
X229514285Y-140404761D01*
X229057142Y-140861904D01*
X229552380Y-140861904D01*
X229933333Y-140861904D02*
X230085714Y-140861904D01*
X230161904Y-140823809D01*
X230200000Y-140785714D01*
X230276190Y-140671428D01*
X230314285Y-140519047D01*
X230314285Y-140214285D01*
X230276190Y-140138095D01*
X230238095Y-140100000D01*
X230161904Y-140061904D01*
X230009523Y-140061904D01*
X229933333Y-140100000D01*
X229895238Y-140138095D01*
X229857142Y-140214285D01*
X229857142Y-140404761D01*
X229895238Y-140480952D01*
X229933333Y-140519047D01*
X230009523Y-140557142D01*
X230161904Y-140557142D01*
X230238095Y-140519047D01*
X230276190Y-140480952D01*
X230314285Y-140404761D01*
X224371428Y-116861904D02*
X224371428Y-116061904D01*
X224904761Y-116061904D02*
X225057142Y-116061904D01*
X225133333Y-116100000D01*
X225209523Y-116176190D01*
X225247619Y-116328571D01*
X225247619Y-116595238D01*
X225209523Y-116747619D01*
X225133333Y-116823809D01*
X225057142Y-116861904D01*
X224904761Y-116861904D01*
X224828571Y-116823809D01*
X224752380Y-116747619D01*
X224714285Y-116595238D01*
X224714285Y-116328571D01*
X224752380Y-116176190D01*
X224828571Y-116100000D01*
X224904761Y-116061904D01*
X225552380Y-116138095D02*
X225590476Y-116100000D01*
X225666666Y-116061904D01*
X225857142Y-116061904D01*
X225933333Y-116100000D01*
X225971428Y-116138095D01*
X226009523Y-116214285D01*
X226009523Y-116290476D01*
X225971428Y-116404761D01*
X225514285Y-116861904D01*
X226009523Y-116861904D01*
X226161904Y-116938095D02*
X226771428Y-116938095D01*
X227114285Y-116061904D02*
X227266666Y-116061904D01*
X227342857Y-116100000D01*
X227419047Y-116176190D01*
X227457142Y-116328571D01*
X227457142Y-116595238D01*
X227419047Y-116747619D01*
X227342857Y-116823809D01*
X227266666Y-116861904D01*
X227114285Y-116861904D01*
X227038095Y-116823809D01*
X226961904Y-116747619D01*
X226923809Y-116595238D01*
X226923809Y-116328571D01*
X226961904Y-116176190D01*
X227038095Y-116100000D01*
X227114285Y-116061904D01*
X227800000Y-116061904D02*
X227800000Y-116709523D01*
X227838095Y-116785714D01*
X227876190Y-116823809D01*
X227952380Y-116861904D01*
X228104761Y-116861904D01*
X228180952Y-116823809D01*
X228219047Y-116785714D01*
X228257142Y-116709523D01*
X228257142Y-116061904D01*
X228523809Y-116061904D02*
X228980952Y-116061904D01*
X228752380Y-116861904D02*
X228752380Y-116061904D01*
X229666666Y-116861904D02*
X229209523Y-116861904D01*
X229438095Y-116861904D02*
X229438095Y-116061904D01*
X229361904Y-116176190D01*
X229285714Y-116252380D01*
X229209523Y-116290476D01*
X231111904Y-186800000D02*
X230311904Y-186800000D01*
X230311904Y-186266666D02*
X230311904Y-186114285D01*
X230350000Y-186038095D01*
X230426190Y-185961904D01*
X230578571Y-185923809D01*
X230845238Y-185923809D01*
X230997619Y-185961904D01*
X231073809Y-186038095D01*
X231111904Y-186114285D01*
X231111904Y-186266666D01*
X231073809Y-186342857D01*
X230997619Y-186419047D01*
X230845238Y-186457142D01*
X230578571Y-186457142D01*
X230426190Y-186419047D01*
X230350000Y-186342857D01*
X230311904Y-186266666D01*
X230388095Y-185619047D02*
X230350000Y-185580952D01*
X230311904Y-185504761D01*
X230311904Y-185314285D01*
X230350000Y-185238095D01*
X230388095Y-185200000D01*
X230464285Y-185161904D01*
X230540476Y-185161904D01*
X230654761Y-185200000D01*
X231111904Y-185657142D01*
X231111904Y-185161904D01*
X218609523Y-140061904D02*
X219066666Y-140061904D01*
X218838095Y-140861904D02*
X218838095Y-140061904D01*
X219333333Y-140861904D02*
X219333333Y-140061904D01*
X219638095Y-140061904D01*
X219714285Y-140100000D01*
X219752380Y-140138095D01*
X219790476Y-140214285D01*
X219790476Y-140328571D01*
X219752380Y-140404761D01*
X219714285Y-140442857D01*
X219638095Y-140480952D01*
X219333333Y-140480952D01*
X220057142Y-140061904D02*
X220552380Y-140061904D01*
X220285714Y-140366666D01*
X220400000Y-140366666D01*
X220476190Y-140404761D01*
X220514285Y-140442857D01*
X220552380Y-140519047D01*
X220552380Y-140709523D01*
X220514285Y-140785714D01*
X220476190Y-140823809D01*
X220400000Y-140861904D01*
X220171428Y-140861904D01*
X220095238Y-140823809D01*
X220057142Y-140785714D01*
X221276190Y-140061904D02*
X220895238Y-140061904D01*
X220857142Y-140442857D01*
X220895238Y-140404761D01*
X220971428Y-140366666D01*
X221161904Y-140366666D01*
X221238095Y-140404761D01*
X221276190Y-140442857D01*
X221314285Y-140519047D01*
X221314285Y-140709523D01*
X221276190Y-140785714D01*
X221238095Y-140823809D01*
X221161904Y-140861904D01*
X220971428Y-140861904D01*
X220895238Y-140823809D01*
X220857142Y-140785714D01*
X221621428Y-119111904D02*
X221621428Y-118311904D01*
X222154761Y-118311904D02*
X222307142Y-118311904D01*
X222383333Y-118350000D01*
X222459523Y-118426190D01*
X222497619Y-118578571D01*
X222497619Y-118845238D01*
X222459523Y-118997619D01*
X222383333Y-119073809D01*
X222307142Y-119111904D01*
X222154761Y-119111904D01*
X222078571Y-119073809D01*
X222002380Y-118997619D01*
X221964285Y-118845238D01*
X221964285Y-118578571D01*
X222002380Y-118426190D01*
X222078571Y-118350000D01*
X222154761Y-118311904D01*
X222802380Y-118388095D02*
X222840476Y-118350000D01*
X222916666Y-118311904D01*
X223107142Y-118311904D01*
X223183333Y-118350000D01*
X223221428Y-118388095D01*
X223259523Y-118464285D01*
X223259523Y-118540476D01*
X223221428Y-118654761D01*
X222764285Y-119111904D01*
X223259523Y-119111904D01*
X223411904Y-119188095D02*
X224021428Y-119188095D01*
X224364285Y-118311904D02*
X224516666Y-118311904D01*
X224592857Y-118350000D01*
X224669047Y-118426190D01*
X224707142Y-118578571D01*
X224707142Y-118845238D01*
X224669047Y-118997619D01*
X224592857Y-119073809D01*
X224516666Y-119111904D01*
X224364285Y-119111904D01*
X224288095Y-119073809D01*
X224211904Y-118997619D01*
X224173809Y-118845238D01*
X224173809Y-118578571D01*
X224211904Y-118426190D01*
X224288095Y-118350000D01*
X224364285Y-118311904D01*
X225050000Y-118311904D02*
X225050000Y-118959523D01*
X225088095Y-119035714D01*
X225126190Y-119073809D01*
X225202380Y-119111904D01*
X225354761Y-119111904D01*
X225430952Y-119073809D01*
X225469047Y-119035714D01*
X225507142Y-118959523D01*
X225507142Y-118311904D01*
X225773809Y-118311904D02*
X226230952Y-118311904D01*
X226002380Y-119111904D02*
X226002380Y-118311904D01*
X226459523Y-118388095D02*
X226497619Y-118350000D01*
X226573809Y-118311904D01*
X226764285Y-118311904D01*
X226840476Y-118350000D01*
X226878571Y-118388095D01*
X226916666Y-118464285D01*
X226916666Y-118540476D01*
X226878571Y-118654761D01*
X226421428Y-119111904D01*
X226916666Y-119111904D01*
X223109523Y-143311904D02*
X223566666Y-143311904D01*
X223338095Y-144111904D02*
X223338095Y-143311904D01*
X223833333Y-144111904D02*
X223833333Y-143311904D01*
X224138095Y-143311904D01*
X224214285Y-143350000D01*
X224252380Y-143388095D01*
X224290476Y-143464285D01*
X224290476Y-143578571D01*
X224252380Y-143654761D01*
X224214285Y-143692857D01*
X224138095Y-143730952D01*
X223833333Y-143730952D01*
X224557142Y-143311904D02*
X225052380Y-143311904D01*
X224785714Y-143616666D01*
X224900000Y-143616666D01*
X224976190Y-143654761D01*
X225014285Y-143692857D01*
X225052380Y-143769047D01*
X225052380Y-143959523D01*
X225014285Y-144035714D01*
X224976190Y-144073809D01*
X224900000Y-144111904D01*
X224671428Y-144111904D01*
X224595238Y-144073809D01*
X224557142Y-144035714D01*
X225509523Y-143654761D02*
X225433333Y-143616666D01*
X225395238Y-143578571D01*
X225357142Y-143502380D01*
X225357142Y-143464285D01*
X225395238Y-143388095D01*
X225433333Y-143350000D01*
X225509523Y-143311904D01*
X225661904Y-143311904D01*
X225738095Y-143350000D01*
X225776190Y-143388095D01*
X225814285Y-143464285D01*
X225814285Y-143502380D01*
X225776190Y-143578571D01*
X225738095Y-143616666D01*
X225661904Y-143654761D01*
X225509523Y-143654761D01*
X225433333Y-143692857D01*
X225395238Y-143730952D01*
X225357142Y-143807142D01*
X225357142Y-143959523D01*
X225395238Y-144035714D01*
X225433333Y-144073809D01*
X225509523Y-144111904D01*
X225661904Y-144111904D01*
X225738095Y-144073809D01*
X225776190Y-144035714D01*
X225814285Y-143959523D01*
X225814285Y-143807142D01*
X225776190Y-143730952D01*
X225738095Y-143692857D01*
X225661904Y-143654761D01*
X217359523Y-146811904D02*
X217816666Y-146811904D01*
X217588095Y-147611904D02*
X217588095Y-146811904D01*
X218083333Y-147611904D02*
X218083333Y-146811904D01*
X218388095Y-146811904D01*
X218464285Y-146850000D01*
X218502380Y-146888095D01*
X218540476Y-146964285D01*
X218540476Y-147078571D01*
X218502380Y-147154761D01*
X218464285Y-147192857D01*
X218388095Y-147230952D01*
X218083333Y-147230952D01*
X219226190Y-147078571D02*
X219226190Y-147611904D01*
X219035714Y-146773809D02*
X218845238Y-147345238D01*
X219340476Y-147345238D01*
X219569047Y-146811904D02*
X220102380Y-146811904D01*
X219759523Y-147611904D01*
X224859523Y-167811904D02*
X225316666Y-167811904D01*
X225088095Y-168611904D02*
X225088095Y-167811904D01*
X225583333Y-168611904D02*
X225583333Y-167811904D01*
X225888095Y-167811904D01*
X225964285Y-167850000D01*
X226002380Y-167888095D01*
X226040476Y-167964285D01*
X226040476Y-168078571D01*
X226002380Y-168154761D01*
X225964285Y-168192857D01*
X225888095Y-168230952D01*
X225583333Y-168230952D01*
X226764285Y-167811904D02*
X226383333Y-167811904D01*
X226345238Y-168192857D01*
X226383333Y-168154761D01*
X226459523Y-168116666D01*
X226650000Y-168116666D01*
X226726190Y-168154761D01*
X226764285Y-168192857D01*
X226802380Y-168269047D01*
X226802380Y-168459523D01*
X226764285Y-168535714D01*
X226726190Y-168573809D01*
X226650000Y-168611904D01*
X226459523Y-168611904D01*
X226383333Y-168573809D01*
X226345238Y-168535714D01*
X227488095Y-167811904D02*
X227335714Y-167811904D01*
X227259523Y-167850000D01*
X227221428Y-167888095D01*
X227145238Y-168002380D01*
X227107142Y-168154761D01*
X227107142Y-168459523D01*
X227145238Y-168535714D01*
X227183333Y-168573809D01*
X227259523Y-168611904D01*
X227411904Y-168611904D01*
X227488095Y-168573809D01*
X227526190Y-168535714D01*
X227564285Y-168459523D01*
X227564285Y-168269047D01*
X227526190Y-168192857D01*
X227488095Y-168154761D01*
X227411904Y-168116666D01*
X227259523Y-168116666D01*
X227183333Y-168154761D01*
X227145238Y-168192857D01*
X227107142Y-168269047D01*
X228811904Y-162890476D02*
X228811904Y-162433333D01*
X229611904Y-162661904D02*
X228811904Y-162661904D01*
X229611904Y-162166666D02*
X228811904Y-162166666D01*
X228811904Y-161861904D01*
X228850000Y-161785714D01*
X228888095Y-161747619D01*
X228964285Y-161709523D01*
X229078571Y-161709523D01*
X229154761Y-161747619D01*
X229192857Y-161785714D01*
X229230952Y-161861904D01*
X229230952Y-162166666D01*
X228811904Y-160985714D02*
X228811904Y-161366666D01*
X229192857Y-161404761D01*
X229154761Y-161366666D01*
X229116666Y-161290476D01*
X229116666Y-161100000D01*
X229154761Y-161023809D01*
X229192857Y-160985714D01*
X229269047Y-160947619D01*
X229459523Y-160947619D01*
X229535714Y-160985714D01*
X229573809Y-161023809D01*
X229611904Y-161100000D01*
X229611904Y-161290476D01*
X229573809Y-161366666D01*
X229535714Y-161404761D01*
X228811904Y-160680952D02*
X228811904Y-160147619D01*
X229611904Y-160490476D01*
X224859523Y-165561904D02*
X225316666Y-165561904D01*
X225088095Y-166361904D02*
X225088095Y-165561904D01*
X225583333Y-166361904D02*
X225583333Y-165561904D01*
X225888095Y-165561904D01*
X225964285Y-165600000D01*
X226002380Y-165638095D01*
X226040476Y-165714285D01*
X226040476Y-165828571D01*
X226002380Y-165904761D01*
X225964285Y-165942857D01*
X225888095Y-165980952D01*
X225583333Y-165980952D01*
X226764285Y-165561904D02*
X226383333Y-165561904D01*
X226345238Y-165942857D01*
X226383333Y-165904761D01*
X226459523Y-165866666D01*
X226650000Y-165866666D01*
X226726190Y-165904761D01*
X226764285Y-165942857D01*
X226802380Y-166019047D01*
X226802380Y-166209523D01*
X226764285Y-166285714D01*
X226726190Y-166323809D01*
X226650000Y-166361904D01*
X226459523Y-166361904D01*
X226383333Y-166323809D01*
X226345238Y-166285714D01*
X227259523Y-165904761D02*
X227183333Y-165866666D01*
X227145238Y-165828571D01*
X227107142Y-165752380D01*
X227107142Y-165714285D01*
X227145238Y-165638095D01*
X227183333Y-165600000D01*
X227259523Y-165561904D01*
X227411904Y-165561904D01*
X227488095Y-165600000D01*
X227526190Y-165638095D01*
X227564285Y-165714285D01*
X227564285Y-165752380D01*
X227526190Y-165828571D01*
X227488095Y-165866666D01*
X227411904Y-165904761D01*
X227259523Y-165904761D01*
X227183333Y-165942857D01*
X227145238Y-165980952D01*
X227107142Y-166057142D01*
X227107142Y-166209523D01*
X227145238Y-166285714D01*
X227183333Y-166323809D01*
X227259523Y-166361904D01*
X227411904Y-166361904D01*
X227488095Y-166323809D01*
X227526190Y-166285714D01*
X227564285Y-166209523D01*
X227564285Y-166057142D01*
X227526190Y-165980952D01*
X227488095Y-165942857D01*
X227411904Y-165904761D01*
X229811904Y-155390476D02*
X229811904Y-154933333D01*
X230611904Y-155161904D02*
X229811904Y-155161904D01*
X230611904Y-154666666D02*
X229811904Y-154666666D01*
X229811904Y-154361904D01*
X229850000Y-154285714D01*
X229888095Y-154247619D01*
X229964285Y-154209523D01*
X230078571Y-154209523D01*
X230154761Y-154247619D01*
X230192857Y-154285714D01*
X230230952Y-154361904D01*
X230230952Y-154666666D01*
X229811904Y-153485714D02*
X229811904Y-153866666D01*
X230192857Y-153904761D01*
X230154761Y-153866666D01*
X230116666Y-153790476D01*
X230116666Y-153600000D01*
X230154761Y-153523809D01*
X230192857Y-153485714D01*
X230269047Y-153447619D01*
X230459523Y-153447619D01*
X230535714Y-153485714D01*
X230573809Y-153523809D01*
X230611904Y-153600000D01*
X230611904Y-153790476D01*
X230573809Y-153866666D01*
X230535714Y-153904761D01*
X230611904Y-153066666D02*
X230611904Y-152914285D01*
X230573809Y-152838095D01*
X230535714Y-152800000D01*
X230421428Y-152723809D01*
X230269047Y-152685714D01*
X229964285Y-152685714D01*
X229888095Y-152723809D01*
X229850000Y-152761904D01*
X229811904Y-152838095D01*
X229811904Y-152990476D01*
X229850000Y-153066666D01*
X229888095Y-153104761D01*
X229964285Y-153142857D01*
X230154761Y-153142857D01*
X230230952Y-153104761D01*
X230269047Y-153066666D01*
X230307142Y-152990476D01*
X230307142Y-152838095D01*
X230269047Y-152761904D01*
X230230952Y-152723809D01*
X230154761Y-152685714D01*
X222109523Y-149311904D02*
X222566666Y-149311904D01*
X222338095Y-150111904D02*
X222338095Y-149311904D01*
X222833333Y-150111904D02*
X222833333Y-149311904D01*
X223138095Y-149311904D01*
X223214285Y-149350000D01*
X223252380Y-149388095D01*
X223290476Y-149464285D01*
X223290476Y-149578571D01*
X223252380Y-149654761D01*
X223214285Y-149692857D01*
X223138095Y-149730952D01*
X222833333Y-149730952D01*
X223976190Y-149311904D02*
X223823809Y-149311904D01*
X223747619Y-149350000D01*
X223709523Y-149388095D01*
X223633333Y-149502380D01*
X223595238Y-149654761D01*
X223595238Y-149959523D01*
X223633333Y-150035714D01*
X223671428Y-150073809D01*
X223747619Y-150111904D01*
X223900000Y-150111904D01*
X223976190Y-150073809D01*
X224014285Y-150035714D01*
X224052380Y-149959523D01*
X224052380Y-149769047D01*
X224014285Y-149692857D01*
X223976190Y-149654761D01*
X223900000Y-149616666D01*
X223747619Y-149616666D01*
X223671428Y-149654761D01*
X223633333Y-149692857D01*
X223595238Y-149769047D01*
X224547619Y-149311904D02*
X224623809Y-149311904D01*
X224700000Y-149350000D01*
X224738095Y-149388095D01*
X224776190Y-149464285D01*
X224814285Y-149616666D01*
X224814285Y-149807142D01*
X224776190Y-149959523D01*
X224738095Y-150035714D01*
X224700000Y-150073809D01*
X224623809Y-150111904D01*
X224547619Y-150111904D01*
X224471428Y-150073809D01*
X224433333Y-150035714D01*
X224395238Y-149959523D01*
X224357142Y-149807142D01*
X224357142Y-149616666D01*
X224395238Y-149464285D01*
X224433333Y-149388095D01*
X224471428Y-149350000D01*
X224547619Y-149311904D01*
X227311904Y-154890476D02*
X227311904Y-154433333D01*
X228111904Y-154661904D02*
X227311904Y-154661904D01*
X228111904Y-154166666D02*
X227311904Y-154166666D01*
X227311904Y-153861904D01*
X227350000Y-153785714D01*
X227388095Y-153747619D01*
X227464285Y-153709523D01*
X227578571Y-153709523D01*
X227654761Y-153747619D01*
X227692857Y-153785714D01*
X227730952Y-153861904D01*
X227730952Y-154166666D01*
X227311904Y-153023809D02*
X227311904Y-153176190D01*
X227350000Y-153252380D01*
X227388095Y-153290476D01*
X227502380Y-153366666D01*
X227654761Y-153404761D01*
X227959523Y-153404761D01*
X228035714Y-153366666D01*
X228073809Y-153328571D01*
X228111904Y-153252380D01*
X228111904Y-153100000D01*
X228073809Y-153023809D01*
X228035714Y-152985714D01*
X227959523Y-152947619D01*
X227769047Y-152947619D01*
X227692857Y-152985714D01*
X227654761Y-153023809D01*
X227616666Y-153100000D01*
X227616666Y-153252380D01*
X227654761Y-153328571D01*
X227692857Y-153366666D01*
X227769047Y-153404761D01*
X228111904Y-152185714D02*
X228111904Y-152642857D01*
X228111904Y-152414285D02*
X227311904Y-152414285D01*
X227426190Y-152490476D01*
X227502380Y-152566666D01*
X227540476Y-152642857D01*
X232890476Y-150061904D02*
X232890476Y-150709523D01*
X232928571Y-150785714D01*
X232966666Y-150823809D01*
X233042857Y-150861904D01*
X233195238Y-150861904D01*
X233271428Y-150823809D01*
X233309523Y-150785714D01*
X233347619Y-150709523D01*
X233347619Y-150061904D01*
X233690476Y-150138095D02*
X233728571Y-150100000D01*
X233804761Y-150061904D01*
X233995238Y-150061904D01*
X234071428Y-150100000D01*
X234109523Y-150138095D01*
X234147619Y-150214285D01*
X234147619Y-150290476D01*
X234109523Y-150404761D01*
X233652380Y-150861904D01*
X234147619Y-150861904D01*
X215640476Y-145061904D02*
X215640476Y-145709523D01*
X215678571Y-145785714D01*
X215716666Y-145823809D01*
X215792857Y-145861904D01*
X215945238Y-145861904D01*
X216021428Y-145823809D01*
X216059523Y-145785714D01*
X216097619Y-145709523D01*
X216097619Y-145061904D01*
X216402380Y-145061904D02*
X216897619Y-145061904D01*
X216630952Y-145366666D01*
X216745238Y-145366666D01*
X216821428Y-145404761D01*
X216859523Y-145442857D01*
X216897619Y-145519047D01*
X216897619Y-145709523D01*
X216859523Y-145785714D01*
X216821428Y-145823809D01*
X216745238Y-145861904D01*
X216516666Y-145861904D01*
X216440476Y-145823809D01*
X216402380Y-145785714D01*
X229311904Y-170859523D02*
X229959523Y-170859523D01*
X230035714Y-170821428D01*
X230073809Y-170783333D01*
X230111904Y-170707142D01*
X230111904Y-170554761D01*
X230073809Y-170478571D01*
X230035714Y-170440476D01*
X229959523Y-170402380D01*
X229311904Y-170402380D01*
X229578571Y-169678571D02*
X230111904Y-169678571D01*
X229273809Y-169869047D02*
X229845238Y-170059523D01*
X229845238Y-169564285D01*
M02*
