M48
; DRILL file {KiCad 5.1.4} date Thu 07 Nov 2019 12:59:06 AM EST
; FORMAT={-:-/ absolute / metric / decimal}
; #@! TF.CreationDate,2019-11-07T00:59:06-05:00
; #@! TF.GenerationSoftware,Kicad,Pcbnew,5.1.4
; #@! TF.FileFunction,Plated,1,2,PTH
FMAT,2
METRIC
T1C0.300
T2C0.500
T3C1.000
T4C1.600
%
G90
G05
T1
X210.75Y-142.0
X211.75Y-134.5
X212.75Y-136.75
X214.25Y-143.75
X218.25Y-143.25
X220.25Y-120.75
X220.25Y-122.75
X220.25Y-124.75
X220.25Y-126.75
X221.25Y-136.75
X222.5Y-171.5
X222.5Y-179.75
X222.5Y-185.0
X227.901Y-147.0
X228.75Y-126.925
X228.75Y-137.5
X229.0Y-154.25
X229.5Y-159.0
X230.199Y-146.35
X230.75Y-134.5
X231.0Y-161.75
X231.0Y-163.25
X231.201Y-126.925
X233.0Y-134.5
X233.0Y-162.5
X233.5Y-154.25
X233.75Y-127.0
X233.775Y-147.622
X234.0Y-136.75
X234.719Y-175.25
X234.75Y-153.5
X236.0Y-155.25
X236.0Y-161.75
X236.25Y-127.0
X237.0Y-169.25
X237.25Y-176.5
X237.25Y-179.0
X237.75Y-147.5
X239.25Y-147.5
X239.25Y-169.25
X240.5Y-152.75
X240.75Y-178.75
X242.5Y-136.75
X251.0Y-136.75
X252.0Y-134.5
T2
X228.75Y-166.0
X255.0Y-178.0
X249.0Y-166.0
X229.5Y-130.25
X236.75Y-181.75
X235.25Y-151.5
X249.0Y-181.0
X239.0Y-176.25
X229.25Y-163.75
X255.0Y-181.0
X249.0Y-169.0
X255.0Y-172.0
X241.75Y-129.75
X239.0Y-140.5
X233.5Y-116.5
X249.0Y-184.0
X228.75Y-175.75
X230.75Y-184.0
X208.75Y-121.5
X248.0Y-140.5
X249.0Y-172.0
X233.25Y-130.25
X237.5Y-166.5
X226.75Y-143.75
X240.75Y-170.0
X221.0Y-147.25
X228.75Y-168.25
X255.0Y-184.0
X227.75Y-151.25
X233.25Y-184.0
X249.0Y-175.0
X236.25Y-118.75
X226.0Y-149.75
X230.75Y-116.5
X255.0Y-169.0
X228.0Y-118.75
X239.0Y-174.0
X255.0Y-163.0
X237.25Y-152.75
X226.75Y-140.5
X217.75Y-140.5
X237.75Y-143.75
X255.0Y-166.0
X239.0Y-159.5
X225.75Y-172.25
X230.25Y-151.75
X255.0Y-175.0
X249.0Y-163.0
X234.5Y-158.25
X221.0Y-129.75
X249.0Y-178.0
X243.0Y-164.75
T3
X210.0Y-169.0
X210.0Y-171.54
X223.22Y-110.0
X225.76Y-110.0
X228.3Y-110.0
X230.84Y-110.0
X233.38Y-110.0
X235.92Y-110.0
X238.46Y-110.0
X241.0Y-110.0
X228.17Y-190.0
X230.71Y-190.0
X233.25Y-190.0
X210.0Y-149.84
X210.0Y-152.38
X210.0Y-154.92
X210.0Y-157.46
X210.0Y-160.0
X210.0Y-179.92
X210.0Y-182.46
X210.0Y-185.0
T4
X249.0Y-154.0
T0
M30
