G04 #@! TF.GenerationSoftware,KiCad,Pcbnew,5.1.4*
G04 #@! TF.CreationDate,2019-11-07T00:58:56-05:00*
G04 #@! TF.ProjectId,level-shifter-demo,6c657665-6c2d-4736-9869-667465722d64,rev?*
G04 #@! TF.SameCoordinates,Original*
G04 #@! TF.FileFunction,Soldermask,Bot*
G04 #@! TF.FilePolarity,Negative*
%FSLAX46Y46*%
G04 Gerber Fmt 4.6, Leading zero omitted, Abs format (unit mm)*
G04 Created by KiCad (PCBNEW 5.1.4) date 2019-11-07 00:58:56*
%MOMM*%
%LPD*%
G04 APERTURE LIST*
%ADD10C,0.100000*%
G04 APERTURE END LIST*
D10*
G36*
X234180000Y-190930000D02*
G01*
X232320000Y-190930000D01*
X232320000Y-189070000D01*
X234180000Y-189070000D01*
X234180000Y-190930000D01*
X234180000Y-190930000D01*
G37*
G36*
X230801224Y-189074486D02*
G01*
X230892312Y-189083457D01*
X231067617Y-189136636D01*
X231067620Y-189136637D01*
X231153298Y-189182433D01*
X231229180Y-189222992D01*
X231370791Y-189339209D01*
X231487008Y-189480820D01*
X231527567Y-189556702D01*
X231573363Y-189642380D01*
X231573364Y-189642383D01*
X231626543Y-189817688D01*
X231644499Y-190000000D01*
X231626543Y-190182312D01*
X231573364Y-190357617D01*
X231573363Y-190357620D01*
X231527567Y-190443298D01*
X231487008Y-190519180D01*
X231370791Y-190660791D01*
X231229180Y-190777008D01*
X231153298Y-190817567D01*
X231067620Y-190863363D01*
X231067617Y-190863364D01*
X230892312Y-190916543D01*
X230801224Y-190925514D01*
X230755681Y-190930000D01*
X230664319Y-190930000D01*
X230618776Y-190925514D01*
X230527688Y-190916543D01*
X230352383Y-190863364D01*
X230352380Y-190863363D01*
X230266702Y-190817567D01*
X230190820Y-190777008D01*
X230049209Y-190660791D01*
X229932992Y-190519180D01*
X229892433Y-190443298D01*
X229846637Y-190357620D01*
X229846636Y-190357617D01*
X229793457Y-190182312D01*
X229775501Y-190000000D01*
X229793457Y-189817688D01*
X229846636Y-189642383D01*
X229846637Y-189642380D01*
X229892433Y-189556702D01*
X229932992Y-189480820D01*
X230049209Y-189339209D01*
X230190820Y-189222992D01*
X230266702Y-189182433D01*
X230352380Y-189136637D01*
X230352383Y-189136636D01*
X230527688Y-189083457D01*
X230618776Y-189074486D01*
X230664319Y-189070000D01*
X230755681Y-189070000D01*
X230801224Y-189074486D01*
X230801224Y-189074486D01*
G37*
G36*
X228261224Y-189074486D02*
G01*
X228352312Y-189083457D01*
X228527617Y-189136636D01*
X228527620Y-189136637D01*
X228613298Y-189182433D01*
X228689180Y-189222992D01*
X228830791Y-189339209D01*
X228947008Y-189480820D01*
X228987567Y-189556702D01*
X229033363Y-189642380D01*
X229033364Y-189642383D01*
X229086543Y-189817688D01*
X229104499Y-190000000D01*
X229086543Y-190182312D01*
X229033364Y-190357617D01*
X229033363Y-190357620D01*
X228987567Y-190443298D01*
X228947008Y-190519180D01*
X228830791Y-190660791D01*
X228689180Y-190777008D01*
X228613298Y-190817567D01*
X228527620Y-190863363D01*
X228527617Y-190863364D01*
X228352312Y-190916543D01*
X228261224Y-190925514D01*
X228215681Y-190930000D01*
X228124319Y-190930000D01*
X228078776Y-190925514D01*
X227987688Y-190916543D01*
X227812383Y-190863364D01*
X227812380Y-190863363D01*
X227726702Y-190817567D01*
X227650820Y-190777008D01*
X227509209Y-190660791D01*
X227392992Y-190519180D01*
X227352433Y-190443298D01*
X227306637Y-190357620D01*
X227306636Y-190357617D01*
X227253457Y-190182312D01*
X227235501Y-190000000D01*
X227253457Y-189817688D01*
X227306636Y-189642383D01*
X227306637Y-189642380D01*
X227352433Y-189556702D01*
X227392992Y-189480820D01*
X227509209Y-189339209D01*
X227650820Y-189222992D01*
X227726702Y-189182433D01*
X227812380Y-189136637D01*
X227812383Y-189136636D01*
X227987688Y-189083457D01*
X228078776Y-189074486D01*
X228124319Y-189070000D01*
X228215681Y-189070000D01*
X228261224Y-189074486D01*
X228261224Y-189074486D01*
G37*
G36*
X210930000Y-185930000D02*
G01*
X209070000Y-185930000D01*
X209070000Y-184070000D01*
X210930000Y-184070000D01*
X210930000Y-185930000D01*
X210930000Y-185930000D01*
G37*
G36*
X230863153Y-183431145D02*
G01*
X230919180Y-183442289D01*
X231024733Y-183486011D01*
X231119728Y-183549485D01*
X231200515Y-183630272D01*
X231263989Y-183725267D01*
X231307711Y-183830820D01*
X231330000Y-183942875D01*
X231330000Y-184057125D01*
X231307711Y-184169180D01*
X231263989Y-184274733D01*
X231200515Y-184369728D01*
X231119728Y-184450515D01*
X231024733Y-184513989D01*
X230919180Y-184557711D01*
X230863153Y-184568855D01*
X230807126Y-184580000D01*
X230692874Y-184580000D01*
X230636847Y-184568855D01*
X230580820Y-184557711D01*
X230475267Y-184513989D01*
X230380272Y-184450515D01*
X230299485Y-184369728D01*
X230236011Y-184274733D01*
X230192289Y-184169180D01*
X230170000Y-184057125D01*
X230170000Y-183942875D01*
X230192289Y-183830820D01*
X230236011Y-183725267D01*
X230299485Y-183630272D01*
X230380272Y-183549485D01*
X230475267Y-183486011D01*
X230580820Y-183442289D01*
X230636847Y-183431145D01*
X230692874Y-183420000D01*
X230807126Y-183420000D01*
X230863153Y-183431145D01*
X230863153Y-183431145D01*
G37*
G36*
X249113153Y-183431145D02*
G01*
X249169180Y-183442289D01*
X249274733Y-183486011D01*
X249369728Y-183549485D01*
X249450515Y-183630272D01*
X249513989Y-183725267D01*
X249557711Y-183830820D01*
X249580000Y-183942875D01*
X249580000Y-184057125D01*
X249557711Y-184169180D01*
X249513989Y-184274733D01*
X249450515Y-184369728D01*
X249369728Y-184450515D01*
X249274733Y-184513989D01*
X249169180Y-184557711D01*
X249113153Y-184568855D01*
X249057126Y-184580000D01*
X248942874Y-184580000D01*
X248886847Y-184568855D01*
X248830820Y-184557711D01*
X248725267Y-184513989D01*
X248630272Y-184450515D01*
X248549485Y-184369728D01*
X248486011Y-184274733D01*
X248442289Y-184169180D01*
X248420000Y-184057125D01*
X248420000Y-183942875D01*
X248442289Y-183830820D01*
X248486011Y-183725267D01*
X248549485Y-183630272D01*
X248630272Y-183549485D01*
X248725267Y-183486011D01*
X248830820Y-183442289D01*
X248886847Y-183431145D01*
X248942874Y-183420000D01*
X249057126Y-183420000D01*
X249113153Y-183431145D01*
X249113153Y-183431145D01*
G37*
G36*
X255113153Y-183431145D02*
G01*
X255169180Y-183442289D01*
X255274733Y-183486011D01*
X255369728Y-183549485D01*
X255450515Y-183630272D01*
X255513989Y-183725267D01*
X255557711Y-183830820D01*
X255580000Y-183942875D01*
X255580000Y-184057125D01*
X255557711Y-184169180D01*
X255513989Y-184274733D01*
X255450515Y-184369728D01*
X255369728Y-184450515D01*
X255274733Y-184513989D01*
X255169180Y-184557711D01*
X255113153Y-184568855D01*
X255057126Y-184580000D01*
X254942874Y-184580000D01*
X254886847Y-184568855D01*
X254830820Y-184557711D01*
X254725267Y-184513989D01*
X254630272Y-184450515D01*
X254549485Y-184369728D01*
X254486011Y-184274733D01*
X254442289Y-184169180D01*
X254420000Y-184057125D01*
X254420000Y-183942875D01*
X254442289Y-183830820D01*
X254486011Y-183725267D01*
X254549485Y-183630272D01*
X254630272Y-183549485D01*
X254725267Y-183486011D01*
X254830820Y-183442289D01*
X254886847Y-183431145D01*
X254942874Y-183420000D01*
X255057126Y-183420000D01*
X255113153Y-183431145D01*
X255113153Y-183431145D01*
G37*
G36*
X233363153Y-183431145D02*
G01*
X233419180Y-183442289D01*
X233524733Y-183486011D01*
X233619728Y-183549485D01*
X233700515Y-183630272D01*
X233763989Y-183725267D01*
X233807711Y-183830820D01*
X233830000Y-183942875D01*
X233830000Y-184057125D01*
X233807711Y-184169180D01*
X233763989Y-184274733D01*
X233700515Y-184369728D01*
X233619728Y-184450515D01*
X233524733Y-184513989D01*
X233419180Y-184557711D01*
X233363153Y-184568855D01*
X233307126Y-184580000D01*
X233192874Y-184580000D01*
X233136847Y-184568855D01*
X233080820Y-184557711D01*
X232975267Y-184513989D01*
X232880272Y-184450515D01*
X232799485Y-184369728D01*
X232736011Y-184274733D01*
X232692289Y-184169180D01*
X232670000Y-184057125D01*
X232670000Y-183942875D01*
X232692289Y-183830820D01*
X232736011Y-183725267D01*
X232799485Y-183630272D01*
X232880272Y-183549485D01*
X232975267Y-183486011D01*
X233080820Y-183442289D01*
X233136847Y-183431145D01*
X233192874Y-183420000D01*
X233307126Y-183420000D01*
X233363153Y-183431145D01*
X233363153Y-183431145D01*
G37*
G36*
X210091224Y-181534486D02*
G01*
X210182312Y-181543457D01*
X210357617Y-181596636D01*
X210357620Y-181596637D01*
X210443298Y-181642433D01*
X210519180Y-181682992D01*
X210660791Y-181799209D01*
X210777008Y-181940820D01*
X210817567Y-182016702D01*
X210863363Y-182102380D01*
X210863364Y-182102383D01*
X210916543Y-182277688D01*
X210934499Y-182460000D01*
X210916543Y-182642312D01*
X210863364Y-182817617D01*
X210863363Y-182817620D01*
X210817567Y-182903298D01*
X210777008Y-182979180D01*
X210660791Y-183120791D01*
X210519180Y-183237008D01*
X210443298Y-183277567D01*
X210357620Y-183323363D01*
X210357617Y-183323364D01*
X210182312Y-183376543D01*
X210091224Y-183385514D01*
X210045681Y-183390000D01*
X209954319Y-183390000D01*
X209908776Y-183385514D01*
X209817688Y-183376543D01*
X209642383Y-183323364D01*
X209642380Y-183323363D01*
X209556702Y-183277567D01*
X209480820Y-183237008D01*
X209339209Y-183120791D01*
X209222992Y-182979180D01*
X209182433Y-182903298D01*
X209136637Y-182817620D01*
X209136636Y-182817617D01*
X209083457Y-182642312D01*
X209065501Y-182460000D01*
X209083457Y-182277688D01*
X209136636Y-182102383D01*
X209136637Y-182102380D01*
X209182433Y-182016702D01*
X209222992Y-181940820D01*
X209339209Y-181799209D01*
X209480820Y-181682992D01*
X209556702Y-181642433D01*
X209642380Y-181596637D01*
X209642383Y-181596636D01*
X209817688Y-181543457D01*
X209908776Y-181534486D01*
X209954319Y-181530000D01*
X210045681Y-181530000D01*
X210091224Y-181534486D01*
X210091224Y-181534486D01*
G37*
G36*
X236863153Y-181181145D02*
G01*
X236919180Y-181192289D01*
X237024733Y-181236011D01*
X237119728Y-181299485D01*
X237200515Y-181380272D01*
X237263989Y-181475267D01*
X237307711Y-181580820D01*
X237330000Y-181692875D01*
X237330000Y-181807125D01*
X237307711Y-181919180D01*
X237263989Y-182024733D01*
X237200515Y-182119728D01*
X237119728Y-182200515D01*
X237024733Y-182263989D01*
X236919180Y-182307711D01*
X236863153Y-182318855D01*
X236807126Y-182330000D01*
X236692874Y-182330000D01*
X236636848Y-182318856D01*
X236580820Y-182307711D01*
X236475267Y-182263989D01*
X236380272Y-182200515D01*
X236299485Y-182119728D01*
X236236011Y-182024733D01*
X236192289Y-181919180D01*
X236170000Y-181807125D01*
X236170000Y-181692875D01*
X236192289Y-181580820D01*
X236236011Y-181475267D01*
X236299485Y-181380272D01*
X236380272Y-181299485D01*
X236475267Y-181236011D01*
X236580820Y-181192289D01*
X236636847Y-181181145D01*
X236692874Y-181170000D01*
X236807126Y-181170000D01*
X236863153Y-181181145D01*
X236863153Y-181181145D01*
G37*
G36*
X249113152Y-180431144D02*
G01*
X249169180Y-180442289D01*
X249274733Y-180486011D01*
X249369728Y-180549485D01*
X249450515Y-180630272D01*
X249513989Y-180725267D01*
X249557711Y-180830820D01*
X249580000Y-180942875D01*
X249580000Y-181057125D01*
X249557711Y-181169180D01*
X249513989Y-181274733D01*
X249450515Y-181369728D01*
X249369728Y-181450515D01*
X249274733Y-181513989D01*
X249169180Y-181557711D01*
X249113152Y-181568856D01*
X249057126Y-181580000D01*
X248942874Y-181580000D01*
X248886847Y-181568855D01*
X248830820Y-181557711D01*
X248725267Y-181513989D01*
X248630272Y-181450515D01*
X248549485Y-181369728D01*
X248486011Y-181274733D01*
X248442289Y-181169180D01*
X248420000Y-181057125D01*
X248420000Y-180942875D01*
X248442289Y-180830820D01*
X248486011Y-180725267D01*
X248549485Y-180630272D01*
X248630272Y-180549485D01*
X248725267Y-180486011D01*
X248830820Y-180442289D01*
X248886848Y-180431144D01*
X248942874Y-180420000D01*
X249057126Y-180420000D01*
X249113152Y-180431144D01*
X249113152Y-180431144D01*
G37*
G36*
X255113152Y-180431144D02*
G01*
X255169180Y-180442289D01*
X255274733Y-180486011D01*
X255369728Y-180549485D01*
X255450515Y-180630272D01*
X255513989Y-180725267D01*
X255557711Y-180830820D01*
X255580000Y-180942875D01*
X255580000Y-181057125D01*
X255557711Y-181169180D01*
X255513989Y-181274733D01*
X255450515Y-181369728D01*
X255369728Y-181450515D01*
X255274733Y-181513989D01*
X255169180Y-181557711D01*
X255113152Y-181568856D01*
X255057126Y-181580000D01*
X254942874Y-181580000D01*
X254886847Y-181568855D01*
X254830820Y-181557711D01*
X254725267Y-181513989D01*
X254630272Y-181450515D01*
X254549485Y-181369728D01*
X254486011Y-181274733D01*
X254442289Y-181169180D01*
X254420000Y-181057125D01*
X254420000Y-180942875D01*
X254442289Y-180830820D01*
X254486011Y-180725267D01*
X254549485Y-180630272D01*
X254630272Y-180549485D01*
X254725267Y-180486011D01*
X254830820Y-180442289D01*
X254886848Y-180431144D01*
X254942874Y-180420000D01*
X255057126Y-180420000D01*
X255113152Y-180431144D01*
X255113152Y-180431144D01*
G37*
G36*
X210091224Y-178994486D02*
G01*
X210182312Y-179003457D01*
X210357617Y-179056636D01*
X210357620Y-179056637D01*
X210443298Y-179102433D01*
X210519180Y-179142992D01*
X210660791Y-179259209D01*
X210777008Y-179400820D01*
X210817567Y-179476702D01*
X210863363Y-179562380D01*
X210863364Y-179562383D01*
X210916543Y-179737688D01*
X210934499Y-179920000D01*
X210916543Y-180102312D01*
X210863364Y-180277617D01*
X210863363Y-180277620D01*
X210817567Y-180363298D01*
X210777008Y-180439180D01*
X210660791Y-180580791D01*
X210519180Y-180697008D01*
X210443298Y-180737567D01*
X210357620Y-180783363D01*
X210357617Y-180783364D01*
X210182312Y-180836543D01*
X210091224Y-180845514D01*
X210045681Y-180850000D01*
X209954319Y-180850000D01*
X209908776Y-180845514D01*
X209817688Y-180836543D01*
X209642383Y-180783364D01*
X209642380Y-180783363D01*
X209556702Y-180737567D01*
X209480820Y-180697008D01*
X209339209Y-180580791D01*
X209222992Y-180439180D01*
X209182433Y-180363298D01*
X209136637Y-180277620D01*
X209136636Y-180277617D01*
X209083457Y-180102312D01*
X209065501Y-179920000D01*
X209083457Y-179737688D01*
X209136636Y-179562383D01*
X209136637Y-179562380D01*
X209182433Y-179476702D01*
X209222992Y-179400820D01*
X209339209Y-179259209D01*
X209480820Y-179142992D01*
X209556702Y-179102433D01*
X209642380Y-179056637D01*
X209642383Y-179056636D01*
X209817688Y-179003457D01*
X209908776Y-178994486D01*
X209954319Y-178990000D01*
X210045681Y-178990000D01*
X210091224Y-178994486D01*
X210091224Y-178994486D01*
G37*
G36*
X249113153Y-177431145D02*
G01*
X249169180Y-177442289D01*
X249274733Y-177486011D01*
X249369728Y-177549485D01*
X249450515Y-177630272D01*
X249513989Y-177725267D01*
X249557711Y-177830820D01*
X249580000Y-177942875D01*
X249580000Y-178057125D01*
X249557711Y-178169180D01*
X249513989Y-178274733D01*
X249450515Y-178369728D01*
X249369728Y-178450515D01*
X249274733Y-178513989D01*
X249169180Y-178557711D01*
X249113152Y-178568856D01*
X249057126Y-178580000D01*
X248942874Y-178580000D01*
X248886848Y-178568856D01*
X248830820Y-178557711D01*
X248725267Y-178513989D01*
X248630272Y-178450515D01*
X248549485Y-178369728D01*
X248486011Y-178274733D01*
X248442289Y-178169180D01*
X248420000Y-178057125D01*
X248420000Y-177942875D01*
X248442289Y-177830820D01*
X248486011Y-177725267D01*
X248549485Y-177630272D01*
X248630272Y-177549485D01*
X248725267Y-177486011D01*
X248830820Y-177442289D01*
X248886847Y-177431145D01*
X248942874Y-177420000D01*
X249057126Y-177420000D01*
X249113153Y-177431145D01*
X249113153Y-177431145D01*
G37*
G36*
X255113153Y-177431145D02*
G01*
X255169180Y-177442289D01*
X255274733Y-177486011D01*
X255369728Y-177549485D01*
X255450515Y-177630272D01*
X255513989Y-177725267D01*
X255557711Y-177830820D01*
X255580000Y-177942875D01*
X255580000Y-178057125D01*
X255557711Y-178169180D01*
X255513989Y-178274733D01*
X255450515Y-178369728D01*
X255369728Y-178450515D01*
X255274733Y-178513989D01*
X255169180Y-178557711D01*
X255113152Y-178568856D01*
X255057126Y-178580000D01*
X254942874Y-178580000D01*
X254886848Y-178568856D01*
X254830820Y-178557711D01*
X254725267Y-178513989D01*
X254630272Y-178450515D01*
X254549485Y-178369728D01*
X254486011Y-178274733D01*
X254442289Y-178169180D01*
X254420000Y-178057125D01*
X254420000Y-177942875D01*
X254442289Y-177830820D01*
X254486011Y-177725267D01*
X254549485Y-177630272D01*
X254630272Y-177549485D01*
X254725267Y-177486011D01*
X254830820Y-177442289D01*
X254886847Y-177431145D01*
X254942874Y-177420000D01*
X255057126Y-177420000D01*
X255113153Y-177431145D01*
X255113153Y-177431145D01*
G37*
G36*
X239113153Y-175681145D02*
G01*
X239169180Y-175692289D01*
X239274733Y-175736011D01*
X239369728Y-175799485D01*
X239450515Y-175880272D01*
X239513990Y-175975269D01*
X239557711Y-176080821D01*
X239580000Y-176192874D01*
X239580000Y-176307126D01*
X239575450Y-176330000D01*
X239557711Y-176419180D01*
X239513989Y-176524733D01*
X239450515Y-176619728D01*
X239369728Y-176700515D01*
X239274733Y-176763989D01*
X239169180Y-176807711D01*
X239113152Y-176818856D01*
X239057126Y-176830000D01*
X238942874Y-176830000D01*
X238886848Y-176818856D01*
X238830820Y-176807711D01*
X238725267Y-176763989D01*
X238630272Y-176700515D01*
X238549485Y-176619728D01*
X238486011Y-176524733D01*
X238442289Y-176419180D01*
X238424550Y-176330000D01*
X238420000Y-176307126D01*
X238420000Y-176192874D01*
X238442289Y-176080821D01*
X238486010Y-175975269D01*
X238549485Y-175880272D01*
X238630272Y-175799485D01*
X238725267Y-175736011D01*
X238830820Y-175692289D01*
X238886848Y-175681144D01*
X238942874Y-175670000D01*
X239057126Y-175670000D01*
X239113153Y-175681145D01*
X239113153Y-175681145D01*
G37*
G36*
X228863153Y-175181145D02*
G01*
X228919180Y-175192289D01*
X229024733Y-175236011D01*
X229082681Y-175274731D01*
X229119728Y-175299485D01*
X229200515Y-175380272D01*
X229263990Y-175475269D01*
X229307711Y-175580821D01*
X229329884Y-175692289D01*
X229330000Y-175692875D01*
X229330000Y-175807125D01*
X229307711Y-175919180D01*
X229263989Y-176024733D01*
X229200515Y-176119728D01*
X229119728Y-176200515D01*
X229024733Y-176263989D01*
X228919180Y-176307711D01*
X228863153Y-176318855D01*
X228807126Y-176330000D01*
X228692874Y-176330000D01*
X228636848Y-176318856D01*
X228580820Y-176307711D01*
X228475267Y-176263989D01*
X228380272Y-176200515D01*
X228299485Y-176119728D01*
X228236011Y-176024733D01*
X228192289Y-175919180D01*
X228170000Y-175807125D01*
X228170000Y-175692875D01*
X228170117Y-175692289D01*
X228192289Y-175580821D01*
X228236010Y-175475269D01*
X228299485Y-175380272D01*
X228380272Y-175299485D01*
X228417319Y-175274731D01*
X228475267Y-175236011D01*
X228580820Y-175192289D01*
X228636847Y-175181145D01*
X228692874Y-175170000D01*
X228807126Y-175170000D01*
X228863153Y-175181145D01*
X228863153Y-175181145D01*
G37*
G36*
X255113152Y-174431144D02*
G01*
X255169180Y-174442289D01*
X255274733Y-174486011D01*
X255369728Y-174549485D01*
X255450515Y-174630272D01*
X255513989Y-174725267D01*
X255557711Y-174830820D01*
X255580000Y-174942875D01*
X255580000Y-175057125D01*
X255557711Y-175169180D01*
X255513989Y-175274733D01*
X255450515Y-175369728D01*
X255369728Y-175450515D01*
X255274733Y-175513989D01*
X255169180Y-175557711D01*
X255113153Y-175568855D01*
X255057126Y-175580000D01*
X254942874Y-175580000D01*
X254886847Y-175568855D01*
X254830820Y-175557711D01*
X254725267Y-175513989D01*
X254630272Y-175450515D01*
X254549485Y-175369728D01*
X254486011Y-175274733D01*
X254442289Y-175169180D01*
X254420000Y-175057125D01*
X254420000Y-174942875D01*
X254442289Y-174830820D01*
X254486011Y-174725267D01*
X254549485Y-174630272D01*
X254630272Y-174549485D01*
X254725267Y-174486011D01*
X254830820Y-174442289D01*
X254886848Y-174431144D01*
X254942874Y-174420000D01*
X255057126Y-174420000D01*
X255113152Y-174431144D01*
X255113152Y-174431144D01*
G37*
G36*
X249113152Y-174431144D02*
G01*
X249169180Y-174442289D01*
X249274733Y-174486011D01*
X249369728Y-174549485D01*
X249450515Y-174630272D01*
X249513989Y-174725267D01*
X249557711Y-174830820D01*
X249580000Y-174942875D01*
X249580000Y-175057125D01*
X249557711Y-175169180D01*
X249513989Y-175274733D01*
X249450515Y-175369728D01*
X249369728Y-175450515D01*
X249274733Y-175513989D01*
X249169180Y-175557711D01*
X249113153Y-175568855D01*
X249057126Y-175580000D01*
X248942874Y-175580000D01*
X248886847Y-175568855D01*
X248830820Y-175557711D01*
X248725267Y-175513989D01*
X248630272Y-175450515D01*
X248549485Y-175369728D01*
X248486011Y-175274733D01*
X248442289Y-175169180D01*
X248420000Y-175057125D01*
X248420000Y-174942875D01*
X248442289Y-174830820D01*
X248486011Y-174725267D01*
X248549485Y-174630272D01*
X248630272Y-174549485D01*
X248725267Y-174486011D01*
X248830820Y-174442289D01*
X248886848Y-174431144D01*
X248942874Y-174420000D01*
X249057126Y-174420000D01*
X249113152Y-174431144D01*
X249113152Y-174431144D01*
G37*
G36*
X239113153Y-173431145D02*
G01*
X239169180Y-173442289D01*
X239274733Y-173486011D01*
X239369728Y-173549485D01*
X239450515Y-173630272D01*
X239513989Y-173725267D01*
X239557711Y-173830820D01*
X239580000Y-173942875D01*
X239580000Y-174057125D01*
X239557711Y-174169180D01*
X239513989Y-174274733D01*
X239450515Y-174369728D01*
X239369728Y-174450515D01*
X239274733Y-174513989D01*
X239169180Y-174557711D01*
X239113152Y-174568856D01*
X239057126Y-174580000D01*
X238942874Y-174580000D01*
X238886848Y-174568856D01*
X238830820Y-174557711D01*
X238725267Y-174513989D01*
X238630272Y-174450515D01*
X238549485Y-174369728D01*
X238486011Y-174274733D01*
X238442289Y-174169180D01*
X238420000Y-174057125D01*
X238420000Y-173942875D01*
X238442289Y-173830820D01*
X238486011Y-173725267D01*
X238549485Y-173630272D01*
X238630272Y-173549485D01*
X238725267Y-173486011D01*
X238830820Y-173442289D01*
X238886848Y-173431144D01*
X238942874Y-173420000D01*
X239057126Y-173420000D01*
X239113153Y-173431145D01*
X239113153Y-173431145D01*
G37*
G36*
X225863153Y-171681145D02*
G01*
X225919180Y-171692289D01*
X226024733Y-171736011D01*
X226119728Y-171799485D01*
X226200515Y-171880272D01*
X226263989Y-171975267D01*
X226307711Y-172080820D01*
X226330000Y-172192875D01*
X226330000Y-172307125D01*
X226307711Y-172419180D01*
X226263989Y-172524733D01*
X226200515Y-172619728D01*
X226119728Y-172700515D01*
X226024733Y-172763989D01*
X225919180Y-172807711D01*
X225863152Y-172818856D01*
X225807126Y-172830000D01*
X225692874Y-172830000D01*
X225636848Y-172818856D01*
X225580820Y-172807711D01*
X225475267Y-172763989D01*
X225380272Y-172700515D01*
X225299485Y-172619728D01*
X225236011Y-172524733D01*
X225192289Y-172419180D01*
X225170000Y-172307125D01*
X225170000Y-172192875D01*
X225192289Y-172080820D01*
X225236011Y-171975267D01*
X225299485Y-171880272D01*
X225380272Y-171799485D01*
X225475267Y-171736011D01*
X225580820Y-171692289D01*
X225636847Y-171681145D01*
X225692874Y-171670000D01*
X225807126Y-171670000D01*
X225863153Y-171681145D01*
X225863153Y-171681145D01*
G37*
G36*
X249113153Y-171431145D02*
G01*
X249169180Y-171442289D01*
X249274733Y-171486011D01*
X249369728Y-171549485D01*
X249450515Y-171630272D01*
X249513989Y-171725267D01*
X249557711Y-171830820D01*
X249580000Y-171942875D01*
X249580000Y-172057125D01*
X249557711Y-172169180D01*
X249513989Y-172274733D01*
X249450515Y-172369728D01*
X249369728Y-172450515D01*
X249274733Y-172513989D01*
X249169180Y-172557711D01*
X249113152Y-172568856D01*
X249057126Y-172580000D01*
X248942874Y-172580000D01*
X248886848Y-172568856D01*
X248830820Y-172557711D01*
X248725267Y-172513989D01*
X248630272Y-172450515D01*
X248549485Y-172369728D01*
X248486011Y-172274733D01*
X248442289Y-172169180D01*
X248420000Y-172057125D01*
X248420000Y-171942875D01*
X248442289Y-171830820D01*
X248486011Y-171725267D01*
X248549485Y-171630272D01*
X248630272Y-171549485D01*
X248725267Y-171486011D01*
X248830820Y-171442289D01*
X248886848Y-171431144D01*
X248942874Y-171420000D01*
X249057126Y-171420000D01*
X249113153Y-171431145D01*
X249113153Y-171431145D01*
G37*
G36*
X255113153Y-171431145D02*
G01*
X255169180Y-171442289D01*
X255274733Y-171486011D01*
X255369728Y-171549485D01*
X255450515Y-171630272D01*
X255513989Y-171725267D01*
X255557711Y-171830820D01*
X255580000Y-171942875D01*
X255580000Y-172057125D01*
X255557711Y-172169180D01*
X255513989Y-172274733D01*
X255450515Y-172369728D01*
X255369728Y-172450515D01*
X255274733Y-172513989D01*
X255169180Y-172557711D01*
X255113152Y-172568856D01*
X255057126Y-172580000D01*
X254942874Y-172580000D01*
X254886848Y-172568856D01*
X254830820Y-172557711D01*
X254725267Y-172513989D01*
X254630272Y-172450515D01*
X254549485Y-172369728D01*
X254486011Y-172274733D01*
X254442289Y-172169180D01*
X254420000Y-172057125D01*
X254420000Y-171942875D01*
X254442289Y-171830820D01*
X254486011Y-171725267D01*
X254549485Y-171630272D01*
X254630272Y-171549485D01*
X254725267Y-171486011D01*
X254830820Y-171442289D01*
X254886848Y-171431144D01*
X254942874Y-171420000D01*
X255057126Y-171420000D01*
X255113153Y-171431145D01*
X255113153Y-171431145D01*
G37*
G36*
X210930000Y-172470000D02*
G01*
X209070000Y-172470000D01*
X209070000Y-170610000D01*
X210930000Y-170610000D01*
X210930000Y-172470000D01*
X210930000Y-172470000D01*
G37*
G36*
X240863153Y-169431145D02*
G01*
X240919180Y-169442289D01*
X241024733Y-169486011D01*
X241119728Y-169549485D01*
X241200515Y-169630272D01*
X241263989Y-169725267D01*
X241307711Y-169830820D01*
X241330000Y-169942875D01*
X241330000Y-170057125D01*
X241307711Y-170169180D01*
X241263989Y-170274733D01*
X241200515Y-170369728D01*
X241119728Y-170450515D01*
X241024733Y-170513989D01*
X240919180Y-170557711D01*
X240863152Y-170568856D01*
X240807126Y-170580000D01*
X240692874Y-170580000D01*
X240636848Y-170568856D01*
X240580820Y-170557711D01*
X240475267Y-170513989D01*
X240380272Y-170450515D01*
X240299485Y-170369728D01*
X240236011Y-170274733D01*
X240192289Y-170169180D01*
X240170000Y-170057125D01*
X240170000Y-169942875D01*
X240192289Y-169830820D01*
X240236011Y-169725267D01*
X240299485Y-169630272D01*
X240380272Y-169549485D01*
X240475267Y-169486011D01*
X240580820Y-169442289D01*
X240636847Y-169431145D01*
X240692874Y-169420000D01*
X240807126Y-169420000D01*
X240863153Y-169431145D01*
X240863153Y-169431145D01*
G37*
G36*
X210091224Y-168074486D02*
G01*
X210182312Y-168083457D01*
X210357617Y-168136636D01*
X210357620Y-168136637D01*
X210443298Y-168182433D01*
X210519180Y-168222992D01*
X210660791Y-168339209D01*
X210777008Y-168480820D01*
X210813710Y-168549485D01*
X210863363Y-168642380D01*
X210863364Y-168642383D01*
X210916543Y-168817688D01*
X210934499Y-169000000D01*
X210916543Y-169182312D01*
X210888507Y-169274733D01*
X210863363Y-169357620D01*
X210856891Y-169369728D01*
X210777008Y-169519180D01*
X210660791Y-169660791D01*
X210519180Y-169777008D01*
X210443298Y-169817567D01*
X210357620Y-169863363D01*
X210357617Y-169863364D01*
X210182312Y-169916543D01*
X210091224Y-169925514D01*
X210045681Y-169930000D01*
X209954319Y-169930000D01*
X209908776Y-169925514D01*
X209817688Y-169916543D01*
X209642383Y-169863364D01*
X209642380Y-169863363D01*
X209556702Y-169817567D01*
X209480820Y-169777008D01*
X209339209Y-169660791D01*
X209222992Y-169519180D01*
X209143109Y-169369728D01*
X209136637Y-169357620D01*
X209111493Y-169274733D01*
X209083457Y-169182312D01*
X209065501Y-169000000D01*
X209083457Y-168817688D01*
X209136636Y-168642383D01*
X209136637Y-168642380D01*
X209186290Y-168549485D01*
X209222992Y-168480820D01*
X209339209Y-168339209D01*
X209480820Y-168222992D01*
X209556702Y-168182433D01*
X209642380Y-168136637D01*
X209642383Y-168136636D01*
X209817688Y-168083457D01*
X209908776Y-168074486D01*
X209954319Y-168070000D01*
X210045681Y-168070000D01*
X210091224Y-168074486D01*
X210091224Y-168074486D01*
G37*
G36*
X249113152Y-168431144D02*
G01*
X249169180Y-168442289D01*
X249243817Y-168473205D01*
X249262204Y-168480821D01*
X249274733Y-168486011D01*
X249369728Y-168549485D01*
X249450515Y-168630272D01*
X249513989Y-168725267D01*
X249557711Y-168830820D01*
X249580000Y-168942875D01*
X249580000Y-169057125D01*
X249557711Y-169169180D01*
X249513989Y-169274733D01*
X249450515Y-169369728D01*
X249369728Y-169450515D01*
X249274733Y-169513989D01*
X249274732Y-169513990D01*
X249274731Y-169513990D01*
X249262201Y-169519180D01*
X249169180Y-169557711D01*
X249113153Y-169568855D01*
X249057126Y-169580000D01*
X248942874Y-169580000D01*
X248886847Y-169568855D01*
X248830820Y-169557711D01*
X248737799Y-169519180D01*
X248725269Y-169513990D01*
X248725268Y-169513990D01*
X248725267Y-169513989D01*
X248630272Y-169450515D01*
X248549485Y-169369728D01*
X248486011Y-169274733D01*
X248442289Y-169169180D01*
X248420000Y-169057125D01*
X248420000Y-168942875D01*
X248442289Y-168830820D01*
X248486011Y-168725267D01*
X248549485Y-168630272D01*
X248630272Y-168549485D01*
X248725267Y-168486011D01*
X248737797Y-168480821D01*
X248756183Y-168473205D01*
X248830820Y-168442289D01*
X248886848Y-168431144D01*
X248942874Y-168420000D01*
X249057126Y-168420000D01*
X249113152Y-168431144D01*
X249113152Y-168431144D01*
G37*
G36*
X255113152Y-168431144D02*
G01*
X255169180Y-168442289D01*
X255243817Y-168473205D01*
X255262204Y-168480821D01*
X255274733Y-168486011D01*
X255369728Y-168549485D01*
X255450515Y-168630272D01*
X255513989Y-168725267D01*
X255557711Y-168830820D01*
X255580000Y-168942875D01*
X255580000Y-169057125D01*
X255557711Y-169169180D01*
X255513989Y-169274733D01*
X255450515Y-169369728D01*
X255369728Y-169450515D01*
X255274733Y-169513989D01*
X255274732Y-169513990D01*
X255274731Y-169513990D01*
X255262201Y-169519180D01*
X255169180Y-169557711D01*
X255113153Y-169568855D01*
X255057126Y-169580000D01*
X254942874Y-169580000D01*
X254886847Y-169568855D01*
X254830820Y-169557711D01*
X254737799Y-169519180D01*
X254725269Y-169513990D01*
X254725268Y-169513990D01*
X254725267Y-169513989D01*
X254630272Y-169450515D01*
X254549485Y-169369728D01*
X254486011Y-169274733D01*
X254442289Y-169169180D01*
X254420000Y-169057125D01*
X254420000Y-168942875D01*
X254442289Y-168830820D01*
X254486011Y-168725267D01*
X254549485Y-168630272D01*
X254630272Y-168549485D01*
X254725267Y-168486011D01*
X254737797Y-168480821D01*
X254756183Y-168473205D01*
X254830820Y-168442289D01*
X254886848Y-168431144D01*
X254942874Y-168420000D01*
X255057126Y-168420000D01*
X255113152Y-168431144D01*
X255113152Y-168431144D01*
G37*
G36*
X228863152Y-167681144D02*
G01*
X228919180Y-167692289D01*
X229024733Y-167736011D01*
X229119728Y-167799485D01*
X229200515Y-167880272D01*
X229263989Y-167975267D01*
X229307711Y-168080820D01*
X229330000Y-168192875D01*
X229330000Y-168307125D01*
X229307711Y-168419180D01*
X229263989Y-168524733D01*
X229200515Y-168619728D01*
X229119728Y-168700515D01*
X229024733Y-168763989D01*
X228919180Y-168807711D01*
X228869022Y-168817688D01*
X228807126Y-168830000D01*
X228692874Y-168830000D01*
X228630978Y-168817688D01*
X228580820Y-168807711D01*
X228475267Y-168763989D01*
X228380272Y-168700515D01*
X228299485Y-168619728D01*
X228236011Y-168524733D01*
X228192289Y-168419180D01*
X228170000Y-168307125D01*
X228170000Y-168192875D01*
X228192289Y-168080820D01*
X228236011Y-167975267D01*
X228299485Y-167880272D01*
X228380272Y-167799485D01*
X228475267Y-167736011D01*
X228580820Y-167692289D01*
X228636848Y-167681144D01*
X228692874Y-167670000D01*
X228807126Y-167670000D01*
X228863152Y-167681144D01*
X228863152Y-167681144D01*
G37*
G36*
X237613153Y-165931145D02*
G01*
X237669180Y-165942289D01*
X237774733Y-165986011D01*
X237869728Y-166049485D01*
X237950515Y-166130272D01*
X238013990Y-166225269D01*
X238057711Y-166330821D01*
X238080000Y-166442874D01*
X238080000Y-166557126D01*
X238075450Y-166580000D01*
X238057711Y-166669180D01*
X238013989Y-166774733D01*
X237950515Y-166869728D01*
X237869728Y-166950515D01*
X237774733Y-167013989D01*
X237669180Y-167057711D01*
X237613153Y-167068855D01*
X237557126Y-167080000D01*
X237442874Y-167080000D01*
X237386847Y-167068855D01*
X237330820Y-167057711D01*
X237225267Y-167013989D01*
X237130272Y-166950515D01*
X237049485Y-166869728D01*
X236986011Y-166774733D01*
X236942289Y-166669180D01*
X236924550Y-166580000D01*
X236920000Y-166557126D01*
X236920000Y-166442874D01*
X236942289Y-166330821D01*
X236986010Y-166225269D01*
X237049485Y-166130272D01*
X237130272Y-166049485D01*
X237225267Y-165986011D01*
X237330820Y-165942289D01*
X237386847Y-165931145D01*
X237442874Y-165920000D01*
X237557126Y-165920000D01*
X237613153Y-165931145D01*
X237613153Y-165931145D01*
G37*
G36*
X228863153Y-165431145D02*
G01*
X228919180Y-165442289D01*
X229024733Y-165486011D01*
X229119728Y-165549485D01*
X229200515Y-165630272D01*
X229263990Y-165725269D01*
X229307711Y-165830821D01*
X229329884Y-165942289D01*
X229330000Y-165942875D01*
X229330000Y-166057125D01*
X229307711Y-166169180D01*
X229263989Y-166274733D01*
X229200515Y-166369728D01*
X229119728Y-166450515D01*
X229024733Y-166513989D01*
X228919180Y-166557711D01*
X228863152Y-166568856D01*
X228807126Y-166580000D01*
X228692874Y-166580000D01*
X228636848Y-166568856D01*
X228580820Y-166557711D01*
X228475267Y-166513989D01*
X228380272Y-166450515D01*
X228299485Y-166369728D01*
X228236011Y-166274733D01*
X228192289Y-166169180D01*
X228170000Y-166057125D01*
X228170000Y-165942875D01*
X228170117Y-165942289D01*
X228192289Y-165830821D01*
X228236010Y-165725269D01*
X228299485Y-165630272D01*
X228380272Y-165549485D01*
X228475267Y-165486011D01*
X228580820Y-165442289D01*
X228636847Y-165431145D01*
X228692874Y-165420000D01*
X228807126Y-165420000D01*
X228863153Y-165431145D01*
X228863153Y-165431145D01*
G37*
G36*
X249113153Y-165431145D02*
G01*
X249169180Y-165442289D01*
X249274733Y-165486011D01*
X249369728Y-165549485D01*
X249450515Y-165630272D01*
X249513990Y-165725269D01*
X249557711Y-165830821D01*
X249579884Y-165942289D01*
X249580000Y-165942875D01*
X249580000Y-166057125D01*
X249557711Y-166169180D01*
X249513989Y-166274733D01*
X249450515Y-166369728D01*
X249369728Y-166450515D01*
X249274733Y-166513989D01*
X249169180Y-166557711D01*
X249113152Y-166568856D01*
X249057126Y-166580000D01*
X248942874Y-166580000D01*
X248886848Y-166568856D01*
X248830820Y-166557711D01*
X248725267Y-166513989D01*
X248630272Y-166450515D01*
X248549485Y-166369728D01*
X248486011Y-166274733D01*
X248442289Y-166169180D01*
X248420000Y-166057125D01*
X248420000Y-165942875D01*
X248420117Y-165942289D01*
X248442289Y-165830821D01*
X248486010Y-165725269D01*
X248549485Y-165630272D01*
X248630272Y-165549485D01*
X248725267Y-165486011D01*
X248830820Y-165442289D01*
X248886848Y-165431144D01*
X248942874Y-165420000D01*
X249057126Y-165420000D01*
X249113153Y-165431145D01*
X249113153Y-165431145D01*
G37*
G36*
X255113153Y-165431145D02*
G01*
X255169180Y-165442289D01*
X255274733Y-165486011D01*
X255369728Y-165549485D01*
X255450515Y-165630272D01*
X255513990Y-165725269D01*
X255557711Y-165830821D01*
X255579884Y-165942289D01*
X255580000Y-165942875D01*
X255580000Y-166057125D01*
X255557711Y-166169180D01*
X255513989Y-166274733D01*
X255450515Y-166369728D01*
X255369728Y-166450515D01*
X255274733Y-166513989D01*
X255169180Y-166557711D01*
X255113152Y-166568856D01*
X255057126Y-166580000D01*
X254942874Y-166580000D01*
X254886848Y-166568856D01*
X254830820Y-166557711D01*
X254725267Y-166513989D01*
X254630272Y-166450515D01*
X254549485Y-166369728D01*
X254486011Y-166274733D01*
X254442289Y-166169180D01*
X254420000Y-166057125D01*
X254420000Y-165942875D01*
X254420117Y-165942289D01*
X254442289Y-165830821D01*
X254486010Y-165725269D01*
X254549485Y-165630272D01*
X254630272Y-165549485D01*
X254725267Y-165486011D01*
X254830820Y-165442289D01*
X254886848Y-165431144D01*
X254942874Y-165420000D01*
X255057126Y-165420000D01*
X255113153Y-165431145D01*
X255113153Y-165431145D01*
G37*
G36*
X243113152Y-164181144D02*
G01*
X243169180Y-164192289D01*
X243274733Y-164236011D01*
X243369728Y-164299485D01*
X243450515Y-164380272D01*
X243513989Y-164475267D01*
X243557711Y-164580820D01*
X243580000Y-164692875D01*
X243580000Y-164807125D01*
X243557711Y-164919180D01*
X243513989Y-165024733D01*
X243450515Y-165119728D01*
X243369728Y-165200515D01*
X243274733Y-165263989D01*
X243169180Y-165307711D01*
X243113153Y-165318855D01*
X243057126Y-165330000D01*
X242942874Y-165330000D01*
X242886848Y-165318856D01*
X242830820Y-165307711D01*
X242725267Y-165263989D01*
X242630272Y-165200515D01*
X242549485Y-165119728D01*
X242486011Y-165024733D01*
X242442289Y-164919180D01*
X242420000Y-164807125D01*
X242420000Y-164692875D01*
X242442289Y-164580820D01*
X242486011Y-164475267D01*
X242549485Y-164380272D01*
X242630272Y-164299485D01*
X242725267Y-164236011D01*
X242830820Y-164192289D01*
X242886848Y-164181144D01*
X242942874Y-164170000D01*
X243057126Y-164170000D01*
X243113152Y-164181144D01*
X243113152Y-164181144D01*
G37*
G36*
X229363153Y-163181145D02*
G01*
X229419180Y-163192289D01*
X229524733Y-163236011D01*
X229619728Y-163299485D01*
X229700515Y-163380272D01*
X229763989Y-163475267D01*
X229807711Y-163580820D01*
X229830000Y-163692875D01*
X229830000Y-163807125D01*
X229807711Y-163919180D01*
X229763989Y-164024733D01*
X229700515Y-164119728D01*
X229619728Y-164200515D01*
X229524733Y-164263989D01*
X229419180Y-164307711D01*
X229363152Y-164318856D01*
X229307126Y-164330000D01*
X229192874Y-164330000D01*
X229136848Y-164318856D01*
X229080820Y-164307711D01*
X228975267Y-164263989D01*
X228880272Y-164200515D01*
X228799485Y-164119728D01*
X228736011Y-164024733D01*
X228692289Y-163919180D01*
X228670000Y-163807125D01*
X228670000Y-163692875D01*
X228692289Y-163580820D01*
X228736011Y-163475267D01*
X228799485Y-163380272D01*
X228880272Y-163299485D01*
X228975267Y-163236011D01*
X229080820Y-163192289D01*
X229136847Y-163181145D01*
X229192874Y-163170000D01*
X229307126Y-163170000D01*
X229363153Y-163181145D01*
X229363153Y-163181145D01*
G37*
G36*
X249113152Y-162431144D02*
G01*
X249169180Y-162442289D01*
X249274733Y-162486011D01*
X249369728Y-162549485D01*
X249450515Y-162630272D01*
X249513989Y-162725267D01*
X249557711Y-162830820D01*
X249580000Y-162942875D01*
X249580000Y-163057125D01*
X249557711Y-163169180D01*
X249513989Y-163274733D01*
X249450515Y-163369728D01*
X249369728Y-163450515D01*
X249274733Y-163513989D01*
X249169180Y-163557711D01*
X249113153Y-163568855D01*
X249057126Y-163580000D01*
X248942874Y-163580000D01*
X248886847Y-163568855D01*
X248830820Y-163557711D01*
X248725267Y-163513989D01*
X248630272Y-163450515D01*
X248549485Y-163369728D01*
X248486011Y-163274733D01*
X248442289Y-163169180D01*
X248420000Y-163057125D01*
X248420000Y-162942875D01*
X248442289Y-162830820D01*
X248486011Y-162725267D01*
X248549485Y-162630272D01*
X248630272Y-162549485D01*
X248725267Y-162486011D01*
X248830820Y-162442289D01*
X248886848Y-162431144D01*
X248942874Y-162420000D01*
X249057126Y-162420000D01*
X249113152Y-162431144D01*
X249113152Y-162431144D01*
G37*
G36*
X255113152Y-162431144D02*
G01*
X255169180Y-162442289D01*
X255274733Y-162486011D01*
X255369728Y-162549485D01*
X255450515Y-162630272D01*
X255513989Y-162725267D01*
X255557711Y-162830820D01*
X255580000Y-162942875D01*
X255580000Y-163057125D01*
X255557711Y-163169180D01*
X255513989Y-163274733D01*
X255450515Y-163369728D01*
X255369728Y-163450515D01*
X255274733Y-163513989D01*
X255169180Y-163557711D01*
X255113152Y-163568856D01*
X255057126Y-163580000D01*
X254942874Y-163580000D01*
X254886847Y-163568855D01*
X254830820Y-163557711D01*
X254725267Y-163513989D01*
X254630272Y-163450515D01*
X254549485Y-163369728D01*
X254486011Y-163274733D01*
X254442289Y-163169180D01*
X254420000Y-163057125D01*
X254420000Y-162942875D01*
X254442289Y-162830820D01*
X254486011Y-162725267D01*
X254549485Y-162630272D01*
X254630272Y-162549485D01*
X254725267Y-162486011D01*
X254830820Y-162442289D01*
X254886848Y-162431144D01*
X254942874Y-162420000D01*
X255057126Y-162420000D01*
X255113152Y-162431144D01*
X255113152Y-162431144D01*
G37*
G36*
X210930000Y-160930000D02*
G01*
X209070000Y-160930000D01*
X209070000Y-159070000D01*
X210930000Y-159070000D01*
X210930000Y-160930000D01*
X210930000Y-160930000D01*
G37*
G36*
X239113152Y-158931144D02*
G01*
X239169180Y-158942289D01*
X239274733Y-158986011D01*
X239369728Y-159049485D01*
X239450515Y-159130272D01*
X239513989Y-159225267D01*
X239557711Y-159330820D01*
X239580000Y-159442875D01*
X239580000Y-159557125D01*
X239557711Y-159669180D01*
X239513989Y-159774733D01*
X239450515Y-159869728D01*
X239369728Y-159950515D01*
X239274733Y-160013989D01*
X239169180Y-160057711D01*
X239113153Y-160068855D01*
X239057126Y-160080000D01*
X238942874Y-160080000D01*
X238886847Y-160068855D01*
X238830820Y-160057711D01*
X238725267Y-160013989D01*
X238630272Y-159950515D01*
X238549485Y-159869728D01*
X238486011Y-159774733D01*
X238442289Y-159669180D01*
X238420000Y-159557125D01*
X238420000Y-159442875D01*
X238442289Y-159330820D01*
X238486011Y-159225267D01*
X238549485Y-159130272D01*
X238630272Y-159049485D01*
X238725267Y-158986011D01*
X238830820Y-158942289D01*
X238886848Y-158931144D01*
X238942874Y-158920000D01*
X239057126Y-158920000D01*
X239113152Y-158931144D01*
X239113152Y-158931144D01*
G37*
G36*
X234613152Y-157681144D02*
G01*
X234669180Y-157692289D01*
X234774733Y-157736011D01*
X234869728Y-157799485D01*
X234950515Y-157880272D01*
X235013990Y-157975269D01*
X235015610Y-157979180D01*
X235057711Y-158080820D01*
X235080000Y-158192875D01*
X235080000Y-158307125D01*
X235057711Y-158419180D01*
X235013989Y-158524733D01*
X234950515Y-158619728D01*
X234869728Y-158700515D01*
X234774733Y-158763989D01*
X234669180Y-158807711D01*
X234613153Y-158818855D01*
X234557126Y-158830000D01*
X234442874Y-158830000D01*
X234386847Y-158818855D01*
X234330820Y-158807711D01*
X234225267Y-158763989D01*
X234130272Y-158700515D01*
X234049485Y-158619728D01*
X233986011Y-158524733D01*
X233942289Y-158419180D01*
X233920000Y-158307125D01*
X233920000Y-158192875D01*
X233942289Y-158080820D01*
X233984390Y-157979180D01*
X233986010Y-157975269D01*
X234049485Y-157880272D01*
X234130272Y-157799485D01*
X234225267Y-157736011D01*
X234330820Y-157692289D01*
X234386848Y-157681144D01*
X234442874Y-157670000D01*
X234557126Y-157670000D01*
X234613152Y-157681144D01*
X234613152Y-157681144D01*
G37*
G36*
X210091224Y-156534486D02*
G01*
X210182312Y-156543457D01*
X210357617Y-156596636D01*
X210357620Y-156596637D01*
X210443298Y-156642433D01*
X210519180Y-156682992D01*
X210660791Y-156799209D01*
X210777008Y-156940820D01*
X210817567Y-157016702D01*
X210863363Y-157102380D01*
X210863364Y-157102383D01*
X210916543Y-157277688D01*
X210934499Y-157460000D01*
X210916543Y-157642312D01*
X210888119Y-157736011D01*
X210863363Y-157817620D01*
X210829875Y-157880272D01*
X210777008Y-157979180D01*
X210660791Y-158120791D01*
X210519180Y-158237008D01*
X210443298Y-158277567D01*
X210357620Y-158323363D01*
X210357617Y-158323364D01*
X210182312Y-158376543D01*
X210091224Y-158385514D01*
X210045681Y-158390000D01*
X209954319Y-158390000D01*
X209908776Y-158385514D01*
X209817688Y-158376543D01*
X209642383Y-158323364D01*
X209642380Y-158323363D01*
X209556702Y-158277567D01*
X209480820Y-158237008D01*
X209339209Y-158120791D01*
X209222992Y-157979180D01*
X209170125Y-157880272D01*
X209136637Y-157817620D01*
X209111881Y-157736011D01*
X209083457Y-157642312D01*
X209065501Y-157460000D01*
X209083457Y-157277688D01*
X209136636Y-157102383D01*
X209136637Y-157102380D01*
X209182433Y-157016702D01*
X209222992Y-156940820D01*
X209339209Y-156799209D01*
X209480820Y-156682992D01*
X209556702Y-156642433D01*
X209642380Y-156596637D01*
X209642383Y-156596636D01*
X209817688Y-156543457D01*
X209908776Y-156534486D01*
X209954319Y-156530000D01*
X210045681Y-156530000D01*
X210091224Y-156534486D01*
X210091224Y-156534486D01*
G37*
G36*
X210091224Y-153994486D02*
G01*
X210182312Y-154003457D01*
X210357617Y-154056636D01*
X210357620Y-154056637D01*
X210443298Y-154102433D01*
X210519180Y-154142992D01*
X210660791Y-154259209D01*
X210777008Y-154400820D01*
X210793513Y-154431699D01*
X210863363Y-154562380D01*
X210863364Y-154562383D01*
X210916543Y-154737688D01*
X210934499Y-154920000D01*
X210916543Y-155102312D01*
X210863364Y-155277617D01*
X210863363Y-155277620D01*
X210817567Y-155363298D01*
X210777008Y-155439180D01*
X210660791Y-155580791D01*
X210519180Y-155697008D01*
X210443298Y-155737567D01*
X210357620Y-155783363D01*
X210357617Y-155783364D01*
X210182312Y-155836543D01*
X210091224Y-155845514D01*
X210045681Y-155850000D01*
X209954319Y-155850000D01*
X209908776Y-155845514D01*
X209817688Y-155836543D01*
X209642383Y-155783364D01*
X209642380Y-155783363D01*
X209556702Y-155737567D01*
X209480820Y-155697008D01*
X209339209Y-155580791D01*
X209222992Y-155439180D01*
X209182433Y-155363298D01*
X209136637Y-155277620D01*
X209136636Y-155277617D01*
X209083457Y-155102312D01*
X209065501Y-154920000D01*
X209083457Y-154737688D01*
X209136636Y-154562383D01*
X209136637Y-154562380D01*
X209206487Y-154431699D01*
X209222992Y-154400820D01*
X209339209Y-154259209D01*
X209480820Y-154142992D01*
X209556702Y-154102433D01*
X209642380Y-154056637D01*
X209642383Y-154056636D01*
X209817688Y-154003457D01*
X209908776Y-153994486D01*
X209954319Y-153990000D01*
X210045681Y-153990000D01*
X210091224Y-153994486D01*
X210091224Y-153994486D01*
G37*
G36*
X249431699Y-152576875D02*
G01*
X249701041Y-152688440D01*
X249701043Y-152688441D01*
X249943445Y-152850409D01*
X250149591Y-153056555D01*
X250309946Y-153296543D01*
X250311560Y-153298959D01*
X250423125Y-153568301D01*
X250480000Y-153854231D01*
X250480000Y-154145769D01*
X250423125Y-154431699D01*
X250368995Y-154562380D01*
X250311559Y-154701043D01*
X250149591Y-154943445D01*
X249943445Y-155149591D01*
X249701043Y-155311559D01*
X249701042Y-155311560D01*
X249701041Y-155311560D01*
X249431699Y-155423125D01*
X249145769Y-155480000D01*
X248854231Y-155480000D01*
X248568301Y-155423125D01*
X248298959Y-155311560D01*
X248298958Y-155311560D01*
X248298957Y-155311559D01*
X248056555Y-155149591D01*
X247850409Y-154943445D01*
X247688441Y-154701043D01*
X247631005Y-154562380D01*
X247576875Y-154431699D01*
X247520000Y-154145769D01*
X247520000Y-153854231D01*
X247576875Y-153568301D01*
X247688440Y-153298959D01*
X247690054Y-153296543D01*
X247850409Y-153056555D01*
X248056555Y-152850409D01*
X248298957Y-152688441D01*
X248298959Y-152688440D01*
X248568301Y-152576875D01*
X248854231Y-152520000D01*
X249145769Y-152520000D01*
X249431699Y-152576875D01*
X249431699Y-152576875D01*
G37*
G36*
X237363152Y-152181144D02*
G01*
X237419180Y-152192289D01*
X237524733Y-152236011D01*
X237619728Y-152299485D01*
X237700515Y-152380272D01*
X237763989Y-152475267D01*
X237807711Y-152580820D01*
X237830000Y-152692875D01*
X237830000Y-152807125D01*
X237807711Y-152919180D01*
X237763989Y-153024733D01*
X237700515Y-153119728D01*
X237619728Y-153200515D01*
X237524733Y-153263989D01*
X237419180Y-153307711D01*
X237407672Y-153310000D01*
X237307126Y-153330000D01*
X237192874Y-153330000D01*
X237092328Y-153310000D01*
X237080820Y-153307711D01*
X236975267Y-153263989D01*
X236880272Y-153200515D01*
X236799485Y-153119728D01*
X236736011Y-153024733D01*
X236692289Y-152919180D01*
X236670000Y-152807125D01*
X236670000Y-152692875D01*
X236692289Y-152580820D01*
X236736011Y-152475267D01*
X236799485Y-152380272D01*
X236880272Y-152299485D01*
X236975267Y-152236011D01*
X237080820Y-152192289D01*
X237136848Y-152181144D01*
X237192874Y-152170000D01*
X237307126Y-152170000D01*
X237363152Y-152181144D01*
X237363152Y-152181144D01*
G37*
G36*
X210091224Y-151454486D02*
G01*
X210182312Y-151463457D01*
X210357617Y-151516636D01*
X210357620Y-151516637D01*
X210433368Y-151557125D01*
X210519180Y-151602992D01*
X210660791Y-151719209D01*
X210777008Y-151860820D01*
X210781769Y-151869728D01*
X210863363Y-152022380D01*
X210863364Y-152022383D01*
X210916543Y-152197688D01*
X210934499Y-152380000D01*
X210916543Y-152562312D01*
X210863364Y-152737617D01*
X210863363Y-152737620D01*
X210826212Y-152807125D01*
X210777008Y-152899180D01*
X210660791Y-153040791D01*
X210519180Y-153157008D01*
X210443298Y-153197567D01*
X210357620Y-153243363D01*
X210357617Y-153243364D01*
X210182312Y-153296543D01*
X210091224Y-153305514D01*
X210045681Y-153310000D01*
X209954319Y-153310000D01*
X209908776Y-153305514D01*
X209817688Y-153296543D01*
X209642383Y-153243364D01*
X209642380Y-153243363D01*
X209556702Y-153197567D01*
X209480820Y-153157008D01*
X209339209Y-153040791D01*
X209222992Y-152899180D01*
X209173788Y-152807125D01*
X209136637Y-152737620D01*
X209136636Y-152737617D01*
X209083457Y-152562312D01*
X209065501Y-152380000D01*
X209083457Y-152197688D01*
X209136636Y-152022383D01*
X209136637Y-152022380D01*
X209218231Y-151869728D01*
X209222992Y-151860820D01*
X209339209Y-151719209D01*
X209480820Y-151602992D01*
X209566632Y-151557125D01*
X209642380Y-151516637D01*
X209642383Y-151516636D01*
X209817688Y-151463457D01*
X209908776Y-151454486D01*
X209954319Y-151450000D01*
X210045681Y-151450000D01*
X210091224Y-151454486D01*
X210091224Y-151454486D01*
G37*
G36*
X230363153Y-151181145D02*
G01*
X230419180Y-151192289D01*
X230524733Y-151236011D01*
X230619728Y-151299485D01*
X230700515Y-151380272D01*
X230763989Y-151475267D01*
X230797897Y-151557126D01*
X230807711Y-151580821D01*
X230830000Y-151692874D01*
X230830000Y-151807126D01*
X230807711Y-151919179D01*
X230764963Y-152022383D01*
X230763989Y-152024733D01*
X230700515Y-152119728D01*
X230619728Y-152200515D01*
X230524733Y-152263989D01*
X230419180Y-152307711D01*
X230363152Y-152318856D01*
X230307126Y-152330000D01*
X230192874Y-152330000D01*
X230136848Y-152318856D01*
X230080820Y-152307711D01*
X229975267Y-152263989D01*
X229880272Y-152200515D01*
X229799485Y-152119728D01*
X229736011Y-152024733D01*
X229735038Y-152022383D01*
X229692289Y-151919179D01*
X229670000Y-151807126D01*
X229670000Y-151692874D01*
X229692289Y-151580821D01*
X229702104Y-151557126D01*
X229736011Y-151475267D01*
X229799485Y-151380272D01*
X229880272Y-151299485D01*
X229975267Y-151236011D01*
X230080820Y-151192289D01*
X230136847Y-151181145D01*
X230192874Y-151170000D01*
X230307126Y-151170000D01*
X230363153Y-151181145D01*
X230363153Y-151181145D01*
G37*
G36*
X235363152Y-150931144D02*
G01*
X235419180Y-150942289D01*
X235524733Y-150986011D01*
X235619728Y-151049485D01*
X235700515Y-151130272D01*
X235763989Y-151225267D01*
X235807711Y-151330820D01*
X235830000Y-151442875D01*
X235830000Y-151557125D01*
X235807711Y-151669180D01*
X235763989Y-151774733D01*
X235700515Y-151869728D01*
X235619728Y-151950515D01*
X235524733Y-152013989D01*
X235419180Y-152057711D01*
X235363153Y-152068855D01*
X235307126Y-152080000D01*
X235192874Y-152080000D01*
X235136847Y-152068855D01*
X235080820Y-152057711D01*
X234975267Y-152013989D01*
X234880272Y-151950515D01*
X234799485Y-151869728D01*
X234736011Y-151774733D01*
X234692289Y-151669180D01*
X234670000Y-151557125D01*
X234670000Y-151442875D01*
X234692289Y-151330820D01*
X234736011Y-151225267D01*
X234799485Y-151130272D01*
X234880272Y-151049485D01*
X234975267Y-150986011D01*
X235080820Y-150942289D01*
X235136848Y-150931144D01*
X235192874Y-150920000D01*
X235307126Y-150920000D01*
X235363152Y-150931144D01*
X235363152Y-150931144D01*
G37*
G36*
X227863152Y-150681144D02*
G01*
X227919180Y-150692289D01*
X228024733Y-150736011D01*
X228119728Y-150799485D01*
X228200515Y-150880272D01*
X228241954Y-150942289D01*
X228263990Y-150975269D01*
X228307711Y-151080821D01*
X228329884Y-151192289D01*
X228330000Y-151192875D01*
X228330000Y-151307125D01*
X228307711Y-151419180D01*
X228263989Y-151524733D01*
X228200515Y-151619728D01*
X228119728Y-151700515D01*
X228024733Y-151763989D01*
X227919180Y-151807711D01*
X227863153Y-151818855D01*
X227807126Y-151830000D01*
X227692874Y-151830000D01*
X227636847Y-151818855D01*
X227580820Y-151807711D01*
X227475267Y-151763989D01*
X227380272Y-151700515D01*
X227299485Y-151619728D01*
X227236011Y-151524733D01*
X227192289Y-151419180D01*
X227170000Y-151307125D01*
X227170000Y-151192875D01*
X227170117Y-151192289D01*
X227192289Y-151080821D01*
X227236010Y-150975269D01*
X227258047Y-150942289D01*
X227299485Y-150880272D01*
X227380272Y-150799485D01*
X227475267Y-150736011D01*
X227580820Y-150692289D01*
X227636848Y-150681144D01*
X227692874Y-150670000D01*
X227807126Y-150670000D01*
X227863152Y-150681144D01*
X227863152Y-150681144D01*
G37*
G36*
X210091224Y-148914486D02*
G01*
X210182312Y-148923457D01*
X210357617Y-148976636D01*
X210357620Y-148976637D01*
X210443298Y-149022433D01*
X210519180Y-149062992D01*
X210660791Y-149179209D01*
X210777008Y-149320820D01*
X210808785Y-149380272D01*
X210863363Y-149482380D01*
X210863364Y-149482383D01*
X210916543Y-149657688D01*
X210934499Y-149840000D01*
X210916543Y-150022312D01*
X210863364Y-150197617D01*
X210863363Y-150197620D01*
X210817567Y-150283298D01*
X210777008Y-150359180D01*
X210660791Y-150500791D01*
X210519180Y-150617008D01*
X210443298Y-150657567D01*
X210357620Y-150703363D01*
X210357617Y-150703364D01*
X210182312Y-150756543D01*
X210091224Y-150765514D01*
X210045681Y-150770000D01*
X209954319Y-150770000D01*
X209908776Y-150765514D01*
X209817688Y-150756543D01*
X209642383Y-150703364D01*
X209642380Y-150703363D01*
X209556702Y-150657567D01*
X209480820Y-150617008D01*
X209339209Y-150500791D01*
X209222992Y-150359180D01*
X209182433Y-150283298D01*
X209136637Y-150197620D01*
X209136636Y-150197617D01*
X209083457Y-150022312D01*
X209065501Y-149840000D01*
X209083457Y-149657688D01*
X209136636Y-149482383D01*
X209136637Y-149482380D01*
X209191215Y-149380272D01*
X209222992Y-149320820D01*
X209339209Y-149179209D01*
X209480820Y-149062992D01*
X209556702Y-149022433D01*
X209642380Y-148976637D01*
X209642383Y-148976636D01*
X209817688Y-148923457D01*
X209908776Y-148914486D01*
X209954319Y-148910000D01*
X210045681Y-148910000D01*
X210091224Y-148914486D01*
X210091224Y-148914486D01*
G37*
G36*
X226103422Y-149179209D02*
G01*
X226169180Y-149192289D01*
X226274733Y-149236011D01*
X226369728Y-149299485D01*
X226450515Y-149380272D01*
X226513989Y-149475267D01*
X226557711Y-149580820D01*
X226580000Y-149692875D01*
X226580000Y-149807125D01*
X226557711Y-149919180D01*
X226513989Y-150024733D01*
X226450515Y-150119728D01*
X226369728Y-150200515D01*
X226274733Y-150263989D01*
X226169180Y-150307711D01*
X226113152Y-150318856D01*
X226057126Y-150330000D01*
X225942874Y-150330000D01*
X225886848Y-150318856D01*
X225830820Y-150307711D01*
X225725267Y-150263989D01*
X225630272Y-150200515D01*
X225549485Y-150119728D01*
X225486011Y-150024733D01*
X225442289Y-149919180D01*
X225420000Y-149807125D01*
X225420000Y-149692875D01*
X225442289Y-149580820D01*
X225486011Y-149475267D01*
X225549485Y-149380272D01*
X225630272Y-149299485D01*
X225725267Y-149236011D01*
X225830820Y-149192289D01*
X225896578Y-149179209D01*
X225942874Y-149170000D01*
X226057126Y-149170000D01*
X226103422Y-149179209D01*
X226103422Y-149179209D01*
G37*
G36*
X221113152Y-146681144D02*
G01*
X221169180Y-146692289D01*
X221274733Y-146736011D01*
X221369728Y-146799485D01*
X221450515Y-146880272D01*
X221513989Y-146975267D01*
X221557711Y-147080820D01*
X221580000Y-147192875D01*
X221580000Y-147307125D01*
X221557711Y-147419180D01*
X221513989Y-147524733D01*
X221450515Y-147619728D01*
X221369728Y-147700515D01*
X221274733Y-147763989D01*
X221169180Y-147807711D01*
X221113153Y-147818855D01*
X221057126Y-147830000D01*
X220942874Y-147830000D01*
X220886847Y-147818855D01*
X220830820Y-147807711D01*
X220725267Y-147763989D01*
X220630272Y-147700515D01*
X220549485Y-147619728D01*
X220486011Y-147524733D01*
X220442289Y-147419180D01*
X220420000Y-147307125D01*
X220420000Y-147192875D01*
X220442289Y-147080820D01*
X220486011Y-146975267D01*
X220549485Y-146880272D01*
X220630272Y-146799485D01*
X220725267Y-146736011D01*
X220830820Y-146692289D01*
X220886848Y-146681144D01*
X220942874Y-146670000D01*
X221057126Y-146670000D01*
X221113152Y-146681144D01*
X221113152Y-146681144D01*
G37*
G36*
X226863153Y-143181145D02*
G01*
X226919180Y-143192289D01*
X227024733Y-143236011D01*
X227119728Y-143299485D01*
X227200515Y-143380272D01*
X227263989Y-143475267D01*
X227307711Y-143580820D01*
X227330000Y-143692875D01*
X227330000Y-143807125D01*
X227307711Y-143919180D01*
X227263989Y-144024733D01*
X227200515Y-144119728D01*
X227119728Y-144200515D01*
X227024733Y-144263989D01*
X226919180Y-144307711D01*
X226863152Y-144318856D01*
X226807126Y-144330000D01*
X226692874Y-144330000D01*
X226636848Y-144318856D01*
X226580820Y-144307711D01*
X226475267Y-144263989D01*
X226380272Y-144200515D01*
X226299485Y-144119728D01*
X226236011Y-144024733D01*
X226192289Y-143919180D01*
X226170000Y-143807125D01*
X226170000Y-143692875D01*
X226192289Y-143580820D01*
X226236011Y-143475267D01*
X226299485Y-143380272D01*
X226380272Y-143299485D01*
X226475267Y-143236011D01*
X226580820Y-143192289D01*
X226636847Y-143181145D01*
X226692874Y-143170000D01*
X226807126Y-143170000D01*
X226863153Y-143181145D01*
X226863153Y-143181145D01*
G37*
G36*
X237863153Y-143181145D02*
G01*
X237919180Y-143192289D01*
X238024733Y-143236011D01*
X238119728Y-143299485D01*
X238200515Y-143380272D01*
X238263989Y-143475267D01*
X238307711Y-143580820D01*
X238330000Y-143692875D01*
X238330000Y-143807125D01*
X238307711Y-143919180D01*
X238263989Y-144024733D01*
X238200515Y-144119728D01*
X238119728Y-144200515D01*
X238024733Y-144263989D01*
X237919180Y-144307711D01*
X237863152Y-144318856D01*
X237807126Y-144330000D01*
X237692874Y-144330000D01*
X237636848Y-144318856D01*
X237580820Y-144307711D01*
X237475267Y-144263989D01*
X237380272Y-144200515D01*
X237299485Y-144119728D01*
X237236011Y-144024733D01*
X237192289Y-143919180D01*
X237170000Y-143807125D01*
X237170000Y-143692875D01*
X237192289Y-143580820D01*
X237236011Y-143475267D01*
X237299485Y-143380272D01*
X237380272Y-143299485D01*
X237475267Y-143236011D01*
X237580820Y-143192289D01*
X237636847Y-143181145D01*
X237692874Y-143170000D01*
X237807126Y-143170000D01*
X237863153Y-143181145D01*
X237863153Y-143181145D01*
G37*
G36*
X239113152Y-139931144D02*
G01*
X239169180Y-139942289D01*
X239274733Y-139986011D01*
X239369728Y-140049485D01*
X239450515Y-140130272D01*
X239513989Y-140225267D01*
X239557711Y-140330820D01*
X239580000Y-140442875D01*
X239580000Y-140557125D01*
X239557711Y-140669180D01*
X239513989Y-140774733D01*
X239450515Y-140869728D01*
X239369728Y-140950515D01*
X239274733Y-141013989D01*
X239169180Y-141057711D01*
X239113152Y-141068856D01*
X239057126Y-141080000D01*
X238942874Y-141080000D01*
X238886848Y-141068856D01*
X238830820Y-141057711D01*
X238725267Y-141013989D01*
X238630272Y-140950515D01*
X238549485Y-140869728D01*
X238486011Y-140774733D01*
X238442289Y-140669180D01*
X238420000Y-140557125D01*
X238420000Y-140442875D01*
X238442289Y-140330820D01*
X238486011Y-140225267D01*
X238549485Y-140130272D01*
X238630272Y-140049485D01*
X238725267Y-139986011D01*
X238830820Y-139942289D01*
X238886848Y-139931144D01*
X238942874Y-139920000D01*
X239057126Y-139920000D01*
X239113152Y-139931144D01*
X239113152Y-139931144D01*
G37*
G36*
X226863152Y-139931144D02*
G01*
X226919180Y-139942289D01*
X227024733Y-139986011D01*
X227119728Y-140049485D01*
X227200515Y-140130272D01*
X227263989Y-140225267D01*
X227307711Y-140330820D01*
X227330000Y-140442875D01*
X227330000Y-140557125D01*
X227307711Y-140669180D01*
X227263989Y-140774733D01*
X227200515Y-140869728D01*
X227119728Y-140950515D01*
X227024733Y-141013989D01*
X226919180Y-141057711D01*
X226863152Y-141068856D01*
X226807126Y-141080000D01*
X226692874Y-141080000D01*
X226636848Y-141068856D01*
X226580820Y-141057711D01*
X226475267Y-141013989D01*
X226380272Y-140950515D01*
X226299485Y-140869728D01*
X226236011Y-140774733D01*
X226192289Y-140669180D01*
X226170000Y-140557125D01*
X226170000Y-140442875D01*
X226192289Y-140330820D01*
X226236011Y-140225267D01*
X226299485Y-140130272D01*
X226380272Y-140049485D01*
X226475267Y-139986011D01*
X226580820Y-139942289D01*
X226636848Y-139931144D01*
X226692874Y-139920000D01*
X226807126Y-139920000D01*
X226863152Y-139931144D01*
X226863152Y-139931144D01*
G37*
G36*
X217863152Y-139931144D02*
G01*
X217919180Y-139942289D01*
X218024733Y-139986011D01*
X218119728Y-140049485D01*
X218200515Y-140130272D01*
X218263989Y-140225267D01*
X218307711Y-140330820D01*
X218330000Y-140442875D01*
X218330000Y-140557125D01*
X218307711Y-140669180D01*
X218263989Y-140774733D01*
X218200515Y-140869728D01*
X218119728Y-140950515D01*
X218024733Y-141013989D01*
X217919180Y-141057711D01*
X217863152Y-141068856D01*
X217807126Y-141080000D01*
X217692874Y-141080000D01*
X217636848Y-141068856D01*
X217580820Y-141057711D01*
X217475267Y-141013989D01*
X217380272Y-140950515D01*
X217299485Y-140869728D01*
X217236011Y-140774733D01*
X217192289Y-140669180D01*
X217170000Y-140557125D01*
X217170000Y-140442875D01*
X217192289Y-140330820D01*
X217236011Y-140225267D01*
X217299485Y-140130272D01*
X217380272Y-140049485D01*
X217475267Y-139986011D01*
X217580820Y-139942289D01*
X217636848Y-139931144D01*
X217692874Y-139920000D01*
X217807126Y-139920000D01*
X217863152Y-139931144D01*
X217863152Y-139931144D01*
G37*
G36*
X248113152Y-139931144D02*
G01*
X248169180Y-139942289D01*
X248274733Y-139986011D01*
X248369728Y-140049485D01*
X248450515Y-140130272D01*
X248513989Y-140225267D01*
X248557711Y-140330820D01*
X248580000Y-140442875D01*
X248580000Y-140557125D01*
X248557711Y-140669180D01*
X248513989Y-140774733D01*
X248450515Y-140869728D01*
X248369728Y-140950515D01*
X248274733Y-141013989D01*
X248169180Y-141057711D01*
X248113152Y-141068856D01*
X248057126Y-141080000D01*
X247942874Y-141080000D01*
X247886848Y-141068856D01*
X247830820Y-141057711D01*
X247725267Y-141013989D01*
X247630272Y-140950515D01*
X247549485Y-140869728D01*
X247486011Y-140774733D01*
X247442289Y-140669180D01*
X247420000Y-140557125D01*
X247420000Y-140442875D01*
X247442289Y-140330820D01*
X247486011Y-140225267D01*
X247549485Y-140130272D01*
X247630272Y-140049485D01*
X247725267Y-139986011D01*
X247830820Y-139942289D01*
X247886848Y-139931144D01*
X247942874Y-139920000D01*
X248057126Y-139920000D01*
X248113152Y-139931144D01*
X248113152Y-139931144D01*
G37*
G36*
X233363153Y-129681145D02*
G01*
X233419180Y-129692289D01*
X233524733Y-129736011D01*
X233619728Y-129799485D01*
X233700515Y-129880272D01*
X233763990Y-129975269D01*
X233807711Y-130080821D01*
X233830000Y-130192874D01*
X233830000Y-130307126D01*
X233825450Y-130330000D01*
X233807711Y-130419180D01*
X233763989Y-130524733D01*
X233700515Y-130619728D01*
X233619728Y-130700515D01*
X233524733Y-130763989D01*
X233419180Y-130807711D01*
X233363152Y-130818856D01*
X233307126Y-130830000D01*
X233192874Y-130830000D01*
X233136848Y-130818856D01*
X233080820Y-130807711D01*
X232975267Y-130763989D01*
X232880272Y-130700515D01*
X232799485Y-130619728D01*
X232736011Y-130524733D01*
X232692289Y-130419180D01*
X232674550Y-130330000D01*
X232670000Y-130307126D01*
X232670000Y-130192874D01*
X232692289Y-130080821D01*
X232736010Y-129975269D01*
X232799485Y-129880272D01*
X232880272Y-129799485D01*
X232975267Y-129736011D01*
X233080820Y-129692289D01*
X233136847Y-129681145D01*
X233192874Y-129670000D01*
X233307126Y-129670000D01*
X233363153Y-129681145D01*
X233363153Y-129681145D01*
G37*
G36*
X229613153Y-129681145D02*
G01*
X229669180Y-129692289D01*
X229774733Y-129736011D01*
X229869728Y-129799485D01*
X229950515Y-129880272D01*
X230013990Y-129975269D01*
X230057711Y-130080821D01*
X230080000Y-130192874D01*
X230080000Y-130307126D01*
X230075450Y-130330000D01*
X230057711Y-130419180D01*
X230013989Y-130524733D01*
X229950515Y-130619728D01*
X229869728Y-130700515D01*
X229774733Y-130763989D01*
X229669180Y-130807711D01*
X229613152Y-130818856D01*
X229557126Y-130830000D01*
X229442874Y-130830000D01*
X229386848Y-130818856D01*
X229330820Y-130807711D01*
X229225267Y-130763989D01*
X229130272Y-130700515D01*
X229049485Y-130619728D01*
X228986011Y-130524733D01*
X228942289Y-130419180D01*
X228924550Y-130330000D01*
X228920000Y-130307126D01*
X228920000Y-130192874D01*
X228942289Y-130080821D01*
X228986010Y-129975269D01*
X229049485Y-129880272D01*
X229130272Y-129799485D01*
X229225267Y-129736011D01*
X229330820Y-129692289D01*
X229386847Y-129681145D01*
X229442874Y-129670000D01*
X229557126Y-129670000D01*
X229613153Y-129681145D01*
X229613153Y-129681145D01*
G37*
G36*
X221113153Y-129181145D02*
G01*
X221169180Y-129192289D01*
X221274733Y-129236011D01*
X221369728Y-129299485D01*
X221450515Y-129380272D01*
X221513990Y-129475269D01*
X221557711Y-129580821D01*
X221579884Y-129692289D01*
X221580000Y-129692875D01*
X221580000Y-129807125D01*
X221557711Y-129919180D01*
X221513989Y-130024733D01*
X221450515Y-130119728D01*
X221369728Y-130200515D01*
X221274733Y-130263989D01*
X221169180Y-130307711D01*
X221113152Y-130318856D01*
X221057126Y-130330000D01*
X220942874Y-130330000D01*
X220886848Y-130318856D01*
X220830820Y-130307711D01*
X220725267Y-130263989D01*
X220630272Y-130200515D01*
X220549485Y-130119728D01*
X220486011Y-130024733D01*
X220442289Y-129919180D01*
X220420000Y-129807125D01*
X220420000Y-129692875D01*
X220420117Y-129692289D01*
X220442289Y-129580821D01*
X220486010Y-129475269D01*
X220549485Y-129380272D01*
X220630272Y-129299485D01*
X220725267Y-129236011D01*
X220830820Y-129192289D01*
X220886847Y-129181145D01*
X220942874Y-129170000D01*
X221057126Y-129170000D01*
X221113153Y-129181145D01*
X221113153Y-129181145D01*
G37*
G36*
X241863153Y-129181145D02*
G01*
X241919180Y-129192289D01*
X242024733Y-129236011D01*
X242119728Y-129299485D01*
X242200515Y-129380272D01*
X242263990Y-129475269D01*
X242307711Y-129580821D01*
X242329884Y-129692289D01*
X242330000Y-129692875D01*
X242330000Y-129807125D01*
X242307711Y-129919180D01*
X242263989Y-130024733D01*
X242200515Y-130119728D01*
X242119728Y-130200515D01*
X242024733Y-130263989D01*
X241919180Y-130307711D01*
X241863152Y-130318856D01*
X241807126Y-130330000D01*
X241692874Y-130330000D01*
X241636848Y-130318856D01*
X241580820Y-130307711D01*
X241475267Y-130263989D01*
X241380272Y-130200515D01*
X241299485Y-130119728D01*
X241236011Y-130024733D01*
X241192289Y-129919180D01*
X241170000Y-129807125D01*
X241170000Y-129692875D01*
X241170117Y-129692289D01*
X241192289Y-129580821D01*
X241236010Y-129475269D01*
X241299485Y-129380272D01*
X241380272Y-129299485D01*
X241475267Y-129236011D01*
X241580820Y-129192289D01*
X241636847Y-129181145D01*
X241692874Y-129170000D01*
X241807126Y-129170000D01*
X241863153Y-129181145D01*
X241863153Y-129181145D01*
G37*
G36*
X208863153Y-120931145D02*
G01*
X208919180Y-120942289D01*
X209024733Y-120986011D01*
X209119728Y-121049485D01*
X209200515Y-121130272D01*
X209263989Y-121225267D01*
X209307711Y-121330820D01*
X209330000Y-121442875D01*
X209330000Y-121557125D01*
X209307711Y-121669180D01*
X209263989Y-121774733D01*
X209200515Y-121869728D01*
X209119728Y-121950515D01*
X209024733Y-122013989D01*
X208919180Y-122057711D01*
X208863152Y-122068856D01*
X208807126Y-122080000D01*
X208692874Y-122080000D01*
X208636848Y-122068856D01*
X208580820Y-122057711D01*
X208475267Y-122013989D01*
X208380272Y-121950515D01*
X208299485Y-121869728D01*
X208236011Y-121774733D01*
X208192289Y-121669180D01*
X208170000Y-121557125D01*
X208170000Y-121442875D01*
X208192289Y-121330820D01*
X208236011Y-121225267D01*
X208299485Y-121130272D01*
X208380272Y-121049485D01*
X208475267Y-120986011D01*
X208580820Y-120942289D01*
X208636847Y-120931145D01*
X208692874Y-120920000D01*
X208807126Y-120920000D01*
X208863153Y-120931145D01*
X208863153Y-120931145D01*
G37*
G36*
X228113153Y-118181145D02*
G01*
X228169180Y-118192289D01*
X228274733Y-118236011D01*
X228369728Y-118299485D01*
X228450515Y-118380272D01*
X228513989Y-118475267D01*
X228557711Y-118580820D01*
X228580000Y-118692875D01*
X228580000Y-118807125D01*
X228557711Y-118919180D01*
X228513989Y-119024733D01*
X228450515Y-119119728D01*
X228369728Y-119200515D01*
X228274733Y-119263989D01*
X228169180Y-119307711D01*
X228113152Y-119318856D01*
X228057126Y-119330000D01*
X227942874Y-119330000D01*
X227886848Y-119318856D01*
X227830820Y-119307711D01*
X227725267Y-119263989D01*
X227630272Y-119200515D01*
X227549485Y-119119728D01*
X227486011Y-119024733D01*
X227442289Y-118919180D01*
X227420000Y-118807125D01*
X227420000Y-118692875D01*
X227442289Y-118580820D01*
X227486011Y-118475267D01*
X227549485Y-118380272D01*
X227630272Y-118299485D01*
X227725267Y-118236011D01*
X227830820Y-118192289D01*
X227886847Y-118181145D01*
X227942874Y-118170000D01*
X228057126Y-118170000D01*
X228113153Y-118181145D01*
X228113153Y-118181145D01*
G37*
G36*
X236363153Y-118181145D02*
G01*
X236419180Y-118192289D01*
X236524733Y-118236011D01*
X236619728Y-118299485D01*
X236700515Y-118380272D01*
X236763989Y-118475267D01*
X236807711Y-118580820D01*
X236830000Y-118692875D01*
X236830000Y-118807125D01*
X236807711Y-118919180D01*
X236763989Y-119024733D01*
X236700515Y-119119728D01*
X236619728Y-119200515D01*
X236524733Y-119263989D01*
X236419180Y-119307711D01*
X236363152Y-119318856D01*
X236307126Y-119330000D01*
X236192874Y-119330000D01*
X236136848Y-119318856D01*
X236080820Y-119307711D01*
X235975267Y-119263989D01*
X235880272Y-119200515D01*
X235799485Y-119119728D01*
X235736011Y-119024733D01*
X235692289Y-118919180D01*
X235670000Y-118807125D01*
X235670000Y-118692875D01*
X235692289Y-118580820D01*
X235736011Y-118475267D01*
X235799485Y-118380272D01*
X235880272Y-118299485D01*
X235975267Y-118236011D01*
X236080820Y-118192289D01*
X236136847Y-118181145D01*
X236192874Y-118170000D01*
X236307126Y-118170000D01*
X236363153Y-118181145D01*
X236363153Y-118181145D01*
G37*
G36*
X230863152Y-115931144D02*
G01*
X230919180Y-115942289D01*
X231024733Y-115986011D01*
X231119728Y-116049485D01*
X231200515Y-116130272D01*
X231263989Y-116225267D01*
X231307711Y-116330820D01*
X231330000Y-116442875D01*
X231330000Y-116557125D01*
X231307711Y-116669180D01*
X231263989Y-116774733D01*
X231200515Y-116869728D01*
X231119728Y-116950515D01*
X231024733Y-117013989D01*
X230919180Y-117057711D01*
X230863153Y-117068855D01*
X230807126Y-117080000D01*
X230692874Y-117080000D01*
X230636847Y-117068855D01*
X230580820Y-117057711D01*
X230475267Y-117013989D01*
X230380272Y-116950515D01*
X230299485Y-116869728D01*
X230236011Y-116774733D01*
X230192289Y-116669180D01*
X230170000Y-116557125D01*
X230170000Y-116442875D01*
X230192289Y-116330820D01*
X230236011Y-116225267D01*
X230299485Y-116130272D01*
X230380272Y-116049485D01*
X230475267Y-115986011D01*
X230580820Y-115942289D01*
X230636848Y-115931144D01*
X230692874Y-115920000D01*
X230807126Y-115920000D01*
X230863152Y-115931144D01*
X230863152Y-115931144D01*
G37*
G36*
X233613152Y-115931144D02*
G01*
X233669180Y-115942289D01*
X233774733Y-115986011D01*
X233869728Y-116049485D01*
X233950515Y-116130272D01*
X234013989Y-116225267D01*
X234057711Y-116330820D01*
X234080000Y-116442875D01*
X234080000Y-116557125D01*
X234057711Y-116669180D01*
X234013989Y-116774733D01*
X233950515Y-116869728D01*
X233869728Y-116950515D01*
X233774733Y-117013989D01*
X233669180Y-117057711D01*
X233613153Y-117068855D01*
X233557126Y-117080000D01*
X233442874Y-117080000D01*
X233386847Y-117068855D01*
X233330820Y-117057711D01*
X233225267Y-117013989D01*
X233130272Y-116950515D01*
X233049485Y-116869728D01*
X232986011Y-116774733D01*
X232942289Y-116669180D01*
X232920000Y-116557125D01*
X232920000Y-116442875D01*
X232942289Y-116330820D01*
X232986011Y-116225267D01*
X233049485Y-116130272D01*
X233130272Y-116049485D01*
X233225267Y-115986011D01*
X233330820Y-115942289D01*
X233386848Y-115931144D01*
X233442874Y-115920000D01*
X233557126Y-115920000D01*
X233613152Y-115931144D01*
X233613152Y-115931144D01*
G37*
G36*
X236011224Y-109074486D02*
G01*
X236102312Y-109083457D01*
X236277617Y-109136636D01*
X236277620Y-109136637D01*
X236363298Y-109182433D01*
X236439180Y-109222992D01*
X236580791Y-109339209D01*
X236697008Y-109480820D01*
X236737567Y-109556702D01*
X236783363Y-109642380D01*
X236783364Y-109642383D01*
X236836543Y-109817688D01*
X236854499Y-110000000D01*
X236836543Y-110182312D01*
X236783364Y-110357617D01*
X236783363Y-110357620D01*
X236737567Y-110443298D01*
X236697008Y-110519180D01*
X236580791Y-110660791D01*
X236439180Y-110777008D01*
X236363298Y-110817567D01*
X236277620Y-110863363D01*
X236277617Y-110863364D01*
X236102312Y-110916543D01*
X236011224Y-110925514D01*
X235965681Y-110930000D01*
X235874319Y-110930000D01*
X235828776Y-110925514D01*
X235737688Y-110916543D01*
X235562383Y-110863364D01*
X235562380Y-110863363D01*
X235476702Y-110817567D01*
X235400820Y-110777008D01*
X235259209Y-110660791D01*
X235142992Y-110519180D01*
X235102433Y-110443298D01*
X235056637Y-110357620D01*
X235056636Y-110357617D01*
X235003457Y-110182312D01*
X234985501Y-110000000D01*
X235003457Y-109817688D01*
X235056636Y-109642383D01*
X235056637Y-109642380D01*
X235102433Y-109556702D01*
X235142992Y-109480820D01*
X235259209Y-109339209D01*
X235400820Y-109222992D01*
X235476702Y-109182433D01*
X235562380Y-109136637D01*
X235562383Y-109136636D01*
X235737688Y-109083457D01*
X235828776Y-109074486D01*
X235874319Y-109070000D01*
X235965681Y-109070000D01*
X236011224Y-109074486D01*
X236011224Y-109074486D01*
G37*
G36*
X241930000Y-110930000D02*
G01*
X240070000Y-110930000D01*
X240070000Y-109070000D01*
X241930000Y-109070000D01*
X241930000Y-110930000D01*
X241930000Y-110930000D01*
G37*
G36*
X238551224Y-109074486D02*
G01*
X238642312Y-109083457D01*
X238817617Y-109136636D01*
X238817620Y-109136637D01*
X238903298Y-109182433D01*
X238979180Y-109222992D01*
X239120791Y-109339209D01*
X239237008Y-109480820D01*
X239277567Y-109556702D01*
X239323363Y-109642380D01*
X239323364Y-109642383D01*
X239376543Y-109817688D01*
X239394499Y-110000000D01*
X239376543Y-110182312D01*
X239323364Y-110357617D01*
X239323363Y-110357620D01*
X239277567Y-110443298D01*
X239237008Y-110519180D01*
X239120791Y-110660791D01*
X238979180Y-110777008D01*
X238903298Y-110817567D01*
X238817620Y-110863363D01*
X238817617Y-110863364D01*
X238642312Y-110916543D01*
X238551224Y-110925514D01*
X238505681Y-110930000D01*
X238414319Y-110930000D01*
X238368776Y-110925514D01*
X238277688Y-110916543D01*
X238102383Y-110863364D01*
X238102380Y-110863363D01*
X238016702Y-110817567D01*
X237940820Y-110777008D01*
X237799209Y-110660791D01*
X237682992Y-110519180D01*
X237642433Y-110443298D01*
X237596637Y-110357620D01*
X237596636Y-110357617D01*
X237543457Y-110182312D01*
X237525501Y-110000000D01*
X237543457Y-109817688D01*
X237596636Y-109642383D01*
X237596637Y-109642380D01*
X237642433Y-109556702D01*
X237682992Y-109480820D01*
X237799209Y-109339209D01*
X237940820Y-109222992D01*
X238016702Y-109182433D01*
X238102380Y-109136637D01*
X238102383Y-109136636D01*
X238277688Y-109083457D01*
X238368776Y-109074486D01*
X238414319Y-109070000D01*
X238505681Y-109070000D01*
X238551224Y-109074486D01*
X238551224Y-109074486D01*
G37*
G36*
X230931224Y-109074486D02*
G01*
X231022312Y-109083457D01*
X231197617Y-109136636D01*
X231197620Y-109136637D01*
X231283298Y-109182433D01*
X231359180Y-109222992D01*
X231500791Y-109339209D01*
X231617008Y-109480820D01*
X231657567Y-109556702D01*
X231703363Y-109642380D01*
X231703364Y-109642383D01*
X231756543Y-109817688D01*
X231774499Y-110000000D01*
X231756543Y-110182312D01*
X231703364Y-110357617D01*
X231703363Y-110357620D01*
X231657567Y-110443298D01*
X231617008Y-110519180D01*
X231500791Y-110660791D01*
X231359180Y-110777008D01*
X231283298Y-110817567D01*
X231197620Y-110863363D01*
X231197617Y-110863364D01*
X231022312Y-110916543D01*
X230931224Y-110925514D01*
X230885681Y-110930000D01*
X230794319Y-110930000D01*
X230748776Y-110925514D01*
X230657688Y-110916543D01*
X230482383Y-110863364D01*
X230482380Y-110863363D01*
X230396702Y-110817567D01*
X230320820Y-110777008D01*
X230179209Y-110660791D01*
X230062992Y-110519180D01*
X230022433Y-110443298D01*
X229976637Y-110357620D01*
X229976636Y-110357617D01*
X229923457Y-110182312D01*
X229905501Y-110000000D01*
X229923457Y-109817688D01*
X229976636Y-109642383D01*
X229976637Y-109642380D01*
X230022433Y-109556702D01*
X230062992Y-109480820D01*
X230179209Y-109339209D01*
X230320820Y-109222992D01*
X230396702Y-109182433D01*
X230482380Y-109136637D01*
X230482383Y-109136636D01*
X230657688Y-109083457D01*
X230748776Y-109074486D01*
X230794319Y-109070000D01*
X230885681Y-109070000D01*
X230931224Y-109074486D01*
X230931224Y-109074486D01*
G37*
G36*
X233471224Y-109074486D02*
G01*
X233562312Y-109083457D01*
X233737617Y-109136636D01*
X233737620Y-109136637D01*
X233823298Y-109182433D01*
X233899180Y-109222992D01*
X234040791Y-109339209D01*
X234157008Y-109480820D01*
X234197567Y-109556702D01*
X234243363Y-109642380D01*
X234243364Y-109642383D01*
X234296543Y-109817688D01*
X234314499Y-110000000D01*
X234296543Y-110182312D01*
X234243364Y-110357617D01*
X234243363Y-110357620D01*
X234197567Y-110443298D01*
X234157008Y-110519180D01*
X234040791Y-110660791D01*
X233899180Y-110777008D01*
X233823298Y-110817567D01*
X233737620Y-110863363D01*
X233737617Y-110863364D01*
X233562312Y-110916543D01*
X233471224Y-110925514D01*
X233425681Y-110930000D01*
X233334319Y-110930000D01*
X233288776Y-110925514D01*
X233197688Y-110916543D01*
X233022383Y-110863364D01*
X233022380Y-110863363D01*
X232936702Y-110817567D01*
X232860820Y-110777008D01*
X232719209Y-110660791D01*
X232602992Y-110519180D01*
X232562433Y-110443298D01*
X232516637Y-110357620D01*
X232516636Y-110357617D01*
X232463457Y-110182312D01*
X232445501Y-110000000D01*
X232463457Y-109817688D01*
X232516636Y-109642383D01*
X232516637Y-109642380D01*
X232562433Y-109556702D01*
X232602992Y-109480820D01*
X232719209Y-109339209D01*
X232860820Y-109222992D01*
X232936702Y-109182433D01*
X233022380Y-109136637D01*
X233022383Y-109136636D01*
X233197688Y-109083457D01*
X233288776Y-109074486D01*
X233334319Y-109070000D01*
X233425681Y-109070000D01*
X233471224Y-109074486D01*
X233471224Y-109074486D01*
G37*
G36*
X228391224Y-109074486D02*
G01*
X228482312Y-109083457D01*
X228657617Y-109136636D01*
X228657620Y-109136637D01*
X228743298Y-109182433D01*
X228819180Y-109222992D01*
X228960791Y-109339209D01*
X229077008Y-109480820D01*
X229117567Y-109556702D01*
X229163363Y-109642380D01*
X229163364Y-109642383D01*
X229216543Y-109817688D01*
X229234499Y-110000000D01*
X229216543Y-110182312D01*
X229163364Y-110357617D01*
X229163363Y-110357620D01*
X229117567Y-110443298D01*
X229077008Y-110519180D01*
X228960791Y-110660791D01*
X228819180Y-110777008D01*
X228743298Y-110817567D01*
X228657620Y-110863363D01*
X228657617Y-110863364D01*
X228482312Y-110916543D01*
X228391224Y-110925514D01*
X228345681Y-110930000D01*
X228254319Y-110930000D01*
X228208776Y-110925514D01*
X228117688Y-110916543D01*
X227942383Y-110863364D01*
X227942380Y-110863363D01*
X227856702Y-110817567D01*
X227780820Y-110777008D01*
X227639209Y-110660791D01*
X227522992Y-110519180D01*
X227482433Y-110443298D01*
X227436637Y-110357620D01*
X227436636Y-110357617D01*
X227383457Y-110182312D01*
X227365501Y-110000000D01*
X227383457Y-109817688D01*
X227436636Y-109642383D01*
X227436637Y-109642380D01*
X227482433Y-109556702D01*
X227522992Y-109480820D01*
X227639209Y-109339209D01*
X227780820Y-109222992D01*
X227856702Y-109182433D01*
X227942380Y-109136637D01*
X227942383Y-109136636D01*
X228117688Y-109083457D01*
X228208776Y-109074486D01*
X228254319Y-109070000D01*
X228345681Y-109070000D01*
X228391224Y-109074486D01*
X228391224Y-109074486D01*
G37*
G36*
X225851224Y-109074486D02*
G01*
X225942312Y-109083457D01*
X226117617Y-109136636D01*
X226117620Y-109136637D01*
X226203298Y-109182433D01*
X226279180Y-109222992D01*
X226420791Y-109339209D01*
X226537008Y-109480820D01*
X226577567Y-109556702D01*
X226623363Y-109642380D01*
X226623364Y-109642383D01*
X226676543Y-109817688D01*
X226694499Y-110000000D01*
X226676543Y-110182312D01*
X226623364Y-110357617D01*
X226623363Y-110357620D01*
X226577567Y-110443298D01*
X226537008Y-110519180D01*
X226420791Y-110660791D01*
X226279180Y-110777008D01*
X226203298Y-110817567D01*
X226117620Y-110863363D01*
X226117617Y-110863364D01*
X225942312Y-110916543D01*
X225851224Y-110925514D01*
X225805681Y-110930000D01*
X225714319Y-110930000D01*
X225668776Y-110925514D01*
X225577688Y-110916543D01*
X225402383Y-110863364D01*
X225402380Y-110863363D01*
X225316702Y-110817567D01*
X225240820Y-110777008D01*
X225099209Y-110660791D01*
X224982992Y-110519180D01*
X224942433Y-110443298D01*
X224896637Y-110357620D01*
X224896636Y-110357617D01*
X224843457Y-110182312D01*
X224825501Y-110000000D01*
X224843457Y-109817688D01*
X224896636Y-109642383D01*
X224896637Y-109642380D01*
X224942433Y-109556702D01*
X224982992Y-109480820D01*
X225099209Y-109339209D01*
X225240820Y-109222992D01*
X225316702Y-109182433D01*
X225402380Y-109136637D01*
X225402383Y-109136636D01*
X225577688Y-109083457D01*
X225668776Y-109074486D01*
X225714319Y-109070000D01*
X225805681Y-109070000D01*
X225851224Y-109074486D01*
X225851224Y-109074486D01*
G37*
G36*
X223311224Y-109074486D02*
G01*
X223402312Y-109083457D01*
X223577617Y-109136636D01*
X223577620Y-109136637D01*
X223663298Y-109182433D01*
X223739180Y-109222992D01*
X223880791Y-109339209D01*
X223997008Y-109480820D01*
X224037567Y-109556702D01*
X224083363Y-109642380D01*
X224083364Y-109642383D01*
X224136543Y-109817688D01*
X224154499Y-110000000D01*
X224136543Y-110182312D01*
X224083364Y-110357617D01*
X224083363Y-110357620D01*
X224037567Y-110443298D01*
X223997008Y-110519180D01*
X223880791Y-110660791D01*
X223739180Y-110777008D01*
X223663298Y-110817567D01*
X223577620Y-110863363D01*
X223577617Y-110863364D01*
X223402312Y-110916543D01*
X223311224Y-110925514D01*
X223265681Y-110930000D01*
X223174319Y-110930000D01*
X223128776Y-110925514D01*
X223037688Y-110916543D01*
X222862383Y-110863364D01*
X222862380Y-110863363D01*
X222776702Y-110817567D01*
X222700820Y-110777008D01*
X222559209Y-110660791D01*
X222442992Y-110519180D01*
X222402433Y-110443298D01*
X222356637Y-110357620D01*
X222356636Y-110357617D01*
X222303457Y-110182312D01*
X222285501Y-110000000D01*
X222303457Y-109817688D01*
X222356636Y-109642383D01*
X222356637Y-109642380D01*
X222402433Y-109556702D01*
X222442992Y-109480820D01*
X222559209Y-109339209D01*
X222700820Y-109222992D01*
X222776702Y-109182433D01*
X222862380Y-109136637D01*
X222862383Y-109136636D01*
X223037688Y-109083457D01*
X223128776Y-109074486D01*
X223174319Y-109070000D01*
X223265681Y-109070000D01*
X223311224Y-109074486D01*
X223311224Y-109074486D01*
G37*
M02*
