M48
; DRILL file {KiCad 5.1.4} date Wed 06 Nov 2019 09:16:41 PM EST
; FORMAT={-:-/ absolute / metric / decimal}
; #@! TF.CreationDate,2019-11-06T21:16:41-05:00
; #@! TF.GenerationSoftware,Kicad,Pcbnew,5.1.4
; #@! TF.FileFunction,Plated,1,2,PTH
FMAT,2
METRIC
T1C0.300
T2C0.500
T3C1.000
T4C1.600
%
G90
G05
T1
X211.5Y-193.25
X213.5Y-198.0
X219.974Y-196.286
X226.5Y-177.0
X227.0Y-175.0
X227.75Y-153.5
X228.0Y-155.5
X228.0Y-193.75
X229.75Y-194.25
X231.25Y-158.5
X231.5Y-177.5
X231.75Y-161.0
X232.25Y-173.25
X232.75Y-153.25
X233.0Y-171.5
X236.0Y-175.75
X236.5Y-178.0
X237.0Y-154.5
X238.0Y-153.0
X248.0Y-194.5
X248.75Y-208.75
X253.977Y-168.315
X255.75Y-160.5
X255.75Y-163.5
X260.5Y-162.5
X263.75Y-206.75
X266.5Y-161.75
X274.5Y-162.0
X274.75Y-206.75
X278.75Y-161.5
X287.5Y-162.0
X287.75Y-206.75
T2
X217.75Y-191.0
X218.5Y-163.0
X269.5Y-166.0
X287.0Y-197.5
X244.25Y-163.5
X244.25Y-167.0
X211.0Y-153.0
X244.25Y-170.75
X218.5Y-160.5
X226.0Y-187.75
X244.25Y-160.0
X252.0Y-197.5
X218.5Y-165.5
X220.0Y-147.0
X220.0Y-153.0
X211.5Y-205.5
X230.5Y-205.5
X218.5Y-168.0
X250.75Y-160.25
X269.5Y-168.5
X263.0Y-197.5
X217.0Y-147.0
X217.0Y-153.0
X226.0Y-190.5
X253.25Y-157.5
X211.0Y-147.0
X214.0Y-147.0
X274.0Y-197.5
X214.0Y-153.0
T3
X230.46Y-210.0
X233.0Y-210.0
X287.46Y-150.0
X290.0Y-150.0
X290.0Y-166.0
X290.0Y-168.54
X290.0Y-171.08
X290.0Y-173.62
X290.0Y-176.16
X290.0Y-178.7
X290.0Y-181.24
X290.0Y-183.78
X290.0Y-186.32
X274.46Y-150.0
X277.0Y-150.0
X279.54Y-150.0
X211.46Y-210.0
X214.0Y-210.0
X210.0Y-157.84
X210.0Y-160.38
X210.0Y-162.92
X210.0Y-165.46
X210.0Y-168.0
T4
X215.5Y-176.5
T0
M30
