G04 #@! TF.GenerationSoftware,KiCad,Pcbnew,5.1.4*
G04 #@! TF.CreationDate,2019-11-06T21:16:27-05:00*
G04 #@! TF.ProjectId,device-config-demo,64657669-6365-42d6-936f-6e6669672d64,rev?*
G04 #@! TF.SameCoordinates,Original*
G04 #@! TF.FileFunction,Copper,L2,Bot*
G04 #@! TF.FilePolarity,Positive*
%FSLAX46Y46*%
G04 Gerber Fmt 4.6, Leading zero omitted, Abs format (unit mm)*
G04 Created by KiCad (PCBNEW 5.1.4) date 2019-11-06 21:16:27*
%MOMM*%
%LPD*%
G04 APERTURE LIST*
%ADD10R,1.700000X1.700000*%
%ADD11O,1.700000X1.700000*%
%ADD12C,2.800000*%
%ADD13C,1.000000*%
%ADD14C,0.700000*%
%ADD15C,0.450000*%
%ADD16C,0.250000*%
G04 APERTURE END LIST*
D10*
X274460000Y-150000000D03*
D11*
X277000000Y-150000000D03*
X279540000Y-150000000D03*
D10*
X290000000Y-166000000D03*
D11*
X290000000Y-168540000D03*
X290000000Y-171080000D03*
X290000000Y-173620000D03*
X290000000Y-176160000D03*
X290000000Y-178700000D03*
X290000000Y-181240000D03*
X290000000Y-183780000D03*
X290000000Y-186320000D03*
D10*
X287460000Y-150000000D03*
D11*
X290000000Y-150000000D03*
X214000000Y-210000000D03*
D10*
X211460000Y-210000000D03*
X210000000Y-168000000D03*
D11*
X210000000Y-165460000D03*
X210000000Y-162920000D03*
X210000000Y-160380000D03*
X210000000Y-157840000D03*
D10*
X230460000Y-210000000D03*
D11*
X233000000Y-210000000D03*
D12*
X215500000Y-176500000D03*
D13*
X244250000Y-170750000D03*
X218500000Y-168000000D03*
X244250000Y-167000000D03*
X218500000Y-165500000D03*
X211500000Y-205500000D03*
X226000000Y-187750000D03*
X217750000Y-191000000D03*
X269500000Y-168500000D03*
X269500000Y-166000000D03*
X253250000Y-157500000D03*
X250750000Y-160250000D03*
X244250000Y-163500000D03*
X218500000Y-163000000D03*
X226000000Y-190500000D03*
X230500000Y-205500000D03*
X244250000Y-160000000D03*
X218500000Y-160500000D03*
X274000000Y-197500000D03*
X263000000Y-197500000D03*
X252000000Y-197500000D03*
X287000000Y-197500000D03*
X211000000Y-147000000D03*
X214000000Y-147000000D03*
X217000000Y-147000000D03*
X220000000Y-147000000D03*
X211000000Y-153000000D03*
X214000000Y-153000000D03*
X217000000Y-153000000D03*
X220000000Y-153000000D03*
D14*
X233000000Y-171500000D03*
X248750000Y-208750000D03*
X263750000Y-206750000D03*
X274750000Y-206750000D03*
X287750000Y-206750000D03*
X213500000Y-198000000D03*
X219973705Y-196286409D03*
X229750000Y-194250000D03*
X226500000Y-177000000D03*
X236500000Y-178000000D03*
X232250000Y-173250000D03*
X227750000Y-153500000D03*
X231250000Y-158500000D03*
X231500000Y-177500000D03*
X232750000Y-153250000D03*
X253976916Y-168314833D03*
X255750000Y-160500000D03*
X287500000Y-162000000D03*
X274500000Y-162000000D03*
X238000000Y-153000000D03*
X278750000Y-161500000D03*
X231750000Y-161000000D03*
X211500000Y-193250000D03*
X248000000Y-194500000D03*
X228000000Y-193750000D03*
X227000000Y-175000000D03*
X236000000Y-175750000D03*
X228000000Y-155500000D03*
X237000000Y-154500000D03*
X255750000Y-163500000D03*
X260500000Y-162500000D03*
X266500000Y-161750000D03*
D15*
X274460000Y-150000000D02*
X250500000Y-150000000D01*
X233000000Y-167500000D02*
X233000000Y-171500000D01*
X250500000Y-150000000D02*
X233000000Y-167500000D01*
X234750000Y-161000000D02*
X231750000Y-161000000D01*
X276250000Y-146750000D02*
X249000000Y-146750000D01*
X277790000Y-148250000D02*
X277750000Y-148250000D01*
X279540000Y-150000000D02*
X277790000Y-148250000D01*
X277750000Y-148250000D02*
X276250000Y-146750000D01*
X249000000Y-146750000D02*
X234750000Y-161000000D01*
X287460000Y-150000000D02*
X287460000Y-155039002D01*
X287460000Y-155039002D02*
X278499501Y-163999501D01*
X250749002Y-191750000D02*
X249249002Y-193250000D01*
X249249002Y-193250000D02*
X249249002Y-193250998D01*
X249249002Y-193250998D02*
X248000000Y-194500000D01*
X228500000Y-193250000D02*
X228000000Y-193750000D01*
X228750000Y-193250000D02*
X228500000Y-193250000D01*
X228750000Y-193250000D02*
X211500000Y-193250000D01*
X249249002Y-193250000D02*
X228750000Y-193250000D01*
X227000000Y-171500000D02*
X227000000Y-175000000D01*
X227000000Y-164750998D02*
X227000000Y-171500000D01*
X227000499Y-164750499D02*
X227000000Y-164750998D01*
X287460000Y-150000000D02*
X287460000Y-149000000D01*
X287460000Y-149000000D02*
X282210000Y-143750000D01*
X282210000Y-143750000D02*
X243750000Y-143750000D01*
X227000499Y-160499501D02*
X227000499Y-164750499D01*
X232000000Y-155500000D02*
X227000499Y-160499501D01*
X232000000Y-155500000D02*
X228000000Y-155500000D01*
X237000000Y-150500000D02*
X237000000Y-154500000D01*
X237000000Y-150500000D02*
X232000000Y-155500000D01*
X243750000Y-143750000D02*
X237000000Y-150500000D01*
X256249501Y-163999501D02*
X255750000Y-163500000D01*
X278499501Y-163999501D02*
X250749002Y-191750000D01*
X260849999Y-162849999D02*
X261999501Y-163999501D01*
X260500000Y-162500000D02*
X260849999Y-162849999D01*
X261999501Y-163999501D02*
X256249501Y-163999501D01*
X266850997Y-162099999D02*
X268750499Y-163999501D01*
X266849999Y-162099999D02*
X266850997Y-162099999D01*
X278499501Y-163999501D02*
X268750499Y-163999501D01*
X266500000Y-161750000D02*
X266849999Y-162099999D01*
X268750499Y-163999501D02*
X261999501Y-163999501D01*
X227000000Y-173250000D02*
X227000000Y-169750000D01*
X236000000Y-175750000D02*
X229500000Y-175750000D01*
X229500000Y-175750000D02*
X227000000Y-173250000D01*
D16*
G36*
X298875000Y-218875000D02*
G01*
X201125000Y-218875000D01*
X201125000Y-209150000D01*
X210233186Y-209150000D01*
X210233186Y-210850000D01*
X210240426Y-210923513D01*
X210261869Y-210994200D01*
X210296691Y-211059347D01*
X210343552Y-211116448D01*
X210400653Y-211163309D01*
X210465800Y-211198131D01*
X210536487Y-211219574D01*
X210610000Y-211226814D01*
X212310000Y-211226814D01*
X212383513Y-211219574D01*
X212454200Y-211198131D01*
X212519347Y-211163309D01*
X212576448Y-211116448D01*
X212623309Y-211059347D01*
X212658131Y-210994200D01*
X212679574Y-210923513D01*
X212686814Y-210850000D01*
X212686814Y-210314094D01*
X212815945Y-210314094D01*
X212899973Y-210539056D01*
X213026274Y-210743303D01*
X213189995Y-210918985D01*
X213384844Y-211059351D01*
X213603333Y-211159007D01*
X213685907Y-211184049D01*
X213875000Y-211124323D01*
X213875000Y-210125000D01*
X214125000Y-210125000D01*
X214125000Y-211124323D01*
X214314093Y-211184049D01*
X214396667Y-211159007D01*
X214615156Y-211059351D01*
X214810005Y-210918985D01*
X214973726Y-210743303D01*
X215100027Y-210539056D01*
X215184055Y-210314094D01*
X215124862Y-210125000D01*
X214125000Y-210125000D01*
X213875000Y-210125000D01*
X212875138Y-210125000D01*
X212815945Y-210314094D01*
X212686814Y-210314094D01*
X212686814Y-209685906D01*
X212815945Y-209685906D01*
X212875138Y-209875000D01*
X213875000Y-209875000D01*
X213875000Y-208875677D01*
X214125000Y-208875677D01*
X214125000Y-209875000D01*
X215124862Y-209875000D01*
X215184055Y-209685906D01*
X215100027Y-209460944D01*
X214973726Y-209256697D01*
X214874294Y-209150000D01*
X229233186Y-209150000D01*
X229233186Y-210850000D01*
X229240426Y-210923513D01*
X229261869Y-210994200D01*
X229296691Y-211059347D01*
X229343552Y-211116448D01*
X229400653Y-211163309D01*
X229465800Y-211198131D01*
X229536487Y-211219574D01*
X229610000Y-211226814D01*
X231310000Y-211226814D01*
X231383513Y-211219574D01*
X231454200Y-211198131D01*
X231519347Y-211163309D01*
X231576448Y-211116448D01*
X231623309Y-211059347D01*
X231658131Y-210994200D01*
X231679574Y-210923513D01*
X231686814Y-210850000D01*
X231686814Y-210314094D01*
X231815945Y-210314094D01*
X231899973Y-210539056D01*
X232026274Y-210743303D01*
X232189995Y-210918985D01*
X232384844Y-211059351D01*
X232603333Y-211159007D01*
X232685907Y-211184049D01*
X232875000Y-211124323D01*
X232875000Y-210125000D01*
X233125000Y-210125000D01*
X233125000Y-211124323D01*
X233314093Y-211184049D01*
X233396667Y-211159007D01*
X233615156Y-211059351D01*
X233810005Y-210918985D01*
X233973726Y-210743303D01*
X234100027Y-210539056D01*
X234184055Y-210314094D01*
X234124862Y-210125000D01*
X233125000Y-210125000D01*
X232875000Y-210125000D01*
X231875138Y-210125000D01*
X231815945Y-210314094D01*
X231686814Y-210314094D01*
X231686814Y-209685906D01*
X231815945Y-209685906D01*
X231875138Y-209875000D01*
X232875000Y-209875000D01*
X232875000Y-208875677D01*
X233125000Y-208875677D01*
X233125000Y-209875000D01*
X234124862Y-209875000D01*
X234184055Y-209685906D01*
X234100027Y-209460944D01*
X233973726Y-209256697D01*
X233810005Y-209081015D01*
X233615156Y-208940649D01*
X233396667Y-208840993D01*
X233314093Y-208815951D01*
X233125000Y-208875677D01*
X232875000Y-208875677D01*
X232685907Y-208815951D01*
X232603333Y-208840993D01*
X232384844Y-208940649D01*
X232189995Y-209081015D01*
X232026274Y-209256697D01*
X231899973Y-209460944D01*
X231815945Y-209685906D01*
X231686814Y-209685906D01*
X231686814Y-209150000D01*
X231679574Y-209076487D01*
X231658131Y-209005800D01*
X231623309Y-208940653D01*
X231576448Y-208883552D01*
X231519347Y-208836691D01*
X231454200Y-208801869D01*
X231383513Y-208780426D01*
X231310000Y-208773186D01*
X229610000Y-208773186D01*
X229536487Y-208780426D01*
X229465800Y-208801869D01*
X229400653Y-208836691D01*
X229343552Y-208883552D01*
X229296691Y-208940653D01*
X229261869Y-209005800D01*
X229240426Y-209076487D01*
X229233186Y-209150000D01*
X214874294Y-209150000D01*
X214810005Y-209081015D01*
X214615156Y-208940649D01*
X214396667Y-208840993D01*
X214314093Y-208815951D01*
X214125000Y-208875677D01*
X213875000Y-208875677D01*
X213685907Y-208815951D01*
X213603333Y-208840993D01*
X213384844Y-208940649D01*
X213189995Y-209081015D01*
X213026274Y-209256697D01*
X212899973Y-209460944D01*
X212815945Y-209685906D01*
X212686814Y-209685906D01*
X212686814Y-209150000D01*
X212679574Y-209076487D01*
X212658131Y-209005800D01*
X212623309Y-208940653D01*
X212576448Y-208883552D01*
X212519347Y-208836691D01*
X212454200Y-208801869D01*
X212383513Y-208780426D01*
X212310000Y-208773186D01*
X210610000Y-208773186D01*
X210536487Y-208780426D01*
X210465800Y-208801869D01*
X210400653Y-208836691D01*
X210343552Y-208883552D01*
X210296691Y-208940653D01*
X210261869Y-209005800D01*
X210240426Y-209076487D01*
X210233186Y-209150000D01*
X201125000Y-209150000D01*
X201125000Y-205413820D01*
X210625000Y-205413820D01*
X210625000Y-205586180D01*
X210658626Y-205755228D01*
X210724585Y-205914468D01*
X210820343Y-206057780D01*
X210942220Y-206179657D01*
X211085532Y-206275415D01*
X211244772Y-206341374D01*
X211413820Y-206375000D01*
X211586180Y-206375000D01*
X211755228Y-206341374D01*
X211914468Y-206275415D01*
X212057780Y-206179657D01*
X212179657Y-206057780D01*
X212275415Y-205914468D01*
X212341374Y-205755228D01*
X212375000Y-205586180D01*
X212375000Y-205413820D01*
X229625000Y-205413820D01*
X229625000Y-205586180D01*
X229658626Y-205755228D01*
X229724585Y-205914468D01*
X229820343Y-206057780D01*
X229942220Y-206179657D01*
X230085532Y-206275415D01*
X230244772Y-206341374D01*
X230413820Y-206375000D01*
X230586180Y-206375000D01*
X230755228Y-206341374D01*
X230914468Y-206275415D01*
X231057780Y-206179657D01*
X231179657Y-206057780D01*
X231275415Y-205914468D01*
X231341374Y-205755228D01*
X231375000Y-205586180D01*
X231375000Y-205413820D01*
X231341374Y-205244772D01*
X231275415Y-205085532D01*
X231179657Y-204942220D01*
X231057780Y-204820343D01*
X230914468Y-204724585D01*
X230755228Y-204658626D01*
X230586180Y-204625000D01*
X230413820Y-204625000D01*
X230244772Y-204658626D01*
X230085532Y-204724585D01*
X229942220Y-204820343D01*
X229820343Y-204942220D01*
X229724585Y-205085532D01*
X229658626Y-205244772D01*
X229625000Y-205413820D01*
X212375000Y-205413820D01*
X212341374Y-205244772D01*
X212275415Y-205085532D01*
X212179657Y-204942220D01*
X212057780Y-204820343D01*
X211914468Y-204724585D01*
X211755228Y-204658626D01*
X211586180Y-204625000D01*
X211413820Y-204625000D01*
X211244772Y-204658626D01*
X211085532Y-204724585D01*
X210942220Y-204820343D01*
X210820343Y-204942220D01*
X210724585Y-205085532D01*
X210658626Y-205244772D01*
X210625000Y-205413820D01*
X201125000Y-205413820D01*
X201125000Y-197413820D01*
X251125000Y-197413820D01*
X251125000Y-197586180D01*
X251158626Y-197755228D01*
X251224585Y-197914468D01*
X251320343Y-198057780D01*
X251442220Y-198179657D01*
X251585532Y-198275415D01*
X251744772Y-198341374D01*
X251913820Y-198375000D01*
X252086180Y-198375000D01*
X252255228Y-198341374D01*
X252414468Y-198275415D01*
X252557780Y-198179657D01*
X252679657Y-198057780D01*
X252775415Y-197914468D01*
X252841374Y-197755228D01*
X252875000Y-197586180D01*
X252875000Y-197413820D01*
X262125000Y-197413820D01*
X262125000Y-197586180D01*
X262158626Y-197755228D01*
X262224585Y-197914468D01*
X262320343Y-198057780D01*
X262442220Y-198179657D01*
X262585532Y-198275415D01*
X262744772Y-198341374D01*
X262913820Y-198375000D01*
X263086180Y-198375000D01*
X263255228Y-198341374D01*
X263414468Y-198275415D01*
X263557780Y-198179657D01*
X263679657Y-198057780D01*
X263775415Y-197914468D01*
X263841374Y-197755228D01*
X263875000Y-197586180D01*
X263875000Y-197413820D01*
X273125000Y-197413820D01*
X273125000Y-197586180D01*
X273158626Y-197755228D01*
X273224585Y-197914468D01*
X273320343Y-198057780D01*
X273442220Y-198179657D01*
X273585532Y-198275415D01*
X273744772Y-198341374D01*
X273913820Y-198375000D01*
X274086180Y-198375000D01*
X274255228Y-198341374D01*
X274414468Y-198275415D01*
X274557780Y-198179657D01*
X274679657Y-198057780D01*
X274775415Y-197914468D01*
X274841374Y-197755228D01*
X274875000Y-197586180D01*
X274875000Y-197413820D01*
X286125000Y-197413820D01*
X286125000Y-197586180D01*
X286158626Y-197755228D01*
X286224585Y-197914468D01*
X286320343Y-198057780D01*
X286442220Y-198179657D01*
X286585532Y-198275415D01*
X286744772Y-198341374D01*
X286913820Y-198375000D01*
X287086180Y-198375000D01*
X287255228Y-198341374D01*
X287414468Y-198275415D01*
X287557780Y-198179657D01*
X287679657Y-198057780D01*
X287775415Y-197914468D01*
X287841374Y-197755228D01*
X287875000Y-197586180D01*
X287875000Y-197413820D01*
X287841374Y-197244772D01*
X287775415Y-197085532D01*
X287679657Y-196942220D01*
X287557780Y-196820343D01*
X287414468Y-196724585D01*
X287255228Y-196658626D01*
X287086180Y-196625000D01*
X286913820Y-196625000D01*
X286744772Y-196658626D01*
X286585532Y-196724585D01*
X286442220Y-196820343D01*
X286320343Y-196942220D01*
X286224585Y-197085532D01*
X286158626Y-197244772D01*
X286125000Y-197413820D01*
X274875000Y-197413820D01*
X274841374Y-197244772D01*
X274775415Y-197085532D01*
X274679657Y-196942220D01*
X274557780Y-196820343D01*
X274414468Y-196724585D01*
X274255228Y-196658626D01*
X274086180Y-196625000D01*
X273913820Y-196625000D01*
X273744772Y-196658626D01*
X273585532Y-196724585D01*
X273442220Y-196820343D01*
X273320343Y-196942220D01*
X273224585Y-197085532D01*
X273158626Y-197244772D01*
X273125000Y-197413820D01*
X263875000Y-197413820D01*
X263841374Y-197244772D01*
X263775415Y-197085532D01*
X263679657Y-196942220D01*
X263557780Y-196820343D01*
X263414468Y-196724585D01*
X263255228Y-196658626D01*
X263086180Y-196625000D01*
X262913820Y-196625000D01*
X262744772Y-196658626D01*
X262585532Y-196724585D01*
X262442220Y-196820343D01*
X262320343Y-196942220D01*
X262224585Y-197085532D01*
X262158626Y-197244772D01*
X262125000Y-197413820D01*
X252875000Y-197413820D01*
X252841374Y-197244772D01*
X252775415Y-197085532D01*
X252679657Y-196942220D01*
X252557780Y-196820343D01*
X252414468Y-196724585D01*
X252255228Y-196658626D01*
X252086180Y-196625000D01*
X251913820Y-196625000D01*
X251744772Y-196658626D01*
X251585532Y-196724585D01*
X251442220Y-196820343D01*
X251320343Y-196942220D01*
X251224585Y-197085532D01*
X251158626Y-197244772D01*
X251125000Y-197413820D01*
X201125000Y-197413820D01*
X201125000Y-193178594D01*
X210775000Y-193178594D01*
X210775000Y-193321406D01*
X210802861Y-193461475D01*
X210857513Y-193593416D01*
X210936856Y-193712161D01*
X211037839Y-193813144D01*
X211156584Y-193892487D01*
X211288525Y-193947139D01*
X211428594Y-193975000D01*
X211571406Y-193975000D01*
X211711475Y-193947139D01*
X211843416Y-193892487D01*
X211907002Y-193850000D01*
X227280688Y-193850000D01*
X227302861Y-193961475D01*
X227357513Y-194093416D01*
X227436856Y-194212161D01*
X227537839Y-194313144D01*
X227656584Y-194392487D01*
X227788525Y-194447139D01*
X227928594Y-194475000D01*
X228071406Y-194475000D01*
X228211475Y-194447139D01*
X228343416Y-194392487D01*
X228462161Y-194313144D01*
X228563144Y-194212161D01*
X228642487Y-194093416D01*
X228697139Y-193961475D01*
X228712058Y-193886469D01*
X228748528Y-193850000D01*
X247674722Y-193850000D01*
X247656584Y-193857513D01*
X247537839Y-193936856D01*
X247436856Y-194037839D01*
X247357513Y-194156584D01*
X247302861Y-194288525D01*
X247275000Y-194428594D01*
X247275000Y-194571406D01*
X247302861Y-194711475D01*
X247357513Y-194843416D01*
X247436856Y-194962161D01*
X247537839Y-195063144D01*
X247656584Y-195142487D01*
X247788525Y-195197139D01*
X247928594Y-195225000D01*
X248071406Y-195225000D01*
X248211475Y-195197139D01*
X248343416Y-195142487D01*
X248462161Y-195063144D01*
X248563144Y-194962161D01*
X248642487Y-194843416D01*
X248697139Y-194711475D01*
X248712058Y-194636469D01*
X249652421Y-193696107D01*
X249675319Y-193677315D01*
X249698681Y-193648848D01*
X251194107Y-192153424D01*
X251194116Y-192153413D01*
X256713436Y-186634093D01*
X288815951Y-186634093D01*
X288840993Y-186716667D01*
X288940649Y-186935156D01*
X289081015Y-187130005D01*
X289256697Y-187293726D01*
X289460944Y-187420027D01*
X289685906Y-187504055D01*
X289875000Y-187444862D01*
X289875000Y-186445000D01*
X290125000Y-186445000D01*
X290125000Y-187444862D01*
X290314094Y-187504055D01*
X290539056Y-187420027D01*
X290743303Y-187293726D01*
X290918985Y-187130005D01*
X291059351Y-186935156D01*
X291159007Y-186716667D01*
X291184049Y-186634093D01*
X291124323Y-186445000D01*
X290125000Y-186445000D01*
X289875000Y-186445000D01*
X288875677Y-186445000D01*
X288815951Y-186634093D01*
X256713436Y-186634093D01*
X257341622Y-186005907D01*
X288815951Y-186005907D01*
X288875677Y-186195000D01*
X289875000Y-186195000D01*
X289875000Y-185195138D01*
X290125000Y-185195138D01*
X290125000Y-186195000D01*
X291124323Y-186195000D01*
X291184049Y-186005907D01*
X291159007Y-185923333D01*
X291059351Y-185704844D01*
X290918985Y-185509995D01*
X290743303Y-185346274D01*
X290539056Y-185219973D01*
X290314094Y-185135945D01*
X290125000Y-185195138D01*
X289875000Y-185195138D01*
X289685906Y-185135945D01*
X289460944Y-185219973D01*
X289256697Y-185346274D01*
X289081015Y-185509995D01*
X288940649Y-185704844D01*
X288840993Y-185923333D01*
X288815951Y-186005907D01*
X257341622Y-186005907D01*
X259567529Y-183780000D01*
X288769073Y-183780000D01*
X288792725Y-184020142D01*
X288862772Y-184251055D01*
X288976522Y-184463866D01*
X289129603Y-184650397D01*
X289316134Y-184803478D01*
X289528945Y-184917228D01*
X289759858Y-184987275D01*
X289939822Y-185005000D01*
X290060178Y-185005000D01*
X290240142Y-184987275D01*
X290471055Y-184917228D01*
X290683866Y-184803478D01*
X290870397Y-184650397D01*
X291023478Y-184463866D01*
X291137228Y-184251055D01*
X291207275Y-184020142D01*
X291230927Y-183780000D01*
X291207275Y-183539858D01*
X291137228Y-183308945D01*
X291023478Y-183096134D01*
X290870397Y-182909603D01*
X290683866Y-182756522D01*
X290471055Y-182642772D01*
X290240142Y-182572725D01*
X290060178Y-182555000D01*
X289939822Y-182555000D01*
X289759858Y-182572725D01*
X289528945Y-182642772D01*
X289316134Y-182756522D01*
X289129603Y-182909603D01*
X288976522Y-183096134D01*
X288862772Y-183308945D01*
X288792725Y-183539858D01*
X288769073Y-183780000D01*
X259567529Y-183780000D01*
X262107529Y-181240000D01*
X288769073Y-181240000D01*
X288792725Y-181480142D01*
X288862772Y-181711055D01*
X288976522Y-181923866D01*
X289129603Y-182110397D01*
X289316134Y-182263478D01*
X289528945Y-182377228D01*
X289759858Y-182447275D01*
X289939822Y-182465000D01*
X290060178Y-182465000D01*
X290240142Y-182447275D01*
X290471055Y-182377228D01*
X290683866Y-182263478D01*
X290870397Y-182110397D01*
X291023478Y-181923866D01*
X291137228Y-181711055D01*
X291207275Y-181480142D01*
X291230927Y-181240000D01*
X291207275Y-180999858D01*
X291137228Y-180768945D01*
X291023478Y-180556134D01*
X290870397Y-180369603D01*
X290683866Y-180216522D01*
X290471055Y-180102772D01*
X290240142Y-180032725D01*
X290060178Y-180015000D01*
X289939822Y-180015000D01*
X289759858Y-180032725D01*
X289528945Y-180102772D01*
X289316134Y-180216522D01*
X289129603Y-180369603D01*
X288976522Y-180556134D01*
X288862772Y-180768945D01*
X288792725Y-180999858D01*
X288769073Y-181240000D01*
X262107529Y-181240000D01*
X264647529Y-178700000D01*
X288769073Y-178700000D01*
X288792725Y-178940142D01*
X288862772Y-179171055D01*
X288976522Y-179383866D01*
X289129603Y-179570397D01*
X289316134Y-179723478D01*
X289528945Y-179837228D01*
X289759858Y-179907275D01*
X289939822Y-179925000D01*
X290060178Y-179925000D01*
X290240142Y-179907275D01*
X290471055Y-179837228D01*
X290683866Y-179723478D01*
X290870397Y-179570397D01*
X291023478Y-179383866D01*
X291137228Y-179171055D01*
X291207275Y-178940142D01*
X291230927Y-178700000D01*
X291207275Y-178459858D01*
X291137228Y-178228945D01*
X291023478Y-178016134D01*
X290870397Y-177829603D01*
X290683866Y-177676522D01*
X290471055Y-177562772D01*
X290240142Y-177492725D01*
X290060178Y-177475000D01*
X289939822Y-177475000D01*
X289759858Y-177492725D01*
X289528945Y-177562772D01*
X289316134Y-177676522D01*
X289129603Y-177829603D01*
X288976522Y-178016134D01*
X288862772Y-178228945D01*
X288792725Y-178459858D01*
X288769073Y-178700000D01*
X264647529Y-178700000D01*
X267187529Y-176160000D01*
X288769073Y-176160000D01*
X288792725Y-176400142D01*
X288862772Y-176631055D01*
X288976522Y-176843866D01*
X289129603Y-177030397D01*
X289316134Y-177183478D01*
X289528945Y-177297228D01*
X289759858Y-177367275D01*
X289939822Y-177385000D01*
X290060178Y-177385000D01*
X290240142Y-177367275D01*
X290471055Y-177297228D01*
X290683866Y-177183478D01*
X290870397Y-177030397D01*
X291023478Y-176843866D01*
X291137228Y-176631055D01*
X291207275Y-176400142D01*
X291230927Y-176160000D01*
X291207275Y-175919858D01*
X291137228Y-175688945D01*
X291023478Y-175476134D01*
X290870397Y-175289603D01*
X290683866Y-175136522D01*
X290471055Y-175022772D01*
X290240142Y-174952725D01*
X290060178Y-174935000D01*
X289939822Y-174935000D01*
X289759858Y-174952725D01*
X289528945Y-175022772D01*
X289316134Y-175136522D01*
X289129603Y-175289603D01*
X288976522Y-175476134D01*
X288862772Y-175688945D01*
X288792725Y-175919858D01*
X288769073Y-176160000D01*
X267187529Y-176160000D01*
X269727529Y-173620000D01*
X288769073Y-173620000D01*
X288792725Y-173860142D01*
X288862772Y-174091055D01*
X288976522Y-174303866D01*
X289129603Y-174490397D01*
X289316134Y-174643478D01*
X289528945Y-174757228D01*
X289759858Y-174827275D01*
X289939822Y-174845000D01*
X290060178Y-174845000D01*
X290240142Y-174827275D01*
X290471055Y-174757228D01*
X290683866Y-174643478D01*
X290870397Y-174490397D01*
X291023478Y-174303866D01*
X291137228Y-174091055D01*
X291207275Y-173860142D01*
X291230927Y-173620000D01*
X291207275Y-173379858D01*
X291137228Y-173148945D01*
X291023478Y-172936134D01*
X290870397Y-172749603D01*
X290683866Y-172596522D01*
X290471055Y-172482772D01*
X290240142Y-172412725D01*
X290060178Y-172395000D01*
X289939822Y-172395000D01*
X289759858Y-172412725D01*
X289528945Y-172482772D01*
X289316134Y-172596522D01*
X289129603Y-172749603D01*
X288976522Y-172936134D01*
X288862772Y-173148945D01*
X288792725Y-173379858D01*
X288769073Y-173620000D01*
X269727529Y-173620000D01*
X272267529Y-171080000D01*
X288769073Y-171080000D01*
X288792725Y-171320142D01*
X288862772Y-171551055D01*
X288976522Y-171763866D01*
X289129603Y-171950397D01*
X289316134Y-172103478D01*
X289528945Y-172217228D01*
X289759858Y-172287275D01*
X289939822Y-172305000D01*
X290060178Y-172305000D01*
X290240142Y-172287275D01*
X290471055Y-172217228D01*
X290683866Y-172103478D01*
X290870397Y-171950397D01*
X291023478Y-171763866D01*
X291137228Y-171551055D01*
X291207275Y-171320142D01*
X291230927Y-171080000D01*
X291207275Y-170839858D01*
X291137228Y-170608945D01*
X291023478Y-170396134D01*
X290870397Y-170209603D01*
X290683866Y-170056522D01*
X290471055Y-169942772D01*
X290240142Y-169872725D01*
X290060178Y-169855000D01*
X289939822Y-169855000D01*
X289759858Y-169872725D01*
X289528945Y-169942772D01*
X289316134Y-170056522D01*
X289129603Y-170209603D01*
X288976522Y-170396134D01*
X288862772Y-170608945D01*
X288792725Y-170839858D01*
X288769073Y-171080000D01*
X272267529Y-171080000D01*
X274807529Y-168540000D01*
X288769073Y-168540000D01*
X288792725Y-168780142D01*
X288862772Y-169011055D01*
X288976522Y-169223866D01*
X289129603Y-169410397D01*
X289316134Y-169563478D01*
X289528945Y-169677228D01*
X289759858Y-169747275D01*
X289939822Y-169765000D01*
X290060178Y-169765000D01*
X290240142Y-169747275D01*
X290471055Y-169677228D01*
X290683866Y-169563478D01*
X290870397Y-169410397D01*
X291023478Y-169223866D01*
X291137228Y-169011055D01*
X291207275Y-168780142D01*
X291230927Y-168540000D01*
X291207275Y-168299858D01*
X291137228Y-168068945D01*
X291023478Y-167856134D01*
X290870397Y-167669603D01*
X290683866Y-167516522D01*
X290471055Y-167402772D01*
X290240142Y-167332725D01*
X290060178Y-167315000D01*
X289939822Y-167315000D01*
X289759858Y-167332725D01*
X289528945Y-167402772D01*
X289316134Y-167516522D01*
X289129603Y-167669603D01*
X288976522Y-167856134D01*
X288862772Y-168068945D01*
X288792725Y-168299858D01*
X288769073Y-168540000D01*
X274807529Y-168540000D01*
X278197529Y-165150000D01*
X288773186Y-165150000D01*
X288773186Y-166850000D01*
X288780426Y-166923513D01*
X288801869Y-166994200D01*
X288836691Y-167059347D01*
X288883552Y-167116448D01*
X288940653Y-167163309D01*
X289005800Y-167198131D01*
X289076487Y-167219574D01*
X289150000Y-167226814D01*
X290850000Y-167226814D01*
X290923513Y-167219574D01*
X290994200Y-167198131D01*
X291059347Y-167163309D01*
X291116448Y-167116448D01*
X291163309Y-167059347D01*
X291198131Y-166994200D01*
X291219574Y-166923513D01*
X291226814Y-166850000D01*
X291226814Y-165150000D01*
X291219574Y-165076487D01*
X291198131Y-165005800D01*
X291163309Y-164940653D01*
X291116448Y-164883552D01*
X291059347Y-164836691D01*
X290994200Y-164801869D01*
X290923513Y-164780426D01*
X290850000Y-164773186D01*
X289150000Y-164773186D01*
X289076487Y-164780426D01*
X289005800Y-164801869D01*
X288940653Y-164836691D01*
X288883552Y-164883552D01*
X288836691Y-164940653D01*
X288801869Y-165005800D01*
X288780426Y-165076487D01*
X288773186Y-165150000D01*
X278197529Y-165150000D01*
X278902920Y-164444610D01*
X278925818Y-164425818D01*
X278944614Y-164402915D01*
X287863419Y-155484111D01*
X287886317Y-155465319D01*
X287961296Y-155373957D01*
X288017010Y-155269723D01*
X288051318Y-155156623D01*
X288060000Y-155068476D01*
X288062903Y-155039003D01*
X288060000Y-155009529D01*
X288060000Y-151226814D01*
X288310000Y-151226814D01*
X288383513Y-151219574D01*
X288454200Y-151198131D01*
X288519347Y-151163309D01*
X288576448Y-151116448D01*
X288623309Y-151059347D01*
X288658131Y-150994200D01*
X288679574Y-150923513D01*
X288686814Y-150850000D01*
X288686814Y-150314094D01*
X288815945Y-150314094D01*
X288899973Y-150539056D01*
X289026274Y-150743303D01*
X289189995Y-150918985D01*
X289384844Y-151059351D01*
X289603333Y-151159007D01*
X289685907Y-151184049D01*
X289875000Y-151124323D01*
X289875000Y-150125000D01*
X290125000Y-150125000D01*
X290125000Y-151124323D01*
X290314093Y-151184049D01*
X290396667Y-151159007D01*
X290615156Y-151059351D01*
X290810005Y-150918985D01*
X290973726Y-150743303D01*
X291100027Y-150539056D01*
X291184055Y-150314094D01*
X291124862Y-150125000D01*
X290125000Y-150125000D01*
X289875000Y-150125000D01*
X288875138Y-150125000D01*
X288815945Y-150314094D01*
X288686814Y-150314094D01*
X288686814Y-149685906D01*
X288815945Y-149685906D01*
X288875138Y-149875000D01*
X289875000Y-149875000D01*
X289875000Y-148875677D01*
X290125000Y-148875677D01*
X290125000Y-149875000D01*
X291124862Y-149875000D01*
X291184055Y-149685906D01*
X291100027Y-149460944D01*
X290973726Y-149256697D01*
X290810005Y-149081015D01*
X290615156Y-148940649D01*
X290396667Y-148840993D01*
X290314093Y-148815951D01*
X290125000Y-148875677D01*
X289875000Y-148875677D01*
X289685907Y-148815951D01*
X289603333Y-148840993D01*
X289384844Y-148940649D01*
X289189995Y-149081015D01*
X289026274Y-149256697D01*
X288899973Y-149460944D01*
X288815945Y-149685906D01*
X288686814Y-149685906D01*
X288686814Y-149150000D01*
X288679574Y-149076487D01*
X288658131Y-149005800D01*
X288623309Y-148940653D01*
X288576448Y-148883552D01*
X288519347Y-148836691D01*
X288454200Y-148801869D01*
X288383513Y-148780426D01*
X288310000Y-148773186D01*
X288018195Y-148773186D01*
X288017010Y-148769279D01*
X287961296Y-148665045D01*
X287886317Y-148573683D01*
X287863419Y-148554891D01*
X282655113Y-143346586D01*
X282636317Y-143323683D01*
X282544955Y-143248704D01*
X282440721Y-143192990D01*
X282327621Y-143158682D01*
X282239474Y-143150000D01*
X282210000Y-143147097D01*
X282180526Y-143150000D01*
X243779476Y-143150000D01*
X243750000Y-143147097D01*
X243632379Y-143158681D01*
X243519279Y-143192990D01*
X243415045Y-143248704D01*
X243323683Y-143323683D01*
X243304891Y-143346581D01*
X236596586Y-150054887D01*
X236573683Y-150073683D01*
X236554894Y-150096578D01*
X231751473Y-154900000D01*
X228407002Y-154900000D01*
X228343416Y-154857513D01*
X228211475Y-154802861D01*
X228071406Y-154775000D01*
X227928594Y-154775000D01*
X227788525Y-154802861D01*
X227656584Y-154857513D01*
X227537839Y-154936856D01*
X227436856Y-155037839D01*
X227357513Y-155156584D01*
X227302861Y-155288525D01*
X227275000Y-155428594D01*
X227275000Y-155571406D01*
X227302861Y-155711475D01*
X227357513Y-155843416D01*
X227436856Y-155962161D01*
X227537839Y-156063144D01*
X227656584Y-156142487D01*
X227788525Y-156197139D01*
X227928594Y-156225000D01*
X228071406Y-156225000D01*
X228211475Y-156197139D01*
X228343416Y-156142487D01*
X228407002Y-156100000D01*
X230551472Y-156100000D01*
X226597085Y-160054388D01*
X226574182Y-160073184D01*
X226499203Y-160164547D01*
X226443489Y-160268781D01*
X226423044Y-160336180D01*
X226409181Y-160381881D01*
X226397596Y-160499501D01*
X226400499Y-160528975D01*
X226400500Y-164716448D01*
X226397097Y-164750998D01*
X226400000Y-164780472D01*
X226400001Y-169720526D01*
X226400001Y-171470522D01*
X226400000Y-171470527D01*
X226400000Y-173220526D01*
X226397097Y-173250000D01*
X226400000Y-173279473D01*
X226400001Y-173279478D01*
X226400001Y-174592997D01*
X226357513Y-174656584D01*
X226302861Y-174788525D01*
X226275000Y-174928594D01*
X226275000Y-175071406D01*
X226302861Y-175211475D01*
X226357513Y-175343416D01*
X226436856Y-175462161D01*
X226537839Y-175563144D01*
X226656584Y-175642487D01*
X226788525Y-175697139D01*
X226928594Y-175725000D01*
X227071406Y-175725000D01*
X227211475Y-175697139D01*
X227343416Y-175642487D01*
X227462161Y-175563144D01*
X227563144Y-175462161D01*
X227642487Y-175343416D01*
X227697139Y-175211475D01*
X227725000Y-175071406D01*
X227725000Y-174928594D01*
X227698912Y-174797440D01*
X229054891Y-176153419D01*
X229073683Y-176176317D01*
X229165045Y-176251296D01*
X229269279Y-176307010D01*
X229382379Y-176341318D01*
X229500000Y-176352903D01*
X229529474Y-176350000D01*
X235592998Y-176350000D01*
X235656584Y-176392487D01*
X235788525Y-176447139D01*
X235928594Y-176475000D01*
X236071406Y-176475000D01*
X236211475Y-176447139D01*
X236343416Y-176392487D01*
X236462161Y-176313144D01*
X236563144Y-176212161D01*
X236642487Y-176093416D01*
X236697139Y-175961475D01*
X236725000Y-175821406D01*
X236725000Y-175678594D01*
X236697139Y-175538525D01*
X236642487Y-175406584D01*
X236563144Y-175287839D01*
X236462161Y-175186856D01*
X236343416Y-175107513D01*
X236211475Y-175052861D01*
X236071406Y-175025000D01*
X235928594Y-175025000D01*
X235788525Y-175052861D01*
X235656584Y-175107513D01*
X235592998Y-175150000D01*
X229748528Y-175150000D01*
X227600000Y-173001473D01*
X227600000Y-171428594D01*
X232275000Y-171428594D01*
X232275000Y-171571406D01*
X232302861Y-171711475D01*
X232357513Y-171843416D01*
X232436856Y-171962161D01*
X232537839Y-172063144D01*
X232656584Y-172142487D01*
X232788525Y-172197139D01*
X232928594Y-172225000D01*
X233071406Y-172225000D01*
X233211475Y-172197139D01*
X233343416Y-172142487D01*
X233462161Y-172063144D01*
X233563144Y-171962161D01*
X233642487Y-171843416D01*
X233697139Y-171711475D01*
X233725000Y-171571406D01*
X233725000Y-171428594D01*
X233697139Y-171288525D01*
X233642487Y-171156584D01*
X233600000Y-171092998D01*
X233600000Y-170663820D01*
X243375000Y-170663820D01*
X243375000Y-170836180D01*
X243408626Y-171005228D01*
X243474585Y-171164468D01*
X243570343Y-171307780D01*
X243692220Y-171429657D01*
X243835532Y-171525415D01*
X243994772Y-171591374D01*
X244163820Y-171625000D01*
X244336180Y-171625000D01*
X244505228Y-171591374D01*
X244664468Y-171525415D01*
X244807780Y-171429657D01*
X244929657Y-171307780D01*
X245025415Y-171164468D01*
X245091374Y-171005228D01*
X245125000Y-170836180D01*
X245125000Y-170663820D01*
X245091374Y-170494772D01*
X245025415Y-170335532D01*
X244929657Y-170192220D01*
X244807780Y-170070343D01*
X244664468Y-169974585D01*
X244505228Y-169908626D01*
X244336180Y-169875000D01*
X244163820Y-169875000D01*
X243994772Y-169908626D01*
X243835532Y-169974585D01*
X243692220Y-170070343D01*
X243570343Y-170192220D01*
X243474585Y-170335532D01*
X243408626Y-170494772D01*
X243375000Y-170663820D01*
X233600000Y-170663820D01*
X233600000Y-168413820D01*
X268625000Y-168413820D01*
X268625000Y-168586180D01*
X268658626Y-168755228D01*
X268724585Y-168914468D01*
X268820343Y-169057780D01*
X268942220Y-169179657D01*
X269085532Y-169275415D01*
X269244772Y-169341374D01*
X269413820Y-169375000D01*
X269586180Y-169375000D01*
X269755228Y-169341374D01*
X269914468Y-169275415D01*
X270057780Y-169179657D01*
X270179657Y-169057780D01*
X270275415Y-168914468D01*
X270341374Y-168755228D01*
X270375000Y-168586180D01*
X270375000Y-168413820D01*
X270341374Y-168244772D01*
X270275415Y-168085532D01*
X270179657Y-167942220D01*
X270057780Y-167820343D01*
X269914468Y-167724585D01*
X269755228Y-167658626D01*
X269586180Y-167625000D01*
X269413820Y-167625000D01*
X269244772Y-167658626D01*
X269085532Y-167724585D01*
X268942220Y-167820343D01*
X268820343Y-167942220D01*
X268724585Y-168085532D01*
X268658626Y-168244772D01*
X268625000Y-168413820D01*
X233600000Y-168413820D01*
X233600000Y-167748527D01*
X234434707Y-166913820D01*
X243375000Y-166913820D01*
X243375000Y-167086180D01*
X243408626Y-167255228D01*
X243474585Y-167414468D01*
X243570343Y-167557780D01*
X243692220Y-167679657D01*
X243835532Y-167775415D01*
X243994772Y-167841374D01*
X244163820Y-167875000D01*
X244336180Y-167875000D01*
X244505228Y-167841374D01*
X244664468Y-167775415D01*
X244807780Y-167679657D01*
X244929657Y-167557780D01*
X245025415Y-167414468D01*
X245091374Y-167255228D01*
X245125000Y-167086180D01*
X245125000Y-166913820D01*
X245091374Y-166744772D01*
X245025415Y-166585532D01*
X244929657Y-166442220D01*
X244807780Y-166320343D01*
X244664468Y-166224585D01*
X244505228Y-166158626D01*
X244336180Y-166125000D01*
X244163820Y-166125000D01*
X243994772Y-166158626D01*
X243835532Y-166224585D01*
X243692220Y-166320343D01*
X243570343Y-166442220D01*
X243474585Y-166585532D01*
X243408626Y-166744772D01*
X243375000Y-166913820D01*
X234434707Y-166913820D01*
X235434707Y-165913820D01*
X268625000Y-165913820D01*
X268625000Y-166086180D01*
X268658626Y-166255228D01*
X268724585Y-166414468D01*
X268820343Y-166557780D01*
X268942220Y-166679657D01*
X269085532Y-166775415D01*
X269244772Y-166841374D01*
X269413820Y-166875000D01*
X269586180Y-166875000D01*
X269755228Y-166841374D01*
X269914468Y-166775415D01*
X270057780Y-166679657D01*
X270179657Y-166557780D01*
X270275415Y-166414468D01*
X270341374Y-166255228D01*
X270375000Y-166086180D01*
X270375000Y-165913820D01*
X270341374Y-165744772D01*
X270275415Y-165585532D01*
X270179657Y-165442220D01*
X270057780Y-165320343D01*
X269914468Y-165224585D01*
X269755228Y-165158626D01*
X269586180Y-165125000D01*
X269413820Y-165125000D01*
X269244772Y-165158626D01*
X269085532Y-165224585D01*
X268942220Y-165320343D01*
X268820343Y-165442220D01*
X268724585Y-165585532D01*
X268658626Y-165744772D01*
X268625000Y-165913820D01*
X235434707Y-165913820D01*
X237934707Y-163413820D01*
X243375000Y-163413820D01*
X243375000Y-163586180D01*
X243408626Y-163755228D01*
X243474585Y-163914468D01*
X243570343Y-164057780D01*
X243692220Y-164179657D01*
X243835532Y-164275415D01*
X243994772Y-164341374D01*
X244163820Y-164375000D01*
X244336180Y-164375000D01*
X244505228Y-164341374D01*
X244664468Y-164275415D01*
X244807780Y-164179657D01*
X244929657Y-164057780D01*
X245025415Y-163914468D01*
X245091374Y-163755228D01*
X245125000Y-163586180D01*
X245125000Y-163413820D01*
X245091374Y-163244772D01*
X245025415Y-163085532D01*
X244929657Y-162942220D01*
X244807780Y-162820343D01*
X244664468Y-162724585D01*
X244505228Y-162658626D01*
X244336180Y-162625000D01*
X244163820Y-162625000D01*
X243994772Y-162658626D01*
X243835532Y-162724585D01*
X243692220Y-162820343D01*
X243570343Y-162942220D01*
X243474585Y-163085532D01*
X243408626Y-163244772D01*
X243375000Y-163413820D01*
X237934707Y-163413820D01*
X241434707Y-159913820D01*
X243375000Y-159913820D01*
X243375000Y-160086180D01*
X243408626Y-160255228D01*
X243474585Y-160414468D01*
X243570343Y-160557780D01*
X243692220Y-160679657D01*
X243835532Y-160775415D01*
X243994772Y-160841374D01*
X244163820Y-160875000D01*
X244336180Y-160875000D01*
X244505228Y-160841374D01*
X244664468Y-160775415D01*
X244807780Y-160679657D01*
X244929657Y-160557780D01*
X245025415Y-160414468D01*
X245091374Y-160255228D01*
X245109556Y-160163820D01*
X249875000Y-160163820D01*
X249875000Y-160336180D01*
X249908626Y-160505228D01*
X249974585Y-160664468D01*
X250070343Y-160807780D01*
X250192220Y-160929657D01*
X250335532Y-161025415D01*
X250494772Y-161091374D01*
X250663820Y-161125000D01*
X250836180Y-161125000D01*
X251005228Y-161091374D01*
X251164468Y-161025415D01*
X251307780Y-160929657D01*
X251429657Y-160807780D01*
X251525415Y-160664468D01*
X251591374Y-160505228D01*
X251625000Y-160336180D01*
X251625000Y-160163820D01*
X251591374Y-159994772D01*
X251525415Y-159835532D01*
X251429657Y-159692220D01*
X251307780Y-159570343D01*
X251164468Y-159474585D01*
X251005228Y-159408626D01*
X250836180Y-159375000D01*
X250663820Y-159375000D01*
X250494772Y-159408626D01*
X250335532Y-159474585D01*
X250192220Y-159570343D01*
X250070343Y-159692220D01*
X249974585Y-159835532D01*
X249908626Y-159994772D01*
X249875000Y-160163820D01*
X245109556Y-160163820D01*
X245125000Y-160086180D01*
X245125000Y-159913820D01*
X245091374Y-159744772D01*
X245025415Y-159585532D01*
X244929657Y-159442220D01*
X244807780Y-159320343D01*
X244664468Y-159224585D01*
X244505228Y-159158626D01*
X244336180Y-159125000D01*
X244163820Y-159125000D01*
X243994772Y-159158626D01*
X243835532Y-159224585D01*
X243692220Y-159320343D01*
X243570343Y-159442220D01*
X243474585Y-159585532D01*
X243408626Y-159744772D01*
X243375000Y-159913820D01*
X241434707Y-159913820D01*
X243934707Y-157413820D01*
X252375000Y-157413820D01*
X252375000Y-157586180D01*
X252408626Y-157755228D01*
X252474585Y-157914468D01*
X252570343Y-158057780D01*
X252692220Y-158179657D01*
X252835532Y-158275415D01*
X252994772Y-158341374D01*
X253163820Y-158375000D01*
X253336180Y-158375000D01*
X253505228Y-158341374D01*
X253664468Y-158275415D01*
X253807780Y-158179657D01*
X253929657Y-158057780D01*
X254025415Y-157914468D01*
X254091374Y-157755228D01*
X254125000Y-157586180D01*
X254125000Y-157413820D01*
X254091374Y-157244772D01*
X254025415Y-157085532D01*
X253929657Y-156942220D01*
X253807780Y-156820343D01*
X253664468Y-156724585D01*
X253505228Y-156658626D01*
X253336180Y-156625000D01*
X253163820Y-156625000D01*
X252994772Y-156658626D01*
X252835532Y-156724585D01*
X252692220Y-156820343D01*
X252570343Y-156942220D01*
X252474585Y-157085532D01*
X252408626Y-157244772D01*
X252375000Y-157413820D01*
X243934707Y-157413820D01*
X250748529Y-150600000D01*
X273233186Y-150600000D01*
X273233186Y-150850000D01*
X273240426Y-150923513D01*
X273261869Y-150994200D01*
X273296691Y-151059347D01*
X273343552Y-151116448D01*
X273400653Y-151163309D01*
X273465800Y-151198131D01*
X273536487Y-151219574D01*
X273610000Y-151226814D01*
X275310000Y-151226814D01*
X275383513Y-151219574D01*
X275454200Y-151198131D01*
X275519347Y-151163309D01*
X275576448Y-151116448D01*
X275623309Y-151059347D01*
X275658131Y-150994200D01*
X275679574Y-150923513D01*
X275686814Y-150850000D01*
X275686814Y-150314094D01*
X275815945Y-150314094D01*
X275899973Y-150539056D01*
X276026274Y-150743303D01*
X276189995Y-150918985D01*
X276384844Y-151059351D01*
X276603333Y-151159007D01*
X276685907Y-151184049D01*
X276875000Y-151124323D01*
X276875000Y-150125000D01*
X277125000Y-150125000D01*
X277125000Y-151124323D01*
X277314093Y-151184049D01*
X277396667Y-151159007D01*
X277615156Y-151059351D01*
X277810005Y-150918985D01*
X277973726Y-150743303D01*
X278100027Y-150539056D01*
X278184055Y-150314094D01*
X278124862Y-150125000D01*
X277125000Y-150125000D01*
X276875000Y-150125000D01*
X275875138Y-150125000D01*
X275815945Y-150314094D01*
X275686814Y-150314094D01*
X275686814Y-149685906D01*
X275815945Y-149685906D01*
X275875138Y-149875000D01*
X276875000Y-149875000D01*
X276875000Y-148875677D01*
X276685907Y-148815951D01*
X276603333Y-148840993D01*
X276384844Y-148940649D01*
X276189995Y-149081015D01*
X276026274Y-149256697D01*
X275899973Y-149460944D01*
X275815945Y-149685906D01*
X275686814Y-149685906D01*
X275686814Y-149150000D01*
X275679574Y-149076487D01*
X275658131Y-149005800D01*
X275623309Y-148940653D01*
X275576448Y-148883552D01*
X275519347Y-148836691D01*
X275454200Y-148801869D01*
X275383513Y-148780426D01*
X275310000Y-148773186D01*
X273610000Y-148773186D01*
X273536487Y-148780426D01*
X273465800Y-148801869D01*
X273400653Y-148836691D01*
X273343552Y-148883552D01*
X273296691Y-148940653D01*
X273261869Y-149005800D01*
X273240426Y-149076487D01*
X273233186Y-149150000D01*
X273233186Y-149400000D01*
X250529473Y-149400000D01*
X250499999Y-149397097D01*
X250382378Y-149408682D01*
X250348070Y-149419089D01*
X250269279Y-149442990D01*
X250165045Y-149498704D01*
X250073683Y-149573683D01*
X250054896Y-149596575D01*
X232596586Y-167054887D01*
X232573683Y-167073683D01*
X232498704Y-167165046D01*
X232442990Y-167269280D01*
X232408682Y-167382379D01*
X232408682Y-167382380D01*
X232397097Y-167500000D01*
X232400000Y-167529474D01*
X232400001Y-171092996D01*
X232357513Y-171156584D01*
X232302861Y-171288525D01*
X232275000Y-171428594D01*
X227600000Y-171428594D01*
X227600000Y-164785039D01*
X227600499Y-164779973D01*
X227603402Y-164750499D01*
X227600499Y-164721025D01*
X227600499Y-160928594D01*
X231025000Y-160928594D01*
X231025000Y-161071406D01*
X231052861Y-161211475D01*
X231107513Y-161343416D01*
X231186856Y-161462161D01*
X231287839Y-161563144D01*
X231406584Y-161642487D01*
X231538525Y-161697139D01*
X231678594Y-161725000D01*
X231821406Y-161725000D01*
X231961475Y-161697139D01*
X232093416Y-161642487D01*
X232157002Y-161600000D01*
X234720526Y-161600000D01*
X234750000Y-161602903D01*
X234779474Y-161600000D01*
X234867621Y-161591318D01*
X234980721Y-161557010D01*
X235084955Y-161501296D01*
X235176317Y-161426317D01*
X235195113Y-161403414D01*
X249248528Y-147350000D01*
X276001473Y-147350000D01*
X277304896Y-148653425D01*
X277323683Y-148676317D01*
X277415045Y-148751296D01*
X277474603Y-148783131D01*
X277675831Y-148984358D01*
X277615156Y-148940649D01*
X277396667Y-148840993D01*
X277314093Y-148815951D01*
X277125000Y-148875677D01*
X277125000Y-149875000D01*
X278124862Y-149875000D01*
X278184055Y-149685906D01*
X278100027Y-149460944D01*
X278015137Y-149323664D01*
X278360330Y-149668857D01*
X278332725Y-149759858D01*
X278309073Y-150000000D01*
X278332725Y-150240142D01*
X278402772Y-150471055D01*
X278516522Y-150683866D01*
X278669603Y-150870397D01*
X278856134Y-151023478D01*
X279068945Y-151137228D01*
X279299858Y-151207275D01*
X279479822Y-151225000D01*
X279600178Y-151225000D01*
X279780142Y-151207275D01*
X280011055Y-151137228D01*
X280223866Y-151023478D01*
X280410397Y-150870397D01*
X280563478Y-150683866D01*
X280677228Y-150471055D01*
X280747275Y-150240142D01*
X280770927Y-150000000D01*
X280747275Y-149759858D01*
X280677228Y-149528945D01*
X280563478Y-149316134D01*
X280410397Y-149129603D01*
X280223866Y-148976522D01*
X280011055Y-148862772D01*
X279780142Y-148792725D01*
X279600178Y-148775000D01*
X279479822Y-148775000D01*
X279299858Y-148792725D01*
X279208857Y-148820330D01*
X278235113Y-147846586D01*
X278216317Y-147823683D01*
X278124955Y-147748704D01*
X278065400Y-147716872D01*
X276695113Y-146346586D01*
X276676317Y-146323683D01*
X276584955Y-146248704D01*
X276480721Y-146192990D01*
X276367621Y-146158682D01*
X276279474Y-146150000D01*
X276250000Y-146147097D01*
X276220526Y-146150000D01*
X249029473Y-146150000D01*
X248999999Y-146147097D01*
X248882378Y-146158682D01*
X248848070Y-146169089D01*
X248769279Y-146192990D01*
X248665045Y-146248704D01*
X248573683Y-146323683D01*
X248554891Y-146346581D01*
X234501473Y-160400000D01*
X232157002Y-160400000D01*
X232093416Y-160357513D01*
X231961475Y-160302861D01*
X231821406Y-160275000D01*
X231678594Y-160275000D01*
X231538525Y-160302861D01*
X231406584Y-160357513D01*
X231287839Y-160436856D01*
X231186856Y-160537839D01*
X231107513Y-160656584D01*
X231052861Y-160788525D01*
X231025000Y-160928594D01*
X227600499Y-160928594D01*
X227600499Y-160748028D01*
X232403419Y-155945109D01*
X232426317Y-155926317D01*
X232445113Y-155903414D01*
X236400000Y-151948527D01*
X236400001Y-154092996D01*
X236357513Y-154156584D01*
X236302861Y-154288525D01*
X236275000Y-154428594D01*
X236275000Y-154571406D01*
X236302861Y-154711475D01*
X236357513Y-154843416D01*
X236436856Y-154962161D01*
X236537839Y-155063144D01*
X236656584Y-155142487D01*
X236788525Y-155197139D01*
X236928594Y-155225000D01*
X237071406Y-155225000D01*
X237211475Y-155197139D01*
X237343416Y-155142487D01*
X237462161Y-155063144D01*
X237563144Y-154962161D01*
X237642487Y-154843416D01*
X237697139Y-154711475D01*
X237725000Y-154571406D01*
X237725000Y-154428594D01*
X237697139Y-154288525D01*
X237642487Y-154156584D01*
X237600000Y-154092998D01*
X237600000Y-150748527D01*
X243998528Y-144350000D01*
X281961473Y-144350000D01*
X286431614Y-148820142D01*
X286400653Y-148836691D01*
X286343552Y-148883552D01*
X286296691Y-148940653D01*
X286261869Y-149005800D01*
X286240426Y-149076487D01*
X286233186Y-149150000D01*
X286233186Y-150850000D01*
X286240426Y-150923513D01*
X286261869Y-150994200D01*
X286296691Y-151059347D01*
X286343552Y-151116448D01*
X286400653Y-151163309D01*
X286465800Y-151198131D01*
X286536487Y-151219574D01*
X286610000Y-151226814D01*
X286860000Y-151226814D01*
X286860001Y-154790473D01*
X278250974Y-163399501D01*
X268999027Y-163399501D01*
X267296110Y-161696585D01*
X267277314Y-161673682D01*
X267248850Y-161650322D01*
X267212058Y-161613530D01*
X267197139Y-161538525D01*
X267142487Y-161406584D01*
X267063144Y-161287839D01*
X266962161Y-161186856D01*
X266843416Y-161107513D01*
X266711475Y-161052861D01*
X266571406Y-161025000D01*
X266428594Y-161025000D01*
X266288525Y-161052861D01*
X266156584Y-161107513D01*
X266037839Y-161186856D01*
X265936856Y-161287839D01*
X265857513Y-161406584D01*
X265802861Y-161538525D01*
X265775000Y-161678594D01*
X265775000Y-161821406D01*
X265802861Y-161961475D01*
X265857513Y-162093416D01*
X265936856Y-162212161D01*
X266037839Y-162313144D01*
X266156584Y-162392487D01*
X266288525Y-162447139D01*
X266363530Y-162462058D01*
X266404890Y-162503418D01*
X266423682Y-162526316D01*
X266452151Y-162549680D01*
X267301972Y-163399501D01*
X262248030Y-163399501D01*
X261295108Y-162446581D01*
X261295104Y-162446576D01*
X261212058Y-162363530D01*
X261197139Y-162288525D01*
X261142487Y-162156584D01*
X261063144Y-162037839D01*
X260962161Y-161936856D01*
X260843416Y-161857513D01*
X260711475Y-161802861D01*
X260571406Y-161775000D01*
X260428594Y-161775000D01*
X260288525Y-161802861D01*
X260156584Y-161857513D01*
X260037839Y-161936856D01*
X259936856Y-162037839D01*
X259857513Y-162156584D01*
X259802861Y-162288525D01*
X259775000Y-162428594D01*
X259775000Y-162571406D01*
X259802861Y-162711475D01*
X259857513Y-162843416D01*
X259936856Y-162962161D01*
X260037839Y-163063144D01*
X260156584Y-163142487D01*
X260288525Y-163197139D01*
X260363530Y-163212058D01*
X260446576Y-163295104D01*
X260446581Y-163295108D01*
X260550974Y-163399501D01*
X256498029Y-163399501D01*
X256462058Y-163363531D01*
X256447139Y-163288525D01*
X256392487Y-163156584D01*
X256313144Y-163037839D01*
X256212161Y-162936856D01*
X256093416Y-162857513D01*
X255961475Y-162802861D01*
X255821406Y-162775000D01*
X255678594Y-162775000D01*
X255538525Y-162802861D01*
X255406584Y-162857513D01*
X255287839Y-162936856D01*
X255186856Y-163037839D01*
X255107513Y-163156584D01*
X255052861Y-163288525D01*
X255025000Y-163428594D01*
X255025000Y-163571406D01*
X255052861Y-163711475D01*
X255107513Y-163843416D01*
X255186856Y-163962161D01*
X255287839Y-164063144D01*
X255406584Y-164142487D01*
X255538525Y-164197139D01*
X255613531Y-164212058D01*
X255804392Y-164402920D01*
X255823184Y-164425818D01*
X255914546Y-164500797D01*
X256018780Y-164556511D01*
X256127871Y-164589603D01*
X256131880Y-164590819D01*
X256249500Y-164602404D01*
X256278974Y-164599501D01*
X261970026Y-164599501D01*
X261999500Y-164602404D01*
X262028974Y-164599501D01*
X268721032Y-164599501D01*
X268750498Y-164602403D01*
X268779964Y-164599501D01*
X277050973Y-164599501D01*
X250345589Y-191304886D01*
X250345578Y-191304895D01*
X249000475Y-192650000D01*
X228529474Y-192650000D01*
X228500000Y-192647097D01*
X228470526Y-192650000D01*
X211907002Y-192650000D01*
X211843416Y-192607513D01*
X211711475Y-192552861D01*
X211571406Y-192525000D01*
X211428594Y-192525000D01*
X211288525Y-192552861D01*
X211156584Y-192607513D01*
X211037839Y-192686856D01*
X210936856Y-192787839D01*
X210857513Y-192906584D01*
X210802861Y-193038525D01*
X210775000Y-193178594D01*
X201125000Y-193178594D01*
X201125000Y-190913820D01*
X216875000Y-190913820D01*
X216875000Y-191086180D01*
X216908626Y-191255228D01*
X216974585Y-191414468D01*
X217070343Y-191557780D01*
X217192220Y-191679657D01*
X217335532Y-191775415D01*
X217494772Y-191841374D01*
X217663820Y-191875000D01*
X217836180Y-191875000D01*
X218005228Y-191841374D01*
X218164468Y-191775415D01*
X218307780Y-191679657D01*
X218429657Y-191557780D01*
X218525415Y-191414468D01*
X218591374Y-191255228D01*
X218625000Y-191086180D01*
X218625000Y-190913820D01*
X218591374Y-190744772D01*
X218525415Y-190585532D01*
X218429657Y-190442220D01*
X218401257Y-190413820D01*
X225125000Y-190413820D01*
X225125000Y-190586180D01*
X225158626Y-190755228D01*
X225224585Y-190914468D01*
X225320343Y-191057780D01*
X225442220Y-191179657D01*
X225585532Y-191275415D01*
X225744772Y-191341374D01*
X225913820Y-191375000D01*
X226086180Y-191375000D01*
X226255228Y-191341374D01*
X226414468Y-191275415D01*
X226557780Y-191179657D01*
X226679657Y-191057780D01*
X226775415Y-190914468D01*
X226841374Y-190755228D01*
X226875000Y-190586180D01*
X226875000Y-190413820D01*
X226841374Y-190244772D01*
X226775415Y-190085532D01*
X226679657Y-189942220D01*
X226557780Y-189820343D01*
X226414468Y-189724585D01*
X226255228Y-189658626D01*
X226086180Y-189625000D01*
X225913820Y-189625000D01*
X225744772Y-189658626D01*
X225585532Y-189724585D01*
X225442220Y-189820343D01*
X225320343Y-189942220D01*
X225224585Y-190085532D01*
X225158626Y-190244772D01*
X225125000Y-190413820D01*
X218401257Y-190413820D01*
X218307780Y-190320343D01*
X218164468Y-190224585D01*
X218005228Y-190158626D01*
X217836180Y-190125000D01*
X217663820Y-190125000D01*
X217494772Y-190158626D01*
X217335532Y-190224585D01*
X217192220Y-190320343D01*
X217070343Y-190442220D01*
X216974585Y-190585532D01*
X216908626Y-190744772D01*
X216875000Y-190913820D01*
X201125000Y-190913820D01*
X201125000Y-187663820D01*
X225125000Y-187663820D01*
X225125000Y-187836180D01*
X225158626Y-188005228D01*
X225224585Y-188164468D01*
X225320343Y-188307780D01*
X225442220Y-188429657D01*
X225585532Y-188525415D01*
X225744772Y-188591374D01*
X225913820Y-188625000D01*
X226086180Y-188625000D01*
X226255228Y-188591374D01*
X226414468Y-188525415D01*
X226557780Y-188429657D01*
X226679657Y-188307780D01*
X226775415Y-188164468D01*
X226841374Y-188005228D01*
X226875000Y-187836180D01*
X226875000Y-187663820D01*
X226841374Y-187494772D01*
X226775415Y-187335532D01*
X226679657Y-187192220D01*
X226557780Y-187070343D01*
X226414468Y-186974585D01*
X226255228Y-186908626D01*
X226086180Y-186875000D01*
X225913820Y-186875000D01*
X225744772Y-186908626D01*
X225585532Y-186974585D01*
X225442220Y-187070343D01*
X225320343Y-187192220D01*
X225224585Y-187335532D01*
X225158626Y-187494772D01*
X225125000Y-187663820D01*
X201125000Y-187663820D01*
X201125000Y-177780010D01*
X214396766Y-177780010D01*
X214555339Y-178012878D01*
X214868638Y-178168103D01*
X215206201Y-178259223D01*
X215555053Y-178282737D01*
X215901790Y-178237742D01*
X216233087Y-178125967D01*
X216444661Y-178012878D01*
X216603234Y-177780010D01*
X215500000Y-176676777D01*
X214396766Y-177780010D01*
X201125000Y-177780010D01*
X201125000Y-176555053D01*
X213717263Y-176555053D01*
X213762258Y-176901790D01*
X213874033Y-177233087D01*
X213987122Y-177444661D01*
X214219990Y-177603234D01*
X215323223Y-176500000D01*
X215676777Y-176500000D01*
X216780010Y-177603234D01*
X217012878Y-177444661D01*
X217168103Y-177131362D01*
X217259223Y-176793799D01*
X217282737Y-176444947D01*
X217237742Y-176098210D01*
X217125967Y-175766913D01*
X217012878Y-175555339D01*
X216780010Y-175396766D01*
X215676777Y-176500000D01*
X215323223Y-176500000D01*
X214219990Y-175396766D01*
X213987122Y-175555339D01*
X213831897Y-175868638D01*
X213740777Y-176206201D01*
X213717263Y-176555053D01*
X201125000Y-176555053D01*
X201125000Y-175219990D01*
X214396766Y-175219990D01*
X215500000Y-176323223D01*
X216603234Y-175219990D01*
X216444661Y-174987122D01*
X216131362Y-174831897D01*
X215793799Y-174740777D01*
X215444947Y-174717263D01*
X215098210Y-174762258D01*
X214766913Y-174874033D01*
X214555339Y-174987122D01*
X214396766Y-175219990D01*
X201125000Y-175219990D01*
X201125000Y-167150000D01*
X208773186Y-167150000D01*
X208773186Y-168850000D01*
X208780426Y-168923513D01*
X208801869Y-168994200D01*
X208836691Y-169059347D01*
X208883552Y-169116448D01*
X208940653Y-169163309D01*
X209005800Y-169198131D01*
X209076487Y-169219574D01*
X209150000Y-169226814D01*
X210850000Y-169226814D01*
X210923513Y-169219574D01*
X210994200Y-169198131D01*
X211059347Y-169163309D01*
X211116448Y-169116448D01*
X211163309Y-169059347D01*
X211198131Y-168994200D01*
X211219574Y-168923513D01*
X211226814Y-168850000D01*
X211226814Y-167913820D01*
X217625000Y-167913820D01*
X217625000Y-168086180D01*
X217658626Y-168255228D01*
X217724585Y-168414468D01*
X217820343Y-168557780D01*
X217942220Y-168679657D01*
X218085532Y-168775415D01*
X218244772Y-168841374D01*
X218413820Y-168875000D01*
X218586180Y-168875000D01*
X218755228Y-168841374D01*
X218914468Y-168775415D01*
X219057780Y-168679657D01*
X219179657Y-168557780D01*
X219275415Y-168414468D01*
X219341374Y-168255228D01*
X219375000Y-168086180D01*
X219375000Y-167913820D01*
X219341374Y-167744772D01*
X219275415Y-167585532D01*
X219179657Y-167442220D01*
X219057780Y-167320343D01*
X218914468Y-167224585D01*
X218755228Y-167158626D01*
X218586180Y-167125000D01*
X218413820Y-167125000D01*
X218244772Y-167158626D01*
X218085532Y-167224585D01*
X217942220Y-167320343D01*
X217820343Y-167442220D01*
X217724585Y-167585532D01*
X217658626Y-167744772D01*
X217625000Y-167913820D01*
X211226814Y-167913820D01*
X211226814Y-167150000D01*
X211219574Y-167076487D01*
X211198131Y-167005800D01*
X211163309Y-166940653D01*
X211116448Y-166883552D01*
X211059347Y-166836691D01*
X210994200Y-166801869D01*
X210923513Y-166780426D01*
X210850000Y-166773186D01*
X209150000Y-166773186D01*
X209076487Y-166780426D01*
X209005800Y-166801869D01*
X208940653Y-166836691D01*
X208883552Y-166883552D01*
X208836691Y-166940653D01*
X208801869Y-167005800D01*
X208780426Y-167076487D01*
X208773186Y-167150000D01*
X201125000Y-167150000D01*
X201125000Y-165460000D01*
X208769073Y-165460000D01*
X208792725Y-165700142D01*
X208862772Y-165931055D01*
X208976522Y-166143866D01*
X209129603Y-166330397D01*
X209316134Y-166483478D01*
X209528945Y-166597228D01*
X209759858Y-166667275D01*
X209939822Y-166685000D01*
X210060178Y-166685000D01*
X210240142Y-166667275D01*
X210471055Y-166597228D01*
X210683866Y-166483478D01*
X210870397Y-166330397D01*
X211023478Y-166143866D01*
X211137228Y-165931055D01*
X211207275Y-165700142D01*
X211230927Y-165460000D01*
X211226379Y-165413820D01*
X217625000Y-165413820D01*
X217625000Y-165586180D01*
X217658626Y-165755228D01*
X217724585Y-165914468D01*
X217820343Y-166057780D01*
X217942220Y-166179657D01*
X218085532Y-166275415D01*
X218244772Y-166341374D01*
X218413820Y-166375000D01*
X218586180Y-166375000D01*
X218755228Y-166341374D01*
X218914468Y-166275415D01*
X219057780Y-166179657D01*
X219179657Y-166057780D01*
X219275415Y-165914468D01*
X219341374Y-165755228D01*
X219375000Y-165586180D01*
X219375000Y-165413820D01*
X219341374Y-165244772D01*
X219275415Y-165085532D01*
X219179657Y-164942220D01*
X219057780Y-164820343D01*
X218914468Y-164724585D01*
X218755228Y-164658626D01*
X218586180Y-164625000D01*
X218413820Y-164625000D01*
X218244772Y-164658626D01*
X218085532Y-164724585D01*
X217942220Y-164820343D01*
X217820343Y-164942220D01*
X217724585Y-165085532D01*
X217658626Y-165244772D01*
X217625000Y-165413820D01*
X211226379Y-165413820D01*
X211207275Y-165219858D01*
X211137228Y-164988945D01*
X211023478Y-164776134D01*
X210870397Y-164589603D01*
X210683866Y-164436522D01*
X210471055Y-164322772D01*
X210240142Y-164252725D01*
X210060178Y-164235000D01*
X209939822Y-164235000D01*
X209759858Y-164252725D01*
X209528945Y-164322772D01*
X209316134Y-164436522D01*
X209129603Y-164589603D01*
X208976522Y-164776134D01*
X208862772Y-164988945D01*
X208792725Y-165219858D01*
X208769073Y-165460000D01*
X201125000Y-165460000D01*
X201125000Y-162920000D01*
X208769073Y-162920000D01*
X208792725Y-163160142D01*
X208862772Y-163391055D01*
X208976522Y-163603866D01*
X209129603Y-163790397D01*
X209316134Y-163943478D01*
X209528945Y-164057228D01*
X209759858Y-164127275D01*
X209939822Y-164145000D01*
X210060178Y-164145000D01*
X210240142Y-164127275D01*
X210471055Y-164057228D01*
X210683866Y-163943478D01*
X210870397Y-163790397D01*
X211023478Y-163603866D01*
X211137228Y-163391055D01*
X211207275Y-163160142D01*
X211230927Y-162920000D01*
X211230319Y-162913820D01*
X217625000Y-162913820D01*
X217625000Y-163086180D01*
X217658626Y-163255228D01*
X217724585Y-163414468D01*
X217820343Y-163557780D01*
X217942220Y-163679657D01*
X218085532Y-163775415D01*
X218244772Y-163841374D01*
X218413820Y-163875000D01*
X218586180Y-163875000D01*
X218755228Y-163841374D01*
X218914468Y-163775415D01*
X219057780Y-163679657D01*
X219179657Y-163557780D01*
X219275415Y-163414468D01*
X219341374Y-163255228D01*
X219375000Y-163086180D01*
X219375000Y-162913820D01*
X219341374Y-162744772D01*
X219275415Y-162585532D01*
X219179657Y-162442220D01*
X219057780Y-162320343D01*
X218914468Y-162224585D01*
X218755228Y-162158626D01*
X218586180Y-162125000D01*
X218413820Y-162125000D01*
X218244772Y-162158626D01*
X218085532Y-162224585D01*
X217942220Y-162320343D01*
X217820343Y-162442220D01*
X217724585Y-162585532D01*
X217658626Y-162744772D01*
X217625000Y-162913820D01*
X211230319Y-162913820D01*
X211207275Y-162679858D01*
X211137228Y-162448945D01*
X211023478Y-162236134D01*
X210870397Y-162049603D01*
X210683866Y-161896522D01*
X210471055Y-161782772D01*
X210240142Y-161712725D01*
X210060178Y-161695000D01*
X209939822Y-161695000D01*
X209759858Y-161712725D01*
X209528945Y-161782772D01*
X209316134Y-161896522D01*
X209129603Y-162049603D01*
X208976522Y-162236134D01*
X208862772Y-162448945D01*
X208792725Y-162679858D01*
X208769073Y-162920000D01*
X201125000Y-162920000D01*
X201125000Y-160380000D01*
X208769073Y-160380000D01*
X208792725Y-160620142D01*
X208862772Y-160851055D01*
X208976522Y-161063866D01*
X209129603Y-161250397D01*
X209316134Y-161403478D01*
X209528945Y-161517228D01*
X209759858Y-161587275D01*
X209939822Y-161605000D01*
X210060178Y-161605000D01*
X210240142Y-161587275D01*
X210471055Y-161517228D01*
X210683866Y-161403478D01*
X210870397Y-161250397D01*
X211023478Y-161063866D01*
X211137228Y-160851055D01*
X211207275Y-160620142D01*
X211227596Y-160413820D01*
X217625000Y-160413820D01*
X217625000Y-160586180D01*
X217658626Y-160755228D01*
X217724585Y-160914468D01*
X217820343Y-161057780D01*
X217942220Y-161179657D01*
X218085532Y-161275415D01*
X218244772Y-161341374D01*
X218413820Y-161375000D01*
X218586180Y-161375000D01*
X218755228Y-161341374D01*
X218914468Y-161275415D01*
X219057780Y-161179657D01*
X219179657Y-161057780D01*
X219275415Y-160914468D01*
X219341374Y-160755228D01*
X219375000Y-160586180D01*
X219375000Y-160413820D01*
X219341374Y-160244772D01*
X219275415Y-160085532D01*
X219179657Y-159942220D01*
X219057780Y-159820343D01*
X218914468Y-159724585D01*
X218755228Y-159658626D01*
X218586180Y-159625000D01*
X218413820Y-159625000D01*
X218244772Y-159658626D01*
X218085532Y-159724585D01*
X217942220Y-159820343D01*
X217820343Y-159942220D01*
X217724585Y-160085532D01*
X217658626Y-160244772D01*
X217625000Y-160413820D01*
X211227596Y-160413820D01*
X211230927Y-160380000D01*
X211207275Y-160139858D01*
X211137228Y-159908945D01*
X211023478Y-159696134D01*
X210870397Y-159509603D01*
X210683866Y-159356522D01*
X210471055Y-159242772D01*
X210240142Y-159172725D01*
X210060178Y-159155000D01*
X209939822Y-159155000D01*
X209759858Y-159172725D01*
X209528945Y-159242772D01*
X209316134Y-159356522D01*
X209129603Y-159509603D01*
X208976522Y-159696134D01*
X208862772Y-159908945D01*
X208792725Y-160139858D01*
X208769073Y-160380000D01*
X201125000Y-160380000D01*
X201125000Y-158154093D01*
X208815951Y-158154093D01*
X208840993Y-158236667D01*
X208940649Y-158455156D01*
X209081015Y-158650005D01*
X209256697Y-158813726D01*
X209460944Y-158940027D01*
X209685906Y-159024055D01*
X209875000Y-158964862D01*
X209875000Y-157965000D01*
X210125000Y-157965000D01*
X210125000Y-158964862D01*
X210314094Y-159024055D01*
X210539056Y-158940027D01*
X210743303Y-158813726D01*
X210918985Y-158650005D01*
X211059351Y-158455156D01*
X211159007Y-158236667D01*
X211184049Y-158154093D01*
X211124323Y-157965000D01*
X210125000Y-157965000D01*
X209875000Y-157965000D01*
X208875677Y-157965000D01*
X208815951Y-158154093D01*
X201125000Y-158154093D01*
X201125000Y-157525907D01*
X208815951Y-157525907D01*
X208875677Y-157715000D01*
X209875000Y-157715000D01*
X209875000Y-156715138D01*
X210125000Y-156715138D01*
X210125000Y-157715000D01*
X211124323Y-157715000D01*
X211184049Y-157525907D01*
X211159007Y-157443333D01*
X211059351Y-157224844D01*
X210918985Y-157029995D01*
X210743303Y-156866274D01*
X210539056Y-156739973D01*
X210314094Y-156655945D01*
X210125000Y-156715138D01*
X209875000Y-156715138D01*
X209685906Y-156655945D01*
X209460944Y-156739973D01*
X209256697Y-156866274D01*
X209081015Y-157029995D01*
X208940649Y-157224844D01*
X208840993Y-157443333D01*
X208815951Y-157525907D01*
X201125000Y-157525907D01*
X201125000Y-152913820D01*
X210125000Y-152913820D01*
X210125000Y-153086180D01*
X210158626Y-153255228D01*
X210224585Y-153414468D01*
X210320343Y-153557780D01*
X210442220Y-153679657D01*
X210585532Y-153775415D01*
X210744772Y-153841374D01*
X210913820Y-153875000D01*
X211086180Y-153875000D01*
X211255228Y-153841374D01*
X211414468Y-153775415D01*
X211557780Y-153679657D01*
X211679657Y-153557780D01*
X211775415Y-153414468D01*
X211841374Y-153255228D01*
X211875000Y-153086180D01*
X211875000Y-152913820D01*
X213125000Y-152913820D01*
X213125000Y-153086180D01*
X213158626Y-153255228D01*
X213224585Y-153414468D01*
X213320343Y-153557780D01*
X213442220Y-153679657D01*
X213585532Y-153775415D01*
X213744772Y-153841374D01*
X213913820Y-153875000D01*
X214086180Y-153875000D01*
X214255228Y-153841374D01*
X214414468Y-153775415D01*
X214557780Y-153679657D01*
X214679657Y-153557780D01*
X214775415Y-153414468D01*
X214841374Y-153255228D01*
X214875000Y-153086180D01*
X214875000Y-152913820D01*
X216125000Y-152913820D01*
X216125000Y-153086180D01*
X216158626Y-153255228D01*
X216224585Y-153414468D01*
X216320343Y-153557780D01*
X216442220Y-153679657D01*
X216585532Y-153775415D01*
X216744772Y-153841374D01*
X216913820Y-153875000D01*
X217086180Y-153875000D01*
X217255228Y-153841374D01*
X217414468Y-153775415D01*
X217557780Y-153679657D01*
X217679657Y-153557780D01*
X217775415Y-153414468D01*
X217841374Y-153255228D01*
X217875000Y-153086180D01*
X217875000Y-152913820D01*
X219125000Y-152913820D01*
X219125000Y-153086180D01*
X219158626Y-153255228D01*
X219224585Y-153414468D01*
X219320343Y-153557780D01*
X219442220Y-153679657D01*
X219585532Y-153775415D01*
X219744772Y-153841374D01*
X219913820Y-153875000D01*
X220086180Y-153875000D01*
X220255228Y-153841374D01*
X220414468Y-153775415D01*
X220557780Y-153679657D01*
X220679657Y-153557780D01*
X220775415Y-153414468D01*
X220841374Y-153255228D01*
X220875000Y-153086180D01*
X220875000Y-152913820D01*
X220841374Y-152744772D01*
X220775415Y-152585532D01*
X220679657Y-152442220D01*
X220557780Y-152320343D01*
X220414468Y-152224585D01*
X220255228Y-152158626D01*
X220086180Y-152125000D01*
X219913820Y-152125000D01*
X219744772Y-152158626D01*
X219585532Y-152224585D01*
X219442220Y-152320343D01*
X219320343Y-152442220D01*
X219224585Y-152585532D01*
X219158626Y-152744772D01*
X219125000Y-152913820D01*
X217875000Y-152913820D01*
X217841374Y-152744772D01*
X217775415Y-152585532D01*
X217679657Y-152442220D01*
X217557780Y-152320343D01*
X217414468Y-152224585D01*
X217255228Y-152158626D01*
X217086180Y-152125000D01*
X216913820Y-152125000D01*
X216744772Y-152158626D01*
X216585532Y-152224585D01*
X216442220Y-152320343D01*
X216320343Y-152442220D01*
X216224585Y-152585532D01*
X216158626Y-152744772D01*
X216125000Y-152913820D01*
X214875000Y-152913820D01*
X214841374Y-152744772D01*
X214775415Y-152585532D01*
X214679657Y-152442220D01*
X214557780Y-152320343D01*
X214414468Y-152224585D01*
X214255228Y-152158626D01*
X214086180Y-152125000D01*
X213913820Y-152125000D01*
X213744772Y-152158626D01*
X213585532Y-152224585D01*
X213442220Y-152320343D01*
X213320343Y-152442220D01*
X213224585Y-152585532D01*
X213158626Y-152744772D01*
X213125000Y-152913820D01*
X211875000Y-152913820D01*
X211841374Y-152744772D01*
X211775415Y-152585532D01*
X211679657Y-152442220D01*
X211557780Y-152320343D01*
X211414468Y-152224585D01*
X211255228Y-152158626D01*
X211086180Y-152125000D01*
X210913820Y-152125000D01*
X210744772Y-152158626D01*
X210585532Y-152224585D01*
X210442220Y-152320343D01*
X210320343Y-152442220D01*
X210224585Y-152585532D01*
X210158626Y-152744772D01*
X210125000Y-152913820D01*
X201125000Y-152913820D01*
X201125000Y-146913820D01*
X210125000Y-146913820D01*
X210125000Y-147086180D01*
X210158626Y-147255228D01*
X210224585Y-147414468D01*
X210320343Y-147557780D01*
X210442220Y-147679657D01*
X210585532Y-147775415D01*
X210744772Y-147841374D01*
X210913820Y-147875000D01*
X211086180Y-147875000D01*
X211255228Y-147841374D01*
X211414468Y-147775415D01*
X211557780Y-147679657D01*
X211679657Y-147557780D01*
X211775415Y-147414468D01*
X211841374Y-147255228D01*
X211875000Y-147086180D01*
X211875000Y-146913820D01*
X213125000Y-146913820D01*
X213125000Y-147086180D01*
X213158626Y-147255228D01*
X213224585Y-147414468D01*
X213320343Y-147557780D01*
X213442220Y-147679657D01*
X213585532Y-147775415D01*
X213744772Y-147841374D01*
X213913820Y-147875000D01*
X214086180Y-147875000D01*
X214255228Y-147841374D01*
X214414468Y-147775415D01*
X214557780Y-147679657D01*
X214679657Y-147557780D01*
X214775415Y-147414468D01*
X214841374Y-147255228D01*
X214875000Y-147086180D01*
X214875000Y-146913820D01*
X216125000Y-146913820D01*
X216125000Y-147086180D01*
X216158626Y-147255228D01*
X216224585Y-147414468D01*
X216320343Y-147557780D01*
X216442220Y-147679657D01*
X216585532Y-147775415D01*
X216744772Y-147841374D01*
X216913820Y-147875000D01*
X217086180Y-147875000D01*
X217255228Y-147841374D01*
X217414468Y-147775415D01*
X217557780Y-147679657D01*
X217679657Y-147557780D01*
X217775415Y-147414468D01*
X217841374Y-147255228D01*
X217875000Y-147086180D01*
X217875000Y-146913820D01*
X219125000Y-146913820D01*
X219125000Y-147086180D01*
X219158626Y-147255228D01*
X219224585Y-147414468D01*
X219320343Y-147557780D01*
X219442220Y-147679657D01*
X219585532Y-147775415D01*
X219744772Y-147841374D01*
X219913820Y-147875000D01*
X220086180Y-147875000D01*
X220255228Y-147841374D01*
X220414468Y-147775415D01*
X220557780Y-147679657D01*
X220679657Y-147557780D01*
X220775415Y-147414468D01*
X220841374Y-147255228D01*
X220875000Y-147086180D01*
X220875000Y-146913820D01*
X220841374Y-146744772D01*
X220775415Y-146585532D01*
X220679657Y-146442220D01*
X220557780Y-146320343D01*
X220414468Y-146224585D01*
X220255228Y-146158626D01*
X220086180Y-146125000D01*
X219913820Y-146125000D01*
X219744772Y-146158626D01*
X219585532Y-146224585D01*
X219442220Y-146320343D01*
X219320343Y-146442220D01*
X219224585Y-146585532D01*
X219158626Y-146744772D01*
X219125000Y-146913820D01*
X217875000Y-146913820D01*
X217841374Y-146744772D01*
X217775415Y-146585532D01*
X217679657Y-146442220D01*
X217557780Y-146320343D01*
X217414468Y-146224585D01*
X217255228Y-146158626D01*
X217086180Y-146125000D01*
X216913820Y-146125000D01*
X216744772Y-146158626D01*
X216585532Y-146224585D01*
X216442220Y-146320343D01*
X216320343Y-146442220D01*
X216224585Y-146585532D01*
X216158626Y-146744772D01*
X216125000Y-146913820D01*
X214875000Y-146913820D01*
X214841374Y-146744772D01*
X214775415Y-146585532D01*
X214679657Y-146442220D01*
X214557780Y-146320343D01*
X214414468Y-146224585D01*
X214255228Y-146158626D01*
X214086180Y-146125000D01*
X213913820Y-146125000D01*
X213744772Y-146158626D01*
X213585532Y-146224585D01*
X213442220Y-146320343D01*
X213320343Y-146442220D01*
X213224585Y-146585532D01*
X213158626Y-146744772D01*
X213125000Y-146913820D01*
X211875000Y-146913820D01*
X211841374Y-146744772D01*
X211775415Y-146585532D01*
X211679657Y-146442220D01*
X211557780Y-146320343D01*
X211414468Y-146224585D01*
X211255228Y-146158626D01*
X211086180Y-146125000D01*
X210913820Y-146125000D01*
X210744772Y-146158626D01*
X210585532Y-146224585D01*
X210442220Y-146320343D01*
X210320343Y-146442220D01*
X210224585Y-146585532D01*
X210158626Y-146744772D01*
X210125000Y-146913820D01*
X201125000Y-146913820D01*
X201125000Y-141125000D01*
X298875000Y-141125000D01*
X298875000Y-218875000D01*
X298875000Y-218875000D01*
G37*
X298875000Y-218875000D02*
X201125000Y-218875000D01*
X201125000Y-209150000D01*
X210233186Y-209150000D01*
X210233186Y-210850000D01*
X210240426Y-210923513D01*
X210261869Y-210994200D01*
X210296691Y-211059347D01*
X210343552Y-211116448D01*
X210400653Y-211163309D01*
X210465800Y-211198131D01*
X210536487Y-211219574D01*
X210610000Y-211226814D01*
X212310000Y-211226814D01*
X212383513Y-211219574D01*
X212454200Y-211198131D01*
X212519347Y-211163309D01*
X212576448Y-211116448D01*
X212623309Y-211059347D01*
X212658131Y-210994200D01*
X212679574Y-210923513D01*
X212686814Y-210850000D01*
X212686814Y-210314094D01*
X212815945Y-210314094D01*
X212899973Y-210539056D01*
X213026274Y-210743303D01*
X213189995Y-210918985D01*
X213384844Y-211059351D01*
X213603333Y-211159007D01*
X213685907Y-211184049D01*
X213875000Y-211124323D01*
X213875000Y-210125000D01*
X214125000Y-210125000D01*
X214125000Y-211124323D01*
X214314093Y-211184049D01*
X214396667Y-211159007D01*
X214615156Y-211059351D01*
X214810005Y-210918985D01*
X214973726Y-210743303D01*
X215100027Y-210539056D01*
X215184055Y-210314094D01*
X215124862Y-210125000D01*
X214125000Y-210125000D01*
X213875000Y-210125000D01*
X212875138Y-210125000D01*
X212815945Y-210314094D01*
X212686814Y-210314094D01*
X212686814Y-209685906D01*
X212815945Y-209685906D01*
X212875138Y-209875000D01*
X213875000Y-209875000D01*
X213875000Y-208875677D01*
X214125000Y-208875677D01*
X214125000Y-209875000D01*
X215124862Y-209875000D01*
X215184055Y-209685906D01*
X215100027Y-209460944D01*
X214973726Y-209256697D01*
X214874294Y-209150000D01*
X229233186Y-209150000D01*
X229233186Y-210850000D01*
X229240426Y-210923513D01*
X229261869Y-210994200D01*
X229296691Y-211059347D01*
X229343552Y-211116448D01*
X229400653Y-211163309D01*
X229465800Y-211198131D01*
X229536487Y-211219574D01*
X229610000Y-211226814D01*
X231310000Y-211226814D01*
X231383513Y-211219574D01*
X231454200Y-211198131D01*
X231519347Y-211163309D01*
X231576448Y-211116448D01*
X231623309Y-211059347D01*
X231658131Y-210994200D01*
X231679574Y-210923513D01*
X231686814Y-210850000D01*
X231686814Y-210314094D01*
X231815945Y-210314094D01*
X231899973Y-210539056D01*
X232026274Y-210743303D01*
X232189995Y-210918985D01*
X232384844Y-211059351D01*
X232603333Y-211159007D01*
X232685907Y-211184049D01*
X232875000Y-211124323D01*
X232875000Y-210125000D01*
X233125000Y-210125000D01*
X233125000Y-211124323D01*
X233314093Y-211184049D01*
X233396667Y-211159007D01*
X233615156Y-211059351D01*
X233810005Y-210918985D01*
X233973726Y-210743303D01*
X234100027Y-210539056D01*
X234184055Y-210314094D01*
X234124862Y-210125000D01*
X233125000Y-210125000D01*
X232875000Y-210125000D01*
X231875138Y-210125000D01*
X231815945Y-210314094D01*
X231686814Y-210314094D01*
X231686814Y-209685906D01*
X231815945Y-209685906D01*
X231875138Y-209875000D01*
X232875000Y-209875000D01*
X232875000Y-208875677D01*
X233125000Y-208875677D01*
X233125000Y-209875000D01*
X234124862Y-209875000D01*
X234184055Y-209685906D01*
X234100027Y-209460944D01*
X233973726Y-209256697D01*
X233810005Y-209081015D01*
X233615156Y-208940649D01*
X233396667Y-208840993D01*
X233314093Y-208815951D01*
X233125000Y-208875677D01*
X232875000Y-208875677D01*
X232685907Y-208815951D01*
X232603333Y-208840993D01*
X232384844Y-208940649D01*
X232189995Y-209081015D01*
X232026274Y-209256697D01*
X231899973Y-209460944D01*
X231815945Y-209685906D01*
X231686814Y-209685906D01*
X231686814Y-209150000D01*
X231679574Y-209076487D01*
X231658131Y-209005800D01*
X231623309Y-208940653D01*
X231576448Y-208883552D01*
X231519347Y-208836691D01*
X231454200Y-208801869D01*
X231383513Y-208780426D01*
X231310000Y-208773186D01*
X229610000Y-208773186D01*
X229536487Y-208780426D01*
X229465800Y-208801869D01*
X229400653Y-208836691D01*
X229343552Y-208883552D01*
X229296691Y-208940653D01*
X229261869Y-209005800D01*
X229240426Y-209076487D01*
X229233186Y-209150000D01*
X214874294Y-209150000D01*
X214810005Y-209081015D01*
X214615156Y-208940649D01*
X214396667Y-208840993D01*
X214314093Y-208815951D01*
X214125000Y-208875677D01*
X213875000Y-208875677D01*
X213685907Y-208815951D01*
X213603333Y-208840993D01*
X213384844Y-208940649D01*
X213189995Y-209081015D01*
X213026274Y-209256697D01*
X212899973Y-209460944D01*
X212815945Y-209685906D01*
X212686814Y-209685906D01*
X212686814Y-209150000D01*
X212679574Y-209076487D01*
X212658131Y-209005800D01*
X212623309Y-208940653D01*
X212576448Y-208883552D01*
X212519347Y-208836691D01*
X212454200Y-208801869D01*
X212383513Y-208780426D01*
X212310000Y-208773186D01*
X210610000Y-208773186D01*
X210536487Y-208780426D01*
X210465800Y-208801869D01*
X210400653Y-208836691D01*
X210343552Y-208883552D01*
X210296691Y-208940653D01*
X210261869Y-209005800D01*
X210240426Y-209076487D01*
X210233186Y-209150000D01*
X201125000Y-209150000D01*
X201125000Y-205413820D01*
X210625000Y-205413820D01*
X210625000Y-205586180D01*
X210658626Y-205755228D01*
X210724585Y-205914468D01*
X210820343Y-206057780D01*
X210942220Y-206179657D01*
X211085532Y-206275415D01*
X211244772Y-206341374D01*
X211413820Y-206375000D01*
X211586180Y-206375000D01*
X211755228Y-206341374D01*
X211914468Y-206275415D01*
X212057780Y-206179657D01*
X212179657Y-206057780D01*
X212275415Y-205914468D01*
X212341374Y-205755228D01*
X212375000Y-205586180D01*
X212375000Y-205413820D01*
X229625000Y-205413820D01*
X229625000Y-205586180D01*
X229658626Y-205755228D01*
X229724585Y-205914468D01*
X229820343Y-206057780D01*
X229942220Y-206179657D01*
X230085532Y-206275415D01*
X230244772Y-206341374D01*
X230413820Y-206375000D01*
X230586180Y-206375000D01*
X230755228Y-206341374D01*
X230914468Y-206275415D01*
X231057780Y-206179657D01*
X231179657Y-206057780D01*
X231275415Y-205914468D01*
X231341374Y-205755228D01*
X231375000Y-205586180D01*
X231375000Y-205413820D01*
X231341374Y-205244772D01*
X231275415Y-205085532D01*
X231179657Y-204942220D01*
X231057780Y-204820343D01*
X230914468Y-204724585D01*
X230755228Y-204658626D01*
X230586180Y-204625000D01*
X230413820Y-204625000D01*
X230244772Y-204658626D01*
X230085532Y-204724585D01*
X229942220Y-204820343D01*
X229820343Y-204942220D01*
X229724585Y-205085532D01*
X229658626Y-205244772D01*
X229625000Y-205413820D01*
X212375000Y-205413820D01*
X212341374Y-205244772D01*
X212275415Y-205085532D01*
X212179657Y-204942220D01*
X212057780Y-204820343D01*
X211914468Y-204724585D01*
X211755228Y-204658626D01*
X211586180Y-204625000D01*
X211413820Y-204625000D01*
X211244772Y-204658626D01*
X211085532Y-204724585D01*
X210942220Y-204820343D01*
X210820343Y-204942220D01*
X210724585Y-205085532D01*
X210658626Y-205244772D01*
X210625000Y-205413820D01*
X201125000Y-205413820D01*
X201125000Y-197413820D01*
X251125000Y-197413820D01*
X251125000Y-197586180D01*
X251158626Y-197755228D01*
X251224585Y-197914468D01*
X251320343Y-198057780D01*
X251442220Y-198179657D01*
X251585532Y-198275415D01*
X251744772Y-198341374D01*
X251913820Y-198375000D01*
X252086180Y-198375000D01*
X252255228Y-198341374D01*
X252414468Y-198275415D01*
X252557780Y-198179657D01*
X252679657Y-198057780D01*
X252775415Y-197914468D01*
X252841374Y-197755228D01*
X252875000Y-197586180D01*
X252875000Y-197413820D01*
X262125000Y-197413820D01*
X262125000Y-197586180D01*
X262158626Y-197755228D01*
X262224585Y-197914468D01*
X262320343Y-198057780D01*
X262442220Y-198179657D01*
X262585532Y-198275415D01*
X262744772Y-198341374D01*
X262913820Y-198375000D01*
X263086180Y-198375000D01*
X263255228Y-198341374D01*
X263414468Y-198275415D01*
X263557780Y-198179657D01*
X263679657Y-198057780D01*
X263775415Y-197914468D01*
X263841374Y-197755228D01*
X263875000Y-197586180D01*
X263875000Y-197413820D01*
X273125000Y-197413820D01*
X273125000Y-197586180D01*
X273158626Y-197755228D01*
X273224585Y-197914468D01*
X273320343Y-198057780D01*
X273442220Y-198179657D01*
X273585532Y-198275415D01*
X273744772Y-198341374D01*
X273913820Y-198375000D01*
X274086180Y-198375000D01*
X274255228Y-198341374D01*
X274414468Y-198275415D01*
X274557780Y-198179657D01*
X274679657Y-198057780D01*
X274775415Y-197914468D01*
X274841374Y-197755228D01*
X274875000Y-197586180D01*
X274875000Y-197413820D01*
X286125000Y-197413820D01*
X286125000Y-197586180D01*
X286158626Y-197755228D01*
X286224585Y-197914468D01*
X286320343Y-198057780D01*
X286442220Y-198179657D01*
X286585532Y-198275415D01*
X286744772Y-198341374D01*
X286913820Y-198375000D01*
X287086180Y-198375000D01*
X287255228Y-198341374D01*
X287414468Y-198275415D01*
X287557780Y-198179657D01*
X287679657Y-198057780D01*
X287775415Y-197914468D01*
X287841374Y-197755228D01*
X287875000Y-197586180D01*
X287875000Y-197413820D01*
X287841374Y-197244772D01*
X287775415Y-197085532D01*
X287679657Y-196942220D01*
X287557780Y-196820343D01*
X287414468Y-196724585D01*
X287255228Y-196658626D01*
X287086180Y-196625000D01*
X286913820Y-196625000D01*
X286744772Y-196658626D01*
X286585532Y-196724585D01*
X286442220Y-196820343D01*
X286320343Y-196942220D01*
X286224585Y-197085532D01*
X286158626Y-197244772D01*
X286125000Y-197413820D01*
X274875000Y-197413820D01*
X274841374Y-197244772D01*
X274775415Y-197085532D01*
X274679657Y-196942220D01*
X274557780Y-196820343D01*
X274414468Y-196724585D01*
X274255228Y-196658626D01*
X274086180Y-196625000D01*
X273913820Y-196625000D01*
X273744772Y-196658626D01*
X273585532Y-196724585D01*
X273442220Y-196820343D01*
X273320343Y-196942220D01*
X273224585Y-197085532D01*
X273158626Y-197244772D01*
X273125000Y-197413820D01*
X263875000Y-197413820D01*
X263841374Y-197244772D01*
X263775415Y-197085532D01*
X263679657Y-196942220D01*
X263557780Y-196820343D01*
X263414468Y-196724585D01*
X263255228Y-196658626D01*
X263086180Y-196625000D01*
X262913820Y-196625000D01*
X262744772Y-196658626D01*
X262585532Y-196724585D01*
X262442220Y-196820343D01*
X262320343Y-196942220D01*
X262224585Y-197085532D01*
X262158626Y-197244772D01*
X262125000Y-197413820D01*
X252875000Y-197413820D01*
X252841374Y-197244772D01*
X252775415Y-197085532D01*
X252679657Y-196942220D01*
X252557780Y-196820343D01*
X252414468Y-196724585D01*
X252255228Y-196658626D01*
X252086180Y-196625000D01*
X251913820Y-196625000D01*
X251744772Y-196658626D01*
X251585532Y-196724585D01*
X251442220Y-196820343D01*
X251320343Y-196942220D01*
X251224585Y-197085532D01*
X251158626Y-197244772D01*
X251125000Y-197413820D01*
X201125000Y-197413820D01*
X201125000Y-193178594D01*
X210775000Y-193178594D01*
X210775000Y-193321406D01*
X210802861Y-193461475D01*
X210857513Y-193593416D01*
X210936856Y-193712161D01*
X211037839Y-193813144D01*
X211156584Y-193892487D01*
X211288525Y-193947139D01*
X211428594Y-193975000D01*
X211571406Y-193975000D01*
X211711475Y-193947139D01*
X211843416Y-193892487D01*
X211907002Y-193850000D01*
X227280688Y-193850000D01*
X227302861Y-193961475D01*
X227357513Y-194093416D01*
X227436856Y-194212161D01*
X227537839Y-194313144D01*
X227656584Y-194392487D01*
X227788525Y-194447139D01*
X227928594Y-194475000D01*
X228071406Y-194475000D01*
X228211475Y-194447139D01*
X228343416Y-194392487D01*
X228462161Y-194313144D01*
X228563144Y-194212161D01*
X228642487Y-194093416D01*
X228697139Y-193961475D01*
X228712058Y-193886469D01*
X228748528Y-193850000D01*
X247674722Y-193850000D01*
X247656584Y-193857513D01*
X247537839Y-193936856D01*
X247436856Y-194037839D01*
X247357513Y-194156584D01*
X247302861Y-194288525D01*
X247275000Y-194428594D01*
X247275000Y-194571406D01*
X247302861Y-194711475D01*
X247357513Y-194843416D01*
X247436856Y-194962161D01*
X247537839Y-195063144D01*
X247656584Y-195142487D01*
X247788525Y-195197139D01*
X247928594Y-195225000D01*
X248071406Y-195225000D01*
X248211475Y-195197139D01*
X248343416Y-195142487D01*
X248462161Y-195063144D01*
X248563144Y-194962161D01*
X248642487Y-194843416D01*
X248697139Y-194711475D01*
X248712058Y-194636469D01*
X249652421Y-193696107D01*
X249675319Y-193677315D01*
X249698681Y-193648848D01*
X251194107Y-192153424D01*
X251194116Y-192153413D01*
X256713436Y-186634093D01*
X288815951Y-186634093D01*
X288840993Y-186716667D01*
X288940649Y-186935156D01*
X289081015Y-187130005D01*
X289256697Y-187293726D01*
X289460944Y-187420027D01*
X289685906Y-187504055D01*
X289875000Y-187444862D01*
X289875000Y-186445000D01*
X290125000Y-186445000D01*
X290125000Y-187444862D01*
X290314094Y-187504055D01*
X290539056Y-187420027D01*
X290743303Y-187293726D01*
X290918985Y-187130005D01*
X291059351Y-186935156D01*
X291159007Y-186716667D01*
X291184049Y-186634093D01*
X291124323Y-186445000D01*
X290125000Y-186445000D01*
X289875000Y-186445000D01*
X288875677Y-186445000D01*
X288815951Y-186634093D01*
X256713436Y-186634093D01*
X257341622Y-186005907D01*
X288815951Y-186005907D01*
X288875677Y-186195000D01*
X289875000Y-186195000D01*
X289875000Y-185195138D01*
X290125000Y-185195138D01*
X290125000Y-186195000D01*
X291124323Y-186195000D01*
X291184049Y-186005907D01*
X291159007Y-185923333D01*
X291059351Y-185704844D01*
X290918985Y-185509995D01*
X290743303Y-185346274D01*
X290539056Y-185219973D01*
X290314094Y-185135945D01*
X290125000Y-185195138D01*
X289875000Y-185195138D01*
X289685906Y-185135945D01*
X289460944Y-185219973D01*
X289256697Y-185346274D01*
X289081015Y-185509995D01*
X288940649Y-185704844D01*
X288840993Y-185923333D01*
X288815951Y-186005907D01*
X257341622Y-186005907D01*
X259567529Y-183780000D01*
X288769073Y-183780000D01*
X288792725Y-184020142D01*
X288862772Y-184251055D01*
X288976522Y-184463866D01*
X289129603Y-184650397D01*
X289316134Y-184803478D01*
X289528945Y-184917228D01*
X289759858Y-184987275D01*
X289939822Y-185005000D01*
X290060178Y-185005000D01*
X290240142Y-184987275D01*
X290471055Y-184917228D01*
X290683866Y-184803478D01*
X290870397Y-184650397D01*
X291023478Y-184463866D01*
X291137228Y-184251055D01*
X291207275Y-184020142D01*
X291230927Y-183780000D01*
X291207275Y-183539858D01*
X291137228Y-183308945D01*
X291023478Y-183096134D01*
X290870397Y-182909603D01*
X290683866Y-182756522D01*
X290471055Y-182642772D01*
X290240142Y-182572725D01*
X290060178Y-182555000D01*
X289939822Y-182555000D01*
X289759858Y-182572725D01*
X289528945Y-182642772D01*
X289316134Y-182756522D01*
X289129603Y-182909603D01*
X288976522Y-183096134D01*
X288862772Y-183308945D01*
X288792725Y-183539858D01*
X288769073Y-183780000D01*
X259567529Y-183780000D01*
X262107529Y-181240000D01*
X288769073Y-181240000D01*
X288792725Y-181480142D01*
X288862772Y-181711055D01*
X288976522Y-181923866D01*
X289129603Y-182110397D01*
X289316134Y-182263478D01*
X289528945Y-182377228D01*
X289759858Y-182447275D01*
X289939822Y-182465000D01*
X290060178Y-182465000D01*
X290240142Y-182447275D01*
X290471055Y-182377228D01*
X290683866Y-182263478D01*
X290870397Y-182110397D01*
X291023478Y-181923866D01*
X291137228Y-181711055D01*
X291207275Y-181480142D01*
X291230927Y-181240000D01*
X291207275Y-180999858D01*
X291137228Y-180768945D01*
X291023478Y-180556134D01*
X290870397Y-180369603D01*
X290683866Y-180216522D01*
X290471055Y-180102772D01*
X290240142Y-180032725D01*
X290060178Y-180015000D01*
X289939822Y-180015000D01*
X289759858Y-180032725D01*
X289528945Y-180102772D01*
X289316134Y-180216522D01*
X289129603Y-180369603D01*
X288976522Y-180556134D01*
X288862772Y-180768945D01*
X288792725Y-180999858D01*
X288769073Y-181240000D01*
X262107529Y-181240000D01*
X264647529Y-178700000D01*
X288769073Y-178700000D01*
X288792725Y-178940142D01*
X288862772Y-179171055D01*
X288976522Y-179383866D01*
X289129603Y-179570397D01*
X289316134Y-179723478D01*
X289528945Y-179837228D01*
X289759858Y-179907275D01*
X289939822Y-179925000D01*
X290060178Y-179925000D01*
X290240142Y-179907275D01*
X290471055Y-179837228D01*
X290683866Y-179723478D01*
X290870397Y-179570397D01*
X291023478Y-179383866D01*
X291137228Y-179171055D01*
X291207275Y-178940142D01*
X291230927Y-178700000D01*
X291207275Y-178459858D01*
X291137228Y-178228945D01*
X291023478Y-178016134D01*
X290870397Y-177829603D01*
X290683866Y-177676522D01*
X290471055Y-177562772D01*
X290240142Y-177492725D01*
X290060178Y-177475000D01*
X289939822Y-177475000D01*
X289759858Y-177492725D01*
X289528945Y-177562772D01*
X289316134Y-177676522D01*
X289129603Y-177829603D01*
X288976522Y-178016134D01*
X288862772Y-178228945D01*
X288792725Y-178459858D01*
X288769073Y-178700000D01*
X264647529Y-178700000D01*
X267187529Y-176160000D01*
X288769073Y-176160000D01*
X288792725Y-176400142D01*
X288862772Y-176631055D01*
X288976522Y-176843866D01*
X289129603Y-177030397D01*
X289316134Y-177183478D01*
X289528945Y-177297228D01*
X289759858Y-177367275D01*
X289939822Y-177385000D01*
X290060178Y-177385000D01*
X290240142Y-177367275D01*
X290471055Y-177297228D01*
X290683866Y-177183478D01*
X290870397Y-177030397D01*
X291023478Y-176843866D01*
X291137228Y-176631055D01*
X291207275Y-176400142D01*
X291230927Y-176160000D01*
X291207275Y-175919858D01*
X291137228Y-175688945D01*
X291023478Y-175476134D01*
X290870397Y-175289603D01*
X290683866Y-175136522D01*
X290471055Y-175022772D01*
X290240142Y-174952725D01*
X290060178Y-174935000D01*
X289939822Y-174935000D01*
X289759858Y-174952725D01*
X289528945Y-175022772D01*
X289316134Y-175136522D01*
X289129603Y-175289603D01*
X288976522Y-175476134D01*
X288862772Y-175688945D01*
X288792725Y-175919858D01*
X288769073Y-176160000D01*
X267187529Y-176160000D01*
X269727529Y-173620000D01*
X288769073Y-173620000D01*
X288792725Y-173860142D01*
X288862772Y-174091055D01*
X288976522Y-174303866D01*
X289129603Y-174490397D01*
X289316134Y-174643478D01*
X289528945Y-174757228D01*
X289759858Y-174827275D01*
X289939822Y-174845000D01*
X290060178Y-174845000D01*
X290240142Y-174827275D01*
X290471055Y-174757228D01*
X290683866Y-174643478D01*
X290870397Y-174490397D01*
X291023478Y-174303866D01*
X291137228Y-174091055D01*
X291207275Y-173860142D01*
X291230927Y-173620000D01*
X291207275Y-173379858D01*
X291137228Y-173148945D01*
X291023478Y-172936134D01*
X290870397Y-172749603D01*
X290683866Y-172596522D01*
X290471055Y-172482772D01*
X290240142Y-172412725D01*
X290060178Y-172395000D01*
X289939822Y-172395000D01*
X289759858Y-172412725D01*
X289528945Y-172482772D01*
X289316134Y-172596522D01*
X289129603Y-172749603D01*
X288976522Y-172936134D01*
X288862772Y-173148945D01*
X288792725Y-173379858D01*
X288769073Y-173620000D01*
X269727529Y-173620000D01*
X272267529Y-171080000D01*
X288769073Y-171080000D01*
X288792725Y-171320142D01*
X288862772Y-171551055D01*
X288976522Y-171763866D01*
X289129603Y-171950397D01*
X289316134Y-172103478D01*
X289528945Y-172217228D01*
X289759858Y-172287275D01*
X289939822Y-172305000D01*
X290060178Y-172305000D01*
X290240142Y-172287275D01*
X290471055Y-172217228D01*
X290683866Y-172103478D01*
X290870397Y-171950397D01*
X291023478Y-171763866D01*
X291137228Y-171551055D01*
X291207275Y-171320142D01*
X291230927Y-171080000D01*
X291207275Y-170839858D01*
X291137228Y-170608945D01*
X291023478Y-170396134D01*
X290870397Y-170209603D01*
X290683866Y-170056522D01*
X290471055Y-169942772D01*
X290240142Y-169872725D01*
X290060178Y-169855000D01*
X289939822Y-169855000D01*
X289759858Y-169872725D01*
X289528945Y-169942772D01*
X289316134Y-170056522D01*
X289129603Y-170209603D01*
X288976522Y-170396134D01*
X288862772Y-170608945D01*
X288792725Y-170839858D01*
X288769073Y-171080000D01*
X272267529Y-171080000D01*
X274807529Y-168540000D01*
X288769073Y-168540000D01*
X288792725Y-168780142D01*
X288862772Y-169011055D01*
X288976522Y-169223866D01*
X289129603Y-169410397D01*
X289316134Y-169563478D01*
X289528945Y-169677228D01*
X289759858Y-169747275D01*
X289939822Y-169765000D01*
X290060178Y-169765000D01*
X290240142Y-169747275D01*
X290471055Y-169677228D01*
X290683866Y-169563478D01*
X290870397Y-169410397D01*
X291023478Y-169223866D01*
X291137228Y-169011055D01*
X291207275Y-168780142D01*
X291230927Y-168540000D01*
X291207275Y-168299858D01*
X291137228Y-168068945D01*
X291023478Y-167856134D01*
X290870397Y-167669603D01*
X290683866Y-167516522D01*
X290471055Y-167402772D01*
X290240142Y-167332725D01*
X290060178Y-167315000D01*
X289939822Y-167315000D01*
X289759858Y-167332725D01*
X289528945Y-167402772D01*
X289316134Y-167516522D01*
X289129603Y-167669603D01*
X288976522Y-167856134D01*
X288862772Y-168068945D01*
X288792725Y-168299858D01*
X288769073Y-168540000D01*
X274807529Y-168540000D01*
X278197529Y-165150000D01*
X288773186Y-165150000D01*
X288773186Y-166850000D01*
X288780426Y-166923513D01*
X288801869Y-166994200D01*
X288836691Y-167059347D01*
X288883552Y-167116448D01*
X288940653Y-167163309D01*
X289005800Y-167198131D01*
X289076487Y-167219574D01*
X289150000Y-167226814D01*
X290850000Y-167226814D01*
X290923513Y-167219574D01*
X290994200Y-167198131D01*
X291059347Y-167163309D01*
X291116448Y-167116448D01*
X291163309Y-167059347D01*
X291198131Y-166994200D01*
X291219574Y-166923513D01*
X291226814Y-166850000D01*
X291226814Y-165150000D01*
X291219574Y-165076487D01*
X291198131Y-165005800D01*
X291163309Y-164940653D01*
X291116448Y-164883552D01*
X291059347Y-164836691D01*
X290994200Y-164801869D01*
X290923513Y-164780426D01*
X290850000Y-164773186D01*
X289150000Y-164773186D01*
X289076487Y-164780426D01*
X289005800Y-164801869D01*
X288940653Y-164836691D01*
X288883552Y-164883552D01*
X288836691Y-164940653D01*
X288801869Y-165005800D01*
X288780426Y-165076487D01*
X288773186Y-165150000D01*
X278197529Y-165150000D01*
X278902920Y-164444610D01*
X278925818Y-164425818D01*
X278944614Y-164402915D01*
X287863419Y-155484111D01*
X287886317Y-155465319D01*
X287961296Y-155373957D01*
X288017010Y-155269723D01*
X288051318Y-155156623D01*
X288060000Y-155068476D01*
X288062903Y-155039003D01*
X288060000Y-155009529D01*
X288060000Y-151226814D01*
X288310000Y-151226814D01*
X288383513Y-151219574D01*
X288454200Y-151198131D01*
X288519347Y-151163309D01*
X288576448Y-151116448D01*
X288623309Y-151059347D01*
X288658131Y-150994200D01*
X288679574Y-150923513D01*
X288686814Y-150850000D01*
X288686814Y-150314094D01*
X288815945Y-150314094D01*
X288899973Y-150539056D01*
X289026274Y-150743303D01*
X289189995Y-150918985D01*
X289384844Y-151059351D01*
X289603333Y-151159007D01*
X289685907Y-151184049D01*
X289875000Y-151124323D01*
X289875000Y-150125000D01*
X290125000Y-150125000D01*
X290125000Y-151124323D01*
X290314093Y-151184049D01*
X290396667Y-151159007D01*
X290615156Y-151059351D01*
X290810005Y-150918985D01*
X290973726Y-150743303D01*
X291100027Y-150539056D01*
X291184055Y-150314094D01*
X291124862Y-150125000D01*
X290125000Y-150125000D01*
X289875000Y-150125000D01*
X288875138Y-150125000D01*
X288815945Y-150314094D01*
X288686814Y-150314094D01*
X288686814Y-149685906D01*
X288815945Y-149685906D01*
X288875138Y-149875000D01*
X289875000Y-149875000D01*
X289875000Y-148875677D01*
X290125000Y-148875677D01*
X290125000Y-149875000D01*
X291124862Y-149875000D01*
X291184055Y-149685906D01*
X291100027Y-149460944D01*
X290973726Y-149256697D01*
X290810005Y-149081015D01*
X290615156Y-148940649D01*
X290396667Y-148840993D01*
X290314093Y-148815951D01*
X290125000Y-148875677D01*
X289875000Y-148875677D01*
X289685907Y-148815951D01*
X289603333Y-148840993D01*
X289384844Y-148940649D01*
X289189995Y-149081015D01*
X289026274Y-149256697D01*
X288899973Y-149460944D01*
X288815945Y-149685906D01*
X288686814Y-149685906D01*
X288686814Y-149150000D01*
X288679574Y-149076487D01*
X288658131Y-149005800D01*
X288623309Y-148940653D01*
X288576448Y-148883552D01*
X288519347Y-148836691D01*
X288454200Y-148801869D01*
X288383513Y-148780426D01*
X288310000Y-148773186D01*
X288018195Y-148773186D01*
X288017010Y-148769279D01*
X287961296Y-148665045D01*
X287886317Y-148573683D01*
X287863419Y-148554891D01*
X282655113Y-143346586D01*
X282636317Y-143323683D01*
X282544955Y-143248704D01*
X282440721Y-143192990D01*
X282327621Y-143158682D01*
X282239474Y-143150000D01*
X282210000Y-143147097D01*
X282180526Y-143150000D01*
X243779476Y-143150000D01*
X243750000Y-143147097D01*
X243632379Y-143158681D01*
X243519279Y-143192990D01*
X243415045Y-143248704D01*
X243323683Y-143323683D01*
X243304891Y-143346581D01*
X236596586Y-150054887D01*
X236573683Y-150073683D01*
X236554894Y-150096578D01*
X231751473Y-154900000D01*
X228407002Y-154900000D01*
X228343416Y-154857513D01*
X228211475Y-154802861D01*
X228071406Y-154775000D01*
X227928594Y-154775000D01*
X227788525Y-154802861D01*
X227656584Y-154857513D01*
X227537839Y-154936856D01*
X227436856Y-155037839D01*
X227357513Y-155156584D01*
X227302861Y-155288525D01*
X227275000Y-155428594D01*
X227275000Y-155571406D01*
X227302861Y-155711475D01*
X227357513Y-155843416D01*
X227436856Y-155962161D01*
X227537839Y-156063144D01*
X227656584Y-156142487D01*
X227788525Y-156197139D01*
X227928594Y-156225000D01*
X228071406Y-156225000D01*
X228211475Y-156197139D01*
X228343416Y-156142487D01*
X228407002Y-156100000D01*
X230551472Y-156100000D01*
X226597085Y-160054388D01*
X226574182Y-160073184D01*
X226499203Y-160164547D01*
X226443489Y-160268781D01*
X226423044Y-160336180D01*
X226409181Y-160381881D01*
X226397596Y-160499501D01*
X226400499Y-160528975D01*
X226400500Y-164716448D01*
X226397097Y-164750998D01*
X226400000Y-164780472D01*
X226400001Y-169720526D01*
X226400001Y-171470522D01*
X226400000Y-171470527D01*
X226400000Y-173220526D01*
X226397097Y-173250000D01*
X226400000Y-173279473D01*
X226400001Y-173279478D01*
X226400001Y-174592997D01*
X226357513Y-174656584D01*
X226302861Y-174788525D01*
X226275000Y-174928594D01*
X226275000Y-175071406D01*
X226302861Y-175211475D01*
X226357513Y-175343416D01*
X226436856Y-175462161D01*
X226537839Y-175563144D01*
X226656584Y-175642487D01*
X226788525Y-175697139D01*
X226928594Y-175725000D01*
X227071406Y-175725000D01*
X227211475Y-175697139D01*
X227343416Y-175642487D01*
X227462161Y-175563144D01*
X227563144Y-175462161D01*
X227642487Y-175343416D01*
X227697139Y-175211475D01*
X227725000Y-175071406D01*
X227725000Y-174928594D01*
X227698912Y-174797440D01*
X229054891Y-176153419D01*
X229073683Y-176176317D01*
X229165045Y-176251296D01*
X229269279Y-176307010D01*
X229382379Y-176341318D01*
X229500000Y-176352903D01*
X229529474Y-176350000D01*
X235592998Y-176350000D01*
X235656584Y-176392487D01*
X235788525Y-176447139D01*
X235928594Y-176475000D01*
X236071406Y-176475000D01*
X236211475Y-176447139D01*
X236343416Y-176392487D01*
X236462161Y-176313144D01*
X236563144Y-176212161D01*
X236642487Y-176093416D01*
X236697139Y-175961475D01*
X236725000Y-175821406D01*
X236725000Y-175678594D01*
X236697139Y-175538525D01*
X236642487Y-175406584D01*
X236563144Y-175287839D01*
X236462161Y-175186856D01*
X236343416Y-175107513D01*
X236211475Y-175052861D01*
X236071406Y-175025000D01*
X235928594Y-175025000D01*
X235788525Y-175052861D01*
X235656584Y-175107513D01*
X235592998Y-175150000D01*
X229748528Y-175150000D01*
X227600000Y-173001473D01*
X227600000Y-171428594D01*
X232275000Y-171428594D01*
X232275000Y-171571406D01*
X232302861Y-171711475D01*
X232357513Y-171843416D01*
X232436856Y-171962161D01*
X232537839Y-172063144D01*
X232656584Y-172142487D01*
X232788525Y-172197139D01*
X232928594Y-172225000D01*
X233071406Y-172225000D01*
X233211475Y-172197139D01*
X233343416Y-172142487D01*
X233462161Y-172063144D01*
X233563144Y-171962161D01*
X233642487Y-171843416D01*
X233697139Y-171711475D01*
X233725000Y-171571406D01*
X233725000Y-171428594D01*
X233697139Y-171288525D01*
X233642487Y-171156584D01*
X233600000Y-171092998D01*
X233600000Y-170663820D01*
X243375000Y-170663820D01*
X243375000Y-170836180D01*
X243408626Y-171005228D01*
X243474585Y-171164468D01*
X243570343Y-171307780D01*
X243692220Y-171429657D01*
X243835532Y-171525415D01*
X243994772Y-171591374D01*
X244163820Y-171625000D01*
X244336180Y-171625000D01*
X244505228Y-171591374D01*
X244664468Y-171525415D01*
X244807780Y-171429657D01*
X244929657Y-171307780D01*
X245025415Y-171164468D01*
X245091374Y-171005228D01*
X245125000Y-170836180D01*
X245125000Y-170663820D01*
X245091374Y-170494772D01*
X245025415Y-170335532D01*
X244929657Y-170192220D01*
X244807780Y-170070343D01*
X244664468Y-169974585D01*
X244505228Y-169908626D01*
X244336180Y-169875000D01*
X244163820Y-169875000D01*
X243994772Y-169908626D01*
X243835532Y-169974585D01*
X243692220Y-170070343D01*
X243570343Y-170192220D01*
X243474585Y-170335532D01*
X243408626Y-170494772D01*
X243375000Y-170663820D01*
X233600000Y-170663820D01*
X233600000Y-168413820D01*
X268625000Y-168413820D01*
X268625000Y-168586180D01*
X268658626Y-168755228D01*
X268724585Y-168914468D01*
X268820343Y-169057780D01*
X268942220Y-169179657D01*
X269085532Y-169275415D01*
X269244772Y-169341374D01*
X269413820Y-169375000D01*
X269586180Y-169375000D01*
X269755228Y-169341374D01*
X269914468Y-169275415D01*
X270057780Y-169179657D01*
X270179657Y-169057780D01*
X270275415Y-168914468D01*
X270341374Y-168755228D01*
X270375000Y-168586180D01*
X270375000Y-168413820D01*
X270341374Y-168244772D01*
X270275415Y-168085532D01*
X270179657Y-167942220D01*
X270057780Y-167820343D01*
X269914468Y-167724585D01*
X269755228Y-167658626D01*
X269586180Y-167625000D01*
X269413820Y-167625000D01*
X269244772Y-167658626D01*
X269085532Y-167724585D01*
X268942220Y-167820343D01*
X268820343Y-167942220D01*
X268724585Y-168085532D01*
X268658626Y-168244772D01*
X268625000Y-168413820D01*
X233600000Y-168413820D01*
X233600000Y-167748527D01*
X234434707Y-166913820D01*
X243375000Y-166913820D01*
X243375000Y-167086180D01*
X243408626Y-167255228D01*
X243474585Y-167414468D01*
X243570343Y-167557780D01*
X243692220Y-167679657D01*
X243835532Y-167775415D01*
X243994772Y-167841374D01*
X244163820Y-167875000D01*
X244336180Y-167875000D01*
X244505228Y-167841374D01*
X244664468Y-167775415D01*
X244807780Y-167679657D01*
X244929657Y-167557780D01*
X245025415Y-167414468D01*
X245091374Y-167255228D01*
X245125000Y-167086180D01*
X245125000Y-166913820D01*
X245091374Y-166744772D01*
X245025415Y-166585532D01*
X244929657Y-166442220D01*
X244807780Y-166320343D01*
X244664468Y-166224585D01*
X244505228Y-166158626D01*
X244336180Y-166125000D01*
X244163820Y-166125000D01*
X243994772Y-166158626D01*
X243835532Y-166224585D01*
X243692220Y-166320343D01*
X243570343Y-166442220D01*
X243474585Y-166585532D01*
X243408626Y-166744772D01*
X243375000Y-166913820D01*
X234434707Y-166913820D01*
X235434707Y-165913820D01*
X268625000Y-165913820D01*
X268625000Y-166086180D01*
X268658626Y-166255228D01*
X268724585Y-166414468D01*
X268820343Y-166557780D01*
X268942220Y-166679657D01*
X269085532Y-166775415D01*
X269244772Y-166841374D01*
X269413820Y-166875000D01*
X269586180Y-166875000D01*
X269755228Y-166841374D01*
X269914468Y-166775415D01*
X270057780Y-166679657D01*
X270179657Y-166557780D01*
X270275415Y-166414468D01*
X270341374Y-166255228D01*
X270375000Y-166086180D01*
X270375000Y-165913820D01*
X270341374Y-165744772D01*
X270275415Y-165585532D01*
X270179657Y-165442220D01*
X270057780Y-165320343D01*
X269914468Y-165224585D01*
X269755228Y-165158626D01*
X269586180Y-165125000D01*
X269413820Y-165125000D01*
X269244772Y-165158626D01*
X269085532Y-165224585D01*
X268942220Y-165320343D01*
X268820343Y-165442220D01*
X268724585Y-165585532D01*
X268658626Y-165744772D01*
X268625000Y-165913820D01*
X235434707Y-165913820D01*
X237934707Y-163413820D01*
X243375000Y-163413820D01*
X243375000Y-163586180D01*
X243408626Y-163755228D01*
X243474585Y-163914468D01*
X243570343Y-164057780D01*
X243692220Y-164179657D01*
X243835532Y-164275415D01*
X243994772Y-164341374D01*
X244163820Y-164375000D01*
X244336180Y-164375000D01*
X244505228Y-164341374D01*
X244664468Y-164275415D01*
X244807780Y-164179657D01*
X244929657Y-164057780D01*
X245025415Y-163914468D01*
X245091374Y-163755228D01*
X245125000Y-163586180D01*
X245125000Y-163413820D01*
X245091374Y-163244772D01*
X245025415Y-163085532D01*
X244929657Y-162942220D01*
X244807780Y-162820343D01*
X244664468Y-162724585D01*
X244505228Y-162658626D01*
X244336180Y-162625000D01*
X244163820Y-162625000D01*
X243994772Y-162658626D01*
X243835532Y-162724585D01*
X243692220Y-162820343D01*
X243570343Y-162942220D01*
X243474585Y-163085532D01*
X243408626Y-163244772D01*
X243375000Y-163413820D01*
X237934707Y-163413820D01*
X241434707Y-159913820D01*
X243375000Y-159913820D01*
X243375000Y-160086180D01*
X243408626Y-160255228D01*
X243474585Y-160414468D01*
X243570343Y-160557780D01*
X243692220Y-160679657D01*
X243835532Y-160775415D01*
X243994772Y-160841374D01*
X244163820Y-160875000D01*
X244336180Y-160875000D01*
X244505228Y-160841374D01*
X244664468Y-160775415D01*
X244807780Y-160679657D01*
X244929657Y-160557780D01*
X245025415Y-160414468D01*
X245091374Y-160255228D01*
X245109556Y-160163820D01*
X249875000Y-160163820D01*
X249875000Y-160336180D01*
X249908626Y-160505228D01*
X249974585Y-160664468D01*
X250070343Y-160807780D01*
X250192220Y-160929657D01*
X250335532Y-161025415D01*
X250494772Y-161091374D01*
X250663820Y-161125000D01*
X250836180Y-161125000D01*
X251005228Y-161091374D01*
X251164468Y-161025415D01*
X251307780Y-160929657D01*
X251429657Y-160807780D01*
X251525415Y-160664468D01*
X251591374Y-160505228D01*
X251625000Y-160336180D01*
X251625000Y-160163820D01*
X251591374Y-159994772D01*
X251525415Y-159835532D01*
X251429657Y-159692220D01*
X251307780Y-159570343D01*
X251164468Y-159474585D01*
X251005228Y-159408626D01*
X250836180Y-159375000D01*
X250663820Y-159375000D01*
X250494772Y-159408626D01*
X250335532Y-159474585D01*
X250192220Y-159570343D01*
X250070343Y-159692220D01*
X249974585Y-159835532D01*
X249908626Y-159994772D01*
X249875000Y-160163820D01*
X245109556Y-160163820D01*
X245125000Y-160086180D01*
X245125000Y-159913820D01*
X245091374Y-159744772D01*
X245025415Y-159585532D01*
X244929657Y-159442220D01*
X244807780Y-159320343D01*
X244664468Y-159224585D01*
X244505228Y-159158626D01*
X244336180Y-159125000D01*
X244163820Y-159125000D01*
X243994772Y-159158626D01*
X243835532Y-159224585D01*
X243692220Y-159320343D01*
X243570343Y-159442220D01*
X243474585Y-159585532D01*
X243408626Y-159744772D01*
X243375000Y-159913820D01*
X241434707Y-159913820D01*
X243934707Y-157413820D01*
X252375000Y-157413820D01*
X252375000Y-157586180D01*
X252408626Y-157755228D01*
X252474585Y-157914468D01*
X252570343Y-158057780D01*
X252692220Y-158179657D01*
X252835532Y-158275415D01*
X252994772Y-158341374D01*
X253163820Y-158375000D01*
X253336180Y-158375000D01*
X253505228Y-158341374D01*
X253664468Y-158275415D01*
X253807780Y-158179657D01*
X253929657Y-158057780D01*
X254025415Y-157914468D01*
X254091374Y-157755228D01*
X254125000Y-157586180D01*
X254125000Y-157413820D01*
X254091374Y-157244772D01*
X254025415Y-157085532D01*
X253929657Y-156942220D01*
X253807780Y-156820343D01*
X253664468Y-156724585D01*
X253505228Y-156658626D01*
X253336180Y-156625000D01*
X253163820Y-156625000D01*
X252994772Y-156658626D01*
X252835532Y-156724585D01*
X252692220Y-156820343D01*
X252570343Y-156942220D01*
X252474585Y-157085532D01*
X252408626Y-157244772D01*
X252375000Y-157413820D01*
X243934707Y-157413820D01*
X250748529Y-150600000D01*
X273233186Y-150600000D01*
X273233186Y-150850000D01*
X273240426Y-150923513D01*
X273261869Y-150994200D01*
X273296691Y-151059347D01*
X273343552Y-151116448D01*
X273400653Y-151163309D01*
X273465800Y-151198131D01*
X273536487Y-151219574D01*
X273610000Y-151226814D01*
X275310000Y-151226814D01*
X275383513Y-151219574D01*
X275454200Y-151198131D01*
X275519347Y-151163309D01*
X275576448Y-151116448D01*
X275623309Y-151059347D01*
X275658131Y-150994200D01*
X275679574Y-150923513D01*
X275686814Y-150850000D01*
X275686814Y-150314094D01*
X275815945Y-150314094D01*
X275899973Y-150539056D01*
X276026274Y-150743303D01*
X276189995Y-150918985D01*
X276384844Y-151059351D01*
X276603333Y-151159007D01*
X276685907Y-151184049D01*
X276875000Y-151124323D01*
X276875000Y-150125000D01*
X277125000Y-150125000D01*
X277125000Y-151124323D01*
X277314093Y-151184049D01*
X277396667Y-151159007D01*
X277615156Y-151059351D01*
X277810005Y-150918985D01*
X277973726Y-150743303D01*
X278100027Y-150539056D01*
X278184055Y-150314094D01*
X278124862Y-150125000D01*
X277125000Y-150125000D01*
X276875000Y-150125000D01*
X275875138Y-150125000D01*
X275815945Y-150314094D01*
X275686814Y-150314094D01*
X275686814Y-149685906D01*
X275815945Y-149685906D01*
X275875138Y-149875000D01*
X276875000Y-149875000D01*
X276875000Y-148875677D01*
X276685907Y-148815951D01*
X276603333Y-148840993D01*
X276384844Y-148940649D01*
X276189995Y-149081015D01*
X276026274Y-149256697D01*
X275899973Y-149460944D01*
X275815945Y-149685906D01*
X275686814Y-149685906D01*
X275686814Y-149150000D01*
X275679574Y-149076487D01*
X275658131Y-149005800D01*
X275623309Y-148940653D01*
X275576448Y-148883552D01*
X275519347Y-148836691D01*
X275454200Y-148801869D01*
X275383513Y-148780426D01*
X275310000Y-148773186D01*
X273610000Y-148773186D01*
X273536487Y-148780426D01*
X273465800Y-148801869D01*
X273400653Y-148836691D01*
X273343552Y-148883552D01*
X273296691Y-148940653D01*
X273261869Y-149005800D01*
X273240426Y-149076487D01*
X273233186Y-149150000D01*
X273233186Y-149400000D01*
X250529473Y-149400000D01*
X250499999Y-149397097D01*
X250382378Y-149408682D01*
X250348070Y-149419089D01*
X250269279Y-149442990D01*
X250165045Y-149498704D01*
X250073683Y-149573683D01*
X250054896Y-149596575D01*
X232596586Y-167054887D01*
X232573683Y-167073683D01*
X232498704Y-167165046D01*
X232442990Y-167269280D01*
X232408682Y-167382379D01*
X232408682Y-167382380D01*
X232397097Y-167500000D01*
X232400000Y-167529474D01*
X232400001Y-171092996D01*
X232357513Y-171156584D01*
X232302861Y-171288525D01*
X232275000Y-171428594D01*
X227600000Y-171428594D01*
X227600000Y-164785039D01*
X227600499Y-164779973D01*
X227603402Y-164750499D01*
X227600499Y-164721025D01*
X227600499Y-160928594D01*
X231025000Y-160928594D01*
X231025000Y-161071406D01*
X231052861Y-161211475D01*
X231107513Y-161343416D01*
X231186856Y-161462161D01*
X231287839Y-161563144D01*
X231406584Y-161642487D01*
X231538525Y-161697139D01*
X231678594Y-161725000D01*
X231821406Y-161725000D01*
X231961475Y-161697139D01*
X232093416Y-161642487D01*
X232157002Y-161600000D01*
X234720526Y-161600000D01*
X234750000Y-161602903D01*
X234779474Y-161600000D01*
X234867621Y-161591318D01*
X234980721Y-161557010D01*
X235084955Y-161501296D01*
X235176317Y-161426317D01*
X235195113Y-161403414D01*
X249248528Y-147350000D01*
X276001473Y-147350000D01*
X277304896Y-148653425D01*
X277323683Y-148676317D01*
X277415045Y-148751296D01*
X277474603Y-148783131D01*
X277675831Y-148984358D01*
X277615156Y-148940649D01*
X277396667Y-148840993D01*
X277314093Y-148815951D01*
X277125000Y-148875677D01*
X277125000Y-149875000D01*
X278124862Y-149875000D01*
X278184055Y-149685906D01*
X278100027Y-149460944D01*
X278015137Y-149323664D01*
X278360330Y-149668857D01*
X278332725Y-149759858D01*
X278309073Y-150000000D01*
X278332725Y-150240142D01*
X278402772Y-150471055D01*
X278516522Y-150683866D01*
X278669603Y-150870397D01*
X278856134Y-151023478D01*
X279068945Y-151137228D01*
X279299858Y-151207275D01*
X279479822Y-151225000D01*
X279600178Y-151225000D01*
X279780142Y-151207275D01*
X280011055Y-151137228D01*
X280223866Y-151023478D01*
X280410397Y-150870397D01*
X280563478Y-150683866D01*
X280677228Y-150471055D01*
X280747275Y-150240142D01*
X280770927Y-150000000D01*
X280747275Y-149759858D01*
X280677228Y-149528945D01*
X280563478Y-149316134D01*
X280410397Y-149129603D01*
X280223866Y-148976522D01*
X280011055Y-148862772D01*
X279780142Y-148792725D01*
X279600178Y-148775000D01*
X279479822Y-148775000D01*
X279299858Y-148792725D01*
X279208857Y-148820330D01*
X278235113Y-147846586D01*
X278216317Y-147823683D01*
X278124955Y-147748704D01*
X278065400Y-147716872D01*
X276695113Y-146346586D01*
X276676317Y-146323683D01*
X276584955Y-146248704D01*
X276480721Y-146192990D01*
X276367621Y-146158682D01*
X276279474Y-146150000D01*
X276250000Y-146147097D01*
X276220526Y-146150000D01*
X249029473Y-146150000D01*
X248999999Y-146147097D01*
X248882378Y-146158682D01*
X248848070Y-146169089D01*
X248769279Y-146192990D01*
X248665045Y-146248704D01*
X248573683Y-146323683D01*
X248554891Y-146346581D01*
X234501473Y-160400000D01*
X232157002Y-160400000D01*
X232093416Y-160357513D01*
X231961475Y-160302861D01*
X231821406Y-160275000D01*
X231678594Y-160275000D01*
X231538525Y-160302861D01*
X231406584Y-160357513D01*
X231287839Y-160436856D01*
X231186856Y-160537839D01*
X231107513Y-160656584D01*
X231052861Y-160788525D01*
X231025000Y-160928594D01*
X227600499Y-160928594D01*
X227600499Y-160748028D01*
X232403419Y-155945109D01*
X232426317Y-155926317D01*
X232445113Y-155903414D01*
X236400000Y-151948527D01*
X236400001Y-154092996D01*
X236357513Y-154156584D01*
X236302861Y-154288525D01*
X236275000Y-154428594D01*
X236275000Y-154571406D01*
X236302861Y-154711475D01*
X236357513Y-154843416D01*
X236436856Y-154962161D01*
X236537839Y-155063144D01*
X236656584Y-155142487D01*
X236788525Y-155197139D01*
X236928594Y-155225000D01*
X237071406Y-155225000D01*
X237211475Y-155197139D01*
X237343416Y-155142487D01*
X237462161Y-155063144D01*
X237563144Y-154962161D01*
X237642487Y-154843416D01*
X237697139Y-154711475D01*
X237725000Y-154571406D01*
X237725000Y-154428594D01*
X237697139Y-154288525D01*
X237642487Y-154156584D01*
X237600000Y-154092998D01*
X237600000Y-150748527D01*
X243998528Y-144350000D01*
X281961473Y-144350000D01*
X286431614Y-148820142D01*
X286400653Y-148836691D01*
X286343552Y-148883552D01*
X286296691Y-148940653D01*
X286261869Y-149005800D01*
X286240426Y-149076487D01*
X286233186Y-149150000D01*
X286233186Y-150850000D01*
X286240426Y-150923513D01*
X286261869Y-150994200D01*
X286296691Y-151059347D01*
X286343552Y-151116448D01*
X286400653Y-151163309D01*
X286465800Y-151198131D01*
X286536487Y-151219574D01*
X286610000Y-151226814D01*
X286860000Y-151226814D01*
X286860001Y-154790473D01*
X278250974Y-163399501D01*
X268999027Y-163399501D01*
X267296110Y-161696585D01*
X267277314Y-161673682D01*
X267248850Y-161650322D01*
X267212058Y-161613530D01*
X267197139Y-161538525D01*
X267142487Y-161406584D01*
X267063144Y-161287839D01*
X266962161Y-161186856D01*
X266843416Y-161107513D01*
X266711475Y-161052861D01*
X266571406Y-161025000D01*
X266428594Y-161025000D01*
X266288525Y-161052861D01*
X266156584Y-161107513D01*
X266037839Y-161186856D01*
X265936856Y-161287839D01*
X265857513Y-161406584D01*
X265802861Y-161538525D01*
X265775000Y-161678594D01*
X265775000Y-161821406D01*
X265802861Y-161961475D01*
X265857513Y-162093416D01*
X265936856Y-162212161D01*
X266037839Y-162313144D01*
X266156584Y-162392487D01*
X266288525Y-162447139D01*
X266363530Y-162462058D01*
X266404890Y-162503418D01*
X266423682Y-162526316D01*
X266452151Y-162549680D01*
X267301972Y-163399501D01*
X262248030Y-163399501D01*
X261295108Y-162446581D01*
X261295104Y-162446576D01*
X261212058Y-162363530D01*
X261197139Y-162288525D01*
X261142487Y-162156584D01*
X261063144Y-162037839D01*
X260962161Y-161936856D01*
X260843416Y-161857513D01*
X260711475Y-161802861D01*
X260571406Y-161775000D01*
X260428594Y-161775000D01*
X260288525Y-161802861D01*
X260156584Y-161857513D01*
X260037839Y-161936856D01*
X259936856Y-162037839D01*
X259857513Y-162156584D01*
X259802861Y-162288525D01*
X259775000Y-162428594D01*
X259775000Y-162571406D01*
X259802861Y-162711475D01*
X259857513Y-162843416D01*
X259936856Y-162962161D01*
X260037839Y-163063144D01*
X260156584Y-163142487D01*
X260288525Y-163197139D01*
X260363530Y-163212058D01*
X260446576Y-163295104D01*
X260446581Y-163295108D01*
X260550974Y-163399501D01*
X256498029Y-163399501D01*
X256462058Y-163363531D01*
X256447139Y-163288525D01*
X256392487Y-163156584D01*
X256313144Y-163037839D01*
X256212161Y-162936856D01*
X256093416Y-162857513D01*
X255961475Y-162802861D01*
X255821406Y-162775000D01*
X255678594Y-162775000D01*
X255538525Y-162802861D01*
X255406584Y-162857513D01*
X255287839Y-162936856D01*
X255186856Y-163037839D01*
X255107513Y-163156584D01*
X255052861Y-163288525D01*
X255025000Y-163428594D01*
X255025000Y-163571406D01*
X255052861Y-163711475D01*
X255107513Y-163843416D01*
X255186856Y-163962161D01*
X255287839Y-164063144D01*
X255406584Y-164142487D01*
X255538525Y-164197139D01*
X255613531Y-164212058D01*
X255804392Y-164402920D01*
X255823184Y-164425818D01*
X255914546Y-164500797D01*
X256018780Y-164556511D01*
X256127871Y-164589603D01*
X256131880Y-164590819D01*
X256249500Y-164602404D01*
X256278974Y-164599501D01*
X261970026Y-164599501D01*
X261999500Y-164602404D01*
X262028974Y-164599501D01*
X268721032Y-164599501D01*
X268750498Y-164602403D01*
X268779964Y-164599501D01*
X277050973Y-164599501D01*
X250345589Y-191304886D01*
X250345578Y-191304895D01*
X249000475Y-192650000D01*
X228529474Y-192650000D01*
X228500000Y-192647097D01*
X228470526Y-192650000D01*
X211907002Y-192650000D01*
X211843416Y-192607513D01*
X211711475Y-192552861D01*
X211571406Y-192525000D01*
X211428594Y-192525000D01*
X211288525Y-192552861D01*
X211156584Y-192607513D01*
X211037839Y-192686856D01*
X210936856Y-192787839D01*
X210857513Y-192906584D01*
X210802861Y-193038525D01*
X210775000Y-193178594D01*
X201125000Y-193178594D01*
X201125000Y-190913820D01*
X216875000Y-190913820D01*
X216875000Y-191086180D01*
X216908626Y-191255228D01*
X216974585Y-191414468D01*
X217070343Y-191557780D01*
X217192220Y-191679657D01*
X217335532Y-191775415D01*
X217494772Y-191841374D01*
X217663820Y-191875000D01*
X217836180Y-191875000D01*
X218005228Y-191841374D01*
X218164468Y-191775415D01*
X218307780Y-191679657D01*
X218429657Y-191557780D01*
X218525415Y-191414468D01*
X218591374Y-191255228D01*
X218625000Y-191086180D01*
X218625000Y-190913820D01*
X218591374Y-190744772D01*
X218525415Y-190585532D01*
X218429657Y-190442220D01*
X218401257Y-190413820D01*
X225125000Y-190413820D01*
X225125000Y-190586180D01*
X225158626Y-190755228D01*
X225224585Y-190914468D01*
X225320343Y-191057780D01*
X225442220Y-191179657D01*
X225585532Y-191275415D01*
X225744772Y-191341374D01*
X225913820Y-191375000D01*
X226086180Y-191375000D01*
X226255228Y-191341374D01*
X226414468Y-191275415D01*
X226557780Y-191179657D01*
X226679657Y-191057780D01*
X226775415Y-190914468D01*
X226841374Y-190755228D01*
X226875000Y-190586180D01*
X226875000Y-190413820D01*
X226841374Y-190244772D01*
X226775415Y-190085532D01*
X226679657Y-189942220D01*
X226557780Y-189820343D01*
X226414468Y-189724585D01*
X226255228Y-189658626D01*
X226086180Y-189625000D01*
X225913820Y-189625000D01*
X225744772Y-189658626D01*
X225585532Y-189724585D01*
X225442220Y-189820343D01*
X225320343Y-189942220D01*
X225224585Y-190085532D01*
X225158626Y-190244772D01*
X225125000Y-190413820D01*
X218401257Y-190413820D01*
X218307780Y-190320343D01*
X218164468Y-190224585D01*
X218005228Y-190158626D01*
X217836180Y-190125000D01*
X217663820Y-190125000D01*
X217494772Y-190158626D01*
X217335532Y-190224585D01*
X217192220Y-190320343D01*
X217070343Y-190442220D01*
X216974585Y-190585532D01*
X216908626Y-190744772D01*
X216875000Y-190913820D01*
X201125000Y-190913820D01*
X201125000Y-187663820D01*
X225125000Y-187663820D01*
X225125000Y-187836180D01*
X225158626Y-188005228D01*
X225224585Y-188164468D01*
X225320343Y-188307780D01*
X225442220Y-188429657D01*
X225585532Y-188525415D01*
X225744772Y-188591374D01*
X225913820Y-188625000D01*
X226086180Y-188625000D01*
X226255228Y-188591374D01*
X226414468Y-188525415D01*
X226557780Y-188429657D01*
X226679657Y-188307780D01*
X226775415Y-188164468D01*
X226841374Y-188005228D01*
X226875000Y-187836180D01*
X226875000Y-187663820D01*
X226841374Y-187494772D01*
X226775415Y-187335532D01*
X226679657Y-187192220D01*
X226557780Y-187070343D01*
X226414468Y-186974585D01*
X226255228Y-186908626D01*
X226086180Y-186875000D01*
X225913820Y-186875000D01*
X225744772Y-186908626D01*
X225585532Y-186974585D01*
X225442220Y-187070343D01*
X225320343Y-187192220D01*
X225224585Y-187335532D01*
X225158626Y-187494772D01*
X225125000Y-187663820D01*
X201125000Y-187663820D01*
X201125000Y-177780010D01*
X214396766Y-177780010D01*
X214555339Y-178012878D01*
X214868638Y-178168103D01*
X215206201Y-178259223D01*
X215555053Y-178282737D01*
X215901790Y-178237742D01*
X216233087Y-178125967D01*
X216444661Y-178012878D01*
X216603234Y-177780010D01*
X215500000Y-176676777D01*
X214396766Y-177780010D01*
X201125000Y-177780010D01*
X201125000Y-176555053D01*
X213717263Y-176555053D01*
X213762258Y-176901790D01*
X213874033Y-177233087D01*
X213987122Y-177444661D01*
X214219990Y-177603234D01*
X215323223Y-176500000D01*
X215676777Y-176500000D01*
X216780010Y-177603234D01*
X217012878Y-177444661D01*
X217168103Y-177131362D01*
X217259223Y-176793799D01*
X217282737Y-176444947D01*
X217237742Y-176098210D01*
X217125967Y-175766913D01*
X217012878Y-175555339D01*
X216780010Y-175396766D01*
X215676777Y-176500000D01*
X215323223Y-176500000D01*
X214219990Y-175396766D01*
X213987122Y-175555339D01*
X213831897Y-175868638D01*
X213740777Y-176206201D01*
X213717263Y-176555053D01*
X201125000Y-176555053D01*
X201125000Y-175219990D01*
X214396766Y-175219990D01*
X215500000Y-176323223D01*
X216603234Y-175219990D01*
X216444661Y-174987122D01*
X216131362Y-174831897D01*
X215793799Y-174740777D01*
X215444947Y-174717263D01*
X215098210Y-174762258D01*
X214766913Y-174874033D01*
X214555339Y-174987122D01*
X214396766Y-175219990D01*
X201125000Y-175219990D01*
X201125000Y-167150000D01*
X208773186Y-167150000D01*
X208773186Y-168850000D01*
X208780426Y-168923513D01*
X208801869Y-168994200D01*
X208836691Y-169059347D01*
X208883552Y-169116448D01*
X208940653Y-169163309D01*
X209005800Y-169198131D01*
X209076487Y-169219574D01*
X209150000Y-169226814D01*
X210850000Y-169226814D01*
X210923513Y-169219574D01*
X210994200Y-169198131D01*
X211059347Y-169163309D01*
X211116448Y-169116448D01*
X211163309Y-169059347D01*
X211198131Y-168994200D01*
X211219574Y-168923513D01*
X211226814Y-168850000D01*
X211226814Y-167913820D01*
X217625000Y-167913820D01*
X217625000Y-168086180D01*
X217658626Y-168255228D01*
X217724585Y-168414468D01*
X217820343Y-168557780D01*
X217942220Y-168679657D01*
X218085532Y-168775415D01*
X218244772Y-168841374D01*
X218413820Y-168875000D01*
X218586180Y-168875000D01*
X218755228Y-168841374D01*
X218914468Y-168775415D01*
X219057780Y-168679657D01*
X219179657Y-168557780D01*
X219275415Y-168414468D01*
X219341374Y-168255228D01*
X219375000Y-168086180D01*
X219375000Y-167913820D01*
X219341374Y-167744772D01*
X219275415Y-167585532D01*
X219179657Y-167442220D01*
X219057780Y-167320343D01*
X218914468Y-167224585D01*
X218755228Y-167158626D01*
X218586180Y-167125000D01*
X218413820Y-167125000D01*
X218244772Y-167158626D01*
X218085532Y-167224585D01*
X217942220Y-167320343D01*
X217820343Y-167442220D01*
X217724585Y-167585532D01*
X217658626Y-167744772D01*
X217625000Y-167913820D01*
X211226814Y-167913820D01*
X211226814Y-167150000D01*
X211219574Y-167076487D01*
X211198131Y-167005800D01*
X211163309Y-166940653D01*
X211116448Y-166883552D01*
X211059347Y-166836691D01*
X210994200Y-166801869D01*
X210923513Y-166780426D01*
X210850000Y-166773186D01*
X209150000Y-166773186D01*
X209076487Y-166780426D01*
X209005800Y-166801869D01*
X208940653Y-166836691D01*
X208883552Y-166883552D01*
X208836691Y-166940653D01*
X208801869Y-167005800D01*
X208780426Y-167076487D01*
X208773186Y-167150000D01*
X201125000Y-167150000D01*
X201125000Y-165460000D01*
X208769073Y-165460000D01*
X208792725Y-165700142D01*
X208862772Y-165931055D01*
X208976522Y-166143866D01*
X209129603Y-166330397D01*
X209316134Y-166483478D01*
X209528945Y-166597228D01*
X209759858Y-166667275D01*
X209939822Y-166685000D01*
X210060178Y-166685000D01*
X210240142Y-166667275D01*
X210471055Y-166597228D01*
X210683866Y-166483478D01*
X210870397Y-166330397D01*
X211023478Y-166143866D01*
X211137228Y-165931055D01*
X211207275Y-165700142D01*
X211230927Y-165460000D01*
X211226379Y-165413820D01*
X217625000Y-165413820D01*
X217625000Y-165586180D01*
X217658626Y-165755228D01*
X217724585Y-165914468D01*
X217820343Y-166057780D01*
X217942220Y-166179657D01*
X218085532Y-166275415D01*
X218244772Y-166341374D01*
X218413820Y-166375000D01*
X218586180Y-166375000D01*
X218755228Y-166341374D01*
X218914468Y-166275415D01*
X219057780Y-166179657D01*
X219179657Y-166057780D01*
X219275415Y-165914468D01*
X219341374Y-165755228D01*
X219375000Y-165586180D01*
X219375000Y-165413820D01*
X219341374Y-165244772D01*
X219275415Y-165085532D01*
X219179657Y-164942220D01*
X219057780Y-164820343D01*
X218914468Y-164724585D01*
X218755228Y-164658626D01*
X218586180Y-164625000D01*
X218413820Y-164625000D01*
X218244772Y-164658626D01*
X218085532Y-164724585D01*
X217942220Y-164820343D01*
X217820343Y-164942220D01*
X217724585Y-165085532D01*
X217658626Y-165244772D01*
X217625000Y-165413820D01*
X211226379Y-165413820D01*
X211207275Y-165219858D01*
X211137228Y-164988945D01*
X211023478Y-164776134D01*
X210870397Y-164589603D01*
X210683866Y-164436522D01*
X210471055Y-164322772D01*
X210240142Y-164252725D01*
X210060178Y-164235000D01*
X209939822Y-164235000D01*
X209759858Y-164252725D01*
X209528945Y-164322772D01*
X209316134Y-164436522D01*
X209129603Y-164589603D01*
X208976522Y-164776134D01*
X208862772Y-164988945D01*
X208792725Y-165219858D01*
X208769073Y-165460000D01*
X201125000Y-165460000D01*
X201125000Y-162920000D01*
X208769073Y-162920000D01*
X208792725Y-163160142D01*
X208862772Y-163391055D01*
X208976522Y-163603866D01*
X209129603Y-163790397D01*
X209316134Y-163943478D01*
X209528945Y-164057228D01*
X209759858Y-164127275D01*
X209939822Y-164145000D01*
X210060178Y-164145000D01*
X210240142Y-164127275D01*
X210471055Y-164057228D01*
X210683866Y-163943478D01*
X210870397Y-163790397D01*
X211023478Y-163603866D01*
X211137228Y-163391055D01*
X211207275Y-163160142D01*
X211230927Y-162920000D01*
X211230319Y-162913820D01*
X217625000Y-162913820D01*
X217625000Y-163086180D01*
X217658626Y-163255228D01*
X217724585Y-163414468D01*
X217820343Y-163557780D01*
X217942220Y-163679657D01*
X218085532Y-163775415D01*
X218244772Y-163841374D01*
X218413820Y-163875000D01*
X218586180Y-163875000D01*
X218755228Y-163841374D01*
X218914468Y-163775415D01*
X219057780Y-163679657D01*
X219179657Y-163557780D01*
X219275415Y-163414468D01*
X219341374Y-163255228D01*
X219375000Y-163086180D01*
X219375000Y-162913820D01*
X219341374Y-162744772D01*
X219275415Y-162585532D01*
X219179657Y-162442220D01*
X219057780Y-162320343D01*
X218914468Y-162224585D01*
X218755228Y-162158626D01*
X218586180Y-162125000D01*
X218413820Y-162125000D01*
X218244772Y-162158626D01*
X218085532Y-162224585D01*
X217942220Y-162320343D01*
X217820343Y-162442220D01*
X217724585Y-162585532D01*
X217658626Y-162744772D01*
X217625000Y-162913820D01*
X211230319Y-162913820D01*
X211207275Y-162679858D01*
X211137228Y-162448945D01*
X211023478Y-162236134D01*
X210870397Y-162049603D01*
X210683866Y-161896522D01*
X210471055Y-161782772D01*
X210240142Y-161712725D01*
X210060178Y-161695000D01*
X209939822Y-161695000D01*
X209759858Y-161712725D01*
X209528945Y-161782772D01*
X209316134Y-161896522D01*
X209129603Y-162049603D01*
X208976522Y-162236134D01*
X208862772Y-162448945D01*
X208792725Y-162679858D01*
X208769073Y-162920000D01*
X201125000Y-162920000D01*
X201125000Y-160380000D01*
X208769073Y-160380000D01*
X208792725Y-160620142D01*
X208862772Y-160851055D01*
X208976522Y-161063866D01*
X209129603Y-161250397D01*
X209316134Y-161403478D01*
X209528945Y-161517228D01*
X209759858Y-161587275D01*
X209939822Y-161605000D01*
X210060178Y-161605000D01*
X210240142Y-161587275D01*
X210471055Y-161517228D01*
X210683866Y-161403478D01*
X210870397Y-161250397D01*
X211023478Y-161063866D01*
X211137228Y-160851055D01*
X211207275Y-160620142D01*
X211227596Y-160413820D01*
X217625000Y-160413820D01*
X217625000Y-160586180D01*
X217658626Y-160755228D01*
X217724585Y-160914468D01*
X217820343Y-161057780D01*
X217942220Y-161179657D01*
X218085532Y-161275415D01*
X218244772Y-161341374D01*
X218413820Y-161375000D01*
X218586180Y-161375000D01*
X218755228Y-161341374D01*
X218914468Y-161275415D01*
X219057780Y-161179657D01*
X219179657Y-161057780D01*
X219275415Y-160914468D01*
X219341374Y-160755228D01*
X219375000Y-160586180D01*
X219375000Y-160413820D01*
X219341374Y-160244772D01*
X219275415Y-160085532D01*
X219179657Y-159942220D01*
X219057780Y-159820343D01*
X218914468Y-159724585D01*
X218755228Y-159658626D01*
X218586180Y-159625000D01*
X218413820Y-159625000D01*
X218244772Y-159658626D01*
X218085532Y-159724585D01*
X217942220Y-159820343D01*
X217820343Y-159942220D01*
X217724585Y-160085532D01*
X217658626Y-160244772D01*
X217625000Y-160413820D01*
X211227596Y-160413820D01*
X211230927Y-160380000D01*
X211207275Y-160139858D01*
X211137228Y-159908945D01*
X211023478Y-159696134D01*
X210870397Y-159509603D01*
X210683866Y-159356522D01*
X210471055Y-159242772D01*
X210240142Y-159172725D01*
X210060178Y-159155000D01*
X209939822Y-159155000D01*
X209759858Y-159172725D01*
X209528945Y-159242772D01*
X209316134Y-159356522D01*
X209129603Y-159509603D01*
X208976522Y-159696134D01*
X208862772Y-159908945D01*
X208792725Y-160139858D01*
X208769073Y-160380000D01*
X201125000Y-160380000D01*
X201125000Y-158154093D01*
X208815951Y-158154093D01*
X208840993Y-158236667D01*
X208940649Y-158455156D01*
X209081015Y-158650005D01*
X209256697Y-158813726D01*
X209460944Y-158940027D01*
X209685906Y-159024055D01*
X209875000Y-158964862D01*
X209875000Y-157965000D01*
X210125000Y-157965000D01*
X210125000Y-158964862D01*
X210314094Y-159024055D01*
X210539056Y-158940027D01*
X210743303Y-158813726D01*
X210918985Y-158650005D01*
X211059351Y-158455156D01*
X211159007Y-158236667D01*
X211184049Y-158154093D01*
X211124323Y-157965000D01*
X210125000Y-157965000D01*
X209875000Y-157965000D01*
X208875677Y-157965000D01*
X208815951Y-158154093D01*
X201125000Y-158154093D01*
X201125000Y-157525907D01*
X208815951Y-157525907D01*
X208875677Y-157715000D01*
X209875000Y-157715000D01*
X209875000Y-156715138D01*
X210125000Y-156715138D01*
X210125000Y-157715000D01*
X211124323Y-157715000D01*
X211184049Y-157525907D01*
X211159007Y-157443333D01*
X211059351Y-157224844D01*
X210918985Y-157029995D01*
X210743303Y-156866274D01*
X210539056Y-156739973D01*
X210314094Y-156655945D01*
X210125000Y-156715138D01*
X209875000Y-156715138D01*
X209685906Y-156655945D01*
X209460944Y-156739973D01*
X209256697Y-156866274D01*
X209081015Y-157029995D01*
X208940649Y-157224844D01*
X208840993Y-157443333D01*
X208815951Y-157525907D01*
X201125000Y-157525907D01*
X201125000Y-152913820D01*
X210125000Y-152913820D01*
X210125000Y-153086180D01*
X210158626Y-153255228D01*
X210224585Y-153414468D01*
X210320343Y-153557780D01*
X210442220Y-153679657D01*
X210585532Y-153775415D01*
X210744772Y-153841374D01*
X210913820Y-153875000D01*
X211086180Y-153875000D01*
X211255228Y-153841374D01*
X211414468Y-153775415D01*
X211557780Y-153679657D01*
X211679657Y-153557780D01*
X211775415Y-153414468D01*
X211841374Y-153255228D01*
X211875000Y-153086180D01*
X211875000Y-152913820D01*
X213125000Y-152913820D01*
X213125000Y-153086180D01*
X213158626Y-153255228D01*
X213224585Y-153414468D01*
X213320343Y-153557780D01*
X213442220Y-153679657D01*
X213585532Y-153775415D01*
X213744772Y-153841374D01*
X213913820Y-153875000D01*
X214086180Y-153875000D01*
X214255228Y-153841374D01*
X214414468Y-153775415D01*
X214557780Y-153679657D01*
X214679657Y-153557780D01*
X214775415Y-153414468D01*
X214841374Y-153255228D01*
X214875000Y-153086180D01*
X214875000Y-152913820D01*
X216125000Y-152913820D01*
X216125000Y-153086180D01*
X216158626Y-153255228D01*
X216224585Y-153414468D01*
X216320343Y-153557780D01*
X216442220Y-153679657D01*
X216585532Y-153775415D01*
X216744772Y-153841374D01*
X216913820Y-153875000D01*
X217086180Y-153875000D01*
X217255228Y-153841374D01*
X217414468Y-153775415D01*
X217557780Y-153679657D01*
X217679657Y-153557780D01*
X217775415Y-153414468D01*
X217841374Y-153255228D01*
X217875000Y-153086180D01*
X217875000Y-152913820D01*
X219125000Y-152913820D01*
X219125000Y-153086180D01*
X219158626Y-153255228D01*
X219224585Y-153414468D01*
X219320343Y-153557780D01*
X219442220Y-153679657D01*
X219585532Y-153775415D01*
X219744772Y-153841374D01*
X219913820Y-153875000D01*
X220086180Y-153875000D01*
X220255228Y-153841374D01*
X220414468Y-153775415D01*
X220557780Y-153679657D01*
X220679657Y-153557780D01*
X220775415Y-153414468D01*
X220841374Y-153255228D01*
X220875000Y-153086180D01*
X220875000Y-152913820D01*
X220841374Y-152744772D01*
X220775415Y-152585532D01*
X220679657Y-152442220D01*
X220557780Y-152320343D01*
X220414468Y-152224585D01*
X220255228Y-152158626D01*
X220086180Y-152125000D01*
X219913820Y-152125000D01*
X219744772Y-152158626D01*
X219585532Y-152224585D01*
X219442220Y-152320343D01*
X219320343Y-152442220D01*
X219224585Y-152585532D01*
X219158626Y-152744772D01*
X219125000Y-152913820D01*
X217875000Y-152913820D01*
X217841374Y-152744772D01*
X217775415Y-152585532D01*
X217679657Y-152442220D01*
X217557780Y-152320343D01*
X217414468Y-152224585D01*
X217255228Y-152158626D01*
X217086180Y-152125000D01*
X216913820Y-152125000D01*
X216744772Y-152158626D01*
X216585532Y-152224585D01*
X216442220Y-152320343D01*
X216320343Y-152442220D01*
X216224585Y-152585532D01*
X216158626Y-152744772D01*
X216125000Y-152913820D01*
X214875000Y-152913820D01*
X214841374Y-152744772D01*
X214775415Y-152585532D01*
X214679657Y-152442220D01*
X214557780Y-152320343D01*
X214414468Y-152224585D01*
X214255228Y-152158626D01*
X214086180Y-152125000D01*
X213913820Y-152125000D01*
X213744772Y-152158626D01*
X213585532Y-152224585D01*
X213442220Y-152320343D01*
X213320343Y-152442220D01*
X213224585Y-152585532D01*
X213158626Y-152744772D01*
X213125000Y-152913820D01*
X211875000Y-152913820D01*
X211841374Y-152744772D01*
X211775415Y-152585532D01*
X211679657Y-152442220D01*
X211557780Y-152320343D01*
X211414468Y-152224585D01*
X211255228Y-152158626D01*
X211086180Y-152125000D01*
X210913820Y-152125000D01*
X210744772Y-152158626D01*
X210585532Y-152224585D01*
X210442220Y-152320343D01*
X210320343Y-152442220D01*
X210224585Y-152585532D01*
X210158626Y-152744772D01*
X210125000Y-152913820D01*
X201125000Y-152913820D01*
X201125000Y-146913820D01*
X210125000Y-146913820D01*
X210125000Y-147086180D01*
X210158626Y-147255228D01*
X210224585Y-147414468D01*
X210320343Y-147557780D01*
X210442220Y-147679657D01*
X210585532Y-147775415D01*
X210744772Y-147841374D01*
X210913820Y-147875000D01*
X211086180Y-147875000D01*
X211255228Y-147841374D01*
X211414468Y-147775415D01*
X211557780Y-147679657D01*
X211679657Y-147557780D01*
X211775415Y-147414468D01*
X211841374Y-147255228D01*
X211875000Y-147086180D01*
X211875000Y-146913820D01*
X213125000Y-146913820D01*
X213125000Y-147086180D01*
X213158626Y-147255228D01*
X213224585Y-147414468D01*
X213320343Y-147557780D01*
X213442220Y-147679657D01*
X213585532Y-147775415D01*
X213744772Y-147841374D01*
X213913820Y-147875000D01*
X214086180Y-147875000D01*
X214255228Y-147841374D01*
X214414468Y-147775415D01*
X214557780Y-147679657D01*
X214679657Y-147557780D01*
X214775415Y-147414468D01*
X214841374Y-147255228D01*
X214875000Y-147086180D01*
X214875000Y-146913820D01*
X216125000Y-146913820D01*
X216125000Y-147086180D01*
X216158626Y-147255228D01*
X216224585Y-147414468D01*
X216320343Y-147557780D01*
X216442220Y-147679657D01*
X216585532Y-147775415D01*
X216744772Y-147841374D01*
X216913820Y-147875000D01*
X217086180Y-147875000D01*
X217255228Y-147841374D01*
X217414468Y-147775415D01*
X217557780Y-147679657D01*
X217679657Y-147557780D01*
X217775415Y-147414468D01*
X217841374Y-147255228D01*
X217875000Y-147086180D01*
X217875000Y-146913820D01*
X219125000Y-146913820D01*
X219125000Y-147086180D01*
X219158626Y-147255228D01*
X219224585Y-147414468D01*
X219320343Y-147557780D01*
X219442220Y-147679657D01*
X219585532Y-147775415D01*
X219744772Y-147841374D01*
X219913820Y-147875000D01*
X220086180Y-147875000D01*
X220255228Y-147841374D01*
X220414468Y-147775415D01*
X220557780Y-147679657D01*
X220679657Y-147557780D01*
X220775415Y-147414468D01*
X220841374Y-147255228D01*
X220875000Y-147086180D01*
X220875000Y-146913820D01*
X220841374Y-146744772D01*
X220775415Y-146585532D01*
X220679657Y-146442220D01*
X220557780Y-146320343D01*
X220414468Y-146224585D01*
X220255228Y-146158626D01*
X220086180Y-146125000D01*
X219913820Y-146125000D01*
X219744772Y-146158626D01*
X219585532Y-146224585D01*
X219442220Y-146320343D01*
X219320343Y-146442220D01*
X219224585Y-146585532D01*
X219158626Y-146744772D01*
X219125000Y-146913820D01*
X217875000Y-146913820D01*
X217841374Y-146744772D01*
X217775415Y-146585532D01*
X217679657Y-146442220D01*
X217557780Y-146320343D01*
X217414468Y-146224585D01*
X217255228Y-146158626D01*
X217086180Y-146125000D01*
X216913820Y-146125000D01*
X216744772Y-146158626D01*
X216585532Y-146224585D01*
X216442220Y-146320343D01*
X216320343Y-146442220D01*
X216224585Y-146585532D01*
X216158626Y-146744772D01*
X216125000Y-146913820D01*
X214875000Y-146913820D01*
X214841374Y-146744772D01*
X214775415Y-146585532D01*
X214679657Y-146442220D01*
X214557780Y-146320343D01*
X214414468Y-146224585D01*
X214255228Y-146158626D01*
X214086180Y-146125000D01*
X213913820Y-146125000D01*
X213744772Y-146158626D01*
X213585532Y-146224585D01*
X213442220Y-146320343D01*
X213320343Y-146442220D01*
X213224585Y-146585532D01*
X213158626Y-146744772D01*
X213125000Y-146913820D01*
X211875000Y-146913820D01*
X211841374Y-146744772D01*
X211775415Y-146585532D01*
X211679657Y-146442220D01*
X211557780Y-146320343D01*
X211414468Y-146224585D01*
X211255228Y-146158626D01*
X211086180Y-146125000D01*
X210913820Y-146125000D01*
X210744772Y-146158626D01*
X210585532Y-146224585D01*
X210442220Y-146320343D01*
X210320343Y-146442220D01*
X210224585Y-146585532D01*
X210158626Y-146744772D01*
X210125000Y-146913820D01*
X201125000Y-146913820D01*
X201125000Y-141125000D01*
X298875000Y-141125000D01*
X298875000Y-218875000D01*
M02*
