G04 #@! TF.GenerationSoftware,KiCad,Pcbnew,5.1.4*
G04 #@! TF.CreationDate,2019-11-06T21:16:27-05:00*
G04 #@! TF.ProjectId,device-config-demo,64657669-6365-42d6-936f-6e6669672d64,rev?*
G04 #@! TF.SameCoordinates,Original*
G04 #@! TF.FileFunction,Legend,Top*
G04 #@! TF.FilePolarity,Positive*
%FSLAX46Y46*%
G04 Gerber Fmt 4.6, Leading zero omitted, Abs format (unit mm)*
G04 Created by KiCad (PCBNEW 5.1.4) date 2019-11-06 21:16:27*
%MOMM*%
%LPD*%
G04 APERTURE LIST*
%ADD10C,0.120000*%
%ADD11C,0.150000*%
%ADD12C,0.300000*%
G04 APERTURE END LIST*
D10*
X222250000Y-190750000D02*
X222250000Y-184750000D01*
X201250000Y-184750000D02*
X286500000Y-184750000D01*
X222250000Y-218750000D02*
X222250000Y-198750000D01*
X244000000Y-218750000D02*
X244000000Y-184750000D01*
D11*
X289600000Y-153926071D02*
X289561904Y-154002261D01*
X289561904Y-154116547D01*
X289600000Y-154230833D01*
X289676190Y-154307023D01*
X289752380Y-154345119D01*
X289904761Y-154383214D01*
X290019047Y-154383214D01*
X290171428Y-154345119D01*
X290247619Y-154307023D01*
X290323809Y-154230833D01*
X290361904Y-154116547D01*
X290361904Y-154040357D01*
X290323809Y-153926071D01*
X290285714Y-153887976D01*
X290019047Y-153887976D01*
X290019047Y-154040357D01*
X290361904Y-153545119D02*
X289561904Y-153545119D01*
X290361904Y-153087976D01*
X289561904Y-153087976D01*
X290361904Y-152707023D02*
X289561904Y-152707023D01*
X289561904Y-152516547D01*
X289600000Y-152402261D01*
X289676190Y-152326071D01*
X289752380Y-152287976D01*
X289904761Y-152249880D01*
X290019047Y-152249880D01*
X290171428Y-152287976D01*
X290247619Y-152326071D01*
X290323809Y-152402261D01*
X290361904Y-152516547D01*
X290361904Y-152707023D01*
X287061904Y-154573690D02*
X287061904Y-154078452D01*
X287366666Y-154345119D01*
X287366666Y-154230833D01*
X287404761Y-154154642D01*
X287442857Y-154116547D01*
X287519047Y-154078452D01*
X287709523Y-154078452D01*
X287785714Y-154116547D01*
X287823809Y-154154642D01*
X287861904Y-154230833D01*
X287861904Y-154459404D01*
X287823809Y-154535595D01*
X287785714Y-154573690D01*
X287785714Y-153735595D02*
X287823809Y-153697500D01*
X287861904Y-153735595D01*
X287823809Y-153773690D01*
X287785714Y-153735595D01*
X287861904Y-153735595D01*
X287061904Y-153430833D02*
X287061904Y-152935595D01*
X287366666Y-153202261D01*
X287366666Y-153087976D01*
X287404761Y-153011785D01*
X287442857Y-152973690D01*
X287519047Y-152935595D01*
X287709523Y-152935595D01*
X287785714Y-152973690D01*
X287823809Y-153011785D01*
X287861904Y-153087976D01*
X287861904Y-153316547D01*
X287823809Y-153392738D01*
X287785714Y-153430833D01*
X287061904Y-152707023D02*
X287861904Y-152440357D01*
X287061904Y-152173690D01*
X279557142Y-155107023D02*
X279557142Y-154497500D01*
X279138095Y-154154642D02*
X279100000Y-154116547D01*
X279061904Y-154040357D01*
X279061904Y-153849880D01*
X279100000Y-153773690D01*
X279138095Y-153735595D01*
X279214285Y-153697500D01*
X279290476Y-153697500D01*
X279404761Y-153735595D01*
X279861904Y-154192738D01*
X279861904Y-153697500D01*
X279328571Y-153011785D02*
X279861904Y-153011785D01*
X279023809Y-153202261D02*
X279595238Y-153392738D01*
X279595238Y-152897500D01*
X279061904Y-152707023D02*
X279861904Y-152440357D01*
X279061904Y-152173690D01*
X276600000Y-153926071D02*
X276561904Y-154002261D01*
X276561904Y-154116547D01*
X276600000Y-154230833D01*
X276676190Y-154307023D01*
X276752380Y-154345119D01*
X276904761Y-154383214D01*
X277019047Y-154383214D01*
X277171428Y-154345119D01*
X277247619Y-154307023D01*
X277323809Y-154230833D01*
X277361904Y-154116547D01*
X277361904Y-154040357D01*
X277323809Y-153926071D01*
X277285714Y-153887976D01*
X277019047Y-153887976D01*
X277019047Y-154040357D01*
X277361904Y-153545119D02*
X276561904Y-153545119D01*
X277361904Y-153087976D01*
X276561904Y-153087976D01*
X277361904Y-152707023D02*
X276561904Y-152707023D01*
X276561904Y-152516547D01*
X276600000Y-152402261D01*
X276676190Y-152326071D01*
X276752380Y-152287976D01*
X276904761Y-152249880D01*
X277019047Y-152249880D01*
X277171428Y-152287976D01*
X277247619Y-152326071D01*
X277323809Y-152402261D01*
X277361904Y-152516547D01*
X277361904Y-152707023D01*
X274557142Y-155107023D02*
X274557142Y-154497500D01*
X274861904Y-154802261D02*
X274252380Y-154802261D01*
X274138095Y-154154642D02*
X274100000Y-154116547D01*
X274061904Y-154040357D01*
X274061904Y-153849880D01*
X274100000Y-153773690D01*
X274138095Y-153735595D01*
X274214285Y-153697500D01*
X274290476Y-153697500D01*
X274404761Y-153735595D01*
X274861904Y-154192738D01*
X274861904Y-153697500D01*
X274328571Y-153011785D02*
X274861904Y-153011785D01*
X274023809Y-153202261D02*
X274595238Y-153392738D01*
X274595238Y-152897500D01*
X274061904Y-152707023D02*
X274861904Y-152440357D01*
X274061904Y-152173690D01*
D12*
X281357142Y-144892857D02*
X280214285Y-144892857D01*
X280785714Y-144321428D02*
X280785714Y-145464285D01*
X278428571Y-145892857D02*
X279714285Y-143964285D01*
X277928571Y-144892857D02*
X276785714Y-144892857D01*
X276142857Y-145678571D02*
X276071428Y-145750000D01*
X275928571Y-145821428D01*
X275571428Y-145821428D01*
X275428571Y-145750000D01*
X275357142Y-145678571D01*
X275285714Y-145535714D01*
X275285714Y-145392857D01*
X275357142Y-145178571D01*
X276214285Y-144321428D01*
X275285714Y-144321428D01*
X274000000Y-145321428D02*
X274000000Y-144321428D01*
X274357142Y-145892857D02*
X274714285Y-144821428D01*
X273785714Y-144821428D01*
X273428571Y-145821428D02*
X272928571Y-144321428D01*
X272428571Y-145821428D01*
X291214285Y-145821428D02*
X290285714Y-145821428D01*
X290785714Y-145250000D01*
X290571428Y-145250000D01*
X290428571Y-145178571D01*
X290357142Y-145107142D01*
X290285714Y-144964285D01*
X290285714Y-144607142D01*
X290357142Y-144464285D01*
X290428571Y-144392857D01*
X290571428Y-144321428D01*
X291000000Y-144321428D01*
X291142857Y-144392857D01*
X291214285Y-144464285D01*
X289642857Y-144464285D02*
X289571428Y-144392857D01*
X289642857Y-144321428D01*
X289714285Y-144392857D01*
X289642857Y-144464285D01*
X289642857Y-144321428D01*
X289071428Y-145821428D02*
X288142857Y-145821428D01*
X288642857Y-145250000D01*
X288428571Y-145250000D01*
X288285714Y-145178571D01*
X288214285Y-145107142D01*
X288142857Y-144964285D01*
X288142857Y-144607142D01*
X288214285Y-144464285D01*
X288285714Y-144392857D01*
X288428571Y-144321428D01*
X288857142Y-144321428D01*
X289000000Y-144392857D01*
X289071428Y-144464285D01*
X287714285Y-145821428D02*
X287214285Y-144321428D01*
X286714285Y-145821428D01*
X295678571Y-184892857D02*
X294178571Y-184892857D01*
X295250000Y-184392857D01*
X294178571Y-183892857D01*
X295678571Y-183892857D01*
X295535714Y-182321428D02*
X295607142Y-182392857D01*
X295678571Y-182607142D01*
X295678571Y-182750000D01*
X295607142Y-182964285D01*
X295464285Y-183107142D01*
X295321428Y-183178571D01*
X295035714Y-183250000D01*
X294821428Y-183250000D01*
X294535714Y-183178571D01*
X294392857Y-183107142D01*
X294250000Y-182964285D01*
X294178571Y-182750000D01*
X294178571Y-182607142D01*
X294250000Y-182392857D01*
X294321428Y-182321428D01*
X294178571Y-181678571D02*
X295392857Y-181678571D01*
X295535714Y-181607142D01*
X295607142Y-181535714D01*
X295678571Y-181392857D01*
X295678571Y-181107142D01*
X295607142Y-180964285D01*
X295535714Y-180892857D01*
X295392857Y-180821428D01*
X294178571Y-180821428D01*
X295607142Y-179035714D02*
X295678571Y-178821428D01*
X295678571Y-178464285D01*
X295607142Y-178321428D01*
X295535714Y-178250000D01*
X295392857Y-178178571D01*
X295250000Y-178178571D01*
X295107142Y-178250000D01*
X295035714Y-178321428D01*
X294964285Y-178464285D01*
X294892857Y-178750000D01*
X294821428Y-178892857D01*
X294750000Y-178964285D01*
X294607142Y-179035714D01*
X294464285Y-179035714D01*
X294321428Y-178964285D01*
X294250000Y-178892857D01*
X294178571Y-178750000D01*
X294178571Y-178392857D01*
X294250000Y-178178571D01*
X295678571Y-177535714D02*
X294178571Y-177535714D01*
X294250000Y-176035714D02*
X294178571Y-176178571D01*
X294178571Y-176392857D01*
X294250000Y-176607142D01*
X294392857Y-176750000D01*
X294535714Y-176821428D01*
X294821428Y-176892857D01*
X295035714Y-176892857D01*
X295321428Y-176821428D01*
X295464285Y-176750000D01*
X295607142Y-176607142D01*
X295678571Y-176392857D01*
X295678571Y-176250000D01*
X295607142Y-176035714D01*
X295535714Y-175964285D01*
X295035714Y-175964285D01*
X295035714Y-176250000D01*
X295678571Y-175321428D02*
X294178571Y-175321428D01*
X295678571Y-174464285D01*
X294178571Y-174464285D01*
X295250000Y-173821428D02*
X295250000Y-173107142D01*
X295678571Y-173964285D02*
X294178571Y-173464285D01*
X295678571Y-172964285D01*
X295678571Y-171750000D02*
X295678571Y-172464285D01*
X294178571Y-172464285D01*
X295607142Y-171321428D02*
X295678571Y-171107142D01*
X295678571Y-170750000D01*
X295607142Y-170607142D01*
X295535714Y-170535714D01*
X295392857Y-170464285D01*
X295250000Y-170464285D01*
X295107142Y-170535714D01*
X295035714Y-170607142D01*
X294964285Y-170750000D01*
X294892857Y-171035714D01*
X294821428Y-171178571D01*
X294750000Y-171250000D01*
X294607142Y-171321428D01*
X294464285Y-171321428D01*
X294321428Y-171250000D01*
X294250000Y-171178571D01*
X294178571Y-171035714D01*
X294178571Y-170678571D01*
X294250000Y-170464285D01*
X295678571Y-168678571D02*
X294178571Y-168678571D01*
X295678571Y-167964285D02*
X294178571Y-167964285D01*
X295678571Y-167107142D01*
X294178571Y-167107142D01*
X204321428Y-149714285D02*
X204321428Y-149000000D01*
X205821428Y-149000000D01*
X205821428Y-150500000D02*
X205821428Y-150785714D01*
X205750000Y-150928571D01*
X205607142Y-151071428D01*
X205321428Y-151142857D01*
X204821428Y-151142857D01*
X204535714Y-151071428D01*
X204392857Y-150928571D01*
X204321428Y-150785714D01*
X204321428Y-150500000D01*
X204392857Y-150357142D01*
X204535714Y-150214285D01*
X204821428Y-150142857D01*
X205321428Y-150142857D01*
X205607142Y-150214285D01*
X205750000Y-150357142D01*
X205821428Y-150500000D01*
X205750000Y-152571428D02*
X205821428Y-152428571D01*
X205821428Y-152214285D01*
X205750000Y-152000000D01*
X205607142Y-151857142D01*
X205464285Y-151785714D01*
X205178571Y-151714285D01*
X204964285Y-151714285D01*
X204678571Y-151785714D01*
X204535714Y-151857142D01*
X204392857Y-152000000D01*
X204321428Y-152214285D01*
X204321428Y-152357142D01*
X204392857Y-152571428D01*
X204464285Y-152642857D01*
X204964285Y-152642857D01*
X204964285Y-152357142D01*
X204321428Y-153285714D02*
X205821428Y-153285714D01*
X204464285Y-154857142D02*
X204392857Y-154785714D01*
X204321428Y-154571428D01*
X204321428Y-154428571D01*
X204392857Y-154214285D01*
X204535714Y-154071428D01*
X204678571Y-154000000D01*
X204964285Y-153928571D01*
X205178571Y-153928571D01*
X205464285Y-154000000D01*
X205607142Y-154071428D01*
X205750000Y-154214285D01*
X205821428Y-154428571D01*
X205821428Y-154571428D01*
X205750000Y-154785714D01*
X205678571Y-154857142D01*
X204892857Y-155500000D02*
X204892857Y-156642857D01*
X204321428Y-158071428D02*
X204321428Y-157357142D01*
X205821428Y-157357142D01*
X205107142Y-158571428D02*
X205107142Y-159071428D01*
X204321428Y-159285714D02*
X204321428Y-158571428D01*
X205821428Y-158571428D01*
X205821428Y-159285714D01*
X205821428Y-159714285D02*
X204321428Y-160214285D01*
X205821428Y-160714285D01*
X205107142Y-161214285D02*
X205107142Y-161714285D01*
X204321428Y-161928571D02*
X204321428Y-161214285D01*
X205821428Y-161214285D01*
X205821428Y-161928571D01*
X204321428Y-163285714D02*
X204321428Y-162571428D01*
X205821428Y-162571428D01*
X205750000Y-165714285D02*
X205821428Y-165571428D01*
X205821428Y-165357142D01*
X205750000Y-165142857D01*
X205607142Y-165000000D01*
X205464285Y-164928571D01*
X205178571Y-164857142D01*
X204964285Y-164857142D01*
X204678571Y-164928571D01*
X204535714Y-165000000D01*
X204392857Y-165142857D01*
X204321428Y-165357142D01*
X204321428Y-165500000D01*
X204392857Y-165714285D01*
X204464285Y-165785714D01*
X204964285Y-165785714D01*
X204964285Y-165500000D01*
X205107142Y-166428571D02*
X205107142Y-166928571D01*
X204321428Y-167142857D02*
X204321428Y-166428571D01*
X205821428Y-166428571D01*
X205821428Y-167142857D01*
X204321428Y-167785714D02*
X205821428Y-167785714D01*
X204321428Y-168642857D01*
X205821428Y-168642857D01*
X205107142Y-169357142D02*
X205107142Y-169857142D01*
X204321428Y-170071428D02*
X204321428Y-169357142D01*
X205821428Y-169357142D01*
X205821428Y-170071428D01*
X204321428Y-171571428D02*
X205035714Y-171071428D01*
X204321428Y-170714285D02*
X205821428Y-170714285D01*
X205821428Y-171285714D01*
X205750000Y-171428571D01*
X205678571Y-171500000D01*
X205535714Y-171571428D01*
X205321428Y-171571428D01*
X205178571Y-171500000D01*
X205107142Y-171428571D01*
X205035714Y-171285714D01*
X205035714Y-170714285D01*
X204750000Y-172142857D02*
X204750000Y-172857142D01*
X204321428Y-172000000D02*
X205821428Y-172500000D01*
X204321428Y-173000000D01*
X205821428Y-173285714D02*
X205821428Y-174142857D01*
X204321428Y-173714285D02*
X205821428Y-173714285D01*
X205821428Y-174928571D02*
X205821428Y-175214285D01*
X205750000Y-175357142D01*
X205607142Y-175500000D01*
X205321428Y-175571428D01*
X204821428Y-175571428D01*
X204535714Y-175500000D01*
X204392857Y-175357142D01*
X204321428Y-175214285D01*
X204321428Y-174928571D01*
X204392857Y-174785714D01*
X204535714Y-174642857D01*
X204821428Y-174571428D01*
X205321428Y-174571428D01*
X205607142Y-174642857D01*
X205750000Y-174785714D01*
X205821428Y-174928571D01*
X204321428Y-177071428D02*
X205035714Y-176571428D01*
X204321428Y-176214285D02*
X205821428Y-176214285D01*
X205821428Y-176785714D01*
X205750000Y-176928571D01*
X205678571Y-177000000D01*
X205535714Y-177071428D01*
X205321428Y-177071428D01*
X205178571Y-177000000D01*
X205107142Y-176928571D01*
X205035714Y-176785714D01*
X205035714Y-176214285D01*
X210964285Y-214178571D02*
X211464285Y-215678571D01*
X211964285Y-214178571D01*
X213321428Y-215535714D02*
X213250000Y-215607142D01*
X213035714Y-215678571D01*
X212892857Y-215678571D01*
X212678571Y-215607142D01*
X212535714Y-215464285D01*
X212464285Y-215321428D01*
X212392857Y-215035714D01*
X212392857Y-214821428D01*
X212464285Y-214535714D01*
X212535714Y-214392857D01*
X212678571Y-214250000D01*
X212892857Y-214178571D01*
X213035714Y-214178571D01*
X213250000Y-214250000D01*
X213321428Y-214321428D01*
X214250000Y-214178571D02*
X214535714Y-214178571D01*
X214678571Y-214250000D01*
X214821428Y-214392857D01*
X214892857Y-214678571D01*
X214892857Y-215178571D01*
X214821428Y-215464285D01*
X214678571Y-215607142D01*
X214535714Y-215678571D01*
X214250000Y-215678571D01*
X214107142Y-215607142D01*
X213964285Y-215464285D01*
X213892857Y-215178571D01*
X213892857Y-214678571D01*
X213964285Y-214392857D01*
X214107142Y-214250000D01*
X214250000Y-214178571D01*
X227571428Y-213975000D02*
X228285714Y-213975000D01*
X227428571Y-214403571D02*
X227928571Y-212903571D01*
X228428571Y-214403571D01*
X228928571Y-214403571D02*
X228928571Y-212903571D01*
X229285714Y-212903571D01*
X229500000Y-212975000D01*
X229642857Y-213117857D01*
X229714285Y-213260714D01*
X229785714Y-213546428D01*
X229785714Y-213760714D01*
X229714285Y-214046428D01*
X229642857Y-214189285D01*
X229500000Y-214332142D01*
X229285714Y-214403571D01*
X228928571Y-214403571D01*
X230857142Y-212903571D02*
X230857142Y-213975000D01*
X230785714Y-214189285D01*
X230642857Y-214332142D01*
X230428571Y-214403571D01*
X230285714Y-214403571D01*
X233571428Y-214403571D02*
X233071428Y-213689285D01*
X232714285Y-214403571D02*
X232714285Y-212903571D01*
X233285714Y-212903571D01*
X233428571Y-212975000D01*
X233500000Y-213046428D01*
X233571428Y-213189285D01*
X233571428Y-213403571D01*
X233500000Y-213546428D01*
X233428571Y-213617857D01*
X233285714Y-213689285D01*
X232714285Y-213689285D01*
X234214285Y-213617857D02*
X234714285Y-213617857D01*
X234928571Y-214403571D02*
X234214285Y-214403571D01*
X234214285Y-212903571D01*
X234928571Y-212903571D01*
X236357142Y-212975000D02*
X236214285Y-212903571D01*
X236000000Y-212903571D01*
X235785714Y-212975000D01*
X235642857Y-213117857D01*
X235571428Y-213260714D01*
X235500000Y-213546428D01*
X235500000Y-213760714D01*
X235571428Y-214046428D01*
X235642857Y-214189285D01*
X235785714Y-214332142D01*
X236000000Y-214403571D01*
X236142857Y-214403571D01*
X236357142Y-214332142D01*
X236428571Y-214260714D01*
X236428571Y-213760714D01*
X236142857Y-213760714D01*
X230535714Y-216810714D02*
X230464285Y-216882142D01*
X230250000Y-216953571D01*
X230107142Y-216953571D01*
X229892857Y-216882142D01*
X229750000Y-216739285D01*
X229678571Y-216596428D01*
X229607142Y-216310714D01*
X229607142Y-216096428D01*
X229678571Y-215810714D01*
X229750000Y-215667857D01*
X229892857Y-215525000D01*
X230107142Y-215453571D01*
X230250000Y-215453571D01*
X230464285Y-215525000D01*
X230535714Y-215596428D01*
X230964285Y-215453571D02*
X231821428Y-215453571D01*
X231392857Y-216953571D02*
X231392857Y-215453571D01*
X233178571Y-216953571D02*
X232678571Y-216239285D01*
X232321428Y-216953571D02*
X232321428Y-215453571D01*
X232892857Y-215453571D01*
X233035714Y-215525000D01*
X233107142Y-215596428D01*
X233178571Y-215739285D01*
X233178571Y-215953571D01*
X233107142Y-216096428D01*
X233035714Y-216167857D01*
X232892857Y-216239285D01*
X232321428Y-216239285D01*
X234535714Y-216953571D02*
X233821428Y-216953571D01*
X233821428Y-215453571D01*
D11*
X288192738Y-201127380D02*
X288764166Y-201127380D01*
X288478452Y-202127380D02*
X288478452Y-201127380D01*
X289097500Y-201603571D02*
X289430833Y-201603571D01*
X289573690Y-202127380D02*
X289097500Y-202127380D01*
X289097500Y-201127380D01*
X289573690Y-201127380D01*
X290573690Y-202127380D02*
X290240357Y-201651190D01*
X290002261Y-202127380D02*
X290002261Y-201127380D01*
X290383214Y-201127380D01*
X290478452Y-201175000D01*
X290526071Y-201222619D01*
X290573690Y-201317857D01*
X290573690Y-201460714D01*
X290526071Y-201555952D01*
X290478452Y-201603571D01*
X290383214Y-201651190D01*
X290002261Y-201651190D01*
X291002261Y-202127380D02*
X291002261Y-201127380D01*
X291335595Y-201841666D01*
X291668928Y-201127380D01*
X291668928Y-202127380D01*
X292145119Y-202127380D02*
X292145119Y-201127380D01*
X292621309Y-202127380D02*
X292621309Y-201127380D01*
X293192738Y-202127380D01*
X293192738Y-201127380D01*
X293621309Y-201841666D02*
X294097500Y-201841666D01*
X293526071Y-202127380D02*
X293859404Y-201127380D01*
X294192738Y-202127380D01*
X294383214Y-201127380D02*
X294954642Y-201127380D01*
X294668928Y-202127380D02*
X294668928Y-201127380D01*
X295287976Y-202127380D02*
X295287976Y-201127380D01*
X295954642Y-201127380D02*
X296145119Y-201127380D01*
X296240357Y-201175000D01*
X296335595Y-201270238D01*
X296383214Y-201460714D01*
X296383214Y-201794047D01*
X296335595Y-201984523D01*
X296240357Y-202079761D01*
X296145119Y-202127380D01*
X295954642Y-202127380D01*
X295859404Y-202079761D01*
X295764166Y-201984523D01*
X295716547Y-201794047D01*
X295716547Y-201460714D01*
X295764166Y-201270238D01*
X295859404Y-201175000D01*
X295954642Y-201127380D01*
X296811785Y-202127380D02*
X296811785Y-201127380D01*
X297383214Y-202127380D01*
X297383214Y-201127380D01*
X288907023Y-203777380D02*
X288573690Y-203301190D01*
X288335595Y-203777380D02*
X288335595Y-202777380D01*
X288716547Y-202777380D01*
X288811785Y-202825000D01*
X288859404Y-202872619D01*
X288907023Y-202967857D01*
X288907023Y-203110714D01*
X288859404Y-203205952D01*
X288811785Y-203253571D01*
X288716547Y-203301190D01*
X288335595Y-203301190D01*
X289335595Y-203253571D02*
X289668928Y-203253571D01*
X289811785Y-203777380D02*
X289335595Y-203777380D01*
X289335595Y-202777380D01*
X289811785Y-202777380D01*
X290192738Y-203729761D02*
X290335595Y-203777380D01*
X290573690Y-203777380D01*
X290668928Y-203729761D01*
X290716547Y-203682142D01*
X290764166Y-203586904D01*
X290764166Y-203491666D01*
X290716547Y-203396428D01*
X290668928Y-203348809D01*
X290573690Y-203301190D01*
X290383214Y-203253571D01*
X290287976Y-203205952D01*
X290240357Y-203158333D01*
X290192738Y-203063095D01*
X290192738Y-202967857D01*
X290240357Y-202872619D01*
X290287976Y-202825000D01*
X290383214Y-202777380D01*
X290621309Y-202777380D01*
X290764166Y-202825000D01*
X291192738Y-203777380D02*
X291192738Y-202777380D01*
X291621309Y-203729761D02*
X291764166Y-203777380D01*
X292002261Y-203777380D01*
X292097500Y-203729761D01*
X292145119Y-203682142D01*
X292192738Y-203586904D01*
X292192738Y-203491666D01*
X292145119Y-203396428D01*
X292097500Y-203348809D01*
X292002261Y-203301190D01*
X291811785Y-203253571D01*
X291716547Y-203205952D01*
X291668928Y-203158333D01*
X291621309Y-203063095D01*
X291621309Y-202967857D01*
X291668928Y-202872619D01*
X291716547Y-202825000D01*
X291811785Y-202777380D01*
X292049880Y-202777380D01*
X292192738Y-202825000D01*
X292478452Y-202777380D02*
X293049880Y-202777380D01*
X292764166Y-203777380D02*
X292764166Y-202777380D01*
X293573690Y-202777380D02*
X293764166Y-202777380D01*
X293859404Y-202825000D01*
X293954642Y-202920238D01*
X294002261Y-203110714D01*
X294002261Y-203444047D01*
X293954642Y-203634523D01*
X293859404Y-203729761D01*
X293764166Y-203777380D01*
X293573690Y-203777380D01*
X293478452Y-203729761D01*
X293383214Y-203634523D01*
X293335595Y-203444047D01*
X293335595Y-203110714D01*
X293383214Y-202920238D01*
X293478452Y-202825000D01*
X293573690Y-202777380D01*
X295002261Y-203777380D02*
X294668928Y-203301190D01*
X294430833Y-203777380D02*
X294430833Y-202777380D01*
X294811785Y-202777380D01*
X294907023Y-202825000D01*
X294954642Y-202872619D01*
X295002261Y-202967857D01*
X295002261Y-203110714D01*
X294954642Y-203205952D01*
X294907023Y-203253571D01*
X294811785Y-203301190D01*
X294430833Y-203301190D01*
X275335595Y-202127380D02*
X275335595Y-201127380D01*
X275716547Y-201127380D01*
X275811785Y-201175000D01*
X275859404Y-201222619D01*
X275907023Y-201317857D01*
X275907023Y-201460714D01*
X275859404Y-201555952D01*
X275811785Y-201603571D01*
X275716547Y-201651190D01*
X275335595Y-201651190D01*
X276335595Y-201127380D02*
X276335595Y-201936904D01*
X276383214Y-202032142D01*
X276430833Y-202079761D01*
X276526071Y-202127380D01*
X276716547Y-202127380D01*
X276811785Y-202079761D01*
X276859404Y-202032142D01*
X276907023Y-201936904D01*
X276907023Y-201127380D01*
X277859404Y-202127380D02*
X277383214Y-202127380D01*
X277383214Y-201127380D01*
X278668928Y-202127380D02*
X278192738Y-202127380D01*
X278192738Y-201127380D01*
X279002261Y-201746428D02*
X279764166Y-201746428D01*
X280240357Y-202127380D02*
X280240357Y-201127380D01*
X280478452Y-201127380D01*
X280621309Y-201175000D01*
X280716547Y-201270238D01*
X280764166Y-201365476D01*
X280811785Y-201555952D01*
X280811785Y-201698809D01*
X280764166Y-201889285D01*
X280716547Y-201984523D01*
X280621309Y-202079761D01*
X280478452Y-202127380D01*
X280240357Y-202127380D01*
X281430833Y-201127380D02*
X281621309Y-201127380D01*
X281716547Y-201175000D01*
X281811785Y-201270238D01*
X281859404Y-201460714D01*
X281859404Y-201794047D01*
X281811785Y-201984523D01*
X281716547Y-202079761D01*
X281621309Y-202127380D01*
X281430833Y-202127380D01*
X281335595Y-202079761D01*
X281240357Y-201984523D01*
X281192738Y-201794047D01*
X281192738Y-201460714D01*
X281240357Y-201270238D01*
X281335595Y-201175000D01*
X281430833Y-201127380D01*
X282192738Y-201127380D02*
X282430833Y-202127380D01*
X282621309Y-201413095D01*
X282811785Y-202127380D01*
X283049880Y-201127380D01*
X283430833Y-202127380D02*
X283430833Y-201127380D01*
X284002261Y-202127380D01*
X284002261Y-201127380D01*
X275907023Y-203777380D02*
X275573690Y-203301190D01*
X275335595Y-203777380D02*
X275335595Y-202777380D01*
X275716547Y-202777380D01*
X275811785Y-202825000D01*
X275859404Y-202872619D01*
X275907023Y-202967857D01*
X275907023Y-203110714D01*
X275859404Y-203205952D01*
X275811785Y-203253571D01*
X275716547Y-203301190D01*
X275335595Y-203301190D01*
X276335595Y-203253571D02*
X276668928Y-203253571D01*
X276811785Y-203777380D02*
X276335595Y-203777380D01*
X276335595Y-202777380D01*
X276811785Y-202777380D01*
X277192738Y-203729761D02*
X277335595Y-203777380D01*
X277573690Y-203777380D01*
X277668928Y-203729761D01*
X277716547Y-203682142D01*
X277764166Y-203586904D01*
X277764166Y-203491666D01*
X277716547Y-203396428D01*
X277668928Y-203348809D01*
X277573690Y-203301190D01*
X277383214Y-203253571D01*
X277287976Y-203205952D01*
X277240357Y-203158333D01*
X277192738Y-203063095D01*
X277192738Y-202967857D01*
X277240357Y-202872619D01*
X277287976Y-202825000D01*
X277383214Y-202777380D01*
X277621309Y-202777380D01*
X277764166Y-202825000D01*
X278192738Y-203777380D02*
X278192738Y-202777380D01*
X278621309Y-203729761D02*
X278764166Y-203777380D01*
X279002261Y-203777380D01*
X279097500Y-203729761D01*
X279145119Y-203682142D01*
X279192738Y-203586904D01*
X279192738Y-203491666D01*
X279145119Y-203396428D01*
X279097500Y-203348809D01*
X279002261Y-203301190D01*
X278811785Y-203253571D01*
X278716547Y-203205952D01*
X278668928Y-203158333D01*
X278621309Y-203063095D01*
X278621309Y-202967857D01*
X278668928Y-202872619D01*
X278716547Y-202825000D01*
X278811785Y-202777380D01*
X279049880Y-202777380D01*
X279192738Y-202825000D01*
X279478452Y-202777380D02*
X280049880Y-202777380D01*
X279764166Y-203777380D02*
X279764166Y-202777380D01*
X280573690Y-202777380D02*
X280764166Y-202777380D01*
X280859404Y-202825000D01*
X280954642Y-202920238D01*
X281002261Y-203110714D01*
X281002261Y-203444047D01*
X280954642Y-203634523D01*
X280859404Y-203729761D01*
X280764166Y-203777380D01*
X280573690Y-203777380D01*
X280478452Y-203729761D01*
X280383214Y-203634523D01*
X280335595Y-203444047D01*
X280335595Y-203110714D01*
X280383214Y-202920238D01*
X280478452Y-202825000D01*
X280573690Y-202777380D01*
X282002261Y-203777380D02*
X281668928Y-203301190D01*
X281430833Y-203777380D02*
X281430833Y-202777380D01*
X281811785Y-202777380D01*
X281907023Y-202825000D01*
X281954642Y-202872619D01*
X282002261Y-202967857D01*
X282002261Y-203110714D01*
X281954642Y-203205952D01*
X281907023Y-203253571D01*
X281811785Y-203301190D01*
X281430833Y-203301190D01*
X264335595Y-202127380D02*
X264335595Y-201127380D01*
X264716547Y-201127380D01*
X264811785Y-201175000D01*
X264859404Y-201222619D01*
X264907023Y-201317857D01*
X264907023Y-201460714D01*
X264859404Y-201555952D01*
X264811785Y-201603571D01*
X264716547Y-201651190D01*
X264335595Y-201651190D01*
X265335595Y-201127380D02*
X265335595Y-201936904D01*
X265383214Y-202032142D01*
X265430833Y-202079761D01*
X265526071Y-202127380D01*
X265716547Y-202127380D01*
X265811785Y-202079761D01*
X265859404Y-202032142D01*
X265907023Y-201936904D01*
X265907023Y-201127380D01*
X266859404Y-202127380D02*
X266383214Y-202127380D01*
X266383214Y-201127380D01*
X267668928Y-202127380D02*
X267192738Y-202127380D01*
X267192738Y-201127380D01*
X268002261Y-201746428D02*
X268764166Y-201746428D01*
X269240357Y-201127380D02*
X269240357Y-201936904D01*
X269287976Y-202032142D01*
X269335595Y-202079761D01*
X269430833Y-202127380D01*
X269621309Y-202127380D01*
X269716547Y-202079761D01*
X269764166Y-202032142D01*
X269811785Y-201936904D01*
X269811785Y-201127380D01*
X270287976Y-202127380D02*
X270287976Y-201127380D01*
X270668928Y-201127380D01*
X270764166Y-201175000D01*
X270811785Y-201222619D01*
X270859404Y-201317857D01*
X270859404Y-201460714D01*
X270811785Y-201555952D01*
X270764166Y-201603571D01*
X270668928Y-201651190D01*
X270287976Y-201651190D01*
X264907023Y-203777380D02*
X264573690Y-203301190D01*
X264335595Y-203777380D02*
X264335595Y-202777380D01*
X264716547Y-202777380D01*
X264811785Y-202825000D01*
X264859404Y-202872619D01*
X264907023Y-202967857D01*
X264907023Y-203110714D01*
X264859404Y-203205952D01*
X264811785Y-203253571D01*
X264716547Y-203301190D01*
X264335595Y-203301190D01*
X265335595Y-203253571D02*
X265668928Y-203253571D01*
X265811785Y-203777380D02*
X265335595Y-203777380D01*
X265335595Y-202777380D01*
X265811785Y-202777380D01*
X266192738Y-203729761D02*
X266335595Y-203777380D01*
X266573690Y-203777380D01*
X266668928Y-203729761D01*
X266716547Y-203682142D01*
X266764166Y-203586904D01*
X266764166Y-203491666D01*
X266716547Y-203396428D01*
X266668928Y-203348809D01*
X266573690Y-203301190D01*
X266383214Y-203253571D01*
X266287976Y-203205952D01*
X266240357Y-203158333D01*
X266192738Y-203063095D01*
X266192738Y-202967857D01*
X266240357Y-202872619D01*
X266287976Y-202825000D01*
X266383214Y-202777380D01*
X266621309Y-202777380D01*
X266764166Y-202825000D01*
X267192738Y-203777380D02*
X267192738Y-202777380D01*
X267621309Y-203729761D02*
X267764166Y-203777380D01*
X268002261Y-203777380D01*
X268097500Y-203729761D01*
X268145119Y-203682142D01*
X268192738Y-203586904D01*
X268192738Y-203491666D01*
X268145119Y-203396428D01*
X268097500Y-203348809D01*
X268002261Y-203301190D01*
X267811785Y-203253571D01*
X267716547Y-203205952D01*
X267668928Y-203158333D01*
X267621309Y-203063095D01*
X267621309Y-202967857D01*
X267668928Y-202872619D01*
X267716547Y-202825000D01*
X267811785Y-202777380D01*
X268049880Y-202777380D01*
X268192738Y-202825000D01*
X268478452Y-202777380D02*
X269049880Y-202777380D01*
X268764166Y-203777380D02*
X268764166Y-202777380D01*
X269573690Y-202777380D02*
X269764166Y-202777380D01*
X269859404Y-202825000D01*
X269954642Y-202920238D01*
X270002261Y-203110714D01*
X270002261Y-203444047D01*
X269954642Y-203634523D01*
X269859404Y-203729761D01*
X269764166Y-203777380D01*
X269573690Y-203777380D01*
X269478452Y-203729761D01*
X269383214Y-203634523D01*
X269335595Y-203444047D01*
X269335595Y-203110714D01*
X269383214Y-202920238D01*
X269478452Y-202825000D01*
X269573690Y-202777380D01*
X271002261Y-203777380D02*
X270668928Y-203301190D01*
X270430833Y-203777380D02*
X270430833Y-202777380D01*
X270811785Y-202777380D01*
X270907023Y-202825000D01*
X270954642Y-202872619D01*
X271002261Y-202967857D01*
X271002261Y-203110714D01*
X270954642Y-203205952D01*
X270907023Y-203253571D01*
X270811785Y-203301190D01*
X270430833Y-203301190D01*
X249335595Y-204952380D02*
X249335595Y-203952380D01*
X249573690Y-203952380D01*
X249716547Y-204000000D01*
X249811785Y-204095238D01*
X249859404Y-204190476D01*
X249907023Y-204380952D01*
X249907023Y-204523809D01*
X249859404Y-204714285D01*
X249811785Y-204809523D01*
X249716547Y-204904761D01*
X249573690Y-204952380D01*
X249335595Y-204952380D01*
X250335595Y-204952380D02*
X250335595Y-203952380D01*
X251145119Y-204428571D02*
X250811785Y-204428571D01*
X250811785Y-204952380D02*
X250811785Y-203952380D01*
X251287976Y-203952380D01*
X252002261Y-204428571D02*
X251668928Y-204428571D01*
X251668928Y-204952380D02*
X251668928Y-203952380D01*
X252145119Y-203952380D01*
X252526071Y-204428571D02*
X252859404Y-204428571D01*
X253002261Y-204952380D02*
X252526071Y-204952380D01*
X252526071Y-203952380D01*
X253002261Y-203952380D01*
X254002261Y-204952380D02*
X253668928Y-204476190D01*
X253430833Y-204952380D02*
X253430833Y-203952380D01*
X253811785Y-203952380D01*
X253907023Y-204000000D01*
X253954642Y-204047619D01*
X254002261Y-204142857D01*
X254002261Y-204285714D01*
X253954642Y-204380952D01*
X253907023Y-204428571D01*
X253811785Y-204476190D01*
X253430833Y-204476190D01*
X254430833Y-204428571D02*
X254764166Y-204428571D01*
X254907023Y-204952380D02*
X254430833Y-204952380D01*
X254430833Y-203952380D01*
X254907023Y-203952380D01*
X255335595Y-204952380D02*
X255335595Y-203952380D01*
X255907023Y-204952380D01*
X255907023Y-203952380D01*
X256240357Y-203952380D02*
X256811785Y-203952380D01*
X256526071Y-204952380D02*
X256526071Y-203952380D01*
X257145119Y-204952380D02*
X257145119Y-203952380D01*
X257573690Y-204666666D02*
X258049880Y-204666666D01*
X257478452Y-204952380D02*
X257811785Y-203952380D01*
X258145119Y-204952380D01*
X258954642Y-204952380D02*
X258478452Y-204952380D01*
X258478452Y-203952380D01*
X249287976Y-200904761D02*
X249430833Y-200952380D01*
X249668928Y-200952380D01*
X249764166Y-200904761D01*
X249811785Y-200857142D01*
X249859404Y-200761904D01*
X249859404Y-200666666D01*
X249811785Y-200571428D01*
X249764166Y-200523809D01*
X249668928Y-200476190D01*
X249478452Y-200428571D01*
X249383214Y-200380952D01*
X249335595Y-200333333D01*
X249287976Y-200238095D01*
X249287976Y-200142857D01*
X249335595Y-200047619D01*
X249383214Y-200000000D01*
X249478452Y-199952380D01*
X249716547Y-199952380D01*
X249859404Y-200000000D01*
X250287976Y-200952380D02*
X250287976Y-199952380D01*
X250764166Y-200952380D02*
X250764166Y-199952380D01*
X251335595Y-200952380D01*
X251335595Y-199952380D01*
X252335595Y-200000000D02*
X252240357Y-199952380D01*
X252097500Y-199952380D01*
X251954642Y-200000000D01*
X251859404Y-200095238D01*
X251811785Y-200190476D01*
X251764166Y-200380952D01*
X251764166Y-200523809D01*
X251811785Y-200714285D01*
X251859404Y-200809523D01*
X251954642Y-200904761D01*
X252097500Y-200952380D01*
X252192738Y-200952380D01*
X252335595Y-200904761D01*
X252383214Y-200857142D01*
X252383214Y-200523809D01*
X252192738Y-200523809D01*
X253287976Y-200952380D02*
X252811785Y-200952380D01*
X252811785Y-199952380D01*
X253621309Y-200428571D02*
X253954642Y-200428571D01*
X254097500Y-200952380D02*
X253621309Y-200952380D01*
X253621309Y-199952380D01*
X254097500Y-199952380D01*
X254526071Y-200571428D02*
X255287976Y-200571428D01*
X255764166Y-200428571D02*
X256097500Y-200428571D01*
X256240357Y-200952380D02*
X255764166Y-200952380D01*
X255764166Y-199952380D01*
X256240357Y-199952380D01*
X256668928Y-200952380D02*
X256668928Y-199952380D01*
X257240357Y-200952380D01*
X257240357Y-199952380D01*
X257716547Y-200952380D02*
X257716547Y-199952380D01*
X257954642Y-199952380D01*
X258097500Y-200000000D01*
X258192738Y-200095238D01*
X258240357Y-200190476D01*
X258287976Y-200380952D01*
X258287976Y-200523809D01*
X258240357Y-200714285D01*
X258192738Y-200809523D01*
X258097500Y-200904761D01*
X257954642Y-200952380D01*
X257716547Y-200952380D01*
X258716547Y-200428571D02*
X259049880Y-200428571D01*
X259192738Y-200952380D02*
X258716547Y-200952380D01*
X258716547Y-199952380D01*
X259192738Y-199952380D01*
X259621309Y-200952380D02*
X259621309Y-199952380D01*
X259859404Y-199952380D01*
X260002261Y-200000000D01*
X260097500Y-200095238D01*
X260145119Y-200190476D01*
X260192738Y-200380952D01*
X260192738Y-200523809D01*
X260145119Y-200714285D01*
X260097500Y-200809523D01*
X260002261Y-200904761D01*
X259859404Y-200952380D01*
X259621309Y-200952380D01*
D12*
X263035714Y-215535714D02*
X262964285Y-215607142D01*
X262750000Y-215678571D01*
X262607142Y-215678571D01*
X262392857Y-215607142D01*
X262250000Y-215464285D01*
X262178571Y-215321428D01*
X262107142Y-215035714D01*
X262107142Y-214821428D01*
X262178571Y-214535714D01*
X262250000Y-214392857D01*
X262392857Y-214250000D01*
X262607142Y-214178571D01*
X262750000Y-214178571D01*
X262964285Y-214250000D01*
X263035714Y-214321428D01*
X263964285Y-214178571D02*
X264250000Y-214178571D01*
X264392857Y-214250000D01*
X264535714Y-214392857D01*
X264607142Y-214678571D01*
X264607142Y-215178571D01*
X264535714Y-215464285D01*
X264392857Y-215607142D01*
X264250000Y-215678571D01*
X263964285Y-215678571D01*
X263821428Y-215607142D01*
X263678571Y-215464285D01*
X263607142Y-215178571D01*
X263607142Y-214678571D01*
X263678571Y-214392857D01*
X263821428Y-214250000D01*
X263964285Y-214178571D01*
X265250000Y-215678571D02*
X265250000Y-214178571D01*
X266107142Y-215678571D01*
X266107142Y-214178571D01*
X266607142Y-214178571D02*
X267464285Y-214178571D01*
X267035714Y-215678571D02*
X267035714Y-214178571D01*
X268821428Y-215678571D02*
X268321428Y-214964285D01*
X267964285Y-215678571D02*
X267964285Y-214178571D01*
X268535714Y-214178571D01*
X268678571Y-214250000D01*
X268750000Y-214321428D01*
X268821428Y-214464285D01*
X268821428Y-214678571D01*
X268750000Y-214821428D01*
X268678571Y-214892857D01*
X268535714Y-214964285D01*
X267964285Y-214964285D01*
X269750000Y-214178571D02*
X270035714Y-214178571D01*
X270178571Y-214250000D01*
X270321428Y-214392857D01*
X270392857Y-214678571D01*
X270392857Y-215178571D01*
X270321428Y-215464285D01*
X270178571Y-215607142D01*
X270035714Y-215678571D01*
X269750000Y-215678571D01*
X269607142Y-215607142D01*
X269464285Y-215464285D01*
X269392857Y-215178571D01*
X269392857Y-214678571D01*
X269464285Y-214392857D01*
X269607142Y-214250000D01*
X269750000Y-214178571D01*
X271750000Y-215678571D02*
X271035714Y-215678571D01*
X271035714Y-214178571D01*
X273321428Y-215607142D02*
X273535714Y-215678571D01*
X273892857Y-215678571D01*
X274035714Y-215607142D01*
X274107142Y-215535714D01*
X274178571Y-215392857D01*
X274178571Y-215250000D01*
X274107142Y-215107142D01*
X274035714Y-215035714D01*
X273892857Y-214964285D01*
X273607142Y-214892857D01*
X273464285Y-214821428D01*
X273392857Y-214750000D01*
X273321428Y-214607142D01*
X273321428Y-214464285D01*
X273392857Y-214321428D01*
X273464285Y-214250000D01*
X273607142Y-214178571D01*
X273964285Y-214178571D01*
X274178571Y-214250000D01*
X274821428Y-215678571D02*
X274821428Y-214178571D01*
X276321428Y-214250000D02*
X276178571Y-214178571D01*
X275964285Y-214178571D01*
X275750000Y-214250000D01*
X275607142Y-214392857D01*
X275535714Y-214535714D01*
X275464285Y-214821428D01*
X275464285Y-215035714D01*
X275535714Y-215321428D01*
X275607142Y-215464285D01*
X275750000Y-215607142D01*
X275964285Y-215678571D01*
X276107142Y-215678571D01*
X276321428Y-215607142D01*
X276392857Y-215535714D01*
X276392857Y-215035714D01*
X276107142Y-215035714D01*
X277035714Y-215678571D02*
X277035714Y-214178571D01*
X277892857Y-215678571D01*
X277892857Y-214178571D01*
X278535714Y-215250000D02*
X279250000Y-215250000D01*
X278392857Y-215678571D02*
X278892857Y-214178571D01*
X279392857Y-215678571D01*
X280607142Y-215678571D02*
X279892857Y-215678571D01*
X279892857Y-214178571D01*
X281035714Y-215607142D02*
X281250000Y-215678571D01*
X281607142Y-215678571D01*
X281750000Y-215607142D01*
X281821428Y-215535714D01*
X281892857Y-215392857D01*
X281892857Y-215250000D01*
X281821428Y-215107142D01*
X281750000Y-215035714D01*
X281607142Y-214964285D01*
X281321428Y-214892857D01*
X281178571Y-214821428D01*
X281107142Y-214750000D01*
X281035714Y-214607142D01*
X281035714Y-214464285D01*
X281107142Y-214321428D01*
X281178571Y-214250000D01*
X281321428Y-214178571D01*
X281678571Y-214178571D01*
X281892857Y-214250000D01*
D10*
X233010000Y-171624721D02*
X233010000Y-171950279D01*
X231990000Y-171624721D02*
X231990000Y-171950279D01*
X231240000Y-159587221D02*
X231240000Y-159912779D01*
X232260000Y-159587221D02*
X232260000Y-159912779D01*
X255240000Y-162162779D02*
X255240000Y-161837221D01*
X256260000Y-162162779D02*
X256260000Y-161837221D01*
X228124721Y-194760000D02*
X228450279Y-194760000D01*
X228124721Y-193740000D02*
X228450279Y-193740000D01*
X273765000Y-156237500D02*
X273765000Y-158522500D01*
X273765000Y-158522500D02*
X275235000Y-158522500D01*
X275235000Y-158522500D02*
X275235000Y-156237500D01*
X278765000Y-155552500D02*
X278765000Y-157837500D01*
X280235000Y-155552500D02*
X278765000Y-155552500D01*
X280235000Y-157837500D02*
X280235000Y-155552500D01*
X286765000Y-156237500D02*
X286765000Y-158522500D01*
X286765000Y-158522500D02*
X288235000Y-158522500D01*
X288235000Y-158522500D02*
X288235000Y-156237500D01*
X247265000Y-199700000D02*
X247265000Y-201985000D01*
X247265000Y-201985000D02*
X248735000Y-201985000D01*
X248735000Y-201985000D02*
X248735000Y-199700000D01*
X248735000Y-205985000D02*
X248735000Y-203700000D01*
X247265000Y-205985000D02*
X248735000Y-205985000D01*
X247265000Y-203700000D02*
X247265000Y-205985000D01*
X263735000Y-203985000D02*
X263735000Y-201700000D01*
X262265000Y-203985000D02*
X263735000Y-203985000D01*
X262265000Y-201700000D02*
X262265000Y-203985000D01*
X274735000Y-203985000D02*
X274735000Y-201700000D01*
X273265000Y-203985000D02*
X274735000Y-203985000D01*
X273265000Y-201700000D02*
X273265000Y-203985000D01*
X286265000Y-201700000D02*
X286265000Y-203985000D01*
X286265000Y-203985000D02*
X287735000Y-203985000D01*
X287735000Y-203985000D02*
X287735000Y-201700000D01*
X280870000Y-151330000D02*
X280870000Y-148670000D01*
X275730000Y-151330000D02*
X280870000Y-151330000D01*
X275730000Y-148670000D02*
X280870000Y-148670000D01*
X275730000Y-151330000D02*
X275730000Y-148670000D01*
X274460000Y-151330000D02*
X273130000Y-151330000D01*
X273130000Y-151330000D02*
X273130000Y-150000000D01*
X288670000Y-187650000D02*
X291330000Y-187650000D01*
X288670000Y-167270000D02*
X288670000Y-187650000D01*
X291330000Y-167270000D02*
X291330000Y-187650000D01*
X288670000Y-167270000D02*
X291330000Y-167270000D01*
X288670000Y-166000000D02*
X288670000Y-164670000D01*
X288670000Y-164670000D02*
X290000000Y-164670000D01*
X291330000Y-151330000D02*
X291330000Y-148670000D01*
X288730000Y-151330000D02*
X291330000Y-151330000D01*
X288730000Y-148670000D02*
X291330000Y-148670000D01*
X288730000Y-151330000D02*
X288730000Y-148670000D01*
X287460000Y-151330000D02*
X286130000Y-151330000D01*
X286130000Y-151330000D02*
X286130000Y-150000000D01*
X210130000Y-211330000D02*
X210130000Y-210000000D01*
X211460000Y-211330000D02*
X210130000Y-211330000D01*
X212730000Y-211330000D02*
X212730000Y-208670000D01*
X212730000Y-208670000D02*
X215330000Y-208670000D01*
X212730000Y-211330000D02*
X215330000Y-211330000D01*
X215330000Y-211330000D02*
X215330000Y-208670000D01*
X211330000Y-156510000D02*
X208670000Y-156510000D01*
X211330000Y-166730000D02*
X211330000Y-156510000D01*
X208670000Y-166730000D02*
X208670000Y-156510000D01*
X211330000Y-166730000D02*
X208670000Y-166730000D01*
X211330000Y-168000000D02*
X211330000Y-169330000D01*
X211330000Y-169330000D02*
X210000000Y-169330000D01*
X234330000Y-211330000D02*
X234330000Y-208670000D01*
X231730000Y-211330000D02*
X234330000Y-211330000D01*
X231730000Y-208670000D02*
X234330000Y-208670000D01*
X231730000Y-211330000D02*
X231730000Y-208670000D01*
X230460000Y-211330000D02*
X229130000Y-211330000D01*
X229130000Y-211330000D02*
X229130000Y-210000000D01*
X273990000Y-160700279D02*
X273990000Y-160374721D01*
X275010000Y-160700279D02*
X275010000Y-160374721D01*
X280010000Y-160374721D02*
X280010000Y-160700279D01*
X278990000Y-160374721D02*
X278990000Y-160700279D01*
X288010000Y-160700279D02*
X288010000Y-160374721D01*
X286990000Y-160700279D02*
X286990000Y-160374721D01*
X227125279Y-169510000D02*
X226799721Y-169510000D01*
X227125279Y-168490000D02*
X226799721Y-168490000D01*
X227990000Y-171587221D02*
X227990000Y-171912779D01*
X229010000Y-171587221D02*
X229010000Y-171912779D01*
X231010000Y-171587221D02*
X231010000Y-171912779D01*
X229990000Y-171587221D02*
X229990000Y-171912779D01*
X231010000Y-176700279D02*
X231010000Y-176374721D01*
X229990000Y-176700279D02*
X229990000Y-176374721D01*
X227549721Y-175240000D02*
X227875279Y-175240000D01*
X227549721Y-176260000D02*
X227875279Y-176260000D01*
X227875279Y-177240000D02*
X227549721Y-177240000D01*
X227875279Y-178260000D02*
X227549721Y-178260000D01*
X236299721Y-169510000D02*
X236625279Y-169510000D01*
X236299721Y-168490000D02*
X236625279Y-168490000D01*
X237010000Y-171624721D02*
X237010000Y-171950279D01*
X235990000Y-171624721D02*
X235990000Y-171950279D01*
X235010000Y-171624721D02*
X235010000Y-171950279D01*
X233990000Y-171624721D02*
X233990000Y-171950279D01*
X216837221Y-194760000D02*
X217162779Y-194760000D01*
X216837221Y-193740000D02*
X217162779Y-193740000D01*
X233010000Y-176700279D02*
X233010000Y-176374721D01*
X231990000Y-176700279D02*
X231990000Y-176374721D01*
X261049721Y-161240000D02*
X261375279Y-161240000D01*
X261049721Y-162260000D02*
X261375279Y-162260000D01*
X265200279Y-161240000D02*
X264874721Y-161240000D01*
X265200279Y-162260000D02*
X264874721Y-162260000D01*
X235450279Y-175990000D02*
X235124721Y-175990000D01*
X235450279Y-177010000D02*
X235124721Y-177010000D01*
X235124721Y-177990000D02*
X235450279Y-177990000D01*
X235124721Y-179010000D02*
X235450279Y-179010000D01*
X236337221Y-161990000D02*
X236662779Y-161990000D01*
X236337221Y-163010000D02*
X236662779Y-163010000D01*
X236260000Y-159912779D02*
X236260000Y-159587221D01*
X235240000Y-159912779D02*
X235240000Y-159587221D01*
X233240000Y-159912779D02*
X233240000Y-159587221D01*
X234260000Y-159912779D02*
X234260000Y-159587221D01*
X233240000Y-154087221D02*
X233240000Y-154412779D01*
X234260000Y-154087221D02*
X234260000Y-154412779D01*
X236700279Y-155510000D02*
X236374721Y-155510000D01*
X236700279Y-154490000D02*
X236374721Y-154490000D01*
X236374721Y-153510000D02*
X236700279Y-153510000D01*
X236374721Y-152490000D02*
X236700279Y-152490000D01*
X227162779Y-163010000D02*
X226837221Y-163010000D01*
X227162779Y-161990000D02*
X226837221Y-161990000D01*
X228260000Y-159912779D02*
X228260000Y-159587221D01*
X227240000Y-159912779D02*
X227240000Y-159587221D01*
X230260000Y-159912779D02*
X230260000Y-159587221D01*
X229240000Y-159912779D02*
X229240000Y-159587221D01*
X232260000Y-154087221D02*
X232260000Y-154412779D01*
X231240000Y-154087221D02*
X231240000Y-154412779D01*
X228799721Y-154490000D02*
X229125279Y-154490000D01*
X228799721Y-155510000D02*
X229125279Y-155510000D01*
X229125279Y-152490000D02*
X228799721Y-152490000D01*
X229125279Y-153510000D02*
X228799721Y-153510000D01*
X247490000Y-197162779D02*
X247490000Y-196837221D01*
X248510000Y-197162779D02*
X248510000Y-196837221D01*
X247490000Y-208162779D02*
X247490000Y-207837221D01*
X248510000Y-208162779D02*
X248510000Y-207837221D01*
X263510000Y-206162779D02*
X263510000Y-205837221D01*
X262490000Y-206162779D02*
X262490000Y-205837221D01*
X273490000Y-206162779D02*
X273490000Y-205837221D01*
X274510000Y-206162779D02*
X274510000Y-205837221D01*
X286490000Y-206162779D02*
X286490000Y-205837221D01*
X287510000Y-206162779D02*
X287510000Y-205837221D01*
X210490000Y-149837221D02*
X210490000Y-150162779D01*
X211510000Y-149837221D02*
X211510000Y-150162779D01*
X213490000Y-149837221D02*
X213490000Y-150162779D01*
X214510000Y-149837221D02*
X214510000Y-150162779D01*
X217510000Y-149837221D02*
X217510000Y-150162779D01*
X216490000Y-149837221D02*
X216490000Y-150162779D01*
X219490000Y-149837221D02*
X219490000Y-150162779D01*
X220510000Y-149837221D02*
X220510000Y-150162779D01*
X217250000Y-176500000D02*
G75*
G03X217250000Y-176500000I-1750000J0D01*
G01*
X244950000Y-170750000D02*
G75*
G03X244950000Y-170750000I-700000J0D01*
G01*
X219200000Y-168000000D02*
G75*
G03X219200000Y-168000000I-700000J0D01*
G01*
X244950000Y-167000000D02*
G75*
G03X244950000Y-167000000I-700000J0D01*
G01*
X219200000Y-165500000D02*
G75*
G03X219200000Y-165500000I-700000J0D01*
G01*
X212200000Y-205500000D02*
G75*
G03X212200000Y-205500000I-700000J0D01*
G01*
X226700000Y-187750000D02*
G75*
G03X226700000Y-187750000I-700000J0D01*
G01*
X218450000Y-191000000D02*
G75*
G03X218450000Y-191000000I-700000J0D01*
G01*
X270200000Y-168500000D02*
G75*
G03X270200000Y-168500000I-700000J0D01*
G01*
X270200000Y-166000000D02*
G75*
G03X270200000Y-166000000I-700000J0D01*
G01*
X253950000Y-157500000D02*
G75*
G03X253950000Y-157500000I-700000J0D01*
G01*
X251450000Y-160250000D02*
G75*
G03X251450000Y-160250000I-700000J0D01*
G01*
X244950000Y-163500000D02*
G75*
G03X244950000Y-163500000I-700000J0D01*
G01*
X219200000Y-163000000D02*
G75*
G03X219200000Y-163000000I-700000J0D01*
G01*
X226700000Y-190500000D02*
G75*
G03X226700000Y-190500000I-700000J0D01*
G01*
X231200000Y-205500000D02*
G75*
G03X231200000Y-205500000I-700000J0D01*
G01*
X244950000Y-160000000D02*
G75*
G03X244950000Y-160000000I-700000J0D01*
G01*
X219200000Y-160500000D02*
G75*
G03X219200000Y-160500000I-700000J0D01*
G01*
X274700000Y-197500000D02*
G75*
G03X274700000Y-197500000I-700000J0D01*
G01*
X263700000Y-197500000D02*
G75*
G03X263700000Y-197500000I-700000J0D01*
G01*
X252700000Y-197500000D02*
G75*
G03X252700000Y-197500000I-700000J0D01*
G01*
X287700000Y-197500000D02*
G75*
G03X287700000Y-197500000I-700000J0D01*
G01*
X211700000Y-147000000D02*
G75*
G03X211700000Y-147000000I-700000J0D01*
G01*
X214700000Y-147000000D02*
G75*
G03X214700000Y-147000000I-700000J0D01*
G01*
X217700000Y-147000000D02*
G75*
G03X217700000Y-147000000I-700000J0D01*
G01*
X220700000Y-147000000D02*
G75*
G03X220700000Y-147000000I-700000J0D01*
G01*
X211700000Y-153000000D02*
G75*
G03X211700000Y-153000000I-700000J0D01*
G01*
X214700000Y-153000000D02*
G75*
G03X214700000Y-153000000I-700000J0D01*
G01*
X217700000Y-153000000D02*
G75*
G03X217700000Y-153000000I-700000J0D01*
G01*
X220700000Y-153000000D02*
G75*
G03X220700000Y-153000000I-700000J0D01*
G01*
X229125000Y-168075000D02*
X229250000Y-168075000D01*
X229125000Y-163425000D02*
X229350000Y-163425000D01*
X234375000Y-163425000D02*
X234150000Y-163425000D01*
X234375000Y-168075000D02*
X234150000Y-168075000D01*
X229125000Y-168075000D02*
X229125000Y-163425000D01*
X234375000Y-168075000D02*
X234375000Y-163425000D01*
X229250000Y-168075000D02*
X229250000Y-169425000D01*
X214010000Y-196570000D02*
X214010000Y-194810000D01*
X210940000Y-194810000D02*
X210940000Y-197240000D01*
X221575000Y-193575000D02*
X221575000Y-193750000D01*
X224925000Y-193575000D02*
X224925000Y-193825000D01*
X224925000Y-196925000D02*
X224925000Y-196675000D01*
X221575000Y-196925000D02*
X221575000Y-196675000D01*
X221575000Y-193575000D02*
X224925000Y-193575000D01*
X221575000Y-196925000D02*
X224925000Y-196925000D01*
X221575000Y-193750000D02*
X220325000Y-193750000D01*
X254425000Y-163575000D02*
X254200000Y-163575000D01*
X254425000Y-166925000D02*
X254125000Y-166925000D01*
X251075000Y-166925000D02*
X251375000Y-166925000D01*
X251075000Y-163575000D02*
X251375000Y-163575000D01*
X254425000Y-163575000D02*
X254425000Y-166925000D01*
X251075000Y-163575000D02*
X251075000Y-166925000D01*
X254200000Y-163575000D02*
X254200000Y-162350000D01*
D11*
X232785714Y-174133333D02*
X232823809Y-174171428D01*
X232861904Y-174285714D01*
X232861904Y-174361904D01*
X232823809Y-174476190D01*
X232747619Y-174552380D01*
X232671428Y-174590476D01*
X232519047Y-174628571D01*
X232404761Y-174628571D01*
X232252380Y-174590476D01*
X232176190Y-174552380D01*
X232100000Y-174476190D01*
X232061904Y-174361904D01*
X232061904Y-174285714D01*
X232100000Y-174171428D01*
X232138095Y-174133333D01*
X232861904Y-173371428D02*
X232861904Y-173828571D01*
X232861904Y-173600000D02*
X232061904Y-173600000D01*
X232176190Y-173676190D01*
X232252380Y-173752380D01*
X232290476Y-173828571D01*
X232035714Y-157633333D02*
X232073809Y-157671428D01*
X232111904Y-157785714D01*
X232111904Y-157861904D01*
X232073809Y-157976190D01*
X231997619Y-158052380D01*
X231921428Y-158090476D01*
X231769047Y-158128571D01*
X231654761Y-158128571D01*
X231502380Y-158090476D01*
X231426190Y-158052380D01*
X231350000Y-157976190D01*
X231311904Y-157861904D01*
X231311904Y-157785714D01*
X231350000Y-157671428D01*
X231388095Y-157633333D01*
X231388095Y-157328571D02*
X231350000Y-157290476D01*
X231311904Y-157214285D01*
X231311904Y-157023809D01*
X231350000Y-156947619D01*
X231388095Y-156909523D01*
X231464285Y-156871428D01*
X231540476Y-156871428D01*
X231654761Y-156909523D01*
X232111904Y-157366666D01*
X232111904Y-156871428D01*
X257285714Y-162133333D02*
X257323809Y-162171428D01*
X257361904Y-162285714D01*
X257361904Y-162361904D01*
X257323809Y-162476190D01*
X257247619Y-162552380D01*
X257171428Y-162590476D01*
X257019047Y-162628571D01*
X256904761Y-162628571D01*
X256752380Y-162590476D01*
X256676190Y-162552380D01*
X256600000Y-162476190D01*
X256561904Y-162361904D01*
X256561904Y-162285714D01*
X256600000Y-162171428D01*
X256638095Y-162133333D01*
X256561904Y-161866666D02*
X256561904Y-161371428D01*
X256866666Y-161638095D01*
X256866666Y-161523809D01*
X256904761Y-161447619D01*
X256942857Y-161409523D01*
X257019047Y-161371428D01*
X257209523Y-161371428D01*
X257285714Y-161409523D01*
X257323809Y-161447619D01*
X257361904Y-161523809D01*
X257361904Y-161752380D01*
X257323809Y-161828571D01*
X257285714Y-161866666D01*
X228116666Y-195785714D02*
X228078571Y-195823809D01*
X227964285Y-195861904D01*
X227888095Y-195861904D01*
X227773809Y-195823809D01*
X227697619Y-195747619D01*
X227659523Y-195671428D01*
X227621428Y-195519047D01*
X227621428Y-195404761D01*
X227659523Y-195252380D01*
X227697619Y-195176190D01*
X227773809Y-195100000D01*
X227888095Y-195061904D01*
X227964285Y-195061904D01*
X228078571Y-195100000D01*
X228116666Y-195138095D01*
X228802380Y-195328571D02*
X228802380Y-195861904D01*
X228611904Y-195023809D02*
X228421428Y-195595238D01*
X228916666Y-195595238D01*
X276361904Y-157627976D02*
X275561904Y-157627976D01*
X275561904Y-157437500D01*
X275600000Y-157323214D01*
X275676190Y-157247023D01*
X275752380Y-157208928D01*
X275904761Y-157170833D01*
X276019047Y-157170833D01*
X276171428Y-157208928D01*
X276247619Y-157247023D01*
X276323809Y-157323214D01*
X276361904Y-157437500D01*
X276361904Y-157627976D01*
X276361904Y-156408928D02*
X276361904Y-156866071D01*
X276361904Y-156637500D02*
X275561904Y-156637500D01*
X275676190Y-156713690D01*
X275752380Y-156789880D01*
X275790476Y-156866071D01*
X281291904Y-157627976D02*
X280491904Y-157627976D01*
X280491904Y-157437500D01*
X280530000Y-157323214D01*
X280606190Y-157247023D01*
X280682380Y-157208928D01*
X280834761Y-157170833D01*
X280949047Y-157170833D01*
X281101428Y-157208928D01*
X281177619Y-157247023D01*
X281253809Y-157323214D01*
X281291904Y-157437500D01*
X281291904Y-157627976D01*
X280568095Y-156866071D02*
X280530000Y-156827976D01*
X280491904Y-156751785D01*
X280491904Y-156561309D01*
X280530000Y-156485119D01*
X280568095Y-156447023D01*
X280644285Y-156408928D01*
X280720476Y-156408928D01*
X280834761Y-156447023D01*
X281291904Y-156904166D01*
X281291904Y-156408928D01*
X289361904Y-157627976D02*
X288561904Y-157627976D01*
X288561904Y-157437500D01*
X288600000Y-157323214D01*
X288676190Y-157247023D01*
X288752380Y-157208928D01*
X288904761Y-157170833D01*
X289019047Y-157170833D01*
X289171428Y-157208928D01*
X289247619Y-157247023D01*
X289323809Y-157323214D01*
X289361904Y-157437500D01*
X289361904Y-157627976D01*
X288561904Y-156904166D02*
X288561904Y-156408928D01*
X288866666Y-156675595D01*
X288866666Y-156561309D01*
X288904761Y-156485119D01*
X288942857Y-156447023D01*
X289019047Y-156408928D01*
X289209523Y-156408928D01*
X289285714Y-156447023D01*
X289323809Y-156485119D01*
X289361904Y-156561309D01*
X289361904Y-156789880D01*
X289323809Y-156866071D01*
X289285714Y-156904166D01*
X246861904Y-201090476D02*
X246061904Y-201090476D01*
X246061904Y-200900000D01*
X246100000Y-200785714D01*
X246176190Y-200709523D01*
X246252380Y-200671428D01*
X246404761Y-200633333D01*
X246519047Y-200633333D01*
X246671428Y-200671428D01*
X246747619Y-200709523D01*
X246823809Y-200785714D01*
X246861904Y-200900000D01*
X246861904Y-201090476D01*
X246328571Y-199947619D02*
X246861904Y-199947619D01*
X246023809Y-200138095D02*
X246595238Y-200328571D01*
X246595238Y-199833333D01*
X246861904Y-205090476D02*
X246061904Y-205090476D01*
X246061904Y-204900000D01*
X246100000Y-204785714D01*
X246176190Y-204709523D01*
X246252380Y-204671428D01*
X246404761Y-204633333D01*
X246519047Y-204633333D01*
X246671428Y-204671428D01*
X246747619Y-204709523D01*
X246823809Y-204785714D01*
X246861904Y-204900000D01*
X246861904Y-205090476D01*
X246061904Y-203909523D02*
X246061904Y-204290476D01*
X246442857Y-204328571D01*
X246404761Y-204290476D01*
X246366666Y-204214285D01*
X246366666Y-204023809D01*
X246404761Y-203947619D01*
X246442857Y-203909523D01*
X246519047Y-203871428D01*
X246709523Y-203871428D01*
X246785714Y-203909523D01*
X246823809Y-203947619D01*
X246861904Y-204023809D01*
X246861904Y-204214285D01*
X246823809Y-204290476D01*
X246785714Y-204328571D01*
X263361904Y-200840476D02*
X262561904Y-200840476D01*
X262561904Y-200650000D01*
X262600000Y-200535714D01*
X262676190Y-200459523D01*
X262752380Y-200421428D01*
X262904761Y-200383333D01*
X263019047Y-200383333D01*
X263171428Y-200421428D01*
X263247619Y-200459523D01*
X263323809Y-200535714D01*
X263361904Y-200650000D01*
X263361904Y-200840476D01*
X262561904Y-199697619D02*
X262561904Y-199850000D01*
X262600000Y-199926190D01*
X262638095Y-199964285D01*
X262752380Y-200040476D01*
X262904761Y-200078571D01*
X263209523Y-200078571D01*
X263285714Y-200040476D01*
X263323809Y-200002380D01*
X263361904Y-199926190D01*
X263361904Y-199773809D01*
X263323809Y-199697619D01*
X263285714Y-199659523D01*
X263209523Y-199621428D01*
X263019047Y-199621428D01*
X262942857Y-199659523D01*
X262904761Y-199697619D01*
X262866666Y-199773809D01*
X262866666Y-199926190D01*
X262904761Y-200002380D01*
X262942857Y-200040476D01*
X263019047Y-200078571D01*
X274361904Y-200840476D02*
X273561904Y-200840476D01*
X273561904Y-200650000D01*
X273600000Y-200535714D01*
X273676190Y-200459523D01*
X273752380Y-200421428D01*
X273904761Y-200383333D01*
X274019047Y-200383333D01*
X274171428Y-200421428D01*
X274247619Y-200459523D01*
X274323809Y-200535714D01*
X274361904Y-200650000D01*
X274361904Y-200840476D01*
X273561904Y-200116666D02*
X273561904Y-199583333D01*
X274361904Y-199926190D01*
X287361904Y-200590476D02*
X286561904Y-200590476D01*
X286561904Y-200400000D01*
X286600000Y-200285714D01*
X286676190Y-200209523D01*
X286752380Y-200171428D01*
X286904761Y-200133333D01*
X287019047Y-200133333D01*
X287171428Y-200171428D01*
X287247619Y-200209523D01*
X287323809Y-200285714D01*
X287361904Y-200400000D01*
X287361904Y-200590476D01*
X286904761Y-199676190D02*
X286866666Y-199752380D01*
X286828571Y-199790476D01*
X286752380Y-199828571D01*
X286714285Y-199828571D01*
X286638095Y-199790476D01*
X286600000Y-199752380D01*
X286561904Y-199676190D01*
X286561904Y-199523809D01*
X286600000Y-199447619D01*
X286638095Y-199409523D01*
X286714285Y-199371428D01*
X286752380Y-199371428D01*
X286828571Y-199409523D01*
X286866666Y-199447619D01*
X286904761Y-199523809D01*
X286904761Y-199676190D01*
X286942857Y-199752380D01*
X286980952Y-199790476D01*
X287057142Y-199828571D01*
X287209523Y-199828571D01*
X287285714Y-199790476D01*
X287323809Y-199752380D01*
X287361904Y-199676190D01*
X287361904Y-199523809D01*
X287323809Y-199447619D01*
X287285714Y-199409523D01*
X287209523Y-199371428D01*
X287057142Y-199371428D01*
X286980952Y-199409523D01*
X286942857Y-199447619D01*
X286904761Y-199523809D01*
X271691904Y-150266666D02*
X272263333Y-150266666D01*
X272377619Y-150304761D01*
X272453809Y-150380952D01*
X272491904Y-150495238D01*
X272491904Y-150571428D01*
X272491904Y-149466666D02*
X272491904Y-149923809D01*
X272491904Y-149695238D02*
X271691904Y-149695238D01*
X271806190Y-149771428D01*
X271882380Y-149847619D01*
X271920476Y-149923809D01*
X289733333Y-163231904D02*
X289733333Y-163803333D01*
X289695238Y-163917619D01*
X289619047Y-163993809D01*
X289504761Y-164031904D01*
X289428571Y-164031904D01*
X290076190Y-163308095D02*
X290114285Y-163270000D01*
X290190476Y-163231904D01*
X290380952Y-163231904D01*
X290457142Y-163270000D01*
X290495238Y-163308095D01*
X290533333Y-163384285D01*
X290533333Y-163460476D01*
X290495238Y-163574761D01*
X290038095Y-164031904D01*
X290533333Y-164031904D01*
X284691904Y-150266666D02*
X285263333Y-150266666D01*
X285377619Y-150304761D01*
X285453809Y-150380952D01*
X285491904Y-150495238D01*
X285491904Y-150571428D01*
X284691904Y-149961904D02*
X284691904Y-149466666D01*
X284996666Y-149733333D01*
X284996666Y-149619047D01*
X285034761Y-149542857D01*
X285072857Y-149504761D01*
X285149047Y-149466666D01*
X285339523Y-149466666D01*
X285415714Y-149504761D01*
X285453809Y-149542857D01*
X285491904Y-149619047D01*
X285491904Y-149847619D01*
X285453809Y-149923809D01*
X285415714Y-149961904D01*
X208691904Y-210266666D02*
X209263333Y-210266666D01*
X209377619Y-210304761D01*
X209453809Y-210380952D01*
X209491904Y-210495238D01*
X209491904Y-210571428D01*
X208958571Y-209542857D02*
X209491904Y-209542857D01*
X208653809Y-209733333D02*
X209225238Y-209923809D01*
X209225238Y-209428571D01*
X209733333Y-169891904D02*
X209733333Y-170463333D01*
X209695238Y-170577619D01*
X209619047Y-170653809D01*
X209504761Y-170691904D01*
X209428571Y-170691904D01*
X210495238Y-169891904D02*
X210114285Y-169891904D01*
X210076190Y-170272857D01*
X210114285Y-170234761D01*
X210190476Y-170196666D01*
X210380952Y-170196666D01*
X210457142Y-170234761D01*
X210495238Y-170272857D01*
X210533333Y-170349047D01*
X210533333Y-170539523D01*
X210495238Y-170615714D01*
X210457142Y-170653809D01*
X210380952Y-170691904D01*
X210190476Y-170691904D01*
X210114285Y-170653809D01*
X210076190Y-170615714D01*
X227691904Y-210266666D02*
X228263333Y-210266666D01*
X228377619Y-210304761D01*
X228453809Y-210380952D01*
X228491904Y-210495238D01*
X228491904Y-210571428D01*
X227691904Y-209542857D02*
X227691904Y-209695238D01*
X227730000Y-209771428D01*
X227768095Y-209809523D01*
X227882380Y-209885714D01*
X228034761Y-209923809D01*
X228339523Y-209923809D01*
X228415714Y-209885714D01*
X228453809Y-209847619D01*
X228491904Y-209771428D01*
X228491904Y-209619047D01*
X228453809Y-209542857D01*
X228415714Y-209504761D01*
X228339523Y-209466666D01*
X228149047Y-209466666D01*
X228072857Y-209504761D01*
X228034761Y-209542857D01*
X227996666Y-209619047D01*
X227996666Y-209771428D01*
X228034761Y-209847619D01*
X228072857Y-209885714D01*
X228149047Y-209923809D01*
X276361904Y-160670833D02*
X275980952Y-160937500D01*
X276361904Y-161127976D02*
X275561904Y-161127976D01*
X275561904Y-160823214D01*
X275600000Y-160747023D01*
X275638095Y-160708928D01*
X275714285Y-160670833D01*
X275828571Y-160670833D01*
X275904761Y-160708928D01*
X275942857Y-160747023D01*
X275980952Y-160823214D01*
X275980952Y-161127976D01*
X276361904Y-159908928D02*
X276361904Y-160366071D01*
X276361904Y-160137500D02*
X275561904Y-160137500D01*
X275676190Y-160213690D01*
X275752380Y-160289880D01*
X275790476Y-160366071D01*
X281291904Y-160670833D02*
X280910952Y-160937500D01*
X281291904Y-161127976D02*
X280491904Y-161127976D01*
X280491904Y-160823214D01*
X280530000Y-160747023D01*
X280568095Y-160708928D01*
X280644285Y-160670833D01*
X280758571Y-160670833D01*
X280834761Y-160708928D01*
X280872857Y-160747023D01*
X280910952Y-160823214D01*
X280910952Y-161127976D01*
X280568095Y-160366071D02*
X280530000Y-160327976D01*
X280491904Y-160251785D01*
X280491904Y-160061309D01*
X280530000Y-159985119D01*
X280568095Y-159947023D01*
X280644285Y-159908928D01*
X280720476Y-159908928D01*
X280834761Y-159947023D01*
X281291904Y-160404166D01*
X281291904Y-159908928D01*
X289361904Y-160670833D02*
X288980952Y-160937500D01*
X289361904Y-161127976D02*
X288561904Y-161127976D01*
X288561904Y-160823214D01*
X288600000Y-160747023D01*
X288638095Y-160708928D01*
X288714285Y-160670833D01*
X288828571Y-160670833D01*
X288904761Y-160708928D01*
X288942857Y-160747023D01*
X288980952Y-160823214D01*
X288980952Y-161127976D01*
X288561904Y-160404166D02*
X288561904Y-159908928D01*
X288866666Y-160175595D01*
X288866666Y-160061309D01*
X288904761Y-159985119D01*
X288942857Y-159947023D01*
X289019047Y-159908928D01*
X289209523Y-159908928D01*
X289285714Y-159947023D01*
X289323809Y-159985119D01*
X289361904Y-160061309D01*
X289361904Y-160289880D01*
X289323809Y-160366071D01*
X289285714Y-160404166D01*
X224616666Y-169361904D02*
X224350000Y-168980952D01*
X224159523Y-169361904D02*
X224159523Y-168561904D01*
X224464285Y-168561904D01*
X224540476Y-168600000D01*
X224578571Y-168638095D01*
X224616666Y-168714285D01*
X224616666Y-168828571D01*
X224578571Y-168904761D01*
X224540476Y-168942857D01*
X224464285Y-168980952D01*
X224159523Y-168980952D01*
X225302380Y-168828571D02*
X225302380Y-169361904D01*
X225111904Y-168523809D02*
X224921428Y-169095238D01*
X225416666Y-169095238D01*
X228861904Y-174133333D02*
X228480952Y-174400000D01*
X228861904Y-174590476D02*
X228061904Y-174590476D01*
X228061904Y-174285714D01*
X228100000Y-174209523D01*
X228138095Y-174171428D01*
X228214285Y-174133333D01*
X228328571Y-174133333D01*
X228404761Y-174171428D01*
X228442857Y-174209523D01*
X228480952Y-174285714D01*
X228480952Y-174590476D01*
X228061904Y-173409523D02*
X228061904Y-173790476D01*
X228442857Y-173828571D01*
X228404761Y-173790476D01*
X228366666Y-173714285D01*
X228366666Y-173523809D01*
X228404761Y-173447619D01*
X228442857Y-173409523D01*
X228519047Y-173371428D01*
X228709523Y-173371428D01*
X228785714Y-173409523D01*
X228823809Y-173447619D01*
X228861904Y-173523809D01*
X228861904Y-173714285D01*
X228823809Y-173790476D01*
X228785714Y-173828571D01*
X230861904Y-174133333D02*
X230480952Y-174400000D01*
X230861904Y-174590476D02*
X230061904Y-174590476D01*
X230061904Y-174285714D01*
X230100000Y-174209523D01*
X230138095Y-174171428D01*
X230214285Y-174133333D01*
X230328571Y-174133333D01*
X230404761Y-174171428D01*
X230442857Y-174209523D01*
X230480952Y-174285714D01*
X230480952Y-174590476D01*
X230061904Y-173447619D02*
X230061904Y-173600000D01*
X230100000Y-173676190D01*
X230138095Y-173714285D01*
X230252380Y-173790476D01*
X230404761Y-173828571D01*
X230709523Y-173828571D01*
X230785714Y-173790476D01*
X230823809Y-173752380D01*
X230861904Y-173676190D01*
X230861904Y-173523809D01*
X230823809Y-173447619D01*
X230785714Y-173409523D01*
X230709523Y-173371428D01*
X230519047Y-173371428D01*
X230442857Y-173409523D01*
X230404761Y-173447619D01*
X230366666Y-173523809D01*
X230366666Y-173676190D01*
X230404761Y-173752380D01*
X230442857Y-173790476D01*
X230519047Y-173828571D01*
X230861904Y-179133333D02*
X230480952Y-179400000D01*
X230861904Y-179590476D02*
X230061904Y-179590476D01*
X230061904Y-179285714D01*
X230100000Y-179209523D01*
X230138095Y-179171428D01*
X230214285Y-179133333D01*
X230328571Y-179133333D01*
X230404761Y-179171428D01*
X230442857Y-179209523D01*
X230480952Y-179285714D01*
X230480952Y-179590476D01*
X230061904Y-178866666D02*
X230061904Y-178333333D01*
X230861904Y-178676190D01*
X225329166Y-176111904D02*
X225062500Y-175730952D01*
X224872023Y-176111904D02*
X224872023Y-175311904D01*
X225176785Y-175311904D01*
X225252976Y-175350000D01*
X225291071Y-175388095D01*
X225329166Y-175464285D01*
X225329166Y-175578571D01*
X225291071Y-175654761D01*
X225252976Y-175692857D01*
X225176785Y-175730952D01*
X224872023Y-175730952D01*
X225786309Y-175654761D02*
X225710119Y-175616666D01*
X225672023Y-175578571D01*
X225633928Y-175502380D01*
X225633928Y-175464285D01*
X225672023Y-175388095D01*
X225710119Y-175350000D01*
X225786309Y-175311904D01*
X225938690Y-175311904D01*
X226014880Y-175350000D01*
X226052976Y-175388095D01*
X226091071Y-175464285D01*
X226091071Y-175502380D01*
X226052976Y-175578571D01*
X226014880Y-175616666D01*
X225938690Y-175654761D01*
X225786309Y-175654761D01*
X225710119Y-175692857D01*
X225672023Y-175730952D01*
X225633928Y-175807142D01*
X225633928Y-175959523D01*
X225672023Y-176035714D01*
X225710119Y-176073809D01*
X225786309Y-176111904D01*
X225938690Y-176111904D01*
X226014880Y-176073809D01*
X226052976Y-176035714D01*
X226091071Y-175959523D01*
X226091071Y-175807142D01*
X226052976Y-175730952D01*
X226014880Y-175692857D01*
X225938690Y-175654761D01*
X225329166Y-178111904D02*
X225062500Y-177730952D01*
X224872023Y-178111904D02*
X224872023Y-177311904D01*
X225176785Y-177311904D01*
X225252976Y-177350000D01*
X225291071Y-177388095D01*
X225329166Y-177464285D01*
X225329166Y-177578571D01*
X225291071Y-177654761D01*
X225252976Y-177692857D01*
X225176785Y-177730952D01*
X224872023Y-177730952D01*
X225710119Y-178111904D02*
X225862500Y-178111904D01*
X225938690Y-178073809D01*
X225976785Y-178035714D01*
X226052976Y-177921428D01*
X226091071Y-177769047D01*
X226091071Y-177464285D01*
X226052976Y-177388095D01*
X226014880Y-177350000D01*
X225938690Y-177311904D01*
X225786309Y-177311904D01*
X225710119Y-177350000D01*
X225672023Y-177388095D01*
X225633928Y-177464285D01*
X225633928Y-177654761D01*
X225672023Y-177730952D01*
X225710119Y-177769047D01*
X225786309Y-177807142D01*
X225938690Y-177807142D01*
X226014880Y-177769047D01*
X226052976Y-177730952D01*
X226091071Y-177654761D01*
X238485714Y-169361904D02*
X238219047Y-168980952D01*
X238028571Y-169361904D02*
X238028571Y-168561904D01*
X238333333Y-168561904D01*
X238409523Y-168600000D01*
X238447619Y-168638095D01*
X238485714Y-168714285D01*
X238485714Y-168828571D01*
X238447619Y-168904761D01*
X238409523Y-168942857D01*
X238333333Y-168980952D01*
X238028571Y-168980952D01*
X239247619Y-169361904D02*
X238790476Y-169361904D01*
X239019047Y-169361904D02*
X239019047Y-168561904D01*
X238942857Y-168676190D01*
X238866666Y-168752380D01*
X238790476Y-168790476D01*
X239742857Y-168561904D02*
X239819047Y-168561904D01*
X239895238Y-168600000D01*
X239933333Y-168638095D01*
X239971428Y-168714285D01*
X240009523Y-168866666D01*
X240009523Y-169057142D01*
X239971428Y-169209523D01*
X239933333Y-169285714D01*
X239895238Y-169323809D01*
X239819047Y-169361904D01*
X239742857Y-169361904D01*
X239666666Y-169323809D01*
X239628571Y-169285714D01*
X239590476Y-169209523D01*
X239552380Y-169057142D01*
X239552380Y-168866666D01*
X239590476Y-168714285D01*
X239628571Y-168638095D01*
X239666666Y-168600000D01*
X239742857Y-168561904D01*
X236861904Y-174764285D02*
X236480952Y-175030952D01*
X236861904Y-175221428D02*
X236061904Y-175221428D01*
X236061904Y-174916666D01*
X236100000Y-174840476D01*
X236138095Y-174802380D01*
X236214285Y-174764285D01*
X236328571Y-174764285D01*
X236404761Y-174802380D01*
X236442857Y-174840476D01*
X236480952Y-174916666D01*
X236480952Y-175221428D01*
X236861904Y-174002380D02*
X236861904Y-174459523D01*
X236861904Y-174230952D02*
X236061904Y-174230952D01*
X236176190Y-174307142D01*
X236252380Y-174383333D01*
X236290476Y-174459523D01*
X236861904Y-173240476D02*
X236861904Y-173697619D01*
X236861904Y-173469047D02*
X236061904Y-173469047D01*
X236176190Y-173545238D01*
X236252380Y-173621428D01*
X236290476Y-173697619D01*
X234861904Y-174764285D02*
X234480952Y-175030952D01*
X234861904Y-175221428D02*
X234061904Y-175221428D01*
X234061904Y-174916666D01*
X234100000Y-174840476D01*
X234138095Y-174802380D01*
X234214285Y-174764285D01*
X234328571Y-174764285D01*
X234404761Y-174802380D01*
X234442857Y-174840476D01*
X234480952Y-174916666D01*
X234480952Y-175221428D01*
X234861904Y-174002380D02*
X234861904Y-174459523D01*
X234861904Y-174230952D02*
X234061904Y-174230952D01*
X234176190Y-174307142D01*
X234252380Y-174383333D01*
X234290476Y-174459523D01*
X234138095Y-173697619D02*
X234100000Y-173659523D01*
X234061904Y-173583333D01*
X234061904Y-173392857D01*
X234100000Y-173316666D01*
X234138095Y-173278571D01*
X234214285Y-173240476D01*
X234290476Y-173240476D01*
X234404761Y-173278571D01*
X234861904Y-173735714D01*
X234861904Y-173240476D01*
X216485714Y-193361904D02*
X216219047Y-192980952D01*
X216028571Y-193361904D02*
X216028571Y-192561904D01*
X216333333Y-192561904D01*
X216409523Y-192600000D01*
X216447619Y-192638095D01*
X216485714Y-192714285D01*
X216485714Y-192828571D01*
X216447619Y-192904761D01*
X216409523Y-192942857D01*
X216333333Y-192980952D01*
X216028571Y-192980952D01*
X217247619Y-193361904D02*
X216790476Y-193361904D01*
X217019047Y-193361904D02*
X217019047Y-192561904D01*
X216942857Y-192676190D01*
X216866666Y-192752380D01*
X216790476Y-192790476D01*
X217514285Y-192561904D02*
X218009523Y-192561904D01*
X217742857Y-192866666D01*
X217857142Y-192866666D01*
X217933333Y-192904761D01*
X217971428Y-192942857D01*
X218009523Y-193019047D01*
X218009523Y-193209523D01*
X217971428Y-193285714D01*
X217933333Y-193323809D01*
X217857142Y-193361904D01*
X217628571Y-193361904D01*
X217552380Y-193323809D01*
X217514285Y-193285714D01*
X232861904Y-179514285D02*
X232480952Y-179780952D01*
X232861904Y-179971428D02*
X232061904Y-179971428D01*
X232061904Y-179666666D01*
X232100000Y-179590476D01*
X232138095Y-179552380D01*
X232214285Y-179514285D01*
X232328571Y-179514285D01*
X232404761Y-179552380D01*
X232442857Y-179590476D01*
X232480952Y-179666666D01*
X232480952Y-179971428D01*
X232861904Y-178752380D02*
X232861904Y-179209523D01*
X232861904Y-178980952D02*
X232061904Y-178980952D01*
X232176190Y-179057142D01*
X232252380Y-179133333D01*
X232290476Y-179209523D01*
X232328571Y-178066666D02*
X232861904Y-178066666D01*
X232023809Y-178257142D02*
X232595238Y-178447619D01*
X232595238Y-177952380D01*
X260698214Y-160861904D02*
X260431547Y-160480952D01*
X260241071Y-160861904D02*
X260241071Y-160061904D01*
X260545833Y-160061904D01*
X260622023Y-160100000D01*
X260660119Y-160138095D01*
X260698214Y-160214285D01*
X260698214Y-160328571D01*
X260660119Y-160404761D01*
X260622023Y-160442857D01*
X260545833Y-160480952D01*
X260241071Y-160480952D01*
X261460119Y-160861904D02*
X261002976Y-160861904D01*
X261231547Y-160861904D02*
X261231547Y-160061904D01*
X261155357Y-160176190D01*
X261079166Y-160252380D01*
X261002976Y-160290476D01*
X262183928Y-160061904D02*
X261802976Y-160061904D01*
X261764880Y-160442857D01*
X261802976Y-160404761D01*
X261879166Y-160366666D01*
X262069642Y-160366666D01*
X262145833Y-160404761D01*
X262183928Y-160442857D01*
X262222023Y-160519047D01*
X262222023Y-160709523D01*
X262183928Y-160785714D01*
X262145833Y-160823809D01*
X262069642Y-160861904D01*
X261879166Y-160861904D01*
X261802976Y-160823809D01*
X261764880Y-160785714D01*
X264485714Y-160861904D02*
X264219047Y-160480952D01*
X264028571Y-160861904D02*
X264028571Y-160061904D01*
X264333333Y-160061904D01*
X264409523Y-160100000D01*
X264447619Y-160138095D01*
X264485714Y-160214285D01*
X264485714Y-160328571D01*
X264447619Y-160404761D01*
X264409523Y-160442857D01*
X264333333Y-160480952D01*
X264028571Y-160480952D01*
X265247619Y-160861904D02*
X264790476Y-160861904D01*
X265019047Y-160861904D02*
X265019047Y-160061904D01*
X264942857Y-160176190D01*
X264866666Y-160252380D01*
X264790476Y-160290476D01*
X265933333Y-160061904D02*
X265780952Y-160061904D01*
X265704761Y-160100000D01*
X265666666Y-160138095D01*
X265590476Y-160252380D01*
X265552380Y-160404761D01*
X265552380Y-160709523D01*
X265590476Y-160785714D01*
X265628571Y-160823809D01*
X265704761Y-160861904D01*
X265857142Y-160861904D01*
X265933333Y-160823809D01*
X265971428Y-160785714D01*
X266009523Y-160709523D01*
X266009523Y-160519047D01*
X265971428Y-160442857D01*
X265933333Y-160404761D01*
X265857142Y-160366666D01*
X265704761Y-160366666D01*
X265628571Y-160404761D01*
X265590476Y-160442857D01*
X265552380Y-160519047D01*
X237235714Y-176861904D02*
X236969047Y-176480952D01*
X236778571Y-176861904D02*
X236778571Y-176061904D01*
X237083333Y-176061904D01*
X237159523Y-176100000D01*
X237197619Y-176138095D01*
X237235714Y-176214285D01*
X237235714Y-176328571D01*
X237197619Y-176404761D01*
X237159523Y-176442857D01*
X237083333Y-176480952D01*
X236778571Y-176480952D01*
X237997619Y-176861904D02*
X237540476Y-176861904D01*
X237769047Y-176861904D02*
X237769047Y-176061904D01*
X237692857Y-176176190D01*
X237616666Y-176252380D01*
X237540476Y-176290476D01*
X238264285Y-176061904D02*
X238797619Y-176061904D01*
X238454761Y-176861904D01*
X237235714Y-178861904D02*
X236969047Y-178480952D01*
X236778571Y-178861904D02*
X236778571Y-178061904D01*
X237083333Y-178061904D01*
X237159523Y-178100000D01*
X237197619Y-178138095D01*
X237235714Y-178214285D01*
X237235714Y-178328571D01*
X237197619Y-178404761D01*
X237159523Y-178442857D01*
X237083333Y-178480952D01*
X236778571Y-178480952D01*
X237997619Y-178861904D02*
X237540476Y-178861904D01*
X237769047Y-178861904D02*
X237769047Y-178061904D01*
X237692857Y-178176190D01*
X237616666Y-178252380D01*
X237540476Y-178290476D01*
X238454761Y-178404761D02*
X238378571Y-178366666D01*
X238340476Y-178328571D01*
X238302380Y-178252380D01*
X238302380Y-178214285D01*
X238340476Y-178138095D01*
X238378571Y-178100000D01*
X238454761Y-178061904D01*
X238607142Y-178061904D01*
X238683333Y-178100000D01*
X238721428Y-178138095D01*
X238759523Y-178214285D01*
X238759523Y-178252380D01*
X238721428Y-178328571D01*
X238683333Y-178366666D01*
X238607142Y-178404761D01*
X238454761Y-178404761D01*
X238378571Y-178442857D01*
X238340476Y-178480952D01*
X238302380Y-178557142D01*
X238302380Y-178709523D01*
X238340476Y-178785714D01*
X238378571Y-178823809D01*
X238454761Y-178861904D01*
X238607142Y-178861904D01*
X238683333Y-178823809D01*
X238721428Y-178785714D01*
X238759523Y-178709523D01*
X238759523Y-178557142D01*
X238721428Y-178480952D01*
X238683333Y-178442857D01*
X238607142Y-178404761D01*
X238485714Y-162861904D02*
X238219047Y-162480952D01*
X238028571Y-162861904D02*
X238028571Y-162061904D01*
X238333333Y-162061904D01*
X238409523Y-162100000D01*
X238447619Y-162138095D01*
X238485714Y-162214285D01*
X238485714Y-162328571D01*
X238447619Y-162404761D01*
X238409523Y-162442857D01*
X238333333Y-162480952D01*
X238028571Y-162480952D01*
X239247619Y-162861904D02*
X238790476Y-162861904D01*
X239019047Y-162861904D02*
X239019047Y-162061904D01*
X238942857Y-162176190D01*
X238866666Y-162252380D01*
X238790476Y-162290476D01*
X239628571Y-162861904D02*
X239780952Y-162861904D01*
X239857142Y-162823809D01*
X239895238Y-162785714D01*
X239971428Y-162671428D01*
X240009523Y-162519047D01*
X240009523Y-162214285D01*
X239971428Y-162138095D01*
X239933333Y-162100000D01*
X239857142Y-162061904D01*
X239704761Y-162061904D01*
X239628571Y-162100000D01*
X239590476Y-162138095D01*
X239552380Y-162214285D01*
X239552380Y-162404761D01*
X239590476Y-162480952D01*
X239628571Y-162519047D01*
X239704761Y-162557142D01*
X239857142Y-162557142D01*
X239933333Y-162519047D01*
X239971428Y-162480952D01*
X240009523Y-162404761D01*
X236111904Y-157764285D02*
X235730952Y-158030952D01*
X236111904Y-158221428D02*
X235311904Y-158221428D01*
X235311904Y-157916666D01*
X235350000Y-157840476D01*
X235388095Y-157802380D01*
X235464285Y-157764285D01*
X235578571Y-157764285D01*
X235654761Y-157802380D01*
X235692857Y-157840476D01*
X235730952Y-157916666D01*
X235730952Y-158221428D01*
X235388095Y-157459523D02*
X235350000Y-157421428D01*
X235311904Y-157345238D01*
X235311904Y-157154761D01*
X235350000Y-157078571D01*
X235388095Y-157040476D01*
X235464285Y-157002380D01*
X235540476Y-157002380D01*
X235654761Y-157040476D01*
X236111904Y-157497619D01*
X236111904Y-157002380D01*
X235311904Y-156507142D02*
X235311904Y-156430952D01*
X235350000Y-156354761D01*
X235388095Y-156316666D01*
X235464285Y-156278571D01*
X235616666Y-156240476D01*
X235807142Y-156240476D01*
X235959523Y-156278571D01*
X236035714Y-156316666D01*
X236073809Y-156354761D01*
X236111904Y-156430952D01*
X236111904Y-156507142D01*
X236073809Y-156583333D01*
X236035714Y-156621428D01*
X235959523Y-156659523D01*
X235807142Y-156697619D01*
X235616666Y-156697619D01*
X235464285Y-156659523D01*
X235388095Y-156621428D01*
X235350000Y-156583333D01*
X235311904Y-156507142D01*
X234111904Y-157764285D02*
X233730952Y-158030952D01*
X234111904Y-158221428D02*
X233311904Y-158221428D01*
X233311904Y-157916666D01*
X233350000Y-157840476D01*
X233388095Y-157802380D01*
X233464285Y-157764285D01*
X233578571Y-157764285D01*
X233654761Y-157802380D01*
X233692857Y-157840476D01*
X233730952Y-157916666D01*
X233730952Y-158221428D01*
X233388095Y-157459523D02*
X233350000Y-157421428D01*
X233311904Y-157345238D01*
X233311904Y-157154761D01*
X233350000Y-157078571D01*
X233388095Y-157040476D01*
X233464285Y-157002380D01*
X233540476Y-157002380D01*
X233654761Y-157040476D01*
X234111904Y-157497619D01*
X234111904Y-157002380D01*
X234111904Y-156240476D02*
X234111904Y-156697619D01*
X234111904Y-156469047D02*
X233311904Y-156469047D01*
X233426190Y-156545238D01*
X233502380Y-156621428D01*
X233540476Y-156697619D01*
X234111904Y-152264285D02*
X233730952Y-152530952D01*
X234111904Y-152721428D02*
X233311904Y-152721428D01*
X233311904Y-152416666D01*
X233350000Y-152340476D01*
X233388095Y-152302380D01*
X233464285Y-152264285D01*
X233578571Y-152264285D01*
X233654761Y-152302380D01*
X233692857Y-152340476D01*
X233730952Y-152416666D01*
X233730952Y-152721428D01*
X233388095Y-151959523D02*
X233350000Y-151921428D01*
X233311904Y-151845238D01*
X233311904Y-151654761D01*
X233350000Y-151578571D01*
X233388095Y-151540476D01*
X233464285Y-151502380D01*
X233540476Y-151502380D01*
X233654761Y-151540476D01*
X234111904Y-151997619D01*
X234111904Y-151502380D01*
X233388095Y-151197619D02*
X233350000Y-151159523D01*
X233311904Y-151083333D01*
X233311904Y-150892857D01*
X233350000Y-150816666D01*
X233388095Y-150778571D01*
X233464285Y-150740476D01*
X233540476Y-150740476D01*
X233654761Y-150778571D01*
X234111904Y-151235714D01*
X234111904Y-150740476D01*
X238735714Y-155361904D02*
X238469047Y-154980952D01*
X238278571Y-155361904D02*
X238278571Y-154561904D01*
X238583333Y-154561904D01*
X238659523Y-154600000D01*
X238697619Y-154638095D01*
X238735714Y-154714285D01*
X238735714Y-154828571D01*
X238697619Y-154904761D01*
X238659523Y-154942857D01*
X238583333Y-154980952D01*
X238278571Y-154980952D01*
X239040476Y-154638095D02*
X239078571Y-154600000D01*
X239154761Y-154561904D01*
X239345238Y-154561904D01*
X239421428Y-154600000D01*
X239459523Y-154638095D01*
X239497619Y-154714285D01*
X239497619Y-154790476D01*
X239459523Y-154904761D01*
X239002380Y-155361904D01*
X239497619Y-155361904D01*
X239764285Y-154561904D02*
X240259523Y-154561904D01*
X239992857Y-154866666D01*
X240107142Y-154866666D01*
X240183333Y-154904761D01*
X240221428Y-154942857D01*
X240259523Y-155019047D01*
X240259523Y-155209523D01*
X240221428Y-155285714D01*
X240183333Y-155323809D01*
X240107142Y-155361904D01*
X239878571Y-155361904D01*
X239802380Y-155323809D01*
X239764285Y-155285714D01*
X235985714Y-152111904D02*
X235719047Y-151730952D01*
X235528571Y-152111904D02*
X235528571Y-151311904D01*
X235833333Y-151311904D01*
X235909523Y-151350000D01*
X235947619Y-151388095D01*
X235985714Y-151464285D01*
X235985714Y-151578571D01*
X235947619Y-151654761D01*
X235909523Y-151692857D01*
X235833333Y-151730952D01*
X235528571Y-151730952D01*
X236290476Y-151388095D02*
X236328571Y-151350000D01*
X236404761Y-151311904D01*
X236595238Y-151311904D01*
X236671428Y-151350000D01*
X236709523Y-151388095D01*
X236747619Y-151464285D01*
X236747619Y-151540476D01*
X236709523Y-151654761D01*
X236252380Y-152111904D01*
X236747619Y-152111904D01*
X237433333Y-151578571D02*
X237433333Y-152111904D01*
X237242857Y-151273809D02*
X237052380Y-151845238D01*
X237547619Y-151845238D01*
X223985714Y-162861904D02*
X223719047Y-162480952D01*
X223528571Y-162861904D02*
X223528571Y-162061904D01*
X223833333Y-162061904D01*
X223909523Y-162100000D01*
X223947619Y-162138095D01*
X223985714Y-162214285D01*
X223985714Y-162328571D01*
X223947619Y-162404761D01*
X223909523Y-162442857D01*
X223833333Y-162480952D01*
X223528571Y-162480952D01*
X224290476Y-162138095D02*
X224328571Y-162100000D01*
X224404761Y-162061904D01*
X224595238Y-162061904D01*
X224671428Y-162100000D01*
X224709523Y-162138095D01*
X224747619Y-162214285D01*
X224747619Y-162290476D01*
X224709523Y-162404761D01*
X224252380Y-162861904D01*
X224747619Y-162861904D01*
X225471428Y-162061904D02*
X225090476Y-162061904D01*
X225052380Y-162442857D01*
X225090476Y-162404761D01*
X225166666Y-162366666D01*
X225357142Y-162366666D01*
X225433333Y-162404761D01*
X225471428Y-162442857D01*
X225509523Y-162519047D01*
X225509523Y-162709523D01*
X225471428Y-162785714D01*
X225433333Y-162823809D01*
X225357142Y-162861904D01*
X225166666Y-162861904D01*
X225090476Y-162823809D01*
X225052380Y-162785714D01*
X226681904Y-160264285D02*
X226300952Y-160530952D01*
X226681904Y-160721428D02*
X225881904Y-160721428D01*
X225881904Y-160416666D01*
X225920000Y-160340476D01*
X225958095Y-160302380D01*
X226034285Y-160264285D01*
X226148571Y-160264285D01*
X226224761Y-160302380D01*
X226262857Y-160340476D01*
X226300952Y-160416666D01*
X226300952Y-160721428D01*
X225958095Y-159959523D02*
X225920000Y-159921428D01*
X225881904Y-159845238D01*
X225881904Y-159654761D01*
X225920000Y-159578571D01*
X225958095Y-159540476D01*
X226034285Y-159502380D01*
X226110476Y-159502380D01*
X226224761Y-159540476D01*
X226681904Y-159997619D01*
X226681904Y-159502380D01*
X225881904Y-158816666D02*
X225881904Y-158969047D01*
X225920000Y-159045238D01*
X225958095Y-159083333D01*
X226072380Y-159159523D01*
X226224761Y-159197619D01*
X226529523Y-159197619D01*
X226605714Y-159159523D01*
X226643809Y-159121428D01*
X226681904Y-159045238D01*
X226681904Y-158892857D01*
X226643809Y-158816666D01*
X226605714Y-158778571D01*
X226529523Y-158740476D01*
X226339047Y-158740476D01*
X226262857Y-158778571D01*
X226224761Y-158816666D01*
X226186666Y-158892857D01*
X226186666Y-159045238D01*
X226224761Y-159121428D01*
X226262857Y-159159523D01*
X226339047Y-159197619D01*
X230111904Y-157764285D02*
X229730952Y-158030952D01*
X230111904Y-158221428D02*
X229311904Y-158221428D01*
X229311904Y-157916666D01*
X229350000Y-157840476D01*
X229388095Y-157802380D01*
X229464285Y-157764285D01*
X229578571Y-157764285D01*
X229654761Y-157802380D01*
X229692857Y-157840476D01*
X229730952Y-157916666D01*
X229730952Y-158221428D01*
X229388095Y-157459523D02*
X229350000Y-157421428D01*
X229311904Y-157345238D01*
X229311904Y-157154761D01*
X229350000Y-157078571D01*
X229388095Y-157040476D01*
X229464285Y-157002380D01*
X229540476Y-157002380D01*
X229654761Y-157040476D01*
X230111904Y-157497619D01*
X230111904Y-157002380D01*
X229311904Y-156735714D02*
X229311904Y-156202380D01*
X230111904Y-156545238D01*
X232111904Y-152301785D02*
X231730952Y-152568452D01*
X232111904Y-152758928D02*
X231311904Y-152758928D01*
X231311904Y-152454166D01*
X231350000Y-152377976D01*
X231388095Y-152339880D01*
X231464285Y-152301785D01*
X231578571Y-152301785D01*
X231654761Y-152339880D01*
X231692857Y-152377976D01*
X231730952Y-152454166D01*
X231730952Y-152758928D01*
X231388095Y-151997023D02*
X231350000Y-151958928D01*
X231311904Y-151882738D01*
X231311904Y-151692261D01*
X231350000Y-151616071D01*
X231388095Y-151577976D01*
X231464285Y-151539880D01*
X231540476Y-151539880D01*
X231654761Y-151577976D01*
X232111904Y-152035119D01*
X232111904Y-151539880D01*
X231654761Y-151082738D02*
X231616666Y-151158928D01*
X231578571Y-151197023D01*
X231502380Y-151235119D01*
X231464285Y-151235119D01*
X231388095Y-151197023D01*
X231350000Y-151158928D01*
X231311904Y-151082738D01*
X231311904Y-150930357D01*
X231350000Y-150854166D01*
X231388095Y-150816071D01*
X231464285Y-150777976D01*
X231502380Y-150777976D01*
X231578571Y-150816071D01*
X231616666Y-150854166D01*
X231654761Y-150930357D01*
X231654761Y-151082738D01*
X231692857Y-151158928D01*
X231730952Y-151197023D01*
X231807142Y-151235119D01*
X231959523Y-151235119D01*
X232035714Y-151197023D01*
X232073809Y-151158928D01*
X232111904Y-151082738D01*
X232111904Y-150930357D01*
X232073809Y-150854166D01*
X232035714Y-150816071D01*
X231959523Y-150777976D01*
X231807142Y-150777976D01*
X231730952Y-150816071D01*
X231692857Y-150854166D01*
X231654761Y-150930357D01*
X225948214Y-155361904D02*
X225681547Y-154980952D01*
X225491071Y-155361904D02*
X225491071Y-154561904D01*
X225795833Y-154561904D01*
X225872023Y-154600000D01*
X225910119Y-154638095D01*
X225948214Y-154714285D01*
X225948214Y-154828571D01*
X225910119Y-154904761D01*
X225872023Y-154942857D01*
X225795833Y-154980952D01*
X225491071Y-154980952D01*
X226252976Y-154638095D02*
X226291071Y-154600000D01*
X226367261Y-154561904D01*
X226557738Y-154561904D01*
X226633928Y-154600000D01*
X226672023Y-154638095D01*
X226710119Y-154714285D01*
X226710119Y-154790476D01*
X226672023Y-154904761D01*
X226214880Y-155361904D01*
X226710119Y-155361904D01*
X227091071Y-155361904D02*
X227243452Y-155361904D01*
X227319642Y-155323809D01*
X227357738Y-155285714D01*
X227433928Y-155171428D01*
X227472023Y-155019047D01*
X227472023Y-154714285D01*
X227433928Y-154638095D01*
X227395833Y-154600000D01*
X227319642Y-154561904D01*
X227167261Y-154561904D01*
X227091071Y-154600000D01*
X227052976Y-154638095D01*
X227014880Y-154714285D01*
X227014880Y-154904761D01*
X227052976Y-154980952D01*
X227091071Y-155019047D01*
X227167261Y-155057142D01*
X227319642Y-155057142D01*
X227395833Y-155019047D01*
X227433928Y-154980952D01*
X227472023Y-154904761D01*
X225985714Y-153361904D02*
X225719047Y-152980952D01*
X225528571Y-153361904D02*
X225528571Y-152561904D01*
X225833333Y-152561904D01*
X225909523Y-152600000D01*
X225947619Y-152638095D01*
X225985714Y-152714285D01*
X225985714Y-152828571D01*
X225947619Y-152904761D01*
X225909523Y-152942857D01*
X225833333Y-152980952D01*
X225528571Y-152980952D01*
X226252380Y-152561904D02*
X226747619Y-152561904D01*
X226480952Y-152866666D01*
X226595238Y-152866666D01*
X226671428Y-152904761D01*
X226709523Y-152942857D01*
X226747619Y-153019047D01*
X226747619Y-153209523D01*
X226709523Y-153285714D01*
X226671428Y-153323809D01*
X226595238Y-153361904D01*
X226366666Y-153361904D01*
X226290476Y-153323809D01*
X226252380Y-153285714D01*
X227242857Y-152561904D02*
X227319047Y-152561904D01*
X227395238Y-152600000D01*
X227433333Y-152638095D01*
X227471428Y-152714285D01*
X227509523Y-152866666D01*
X227509523Y-153057142D01*
X227471428Y-153209523D01*
X227433333Y-153285714D01*
X227395238Y-153323809D01*
X227319047Y-153361904D01*
X227242857Y-153361904D01*
X227166666Y-153323809D01*
X227128571Y-153285714D01*
X227090476Y-153209523D01*
X227052380Y-153057142D01*
X227052380Y-152866666D01*
X227090476Y-152714285D01*
X227128571Y-152638095D01*
X227166666Y-152600000D01*
X227242857Y-152561904D01*
X247111904Y-197514285D02*
X246730952Y-197780952D01*
X247111904Y-197971428D02*
X246311904Y-197971428D01*
X246311904Y-197666666D01*
X246350000Y-197590476D01*
X246388095Y-197552380D01*
X246464285Y-197514285D01*
X246578571Y-197514285D01*
X246654761Y-197552380D01*
X246692857Y-197590476D01*
X246730952Y-197666666D01*
X246730952Y-197971428D01*
X246311904Y-197247619D02*
X246311904Y-196752380D01*
X246616666Y-197019047D01*
X246616666Y-196904761D01*
X246654761Y-196828571D01*
X246692857Y-196790476D01*
X246769047Y-196752380D01*
X246959523Y-196752380D01*
X247035714Y-196790476D01*
X247073809Y-196828571D01*
X247111904Y-196904761D01*
X247111904Y-197133333D01*
X247073809Y-197209523D01*
X247035714Y-197247619D01*
X247111904Y-195990476D02*
X247111904Y-196447619D01*
X247111904Y-196219047D02*
X246311904Y-196219047D01*
X246426190Y-196295238D01*
X246502380Y-196371428D01*
X246540476Y-196447619D01*
X248361904Y-211264285D02*
X247980952Y-211530952D01*
X248361904Y-211721428D02*
X247561904Y-211721428D01*
X247561904Y-211416666D01*
X247600000Y-211340476D01*
X247638095Y-211302380D01*
X247714285Y-211264285D01*
X247828571Y-211264285D01*
X247904761Y-211302380D01*
X247942857Y-211340476D01*
X247980952Y-211416666D01*
X247980952Y-211721428D01*
X247561904Y-210997619D02*
X247561904Y-210502380D01*
X247866666Y-210769047D01*
X247866666Y-210654761D01*
X247904761Y-210578571D01*
X247942857Y-210540476D01*
X248019047Y-210502380D01*
X248209523Y-210502380D01*
X248285714Y-210540476D01*
X248323809Y-210578571D01*
X248361904Y-210654761D01*
X248361904Y-210883333D01*
X248323809Y-210959523D01*
X248285714Y-210997619D01*
X247638095Y-210197619D02*
X247600000Y-210159523D01*
X247561904Y-210083333D01*
X247561904Y-209892857D01*
X247600000Y-209816666D01*
X247638095Y-209778571D01*
X247714285Y-209740476D01*
X247790476Y-209740476D01*
X247904761Y-209778571D01*
X248361904Y-210235714D01*
X248361904Y-209740476D01*
X263361904Y-209264285D02*
X262980952Y-209530952D01*
X263361904Y-209721428D02*
X262561904Y-209721428D01*
X262561904Y-209416666D01*
X262600000Y-209340476D01*
X262638095Y-209302380D01*
X262714285Y-209264285D01*
X262828571Y-209264285D01*
X262904761Y-209302380D01*
X262942857Y-209340476D01*
X262980952Y-209416666D01*
X262980952Y-209721428D01*
X262561904Y-208997619D02*
X262561904Y-208502380D01*
X262866666Y-208769047D01*
X262866666Y-208654761D01*
X262904761Y-208578571D01*
X262942857Y-208540476D01*
X263019047Y-208502380D01*
X263209523Y-208502380D01*
X263285714Y-208540476D01*
X263323809Y-208578571D01*
X263361904Y-208654761D01*
X263361904Y-208883333D01*
X263323809Y-208959523D01*
X263285714Y-208997619D01*
X262561904Y-208235714D02*
X262561904Y-207740476D01*
X262866666Y-208007142D01*
X262866666Y-207892857D01*
X262904761Y-207816666D01*
X262942857Y-207778571D01*
X263019047Y-207740476D01*
X263209523Y-207740476D01*
X263285714Y-207778571D01*
X263323809Y-207816666D01*
X263361904Y-207892857D01*
X263361904Y-208121428D01*
X263323809Y-208197619D01*
X263285714Y-208235714D01*
X274361904Y-209264285D02*
X273980952Y-209530952D01*
X274361904Y-209721428D02*
X273561904Y-209721428D01*
X273561904Y-209416666D01*
X273600000Y-209340476D01*
X273638095Y-209302380D01*
X273714285Y-209264285D01*
X273828571Y-209264285D01*
X273904761Y-209302380D01*
X273942857Y-209340476D01*
X273980952Y-209416666D01*
X273980952Y-209721428D01*
X273561904Y-208997619D02*
X273561904Y-208502380D01*
X273866666Y-208769047D01*
X273866666Y-208654761D01*
X273904761Y-208578571D01*
X273942857Y-208540476D01*
X274019047Y-208502380D01*
X274209523Y-208502380D01*
X274285714Y-208540476D01*
X274323809Y-208578571D01*
X274361904Y-208654761D01*
X274361904Y-208883333D01*
X274323809Y-208959523D01*
X274285714Y-208997619D01*
X273828571Y-207816666D02*
X274361904Y-207816666D01*
X273523809Y-208007142D02*
X274095238Y-208197619D01*
X274095238Y-207702380D01*
X287361904Y-209264285D02*
X286980952Y-209530952D01*
X287361904Y-209721428D02*
X286561904Y-209721428D01*
X286561904Y-209416666D01*
X286600000Y-209340476D01*
X286638095Y-209302380D01*
X286714285Y-209264285D01*
X286828571Y-209264285D01*
X286904761Y-209302380D01*
X286942857Y-209340476D01*
X286980952Y-209416666D01*
X286980952Y-209721428D01*
X286561904Y-208997619D02*
X286561904Y-208502380D01*
X286866666Y-208769047D01*
X286866666Y-208654761D01*
X286904761Y-208578571D01*
X286942857Y-208540476D01*
X287019047Y-208502380D01*
X287209523Y-208502380D01*
X287285714Y-208540476D01*
X287323809Y-208578571D01*
X287361904Y-208654761D01*
X287361904Y-208883333D01*
X287323809Y-208959523D01*
X287285714Y-208997619D01*
X286561904Y-207778571D02*
X286561904Y-208159523D01*
X286942857Y-208197619D01*
X286904761Y-208159523D01*
X286866666Y-208083333D01*
X286866666Y-207892857D01*
X286904761Y-207816666D01*
X286942857Y-207778571D01*
X287019047Y-207740476D01*
X287209523Y-207740476D01*
X287285714Y-207778571D01*
X287323809Y-207816666D01*
X287361904Y-207892857D01*
X287361904Y-208083333D01*
X287323809Y-208159523D01*
X287285714Y-208197619D01*
X214890476Y-178850000D02*
X214814285Y-178811904D01*
X214700000Y-178811904D01*
X214585714Y-178850000D01*
X214509523Y-178926190D01*
X214471428Y-179002380D01*
X214433333Y-179154761D01*
X214433333Y-179269047D01*
X214471428Y-179421428D01*
X214509523Y-179497619D01*
X214585714Y-179573809D01*
X214700000Y-179611904D01*
X214776190Y-179611904D01*
X214890476Y-179573809D01*
X214928571Y-179535714D01*
X214928571Y-179269047D01*
X214776190Y-179269047D01*
X215271428Y-179611904D02*
X215271428Y-178811904D01*
X215728571Y-179611904D01*
X215728571Y-178811904D01*
X216109523Y-179611904D02*
X216109523Y-178811904D01*
X216300000Y-178811904D01*
X216414285Y-178850000D01*
X216490476Y-178926190D01*
X216528571Y-179002380D01*
X216566666Y-179154761D01*
X216566666Y-179269047D01*
X216528571Y-179421428D01*
X216490476Y-179497619D01*
X216414285Y-179573809D01*
X216300000Y-179611904D01*
X216109523Y-179611904D01*
X245400000Y-171111904D02*
X245400000Y-170311904D01*
X245590476Y-170311904D01*
X245704761Y-170350000D01*
X245780952Y-170426190D01*
X245819047Y-170502380D01*
X245857142Y-170654761D01*
X245857142Y-170769047D01*
X245819047Y-170921428D01*
X245780952Y-170997619D01*
X245704761Y-171073809D01*
X245590476Y-171111904D01*
X245400000Y-171111904D01*
X246161904Y-170883333D02*
X246542857Y-170883333D01*
X246085714Y-171111904D02*
X246352380Y-170311904D01*
X246619047Y-171111904D01*
X247342857Y-171035714D02*
X247304761Y-171073809D01*
X247190476Y-171111904D01*
X247114285Y-171111904D01*
X247000000Y-171073809D01*
X246923809Y-170997619D01*
X246885714Y-170921428D01*
X246847619Y-170769047D01*
X246847619Y-170654761D01*
X246885714Y-170502380D01*
X246923809Y-170426190D01*
X247000000Y-170350000D01*
X247114285Y-170311904D01*
X247190476Y-170311904D01*
X247304761Y-170350000D01*
X247342857Y-170388095D01*
X247495238Y-171188095D02*
X248104761Y-171188095D01*
X248257142Y-170883333D02*
X248638095Y-170883333D01*
X248180952Y-171111904D02*
X248447619Y-170311904D01*
X248714285Y-171111904D01*
X215433333Y-167561904D02*
X215700000Y-168361904D01*
X215966666Y-167561904D01*
X216233333Y-168361904D02*
X216233333Y-167561904D01*
X216233333Y-167942857D02*
X216690476Y-167942857D01*
X216690476Y-168361904D02*
X216690476Y-167561904D01*
X217490476Y-168361904D02*
X217033333Y-168361904D01*
X217261904Y-168361904D02*
X217261904Y-167561904D01*
X217185714Y-167676190D01*
X217109523Y-167752380D01*
X217033333Y-167790476D01*
X245342857Y-167361904D02*
X245342857Y-166561904D01*
X245533333Y-166561904D01*
X245647619Y-166600000D01*
X245723809Y-166676190D01*
X245761904Y-166752380D01*
X245800000Y-166904761D01*
X245800000Y-167019047D01*
X245761904Y-167171428D01*
X245723809Y-167247619D01*
X245647619Y-167323809D01*
X245533333Y-167361904D01*
X245342857Y-167361904D01*
X246104761Y-167133333D02*
X246485714Y-167133333D01*
X246028571Y-167361904D02*
X246295238Y-166561904D01*
X246561904Y-167361904D01*
X247285714Y-167285714D02*
X247247619Y-167323809D01*
X247133333Y-167361904D01*
X247057142Y-167361904D01*
X246942857Y-167323809D01*
X246866666Y-167247619D01*
X246828571Y-167171428D01*
X246790476Y-167019047D01*
X246790476Y-166904761D01*
X246828571Y-166752380D01*
X246866666Y-166676190D01*
X246942857Y-166600000D01*
X247057142Y-166561904D01*
X247133333Y-166561904D01*
X247247619Y-166600000D01*
X247285714Y-166638095D01*
X247438095Y-167438095D02*
X248047619Y-167438095D01*
X248504761Y-166942857D02*
X248619047Y-166980952D01*
X248657142Y-167019047D01*
X248695238Y-167095238D01*
X248695238Y-167209523D01*
X248657142Y-167285714D01*
X248619047Y-167323809D01*
X248542857Y-167361904D01*
X248238095Y-167361904D01*
X248238095Y-166561904D01*
X248504761Y-166561904D01*
X248580952Y-166600000D01*
X248619047Y-166638095D01*
X248657142Y-166714285D01*
X248657142Y-166790476D01*
X248619047Y-166866666D01*
X248580952Y-166904761D01*
X248504761Y-166942857D01*
X248238095Y-166942857D01*
X215778571Y-165061904D02*
X216045238Y-165861904D01*
X216311904Y-165061904D01*
X216959523Y-165861904D02*
X216578571Y-165861904D01*
X216578571Y-165061904D01*
X217645238Y-165861904D02*
X217188095Y-165861904D01*
X217416666Y-165861904D02*
X217416666Y-165061904D01*
X217340476Y-165176190D01*
X217264285Y-165252380D01*
X217188095Y-165290476D01*
X211061904Y-204533333D02*
X211861904Y-204266666D01*
X211061904Y-204000000D01*
X211785714Y-203276190D02*
X211823809Y-203314285D01*
X211861904Y-203428571D01*
X211861904Y-203504761D01*
X211823809Y-203619047D01*
X211747619Y-203695238D01*
X211671428Y-203733333D01*
X211519047Y-203771428D01*
X211404761Y-203771428D01*
X211252380Y-203733333D01*
X211176190Y-203695238D01*
X211100000Y-203619047D01*
X211061904Y-203504761D01*
X211061904Y-203428571D01*
X211100000Y-203314285D01*
X211138095Y-203276190D01*
X211061904Y-202780952D02*
X211061904Y-202628571D01*
X211100000Y-202552380D01*
X211176190Y-202476190D01*
X211328571Y-202438095D01*
X211595238Y-202438095D01*
X211747619Y-202476190D01*
X211823809Y-202552380D01*
X211861904Y-202628571D01*
X211861904Y-202780952D01*
X211823809Y-202857142D01*
X211747619Y-202933333D01*
X211595238Y-202971428D01*
X211328571Y-202971428D01*
X211176190Y-202933333D01*
X211100000Y-202857142D01*
X211061904Y-202780952D01*
X211938095Y-202285714D02*
X211938095Y-201676190D01*
X211061904Y-201333333D02*
X211061904Y-201180952D01*
X211100000Y-201104761D01*
X211176190Y-201028571D01*
X211328571Y-200990476D01*
X211595238Y-200990476D01*
X211747619Y-201028571D01*
X211823809Y-201104761D01*
X211861904Y-201180952D01*
X211861904Y-201333333D01*
X211823809Y-201409523D01*
X211747619Y-201485714D01*
X211595238Y-201523809D01*
X211328571Y-201523809D01*
X211176190Y-201485714D01*
X211100000Y-201409523D01*
X211061904Y-201333333D01*
X211061904Y-200647619D02*
X211709523Y-200647619D01*
X211785714Y-200609523D01*
X211823809Y-200571428D01*
X211861904Y-200495238D01*
X211861904Y-200342857D01*
X211823809Y-200266666D01*
X211785714Y-200228571D01*
X211709523Y-200190476D01*
X211061904Y-200190476D01*
X211061904Y-199923809D02*
X211061904Y-199466666D01*
X211861904Y-199695238D02*
X211061904Y-199695238D01*
X227085714Y-188111904D02*
X227085714Y-187311904D01*
X227352380Y-187883333D01*
X227619047Y-187311904D01*
X227619047Y-188111904D01*
X228457142Y-188035714D02*
X228419047Y-188073809D01*
X228304761Y-188111904D01*
X228228571Y-188111904D01*
X228114285Y-188073809D01*
X228038095Y-187997619D01*
X228000000Y-187921428D01*
X227961904Y-187769047D01*
X227961904Y-187654761D01*
X228000000Y-187502380D01*
X228038095Y-187426190D01*
X228114285Y-187350000D01*
X228228571Y-187311904D01*
X228304761Y-187311904D01*
X228419047Y-187350000D01*
X228457142Y-187388095D01*
X228800000Y-187311904D02*
X228800000Y-187959523D01*
X228838095Y-188035714D01*
X228876190Y-188073809D01*
X228952380Y-188111904D01*
X229104761Y-188111904D01*
X229180952Y-188073809D01*
X229219047Y-188035714D01*
X229257142Y-187959523D01*
X229257142Y-187311904D01*
X229447619Y-188188095D02*
X230057142Y-188188095D01*
X230247619Y-188111904D02*
X230247619Y-187311904D01*
X230438095Y-187311904D01*
X230552380Y-187350000D01*
X230628571Y-187426190D01*
X230666666Y-187502380D01*
X230704761Y-187654761D01*
X230704761Y-187769047D01*
X230666666Y-187921428D01*
X230628571Y-187997619D01*
X230552380Y-188073809D01*
X230438095Y-188111904D01*
X230247619Y-188111904D01*
X231009523Y-187883333D02*
X231390476Y-187883333D01*
X230933333Y-188111904D02*
X231200000Y-187311904D01*
X231466666Y-188111904D01*
X232190476Y-188035714D02*
X232152380Y-188073809D01*
X232038095Y-188111904D01*
X231961904Y-188111904D01*
X231847619Y-188073809D01*
X231771428Y-187997619D01*
X231733333Y-187921428D01*
X231695238Y-187769047D01*
X231695238Y-187654761D01*
X231733333Y-187502380D01*
X231771428Y-187426190D01*
X231847619Y-187350000D01*
X231961904Y-187311904D01*
X232038095Y-187311904D01*
X232152380Y-187350000D01*
X232190476Y-187388095D01*
X232952380Y-188111904D02*
X232495238Y-188111904D01*
X232723809Y-188111904D02*
X232723809Y-187311904D01*
X232647619Y-187426190D01*
X232571428Y-187502380D01*
X232495238Y-187540476D01*
X211811904Y-190561904D02*
X212078571Y-191361904D01*
X212345238Y-190561904D01*
X213069047Y-191285714D02*
X213030952Y-191323809D01*
X212916666Y-191361904D01*
X212840476Y-191361904D01*
X212726190Y-191323809D01*
X212650000Y-191247619D01*
X212611904Y-191171428D01*
X212573809Y-191019047D01*
X212573809Y-190904761D01*
X212611904Y-190752380D01*
X212650000Y-190676190D01*
X212726190Y-190600000D01*
X212840476Y-190561904D01*
X212916666Y-190561904D01*
X213030952Y-190600000D01*
X213069047Y-190638095D01*
X213564285Y-190561904D02*
X213716666Y-190561904D01*
X213792857Y-190600000D01*
X213869047Y-190676190D01*
X213907142Y-190828571D01*
X213907142Y-191095238D01*
X213869047Y-191247619D01*
X213792857Y-191323809D01*
X213716666Y-191361904D01*
X213564285Y-191361904D01*
X213488095Y-191323809D01*
X213411904Y-191247619D01*
X213373809Y-191095238D01*
X213373809Y-190828571D01*
X213411904Y-190676190D01*
X213488095Y-190600000D01*
X213564285Y-190561904D01*
X214059523Y-191438095D02*
X214669047Y-191438095D01*
X214821428Y-191323809D02*
X214935714Y-191361904D01*
X215126190Y-191361904D01*
X215202380Y-191323809D01*
X215240476Y-191285714D01*
X215278571Y-191209523D01*
X215278571Y-191133333D01*
X215240476Y-191057142D01*
X215202380Y-191019047D01*
X215126190Y-190980952D01*
X214973809Y-190942857D01*
X214897619Y-190904761D01*
X214859523Y-190866666D01*
X214821428Y-190790476D01*
X214821428Y-190714285D01*
X214859523Y-190638095D01*
X214897619Y-190600000D01*
X214973809Y-190561904D01*
X215164285Y-190561904D01*
X215278571Y-190600000D01*
X215621428Y-190942857D02*
X215888095Y-190942857D01*
X216002380Y-191361904D02*
X215621428Y-191361904D01*
X215621428Y-190561904D01*
X216002380Y-190561904D01*
X216230952Y-190561904D02*
X216688095Y-190561904D01*
X216459523Y-191361904D02*
X216459523Y-190561904D01*
X270559523Y-168861904D02*
X270559523Y-168061904D01*
X270902380Y-168138095D02*
X270940476Y-168100000D01*
X271016666Y-168061904D01*
X271207142Y-168061904D01*
X271283333Y-168100000D01*
X271321428Y-168138095D01*
X271359523Y-168214285D01*
X271359523Y-168290476D01*
X271321428Y-168404761D01*
X270864285Y-168861904D01*
X271359523Y-168861904D01*
X272159523Y-168785714D02*
X272121428Y-168823809D01*
X272007142Y-168861904D01*
X271930952Y-168861904D01*
X271816666Y-168823809D01*
X271740476Y-168747619D01*
X271702380Y-168671428D01*
X271664285Y-168519047D01*
X271664285Y-168404761D01*
X271702380Y-168252380D01*
X271740476Y-168176190D01*
X271816666Y-168100000D01*
X271930952Y-168061904D01*
X272007142Y-168061904D01*
X272121428Y-168100000D01*
X272159523Y-168138095D01*
X272311904Y-168938095D02*
X272921428Y-168938095D01*
X273073809Y-168823809D02*
X273188095Y-168861904D01*
X273378571Y-168861904D01*
X273454761Y-168823809D01*
X273492857Y-168785714D01*
X273530952Y-168709523D01*
X273530952Y-168633333D01*
X273492857Y-168557142D01*
X273454761Y-168519047D01*
X273378571Y-168480952D01*
X273226190Y-168442857D01*
X273150000Y-168404761D01*
X273111904Y-168366666D01*
X273073809Y-168290476D01*
X273073809Y-168214285D01*
X273111904Y-168138095D01*
X273150000Y-168100000D01*
X273226190Y-168061904D01*
X273416666Y-168061904D01*
X273530952Y-168100000D01*
X274330952Y-168785714D02*
X274292857Y-168823809D01*
X274178571Y-168861904D01*
X274102380Y-168861904D01*
X273988095Y-168823809D01*
X273911904Y-168747619D01*
X273873809Y-168671428D01*
X273835714Y-168519047D01*
X273835714Y-168404761D01*
X273873809Y-168252380D01*
X273911904Y-168176190D01*
X273988095Y-168100000D01*
X274102380Y-168061904D01*
X274178571Y-168061904D01*
X274292857Y-168100000D01*
X274330952Y-168138095D01*
X275054761Y-168861904D02*
X274673809Y-168861904D01*
X274673809Y-168061904D01*
X270540476Y-166361904D02*
X270540476Y-165561904D01*
X270883333Y-165638095D02*
X270921428Y-165600000D01*
X270997619Y-165561904D01*
X271188095Y-165561904D01*
X271264285Y-165600000D01*
X271302380Y-165638095D01*
X271340476Y-165714285D01*
X271340476Y-165790476D01*
X271302380Y-165904761D01*
X270845238Y-166361904D01*
X271340476Y-166361904D01*
X272140476Y-166285714D02*
X272102380Y-166323809D01*
X271988095Y-166361904D01*
X271911904Y-166361904D01*
X271797619Y-166323809D01*
X271721428Y-166247619D01*
X271683333Y-166171428D01*
X271645238Y-166019047D01*
X271645238Y-165904761D01*
X271683333Y-165752380D01*
X271721428Y-165676190D01*
X271797619Y-165600000D01*
X271911904Y-165561904D01*
X271988095Y-165561904D01*
X272102380Y-165600000D01*
X272140476Y-165638095D01*
X272292857Y-166438095D02*
X272902380Y-166438095D01*
X273054761Y-166323809D02*
X273169047Y-166361904D01*
X273359523Y-166361904D01*
X273435714Y-166323809D01*
X273473809Y-166285714D01*
X273511904Y-166209523D01*
X273511904Y-166133333D01*
X273473809Y-166057142D01*
X273435714Y-166019047D01*
X273359523Y-165980952D01*
X273207142Y-165942857D01*
X273130952Y-165904761D01*
X273092857Y-165866666D01*
X273054761Y-165790476D01*
X273054761Y-165714285D01*
X273092857Y-165638095D01*
X273130952Y-165600000D01*
X273207142Y-165561904D01*
X273397619Y-165561904D01*
X273511904Y-165600000D01*
X273854761Y-166361904D02*
X273854761Y-165561904D01*
X274045238Y-165561904D01*
X274159523Y-165600000D01*
X274235714Y-165676190D01*
X274273809Y-165752380D01*
X274311904Y-165904761D01*
X274311904Y-166019047D01*
X274273809Y-166171428D01*
X274235714Y-166247619D01*
X274159523Y-166323809D01*
X274045238Y-166361904D01*
X273854761Y-166361904D01*
X274616666Y-166133333D02*
X274997619Y-166133333D01*
X274540476Y-166361904D02*
X274807142Y-165561904D01*
X275073809Y-166361904D01*
X253611904Y-156473809D02*
X252811904Y-156473809D01*
X252811904Y-156283333D01*
X252850000Y-156169047D01*
X252926190Y-156092857D01*
X253002380Y-156054761D01*
X253154761Y-156016666D01*
X253269047Y-156016666D01*
X253421428Y-156054761D01*
X253497619Y-156092857D01*
X253573809Y-156169047D01*
X253611904Y-156283333D01*
X253611904Y-156473809D01*
X253383333Y-155711904D02*
X253383333Y-155330952D01*
X253611904Y-155788095D02*
X252811904Y-155521428D01*
X253611904Y-155254761D01*
X253535714Y-154530952D02*
X253573809Y-154569047D01*
X253611904Y-154683333D01*
X253611904Y-154759523D01*
X253573809Y-154873809D01*
X253497619Y-154950000D01*
X253421428Y-154988095D01*
X253269047Y-155026190D01*
X253154761Y-155026190D01*
X253002380Y-154988095D01*
X252926190Y-154950000D01*
X252850000Y-154873809D01*
X252811904Y-154759523D01*
X252811904Y-154683333D01*
X252850000Y-154569047D01*
X252888095Y-154530952D01*
X253688095Y-154378571D02*
X253688095Y-153769047D01*
X253611904Y-153197619D02*
X253611904Y-153578571D01*
X252811904Y-153578571D01*
X253611904Y-152930952D02*
X252811904Y-152930952D01*
X252811904Y-152740476D01*
X252850000Y-152626190D01*
X252926190Y-152550000D01*
X253002380Y-152511904D01*
X253154761Y-152473809D01*
X253269047Y-152473809D01*
X253421428Y-152511904D01*
X253497619Y-152550000D01*
X253573809Y-152626190D01*
X253611904Y-152740476D01*
X253611904Y-152930952D01*
X253383333Y-152169047D02*
X253383333Y-151788095D01*
X253611904Y-152245238D02*
X252811904Y-151978571D01*
X253611904Y-151711904D01*
X253535714Y-150988095D02*
X253573809Y-151026190D01*
X253611904Y-151140476D01*
X253611904Y-151216666D01*
X253573809Y-151330952D01*
X253497619Y-151407142D01*
X253421428Y-151445238D01*
X253269047Y-151483333D01*
X253154761Y-151483333D01*
X253002380Y-151445238D01*
X252926190Y-151407142D01*
X252850000Y-151330952D01*
X252811904Y-151216666D01*
X252811904Y-151140476D01*
X252850000Y-151026190D01*
X252888095Y-150988095D01*
X251111904Y-159150000D02*
X250311904Y-159150000D01*
X250311904Y-158959523D01*
X250350000Y-158845238D01*
X250426190Y-158769047D01*
X250502380Y-158730952D01*
X250654761Y-158692857D01*
X250769047Y-158692857D01*
X250921428Y-158730952D01*
X250997619Y-158769047D01*
X251073809Y-158845238D01*
X251111904Y-158959523D01*
X251111904Y-159150000D01*
X250883333Y-158388095D02*
X250883333Y-158007142D01*
X251111904Y-158464285D02*
X250311904Y-158197619D01*
X251111904Y-157930952D01*
X251035714Y-157207142D02*
X251073809Y-157245238D01*
X251111904Y-157359523D01*
X251111904Y-157435714D01*
X251073809Y-157550000D01*
X250997619Y-157626190D01*
X250921428Y-157664285D01*
X250769047Y-157702380D01*
X250654761Y-157702380D01*
X250502380Y-157664285D01*
X250426190Y-157626190D01*
X250350000Y-157550000D01*
X250311904Y-157435714D01*
X250311904Y-157359523D01*
X250350000Y-157245238D01*
X250388095Y-157207142D01*
X251188095Y-157054761D02*
X251188095Y-156445238D01*
X251111904Y-155797619D02*
X250730952Y-156064285D01*
X251111904Y-156254761D02*
X250311904Y-156254761D01*
X250311904Y-155950000D01*
X250350000Y-155873809D01*
X250388095Y-155835714D01*
X250464285Y-155797619D01*
X250578571Y-155797619D01*
X250654761Y-155835714D01*
X250692857Y-155873809D01*
X250730952Y-155950000D01*
X250730952Y-156254761D01*
X251111904Y-155454761D02*
X250311904Y-155454761D01*
X250311904Y-155264285D01*
X250350000Y-155150000D01*
X250426190Y-155073809D01*
X250502380Y-155035714D01*
X250654761Y-154997619D01*
X250769047Y-154997619D01*
X250921428Y-155035714D01*
X250997619Y-155073809D01*
X251073809Y-155150000D01*
X251111904Y-155264285D01*
X251111904Y-155454761D01*
X250730952Y-154502380D02*
X251111904Y-154502380D01*
X250311904Y-154769047D02*
X250730952Y-154502380D01*
X250311904Y-154235714D01*
X245342857Y-163861904D02*
X245342857Y-163061904D01*
X245533333Y-163061904D01*
X245647619Y-163100000D01*
X245723809Y-163176190D01*
X245761904Y-163252380D01*
X245800000Y-163404761D01*
X245800000Y-163519047D01*
X245761904Y-163671428D01*
X245723809Y-163747619D01*
X245647619Y-163823809D01*
X245533333Y-163861904D01*
X245342857Y-163861904D01*
X246104761Y-163633333D02*
X246485714Y-163633333D01*
X246028571Y-163861904D02*
X246295238Y-163061904D01*
X246561904Y-163861904D01*
X247285714Y-163785714D02*
X247247619Y-163823809D01*
X247133333Y-163861904D01*
X247057142Y-163861904D01*
X246942857Y-163823809D01*
X246866666Y-163747619D01*
X246828571Y-163671428D01*
X246790476Y-163519047D01*
X246790476Y-163404761D01*
X246828571Y-163252380D01*
X246866666Y-163176190D01*
X246942857Y-163100000D01*
X247057142Y-163061904D01*
X247133333Y-163061904D01*
X247247619Y-163100000D01*
X247285714Y-163138095D01*
X247438095Y-163938095D02*
X248047619Y-163938095D01*
X248695238Y-163785714D02*
X248657142Y-163823809D01*
X248542857Y-163861904D01*
X248466666Y-163861904D01*
X248352380Y-163823809D01*
X248276190Y-163747619D01*
X248238095Y-163671428D01*
X248200000Y-163519047D01*
X248200000Y-163404761D01*
X248238095Y-163252380D01*
X248276190Y-163176190D01*
X248352380Y-163100000D01*
X248466666Y-163061904D01*
X248542857Y-163061904D01*
X248657142Y-163100000D01*
X248695238Y-163138095D01*
X215433333Y-162561904D02*
X215700000Y-163361904D01*
X215966666Y-162561904D01*
X216233333Y-163361904D02*
X216233333Y-162561904D01*
X216233333Y-162942857D02*
X216690476Y-162942857D01*
X216690476Y-163361904D02*
X216690476Y-162561904D01*
X217033333Y-162638095D02*
X217071428Y-162600000D01*
X217147619Y-162561904D01*
X217338095Y-162561904D01*
X217414285Y-162600000D01*
X217452380Y-162638095D01*
X217490476Y-162714285D01*
X217490476Y-162790476D01*
X217452380Y-162904761D01*
X216995238Y-163361904D01*
X217490476Y-163361904D01*
X227085714Y-190861904D02*
X227085714Y-190061904D01*
X227352380Y-190633333D01*
X227619047Y-190061904D01*
X227619047Y-190861904D01*
X228457142Y-190785714D02*
X228419047Y-190823809D01*
X228304761Y-190861904D01*
X228228571Y-190861904D01*
X228114285Y-190823809D01*
X228038095Y-190747619D01*
X228000000Y-190671428D01*
X227961904Y-190519047D01*
X227961904Y-190404761D01*
X228000000Y-190252380D01*
X228038095Y-190176190D01*
X228114285Y-190100000D01*
X228228571Y-190061904D01*
X228304761Y-190061904D01*
X228419047Y-190100000D01*
X228457142Y-190138095D01*
X228800000Y-190061904D02*
X228800000Y-190709523D01*
X228838095Y-190785714D01*
X228876190Y-190823809D01*
X228952380Y-190861904D01*
X229104761Y-190861904D01*
X229180952Y-190823809D01*
X229219047Y-190785714D01*
X229257142Y-190709523D01*
X229257142Y-190061904D01*
X229447619Y-190938095D02*
X230057142Y-190938095D01*
X230247619Y-190861904D02*
X230247619Y-190061904D01*
X230438095Y-190061904D01*
X230552380Y-190100000D01*
X230628571Y-190176190D01*
X230666666Y-190252380D01*
X230704761Y-190404761D01*
X230704761Y-190519047D01*
X230666666Y-190671428D01*
X230628571Y-190747619D01*
X230552380Y-190823809D01*
X230438095Y-190861904D01*
X230247619Y-190861904D01*
X231009523Y-190633333D02*
X231390476Y-190633333D01*
X230933333Y-190861904D02*
X231200000Y-190061904D01*
X231466666Y-190861904D01*
X232190476Y-190785714D02*
X232152380Y-190823809D01*
X232038095Y-190861904D01*
X231961904Y-190861904D01*
X231847619Y-190823809D01*
X231771428Y-190747619D01*
X231733333Y-190671428D01*
X231695238Y-190519047D01*
X231695238Y-190404761D01*
X231733333Y-190252380D01*
X231771428Y-190176190D01*
X231847619Y-190100000D01*
X231961904Y-190061904D01*
X232038095Y-190061904D01*
X232152380Y-190100000D01*
X232190476Y-190138095D01*
X232495238Y-190138095D02*
X232533333Y-190100000D01*
X232609523Y-190061904D01*
X232800000Y-190061904D01*
X232876190Y-190100000D01*
X232914285Y-190138095D01*
X232952380Y-190214285D01*
X232952380Y-190290476D01*
X232914285Y-190404761D01*
X232457142Y-190861904D01*
X232952380Y-190861904D01*
X230633333Y-204595238D02*
X230633333Y-204214285D01*
X230861904Y-204671428D02*
X230061904Y-204404761D01*
X230861904Y-204138095D01*
X230861904Y-203871428D02*
X230061904Y-203871428D01*
X230061904Y-203680952D01*
X230100000Y-203566666D01*
X230176190Y-203490476D01*
X230252380Y-203452380D01*
X230404761Y-203414285D01*
X230519047Y-203414285D01*
X230671428Y-203452380D01*
X230747619Y-203490476D01*
X230823809Y-203566666D01*
X230861904Y-203680952D01*
X230861904Y-203871428D01*
X230061904Y-202842857D02*
X230633333Y-202842857D01*
X230747619Y-202880952D01*
X230823809Y-202957142D01*
X230861904Y-203071428D01*
X230861904Y-203147619D01*
X230938095Y-202652380D02*
X230938095Y-202042857D01*
X230861904Y-201395238D02*
X230480952Y-201661904D01*
X230861904Y-201852380D02*
X230061904Y-201852380D01*
X230061904Y-201547619D01*
X230100000Y-201471428D01*
X230138095Y-201433333D01*
X230214285Y-201395238D01*
X230328571Y-201395238D01*
X230404761Y-201433333D01*
X230442857Y-201471428D01*
X230480952Y-201547619D01*
X230480952Y-201852380D01*
X230442857Y-201052380D02*
X230442857Y-200785714D01*
X230861904Y-200671428D02*
X230861904Y-201052380D01*
X230061904Y-201052380D01*
X230061904Y-200671428D01*
X230100000Y-199909523D02*
X230061904Y-199985714D01*
X230061904Y-200100000D01*
X230100000Y-200214285D01*
X230176190Y-200290476D01*
X230252380Y-200328571D01*
X230404761Y-200366666D01*
X230519047Y-200366666D01*
X230671428Y-200328571D01*
X230747619Y-200290476D01*
X230823809Y-200214285D01*
X230861904Y-200100000D01*
X230861904Y-200023809D01*
X230823809Y-199909523D01*
X230785714Y-199871428D01*
X230519047Y-199871428D01*
X230519047Y-200023809D01*
X230938095Y-199719047D02*
X230938095Y-199109523D01*
X230785714Y-198461904D02*
X230823809Y-198500000D01*
X230861904Y-198614285D01*
X230861904Y-198690476D01*
X230823809Y-198804761D01*
X230747619Y-198880952D01*
X230671428Y-198919047D01*
X230519047Y-198957142D01*
X230404761Y-198957142D01*
X230252380Y-198919047D01*
X230176190Y-198880952D01*
X230100000Y-198804761D01*
X230061904Y-198690476D01*
X230061904Y-198614285D01*
X230100000Y-198500000D01*
X230138095Y-198461904D01*
X230061904Y-198233333D02*
X230061904Y-197776190D01*
X230861904Y-198004761D02*
X230061904Y-198004761D01*
X230861904Y-197052380D02*
X230480952Y-197319047D01*
X230861904Y-197509523D02*
X230061904Y-197509523D01*
X230061904Y-197204761D01*
X230100000Y-197128571D01*
X230138095Y-197090476D01*
X230214285Y-197052380D01*
X230328571Y-197052380D01*
X230404761Y-197090476D01*
X230442857Y-197128571D01*
X230480952Y-197204761D01*
X230480952Y-197509523D01*
X230861904Y-196328571D02*
X230861904Y-196709523D01*
X230061904Y-196709523D01*
X245342857Y-160361904D02*
X245342857Y-159561904D01*
X245533333Y-159561904D01*
X245647619Y-159600000D01*
X245723809Y-159676190D01*
X245761904Y-159752380D01*
X245800000Y-159904761D01*
X245800000Y-160019047D01*
X245761904Y-160171428D01*
X245723809Y-160247619D01*
X245647619Y-160323809D01*
X245533333Y-160361904D01*
X245342857Y-160361904D01*
X246104761Y-160133333D02*
X246485714Y-160133333D01*
X246028571Y-160361904D02*
X246295238Y-159561904D01*
X246561904Y-160361904D01*
X247285714Y-160285714D02*
X247247619Y-160323809D01*
X247133333Y-160361904D01*
X247057142Y-160361904D01*
X246942857Y-160323809D01*
X246866666Y-160247619D01*
X246828571Y-160171428D01*
X246790476Y-160019047D01*
X246790476Y-159904761D01*
X246828571Y-159752380D01*
X246866666Y-159676190D01*
X246942857Y-159600000D01*
X247057142Y-159561904D01*
X247133333Y-159561904D01*
X247247619Y-159600000D01*
X247285714Y-159638095D01*
X247438095Y-160438095D02*
X248047619Y-160438095D01*
X248238095Y-160361904D02*
X248238095Y-159561904D01*
X248428571Y-159561904D01*
X248542857Y-159600000D01*
X248619047Y-159676190D01*
X248657142Y-159752380D01*
X248695238Y-159904761D01*
X248695238Y-160019047D01*
X248657142Y-160171428D01*
X248619047Y-160247619D01*
X248542857Y-160323809D01*
X248428571Y-160361904D01*
X248238095Y-160361904D01*
X215528571Y-160061904D02*
X215795238Y-160861904D01*
X216061904Y-160061904D01*
X216709523Y-160861904D02*
X216328571Y-160861904D01*
X216328571Y-160061904D01*
X216938095Y-160138095D02*
X216976190Y-160100000D01*
X217052380Y-160061904D01*
X217242857Y-160061904D01*
X217319047Y-160100000D01*
X217357142Y-160138095D01*
X217395238Y-160214285D01*
X217395238Y-160290476D01*
X217357142Y-160404761D01*
X216900000Y-160861904D01*
X217395238Y-160861904D01*
X274285714Y-196052380D02*
X274323809Y-196090476D01*
X274361904Y-196204761D01*
X274361904Y-196280952D01*
X274323809Y-196395238D01*
X274247619Y-196471428D01*
X274171428Y-196509523D01*
X274019047Y-196547619D01*
X273904761Y-196547619D01*
X273752380Y-196509523D01*
X273676190Y-196471428D01*
X273600000Y-196395238D01*
X273561904Y-196280952D01*
X273561904Y-196204761D01*
X273600000Y-196090476D01*
X273638095Y-196052380D01*
X273561904Y-195823809D02*
X273561904Y-195366666D01*
X274361904Y-195595238D02*
X273561904Y-195595238D01*
X274361904Y-194642857D02*
X273980952Y-194909523D01*
X274361904Y-195100000D02*
X273561904Y-195100000D01*
X273561904Y-194795238D01*
X273600000Y-194719047D01*
X273638095Y-194680952D01*
X273714285Y-194642857D01*
X273828571Y-194642857D01*
X273904761Y-194680952D01*
X273942857Y-194719047D01*
X273980952Y-194795238D01*
X273980952Y-195100000D01*
X274361904Y-193919047D02*
X274361904Y-194300000D01*
X273561904Y-194300000D01*
X274438095Y-193842857D02*
X274438095Y-193233333D01*
X274361904Y-193042857D02*
X273561904Y-193042857D01*
X273561904Y-192738095D01*
X273600000Y-192661904D01*
X273638095Y-192623809D01*
X273714285Y-192585714D01*
X273828571Y-192585714D01*
X273904761Y-192623809D01*
X273942857Y-192661904D01*
X273980952Y-192738095D01*
X273980952Y-193042857D01*
X273561904Y-192242857D02*
X274209523Y-192242857D01*
X274285714Y-192204761D01*
X274323809Y-192166666D01*
X274361904Y-192090476D01*
X274361904Y-191938095D01*
X274323809Y-191861904D01*
X274285714Y-191823809D01*
X274209523Y-191785714D01*
X273561904Y-191785714D01*
X274361904Y-191023809D02*
X274361904Y-191404761D01*
X273561904Y-191404761D01*
X274361904Y-190376190D02*
X274361904Y-190757142D01*
X273561904Y-190757142D01*
X274438095Y-190300000D02*
X274438095Y-189690476D01*
X274361904Y-189500000D02*
X273561904Y-189500000D01*
X273561904Y-189309523D01*
X273600000Y-189195238D01*
X273676190Y-189119047D01*
X273752380Y-189080952D01*
X273904761Y-189042857D01*
X274019047Y-189042857D01*
X274171428Y-189080952D01*
X274247619Y-189119047D01*
X274323809Y-189195238D01*
X274361904Y-189309523D01*
X274361904Y-189500000D01*
X273561904Y-188547619D02*
X273561904Y-188395238D01*
X273600000Y-188319047D01*
X273676190Y-188242857D01*
X273828571Y-188204761D01*
X274095238Y-188204761D01*
X274247619Y-188242857D01*
X274323809Y-188319047D01*
X274361904Y-188395238D01*
X274361904Y-188547619D01*
X274323809Y-188623809D01*
X274247619Y-188700000D01*
X274095238Y-188738095D01*
X273828571Y-188738095D01*
X273676190Y-188700000D01*
X273600000Y-188623809D01*
X273561904Y-188547619D01*
X273561904Y-187938095D02*
X274361904Y-187747619D01*
X273790476Y-187595238D01*
X274361904Y-187442857D01*
X273561904Y-187252380D01*
X274361904Y-186947619D02*
X273561904Y-186947619D01*
X274361904Y-186490476D01*
X273561904Y-186490476D01*
X263285714Y-195926190D02*
X263323809Y-195964285D01*
X263361904Y-196078571D01*
X263361904Y-196154761D01*
X263323809Y-196269047D01*
X263247619Y-196345238D01*
X263171428Y-196383333D01*
X263019047Y-196421428D01*
X262904761Y-196421428D01*
X262752380Y-196383333D01*
X262676190Y-196345238D01*
X262600000Y-196269047D01*
X262561904Y-196154761D01*
X262561904Y-196078571D01*
X262600000Y-195964285D01*
X262638095Y-195926190D01*
X262561904Y-195697619D02*
X262561904Y-195240476D01*
X263361904Y-195469047D02*
X262561904Y-195469047D01*
X263361904Y-194516666D02*
X262980952Y-194783333D01*
X263361904Y-194973809D02*
X262561904Y-194973809D01*
X262561904Y-194669047D01*
X262600000Y-194592857D01*
X262638095Y-194554761D01*
X262714285Y-194516666D01*
X262828571Y-194516666D01*
X262904761Y-194554761D01*
X262942857Y-194592857D01*
X262980952Y-194669047D01*
X262980952Y-194973809D01*
X263361904Y-193792857D02*
X263361904Y-194173809D01*
X262561904Y-194173809D01*
X263438095Y-193716666D02*
X263438095Y-193107142D01*
X263361904Y-192916666D02*
X262561904Y-192916666D01*
X262561904Y-192611904D01*
X262600000Y-192535714D01*
X262638095Y-192497619D01*
X262714285Y-192459523D01*
X262828571Y-192459523D01*
X262904761Y-192497619D01*
X262942857Y-192535714D01*
X262980952Y-192611904D01*
X262980952Y-192916666D01*
X262561904Y-192116666D02*
X263209523Y-192116666D01*
X263285714Y-192078571D01*
X263323809Y-192040476D01*
X263361904Y-191964285D01*
X263361904Y-191811904D01*
X263323809Y-191735714D01*
X263285714Y-191697619D01*
X263209523Y-191659523D01*
X262561904Y-191659523D01*
X263361904Y-190897619D02*
X263361904Y-191278571D01*
X262561904Y-191278571D01*
X263361904Y-190250000D02*
X263361904Y-190630952D01*
X262561904Y-190630952D01*
X263438095Y-190173809D02*
X263438095Y-189564285D01*
X262561904Y-189373809D02*
X263209523Y-189373809D01*
X263285714Y-189335714D01*
X263323809Y-189297619D01*
X263361904Y-189221428D01*
X263361904Y-189069047D01*
X263323809Y-188992857D01*
X263285714Y-188954761D01*
X263209523Y-188916666D01*
X262561904Y-188916666D01*
X263361904Y-188535714D02*
X262561904Y-188535714D01*
X262561904Y-188230952D01*
X262600000Y-188154761D01*
X262638095Y-188116666D01*
X262714285Y-188078571D01*
X262828571Y-188078571D01*
X262904761Y-188116666D01*
X262942857Y-188154761D01*
X262980952Y-188230952D01*
X262980952Y-188535714D01*
X252285714Y-195723809D02*
X252323809Y-195761904D01*
X252361904Y-195876190D01*
X252361904Y-195952380D01*
X252323809Y-196066666D01*
X252247619Y-196142857D01*
X252171428Y-196180952D01*
X252019047Y-196219047D01*
X251904761Y-196219047D01*
X251752380Y-196180952D01*
X251676190Y-196142857D01*
X251600000Y-196066666D01*
X251561904Y-195952380D01*
X251561904Y-195876190D01*
X251600000Y-195761904D01*
X251638095Y-195723809D01*
X251561904Y-195495238D02*
X251561904Y-195038095D01*
X252361904Y-195266666D02*
X251561904Y-195266666D01*
X252361904Y-194314285D02*
X251980952Y-194580952D01*
X252361904Y-194771428D02*
X251561904Y-194771428D01*
X251561904Y-194466666D01*
X251600000Y-194390476D01*
X251638095Y-194352380D01*
X251714285Y-194314285D01*
X251828571Y-194314285D01*
X251904761Y-194352380D01*
X251942857Y-194390476D01*
X251980952Y-194466666D01*
X251980952Y-194771428D01*
X252361904Y-193590476D02*
X252361904Y-193971428D01*
X251561904Y-193971428D01*
X252438095Y-193514285D02*
X252438095Y-192904761D01*
X252361904Y-192714285D02*
X251561904Y-192714285D01*
X252133333Y-192447619D01*
X251561904Y-192180952D01*
X252361904Y-192180952D01*
X251561904Y-191647619D02*
X251561904Y-191495238D01*
X251600000Y-191419047D01*
X251676190Y-191342857D01*
X251828571Y-191304761D01*
X252095238Y-191304761D01*
X252247619Y-191342857D01*
X252323809Y-191419047D01*
X252361904Y-191495238D01*
X252361904Y-191647619D01*
X252323809Y-191723809D01*
X252247619Y-191800000D01*
X252095238Y-191838095D01*
X251828571Y-191838095D01*
X251676190Y-191800000D01*
X251600000Y-191723809D01*
X251561904Y-191647619D01*
X252361904Y-190961904D02*
X251561904Y-190961904D01*
X251561904Y-190771428D01*
X251600000Y-190657142D01*
X251676190Y-190580952D01*
X251752380Y-190542857D01*
X251904761Y-190504761D01*
X252019047Y-190504761D01*
X252171428Y-190542857D01*
X252247619Y-190580952D01*
X252323809Y-190657142D01*
X252361904Y-190771428D01*
X252361904Y-190961904D01*
X251942857Y-190161904D02*
X251942857Y-189895238D01*
X252361904Y-189780952D02*
X252361904Y-190161904D01*
X251561904Y-190161904D01*
X251561904Y-189780952D01*
X287285714Y-195859523D02*
X287323809Y-195897619D01*
X287361904Y-196011904D01*
X287361904Y-196088095D01*
X287323809Y-196202380D01*
X287247619Y-196278571D01*
X287171428Y-196316666D01*
X287019047Y-196354761D01*
X286904761Y-196354761D01*
X286752380Y-196316666D01*
X286676190Y-196278571D01*
X286600000Y-196202380D01*
X286561904Y-196088095D01*
X286561904Y-196011904D01*
X286600000Y-195897619D01*
X286638095Y-195859523D01*
X286561904Y-195630952D02*
X286561904Y-195173809D01*
X287361904Y-195402380D02*
X286561904Y-195402380D01*
X287361904Y-194450000D02*
X286980952Y-194716666D01*
X287361904Y-194907142D02*
X286561904Y-194907142D01*
X286561904Y-194602380D01*
X286600000Y-194526190D01*
X286638095Y-194488095D01*
X286714285Y-194450000D01*
X286828571Y-194450000D01*
X286904761Y-194488095D01*
X286942857Y-194526190D01*
X286980952Y-194602380D01*
X286980952Y-194907142D01*
X287361904Y-193726190D02*
X287361904Y-194107142D01*
X286561904Y-194107142D01*
X287438095Y-193650000D02*
X287438095Y-193040476D01*
X286561904Y-192964285D02*
X286561904Y-192507142D01*
X287361904Y-192735714D02*
X286561904Y-192735714D01*
X286942857Y-192240476D02*
X286942857Y-191973809D01*
X287361904Y-191859523D02*
X287361904Y-192240476D01*
X286561904Y-192240476D01*
X286561904Y-191859523D01*
X287361904Y-191059523D02*
X286980952Y-191326190D01*
X287361904Y-191516666D02*
X286561904Y-191516666D01*
X286561904Y-191211904D01*
X286600000Y-191135714D01*
X286638095Y-191097619D01*
X286714285Y-191059523D01*
X286828571Y-191059523D01*
X286904761Y-191097619D01*
X286942857Y-191135714D01*
X286980952Y-191211904D01*
X286980952Y-191516666D01*
X287361904Y-190716666D02*
X286561904Y-190716666D01*
X287133333Y-190450000D01*
X286561904Y-190183333D01*
X287361904Y-190183333D01*
X228061904Y-167859523D02*
X228709523Y-167859523D01*
X228785714Y-167821428D01*
X228823809Y-167783333D01*
X228861904Y-167707142D01*
X228861904Y-167554761D01*
X228823809Y-167478571D01*
X228785714Y-167440476D01*
X228709523Y-167402380D01*
X228061904Y-167402380D01*
X228861904Y-166602380D02*
X228861904Y-167059523D01*
X228861904Y-166830952D02*
X228061904Y-166830952D01*
X228176190Y-166907142D01*
X228252380Y-166983333D01*
X228290476Y-167059523D01*
X209811904Y-196359523D02*
X210459523Y-196359523D01*
X210535714Y-196321428D01*
X210573809Y-196283333D01*
X210611904Y-196207142D01*
X210611904Y-196054761D01*
X210573809Y-195978571D01*
X210535714Y-195940476D01*
X210459523Y-195902380D01*
X209811904Y-195902380D01*
X209888095Y-195559523D02*
X209850000Y-195521428D01*
X209811904Y-195445238D01*
X209811904Y-195254761D01*
X209850000Y-195178571D01*
X209888095Y-195140476D01*
X209964285Y-195102380D01*
X210040476Y-195102380D01*
X210154761Y-195140476D01*
X210611904Y-195597619D01*
X210611904Y-195102380D01*
X221640476Y-192311904D02*
X221640476Y-192959523D01*
X221678571Y-193035714D01*
X221716666Y-193073809D01*
X221792857Y-193111904D01*
X221945238Y-193111904D01*
X222021428Y-193073809D01*
X222059523Y-193035714D01*
X222097619Y-192959523D01*
X222097619Y-192311904D01*
X222402380Y-192311904D02*
X222897619Y-192311904D01*
X222630952Y-192616666D01*
X222745238Y-192616666D01*
X222821428Y-192654761D01*
X222859523Y-192692857D01*
X222897619Y-192769047D01*
X222897619Y-192959523D01*
X222859523Y-193035714D01*
X222821428Y-193073809D01*
X222745238Y-193111904D01*
X222516666Y-193111904D01*
X222440476Y-193073809D01*
X222402380Y-193035714D01*
X254911904Y-165859523D02*
X255559523Y-165859523D01*
X255635714Y-165821428D01*
X255673809Y-165783333D01*
X255711904Y-165707142D01*
X255711904Y-165554761D01*
X255673809Y-165478571D01*
X255635714Y-165440476D01*
X255559523Y-165402380D01*
X254911904Y-165402380D01*
X255178571Y-164678571D02*
X255711904Y-164678571D01*
X254873809Y-164869047D02*
X255445238Y-165059523D01*
X255445238Y-164564285D01*
M02*
