G04 #@! TF.GenerationSoftware,KiCad,Pcbnew,5.1.4*
G04 #@! TF.CreationDate,2019-11-06T21:16:27-05:00*
G04 #@! TF.ProjectId,device-config-demo,64657669-6365-42d6-936f-6e6669672d64,rev?*
G04 #@! TF.SameCoordinates,Original*
G04 #@! TF.FileFunction,Soldermask,Bot*
G04 #@! TF.FilePolarity,Negative*
%FSLAX46Y46*%
G04 Gerber Fmt 4.6, Leading zero omitted, Abs format (unit mm)*
G04 Created by KiCad (PCBNEW 5.1.4) date 2019-11-06 21:16:27*
%MOMM*%
%LPD*%
G04 APERTURE LIST*
%ADD10C,0.100000*%
G04 APERTURE END LIST*
D10*
G36*
X233091224Y-209074486D02*
G01*
X233182312Y-209083457D01*
X233357617Y-209136636D01*
X233357620Y-209136637D01*
X233443298Y-209182433D01*
X233519180Y-209222992D01*
X233660791Y-209339209D01*
X233777008Y-209480820D01*
X233817567Y-209556702D01*
X233863363Y-209642380D01*
X233863364Y-209642383D01*
X233916543Y-209817688D01*
X233934499Y-210000000D01*
X233916543Y-210182312D01*
X233863364Y-210357617D01*
X233863363Y-210357620D01*
X233817567Y-210443298D01*
X233777008Y-210519180D01*
X233660791Y-210660791D01*
X233519180Y-210777008D01*
X233443298Y-210817567D01*
X233357620Y-210863363D01*
X233357617Y-210863364D01*
X233182312Y-210916543D01*
X233091224Y-210925514D01*
X233045681Y-210930000D01*
X232954319Y-210930000D01*
X232908776Y-210925514D01*
X232817688Y-210916543D01*
X232642383Y-210863364D01*
X232642380Y-210863363D01*
X232556702Y-210817567D01*
X232480820Y-210777008D01*
X232339209Y-210660791D01*
X232222992Y-210519180D01*
X232182433Y-210443298D01*
X232136637Y-210357620D01*
X232136636Y-210357617D01*
X232083457Y-210182312D01*
X232065501Y-210000000D01*
X232083457Y-209817688D01*
X232136636Y-209642383D01*
X232136637Y-209642380D01*
X232182433Y-209556702D01*
X232222992Y-209480820D01*
X232339209Y-209339209D01*
X232480820Y-209222992D01*
X232556702Y-209182433D01*
X232642380Y-209136637D01*
X232642383Y-209136636D01*
X232817688Y-209083457D01*
X232908776Y-209074486D01*
X232954319Y-209070000D01*
X233045681Y-209070000D01*
X233091224Y-209074486D01*
X233091224Y-209074486D01*
G37*
G36*
X231390000Y-210930000D02*
G01*
X229530000Y-210930000D01*
X229530000Y-209070000D01*
X231390000Y-209070000D01*
X231390000Y-210930000D01*
X231390000Y-210930000D01*
G37*
G36*
X212390000Y-210930000D02*
G01*
X210530000Y-210930000D01*
X210530000Y-209070000D01*
X212390000Y-209070000D01*
X212390000Y-210930000D01*
X212390000Y-210930000D01*
G37*
G36*
X214091224Y-209074486D02*
G01*
X214182312Y-209083457D01*
X214357617Y-209136636D01*
X214357620Y-209136637D01*
X214443298Y-209182433D01*
X214519180Y-209222992D01*
X214660791Y-209339209D01*
X214777008Y-209480820D01*
X214817567Y-209556702D01*
X214863363Y-209642380D01*
X214863364Y-209642383D01*
X214916543Y-209817688D01*
X214934499Y-210000000D01*
X214916543Y-210182312D01*
X214863364Y-210357617D01*
X214863363Y-210357620D01*
X214817567Y-210443298D01*
X214777008Y-210519180D01*
X214660791Y-210660791D01*
X214519180Y-210777008D01*
X214443298Y-210817567D01*
X214357620Y-210863363D01*
X214357617Y-210863364D01*
X214182312Y-210916543D01*
X214091224Y-210925514D01*
X214045681Y-210930000D01*
X213954319Y-210930000D01*
X213908776Y-210925514D01*
X213817688Y-210916543D01*
X213642383Y-210863364D01*
X213642380Y-210863363D01*
X213556702Y-210817567D01*
X213480820Y-210777008D01*
X213339209Y-210660791D01*
X213222992Y-210519180D01*
X213182433Y-210443298D01*
X213136637Y-210357620D01*
X213136636Y-210357617D01*
X213083457Y-210182312D01*
X213065501Y-210000000D01*
X213083457Y-209817688D01*
X213136636Y-209642383D01*
X213136637Y-209642380D01*
X213182433Y-209556702D01*
X213222992Y-209480820D01*
X213339209Y-209339209D01*
X213480820Y-209222992D01*
X213556702Y-209182433D01*
X213642380Y-209136637D01*
X213642383Y-209136636D01*
X213817688Y-209083457D01*
X213908776Y-209074486D01*
X213954319Y-209070000D01*
X214045681Y-209070000D01*
X214091224Y-209074486D01*
X214091224Y-209074486D01*
G37*
G36*
X211613152Y-204931144D02*
G01*
X211669180Y-204942289D01*
X211774733Y-204986011D01*
X211869728Y-205049485D01*
X211950515Y-205130272D01*
X212013989Y-205225267D01*
X212057711Y-205330820D01*
X212080000Y-205442875D01*
X212080000Y-205557125D01*
X212057711Y-205669180D01*
X212013989Y-205774733D01*
X211950515Y-205869728D01*
X211869728Y-205950515D01*
X211774733Y-206013989D01*
X211669180Y-206057711D01*
X211613153Y-206068855D01*
X211557126Y-206080000D01*
X211442874Y-206080000D01*
X211386847Y-206068855D01*
X211330820Y-206057711D01*
X211225267Y-206013989D01*
X211130272Y-205950515D01*
X211049485Y-205869728D01*
X210986011Y-205774733D01*
X210942289Y-205669180D01*
X210920000Y-205557125D01*
X210920000Y-205442875D01*
X210942289Y-205330820D01*
X210986011Y-205225267D01*
X211049485Y-205130272D01*
X211130272Y-205049485D01*
X211225267Y-204986011D01*
X211330820Y-204942289D01*
X211386848Y-204931144D01*
X211442874Y-204920000D01*
X211557126Y-204920000D01*
X211613152Y-204931144D01*
X211613152Y-204931144D01*
G37*
G36*
X230613152Y-204931144D02*
G01*
X230669180Y-204942289D01*
X230774733Y-204986011D01*
X230869728Y-205049485D01*
X230950515Y-205130272D01*
X231013989Y-205225267D01*
X231057711Y-205330820D01*
X231080000Y-205442875D01*
X231080000Y-205557125D01*
X231057711Y-205669180D01*
X231013989Y-205774733D01*
X230950515Y-205869728D01*
X230869728Y-205950515D01*
X230774733Y-206013989D01*
X230669180Y-206057711D01*
X230613153Y-206068855D01*
X230557126Y-206080000D01*
X230442874Y-206080000D01*
X230386847Y-206068855D01*
X230330820Y-206057711D01*
X230225267Y-206013989D01*
X230130272Y-205950515D01*
X230049485Y-205869728D01*
X229986011Y-205774733D01*
X229942289Y-205669180D01*
X229920000Y-205557125D01*
X229920000Y-205442875D01*
X229942289Y-205330820D01*
X229986011Y-205225267D01*
X230049485Y-205130272D01*
X230130272Y-205049485D01*
X230225267Y-204986011D01*
X230330820Y-204942289D01*
X230386848Y-204931144D01*
X230442874Y-204920000D01*
X230557126Y-204920000D01*
X230613152Y-204931144D01*
X230613152Y-204931144D01*
G37*
G36*
X287113153Y-196931145D02*
G01*
X287169180Y-196942289D01*
X287274733Y-196986011D01*
X287369728Y-197049485D01*
X287450515Y-197130272D01*
X287513989Y-197225267D01*
X287557711Y-197330820D01*
X287580000Y-197442875D01*
X287580000Y-197557125D01*
X287557711Y-197669180D01*
X287513989Y-197774733D01*
X287450515Y-197869728D01*
X287369728Y-197950515D01*
X287274733Y-198013989D01*
X287169180Y-198057711D01*
X287113153Y-198068855D01*
X287057126Y-198080000D01*
X286942874Y-198080000D01*
X286886847Y-198068855D01*
X286830820Y-198057711D01*
X286725267Y-198013989D01*
X286630272Y-197950515D01*
X286549485Y-197869728D01*
X286486011Y-197774733D01*
X286442289Y-197669180D01*
X286420000Y-197557125D01*
X286420000Y-197442875D01*
X286442289Y-197330820D01*
X286486011Y-197225267D01*
X286549485Y-197130272D01*
X286630272Y-197049485D01*
X286725267Y-196986011D01*
X286830820Y-196942289D01*
X286886847Y-196931145D01*
X286942874Y-196920000D01*
X287057126Y-196920000D01*
X287113153Y-196931145D01*
X287113153Y-196931145D01*
G37*
G36*
X274113153Y-196931145D02*
G01*
X274169180Y-196942289D01*
X274274733Y-196986011D01*
X274369728Y-197049485D01*
X274450515Y-197130272D01*
X274513989Y-197225267D01*
X274557711Y-197330820D01*
X274580000Y-197442875D01*
X274580000Y-197557125D01*
X274557711Y-197669180D01*
X274513989Y-197774733D01*
X274450515Y-197869728D01*
X274369728Y-197950515D01*
X274274733Y-198013989D01*
X274169180Y-198057711D01*
X274113153Y-198068855D01*
X274057126Y-198080000D01*
X273942874Y-198080000D01*
X273886847Y-198068855D01*
X273830820Y-198057711D01*
X273725267Y-198013989D01*
X273630272Y-197950515D01*
X273549485Y-197869728D01*
X273486011Y-197774733D01*
X273442289Y-197669180D01*
X273420000Y-197557125D01*
X273420000Y-197442875D01*
X273442289Y-197330820D01*
X273486011Y-197225267D01*
X273549485Y-197130272D01*
X273630272Y-197049485D01*
X273725267Y-196986011D01*
X273830820Y-196942289D01*
X273886847Y-196931145D01*
X273942874Y-196920000D01*
X274057126Y-196920000D01*
X274113153Y-196931145D01*
X274113153Y-196931145D01*
G37*
G36*
X263113153Y-196931145D02*
G01*
X263169180Y-196942289D01*
X263274733Y-196986011D01*
X263369728Y-197049485D01*
X263450515Y-197130272D01*
X263513989Y-197225267D01*
X263557711Y-197330820D01*
X263580000Y-197442875D01*
X263580000Y-197557125D01*
X263557711Y-197669180D01*
X263513989Y-197774733D01*
X263450515Y-197869728D01*
X263369728Y-197950515D01*
X263274733Y-198013989D01*
X263169180Y-198057711D01*
X263113153Y-198068855D01*
X263057126Y-198080000D01*
X262942874Y-198080000D01*
X262886847Y-198068855D01*
X262830820Y-198057711D01*
X262725267Y-198013989D01*
X262630272Y-197950515D01*
X262549485Y-197869728D01*
X262486011Y-197774733D01*
X262442289Y-197669180D01*
X262420000Y-197557125D01*
X262420000Y-197442875D01*
X262442289Y-197330820D01*
X262486011Y-197225267D01*
X262549485Y-197130272D01*
X262630272Y-197049485D01*
X262725267Y-196986011D01*
X262830820Y-196942289D01*
X262886847Y-196931145D01*
X262942874Y-196920000D01*
X263057126Y-196920000D01*
X263113153Y-196931145D01*
X263113153Y-196931145D01*
G37*
G36*
X252113153Y-196931145D02*
G01*
X252169180Y-196942289D01*
X252274733Y-196986011D01*
X252369728Y-197049485D01*
X252450515Y-197130272D01*
X252513989Y-197225267D01*
X252557711Y-197330820D01*
X252580000Y-197442875D01*
X252580000Y-197557125D01*
X252557711Y-197669180D01*
X252513989Y-197774733D01*
X252450515Y-197869728D01*
X252369728Y-197950515D01*
X252274733Y-198013989D01*
X252169180Y-198057711D01*
X252113153Y-198068855D01*
X252057126Y-198080000D01*
X251942874Y-198080000D01*
X251886847Y-198068855D01*
X251830820Y-198057711D01*
X251725267Y-198013989D01*
X251630272Y-197950515D01*
X251549485Y-197869728D01*
X251486011Y-197774733D01*
X251442289Y-197669180D01*
X251420000Y-197557125D01*
X251420000Y-197442875D01*
X251442289Y-197330820D01*
X251486011Y-197225267D01*
X251549485Y-197130272D01*
X251630272Y-197049485D01*
X251725267Y-196986011D01*
X251830820Y-196942289D01*
X251886847Y-196931145D01*
X251942874Y-196920000D01*
X252057126Y-196920000D01*
X252113153Y-196931145D01*
X252113153Y-196931145D01*
G37*
G36*
X217863152Y-190431144D02*
G01*
X217919180Y-190442289D01*
X218024733Y-190486011D01*
X218119728Y-190549485D01*
X218200515Y-190630272D01*
X218263990Y-190725269D01*
X218307711Y-190830821D01*
X218330000Y-190942874D01*
X218330000Y-191057126D01*
X218325450Y-191080000D01*
X218307711Y-191169180D01*
X218263989Y-191274733D01*
X218200515Y-191369728D01*
X218119728Y-191450515D01*
X218024733Y-191513989D01*
X217919180Y-191557711D01*
X217863153Y-191568855D01*
X217807126Y-191580000D01*
X217692874Y-191580000D01*
X217636848Y-191568856D01*
X217580820Y-191557711D01*
X217475267Y-191513989D01*
X217380272Y-191450515D01*
X217299485Y-191369728D01*
X217236011Y-191274733D01*
X217192289Y-191169180D01*
X217174550Y-191080000D01*
X217170000Y-191057126D01*
X217170000Y-190942874D01*
X217192289Y-190830821D01*
X217236010Y-190725269D01*
X217299485Y-190630272D01*
X217380272Y-190549485D01*
X217475267Y-190486011D01*
X217580820Y-190442289D01*
X217636848Y-190431144D01*
X217692874Y-190420000D01*
X217807126Y-190420000D01*
X217863152Y-190431144D01*
X217863152Y-190431144D01*
G37*
G36*
X226113152Y-189931144D02*
G01*
X226169180Y-189942289D01*
X226274733Y-189986011D01*
X226369728Y-190049485D01*
X226450515Y-190130272D01*
X226513990Y-190225269D01*
X226557711Y-190330821D01*
X226579884Y-190442289D01*
X226580000Y-190442875D01*
X226580000Y-190557125D01*
X226557711Y-190669180D01*
X226513989Y-190774733D01*
X226450515Y-190869728D01*
X226369728Y-190950515D01*
X226274733Y-191013989D01*
X226169180Y-191057711D01*
X226113152Y-191068856D01*
X226057126Y-191080000D01*
X225942874Y-191080000D01*
X225886848Y-191068856D01*
X225830820Y-191057711D01*
X225725267Y-191013989D01*
X225630272Y-190950515D01*
X225549485Y-190869728D01*
X225486011Y-190774733D01*
X225442289Y-190669180D01*
X225420000Y-190557125D01*
X225420000Y-190442875D01*
X225420117Y-190442289D01*
X225442289Y-190330821D01*
X225486010Y-190225269D01*
X225549485Y-190130272D01*
X225630272Y-190049485D01*
X225725267Y-189986011D01*
X225830820Y-189942289D01*
X225886847Y-189931145D01*
X225942874Y-189920000D01*
X226057126Y-189920000D01*
X226113152Y-189931144D01*
X226113152Y-189931144D01*
G37*
G36*
X226113153Y-187181145D02*
G01*
X226169180Y-187192289D01*
X226274733Y-187236011D01*
X226369728Y-187299485D01*
X226450515Y-187380272D01*
X226513989Y-187475267D01*
X226557711Y-187580820D01*
X226580000Y-187692875D01*
X226580000Y-187807125D01*
X226557711Y-187919180D01*
X226513989Y-188024733D01*
X226450515Y-188119728D01*
X226369728Y-188200515D01*
X226274733Y-188263989D01*
X226169180Y-188307711D01*
X226113152Y-188318856D01*
X226057126Y-188330000D01*
X225942874Y-188330000D01*
X225886848Y-188318856D01*
X225830820Y-188307711D01*
X225725267Y-188263989D01*
X225630272Y-188200515D01*
X225549485Y-188119728D01*
X225486011Y-188024733D01*
X225442289Y-187919180D01*
X225420000Y-187807125D01*
X225420000Y-187692875D01*
X225442289Y-187580820D01*
X225486011Y-187475267D01*
X225549485Y-187380272D01*
X225630272Y-187299485D01*
X225725267Y-187236011D01*
X225830820Y-187192289D01*
X225886847Y-187181145D01*
X225942874Y-187170000D01*
X226057126Y-187170000D01*
X226113153Y-187181145D01*
X226113153Y-187181145D01*
G37*
G36*
X290091224Y-185394486D02*
G01*
X290182312Y-185403457D01*
X290357617Y-185456636D01*
X290357620Y-185456637D01*
X290443298Y-185502433D01*
X290519180Y-185542992D01*
X290660791Y-185659209D01*
X290777008Y-185800820D01*
X290817567Y-185876702D01*
X290863363Y-185962380D01*
X290863364Y-185962383D01*
X290916543Y-186137688D01*
X290934499Y-186320000D01*
X290916543Y-186502312D01*
X290863364Y-186677617D01*
X290863363Y-186677620D01*
X290817567Y-186763298D01*
X290777008Y-186839180D01*
X290660791Y-186980791D01*
X290519180Y-187097008D01*
X290443298Y-187137567D01*
X290357620Y-187183363D01*
X290357617Y-187183364D01*
X290182312Y-187236543D01*
X290091224Y-187245514D01*
X290045681Y-187250000D01*
X289954319Y-187250000D01*
X289908776Y-187245514D01*
X289817688Y-187236543D01*
X289642383Y-187183364D01*
X289642380Y-187183363D01*
X289556702Y-187137567D01*
X289480820Y-187097008D01*
X289339209Y-186980791D01*
X289222992Y-186839180D01*
X289182433Y-186763298D01*
X289136637Y-186677620D01*
X289136636Y-186677617D01*
X289083457Y-186502312D01*
X289065501Y-186320000D01*
X289083457Y-186137688D01*
X289136636Y-185962383D01*
X289136637Y-185962380D01*
X289182433Y-185876702D01*
X289222992Y-185800820D01*
X289339209Y-185659209D01*
X289480820Y-185542992D01*
X289556702Y-185502433D01*
X289642380Y-185456637D01*
X289642383Y-185456636D01*
X289817688Y-185403457D01*
X289908776Y-185394486D01*
X289954319Y-185390000D01*
X290045681Y-185390000D01*
X290091224Y-185394486D01*
X290091224Y-185394486D01*
G37*
G36*
X290091224Y-182854486D02*
G01*
X290182312Y-182863457D01*
X290357617Y-182916636D01*
X290357620Y-182916637D01*
X290443298Y-182962433D01*
X290519180Y-183002992D01*
X290660791Y-183119209D01*
X290777008Y-183260820D01*
X290817567Y-183336702D01*
X290863363Y-183422380D01*
X290863364Y-183422383D01*
X290916543Y-183597688D01*
X290934499Y-183780000D01*
X290916543Y-183962312D01*
X290863364Y-184137617D01*
X290863363Y-184137620D01*
X290817567Y-184223298D01*
X290777008Y-184299180D01*
X290660791Y-184440791D01*
X290519180Y-184557008D01*
X290443298Y-184597567D01*
X290357620Y-184643363D01*
X290357617Y-184643364D01*
X290182312Y-184696543D01*
X290091224Y-184705514D01*
X290045681Y-184710000D01*
X289954319Y-184710000D01*
X289908776Y-184705514D01*
X289817688Y-184696543D01*
X289642383Y-184643364D01*
X289642380Y-184643363D01*
X289556702Y-184597567D01*
X289480820Y-184557008D01*
X289339209Y-184440791D01*
X289222992Y-184299180D01*
X289182433Y-184223298D01*
X289136637Y-184137620D01*
X289136636Y-184137617D01*
X289083457Y-183962312D01*
X289065501Y-183780000D01*
X289083457Y-183597688D01*
X289136636Y-183422383D01*
X289136637Y-183422380D01*
X289182433Y-183336702D01*
X289222992Y-183260820D01*
X289339209Y-183119209D01*
X289480820Y-183002992D01*
X289556702Y-182962433D01*
X289642380Y-182916637D01*
X289642383Y-182916636D01*
X289817688Y-182863457D01*
X289908776Y-182854486D01*
X289954319Y-182850000D01*
X290045681Y-182850000D01*
X290091224Y-182854486D01*
X290091224Y-182854486D01*
G37*
G36*
X290091224Y-180314486D02*
G01*
X290182312Y-180323457D01*
X290357617Y-180376636D01*
X290357620Y-180376637D01*
X290443298Y-180422433D01*
X290519180Y-180462992D01*
X290660791Y-180579209D01*
X290777008Y-180720820D01*
X290817567Y-180796702D01*
X290863363Y-180882380D01*
X290863364Y-180882383D01*
X290916543Y-181057688D01*
X290934499Y-181240000D01*
X290916543Y-181422312D01*
X290863364Y-181597617D01*
X290863363Y-181597620D01*
X290817567Y-181683298D01*
X290777008Y-181759180D01*
X290660791Y-181900791D01*
X290519180Y-182017008D01*
X290443298Y-182057567D01*
X290357620Y-182103363D01*
X290357617Y-182103364D01*
X290182312Y-182156543D01*
X290091224Y-182165514D01*
X290045681Y-182170000D01*
X289954319Y-182170000D01*
X289908776Y-182165514D01*
X289817688Y-182156543D01*
X289642383Y-182103364D01*
X289642380Y-182103363D01*
X289556702Y-182057567D01*
X289480820Y-182017008D01*
X289339209Y-181900791D01*
X289222992Y-181759180D01*
X289182433Y-181683298D01*
X289136637Y-181597620D01*
X289136636Y-181597617D01*
X289083457Y-181422312D01*
X289065501Y-181240000D01*
X289083457Y-181057688D01*
X289136636Y-180882383D01*
X289136637Y-180882380D01*
X289182433Y-180796702D01*
X289222992Y-180720820D01*
X289339209Y-180579209D01*
X289480820Y-180462992D01*
X289556702Y-180422433D01*
X289642380Y-180376637D01*
X289642383Y-180376636D01*
X289817688Y-180323457D01*
X289908776Y-180314486D01*
X289954319Y-180310000D01*
X290045681Y-180310000D01*
X290091224Y-180314486D01*
X290091224Y-180314486D01*
G37*
G36*
X290091224Y-177774486D02*
G01*
X290182312Y-177783457D01*
X290357617Y-177836636D01*
X290357620Y-177836637D01*
X290443298Y-177882433D01*
X290519180Y-177922992D01*
X290660791Y-178039209D01*
X290777008Y-178180820D01*
X290817567Y-178256702D01*
X290863363Y-178342380D01*
X290863364Y-178342383D01*
X290916543Y-178517688D01*
X290934499Y-178700000D01*
X290916543Y-178882312D01*
X290863364Y-179057617D01*
X290863363Y-179057620D01*
X290817567Y-179143298D01*
X290777008Y-179219180D01*
X290660791Y-179360791D01*
X290519180Y-179477008D01*
X290443298Y-179517567D01*
X290357620Y-179563363D01*
X290357617Y-179563364D01*
X290182312Y-179616543D01*
X290091224Y-179625514D01*
X290045681Y-179630000D01*
X289954319Y-179630000D01*
X289908776Y-179625514D01*
X289817688Y-179616543D01*
X289642383Y-179563364D01*
X289642380Y-179563363D01*
X289556702Y-179517567D01*
X289480820Y-179477008D01*
X289339209Y-179360791D01*
X289222992Y-179219180D01*
X289182433Y-179143298D01*
X289136637Y-179057620D01*
X289136636Y-179057617D01*
X289083457Y-178882312D01*
X289065501Y-178700000D01*
X289083457Y-178517688D01*
X289136636Y-178342383D01*
X289136637Y-178342380D01*
X289182433Y-178256702D01*
X289222992Y-178180820D01*
X289339209Y-178039209D01*
X289480820Y-177922992D01*
X289556702Y-177882433D01*
X289642380Y-177836637D01*
X289642383Y-177836636D01*
X289817688Y-177783457D01*
X289908776Y-177774486D01*
X289954319Y-177770000D01*
X290045681Y-177770000D01*
X290091224Y-177774486D01*
X290091224Y-177774486D01*
G37*
G36*
X215931699Y-175076875D02*
G01*
X216201041Y-175188440D01*
X216201043Y-175188441D01*
X216443445Y-175350409D01*
X216649591Y-175556555D01*
X216811559Y-175798957D01*
X216811560Y-175798959D01*
X216923125Y-176068301D01*
X216980000Y-176354231D01*
X216980000Y-176645769D01*
X216923125Y-176931699D01*
X216811560Y-177201041D01*
X216811559Y-177201043D01*
X216649591Y-177443445D01*
X216443445Y-177649591D01*
X216201043Y-177811559D01*
X216201042Y-177811560D01*
X216201041Y-177811560D01*
X215931699Y-177923125D01*
X215645769Y-177980000D01*
X215354231Y-177980000D01*
X215068301Y-177923125D01*
X214798959Y-177811560D01*
X214798958Y-177811560D01*
X214798957Y-177811559D01*
X214556555Y-177649591D01*
X214350409Y-177443445D01*
X214188441Y-177201043D01*
X214188440Y-177201041D01*
X214076875Y-176931699D01*
X214020000Y-176645769D01*
X214020000Y-176354231D01*
X214076875Y-176068301D01*
X214188440Y-175798959D01*
X214188441Y-175798957D01*
X214350409Y-175556555D01*
X214556555Y-175350409D01*
X214798957Y-175188441D01*
X214798959Y-175188440D01*
X215068301Y-175076875D01*
X215354231Y-175020000D01*
X215645769Y-175020000D01*
X215931699Y-175076875D01*
X215931699Y-175076875D01*
G37*
G36*
X290091224Y-175234486D02*
G01*
X290182312Y-175243457D01*
X290357617Y-175296636D01*
X290357620Y-175296637D01*
X290443298Y-175342433D01*
X290519180Y-175382992D01*
X290660791Y-175499209D01*
X290777008Y-175640820D01*
X290817567Y-175716702D01*
X290863363Y-175802380D01*
X290863364Y-175802383D01*
X290916543Y-175977688D01*
X290934499Y-176160000D01*
X290916543Y-176342312D01*
X290863364Y-176517617D01*
X290863363Y-176517620D01*
X290817567Y-176603298D01*
X290777008Y-176679180D01*
X290660791Y-176820791D01*
X290519180Y-176937008D01*
X290443298Y-176977567D01*
X290357620Y-177023363D01*
X290357617Y-177023364D01*
X290182312Y-177076543D01*
X290091224Y-177085514D01*
X290045681Y-177090000D01*
X289954319Y-177090000D01*
X289908776Y-177085514D01*
X289817688Y-177076543D01*
X289642383Y-177023364D01*
X289642380Y-177023363D01*
X289556702Y-176977567D01*
X289480820Y-176937008D01*
X289339209Y-176820791D01*
X289222992Y-176679180D01*
X289182433Y-176603298D01*
X289136637Y-176517620D01*
X289136636Y-176517617D01*
X289083457Y-176342312D01*
X289065501Y-176160000D01*
X289083457Y-175977688D01*
X289136636Y-175802383D01*
X289136637Y-175802380D01*
X289182433Y-175716702D01*
X289222992Y-175640820D01*
X289339209Y-175499209D01*
X289480820Y-175382992D01*
X289556702Y-175342433D01*
X289642380Y-175296637D01*
X289642383Y-175296636D01*
X289817688Y-175243457D01*
X289908776Y-175234486D01*
X289954319Y-175230000D01*
X290045681Y-175230000D01*
X290091224Y-175234486D01*
X290091224Y-175234486D01*
G37*
G36*
X290091224Y-172694486D02*
G01*
X290182312Y-172703457D01*
X290357617Y-172756636D01*
X290357620Y-172756637D01*
X290443298Y-172802433D01*
X290519180Y-172842992D01*
X290660791Y-172959209D01*
X290777008Y-173100820D01*
X290817567Y-173176702D01*
X290863363Y-173262380D01*
X290863364Y-173262383D01*
X290916543Y-173437688D01*
X290934499Y-173620000D01*
X290916543Y-173802312D01*
X290863364Y-173977617D01*
X290863363Y-173977620D01*
X290817567Y-174063298D01*
X290777008Y-174139180D01*
X290660791Y-174280791D01*
X290519180Y-174397008D01*
X290443298Y-174437567D01*
X290357620Y-174483363D01*
X290357617Y-174483364D01*
X290182312Y-174536543D01*
X290091224Y-174545514D01*
X290045681Y-174550000D01*
X289954319Y-174550000D01*
X289908776Y-174545514D01*
X289817688Y-174536543D01*
X289642383Y-174483364D01*
X289642380Y-174483363D01*
X289556702Y-174437567D01*
X289480820Y-174397008D01*
X289339209Y-174280791D01*
X289222992Y-174139180D01*
X289182433Y-174063298D01*
X289136637Y-173977620D01*
X289136636Y-173977617D01*
X289083457Y-173802312D01*
X289065501Y-173620000D01*
X289083457Y-173437688D01*
X289136636Y-173262383D01*
X289136637Y-173262380D01*
X289182433Y-173176702D01*
X289222992Y-173100820D01*
X289339209Y-172959209D01*
X289480820Y-172842992D01*
X289556702Y-172802433D01*
X289642380Y-172756637D01*
X289642383Y-172756636D01*
X289817688Y-172703457D01*
X289908776Y-172694486D01*
X289954319Y-172690000D01*
X290045681Y-172690000D01*
X290091224Y-172694486D01*
X290091224Y-172694486D01*
G37*
G36*
X290091224Y-170154486D02*
G01*
X290182312Y-170163457D01*
X290357617Y-170216636D01*
X290357620Y-170216637D01*
X290393864Y-170236010D01*
X290519180Y-170302992D01*
X290660791Y-170419209D01*
X290777008Y-170560820D01*
X290817567Y-170636702D01*
X290863363Y-170722380D01*
X290863364Y-170722383D01*
X290916543Y-170897688D01*
X290934499Y-171080000D01*
X290916543Y-171262312D01*
X290863364Y-171437617D01*
X290863363Y-171437620D01*
X290817567Y-171523298D01*
X290777008Y-171599180D01*
X290660791Y-171740791D01*
X290519180Y-171857008D01*
X290443298Y-171897567D01*
X290357620Y-171943363D01*
X290357617Y-171943364D01*
X290182312Y-171996543D01*
X290091224Y-172005514D01*
X290045681Y-172010000D01*
X289954319Y-172010000D01*
X289908776Y-172005514D01*
X289817688Y-171996543D01*
X289642383Y-171943364D01*
X289642380Y-171943363D01*
X289556702Y-171897567D01*
X289480820Y-171857008D01*
X289339209Y-171740791D01*
X289222992Y-171599180D01*
X289182433Y-171523298D01*
X289136637Y-171437620D01*
X289136636Y-171437617D01*
X289083457Y-171262312D01*
X289065501Y-171080000D01*
X289083457Y-170897688D01*
X289136636Y-170722383D01*
X289136637Y-170722380D01*
X289182433Y-170636702D01*
X289222992Y-170560820D01*
X289339209Y-170419209D01*
X289480820Y-170302992D01*
X289606136Y-170236010D01*
X289642380Y-170216637D01*
X289642383Y-170216636D01*
X289817688Y-170163457D01*
X289908776Y-170154486D01*
X289954319Y-170150000D01*
X290045681Y-170150000D01*
X290091224Y-170154486D01*
X290091224Y-170154486D01*
G37*
G36*
X244363153Y-170181145D02*
G01*
X244419180Y-170192289D01*
X244524733Y-170236011D01*
X244619728Y-170299485D01*
X244700515Y-170380272D01*
X244763989Y-170475267D01*
X244807711Y-170580820D01*
X244830000Y-170692875D01*
X244830000Y-170807125D01*
X244807711Y-170919180D01*
X244763989Y-171024733D01*
X244700515Y-171119728D01*
X244619728Y-171200515D01*
X244524733Y-171263989D01*
X244419180Y-171307711D01*
X244363152Y-171318856D01*
X244307126Y-171330000D01*
X244192874Y-171330000D01*
X244136848Y-171318856D01*
X244080820Y-171307711D01*
X243975267Y-171263989D01*
X243880272Y-171200515D01*
X243799485Y-171119728D01*
X243736011Y-171024733D01*
X243692289Y-170919180D01*
X243670000Y-170807125D01*
X243670000Y-170692875D01*
X243692289Y-170580820D01*
X243736011Y-170475267D01*
X243799485Y-170380272D01*
X243880272Y-170299485D01*
X243975267Y-170236011D01*
X244080820Y-170192289D01*
X244136847Y-170181145D01*
X244192874Y-170170000D01*
X244307126Y-170170000D01*
X244363153Y-170181145D01*
X244363153Y-170181145D01*
G37*
G36*
X290091224Y-167614486D02*
G01*
X290182312Y-167623457D01*
X290357617Y-167676636D01*
X290357620Y-167676637D01*
X290443298Y-167722433D01*
X290519180Y-167762992D01*
X290660791Y-167879209D01*
X290777008Y-168020820D01*
X290817567Y-168096702D01*
X290863363Y-168182380D01*
X290863364Y-168182383D01*
X290916543Y-168357688D01*
X290934499Y-168540000D01*
X290916543Y-168722312D01*
X290900641Y-168774733D01*
X290863363Y-168897620D01*
X290835090Y-168950515D01*
X290777008Y-169059180D01*
X290660791Y-169200791D01*
X290519180Y-169317008D01*
X290443298Y-169357567D01*
X290357620Y-169403363D01*
X290357617Y-169403364D01*
X290182312Y-169456543D01*
X290091224Y-169465514D01*
X290045681Y-169470000D01*
X289954319Y-169470000D01*
X289908776Y-169465514D01*
X289817688Y-169456543D01*
X289642383Y-169403364D01*
X289642380Y-169403363D01*
X289556702Y-169357567D01*
X289480820Y-169317008D01*
X289339209Y-169200791D01*
X289222992Y-169059180D01*
X289164910Y-168950515D01*
X289136637Y-168897620D01*
X289099359Y-168774733D01*
X289083457Y-168722312D01*
X289065501Y-168540000D01*
X289083457Y-168357688D01*
X289136636Y-168182383D01*
X289136637Y-168182380D01*
X289182433Y-168096702D01*
X289222992Y-168020820D01*
X289339209Y-167879209D01*
X289480820Y-167762992D01*
X289556702Y-167722433D01*
X289642380Y-167676637D01*
X289642383Y-167676636D01*
X289817688Y-167623457D01*
X289908776Y-167614486D01*
X289954319Y-167610000D01*
X290045681Y-167610000D01*
X290091224Y-167614486D01*
X290091224Y-167614486D01*
G37*
G36*
X269613153Y-167931145D02*
G01*
X269669180Y-167942289D01*
X269774733Y-167986011D01*
X269869728Y-168049485D01*
X269950515Y-168130272D01*
X269985335Y-168182383D01*
X270013990Y-168225269D01*
X270057711Y-168330821D01*
X270080000Y-168442874D01*
X270080000Y-168557126D01*
X270075450Y-168580000D01*
X270057711Y-168669180D01*
X270013989Y-168774733D01*
X269950515Y-168869728D01*
X269869728Y-168950515D01*
X269774733Y-169013989D01*
X269669180Y-169057711D01*
X269613153Y-169068855D01*
X269557126Y-169080000D01*
X269442874Y-169080000D01*
X269386847Y-169068855D01*
X269330820Y-169057711D01*
X269225267Y-169013989D01*
X269130272Y-168950515D01*
X269049485Y-168869728D01*
X268986011Y-168774733D01*
X268942289Y-168669180D01*
X268924550Y-168580000D01*
X268920000Y-168557126D01*
X268920000Y-168442874D01*
X268942289Y-168330821D01*
X268986010Y-168225269D01*
X269014666Y-168182383D01*
X269049485Y-168130272D01*
X269130272Y-168049485D01*
X269225267Y-167986011D01*
X269330820Y-167942289D01*
X269386847Y-167931145D01*
X269442874Y-167920000D01*
X269557126Y-167920000D01*
X269613153Y-167931145D01*
X269613153Y-167931145D01*
G37*
G36*
X210930000Y-168930000D02*
G01*
X209070000Y-168930000D01*
X209070000Y-167070000D01*
X210930000Y-167070000D01*
X210930000Y-168930000D01*
X210930000Y-168930000D01*
G37*
G36*
X218613153Y-167431145D02*
G01*
X218669180Y-167442289D01*
X218774733Y-167486011D01*
X218869728Y-167549485D01*
X218950515Y-167630272D01*
X218981495Y-167676636D01*
X219013990Y-167725269D01*
X219057711Y-167830821D01*
X219079884Y-167942289D01*
X219080000Y-167942875D01*
X219080000Y-168057125D01*
X219057711Y-168169180D01*
X219013989Y-168274733D01*
X218950515Y-168369728D01*
X218869728Y-168450515D01*
X218774733Y-168513989D01*
X218669180Y-168557711D01*
X218613152Y-168568856D01*
X218557126Y-168580000D01*
X218442874Y-168580000D01*
X218386848Y-168568856D01*
X218330820Y-168557711D01*
X218225267Y-168513989D01*
X218130272Y-168450515D01*
X218049485Y-168369728D01*
X217986011Y-168274733D01*
X217942289Y-168169180D01*
X217920000Y-168057125D01*
X217920000Y-167942875D01*
X217920117Y-167942289D01*
X217942289Y-167830821D01*
X217986010Y-167725269D01*
X218018506Y-167676636D01*
X218049485Y-167630272D01*
X218130272Y-167549485D01*
X218225267Y-167486011D01*
X218330820Y-167442289D01*
X218386847Y-167431145D01*
X218442874Y-167420000D01*
X218557126Y-167420000D01*
X218613153Y-167431145D01*
X218613153Y-167431145D01*
G37*
G36*
X244363152Y-166431144D02*
G01*
X244419180Y-166442289D01*
X244524733Y-166486011D01*
X244619728Y-166549485D01*
X244700515Y-166630272D01*
X244763989Y-166725267D01*
X244807711Y-166830820D01*
X244830000Y-166942875D01*
X244830000Y-167057125D01*
X244807711Y-167169180D01*
X244763989Y-167274733D01*
X244700515Y-167369728D01*
X244619728Y-167450515D01*
X244524733Y-167513989D01*
X244419180Y-167557711D01*
X244363153Y-167568855D01*
X244307126Y-167580000D01*
X244192874Y-167580000D01*
X244136847Y-167568855D01*
X244080820Y-167557711D01*
X243975267Y-167513989D01*
X243880272Y-167450515D01*
X243799485Y-167369728D01*
X243736011Y-167274733D01*
X243692289Y-167169180D01*
X243670000Y-167057125D01*
X243670000Y-166942875D01*
X243692289Y-166830820D01*
X243736011Y-166725267D01*
X243799485Y-166630272D01*
X243880272Y-166549485D01*
X243975267Y-166486011D01*
X244080820Y-166442289D01*
X244136848Y-166431144D01*
X244192874Y-166420000D01*
X244307126Y-166420000D01*
X244363152Y-166431144D01*
X244363152Y-166431144D01*
G37*
G36*
X290930000Y-166930000D02*
G01*
X289070000Y-166930000D01*
X289070000Y-165070000D01*
X290930000Y-165070000D01*
X290930000Y-166930000D01*
X290930000Y-166930000D01*
G37*
G36*
X269613153Y-165431145D02*
G01*
X269669180Y-165442289D01*
X269774733Y-165486011D01*
X269869728Y-165549485D01*
X269950515Y-165630272D01*
X270013990Y-165725269D01*
X270057711Y-165830821D01*
X270080000Y-165942874D01*
X270080000Y-166057126D01*
X270075450Y-166080000D01*
X270057711Y-166169180D01*
X270013989Y-166274733D01*
X269950515Y-166369728D01*
X269869728Y-166450515D01*
X269774733Y-166513989D01*
X269669180Y-166557711D01*
X269613152Y-166568856D01*
X269557126Y-166580000D01*
X269442874Y-166580000D01*
X269386848Y-166568856D01*
X269330820Y-166557711D01*
X269225267Y-166513989D01*
X269130272Y-166450515D01*
X269049485Y-166369728D01*
X268986011Y-166274733D01*
X268942289Y-166169180D01*
X268924550Y-166080000D01*
X268920000Y-166057126D01*
X268920000Y-165942874D01*
X268942289Y-165830821D01*
X268986010Y-165725269D01*
X269049485Y-165630272D01*
X269130272Y-165549485D01*
X269225267Y-165486011D01*
X269330820Y-165442289D01*
X269386848Y-165431144D01*
X269442874Y-165420000D01*
X269557126Y-165420000D01*
X269613153Y-165431145D01*
X269613153Y-165431145D01*
G37*
G36*
X210091224Y-164534486D02*
G01*
X210182312Y-164543457D01*
X210357617Y-164596636D01*
X210357620Y-164596637D01*
X210443298Y-164642433D01*
X210519180Y-164682992D01*
X210660791Y-164799209D01*
X210777008Y-164940820D01*
X210777793Y-164942289D01*
X210863363Y-165102380D01*
X210863364Y-165102383D01*
X210916543Y-165277688D01*
X210934499Y-165460000D01*
X210916543Y-165642312D01*
X210876373Y-165774733D01*
X210863363Y-165817620D01*
X210817567Y-165903298D01*
X210777008Y-165979180D01*
X210660791Y-166120791D01*
X210519180Y-166237008D01*
X210448604Y-166274731D01*
X210357620Y-166323363D01*
X210357617Y-166323364D01*
X210182312Y-166376543D01*
X210091224Y-166385514D01*
X210045681Y-166390000D01*
X209954319Y-166390000D01*
X209908776Y-166385514D01*
X209817688Y-166376543D01*
X209642383Y-166323364D01*
X209642380Y-166323363D01*
X209551396Y-166274731D01*
X209480820Y-166237008D01*
X209339209Y-166120791D01*
X209222992Y-165979180D01*
X209182433Y-165903298D01*
X209136637Y-165817620D01*
X209123627Y-165774733D01*
X209083457Y-165642312D01*
X209065501Y-165460000D01*
X209083457Y-165277688D01*
X209136636Y-165102383D01*
X209136637Y-165102380D01*
X209222207Y-164942289D01*
X209222992Y-164940820D01*
X209339209Y-164799209D01*
X209480820Y-164682992D01*
X209556702Y-164642433D01*
X209642380Y-164596637D01*
X209642383Y-164596636D01*
X209817688Y-164543457D01*
X209908776Y-164534486D01*
X209954319Y-164530000D01*
X210045681Y-164530000D01*
X210091224Y-164534486D01*
X210091224Y-164534486D01*
G37*
G36*
X218613152Y-164931144D02*
G01*
X218669180Y-164942289D01*
X218774733Y-164986011D01*
X218869728Y-165049485D01*
X218950515Y-165130272D01*
X219013989Y-165225267D01*
X219035704Y-165277690D01*
X219057711Y-165330821D01*
X219079884Y-165442289D01*
X219080000Y-165442875D01*
X219080000Y-165557125D01*
X219057711Y-165669180D01*
X219013989Y-165774733D01*
X218950515Y-165869728D01*
X218869728Y-165950515D01*
X218774733Y-166013989D01*
X218669180Y-166057711D01*
X218613153Y-166068855D01*
X218557126Y-166080000D01*
X218442874Y-166080000D01*
X218386847Y-166068855D01*
X218330820Y-166057711D01*
X218225267Y-166013989D01*
X218130272Y-165950515D01*
X218049485Y-165869728D01*
X217986011Y-165774733D01*
X217942289Y-165669180D01*
X217920000Y-165557125D01*
X217920000Y-165442875D01*
X217920117Y-165442289D01*
X217942289Y-165330821D01*
X217964297Y-165277690D01*
X217986011Y-165225267D01*
X218049485Y-165130272D01*
X218130272Y-165049485D01*
X218225267Y-164986011D01*
X218330820Y-164942289D01*
X218386848Y-164931144D01*
X218442874Y-164920000D01*
X218557126Y-164920000D01*
X218613152Y-164931144D01*
X218613152Y-164931144D01*
G37*
G36*
X244363152Y-162931144D02*
G01*
X244419180Y-162942289D01*
X244524733Y-162986011D01*
X244619728Y-163049485D01*
X244700515Y-163130272D01*
X244763989Y-163225267D01*
X244785675Y-163277620D01*
X244807711Y-163330821D01*
X244830000Y-163442874D01*
X244830000Y-163557126D01*
X244825450Y-163580000D01*
X244807711Y-163669180D01*
X244763989Y-163774733D01*
X244700515Y-163869728D01*
X244619728Y-163950515D01*
X244524733Y-164013989D01*
X244419180Y-164057711D01*
X244363153Y-164068855D01*
X244307126Y-164080000D01*
X244192874Y-164080000D01*
X244136847Y-164068855D01*
X244080820Y-164057711D01*
X243975267Y-164013989D01*
X243880272Y-163950515D01*
X243799485Y-163869728D01*
X243736011Y-163774733D01*
X243692289Y-163669180D01*
X243674550Y-163580000D01*
X243670000Y-163557126D01*
X243670000Y-163442874D01*
X243692289Y-163330821D01*
X243714326Y-163277620D01*
X243736011Y-163225267D01*
X243799485Y-163130272D01*
X243880272Y-163049485D01*
X243975267Y-162986011D01*
X244080820Y-162942289D01*
X244136848Y-162931144D01*
X244192874Y-162920000D01*
X244307126Y-162920000D01*
X244363152Y-162931144D01*
X244363152Y-162931144D01*
G37*
G36*
X210091224Y-161994486D02*
G01*
X210182312Y-162003457D01*
X210357617Y-162056636D01*
X210357620Y-162056637D01*
X210443298Y-162102433D01*
X210519180Y-162142992D01*
X210660791Y-162259209D01*
X210777008Y-162400820D01*
X210799173Y-162442289D01*
X210863363Y-162562380D01*
X210863364Y-162562383D01*
X210916543Y-162737688D01*
X210934499Y-162920000D01*
X210916543Y-163102312D01*
X210879244Y-163225267D01*
X210863363Y-163277620D01*
X210817567Y-163363298D01*
X210777008Y-163439180D01*
X210660791Y-163580791D01*
X210519180Y-163697008D01*
X210443298Y-163737567D01*
X210357620Y-163783363D01*
X210357617Y-163783364D01*
X210182312Y-163836543D01*
X210091224Y-163845514D01*
X210045681Y-163850000D01*
X209954319Y-163850000D01*
X209908776Y-163845514D01*
X209817688Y-163836543D01*
X209642383Y-163783364D01*
X209642380Y-163783363D01*
X209556702Y-163737567D01*
X209480820Y-163697008D01*
X209339209Y-163580791D01*
X209222992Y-163439180D01*
X209182433Y-163363298D01*
X209136637Y-163277620D01*
X209120756Y-163225267D01*
X209083457Y-163102312D01*
X209065501Y-162920000D01*
X209083457Y-162737688D01*
X209136636Y-162562383D01*
X209136637Y-162562380D01*
X209200827Y-162442289D01*
X209222992Y-162400820D01*
X209339209Y-162259209D01*
X209480820Y-162142992D01*
X209556702Y-162102433D01*
X209642380Y-162056637D01*
X209642383Y-162056636D01*
X209817688Y-162003457D01*
X209908776Y-161994486D01*
X209954319Y-161990000D01*
X210045681Y-161990000D01*
X210091224Y-161994486D01*
X210091224Y-161994486D01*
G37*
G36*
X218613152Y-162431144D02*
G01*
X218669180Y-162442289D01*
X218774733Y-162486011D01*
X218869728Y-162549485D01*
X218950515Y-162630272D01*
X219013990Y-162725269D01*
X219057711Y-162830821D01*
X219079884Y-162942289D01*
X219080000Y-162942875D01*
X219080000Y-163057125D01*
X219057711Y-163169180D01*
X219013989Y-163274733D01*
X218950515Y-163369728D01*
X218869728Y-163450515D01*
X218774733Y-163513989D01*
X218669180Y-163557711D01*
X218613153Y-163568855D01*
X218557126Y-163580000D01*
X218442874Y-163580000D01*
X218386847Y-163568855D01*
X218330820Y-163557711D01*
X218225267Y-163513989D01*
X218130272Y-163450515D01*
X218049485Y-163369728D01*
X217986011Y-163274733D01*
X217942289Y-163169180D01*
X217920000Y-163057125D01*
X217920000Y-162942875D01*
X217920117Y-162942289D01*
X217942289Y-162830821D01*
X217986010Y-162725269D01*
X218049485Y-162630272D01*
X218130272Y-162549485D01*
X218225267Y-162486011D01*
X218330820Y-162442289D01*
X218386848Y-162431144D01*
X218442874Y-162420000D01*
X218557126Y-162420000D01*
X218613152Y-162431144D01*
X218613152Y-162431144D01*
G37*
G36*
X210091224Y-159454486D02*
G01*
X210182312Y-159463457D01*
X210357617Y-159516636D01*
X210357620Y-159516637D01*
X210419074Y-159549485D01*
X210519180Y-159602992D01*
X210660791Y-159719209D01*
X210777008Y-159860820D01*
X210787405Y-159880272D01*
X210863363Y-160022380D01*
X210863364Y-160022383D01*
X210916543Y-160197688D01*
X210934499Y-160380000D01*
X210916543Y-160562312D01*
X210884124Y-160669180D01*
X210863363Y-160737620D01*
X210825899Y-160807711D01*
X210777008Y-160899180D01*
X210660791Y-161040791D01*
X210519180Y-161157008D01*
X210443298Y-161197567D01*
X210357620Y-161243363D01*
X210357617Y-161243364D01*
X210182312Y-161296543D01*
X210091224Y-161305514D01*
X210045681Y-161310000D01*
X209954319Y-161310000D01*
X209908776Y-161305514D01*
X209817688Y-161296543D01*
X209642383Y-161243364D01*
X209642380Y-161243363D01*
X209556702Y-161197567D01*
X209480820Y-161157008D01*
X209339209Y-161040791D01*
X209222992Y-160899180D01*
X209174101Y-160807711D01*
X209136637Y-160737620D01*
X209115876Y-160669180D01*
X209083457Y-160562312D01*
X209065501Y-160380000D01*
X209083457Y-160197688D01*
X209136636Y-160022383D01*
X209136637Y-160022380D01*
X209212595Y-159880272D01*
X209222992Y-159860820D01*
X209339209Y-159719209D01*
X209480820Y-159602992D01*
X209580926Y-159549485D01*
X209642380Y-159516637D01*
X209642383Y-159516636D01*
X209817688Y-159463457D01*
X209908776Y-159454486D01*
X209954319Y-159450000D01*
X210045681Y-159450000D01*
X210091224Y-159454486D01*
X210091224Y-159454486D01*
G37*
G36*
X218613153Y-159931145D02*
G01*
X218669180Y-159942289D01*
X218774733Y-159986011D01*
X218869728Y-160049485D01*
X218950515Y-160130272D01*
X219013989Y-160225267D01*
X219047897Y-160307126D01*
X219057711Y-160330821D01*
X219080000Y-160442874D01*
X219080000Y-160557126D01*
X219078969Y-160562310D01*
X219057711Y-160669180D01*
X219013989Y-160774733D01*
X218950515Y-160869728D01*
X218869728Y-160950515D01*
X218774733Y-161013989D01*
X218669180Y-161057711D01*
X218613152Y-161068856D01*
X218557126Y-161080000D01*
X218442874Y-161080000D01*
X218386848Y-161068856D01*
X218330820Y-161057711D01*
X218225267Y-161013989D01*
X218130272Y-160950515D01*
X218049485Y-160869728D01*
X217986011Y-160774733D01*
X217942289Y-160669180D01*
X217921031Y-160562310D01*
X217920000Y-160557126D01*
X217920000Y-160442874D01*
X217942289Y-160330821D01*
X217952104Y-160307126D01*
X217986011Y-160225267D01*
X218049485Y-160130272D01*
X218130272Y-160049485D01*
X218225267Y-159986011D01*
X218330820Y-159942289D01*
X218386847Y-159931145D01*
X218442874Y-159920000D01*
X218557126Y-159920000D01*
X218613153Y-159931145D01*
X218613153Y-159931145D01*
G37*
G36*
X250863152Y-159681144D02*
G01*
X250919180Y-159692289D01*
X251024733Y-159736011D01*
X251119728Y-159799485D01*
X251200515Y-159880272D01*
X251263989Y-159975267D01*
X251307711Y-160080820D01*
X251330000Y-160192875D01*
X251330000Y-160307125D01*
X251307711Y-160419180D01*
X251263989Y-160524733D01*
X251200515Y-160619728D01*
X251119728Y-160700515D01*
X251024733Y-160763989D01*
X250919180Y-160807711D01*
X250863153Y-160818855D01*
X250807126Y-160830000D01*
X250692874Y-160830000D01*
X250636847Y-160818855D01*
X250580820Y-160807711D01*
X250475267Y-160763989D01*
X250380272Y-160700515D01*
X250299485Y-160619728D01*
X250236011Y-160524733D01*
X250192289Y-160419180D01*
X250170000Y-160307125D01*
X250170000Y-160192875D01*
X250192289Y-160080820D01*
X250236011Y-159975267D01*
X250299485Y-159880272D01*
X250380272Y-159799485D01*
X250475267Y-159736011D01*
X250580820Y-159692289D01*
X250636848Y-159681144D01*
X250692874Y-159670000D01*
X250807126Y-159670000D01*
X250863152Y-159681144D01*
X250863152Y-159681144D01*
G37*
G36*
X244363153Y-159431145D02*
G01*
X244419180Y-159442289D01*
X244524733Y-159486011D01*
X244619728Y-159549485D01*
X244700515Y-159630272D01*
X244763989Y-159725267D01*
X244807711Y-159830820D01*
X244817548Y-159880272D01*
X244829884Y-159942289D01*
X244830000Y-159942875D01*
X244830000Y-160057125D01*
X244807711Y-160169180D01*
X244763989Y-160274733D01*
X244700515Y-160369728D01*
X244619728Y-160450515D01*
X244524733Y-160513989D01*
X244419180Y-160557711D01*
X244363152Y-160568856D01*
X244307126Y-160580000D01*
X244192874Y-160580000D01*
X244136848Y-160568856D01*
X244080820Y-160557711D01*
X243975267Y-160513989D01*
X243880272Y-160450515D01*
X243799485Y-160369728D01*
X243736011Y-160274733D01*
X243692289Y-160169180D01*
X243670000Y-160057125D01*
X243670000Y-159942875D01*
X243670117Y-159942289D01*
X243682452Y-159880272D01*
X243692289Y-159830820D01*
X243736011Y-159725267D01*
X243799485Y-159630272D01*
X243880272Y-159549485D01*
X243975267Y-159486011D01*
X244080820Y-159442289D01*
X244136847Y-159431145D01*
X244192874Y-159420000D01*
X244307126Y-159420000D01*
X244363153Y-159431145D01*
X244363153Y-159431145D01*
G37*
G36*
X210091224Y-156914486D02*
G01*
X210182312Y-156923457D01*
X210357617Y-156976636D01*
X210357620Y-156976637D01*
X210443298Y-157022433D01*
X210519180Y-157062992D01*
X210660791Y-157179209D01*
X210777008Y-157320820D01*
X210817567Y-157396702D01*
X210863363Y-157482380D01*
X210863364Y-157482383D01*
X210916543Y-157657688D01*
X210934499Y-157840000D01*
X210916543Y-158022312D01*
X210899043Y-158080000D01*
X210863363Y-158197620D01*
X210817567Y-158283298D01*
X210777008Y-158359180D01*
X210660791Y-158500791D01*
X210519180Y-158617008D01*
X210443298Y-158657567D01*
X210357620Y-158703363D01*
X210357617Y-158703364D01*
X210182312Y-158756543D01*
X210091224Y-158765514D01*
X210045681Y-158770000D01*
X209954319Y-158770000D01*
X209908776Y-158765514D01*
X209817688Y-158756543D01*
X209642383Y-158703364D01*
X209642380Y-158703363D01*
X209556702Y-158657567D01*
X209480820Y-158617008D01*
X209339209Y-158500791D01*
X209222992Y-158359180D01*
X209182433Y-158283298D01*
X209136637Y-158197620D01*
X209100957Y-158080000D01*
X209083457Y-158022312D01*
X209065501Y-157840000D01*
X209083457Y-157657688D01*
X209136636Y-157482383D01*
X209136637Y-157482380D01*
X209182433Y-157396702D01*
X209222992Y-157320820D01*
X209339209Y-157179209D01*
X209480820Y-157062992D01*
X209556702Y-157022433D01*
X209642380Y-156976637D01*
X209642383Y-156976636D01*
X209817688Y-156923457D01*
X209908776Y-156914486D01*
X209954319Y-156910000D01*
X210045681Y-156910000D01*
X210091224Y-156914486D01*
X210091224Y-156914486D01*
G37*
G36*
X253324505Y-156923457D02*
G01*
X253419180Y-156942289D01*
X253493817Y-156973205D01*
X253502103Y-156976637D01*
X253524733Y-156986011D01*
X253619728Y-157049485D01*
X253700515Y-157130272D01*
X253763989Y-157225267D01*
X253807711Y-157330820D01*
X253830000Y-157442875D01*
X253830000Y-157557125D01*
X253807711Y-157669180D01*
X253763989Y-157774733D01*
X253700515Y-157869728D01*
X253619728Y-157950515D01*
X253524733Y-158013989D01*
X253419180Y-158057711D01*
X253363153Y-158068855D01*
X253307126Y-158080000D01*
X253192874Y-158080000D01*
X253136847Y-158068855D01*
X253080820Y-158057711D01*
X252975267Y-158013989D01*
X252880272Y-157950515D01*
X252799485Y-157869728D01*
X252736011Y-157774733D01*
X252692289Y-157669180D01*
X252670000Y-157557125D01*
X252670000Y-157442875D01*
X252692289Y-157330820D01*
X252736011Y-157225267D01*
X252799485Y-157130272D01*
X252880272Y-157049485D01*
X252975267Y-156986011D01*
X252997898Y-156976637D01*
X253006183Y-156973205D01*
X253080820Y-156942289D01*
X253175495Y-156923457D01*
X253192874Y-156920000D01*
X253307126Y-156920000D01*
X253324505Y-156923457D01*
X253324505Y-156923457D01*
G37*
G36*
X220113153Y-152431145D02*
G01*
X220169180Y-152442289D01*
X220274733Y-152486011D01*
X220369728Y-152549485D01*
X220450515Y-152630272D01*
X220513989Y-152725267D01*
X220557711Y-152830820D01*
X220580000Y-152942875D01*
X220580000Y-153057125D01*
X220557711Y-153169180D01*
X220513989Y-153274733D01*
X220450515Y-153369728D01*
X220369728Y-153450515D01*
X220274733Y-153513989D01*
X220169180Y-153557711D01*
X220113153Y-153568855D01*
X220057126Y-153580000D01*
X219942874Y-153580000D01*
X219886847Y-153568855D01*
X219830820Y-153557711D01*
X219725267Y-153513989D01*
X219630272Y-153450515D01*
X219549485Y-153369728D01*
X219486011Y-153274733D01*
X219442289Y-153169180D01*
X219420000Y-153057125D01*
X219420000Y-152942875D01*
X219442289Y-152830820D01*
X219486011Y-152725267D01*
X219549485Y-152630272D01*
X219630272Y-152549485D01*
X219725267Y-152486011D01*
X219830820Y-152442289D01*
X219886847Y-152431145D01*
X219942874Y-152420000D01*
X220057126Y-152420000D01*
X220113153Y-152431145D01*
X220113153Y-152431145D01*
G37*
G36*
X211113153Y-152431145D02*
G01*
X211169180Y-152442289D01*
X211274733Y-152486011D01*
X211369728Y-152549485D01*
X211450515Y-152630272D01*
X211513989Y-152725267D01*
X211557711Y-152830820D01*
X211580000Y-152942875D01*
X211580000Y-153057125D01*
X211557711Y-153169180D01*
X211513989Y-153274733D01*
X211450515Y-153369728D01*
X211369728Y-153450515D01*
X211274733Y-153513989D01*
X211169180Y-153557711D01*
X211113153Y-153568855D01*
X211057126Y-153580000D01*
X210942874Y-153580000D01*
X210886847Y-153568855D01*
X210830820Y-153557711D01*
X210725267Y-153513989D01*
X210630272Y-153450515D01*
X210549485Y-153369728D01*
X210486011Y-153274733D01*
X210442289Y-153169180D01*
X210420000Y-153057125D01*
X210420000Y-152942875D01*
X210442289Y-152830820D01*
X210486011Y-152725267D01*
X210549485Y-152630272D01*
X210630272Y-152549485D01*
X210725267Y-152486011D01*
X210830820Y-152442289D01*
X210886847Y-152431145D01*
X210942874Y-152420000D01*
X211057126Y-152420000D01*
X211113153Y-152431145D01*
X211113153Y-152431145D01*
G37*
G36*
X214113153Y-152431145D02*
G01*
X214169180Y-152442289D01*
X214274733Y-152486011D01*
X214369728Y-152549485D01*
X214450515Y-152630272D01*
X214513989Y-152725267D01*
X214557711Y-152830820D01*
X214580000Y-152942875D01*
X214580000Y-153057125D01*
X214557711Y-153169180D01*
X214513989Y-153274733D01*
X214450515Y-153369728D01*
X214369728Y-153450515D01*
X214274733Y-153513989D01*
X214169180Y-153557711D01*
X214113153Y-153568855D01*
X214057126Y-153580000D01*
X213942874Y-153580000D01*
X213886847Y-153568855D01*
X213830820Y-153557711D01*
X213725267Y-153513989D01*
X213630272Y-153450515D01*
X213549485Y-153369728D01*
X213486011Y-153274733D01*
X213442289Y-153169180D01*
X213420000Y-153057125D01*
X213420000Y-152942875D01*
X213442289Y-152830820D01*
X213486011Y-152725267D01*
X213549485Y-152630272D01*
X213630272Y-152549485D01*
X213725267Y-152486011D01*
X213830820Y-152442289D01*
X213886847Y-152431145D01*
X213942874Y-152420000D01*
X214057126Y-152420000D01*
X214113153Y-152431145D01*
X214113153Y-152431145D01*
G37*
G36*
X217113153Y-152431145D02*
G01*
X217169180Y-152442289D01*
X217274733Y-152486011D01*
X217369728Y-152549485D01*
X217450515Y-152630272D01*
X217513989Y-152725267D01*
X217557711Y-152830820D01*
X217580000Y-152942875D01*
X217580000Y-153057125D01*
X217557711Y-153169180D01*
X217513989Y-153274733D01*
X217450515Y-153369728D01*
X217369728Y-153450515D01*
X217274733Y-153513989D01*
X217169180Y-153557711D01*
X217113153Y-153568855D01*
X217057126Y-153580000D01*
X216942874Y-153580000D01*
X216886847Y-153568855D01*
X216830820Y-153557711D01*
X216725267Y-153513989D01*
X216630272Y-153450515D01*
X216549485Y-153369728D01*
X216486011Y-153274733D01*
X216442289Y-153169180D01*
X216420000Y-153057125D01*
X216420000Y-152942875D01*
X216442289Y-152830820D01*
X216486011Y-152725267D01*
X216549485Y-152630272D01*
X216630272Y-152549485D01*
X216725267Y-152486011D01*
X216830820Y-152442289D01*
X216886847Y-152431145D01*
X216942874Y-152420000D01*
X217057126Y-152420000D01*
X217113153Y-152431145D01*
X217113153Y-152431145D01*
G37*
G36*
X279631224Y-149074486D02*
G01*
X279722312Y-149083457D01*
X279897617Y-149136636D01*
X279897620Y-149136637D01*
X279983298Y-149182433D01*
X280059180Y-149222992D01*
X280200791Y-149339209D01*
X280317008Y-149480820D01*
X280357567Y-149556702D01*
X280403363Y-149642380D01*
X280403364Y-149642383D01*
X280456543Y-149817688D01*
X280474499Y-150000000D01*
X280456543Y-150182312D01*
X280403364Y-150357617D01*
X280403363Y-150357620D01*
X280357567Y-150443298D01*
X280317008Y-150519180D01*
X280200791Y-150660791D01*
X280059180Y-150777008D01*
X279983298Y-150817567D01*
X279897620Y-150863363D01*
X279897617Y-150863364D01*
X279722312Y-150916543D01*
X279631224Y-150925514D01*
X279585681Y-150930000D01*
X279494319Y-150930000D01*
X279448776Y-150925514D01*
X279357688Y-150916543D01*
X279182383Y-150863364D01*
X279182380Y-150863363D01*
X279096702Y-150817567D01*
X279020820Y-150777008D01*
X278879209Y-150660791D01*
X278762992Y-150519180D01*
X278722433Y-150443298D01*
X278676637Y-150357620D01*
X278676636Y-150357617D01*
X278623457Y-150182312D01*
X278605501Y-150000000D01*
X278623457Y-149817688D01*
X278676636Y-149642383D01*
X278676637Y-149642380D01*
X278722433Y-149556702D01*
X278762992Y-149480820D01*
X278879209Y-149339209D01*
X279020820Y-149222992D01*
X279096702Y-149182433D01*
X279182380Y-149136637D01*
X279182383Y-149136636D01*
X279357688Y-149083457D01*
X279448776Y-149074486D01*
X279494319Y-149070000D01*
X279585681Y-149070000D01*
X279631224Y-149074486D01*
X279631224Y-149074486D01*
G37*
G36*
X290091224Y-149074486D02*
G01*
X290182312Y-149083457D01*
X290357617Y-149136636D01*
X290357620Y-149136637D01*
X290443298Y-149182433D01*
X290519180Y-149222992D01*
X290660791Y-149339209D01*
X290777008Y-149480820D01*
X290817567Y-149556702D01*
X290863363Y-149642380D01*
X290863364Y-149642383D01*
X290916543Y-149817688D01*
X290934499Y-150000000D01*
X290916543Y-150182312D01*
X290863364Y-150357617D01*
X290863363Y-150357620D01*
X290817567Y-150443298D01*
X290777008Y-150519180D01*
X290660791Y-150660791D01*
X290519180Y-150777008D01*
X290443298Y-150817567D01*
X290357620Y-150863363D01*
X290357617Y-150863364D01*
X290182312Y-150916543D01*
X290091224Y-150925514D01*
X290045681Y-150930000D01*
X289954319Y-150930000D01*
X289908776Y-150925514D01*
X289817688Y-150916543D01*
X289642383Y-150863364D01*
X289642380Y-150863363D01*
X289556702Y-150817567D01*
X289480820Y-150777008D01*
X289339209Y-150660791D01*
X289222992Y-150519180D01*
X289182433Y-150443298D01*
X289136637Y-150357620D01*
X289136636Y-150357617D01*
X289083457Y-150182312D01*
X289065501Y-150000000D01*
X289083457Y-149817688D01*
X289136636Y-149642383D01*
X289136637Y-149642380D01*
X289182433Y-149556702D01*
X289222992Y-149480820D01*
X289339209Y-149339209D01*
X289480820Y-149222992D01*
X289556702Y-149182433D01*
X289642380Y-149136637D01*
X289642383Y-149136636D01*
X289817688Y-149083457D01*
X289908776Y-149074486D01*
X289954319Y-149070000D01*
X290045681Y-149070000D01*
X290091224Y-149074486D01*
X290091224Y-149074486D01*
G37*
G36*
X288390000Y-150930000D02*
G01*
X286530000Y-150930000D01*
X286530000Y-149070000D01*
X288390000Y-149070000D01*
X288390000Y-150930000D01*
X288390000Y-150930000D01*
G37*
G36*
X277091224Y-149074486D02*
G01*
X277182312Y-149083457D01*
X277357617Y-149136636D01*
X277357620Y-149136637D01*
X277443298Y-149182433D01*
X277519180Y-149222992D01*
X277660791Y-149339209D01*
X277777008Y-149480820D01*
X277817567Y-149556702D01*
X277863363Y-149642380D01*
X277863364Y-149642383D01*
X277916543Y-149817688D01*
X277934499Y-150000000D01*
X277916543Y-150182312D01*
X277863364Y-150357617D01*
X277863363Y-150357620D01*
X277817567Y-150443298D01*
X277777008Y-150519180D01*
X277660791Y-150660791D01*
X277519180Y-150777008D01*
X277443298Y-150817567D01*
X277357620Y-150863363D01*
X277357617Y-150863364D01*
X277182312Y-150916543D01*
X277091224Y-150925514D01*
X277045681Y-150930000D01*
X276954319Y-150930000D01*
X276908776Y-150925514D01*
X276817688Y-150916543D01*
X276642383Y-150863364D01*
X276642380Y-150863363D01*
X276556702Y-150817567D01*
X276480820Y-150777008D01*
X276339209Y-150660791D01*
X276222992Y-150519180D01*
X276182433Y-150443298D01*
X276136637Y-150357620D01*
X276136636Y-150357617D01*
X276083457Y-150182312D01*
X276065501Y-150000000D01*
X276083457Y-149817688D01*
X276136636Y-149642383D01*
X276136637Y-149642380D01*
X276182433Y-149556702D01*
X276222992Y-149480820D01*
X276339209Y-149339209D01*
X276480820Y-149222992D01*
X276556702Y-149182433D01*
X276642380Y-149136637D01*
X276642383Y-149136636D01*
X276817688Y-149083457D01*
X276908776Y-149074486D01*
X276954319Y-149070000D01*
X277045681Y-149070000D01*
X277091224Y-149074486D01*
X277091224Y-149074486D01*
G37*
G36*
X275390000Y-150930000D02*
G01*
X273530000Y-150930000D01*
X273530000Y-149070000D01*
X275390000Y-149070000D01*
X275390000Y-150930000D01*
X275390000Y-150930000D01*
G37*
G36*
X220113153Y-146431145D02*
G01*
X220169180Y-146442289D01*
X220274733Y-146486011D01*
X220369728Y-146549485D01*
X220450515Y-146630272D01*
X220513989Y-146725267D01*
X220557711Y-146830820D01*
X220580000Y-146942875D01*
X220580000Y-147057125D01*
X220557711Y-147169180D01*
X220513989Y-147274733D01*
X220450515Y-147369728D01*
X220369728Y-147450515D01*
X220274733Y-147513989D01*
X220169180Y-147557711D01*
X220113152Y-147568856D01*
X220057126Y-147580000D01*
X219942874Y-147580000D01*
X219886848Y-147568856D01*
X219830820Y-147557711D01*
X219725267Y-147513989D01*
X219630272Y-147450515D01*
X219549485Y-147369728D01*
X219486011Y-147274733D01*
X219442289Y-147169180D01*
X219420000Y-147057125D01*
X219420000Y-146942875D01*
X219442289Y-146830820D01*
X219486011Y-146725267D01*
X219549485Y-146630272D01*
X219630272Y-146549485D01*
X219725267Y-146486011D01*
X219830820Y-146442289D01*
X219886847Y-146431145D01*
X219942874Y-146420000D01*
X220057126Y-146420000D01*
X220113153Y-146431145D01*
X220113153Y-146431145D01*
G37*
G36*
X217113153Y-146431145D02*
G01*
X217169180Y-146442289D01*
X217274733Y-146486011D01*
X217369728Y-146549485D01*
X217450515Y-146630272D01*
X217513989Y-146725267D01*
X217557711Y-146830820D01*
X217580000Y-146942875D01*
X217580000Y-147057125D01*
X217557711Y-147169180D01*
X217513989Y-147274733D01*
X217450515Y-147369728D01*
X217369728Y-147450515D01*
X217274733Y-147513989D01*
X217169180Y-147557711D01*
X217113152Y-147568856D01*
X217057126Y-147580000D01*
X216942874Y-147580000D01*
X216886848Y-147568856D01*
X216830820Y-147557711D01*
X216725267Y-147513989D01*
X216630272Y-147450515D01*
X216549485Y-147369728D01*
X216486011Y-147274733D01*
X216442289Y-147169180D01*
X216420000Y-147057125D01*
X216420000Y-146942875D01*
X216442289Y-146830820D01*
X216486011Y-146725267D01*
X216549485Y-146630272D01*
X216630272Y-146549485D01*
X216725267Y-146486011D01*
X216830820Y-146442289D01*
X216886847Y-146431145D01*
X216942874Y-146420000D01*
X217057126Y-146420000D01*
X217113153Y-146431145D01*
X217113153Y-146431145D01*
G37*
G36*
X214113153Y-146431145D02*
G01*
X214169180Y-146442289D01*
X214274733Y-146486011D01*
X214369728Y-146549485D01*
X214450515Y-146630272D01*
X214513989Y-146725267D01*
X214557711Y-146830820D01*
X214580000Y-146942875D01*
X214580000Y-147057125D01*
X214557711Y-147169180D01*
X214513989Y-147274733D01*
X214450515Y-147369728D01*
X214369728Y-147450515D01*
X214274733Y-147513989D01*
X214169180Y-147557711D01*
X214113152Y-147568856D01*
X214057126Y-147580000D01*
X213942874Y-147580000D01*
X213886848Y-147568856D01*
X213830820Y-147557711D01*
X213725267Y-147513989D01*
X213630272Y-147450515D01*
X213549485Y-147369728D01*
X213486011Y-147274733D01*
X213442289Y-147169180D01*
X213420000Y-147057125D01*
X213420000Y-146942875D01*
X213442289Y-146830820D01*
X213486011Y-146725267D01*
X213549485Y-146630272D01*
X213630272Y-146549485D01*
X213725267Y-146486011D01*
X213830820Y-146442289D01*
X213886847Y-146431145D01*
X213942874Y-146420000D01*
X214057126Y-146420000D01*
X214113153Y-146431145D01*
X214113153Y-146431145D01*
G37*
G36*
X211113153Y-146431145D02*
G01*
X211169180Y-146442289D01*
X211274733Y-146486011D01*
X211369728Y-146549485D01*
X211450515Y-146630272D01*
X211513989Y-146725267D01*
X211557711Y-146830820D01*
X211580000Y-146942875D01*
X211580000Y-147057125D01*
X211557711Y-147169180D01*
X211513989Y-147274733D01*
X211450515Y-147369728D01*
X211369728Y-147450515D01*
X211274733Y-147513989D01*
X211169180Y-147557711D01*
X211113152Y-147568856D01*
X211057126Y-147580000D01*
X210942874Y-147580000D01*
X210886848Y-147568856D01*
X210830820Y-147557711D01*
X210725267Y-147513989D01*
X210630272Y-147450515D01*
X210549485Y-147369728D01*
X210486011Y-147274733D01*
X210442289Y-147169180D01*
X210420000Y-147057125D01*
X210420000Y-146942875D01*
X210442289Y-146830820D01*
X210486011Y-146725267D01*
X210549485Y-146630272D01*
X210630272Y-146549485D01*
X210725267Y-146486011D01*
X210830820Y-146442289D01*
X210886847Y-146431145D01*
X210942874Y-146420000D01*
X211057126Y-146420000D01*
X211113153Y-146431145D01*
X211113153Y-146431145D01*
G37*
M02*
