G04 #@! TF.GenerationSoftware,KiCad,Pcbnew,5.1.4*
G04 #@! TF.CreationDate,2019-11-06T21:16:27-05:00*
G04 #@! TF.ProjectId,device-config-demo,64657669-6365-42d6-936f-6e6669672d64,rev?*
G04 #@! TF.SameCoordinates,Original*
G04 #@! TF.FileFunction,Paste,Top*
G04 #@! TF.FilePolarity,Positive*
%FSLAX46Y46*%
G04 Gerber Fmt 4.6, Leading zero omitted, Abs format (unit mm)*
G04 Created by KiCad (PCBNEW 5.1.4) date 2019-11-06 21:16:27*
%MOMM*%
%LPD*%
G04 APERTURE LIST*
%ADD10C,0.100000*%
%ADD11C,0.875000*%
%ADD12R,0.450000X1.450000*%
%ADD13R,0.650000X1.220000*%
%ADD14R,1.450000X0.450000*%
%ADD15R,0.300000X1.400000*%
G04 APERTURE END LIST*
D10*
G36*
X232777691Y-170563553D02*
G01*
X232798926Y-170566703D01*
X232819750Y-170571919D01*
X232839962Y-170579151D01*
X232859368Y-170588330D01*
X232877781Y-170599366D01*
X232895024Y-170612154D01*
X232910930Y-170626570D01*
X232925346Y-170642476D01*
X232938134Y-170659719D01*
X232949170Y-170678132D01*
X232958349Y-170697538D01*
X232965581Y-170717750D01*
X232970797Y-170738574D01*
X232973947Y-170759809D01*
X232975000Y-170781250D01*
X232975000Y-171218750D01*
X232973947Y-171240191D01*
X232970797Y-171261426D01*
X232965581Y-171282250D01*
X232958349Y-171302462D01*
X232949170Y-171321868D01*
X232938134Y-171340281D01*
X232925346Y-171357524D01*
X232910930Y-171373430D01*
X232895024Y-171387846D01*
X232877781Y-171400634D01*
X232859368Y-171411670D01*
X232839962Y-171420849D01*
X232819750Y-171428081D01*
X232798926Y-171433297D01*
X232777691Y-171436447D01*
X232756250Y-171437500D01*
X232243750Y-171437500D01*
X232222309Y-171436447D01*
X232201074Y-171433297D01*
X232180250Y-171428081D01*
X232160038Y-171420849D01*
X232140632Y-171411670D01*
X232122219Y-171400634D01*
X232104976Y-171387846D01*
X232089070Y-171373430D01*
X232074654Y-171357524D01*
X232061866Y-171340281D01*
X232050830Y-171321868D01*
X232041651Y-171302462D01*
X232034419Y-171282250D01*
X232029203Y-171261426D01*
X232026053Y-171240191D01*
X232025000Y-171218750D01*
X232025000Y-170781250D01*
X232026053Y-170759809D01*
X232029203Y-170738574D01*
X232034419Y-170717750D01*
X232041651Y-170697538D01*
X232050830Y-170678132D01*
X232061866Y-170659719D01*
X232074654Y-170642476D01*
X232089070Y-170626570D01*
X232104976Y-170612154D01*
X232122219Y-170599366D01*
X232140632Y-170588330D01*
X232160038Y-170579151D01*
X232180250Y-170571919D01*
X232201074Y-170566703D01*
X232222309Y-170563553D01*
X232243750Y-170562500D01*
X232756250Y-170562500D01*
X232777691Y-170563553D01*
X232777691Y-170563553D01*
G37*
D11*
X232500000Y-171000000D03*
D10*
G36*
X232777691Y-172138553D02*
G01*
X232798926Y-172141703D01*
X232819750Y-172146919D01*
X232839962Y-172154151D01*
X232859368Y-172163330D01*
X232877781Y-172174366D01*
X232895024Y-172187154D01*
X232910930Y-172201570D01*
X232925346Y-172217476D01*
X232938134Y-172234719D01*
X232949170Y-172253132D01*
X232958349Y-172272538D01*
X232965581Y-172292750D01*
X232970797Y-172313574D01*
X232973947Y-172334809D01*
X232975000Y-172356250D01*
X232975000Y-172793750D01*
X232973947Y-172815191D01*
X232970797Y-172836426D01*
X232965581Y-172857250D01*
X232958349Y-172877462D01*
X232949170Y-172896868D01*
X232938134Y-172915281D01*
X232925346Y-172932524D01*
X232910930Y-172948430D01*
X232895024Y-172962846D01*
X232877781Y-172975634D01*
X232859368Y-172986670D01*
X232839962Y-172995849D01*
X232819750Y-173003081D01*
X232798926Y-173008297D01*
X232777691Y-173011447D01*
X232756250Y-173012500D01*
X232243750Y-173012500D01*
X232222309Y-173011447D01*
X232201074Y-173008297D01*
X232180250Y-173003081D01*
X232160038Y-172995849D01*
X232140632Y-172986670D01*
X232122219Y-172975634D01*
X232104976Y-172962846D01*
X232089070Y-172948430D01*
X232074654Y-172932524D01*
X232061866Y-172915281D01*
X232050830Y-172896868D01*
X232041651Y-172877462D01*
X232034419Y-172857250D01*
X232029203Y-172836426D01*
X232026053Y-172815191D01*
X232025000Y-172793750D01*
X232025000Y-172356250D01*
X232026053Y-172334809D01*
X232029203Y-172313574D01*
X232034419Y-172292750D01*
X232041651Y-172272538D01*
X232050830Y-172253132D01*
X232061866Y-172234719D01*
X232074654Y-172217476D01*
X232089070Y-172201570D01*
X232104976Y-172187154D01*
X232122219Y-172174366D01*
X232140632Y-172163330D01*
X232160038Y-172154151D01*
X232180250Y-172146919D01*
X232201074Y-172141703D01*
X232222309Y-172138553D01*
X232243750Y-172137500D01*
X232756250Y-172137500D01*
X232777691Y-172138553D01*
X232777691Y-172138553D01*
G37*
D11*
X232500000Y-172575000D03*
D10*
G36*
X232027691Y-160101053D02*
G01*
X232048926Y-160104203D01*
X232069750Y-160109419D01*
X232089962Y-160116651D01*
X232109368Y-160125830D01*
X232127781Y-160136866D01*
X232145024Y-160149654D01*
X232160930Y-160164070D01*
X232175346Y-160179976D01*
X232188134Y-160197219D01*
X232199170Y-160215632D01*
X232208349Y-160235038D01*
X232215581Y-160255250D01*
X232220797Y-160276074D01*
X232223947Y-160297309D01*
X232225000Y-160318750D01*
X232225000Y-160756250D01*
X232223947Y-160777691D01*
X232220797Y-160798926D01*
X232215581Y-160819750D01*
X232208349Y-160839962D01*
X232199170Y-160859368D01*
X232188134Y-160877781D01*
X232175346Y-160895024D01*
X232160930Y-160910930D01*
X232145024Y-160925346D01*
X232127781Y-160938134D01*
X232109368Y-160949170D01*
X232089962Y-160958349D01*
X232069750Y-160965581D01*
X232048926Y-160970797D01*
X232027691Y-160973947D01*
X232006250Y-160975000D01*
X231493750Y-160975000D01*
X231472309Y-160973947D01*
X231451074Y-160970797D01*
X231430250Y-160965581D01*
X231410038Y-160958349D01*
X231390632Y-160949170D01*
X231372219Y-160938134D01*
X231354976Y-160925346D01*
X231339070Y-160910930D01*
X231324654Y-160895024D01*
X231311866Y-160877781D01*
X231300830Y-160859368D01*
X231291651Y-160839962D01*
X231284419Y-160819750D01*
X231279203Y-160798926D01*
X231276053Y-160777691D01*
X231275000Y-160756250D01*
X231275000Y-160318750D01*
X231276053Y-160297309D01*
X231279203Y-160276074D01*
X231284419Y-160255250D01*
X231291651Y-160235038D01*
X231300830Y-160215632D01*
X231311866Y-160197219D01*
X231324654Y-160179976D01*
X231339070Y-160164070D01*
X231354976Y-160149654D01*
X231372219Y-160136866D01*
X231390632Y-160125830D01*
X231410038Y-160116651D01*
X231430250Y-160109419D01*
X231451074Y-160104203D01*
X231472309Y-160101053D01*
X231493750Y-160100000D01*
X232006250Y-160100000D01*
X232027691Y-160101053D01*
X232027691Y-160101053D01*
G37*
D11*
X231750000Y-160537500D03*
D10*
G36*
X232027691Y-158526053D02*
G01*
X232048926Y-158529203D01*
X232069750Y-158534419D01*
X232089962Y-158541651D01*
X232109368Y-158550830D01*
X232127781Y-158561866D01*
X232145024Y-158574654D01*
X232160930Y-158589070D01*
X232175346Y-158604976D01*
X232188134Y-158622219D01*
X232199170Y-158640632D01*
X232208349Y-158660038D01*
X232215581Y-158680250D01*
X232220797Y-158701074D01*
X232223947Y-158722309D01*
X232225000Y-158743750D01*
X232225000Y-159181250D01*
X232223947Y-159202691D01*
X232220797Y-159223926D01*
X232215581Y-159244750D01*
X232208349Y-159264962D01*
X232199170Y-159284368D01*
X232188134Y-159302781D01*
X232175346Y-159320024D01*
X232160930Y-159335930D01*
X232145024Y-159350346D01*
X232127781Y-159363134D01*
X232109368Y-159374170D01*
X232089962Y-159383349D01*
X232069750Y-159390581D01*
X232048926Y-159395797D01*
X232027691Y-159398947D01*
X232006250Y-159400000D01*
X231493750Y-159400000D01*
X231472309Y-159398947D01*
X231451074Y-159395797D01*
X231430250Y-159390581D01*
X231410038Y-159383349D01*
X231390632Y-159374170D01*
X231372219Y-159363134D01*
X231354976Y-159350346D01*
X231339070Y-159335930D01*
X231324654Y-159320024D01*
X231311866Y-159302781D01*
X231300830Y-159284368D01*
X231291651Y-159264962D01*
X231284419Y-159244750D01*
X231279203Y-159223926D01*
X231276053Y-159202691D01*
X231275000Y-159181250D01*
X231275000Y-158743750D01*
X231276053Y-158722309D01*
X231279203Y-158701074D01*
X231284419Y-158680250D01*
X231291651Y-158660038D01*
X231300830Y-158640632D01*
X231311866Y-158622219D01*
X231324654Y-158604976D01*
X231339070Y-158589070D01*
X231354976Y-158574654D01*
X231372219Y-158561866D01*
X231390632Y-158550830D01*
X231410038Y-158541651D01*
X231430250Y-158534419D01*
X231451074Y-158529203D01*
X231472309Y-158526053D01*
X231493750Y-158525000D01*
X232006250Y-158525000D01*
X232027691Y-158526053D01*
X232027691Y-158526053D01*
G37*
D11*
X231750000Y-158962500D03*
D10*
G36*
X256027691Y-162351053D02*
G01*
X256048926Y-162354203D01*
X256069750Y-162359419D01*
X256089962Y-162366651D01*
X256109368Y-162375830D01*
X256127781Y-162386866D01*
X256145024Y-162399654D01*
X256160930Y-162414070D01*
X256175346Y-162429976D01*
X256188134Y-162447219D01*
X256199170Y-162465632D01*
X256208349Y-162485038D01*
X256215581Y-162505250D01*
X256220797Y-162526074D01*
X256223947Y-162547309D01*
X256225000Y-162568750D01*
X256225000Y-163006250D01*
X256223947Y-163027691D01*
X256220797Y-163048926D01*
X256215581Y-163069750D01*
X256208349Y-163089962D01*
X256199170Y-163109368D01*
X256188134Y-163127781D01*
X256175346Y-163145024D01*
X256160930Y-163160930D01*
X256145024Y-163175346D01*
X256127781Y-163188134D01*
X256109368Y-163199170D01*
X256089962Y-163208349D01*
X256069750Y-163215581D01*
X256048926Y-163220797D01*
X256027691Y-163223947D01*
X256006250Y-163225000D01*
X255493750Y-163225000D01*
X255472309Y-163223947D01*
X255451074Y-163220797D01*
X255430250Y-163215581D01*
X255410038Y-163208349D01*
X255390632Y-163199170D01*
X255372219Y-163188134D01*
X255354976Y-163175346D01*
X255339070Y-163160930D01*
X255324654Y-163145024D01*
X255311866Y-163127781D01*
X255300830Y-163109368D01*
X255291651Y-163089962D01*
X255284419Y-163069750D01*
X255279203Y-163048926D01*
X255276053Y-163027691D01*
X255275000Y-163006250D01*
X255275000Y-162568750D01*
X255276053Y-162547309D01*
X255279203Y-162526074D01*
X255284419Y-162505250D01*
X255291651Y-162485038D01*
X255300830Y-162465632D01*
X255311866Y-162447219D01*
X255324654Y-162429976D01*
X255339070Y-162414070D01*
X255354976Y-162399654D01*
X255372219Y-162386866D01*
X255390632Y-162375830D01*
X255410038Y-162366651D01*
X255430250Y-162359419D01*
X255451074Y-162354203D01*
X255472309Y-162351053D01*
X255493750Y-162350000D01*
X256006250Y-162350000D01*
X256027691Y-162351053D01*
X256027691Y-162351053D01*
G37*
D11*
X255750000Y-162787500D03*
D10*
G36*
X256027691Y-160776053D02*
G01*
X256048926Y-160779203D01*
X256069750Y-160784419D01*
X256089962Y-160791651D01*
X256109368Y-160800830D01*
X256127781Y-160811866D01*
X256145024Y-160824654D01*
X256160930Y-160839070D01*
X256175346Y-160854976D01*
X256188134Y-160872219D01*
X256199170Y-160890632D01*
X256208349Y-160910038D01*
X256215581Y-160930250D01*
X256220797Y-160951074D01*
X256223947Y-160972309D01*
X256225000Y-160993750D01*
X256225000Y-161431250D01*
X256223947Y-161452691D01*
X256220797Y-161473926D01*
X256215581Y-161494750D01*
X256208349Y-161514962D01*
X256199170Y-161534368D01*
X256188134Y-161552781D01*
X256175346Y-161570024D01*
X256160930Y-161585930D01*
X256145024Y-161600346D01*
X256127781Y-161613134D01*
X256109368Y-161624170D01*
X256089962Y-161633349D01*
X256069750Y-161640581D01*
X256048926Y-161645797D01*
X256027691Y-161648947D01*
X256006250Y-161650000D01*
X255493750Y-161650000D01*
X255472309Y-161648947D01*
X255451074Y-161645797D01*
X255430250Y-161640581D01*
X255410038Y-161633349D01*
X255390632Y-161624170D01*
X255372219Y-161613134D01*
X255354976Y-161600346D01*
X255339070Y-161585930D01*
X255324654Y-161570024D01*
X255311866Y-161552781D01*
X255300830Y-161534368D01*
X255291651Y-161514962D01*
X255284419Y-161494750D01*
X255279203Y-161473926D01*
X255276053Y-161452691D01*
X255275000Y-161431250D01*
X255275000Y-160993750D01*
X255276053Y-160972309D01*
X255279203Y-160951074D01*
X255284419Y-160930250D01*
X255291651Y-160910038D01*
X255300830Y-160890632D01*
X255311866Y-160872219D01*
X255324654Y-160854976D01*
X255339070Y-160839070D01*
X255354976Y-160824654D01*
X255372219Y-160811866D01*
X255390632Y-160800830D01*
X255410038Y-160791651D01*
X255430250Y-160784419D01*
X255451074Y-160779203D01*
X255472309Y-160776053D01*
X255493750Y-160775000D01*
X256006250Y-160775000D01*
X256027691Y-160776053D01*
X256027691Y-160776053D01*
G37*
D11*
X255750000Y-161212500D03*
D10*
G36*
X229315191Y-193776053D02*
G01*
X229336426Y-193779203D01*
X229357250Y-193784419D01*
X229377462Y-193791651D01*
X229396868Y-193800830D01*
X229415281Y-193811866D01*
X229432524Y-193824654D01*
X229448430Y-193839070D01*
X229462846Y-193854976D01*
X229475634Y-193872219D01*
X229486670Y-193890632D01*
X229495849Y-193910038D01*
X229503081Y-193930250D01*
X229508297Y-193951074D01*
X229511447Y-193972309D01*
X229512500Y-193993750D01*
X229512500Y-194506250D01*
X229511447Y-194527691D01*
X229508297Y-194548926D01*
X229503081Y-194569750D01*
X229495849Y-194589962D01*
X229486670Y-194609368D01*
X229475634Y-194627781D01*
X229462846Y-194645024D01*
X229448430Y-194660930D01*
X229432524Y-194675346D01*
X229415281Y-194688134D01*
X229396868Y-194699170D01*
X229377462Y-194708349D01*
X229357250Y-194715581D01*
X229336426Y-194720797D01*
X229315191Y-194723947D01*
X229293750Y-194725000D01*
X228856250Y-194725000D01*
X228834809Y-194723947D01*
X228813574Y-194720797D01*
X228792750Y-194715581D01*
X228772538Y-194708349D01*
X228753132Y-194699170D01*
X228734719Y-194688134D01*
X228717476Y-194675346D01*
X228701570Y-194660930D01*
X228687154Y-194645024D01*
X228674366Y-194627781D01*
X228663330Y-194609368D01*
X228654151Y-194589962D01*
X228646919Y-194569750D01*
X228641703Y-194548926D01*
X228638553Y-194527691D01*
X228637500Y-194506250D01*
X228637500Y-193993750D01*
X228638553Y-193972309D01*
X228641703Y-193951074D01*
X228646919Y-193930250D01*
X228654151Y-193910038D01*
X228663330Y-193890632D01*
X228674366Y-193872219D01*
X228687154Y-193854976D01*
X228701570Y-193839070D01*
X228717476Y-193824654D01*
X228734719Y-193811866D01*
X228753132Y-193800830D01*
X228772538Y-193791651D01*
X228792750Y-193784419D01*
X228813574Y-193779203D01*
X228834809Y-193776053D01*
X228856250Y-193775000D01*
X229293750Y-193775000D01*
X229315191Y-193776053D01*
X229315191Y-193776053D01*
G37*
D11*
X229075000Y-194250000D03*
D10*
G36*
X227740191Y-193776053D02*
G01*
X227761426Y-193779203D01*
X227782250Y-193784419D01*
X227802462Y-193791651D01*
X227821868Y-193800830D01*
X227840281Y-193811866D01*
X227857524Y-193824654D01*
X227873430Y-193839070D01*
X227887846Y-193854976D01*
X227900634Y-193872219D01*
X227911670Y-193890632D01*
X227920849Y-193910038D01*
X227928081Y-193930250D01*
X227933297Y-193951074D01*
X227936447Y-193972309D01*
X227937500Y-193993750D01*
X227937500Y-194506250D01*
X227936447Y-194527691D01*
X227933297Y-194548926D01*
X227928081Y-194569750D01*
X227920849Y-194589962D01*
X227911670Y-194609368D01*
X227900634Y-194627781D01*
X227887846Y-194645024D01*
X227873430Y-194660930D01*
X227857524Y-194675346D01*
X227840281Y-194688134D01*
X227821868Y-194699170D01*
X227802462Y-194708349D01*
X227782250Y-194715581D01*
X227761426Y-194720797D01*
X227740191Y-194723947D01*
X227718750Y-194725000D01*
X227281250Y-194725000D01*
X227259809Y-194723947D01*
X227238574Y-194720797D01*
X227217750Y-194715581D01*
X227197538Y-194708349D01*
X227178132Y-194699170D01*
X227159719Y-194688134D01*
X227142476Y-194675346D01*
X227126570Y-194660930D01*
X227112154Y-194645024D01*
X227099366Y-194627781D01*
X227088330Y-194609368D01*
X227079151Y-194589962D01*
X227071919Y-194569750D01*
X227066703Y-194548926D01*
X227063553Y-194527691D01*
X227062500Y-194506250D01*
X227062500Y-193993750D01*
X227063553Y-193972309D01*
X227066703Y-193951074D01*
X227071919Y-193930250D01*
X227079151Y-193910038D01*
X227088330Y-193890632D01*
X227099366Y-193872219D01*
X227112154Y-193854976D01*
X227126570Y-193839070D01*
X227142476Y-193824654D01*
X227159719Y-193811866D01*
X227178132Y-193800830D01*
X227197538Y-193791651D01*
X227217750Y-193784419D01*
X227238574Y-193779203D01*
X227259809Y-193776053D01*
X227281250Y-193775000D01*
X227718750Y-193775000D01*
X227740191Y-193776053D01*
X227740191Y-193776053D01*
G37*
D11*
X227500000Y-194250000D03*
D10*
G36*
X274777691Y-157388553D02*
G01*
X274798926Y-157391703D01*
X274819750Y-157396919D01*
X274839962Y-157404151D01*
X274859368Y-157413330D01*
X274877781Y-157424366D01*
X274895024Y-157437154D01*
X274910930Y-157451570D01*
X274925346Y-157467476D01*
X274938134Y-157484719D01*
X274949170Y-157503132D01*
X274958349Y-157522538D01*
X274965581Y-157542750D01*
X274970797Y-157563574D01*
X274973947Y-157584809D01*
X274975000Y-157606250D01*
X274975000Y-158043750D01*
X274973947Y-158065191D01*
X274970797Y-158086426D01*
X274965581Y-158107250D01*
X274958349Y-158127462D01*
X274949170Y-158146868D01*
X274938134Y-158165281D01*
X274925346Y-158182524D01*
X274910930Y-158198430D01*
X274895024Y-158212846D01*
X274877781Y-158225634D01*
X274859368Y-158236670D01*
X274839962Y-158245849D01*
X274819750Y-158253081D01*
X274798926Y-158258297D01*
X274777691Y-158261447D01*
X274756250Y-158262500D01*
X274243750Y-158262500D01*
X274222309Y-158261447D01*
X274201074Y-158258297D01*
X274180250Y-158253081D01*
X274160038Y-158245849D01*
X274140632Y-158236670D01*
X274122219Y-158225634D01*
X274104976Y-158212846D01*
X274089070Y-158198430D01*
X274074654Y-158182524D01*
X274061866Y-158165281D01*
X274050830Y-158146868D01*
X274041651Y-158127462D01*
X274034419Y-158107250D01*
X274029203Y-158086426D01*
X274026053Y-158065191D01*
X274025000Y-158043750D01*
X274025000Y-157606250D01*
X274026053Y-157584809D01*
X274029203Y-157563574D01*
X274034419Y-157542750D01*
X274041651Y-157522538D01*
X274050830Y-157503132D01*
X274061866Y-157484719D01*
X274074654Y-157467476D01*
X274089070Y-157451570D01*
X274104976Y-157437154D01*
X274122219Y-157424366D01*
X274140632Y-157413330D01*
X274160038Y-157404151D01*
X274180250Y-157396919D01*
X274201074Y-157391703D01*
X274222309Y-157388553D01*
X274243750Y-157387500D01*
X274756250Y-157387500D01*
X274777691Y-157388553D01*
X274777691Y-157388553D01*
G37*
D11*
X274500000Y-157825000D03*
D10*
G36*
X274777691Y-155813553D02*
G01*
X274798926Y-155816703D01*
X274819750Y-155821919D01*
X274839962Y-155829151D01*
X274859368Y-155838330D01*
X274877781Y-155849366D01*
X274895024Y-155862154D01*
X274910930Y-155876570D01*
X274925346Y-155892476D01*
X274938134Y-155909719D01*
X274949170Y-155928132D01*
X274958349Y-155947538D01*
X274965581Y-155967750D01*
X274970797Y-155988574D01*
X274973947Y-156009809D01*
X274975000Y-156031250D01*
X274975000Y-156468750D01*
X274973947Y-156490191D01*
X274970797Y-156511426D01*
X274965581Y-156532250D01*
X274958349Y-156552462D01*
X274949170Y-156571868D01*
X274938134Y-156590281D01*
X274925346Y-156607524D01*
X274910930Y-156623430D01*
X274895024Y-156637846D01*
X274877781Y-156650634D01*
X274859368Y-156661670D01*
X274839962Y-156670849D01*
X274819750Y-156678081D01*
X274798926Y-156683297D01*
X274777691Y-156686447D01*
X274756250Y-156687500D01*
X274243750Y-156687500D01*
X274222309Y-156686447D01*
X274201074Y-156683297D01*
X274180250Y-156678081D01*
X274160038Y-156670849D01*
X274140632Y-156661670D01*
X274122219Y-156650634D01*
X274104976Y-156637846D01*
X274089070Y-156623430D01*
X274074654Y-156607524D01*
X274061866Y-156590281D01*
X274050830Y-156571868D01*
X274041651Y-156552462D01*
X274034419Y-156532250D01*
X274029203Y-156511426D01*
X274026053Y-156490191D01*
X274025000Y-156468750D01*
X274025000Y-156031250D01*
X274026053Y-156009809D01*
X274029203Y-155988574D01*
X274034419Y-155967750D01*
X274041651Y-155947538D01*
X274050830Y-155928132D01*
X274061866Y-155909719D01*
X274074654Y-155892476D01*
X274089070Y-155876570D01*
X274104976Y-155862154D01*
X274122219Y-155849366D01*
X274140632Y-155838330D01*
X274160038Y-155829151D01*
X274180250Y-155821919D01*
X274201074Y-155816703D01*
X274222309Y-155813553D01*
X274243750Y-155812500D01*
X274756250Y-155812500D01*
X274777691Y-155813553D01*
X274777691Y-155813553D01*
G37*
D11*
X274500000Y-156250000D03*
D10*
G36*
X279777691Y-157388553D02*
G01*
X279798926Y-157391703D01*
X279819750Y-157396919D01*
X279839962Y-157404151D01*
X279859368Y-157413330D01*
X279877781Y-157424366D01*
X279895024Y-157437154D01*
X279910930Y-157451570D01*
X279925346Y-157467476D01*
X279938134Y-157484719D01*
X279949170Y-157503132D01*
X279958349Y-157522538D01*
X279965581Y-157542750D01*
X279970797Y-157563574D01*
X279973947Y-157584809D01*
X279975000Y-157606250D01*
X279975000Y-158043750D01*
X279973947Y-158065191D01*
X279970797Y-158086426D01*
X279965581Y-158107250D01*
X279958349Y-158127462D01*
X279949170Y-158146868D01*
X279938134Y-158165281D01*
X279925346Y-158182524D01*
X279910930Y-158198430D01*
X279895024Y-158212846D01*
X279877781Y-158225634D01*
X279859368Y-158236670D01*
X279839962Y-158245849D01*
X279819750Y-158253081D01*
X279798926Y-158258297D01*
X279777691Y-158261447D01*
X279756250Y-158262500D01*
X279243750Y-158262500D01*
X279222309Y-158261447D01*
X279201074Y-158258297D01*
X279180250Y-158253081D01*
X279160038Y-158245849D01*
X279140632Y-158236670D01*
X279122219Y-158225634D01*
X279104976Y-158212846D01*
X279089070Y-158198430D01*
X279074654Y-158182524D01*
X279061866Y-158165281D01*
X279050830Y-158146868D01*
X279041651Y-158127462D01*
X279034419Y-158107250D01*
X279029203Y-158086426D01*
X279026053Y-158065191D01*
X279025000Y-158043750D01*
X279025000Y-157606250D01*
X279026053Y-157584809D01*
X279029203Y-157563574D01*
X279034419Y-157542750D01*
X279041651Y-157522538D01*
X279050830Y-157503132D01*
X279061866Y-157484719D01*
X279074654Y-157467476D01*
X279089070Y-157451570D01*
X279104976Y-157437154D01*
X279122219Y-157424366D01*
X279140632Y-157413330D01*
X279160038Y-157404151D01*
X279180250Y-157396919D01*
X279201074Y-157391703D01*
X279222309Y-157388553D01*
X279243750Y-157387500D01*
X279756250Y-157387500D01*
X279777691Y-157388553D01*
X279777691Y-157388553D01*
G37*
D11*
X279500000Y-157825000D03*
D10*
G36*
X279777691Y-155813553D02*
G01*
X279798926Y-155816703D01*
X279819750Y-155821919D01*
X279839962Y-155829151D01*
X279859368Y-155838330D01*
X279877781Y-155849366D01*
X279895024Y-155862154D01*
X279910930Y-155876570D01*
X279925346Y-155892476D01*
X279938134Y-155909719D01*
X279949170Y-155928132D01*
X279958349Y-155947538D01*
X279965581Y-155967750D01*
X279970797Y-155988574D01*
X279973947Y-156009809D01*
X279975000Y-156031250D01*
X279975000Y-156468750D01*
X279973947Y-156490191D01*
X279970797Y-156511426D01*
X279965581Y-156532250D01*
X279958349Y-156552462D01*
X279949170Y-156571868D01*
X279938134Y-156590281D01*
X279925346Y-156607524D01*
X279910930Y-156623430D01*
X279895024Y-156637846D01*
X279877781Y-156650634D01*
X279859368Y-156661670D01*
X279839962Y-156670849D01*
X279819750Y-156678081D01*
X279798926Y-156683297D01*
X279777691Y-156686447D01*
X279756250Y-156687500D01*
X279243750Y-156687500D01*
X279222309Y-156686447D01*
X279201074Y-156683297D01*
X279180250Y-156678081D01*
X279160038Y-156670849D01*
X279140632Y-156661670D01*
X279122219Y-156650634D01*
X279104976Y-156637846D01*
X279089070Y-156623430D01*
X279074654Y-156607524D01*
X279061866Y-156590281D01*
X279050830Y-156571868D01*
X279041651Y-156552462D01*
X279034419Y-156532250D01*
X279029203Y-156511426D01*
X279026053Y-156490191D01*
X279025000Y-156468750D01*
X279025000Y-156031250D01*
X279026053Y-156009809D01*
X279029203Y-155988574D01*
X279034419Y-155967750D01*
X279041651Y-155947538D01*
X279050830Y-155928132D01*
X279061866Y-155909719D01*
X279074654Y-155892476D01*
X279089070Y-155876570D01*
X279104976Y-155862154D01*
X279122219Y-155849366D01*
X279140632Y-155838330D01*
X279160038Y-155829151D01*
X279180250Y-155821919D01*
X279201074Y-155816703D01*
X279222309Y-155813553D01*
X279243750Y-155812500D01*
X279756250Y-155812500D01*
X279777691Y-155813553D01*
X279777691Y-155813553D01*
G37*
D11*
X279500000Y-156250000D03*
D10*
G36*
X287777691Y-157388553D02*
G01*
X287798926Y-157391703D01*
X287819750Y-157396919D01*
X287839962Y-157404151D01*
X287859368Y-157413330D01*
X287877781Y-157424366D01*
X287895024Y-157437154D01*
X287910930Y-157451570D01*
X287925346Y-157467476D01*
X287938134Y-157484719D01*
X287949170Y-157503132D01*
X287958349Y-157522538D01*
X287965581Y-157542750D01*
X287970797Y-157563574D01*
X287973947Y-157584809D01*
X287975000Y-157606250D01*
X287975000Y-158043750D01*
X287973947Y-158065191D01*
X287970797Y-158086426D01*
X287965581Y-158107250D01*
X287958349Y-158127462D01*
X287949170Y-158146868D01*
X287938134Y-158165281D01*
X287925346Y-158182524D01*
X287910930Y-158198430D01*
X287895024Y-158212846D01*
X287877781Y-158225634D01*
X287859368Y-158236670D01*
X287839962Y-158245849D01*
X287819750Y-158253081D01*
X287798926Y-158258297D01*
X287777691Y-158261447D01*
X287756250Y-158262500D01*
X287243750Y-158262500D01*
X287222309Y-158261447D01*
X287201074Y-158258297D01*
X287180250Y-158253081D01*
X287160038Y-158245849D01*
X287140632Y-158236670D01*
X287122219Y-158225634D01*
X287104976Y-158212846D01*
X287089070Y-158198430D01*
X287074654Y-158182524D01*
X287061866Y-158165281D01*
X287050830Y-158146868D01*
X287041651Y-158127462D01*
X287034419Y-158107250D01*
X287029203Y-158086426D01*
X287026053Y-158065191D01*
X287025000Y-158043750D01*
X287025000Y-157606250D01*
X287026053Y-157584809D01*
X287029203Y-157563574D01*
X287034419Y-157542750D01*
X287041651Y-157522538D01*
X287050830Y-157503132D01*
X287061866Y-157484719D01*
X287074654Y-157467476D01*
X287089070Y-157451570D01*
X287104976Y-157437154D01*
X287122219Y-157424366D01*
X287140632Y-157413330D01*
X287160038Y-157404151D01*
X287180250Y-157396919D01*
X287201074Y-157391703D01*
X287222309Y-157388553D01*
X287243750Y-157387500D01*
X287756250Y-157387500D01*
X287777691Y-157388553D01*
X287777691Y-157388553D01*
G37*
D11*
X287500000Y-157825000D03*
D10*
G36*
X287777691Y-155813553D02*
G01*
X287798926Y-155816703D01*
X287819750Y-155821919D01*
X287839962Y-155829151D01*
X287859368Y-155838330D01*
X287877781Y-155849366D01*
X287895024Y-155862154D01*
X287910930Y-155876570D01*
X287925346Y-155892476D01*
X287938134Y-155909719D01*
X287949170Y-155928132D01*
X287958349Y-155947538D01*
X287965581Y-155967750D01*
X287970797Y-155988574D01*
X287973947Y-156009809D01*
X287975000Y-156031250D01*
X287975000Y-156468750D01*
X287973947Y-156490191D01*
X287970797Y-156511426D01*
X287965581Y-156532250D01*
X287958349Y-156552462D01*
X287949170Y-156571868D01*
X287938134Y-156590281D01*
X287925346Y-156607524D01*
X287910930Y-156623430D01*
X287895024Y-156637846D01*
X287877781Y-156650634D01*
X287859368Y-156661670D01*
X287839962Y-156670849D01*
X287819750Y-156678081D01*
X287798926Y-156683297D01*
X287777691Y-156686447D01*
X287756250Y-156687500D01*
X287243750Y-156687500D01*
X287222309Y-156686447D01*
X287201074Y-156683297D01*
X287180250Y-156678081D01*
X287160038Y-156670849D01*
X287140632Y-156661670D01*
X287122219Y-156650634D01*
X287104976Y-156637846D01*
X287089070Y-156623430D01*
X287074654Y-156607524D01*
X287061866Y-156590281D01*
X287050830Y-156571868D01*
X287041651Y-156552462D01*
X287034419Y-156532250D01*
X287029203Y-156511426D01*
X287026053Y-156490191D01*
X287025000Y-156468750D01*
X287025000Y-156031250D01*
X287026053Y-156009809D01*
X287029203Y-155988574D01*
X287034419Y-155967750D01*
X287041651Y-155947538D01*
X287050830Y-155928132D01*
X287061866Y-155909719D01*
X287074654Y-155892476D01*
X287089070Y-155876570D01*
X287104976Y-155862154D01*
X287122219Y-155849366D01*
X287140632Y-155838330D01*
X287160038Y-155829151D01*
X287180250Y-155821919D01*
X287201074Y-155816703D01*
X287222309Y-155813553D01*
X287243750Y-155812500D01*
X287756250Y-155812500D01*
X287777691Y-155813553D01*
X287777691Y-155813553D01*
G37*
D11*
X287500000Y-156250000D03*
D10*
G36*
X248277691Y-200851053D02*
G01*
X248298926Y-200854203D01*
X248319750Y-200859419D01*
X248339962Y-200866651D01*
X248359368Y-200875830D01*
X248377781Y-200886866D01*
X248395024Y-200899654D01*
X248410930Y-200914070D01*
X248425346Y-200929976D01*
X248438134Y-200947219D01*
X248449170Y-200965632D01*
X248458349Y-200985038D01*
X248465581Y-201005250D01*
X248470797Y-201026074D01*
X248473947Y-201047309D01*
X248475000Y-201068750D01*
X248475000Y-201506250D01*
X248473947Y-201527691D01*
X248470797Y-201548926D01*
X248465581Y-201569750D01*
X248458349Y-201589962D01*
X248449170Y-201609368D01*
X248438134Y-201627781D01*
X248425346Y-201645024D01*
X248410930Y-201660930D01*
X248395024Y-201675346D01*
X248377781Y-201688134D01*
X248359368Y-201699170D01*
X248339962Y-201708349D01*
X248319750Y-201715581D01*
X248298926Y-201720797D01*
X248277691Y-201723947D01*
X248256250Y-201725000D01*
X247743750Y-201725000D01*
X247722309Y-201723947D01*
X247701074Y-201720797D01*
X247680250Y-201715581D01*
X247660038Y-201708349D01*
X247640632Y-201699170D01*
X247622219Y-201688134D01*
X247604976Y-201675346D01*
X247589070Y-201660930D01*
X247574654Y-201645024D01*
X247561866Y-201627781D01*
X247550830Y-201609368D01*
X247541651Y-201589962D01*
X247534419Y-201569750D01*
X247529203Y-201548926D01*
X247526053Y-201527691D01*
X247525000Y-201506250D01*
X247525000Y-201068750D01*
X247526053Y-201047309D01*
X247529203Y-201026074D01*
X247534419Y-201005250D01*
X247541651Y-200985038D01*
X247550830Y-200965632D01*
X247561866Y-200947219D01*
X247574654Y-200929976D01*
X247589070Y-200914070D01*
X247604976Y-200899654D01*
X247622219Y-200886866D01*
X247640632Y-200875830D01*
X247660038Y-200866651D01*
X247680250Y-200859419D01*
X247701074Y-200854203D01*
X247722309Y-200851053D01*
X247743750Y-200850000D01*
X248256250Y-200850000D01*
X248277691Y-200851053D01*
X248277691Y-200851053D01*
G37*
D11*
X248000000Y-201287500D03*
D10*
G36*
X248277691Y-199276053D02*
G01*
X248298926Y-199279203D01*
X248319750Y-199284419D01*
X248339962Y-199291651D01*
X248359368Y-199300830D01*
X248377781Y-199311866D01*
X248395024Y-199324654D01*
X248410930Y-199339070D01*
X248425346Y-199354976D01*
X248438134Y-199372219D01*
X248449170Y-199390632D01*
X248458349Y-199410038D01*
X248465581Y-199430250D01*
X248470797Y-199451074D01*
X248473947Y-199472309D01*
X248475000Y-199493750D01*
X248475000Y-199931250D01*
X248473947Y-199952691D01*
X248470797Y-199973926D01*
X248465581Y-199994750D01*
X248458349Y-200014962D01*
X248449170Y-200034368D01*
X248438134Y-200052781D01*
X248425346Y-200070024D01*
X248410930Y-200085930D01*
X248395024Y-200100346D01*
X248377781Y-200113134D01*
X248359368Y-200124170D01*
X248339962Y-200133349D01*
X248319750Y-200140581D01*
X248298926Y-200145797D01*
X248277691Y-200148947D01*
X248256250Y-200150000D01*
X247743750Y-200150000D01*
X247722309Y-200148947D01*
X247701074Y-200145797D01*
X247680250Y-200140581D01*
X247660038Y-200133349D01*
X247640632Y-200124170D01*
X247622219Y-200113134D01*
X247604976Y-200100346D01*
X247589070Y-200085930D01*
X247574654Y-200070024D01*
X247561866Y-200052781D01*
X247550830Y-200034368D01*
X247541651Y-200014962D01*
X247534419Y-199994750D01*
X247529203Y-199973926D01*
X247526053Y-199952691D01*
X247525000Y-199931250D01*
X247525000Y-199493750D01*
X247526053Y-199472309D01*
X247529203Y-199451074D01*
X247534419Y-199430250D01*
X247541651Y-199410038D01*
X247550830Y-199390632D01*
X247561866Y-199372219D01*
X247574654Y-199354976D01*
X247589070Y-199339070D01*
X247604976Y-199324654D01*
X247622219Y-199311866D01*
X247640632Y-199300830D01*
X247660038Y-199291651D01*
X247680250Y-199284419D01*
X247701074Y-199279203D01*
X247722309Y-199276053D01*
X247743750Y-199275000D01*
X248256250Y-199275000D01*
X248277691Y-199276053D01*
X248277691Y-199276053D01*
G37*
D11*
X248000000Y-199712500D03*
D10*
G36*
X248277691Y-203276053D02*
G01*
X248298926Y-203279203D01*
X248319750Y-203284419D01*
X248339962Y-203291651D01*
X248359368Y-203300830D01*
X248377781Y-203311866D01*
X248395024Y-203324654D01*
X248410930Y-203339070D01*
X248425346Y-203354976D01*
X248438134Y-203372219D01*
X248449170Y-203390632D01*
X248458349Y-203410038D01*
X248465581Y-203430250D01*
X248470797Y-203451074D01*
X248473947Y-203472309D01*
X248475000Y-203493750D01*
X248475000Y-203931250D01*
X248473947Y-203952691D01*
X248470797Y-203973926D01*
X248465581Y-203994750D01*
X248458349Y-204014962D01*
X248449170Y-204034368D01*
X248438134Y-204052781D01*
X248425346Y-204070024D01*
X248410930Y-204085930D01*
X248395024Y-204100346D01*
X248377781Y-204113134D01*
X248359368Y-204124170D01*
X248339962Y-204133349D01*
X248319750Y-204140581D01*
X248298926Y-204145797D01*
X248277691Y-204148947D01*
X248256250Y-204150000D01*
X247743750Y-204150000D01*
X247722309Y-204148947D01*
X247701074Y-204145797D01*
X247680250Y-204140581D01*
X247660038Y-204133349D01*
X247640632Y-204124170D01*
X247622219Y-204113134D01*
X247604976Y-204100346D01*
X247589070Y-204085930D01*
X247574654Y-204070024D01*
X247561866Y-204052781D01*
X247550830Y-204034368D01*
X247541651Y-204014962D01*
X247534419Y-203994750D01*
X247529203Y-203973926D01*
X247526053Y-203952691D01*
X247525000Y-203931250D01*
X247525000Y-203493750D01*
X247526053Y-203472309D01*
X247529203Y-203451074D01*
X247534419Y-203430250D01*
X247541651Y-203410038D01*
X247550830Y-203390632D01*
X247561866Y-203372219D01*
X247574654Y-203354976D01*
X247589070Y-203339070D01*
X247604976Y-203324654D01*
X247622219Y-203311866D01*
X247640632Y-203300830D01*
X247660038Y-203291651D01*
X247680250Y-203284419D01*
X247701074Y-203279203D01*
X247722309Y-203276053D01*
X247743750Y-203275000D01*
X248256250Y-203275000D01*
X248277691Y-203276053D01*
X248277691Y-203276053D01*
G37*
D11*
X248000000Y-203712500D03*
D10*
G36*
X248277691Y-204851053D02*
G01*
X248298926Y-204854203D01*
X248319750Y-204859419D01*
X248339962Y-204866651D01*
X248359368Y-204875830D01*
X248377781Y-204886866D01*
X248395024Y-204899654D01*
X248410930Y-204914070D01*
X248425346Y-204929976D01*
X248438134Y-204947219D01*
X248449170Y-204965632D01*
X248458349Y-204985038D01*
X248465581Y-205005250D01*
X248470797Y-205026074D01*
X248473947Y-205047309D01*
X248475000Y-205068750D01*
X248475000Y-205506250D01*
X248473947Y-205527691D01*
X248470797Y-205548926D01*
X248465581Y-205569750D01*
X248458349Y-205589962D01*
X248449170Y-205609368D01*
X248438134Y-205627781D01*
X248425346Y-205645024D01*
X248410930Y-205660930D01*
X248395024Y-205675346D01*
X248377781Y-205688134D01*
X248359368Y-205699170D01*
X248339962Y-205708349D01*
X248319750Y-205715581D01*
X248298926Y-205720797D01*
X248277691Y-205723947D01*
X248256250Y-205725000D01*
X247743750Y-205725000D01*
X247722309Y-205723947D01*
X247701074Y-205720797D01*
X247680250Y-205715581D01*
X247660038Y-205708349D01*
X247640632Y-205699170D01*
X247622219Y-205688134D01*
X247604976Y-205675346D01*
X247589070Y-205660930D01*
X247574654Y-205645024D01*
X247561866Y-205627781D01*
X247550830Y-205609368D01*
X247541651Y-205589962D01*
X247534419Y-205569750D01*
X247529203Y-205548926D01*
X247526053Y-205527691D01*
X247525000Y-205506250D01*
X247525000Y-205068750D01*
X247526053Y-205047309D01*
X247529203Y-205026074D01*
X247534419Y-205005250D01*
X247541651Y-204985038D01*
X247550830Y-204965632D01*
X247561866Y-204947219D01*
X247574654Y-204929976D01*
X247589070Y-204914070D01*
X247604976Y-204899654D01*
X247622219Y-204886866D01*
X247640632Y-204875830D01*
X247660038Y-204866651D01*
X247680250Y-204859419D01*
X247701074Y-204854203D01*
X247722309Y-204851053D01*
X247743750Y-204850000D01*
X248256250Y-204850000D01*
X248277691Y-204851053D01*
X248277691Y-204851053D01*
G37*
D11*
X248000000Y-205287500D03*
D10*
G36*
X263277691Y-201276053D02*
G01*
X263298926Y-201279203D01*
X263319750Y-201284419D01*
X263339962Y-201291651D01*
X263359368Y-201300830D01*
X263377781Y-201311866D01*
X263395024Y-201324654D01*
X263410930Y-201339070D01*
X263425346Y-201354976D01*
X263438134Y-201372219D01*
X263449170Y-201390632D01*
X263458349Y-201410038D01*
X263465581Y-201430250D01*
X263470797Y-201451074D01*
X263473947Y-201472309D01*
X263475000Y-201493750D01*
X263475000Y-201931250D01*
X263473947Y-201952691D01*
X263470797Y-201973926D01*
X263465581Y-201994750D01*
X263458349Y-202014962D01*
X263449170Y-202034368D01*
X263438134Y-202052781D01*
X263425346Y-202070024D01*
X263410930Y-202085930D01*
X263395024Y-202100346D01*
X263377781Y-202113134D01*
X263359368Y-202124170D01*
X263339962Y-202133349D01*
X263319750Y-202140581D01*
X263298926Y-202145797D01*
X263277691Y-202148947D01*
X263256250Y-202150000D01*
X262743750Y-202150000D01*
X262722309Y-202148947D01*
X262701074Y-202145797D01*
X262680250Y-202140581D01*
X262660038Y-202133349D01*
X262640632Y-202124170D01*
X262622219Y-202113134D01*
X262604976Y-202100346D01*
X262589070Y-202085930D01*
X262574654Y-202070024D01*
X262561866Y-202052781D01*
X262550830Y-202034368D01*
X262541651Y-202014962D01*
X262534419Y-201994750D01*
X262529203Y-201973926D01*
X262526053Y-201952691D01*
X262525000Y-201931250D01*
X262525000Y-201493750D01*
X262526053Y-201472309D01*
X262529203Y-201451074D01*
X262534419Y-201430250D01*
X262541651Y-201410038D01*
X262550830Y-201390632D01*
X262561866Y-201372219D01*
X262574654Y-201354976D01*
X262589070Y-201339070D01*
X262604976Y-201324654D01*
X262622219Y-201311866D01*
X262640632Y-201300830D01*
X262660038Y-201291651D01*
X262680250Y-201284419D01*
X262701074Y-201279203D01*
X262722309Y-201276053D01*
X262743750Y-201275000D01*
X263256250Y-201275000D01*
X263277691Y-201276053D01*
X263277691Y-201276053D01*
G37*
D11*
X263000000Y-201712500D03*
D10*
G36*
X263277691Y-202851053D02*
G01*
X263298926Y-202854203D01*
X263319750Y-202859419D01*
X263339962Y-202866651D01*
X263359368Y-202875830D01*
X263377781Y-202886866D01*
X263395024Y-202899654D01*
X263410930Y-202914070D01*
X263425346Y-202929976D01*
X263438134Y-202947219D01*
X263449170Y-202965632D01*
X263458349Y-202985038D01*
X263465581Y-203005250D01*
X263470797Y-203026074D01*
X263473947Y-203047309D01*
X263475000Y-203068750D01*
X263475000Y-203506250D01*
X263473947Y-203527691D01*
X263470797Y-203548926D01*
X263465581Y-203569750D01*
X263458349Y-203589962D01*
X263449170Y-203609368D01*
X263438134Y-203627781D01*
X263425346Y-203645024D01*
X263410930Y-203660930D01*
X263395024Y-203675346D01*
X263377781Y-203688134D01*
X263359368Y-203699170D01*
X263339962Y-203708349D01*
X263319750Y-203715581D01*
X263298926Y-203720797D01*
X263277691Y-203723947D01*
X263256250Y-203725000D01*
X262743750Y-203725000D01*
X262722309Y-203723947D01*
X262701074Y-203720797D01*
X262680250Y-203715581D01*
X262660038Y-203708349D01*
X262640632Y-203699170D01*
X262622219Y-203688134D01*
X262604976Y-203675346D01*
X262589070Y-203660930D01*
X262574654Y-203645024D01*
X262561866Y-203627781D01*
X262550830Y-203609368D01*
X262541651Y-203589962D01*
X262534419Y-203569750D01*
X262529203Y-203548926D01*
X262526053Y-203527691D01*
X262525000Y-203506250D01*
X262525000Y-203068750D01*
X262526053Y-203047309D01*
X262529203Y-203026074D01*
X262534419Y-203005250D01*
X262541651Y-202985038D01*
X262550830Y-202965632D01*
X262561866Y-202947219D01*
X262574654Y-202929976D01*
X262589070Y-202914070D01*
X262604976Y-202899654D01*
X262622219Y-202886866D01*
X262640632Y-202875830D01*
X262660038Y-202866651D01*
X262680250Y-202859419D01*
X262701074Y-202854203D01*
X262722309Y-202851053D01*
X262743750Y-202850000D01*
X263256250Y-202850000D01*
X263277691Y-202851053D01*
X263277691Y-202851053D01*
G37*
D11*
X263000000Y-203287500D03*
D10*
G36*
X274277691Y-201276053D02*
G01*
X274298926Y-201279203D01*
X274319750Y-201284419D01*
X274339962Y-201291651D01*
X274359368Y-201300830D01*
X274377781Y-201311866D01*
X274395024Y-201324654D01*
X274410930Y-201339070D01*
X274425346Y-201354976D01*
X274438134Y-201372219D01*
X274449170Y-201390632D01*
X274458349Y-201410038D01*
X274465581Y-201430250D01*
X274470797Y-201451074D01*
X274473947Y-201472309D01*
X274475000Y-201493750D01*
X274475000Y-201931250D01*
X274473947Y-201952691D01*
X274470797Y-201973926D01*
X274465581Y-201994750D01*
X274458349Y-202014962D01*
X274449170Y-202034368D01*
X274438134Y-202052781D01*
X274425346Y-202070024D01*
X274410930Y-202085930D01*
X274395024Y-202100346D01*
X274377781Y-202113134D01*
X274359368Y-202124170D01*
X274339962Y-202133349D01*
X274319750Y-202140581D01*
X274298926Y-202145797D01*
X274277691Y-202148947D01*
X274256250Y-202150000D01*
X273743750Y-202150000D01*
X273722309Y-202148947D01*
X273701074Y-202145797D01*
X273680250Y-202140581D01*
X273660038Y-202133349D01*
X273640632Y-202124170D01*
X273622219Y-202113134D01*
X273604976Y-202100346D01*
X273589070Y-202085930D01*
X273574654Y-202070024D01*
X273561866Y-202052781D01*
X273550830Y-202034368D01*
X273541651Y-202014962D01*
X273534419Y-201994750D01*
X273529203Y-201973926D01*
X273526053Y-201952691D01*
X273525000Y-201931250D01*
X273525000Y-201493750D01*
X273526053Y-201472309D01*
X273529203Y-201451074D01*
X273534419Y-201430250D01*
X273541651Y-201410038D01*
X273550830Y-201390632D01*
X273561866Y-201372219D01*
X273574654Y-201354976D01*
X273589070Y-201339070D01*
X273604976Y-201324654D01*
X273622219Y-201311866D01*
X273640632Y-201300830D01*
X273660038Y-201291651D01*
X273680250Y-201284419D01*
X273701074Y-201279203D01*
X273722309Y-201276053D01*
X273743750Y-201275000D01*
X274256250Y-201275000D01*
X274277691Y-201276053D01*
X274277691Y-201276053D01*
G37*
D11*
X274000000Y-201712500D03*
D10*
G36*
X274277691Y-202851053D02*
G01*
X274298926Y-202854203D01*
X274319750Y-202859419D01*
X274339962Y-202866651D01*
X274359368Y-202875830D01*
X274377781Y-202886866D01*
X274395024Y-202899654D01*
X274410930Y-202914070D01*
X274425346Y-202929976D01*
X274438134Y-202947219D01*
X274449170Y-202965632D01*
X274458349Y-202985038D01*
X274465581Y-203005250D01*
X274470797Y-203026074D01*
X274473947Y-203047309D01*
X274475000Y-203068750D01*
X274475000Y-203506250D01*
X274473947Y-203527691D01*
X274470797Y-203548926D01*
X274465581Y-203569750D01*
X274458349Y-203589962D01*
X274449170Y-203609368D01*
X274438134Y-203627781D01*
X274425346Y-203645024D01*
X274410930Y-203660930D01*
X274395024Y-203675346D01*
X274377781Y-203688134D01*
X274359368Y-203699170D01*
X274339962Y-203708349D01*
X274319750Y-203715581D01*
X274298926Y-203720797D01*
X274277691Y-203723947D01*
X274256250Y-203725000D01*
X273743750Y-203725000D01*
X273722309Y-203723947D01*
X273701074Y-203720797D01*
X273680250Y-203715581D01*
X273660038Y-203708349D01*
X273640632Y-203699170D01*
X273622219Y-203688134D01*
X273604976Y-203675346D01*
X273589070Y-203660930D01*
X273574654Y-203645024D01*
X273561866Y-203627781D01*
X273550830Y-203609368D01*
X273541651Y-203589962D01*
X273534419Y-203569750D01*
X273529203Y-203548926D01*
X273526053Y-203527691D01*
X273525000Y-203506250D01*
X273525000Y-203068750D01*
X273526053Y-203047309D01*
X273529203Y-203026074D01*
X273534419Y-203005250D01*
X273541651Y-202985038D01*
X273550830Y-202965632D01*
X273561866Y-202947219D01*
X273574654Y-202929976D01*
X273589070Y-202914070D01*
X273604976Y-202899654D01*
X273622219Y-202886866D01*
X273640632Y-202875830D01*
X273660038Y-202866651D01*
X273680250Y-202859419D01*
X273701074Y-202854203D01*
X273722309Y-202851053D01*
X273743750Y-202850000D01*
X274256250Y-202850000D01*
X274277691Y-202851053D01*
X274277691Y-202851053D01*
G37*
D11*
X274000000Y-203287500D03*
D10*
G36*
X287277691Y-202851053D02*
G01*
X287298926Y-202854203D01*
X287319750Y-202859419D01*
X287339962Y-202866651D01*
X287359368Y-202875830D01*
X287377781Y-202886866D01*
X287395024Y-202899654D01*
X287410930Y-202914070D01*
X287425346Y-202929976D01*
X287438134Y-202947219D01*
X287449170Y-202965632D01*
X287458349Y-202985038D01*
X287465581Y-203005250D01*
X287470797Y-203026074D01*
X287473947Y-203047309D01*
X287475000Y-203068750D01*
X287475000Y-203506250D01*
X287473947Y-203527691D01*
X287470797Y-203548926D01*
X287465581Y-203569750D01*
X287458349Y-203589962D01*
X287449170Y-203609368D01*
X287438134Y-203627781D01*
X287425346Y-203645024D01*
X287410930Y-203660930D01*
X287395024Y-203675346D01*
X287377781Y-203688134D01*
X287359368Y-203699170D01*
X287339962Y-203708349D01*
X287319750Y-203715581D01*
X287298926Y-203720797D01*
X287277691Y-203723947D01*
X287256250Y-203725000D01*
X286743750Y-203725000D01*
X286722309Y-203723947D01*
X286701074Y-203720797D01*
X286680250Y-203715581D01*
X286660038Y-203708349D01*
X286640632Y-203699170D01*
X286622219Y-203688134D01*
X286604976Y-203675346D01*
X286589070Y-203660930D01*
X286574654Y-203645024D01*
X286561866Y-203627781D01*
X286550830Y-203609368D01*
X286541651Y-203589962D01*
X286534419Y-203569750D01*
X286529203Y-203548926D01*
X286526053Y-203527691D01*
X286525000Y-203506250D01*
X286525000Y-203068750D01*
X286526053Y-203047309D01*
X286529203Y-203026074D01*
X286534419Y-203005250D01*
X286541651Y-202985038D01*
X286550830Y-202965632D01*
X286561866Y-202947219D01*
X286574654Y-202929976D01*
X286589070Y-202914070D01*
X286604976Y-202899654D01*
X286622219Y-202886866D01*
X286640632Y-202875830D01*
X286660038Y-202866651D01*
X286680250Y-202859419D01*
X286701074Y-202854203D01*
X286722309Y-202851053D01*
X286743750Y-202850000D01*
X287256250Y-202850000D01*
X287277691Y-202851053D01*
X287277691Y-202851053D01*
G37*
D11*
X287000000Y-203287500D03*
D10*
G36*
X287277691Y-201276053D02*
G01*
X287298926Y-201279203D01*
X287319750Y-201284419D01*
X287339962Y-201291651D01*
X287359368Y-201300830D01*
X287377781Y-201311866D01*
X287395024Y-201324654D01*
X287410930Y-201339070D01*
X287425346Y-201354976D01*
X287438134Y-201372219D01*
X287449170Y-201390632D01*
X287458349Y-201410038D01*
X287465581Y-201430250D01*
X287470797Y-201451074D01*
X287473947Y-201472309D01*
X287475000Y-201493750D01*
X287475000Y-201931250D01*
X287473947Y-201952691D01*
X287470797Y-201973926D01*
X287465581Y-201994750D01*
X287458349Y-202014962D01*
X287449170Y-202034368D01*
X287438134Y-202052781D01*
X287425346Y-202070024D01*
X287410930Y-202085930D01*
X287395024Y-202100346D01*
X287377781Y-202113134D01*
X287359368Y-202124170D01*
X287339962Y-202133349D01*
X287319750Y-202140581D01*
X287298926Y-202145797D01*
X287277691Y-202148947D01*
X287256250Y-202150000D01*
X286743750Y-202150000D01*
X286722309Y-202148947D01*
X286701074Y-202145797D01*
X286680250Y-202140581D01*
X286660038Y-202133349D01*
X286640632Y-202124170D01*
X286622219Y-202113134D01*
X286604976Y-202100346D01*
X286589070Y-202085930D01*
X286574654Y-202070024D01*
X286561866Y-202052781D01*
X286550830Y-202034368D01*
X286541651Y-202014962D01*
X286534419Y-201994750D01*
X286529203Y-201973926D01*
X286526053Y-201952691D01*
X286525000Y-201931250D01*
X286525000Y-201493750D01*
X286526053Y-201472309D01*
X286529203Y-201451074D01*
X286534419Y-201430250D01*
X286541651Y-201410038D01*
X286550830Y-201390632D01*
X286561866Y-201372219D01*
X286574654Y-201354976D01*
X286589070Y-201339070D01*
X286604976Y-201324654D01*
X286622219Y-201311866D01*
X286640632Y-201300830D01*
X286660038Y-201291651D01*
X286680250Y-201284419D01*
X286701074Y-201279203D01*
X286722309Y-201276053D01*
X286743750Y-201275000D01*
X287256250Y-201275000D01*
X287277691Y-201276053D01*
X287277691Y-201276053D01*
G37*
D11*
X287000000Y-201712500D03*
D10*
G36*
X274777691Y-160888553D02*
G01*
X274798926Y-160891703D01*
X274819750Y-160896919D01*
X274839962Y-160904151D01*
X274859368Y-160913330D01*
X274877781Y-160924366D01*
X274895024Y-160937154D01*
X274910930Y-160951570D01*
X274925346Y-160967476D01*
X274938134Y-160984719D01*
X274949170Y-161003132D01*
X274958349Y-161022538D01*
X274965581Y-161042750D01*
X274970797Y-161063574D01*
X274973947Y-161084809D01*
X274975000Y-161106250D01*
X274975000Y-161543750D01*
X274973947Y-161565191D01*
X274970797Y-161586426D01*
X274965581Y-161607250D01*
X274958349Y-161627462D01*
X274949170Y-161646868D01*
X274938134Y-161665281D01*
X274925346Y-161682524D01*
X274910930Y-161698430D01*
X274895024Y-161712846D01*
X274877781Y-161725634D01*
X274859368Y-161736670D01*
X274839962Y-161745849D01*
X274819750Y-161753081D01*
X274798926Y-161758297D01*
X274777691Y-161761447D01*
X274756250Y-161762500D01*
X274243750Y-161762500D01*
X274222309Y-161761447D01*
X274201074Y-161758297D01*
X274180250Y-161753081D01*
X274160038Y-161745849D01*
X274140632Y-161736670D01*
X274122219Y-161725634D01*
X274104976Y-161712846D01*
X274089070Y-161698430D01*
X274074654Y-161682524D01*
X274061866Y-161665281D01*
X274050830Y-161646868D01*
X274041651Y-161627462D01*
X274034419Y-161607250D01*
X274029203Y-161586426D01*
X274026053Y-161565191D01*
X274025000Y-161543750D01*
X274025000Y-161106250D01*
X274026053Y-161084809D01*
X274029203Y-161063574D01*
X274034419Y-161042750D01*
X274041651Y-161022538D01*
X274050830Y-161003132D01*
X274061866Y-160984719D01*
X274074654Y-160967476D01*
X274089070Y-160951570D01*
X274104976Y-160937154D01*
X274122219Y-160924366D01*
X274140632Y-160913330D01*
X274160038Y-160904151D01*
X274180250Y-160896919D01*
X274201074Y-160891703D01*
X274222309Y-160888553D01*
X274243750Y-160887500D01*
X274756250Y-160887500D01*
X274777691Y-160888553D01*
X274777691Y-160888553D01*
G37*
D11*
X274500000Y-161325000D03*
D10*
G36*
X274777691Y-159313553D02*
G01*
X274798926Y-159316703D01*
X274819750Y-159321919D01*
X274839962Y-159329151D01*
X274859368Y-159338330D01*
X274877781Y-159349366D01*
X274895024Y-159362154D01*
X274910930Y-159376570D01*
X274925346Y-159392476D01*
X274938134Y-159409719D01*
X274949170Y-159428132D01*
X274958349Y-159447538D01*
X274965581Y-159467750D01*
X274970797Y-159488574D01*
X274973947Y-159509809D01*
X274975000Y-159531250D01*
X274975000Y-159968750D01*
X274973947Y-159990191D01*
X274970797Y-160011426D01*
X274965581Y-160032250D01*
X274958349Y-160052462D01*
X274949170Y-160071868D01*
X274938134Y-160090281D01*
X274925346Y-160107524D01*
X274910930Y-160123430D01*
X274895024Y-160137846D01*
X274877781Y-160150634D01*
X274859368Y-160161670D01*
X274839962Y-160170849D01*
X274819750Y-160178081D01*
X274798926Y-160183297D01*
X274777691Y-160186447D01*
X274756250Y-160187500D01*
X274243750Y-160187500D01*
X274222309Y-160186447D01*
X274201074Y-160183297D01*
X274180250Y-160178081D01*
X274160038Y-160170849D01*
X274140632Y-160161670D01*
X274122219Y-160150634D01*
X274104976Y-160137846D01*
X274089070Y-160123430D01*
X274074654Y-160107524D01*
X274061866Y-160090281D01*
X274050830Y-160071868D01*
X274041651Y-160052462D01*
X274034419Y-160032250D01*
X274029203Y-160011426D01*
X274026053Y-159990191D01*
X274025000Y-159968750D01*
X274025000Y-159531250D01*
X274026053Y-159509809D01*
X274029203Y-159488574D01*
X274034419Y-159467750D01*
X274041651Y-159447538D01*
X274050830Y-159428132D01*
X274061866Y-159409719D01*
X274074654Y-159392476D01*
X274089070Y-159376570D01*
X274104976Y-159362154D01*
X274122219Y-159349366D01*
X274140632Y-159338330D01*
X274160038Y-159329151D01*
X274180250Y-159321919D01*
X274201074Y-159316703D01*
X274222309Y-159313553D01*
X274243750Y-159312500D01*
X274756250Y-159312500D01*
X274777691Y-159313553D01*
X274777691Y-159313553D01*
G37*
D11*
X274500000Y-159750000D03*
D10*
G36*
X279777691Y-159313553D02*
G01*
X279798926Y-159316703D01*
X279819750Y-159321919D01*
X279839962Y-159329151D01*
X279859368Y-159338330D01*
X279877781Y-159349366D01*
X279895024Y-159362154D01*
X279910930Y-159376570D01*
X279925346Y-159392476D01*
X279938134Y-159409719D01*
X279949170Y-159428132D01*
X279958349Y-159447538D01*
X279965581Y-159467750D01*
X279970797Y-159488574D01*
X279973947Y-159509809D01*
X279975000Y-159531250D01*
X279975000Y-159968750D01*
X279973947Y-159990191D01*
X279970797Y-160011426D01*
X279965581Y-160032250D01*
X279958349Y-160052462D01*
X279949170Y-160071868D01*
X279938134Y-160090281D01*
X279925346Y-160107524D01*
X279910930Y-160123430D01*
X279895024Y-160137846D01*
X279877781Y-160150634D01*
X279859368Y-160161670D01*
X279839962Y-160170849D01*
X279819750Y-160178081D01*
X279798926Y-160183297D01*
X279777691Y-160186447D01*
X279756250Y-160187500D01*
X279243750Y-160187500D01*
X279222309Y-160186447D01*
X279201074Y-160183297D01*
X279180250Y-160178081D01*
X279160038Y-160170849D01*
X279140632Y-160161670D01*
X279122219Y-160150634D01*
X279104976Y-160137846D01*
X279089070Y-160123430D01*
X279074654Y-160107524D01*
X279061866Y-160090281D01*
X279050830Y-160071868D01*
X279041651Y-160052462D01*
X279034419Y-160032250D01*
X279029203Y-160011426D01*
X279026053Y-159990191D01*
X279025000Y-159968750D01*
X279025000Y-159531250D01*
X279026053Y-159509809D01*
X279029203Y-159488574D01*
X279034419Y-159467750D01*
X279041651Y-159447538D01*
X279050830Y-159428132D01*
X279061866Y-159409719D01*
X279074654Y-159392476D01*
X279089070Y-159376570D01*
X279104976Y-159362154D01*
X279122219Y-159349366D01*
X279140632Y-159338330D01*
X279160038Y-159329151D01*
X279180250Y-159321919D01*
X279201074Y-159316703D01*
X279222309Y-159313553D01*
X279243750Y-159312500D01*
X279756250Y-159312500D01*
X279777691Y-159313553D01*
X279777691Y-159313553D01*
G37*
D11*
X279500000Y-159750000D03*
D10*
G36*
X279777691Y-160888553D02*
G01*
X279798926Y-160891703D01*
X279819750Y-160896919D01*
X279839962Y-160904151D01*
X279859368Y-160913330D01*
X279877781Y-160924366D01*
X279895024Y-160937154D01*
X279910930Y-160951570D01*
X279925346Y-160967476D01*
X279938134Y-160984719D01*
X279949170Y-161003132D01*
X279958349Y-161022538D01*
X279965581Y-161042750D01*
X279970797Y-161063574D01*
X279973947Y-161084809D01*
X279975000Y-161106250D01*
X279975000Y-161543750D01*
X279973947Y-161565191D01*
X279970797Y-161586426D01*
X279965581Y-161607250D01*
X279958349Y-161627462D01*
X279949170Y-161646868D01*
X279938134Y-161665281D01*
X279925346Y-161682524D01*
X279910930Y-161698430D01*
X279895024Y-161712846D01*
X279877781Y-161725634D01*
X279859368Y-161736670D01*
X279839962Y-161745849D01*
X279819750Y-161753081D01*
X279798926Y-161758297D01*
X279777691Y-161761447D01*
X279756250Y-161762500D01*
X279243750Y-161762500D01*
X279222309Y-161761447D01*
X279201074Y-161758297D01*
X279180250Y-161753081D01*
X279160038Y-161745849D01*
X279140632Y-161736670D01*
X279122219Y-161725634D01*
X279104976Y-161712846D01*
X279089070Y-161698430D01*
X279074654Y-161682524D01*
X279061866Y-161665281D01*
X279050830Y-161646868D01*
X279041651Y-161627462D01*
X279034419Y-161607250D01*
X279029203Y-161586426D01*
X279026053Y-161565191D01*
X279025000Y-161543750D01*
X279025000Y-161106250D01*
X279026053Y-161084809D01*
X279029203Y-161063574D01*
X279034419Y-161042750D01*
X279041651Y-161022538D01*
X279050830Y-161003132D01*
X279061866Y-160984719D01*
X279074654Y-160967476D01*
X279089070Y-160951570D01*
X279104976Y-160937154D01*
X279122219Y-160924366D01*
X279140632Y-160913330D01*
X279160038Y-160904151D01*
X279180250Y-160896919D01*
X279201074Y-160891703D01*
X279222309Y-160888553D01*
X279243750Y-160887500D01*
X279756250Y-160887500D01*
X279777691Y-160888553D01*
X279777691Y-160888553D01*
G37*
D11*
X279500000Y-161325000D03*
D10*
G36*
X287777691Y-159313553D02*
G01*
X287798926Y-159316703D01*
X287819750Y-159321919D01*
X287839962Y-159329151D01*
X287859368Y-159338330D01*
X287877781Y-159349366D01*
X287895024Y-159362154D01*
X287910930Y-159376570D01*
X287925346Y-159392476D01*
X287938134Y-159409719D01*
X287949170Y-159428132D01*
X287958349Y-159447538D01*
X287965581Y-159467750D01*
X287970797Y-159488574D01*
X287973947Y-159509809D01*
X287975000Y-159531250D01*
X287975000Y-159968750D01*
X287973947Y-159990191D01*
X287970797Y-160011426D01*
X287965581Y-160032250D01*
X287958349Y-160052462D01*
X287949170Y-160071868D01*
X287938134Y-160090281D01*
X287925346Y-160107524D01*
X287910930Y-160123430D01*
X287895024Y-160137846D01*
X287877781Y-160150634D01*
X287859368Y-160161670D01*
X287839962Y-160170849D01*
X287819750Y-160178081D01*
X287798926Y-160183297D01*
X287777691Y-160186447D01*
X287756250Y-160187500D01*
X287243750Y-160187500D01*
X287222309Y-160186447D01*
X287201074Y-160183297D01*
X287180250Y-160178081D01*
X287160038Y-160170849D01*
X287140632Y-160161670D01*
X287122219Y-160150634D01*
X287104976Y-160137846D01*
X287089070Y-160123430D01*
X287074654Y-160107524D01*
X287061866Y-160090281D01*
X287050830Y-160071868D01*
X287041651Y-160052462D01*
X287034419Y-160032250D01*
X287029203Y-160011426D01*
X287026053Y-159990191D01*
X287025000Y-159968750D01*
X287025000Y-159531250D01*
X287026053Y-159509809D01*
X287029203Y-159488574D01*
X287034419Y-159467750D01*
X287041651Y-159447538D01*
X287050830Y-159428132D01*
X287061866Y-159409719D01*
X287074654Y-159392476D01*
X287089070Y-159376570D01*
X287104976Y-159362154D01*
X287122219Y-159349366D01*
X287140632Y-159338330D01*
X287160038Y-159329151D01*
X287180250Y-159321919D01*
X287201074Y-159316703D01*
X287222309Y-159313553D01*
X287243750Y-159312500D01*
X287756250Y-159312500D01*
X287777691Y-159313553D01*
X287777691Y-159313553D01*
G37*
D11*
X287500000Y-159750000D03*
D10*
G36*
X287777691Y-160888553D02*
G01*
X287798926Y-160891703D01*
X287819750Y-160896919D01*
X287839962Y-160904151D01*
X287859368Y-160913330D01*
X287877781Y-160924366D01*
X287895024Y-160937154D01*
X287910930Y-160951570D01*
X287925346Y-160967476D01*
X287938134Y-160984719D01*
X287949170Y-161003132D01*
X287958349Y-161022538D01*
X287965581Y-161042750D01*
X287970797Y-161063574D01*
X287973947Y-161084809D01*
X287975000Y-161106250D01*
X287975000Y-161543750D01*
X287973947Y-161565191D01*
X287970797Y-161586426D01*
X287965581Y-161607250D01*
X287958349Y-161627462D01*
X287949170Y-161646868D01*
X287938134Y-161665281D01*
X287925346Y-161682524D01*
X287910930Y-161698430D01*
X287895024Y-161712846D01*
X287877781Y-161725634D01*
X287859368Y-161736670D01*
X287839962Y-161745849D01*
X287819750Y-161753081D01*
X287798926Y-161758297D01*
X287777691Y-161761447D01*
X287756250Y-161762500D01*
X287243750Y-161762500D01*
X287222309Y-161761447D01*
X287201074Y-161758297D01*
X287180250Y-161753081D01*
X287160038Y-161745849D01*
X287140632Y-161736670D01*
X287122219Y-161725634D01*
X287104976Y-161712846D01*
X287089070Y-161698430D01*
X287074654Y-161682524D01*
X287061866Y-161665281D01*
X287050830Y-161646868D01*
X287041651Y-161627462D01*
X287034419Y-161607250D01*
X287029203Y-161586426D01*
X287026053Y-161565191D01*
X287025000Y-161543750D01*
X287025000Y-161106250D01*
X287026053Y-161084809D01*
X287029203Y-161063574D01*
X287034419Y-161042750D01*
X287041651Y-161022538D01*
X287050830Y-161003132D01*
X287061866Y-160984719D01*
X287074654Y-160967476D01*
X287089070Y-160951570D01*
X287104976Y-160937154D01*
X287122219Y-160924366D01*
X287140632Y-160913330D01*
X287160038Y-160904151D01*
X287180250Y-160896919D01*
X287201074Y-160891703D01*
X287222309Y-160888553D01*
X287243750Y-160887500D01*
X287756250Y-160887500D01*
X287777691Y-160888553D01*
X287777691Y-160888553D01*
G37*
D11*
X287500000Y-161325000D03*
D10*
G36*
X227990191Y-168526053D02*
G01*
X228011426Y-168529203D01*
X228032250Y-168534419D01*
X228052462Y-168541651D01*
X228071868Y-168550830D01*
X228090281Y-168561866D01*
X228107524Y-168574654D01*
X228123430Y-168589070D01*
X228137846Y-168604976D01*
X228150634Y-168622219D01*
X228161670Y-168640632D01*
X228170849Y-168660038D01*
X228178081Y-168680250D01*
X228183297Y-168701074D01*
X228186447Y-168722309D01*
X228187500Y-168743750D01*
X228187500Y-169256250D01*
X228186447Y-169277691D01*
X228183297Y-169298926D01*
X228178081Y-169319750D01*
X228170849Y-169339962D01*
X228161670Y-169359368D01*
X228150634Y-169377781D01*
X228137846Y-169395024D01*
X228123430Y-169410930D01*
X228107524Y-169425346D01*
X228090281Y-169438134D01*
X228071868Y-169449170D01*
X228052462Y-169458349D01*
X228032250Y-169465581D01*
X228011426Y-169470797D01*
X227990191Y-169473947D01*
X227968750Y-169475000D01*
X227531250Y-169475000D01*
X227509809Y-169473947D01*
X227488574Y-169470797D01*
X227467750Y-169465581D01*
X227447538Y-169458349D01*
X227428132Y-169449170D01*
X227409719Y-169438134D01*
X227392476Y-169425346D01*
X227376570Y-169410930D01*
X227362154Y-169395024D01*
X227349366Y-169377781D01*
X227338330Y-169359368D01*
X227329151Y-169339962D01*
X227321919Y-169319750D01*
X227316703Y-169298926D01*
X227313553Y-169277691D01*
X227312500Y-169256250D01*
X227312500Y-168743750D01*
X227313553Y-168722309D01*
X227316703Y-168701074D01*
X227321919Y-168680250D01*
X227329151Y-168660038D01*
X227338330Y-168640632D01*
X227349366Y-168622219D01*
X227362154Y-168604976D01*
X227376570Y-168589070D01*
X227392476Y-168574654D01*
X227409719Y-168561866D01*
X227428132Y-168550830D01*
X227447538Y-168541651D01*
X227467750Y-168534419D01*
X227488574Y-168529203D01*
X227509809Y-168526053D01*
X227531250Y-168525000D01*
X227968750Y-168525000D01*
X227990191Y-168526053D01*
X227990191Y-168526053D01*
G37*
D11*
X227750000Y-169000000D03*
D10*
G36*
X226415191Y-168526053D02*
G01*
X226436426Y-168529203D01*
X226457250Y-168534419D01*
X226477462Y-168541651D01*
X226496868Y-168550830D01*
X226515281Y-168561866D01*
X226532524Y-168574654D01*
X226548430Y-168589070D01*
X226562846Y-168604976D01*
X226575634Y-168622219D01*
X226586670Y-168640632D01*
X226595849Y-168660038D01*
X226603081Y-168680250D01*
X226608297Y-168701074D01*
X226611447Y-168722309D01*
X226612500Y-168743750D01*
X226612500Y-169256250D01*
X226611447Y-169277691D01*
X226608297Y-169298926D01*
X226603081Y-169319750D01*
X226595849Y-169339962D01*
X226586670Y-169359368D01*
X226575634Y-169377781D01*
X226562846Y-169395024D01*
X226548430Y-169410930D01*
X226532524Y-169425346D01*
X226515281Y-169438134D01*
X226496868Y-169449170D01*
X226477462Y-169458349D01*
X226457250Y-169465581D01*
X226436426Y-169470797D01*
X226415191Y-169473947D01*
X226393750Y-169475000D01*
X225956250Y-169475000D01*
X225934809Y-169473947D01*
X225913574Y-169470797D01*
X225892750Y-169465581D01*
X225872538Y-169458349D01*
X225853132Y-169449170D01*
X225834719Y-169438134D01*
X225817476Y-169425346D01*
X225801570Y-169410930D01*
X225787154Y-169395024D01*
X225774366Y-169377781D01*
X225763330Y-169359368D01*
X225754151Y-169339962D01*
X225746919Y-169319750D01*
X225741703Y-169298926D01*
X225738553Y-169277691D01*
X225737500Y-169256250D01*
X225737500Y-168743750D01*
X225738553Y-168722309D01*
X225741703Y-168701074D01*
X225746919Y-168680250D01*
X225754151Y-168660038D01*
X225763330Y-168640632D01*
X225774366Y-168622219D01*
X225787154Y-168604976D01*
X225801570Y-168589070D01*
X225817476Y-168574654D01*
X225834719Y-168561866D01*
X225853132Y-168550830D01*
X225872538Y-168541651D01*
X225892750Y-168534419D01*
X225913574Y-168529203D01*
X225934809Y-168526053D01*
X225956250Y-168525000D01*
X226393750Y-168525000D01*
X226415191Y-168526053D01*
X226415191Y-168526053D01*
G37*
D11*
X226175000Y-169000000D03*
D10*
G36*
X228777691Y-172101053D02*
G01*
X228798926Y-172104203D01*
X228819750Y-172109419D01*
X228839962Y-172116651D01*
X228859368Y-172125830D01*
X228877781Y-172136866D01*
X228895024Y-172149654D01*
X228910930Y-172164070D01*
X228925346Y-172179976D01*
X228938134Y-172197219D01*
X228949170Y-172215632D01*
X228958349Y-172235038D01*
X228965581Y-172255250D01*
X228970797Y-172276074D01*
X228973947Y-172297309D01*
X228975000Y-172318750D01*
X228975000Y-172756250D01*
X228973947Y-172777691D01*
X228970797Y-172798926D01*
X228965581Y-172819750D01*
X228958349Y-172839962D01*
X228949170Y-172859368D01*
X228938134Y-172877781D01*
X228925346Y-172895024D01*
X228910930Y-172910930D01*
X228895024Y-172925346D01*
X228877781Y-172938134D01*
X228859368Y-172949170D01*
X228839962Y-172958349D01*
X228819750Y-172965581D01*
X228798926Y-172970797D01*
X228777691Y-172973947D01*
X228756250Y-172975000D01*
X228243750Y-172975000D01*
X228222309Y-172973947D01*
X228201074Y-172970797D01*
X228180250Y-172965581D01*
X228160038Y-172958349D01*
X228140632Y-172949170D01*
X228122219Y-172938134D01*
X228104976Y-172925346D01*
X228089070Y-172910930D01*
X228074654Y-172895024D01*
X228061866Y-172877781D01*
X228050830Y-172859368D01*
X228041651Y-172839962D01*
X228034419Y-172819750D01*
X228029203Y-172798926D01*
X228026053Y-172777691D01*
X228025000Y-172756250D01*
X228025000Y-172318750D01*
X228026053Y-172297309D01*
X228029203Y-172276074D01*
X228034419Y-172255250D01*
X228041651Y-172235038D01*
X228050830Y-172215632D01*
X228061866Y-172197219D01*
X228074654Y-172179976D01*
X228089070Y-172164070D01*
X228104976Y-172149654D01*
X228122219Y-172136866D01*
X228140632Y-172125830D01*
X228160038Y-172116651D01*
X228180250Y-172109419D01*
X228201074Y-172104203D01*
X228222309Y-172101053D01*
X228243750Y-172100000D01*
X228756250Y-172100000D01*
X228777691Y-172101053D01*
X228777691Y-172101053D01*
G37*
D11*
X228500000Y-172537500D03*
D10*
G36*
X228777691Y-170526053D02*
G01*
X228798926Y-170529203D01*
X228819750Y-170534419D01*
X228839962Y-170541651D01*
X228859368Y-170550830D01*
X228877781Y-170561866D01*
X228895024Y-170574654D01*
X228910930Y-170589070D01*
X228925346Y-170604976D01*
X228938134Y-170622219D01*
X228949170Y-170640632D01*
X228958349Y-170660038D01*
X228965581Y-170680250D01*
X228970797Y-170701074D01*
X228973947Y-170722309D01*
X228975000Y-170743750D01*
X228975000Y-171181250D01*
X228973947Y-171202691D01*
X228970797Y-171223926D01*
X228965581Y-171244750D01*
X228958349Y-171264962D01*
X228949170Y-171284368D01*
X228938134Y-171302781D01*
X228925346Y-171320024D01*
X228910930Y-171335930D01*
X228895024Y-171350346D01*
X228877781Y-171363134D01*
X228859368Y-171374170D01*
X228839962Y-171383349D01*
X228819750Y-171390581D01*
X228798926Y-171395797D01*
X228777691Y-171398947D01*
X228756250Y-171400000D01*
X228243750Y-171400000D01*
X228222309Y-171398947D01*
X228201074Y-171395797D01*
X228180250Y-171390581D01*
X228160038Y-171383349D01*
X228140632Y-171374170D01*
X228122219Y-171363134D01*
X228104976Y-171350346D01*
X228089070Y-171335930D01*
X228074654Y-171320024D01*
X228061866Y-171302781D01*
X228050830Y-171284368D01*
X228041651Y-171264962D01*
X228034419Y-171244750D01*
X228029203Y-171223926D01*
X228026053Y-171202691D01*
X228025000Y-171181250D01*
X228025000Y-170743750D01*
X228026053Y-170722309D01*
X228029203Y-170701074D01*
X228034419Y-170680250D01*
X228041651Y-170660038D01*
X228050830Y-170640632D01*
X228061866Y-170622219D01*
X228074654Y-170604976D01*
X228089070Y-170589070D01*
X228104976Y-170574654D01*
X228122219Y-170561866D01*
X228140632Y-170550830D01*
X228160038Y-170541651D01*
X228180250Y-170534419D01*
X228201074Y-170529203D01*
X228222309Y-170526053D01*
X228243750Y-170525000D01*
X228756250Y-170525000D01*
X228777691Y-170526053D01*
X228777691Y-170526053D01*
G37*
D11*
X228500000Y-170962500D03*
D10*
G36*
X230777691Y-170526053D02*
G01*
X230798926Y-170529203D01*
X230819750Y-170534419D01*
X230839962Y-170541651D01*
X230859368Y-170550830D01*
X230877781Y-170561866D01*
X230895024Y-170574654D01*
X230910930Y-170589070D01*
X230925346Y-170604976D01*
X230938134Y-170622219D01*
X230949170Y-170640632D01*
X230958349Y-170660038D01*
X230965581Y-170680250D01*
X230970797Y-170701074D01*
X230973947Y-170722309D01*
X230975000Y-170743750D01*
X230975000Y-171181250D01*
X230973947Y-171202691D01*
X230970797Y-171223926D01*
X230965581Y-171244750D01*
X230958349Y-171264962D01*
X230949170Y-171284368D01*
X230938134Y-171302781D01*
X230925346Y-171320024D01*
X230910930Y-171335930D01*
X230895024Y-171350346D01*
X230877781Y-171363134D01*
X230859368Y-171374170D01*
X230839962Y-171383349D01*
X230819750Y-171390581D01*
X230798926Y-171395797D01*
X230777691Y-171398947D01*
X230756250Y-171400000D01*
X230243750Y-171400000D01*
X230222309Y-171398947D01*
X230201074Y-171395797D01*
X230180250Y-171390581D01*
X230160038Y-171383349D01*
X230140632Y-171374170D01*
X230122219Y-171363134D01*
X230104976Y-171350346D01*
X230089070Y-171335930D01*
X230074654Y-171320024D01*
X230061866Y-171302781D01*
X230050830Y-171284368D01*
X230041651Y-171264962D01*
X230034419Y-171244750D01*
X230029203Y-171223926D01*
X230026053Y-171202691D01*
X230025000Y-171181250D01*
X230025000Y-170743750D01*
X230026053Y-170722309D01*
X230029203Y-170701074D01*
X230034419Y-170680250D01*
X230041651Y-170660038D01*
X230050830Y-170640632D01*
X230061866Y-170622219D01*
X230074654Y-170604976D01*
X230089070Y-170589070D01*
X230104976Y-170574654D01*
X230122219Y-170561866D01*
X230140632Y-170550830D01*
X230160038Y-170541651D01*
X230180250Y-170534419D01*
X230201074Y-170529203D01*
X230222309Y-170526053D01*
X230243750Y-170525000D01*
X230756250Y-170525000D01*
X230777691Y-170526053D01*
X230777691Y-170526053D01*
G37*
D11*
X230500000Y-170962500D03*
D10*
G36*
X230777691Y-172101053D02*
G01*
X230798926Y-172104203D01*
X230819750Y-172109419D01*
X230839962Y-172116651D01*
X230859368Y-172125830D01*
X230877781Y-172136866D01*
X230895024Y-172149654D01*
X230910930Y-172164070D01*
X230925346Y-172179976D01*
X230938134Y-172197219D01*
X230949170Y-172215632D01*
X230958349Y-172235038D01*
X230965581Y-172255250D01*
X230970797Y-172276074D01*
X230973947Y-172297309D01*
X230975000Y-172318750D01*
X230975000Y-172756250D01*
X230973947Y-172777691D01*
X230970797Y-172798926D01*
X230965581Y-172819750D01*
X230958349Y-172839962D01*
X230949170Y-172859368D01*
X230938134Y-172877781D01*
X230925346Y-172895024D01*
X230910930Y-172910930D01*
X230895024Y-172925346D01*
X230877781Y-172938134D01*
X230859368Y-172949170D01*
X230839962Y-172958349D01*
X230819750Y-172965581D01*
X230798926Y-172970797D01*
X230777691Y-172973947D01*
X230756250Y-172975000D01*
X230243750Y-172975000D01*
X230222309Y-172973947D01*
X230201074Y-172970797D01*
X230180250Y-172965581D01*
X230160038Y-172958349D01*
X230140632Y-172949170D01*
X230122219Y-172938134D01*
X230104976Y-172925346D01*
X230089070Y-172910930D01*
X230074654Y-172895024D01*
X230061866Y-172877781D01*
X230050830Y-172859368D01*
X230041651Y-172839962D01*
X230034419Y-172819750D01*
X230029203Y-172798926D01*
X230026053Y-172777691D01*
X230025000Y-172756250D01*
X230025000Y-172318750D01*
X230026053Y-172297309D01*
X230029203Y-172276074D01*
X230034419Y-172255250D01*
X230041651Y-172235038D01*
X230050830Y-172215632D01*
X230061866Y-172197219D01*
X230074654Y-172179976D01*
X230089070Y-172164070D01*
X230104976Y-172149654D01*
X230122219Y-172136866D01*
X230140632Y-172125830D01*
X230160038Y-172116651D01*
X230180250Y-172109419D01*
X230201074Y-172104203D01*
X230222309Y-172101053D01*
X230243750Y-172100000D01*
X230756250Y-172100000D01*
X230777691Y-172101053D01*
X230777691Y-172101053D01*
G37*
D11*
X230500000Y-172537500D03*
D10*
G36*
X230777691Y-175313553D02*
G01*
X230798926Y-175316703D01*
X230819750Y-175321919D01*
X230839962Y-175329151D01*
X230859368Y-175338330D01*
X230877781Y-175349366D01*
X230895024Y-175362154D01*
X230910930Y-175376570D01*
X230925346Y-175392476D01*
X230938134Y-175409719D01*
X230949170Y-175428132D01*
X230958349Y-175447538D01*
X230965581Y-175467750D01*
X230970797Y-175488574D01*
X230973947Y-175509809D01*
X230975000Y-175531250D01*
X230975000Y-175968750D01*
X230973947Y-175990191D01*
X230970797Y-176011426D01*
X230965581Y-176032250D01*
X230958349Y-176052462D01*
X230949170Y-176071868D01*
X230938134Y-176090281D01*
X230925346Y-176107524D01*
X230910930Y-176123430D01*
X230895024Y-176137846D01*
X230877781Y-176150634D01*
X230859368Y-176161670D01*
X230839962Y-176170849D01*
X230819750Y-176178081D01*
X230798926Y-176183297D01*
X230777691Y-176186447D01*
X230756250Y-176187500D01*
X230243750Y-176187500D01*
X230222309Y-176186447D01*
X230201074Y-176183297D01*
X230180250Y-176178081D01*
X230160038Y-176170849D01*
X230140632Y-176161670D01*
X230122219Y-176150634D01*
X230104976Y-176137846D01*
X230089070Y-176123430D01*
X230074654Y-176107524D01*
X230061866Y-176090281D01*
X230050830Y-176071868D01*
X230041651Y-176052462D01*
X230034419Y-176032250D01*
X230029203Y-176011426D01*
X230026053Y-175990191D01*
X230025000Y-175968750D01*
X230025000Y-175531250D01*
X230026053Y-175509809D01*
X230029203Y-175488574D01*
X230034419Y-175467750D01*
X230041651Y-175447538D01*
X230050830Y-175428132D01*
X230061866Y-175409719D01*
X230074654Y-175392476D01*
X230089070Y-175376570D01*
X230104976Y-175362154D01*
X230122219Y-175349366D01*
X230140632Y-175338330D01*
X230160038Y-175329151D01*
X230180250Y-175321919D01*
X230201074Y-175316703D01*
X230222309Y-175313553D01*
X230243750Y-175312500D01*
X230756250Y-175312500D01*
X230777691Y-175313553D01*
X230777691Y-175313553D01*
G37*
D11*
X230500000Y-175750000D03*
D10*
G36*
X230777691Y-176888553D02*
G01*
X230798926Y-176891703D01*
X230819750Y-176896919D01*
X230839962Y-176904151D01*
X230859368Y-176913330D01*
X230877781Y-176924366D01*
X230895024Y-176937154D01*
X230910930Y-176951570D01*
X230925346Y-176967476D01*
X230938134Y-176984719D01*
X230949170Y-177003132D01*
X230958349Y-177022538D01*
X230965581Y-177042750D01*
X230970797Y-177063574D01*
X230973947Y-177084809D01*
X230975000Y-177106250D01*
X230975000Y-177543750D01*
X230973947Y-177565191D01*
X230970797Y-177586426D01*
X230965581Y-177607250D01*
X230958349Y-177627462D01*
X230949170Y-177646868D01*
X230938134Y-177665281D01*
X230925346Y-177682524D01*
X230910930Y-177698430D01*
X230895024Y-177712846D01*
X230877781Y-177725634D01*
X230859368Y-177736670D01*
X230839962Y-177745849D01*
X230819750Y-177753081D01*
X230798926Y-177758297D01*
X230777691Y-177761447D01*
X230756250Y-177762500D01*
X230243750Y-177762500D01*
X230222309Y-177761447D01*
X230201074Y-177758297D01*
X230180250Y-177753081D01*
X230160038Y-177745849D01*
X230140632Y-177736670D01*
X230122219Y-177725634D01*
X230104976Y-177712846D01*
X230089070Y-177698430D01*
X230074654Y-177682524D01*
X230061866Y-177665281D01*
X230050830Y-177646868D01*
X230041651Y-177627462D01*
X230034419Y-177607250D01*
X230029203Y-177586426D01*
X230026053Y-177565191D01*
X230025000Y-177543750D01*
X230025000Y-177106250D01*
X230026053Y-177084809D01*
X230029203Y-177063574D01*
X230034419Y-177042750D01*
X230041651Y-177022538D01*
X230050830Y-177003132D01*
X230061866Y-176984719D01*
X230074654Y-176967476D01*
X230089070Y-176951570D01*
X230104976Y-176937154D01*
X230122219Y-176924366D01*
X230140632Y-176913330D01*
X230160038Y-176904151D01*
X230180250Y-176896919D01*
X230201074Y-176891703D01*
X230222309Y-176888553D01*
X230243750Y-176887500D01*
X230756250Y-176887500D01*
X230777691Y-176888553D01*
X230777691Y-176888553D01*
G37*
D11*
X230500000Y-177325000D03*
D10*
G36*
X227165191Y-175276053D02*
G01*
X227186426Y-175279203D01*
X227207250Y-175284419D01*
X227227462Y-175291651D01*
X227246868Y-175300830D01*
X227265281Y-175311866D01*
X227282524Y-175324654D01*
X227298430Y-175339070D01*
X227312846Y-175354976D01*
X227325634Y-175372219D01*
X227336670Y-175390632D01*
X227345849Y-175410038D01*
X227353081Y-175430250D01*
X227358297Y-175451074D01*
X227361447Y-175472309D01*
X227362500Y-175493750D01*
X227362500Y-176006250D01*
X227361447Y-176027691D01*
X227358297Y-176048926D01*
X227353081Y-176069750D01*
X227345849Y-176089962D01*
X227336670Y-176109368D01*
X227325634Y-176127781D01*
X227312846Y-176145024D01*
X227298430Y-176160930D01*
X227282524Y-176175346D01*
X227265281Y-176188134D01*
X227246868Y-176199170D01*
X227227462Y-176208349D01*
X227207250Y-176215581D01*
X227186426Y-176220797D01*
X227165191Y-176223947D01*
X227143750Y-176225000D01*
X226706250Y-176225000D01*
X226684809Y-176223947D01*
X226663574Y-176220797D01*
X226642750Y-176215581D01*
X226622538Y-176208349D01*
X226603132Y-176199170D01*
X226584719Y-176188134D01*
X226567476Y-176175346D01*
X226551570Y-176160930D01*
X226537154Y-176145024D01*
X226524366Y-176127781D01*
X226513330Y-176109368D01*
X226504151Y-176089962D01*
X226496919Y-176069750D01*
X226491703Y-176048926D01*
X226488553Y-176027691D01*
X226487500Y-176006250D01*
X226487500Y-175493750D01*
X226488553Y-175472309D01*
X226491703Y-175451074D01*
X226496919Y-175430250D01*
X226504151Y-175410038D01*
X226513330Y-175390632D01*
X226524366Y-175372219D01*
X226537154Y-175354976D01*
X226551570Y-175339070D01*
X226567476Y-175324654D01*
X226584719Y-175311866D01*
X226603132Y-175300830D01*
X226622538Y-175291651D01*
X226642750Y-175284419D01*
X226663574Y-175279203D01*
X226684809Y-175276053D01*
X226706250Y-175275000D01*
X227143750Y-175275000D01*
X227165191Y-175276053D01*
X227165191Y-175276053D01*
G37*
D11*
X226925000Y-175750000D03*
D10*
G36*
X228740191Y-175276053D02*
G01*
X228761426Y-175279203D01*
X228782250Y-175284419D01*
X228802462Y-175291651D01*
X228821868Y-175300830D01*
X228840281Y-175311866D01*
X228857524Y-175324654D01*
X228873430Y-175339070D01*
X228887846Y-175354976D01*
X228900634Y-175372219D01*
X228911670Y-175390632D01*
X228920849Y-175410038D01*
X228928081Y-175430250D01*
X228933297Y-175451074D01*
X228936447Y-175472309D01*
X228937500Y-175493750D01*
X228937500Y-176006250D01*
X228936447Y-176027691D01*
X228933297Y-176048926D01*
X228928081Y-176069750D01*
X228920849Y-176089962D01*
X228911670Y-176109368D01*
X228900634Y-176127781D01*
X228887846Y-176145024D01*
X228873430Y-176160930D01*
X228857524Y-176175346D01*
X228840281Y-176188134D01*
X228821868Y-176199170D01*
X228802462Y-176208349D01*
X228782250Y-176215581D01*
X228761426Y-176220797D01*
X228740191Y-176223947D01*
X228718750Y-176225000D01*
X228281250Y-176225000D01*
X228259809Y-176223947D01*
X228238574Y-176220797D01*
X228217750Y-176215581D01*
X228197538Y-176208349D01*
X228178132Y-176199170D01*
X228159719Y-176188134D01*
X228142476Y-176175346D01*
X228126570Y-176160930D01*
X228112154Y-176145024D01*
X228099366Y-176127781D01*
X228088330Y-176109368D01*
X228079151Y-176089962D01*
X228071919Y-176069750D01*
X228066703Y-176048926D01*
X228063553Y-176027691D01*
X228062500Y-176006250D01*
X228062500Y-175493750D01*
X228063553Y-175472309D01*
X228066703Y-175451074D01*
X228071919Y-175430250D01*
X228079151Y-175410038D01*
X228088330Y-175390632D01*
X228099366Y-175372219D01*
X228112154Y-175354976D01*
X228126570Y-175339070D01*
X228142476Y-175324654D01*
X228159719Y-175311866D01*
X228178132Y-175300830D01*
X228197538Y-175291651D01*
X228217750Y-175284419D01*
X228238574Y-175279203D01*
X228259809Y-175276053D01*
X228281250Y-175275000D01*
X228718750Y-175275000D01*
X228740191Y-175276053D01*
X228740191Y-175276053D01*
G37*
D11*
X228500000Y-175750000D03*
D10*
G36*
X227165191Y-177276053D02*
G01*
X227186426Y-177279203D01*
X227207250Y-177284419D01*
X227227462Y-177291651D01*
X227246868Y-177300830D01*
X227265281Y-177311866D01*
X227282524Y-177324654D01*
X227298430Y-177339070D01*
X227312846Y-177354976D01*
X227325634Y-177372219D01*
X227336670Y-177390632D01*
X227345849Y-177410038D01*
X227353081Y-177430250D01*
X227358297Y-177451074D01*
X227361447Y-177472309D01*
X227362500Y-177493750D01*
X227362500Y-178006250D01*
X227361447Y-178027691D01*
X227358297Y-178048926D01*
X227353081Y-178069750D01*
X227345849Y-178089962D01*
X227336670Y-178109368D01*
X227325634Y-178127781D01*
X227312846Y-178145024D01*
X227298430Y-178160930D01*
X227282524Y-178175346D01*
X227265281Y-178188134D01*
X227246868Y-178199170D01*
X227227462Y-178208349D01*
X227207250Y-178215581D01*
X227186426Y-178220797D01*
X227165191Y-178223947D01*
X227143750Y-178225000D01*
X226706250Y-178225000D01*
X226684809Y-178223947D01*
X226663574Y-178220797D01*
X226642750Y-178215581D01*
X226622538Y-178208349D01*
X226603132Y-178199170D01*
X226584719Y-178188134D01*
X226567476Y-178175346D01*
X226551570Y-178160930D01*
X226537154Y-178145024D01*
X226524366Y-178127781D01*
X226513330Y-178109368D01*
X226504151Y-178089962D01*
X226496919Y-178069750D01*
X226491703Y-178048926D01*
X226488553Y-178027691D01*
X226487500Y-178006250D01*
X226487500Y-177493750D01*
X226488553Y-177472309D01*
X226491703Y-177451074D01*
X226496919Y-177430250D01*
X226504151Y-177410038D01*
X226513330Y-177390632D01*
X226524366Y-177372219D01*
X226537154Y-177354976D01*
X226551570Y-177339070D01*
X226567476Y-177324654D01*
X226584719Y-177311866D01*
X226603132Y-177300830D01*
X226622538Y-177291651D01*
X226642750Y-177284419D01*
X226663574Y-177279203D01*
X226684809Y-177276053D01*
X226706250Y-177275000D01*
X227143750Y-177275000D01*
X227165191Y-177276053D01*
X227165191Y-177276053D01*
G37*
D11*
X226925000Y-177750000D03*
D10*
G36*
X228740191Y-177276053D02*
G01*
X228761426Y-177279203D01*
X228782250Y-177284419D01*
X228802462Y-177291651D01*
X228821868Y-177300830D01*
X228840281Y-177311866D01*
X228857524Y-177324654D01*
X228873430Y-177339070D01*
X228887846Y-177354976D01*
X228900634Y-177372219D01*
X228911670Y-177390632D01*
X228920849Y-177410038D01*
X228928081Y-177430250D01*
X228933297Y-177451074D01*
X228936447Y-177472309D01*
X228937500Y-177493750D01*
X228937500Y-178006250D01*
X228936447Y-178027691D01*
X228933297Y-178048926D01*
X228928081Y-178069750D01*
X228920849Y-178089962D01*
X228911670Y-178109368D01*
X228900634Y-178127781D01*
X228887846Y-178145024D01*
X228873430Y-178160930D01*
X228857524Y-178175346D01*
X228840281Y-178188134D01*
X228821868Y-178199170D01*
X228802462Y-178208349D01*
X228782250Y-178215581D01*
X228761426Y-178220797D01*
X228740191Y-178223947D01*
X228718750Y-178225000D01*
X228281250Y-178225000D01*
X228259809Y-178223947D01*
X228238574Y-178220797D01*
X228217750Y-178215581D01*
X228197538Y-178208349D01*
X228178132Y-178199170D01*
X228159719Y-178188134D01*
X228142476Y-178175346D01*
X228126570Y-178160930D01*
X228112154Y-178145024D01*
X228099366Y-178127781D01*
X228088330Y-178109368D01*
X228079151Y-178089962D01*
X228071919Y-178069750D01*
X228066703Y-178048926D01*
X228063553Y-178027691D01*
X228062500Y-178006250D01*
X228062500Y-177493750D01*
X228063553Y-177472309D01*
X228066703Y-177451074D01*
X228071919Y-177430250D01*
X228079151Y-177410038D01*
X228088330Y-177390632D01*
X228099366Y-177372219D01*
X228112154Y-177354976D01*
X228126570Y-177339070D01*
X228142476Y-177324654D01*
X228159719Y-177311866D01*
X228178132Y-177300830D01*
X228197538Y-177291651D01*
X228217750Y-177284419D01*
X228238574Y-177279203D01*
X228259809Y-177276053D01*
X228281250Y-177275000D01*
X228718750Y-177275000D01*
X228740191Y-177276053D01*
X228740191Y-177276053D01*
G37*
D11*
X228500000Y-177750000D03*
D10*
G36*
X237490191Y-168526053D02*
G01*
X237511426Y-168529203D01*
X237532250Y-168534419D01*
X237552462Y-168541651D01*
X237571868Y-168550830D01*
X237590281Y-168561866D01*
X237607524Y-168574654D01*
X237623430Y-168589070D01*
X237637846Y-168604976D01*
X237650634Y-168622219D01*
X237661670Y-168640632D01*
X237670849Y-168660038D01*
X237678081Y-168680250D01*
X237683297Y-168701074D01*
X237686447Y-168722309D01*
X237687500Y-168743750D01*
X237687500Y-169256250D01*
X237686447Y-169277691D01*
X237683297Y-169298926D01*
X237678081Y-169319750D01*
X237670849Y-169339962D01*
X237661670Y-169359368D01*
X237650634Y-169377781D01*
X237637846Y-169395024D01*
X237623430Y-169410930D01*
X237607524Y-169425346D01*
X237590281Y-169438134D01*
X237571868Y-169449170D01*
X237552462Y-169458349D01*
X237532250Y-169465581D01*
X237511426Y-169470797D01*
X237490191Y-169473947D01*
X237468750Y-169475000D01*
X237031250Y-169475000D01*
X237009809Y-169473947D01*
X236988574Y-169470797D01*
X236967750Y-169465581D01*
X236947538Y-169458349D01*
X236928132Y-169449170D01*
X236909719Y-169438134D01*
X236892476Y-169425346D01*
X236876570Y-169410930D01*
X236862154Y-169395024D01*
X236849366Y-169377781D01*
X236838330Y-169359368D01*
X236829151Y-169339962D01*
X236821919Y-169319750D01*
X236816703Y-169298926D01*
X236813553Y-169277691D01*
X236812500Y-169256250D01*
X236812500Y-168743750D01*
X236813553Y-168722309D01*
X236816703Y-168701074D01*
X236821919Y-168680250D01*
X236829151Y-168660038D01*
X236838330Y-168640632D01*
X236849366Y-168622219D01*
X236862154Y-168604976D01*
X236876570Y-168589070D01*
X236892476Y-168574654D01*
X236909719Y-168561866D01*
X236928132Y-168550830D01*
X236947538Y-168541651D01*
X236967750Y-168534419D01*
X236988574Y-168529203D01*
X237009809Y-168526053D01*
X237031250Y-168525000D01*
X237468750Y-168525000D01*
X237490191Y-168526053D01*
X237490191Y-168526053D01*
G37*
D11*
X237250000Y-169000000D03*
D10*
G36*
X235915191Y-168526053D02*
G01*
X235936426Y-168529203D01*
X235957250Y-168534419D01*
X235977462Y-168541651D01*
X235996868Y-168550830D01*
X236015281Y-168561866D01*
X236032524Y-168574654D01*
X236048430Y-168589070D01*
X236062846Y-168604976D01*
X236075634Y-168622219D01*
X236086670Y-168640632D01*
X236095849Y-168660038D01*
X236103081Y-168680250D01*
X236108297Y-168701074D01*
X236111447Y-168722309D01*
X236112500Y-168743750D01*
X236112500Y-169256250D01*
X236111447Y-169277691D01*
X236108297Y-169298926D01*
X236103081Y-169319750D01*
X236095849Y-169339962D01*
X236086670Y-169359368D01*
X236075634Y-169377781D01*
X236062846Y-169395024D01*
X236048430Y-169410930D01*
X236032524Y-169425346D01*
X236015281Y-169438134D01*
X235996868Y-169449170D01*
X235977462Y-169458349D01*
X235957250Y-169465581D01*
X235936426Y-169470797D01*
X235915191Y-169473947D01*
X235893750Y-169475000D01*
X235456250Y-169475000D01*
X235434809Y-169473947D01*
X235413574Y-169470797D01*
X235392750Y-169465581D01*
X235372538Y-169458349D01*
X235353132Y-169449170D01*
X235334719Y-169438134D01*
X235317476Y-169425346D01*
X235301570Y-169410930D01*
X235287154Y-169395024D01*
X235274366Y-169377781D01*
X235263330Y-169359368D01*
X235254151Y-169339962D01*
X235246919Y-169319750D01*
X235241703Y-169298926D01*
X235238553Y-169277691D01*
X235237500Y-169256250D01*
X235237500Y-168743750D01*
X235238553Y-168722309D01*
X235241703Y-168701074D01*
X235246919Y-168680250D01*
X235254151Y-168660038D01*
X235263330Y-168640632D01*
X235274366Y-168622219D01*
X235287154Y-168604976D01*
X235301570Y-168589070D01*
X235317476Y-168574654D01*
X235334719Y-168561866D01*
X235353132Y-168550830D01*
X235372538Y-168541651D01*
X235392750Y-168534419D01*
X235413574Y-168529203D01*
X235434809Y-168526053D01*
X235456250Y-168525000D01*
X235893750Y-168525000D01*
X235915191Y-168526053D01*
X235915191Y-168526053D01*
G37*
D11*
X235675000Y-169000000D03*
D10*
G36*
X236777691Y-170563553D02*
G01*
X236798926Y-170566703D01*
X236819750Y-170571919D01*
X236839962Y-170579151D01*
X236859368Y-170588330D01*
X236877781Y-170599366D01*
X236895024Y-170612154D01*
X236910930Y-170626570D01*
X236925346Y-170642476D01*
X236938134Y-170659719D01*
X236949170Y-170678132D01*
X236958349Y-170697538D01*
X236965581Y-170717750D01*
X236970797Y-170738574D01*
X236973947Y-170759809D01*
X236975000Y-170781250D01*
X236975000Y-171218750D01*
X236973947Y-171240191D01*
X236970797Y-171261426D01*
X236965581Y-171282250D01*
X236958349Y-171302462D01*
X236949170Y-171321868D01*
X236938134Y-171340281D01*
X236925346Y-171357524D01*
X236910930Y-171373430D01*
X236895024Y-171387846D01*
X236877781Y-171400634D01*
X236859368Y-171411670D01*
X236839962Y-171420849D01*
X236819750Y-171428081D01*
X236798926Y-171433297D01*
X236777691Y-171436447D01*
X236756250Y-171437500D01*
X236243750Y-171437500D01*
X236222309Y-171436447D01*
X236201074Y-171433297D01*
X236180250Y-171428081D01*
X236160038Y-171420849D01*
X236140632Y-171411670D01*
X236122219Y-171400634D01*
X236104976Y-171387846D01*
X236089070Y-171373430D01*
X236074654Y-171357524D01*
X236061866Y-171340281D01*
X236050830Y-171321868D01*
X236041651Y-171302462D01*
X236034419Y-171282250D01*
X236029203Y-171261426D01*
X236026053Y-171240191D01*
X236025000Y-171218750D01*
X236025000Y-170781250D01*
X236026053Y-170759809D01*
X236029203Y-170738574D01*
X236034419Y-170717750D01*
X236041651Y-170697538D01*
X236050830Y-170678132D01*
X236061866Y-170659719D01*
X236074654Y-170642476D01*
X236089070Y-170626570D01*
X236104976Y-170612154D01*
X236122219Y-170599366D01*
X236140632Y-170588330D01*
X236160038Y-170579151D01*
X236180250Y-170571919D01*
X236201074Y-170566703D01*
X236222309Y-170563553D01*
X236243750Y-170562500D01*
X236756250Y-170562500D01*
X236777691Y-170563553D01*
X236777691Y-170563553D01*
G37*
D11*
X236500000Y-171000000D03*
D10*
G36*
X236777691Y-172138553D02*
G01*
X236798926Y-172141703D01*
X236819750Y-172146919D01*
X236839962Y-172154151D01*
X236859368Y-172163330D01*
X236877781Y-172174366D01*
X236895024Y-172187154D01*
X236910930Y-172201570D01*
X236925346Y-172217476D01*
X236938134Y-172234719D01*
X236949170Y-172253132D01*
X236958349Y-172272538D01*
X236965581Y-172292750D01*
X236970797Y-172313574D01*
X236973947Y-172334809D01*
X236975000Y-172356250D01*
X236975000Y-172793750D01*
X236973947Y-172815191D01*
X236970797Y-172836426D01*
X236965581Y-172857250D01*
X236958349Y-172877462D01*
X236949170Y-172896868D01*
X236938134Y-172915281D01*
X236925346Y-172932524D01*
X236910930Y-172948430D01*
X236895024Y-172962846D01*
X236877781Y-172975634D01*
X236859368Y-172986670D01*
X236839962Y-172995849D01*
X236819750Y-173003081D01*
X236798926Y-173008297D01*
X236777691Y-173011447D01*
X236756250Y-173012500D01*
X236243750Y-173012500D01*
X236222309Y-173011447D01*
X236201074Y-173008297D01*
X236180250Y-173003081D01*
X236160038Y-172995849D01*
X236140632Y-172986670D01*
X236122219Y-172975634D01*
X236104976Y-172962846D01*
X236089070Y-172948430D01*
X236074654Y-172932524D01*
X236061866Y-172915281D01*
X236050830Y-172896868D01*
X236041651Y-172877462D01*
X236034419Y-172857250D01*
X236029203Y-172836426D01*
X236026053Y-172815191D01*
X236025000Y-172793750D01*
X236025000Y-172356250D01*
X236026053Y-172334809D01*
X236029203Y-172313574D01*
X236034419Y-172292750D01*
X236041651Y-172272538D01*
X236050830Y-172253132D01*
X236061866Y-172234719D01*
X236074654Y-172217476D01*
X236089070Y-172201570D01*
X236104976Y-172187154D01*
X236122219Y-172174366D01*
X236140632Y-172163330D01*
X236160038Y-172154151D01*
X236180250Y-172146919D01*
X236201074Y-172141703D01*
X236222309Y-172138553D01*
X236243750Y-172137500D01*
X236756250Y-172137500D01*
X236777691Y-172138553D01*
X236777691Y-172138553D01*
G37*
D11*
X236500000Y-172575000D03*
D10*
G36*
X234777691Y-170563553D02*
G01*
X234798926Y-170566703D01*
X234819750Y-170571919D01*
X234839962Y-170579151D01*
X234859368Y-170588330D01*
X234877781Y-170599366D01*
X234895024Y-170612154D01*
X234910930Y-170626570D01*
X234925346Y-170642476D01*
X234938134Y-170659719D01*
X234949170Y-170678132D01*
X234958349Y-170697538D01*
X234965581Y-170717750D01*
X234970797Y-170738574D01*
X234973947Y-170759809D01*
X234975000Y-170781250D01*
X234975000Y-171218750D01*
X234973947Y-171240191D01*
X234970797Y-171261426D01*
X234965581Y-171282250D01*
X234958349Y-171302462D01*
X234949170Y-171321868D01*
X234938134Y-171340281D01*
X234925346Y-171357524D01*
X234910930Y-171373430D01*
X234895024Y-171387846D01*
X234877781Y-171400634D01*
X234859368Y-171411670D01*
X234839962Y-171420849D01*
X234819750Y-171428081D01*
X234798926Y-171433297D01*
X234777691Y-171436447D01*
X234756250Y-171437500D01*
X234243750Y-171437500D01*
X234222309Y-171436447D01*
X234201074Y-171433297D01*
X234180250Y-171428081D01*
X234160038Y-171420849D01*
X234140632Y-171411670D01*
X234122219Y-171400634D01*
X234104976Y-171387846D01*
X234089070Y-171373430D01*
X234074654Y-171357524D01*
X234061866Y-171340281D01*
X234050830Y-171321868D01*
X234041651Y-171302462D01*
X234034419Y-171282250D01*
X234029203Y-171261426D01*
X234026053Y-171240191D01*
X234025000Y-171218750D01*
X234025000Y-170781250D01*
X234026053Y-170759809D01*
X234029203Y-170738574D01*
X234034419Y-170717750D01*
X234041651Y-170697538D01*
X234050830Y-170678132D01*
X234061866Y-170659719D01*
X234074654Y-170642476D01*
X234089070Y-170626570D01*
X234104976Y-170612154D01*
X234122219Y-170599366D01*
X234140632Y-170588330D01*
X234160038Y-170579151D01*
X234180250Y-170571919D01*
X234201074Y-170566703D01*
X234222309Y-170563553D01*
X234243750Y-170562500D01*
X234756250Y-170562500D01*
X234777691Y-170563553D01*
X234777691Y-170563553D01*
G37*
D11*
X234500000Y-171000000D03*
D10*
G36*
X234777691Y-172138553D02*
G01*
X234798926Y-172141703D01*
X234819750Y-172146919D01*
X234839962Y-172154151D01*
X234859368Y-172163330D01*
X234877781Y-172174366D01*
X234895024Y-172187154D01*
X234910930Y-172201570D01*
X234925346Y-172217476D01*
X234938134Y-172234719D01*
X234949170Y-172253132D01*
X234958349Y-172272538D01*
X234965581Y-172292750D01*
X234970797Y-172313574D01*
X234973947Y-172334809D01*
X234975000Y-172356250D01*
X234975000Y-172793750D01*
X234973947Y-172815191D01*
X234970797Y-172836426D01*
X234965581Y-172857250D01*
X234958349Y-172877462D01*
X234949170Y-172896868D01*
X234938134Y-172915281D01*
X234925346Y-172932524D01*
X234910930Y-172948430D01*
X234895024Y-172962846D01*
X234877781Y-172975634D01*
X234859368Y-172986670D01*
X234839962Y-172995849D01*
X234819750Y-173003081D01*
X234798926Y-173008297D01*
X234777691Y-173011447D01*
X234756250Y-173012500D01*
X234243750Y-173012500D01*
X234222309Y-173011447D01*
X234201074Y-173008297D01*
X234180250Y-173003081D01*
X234160038Y-172995849D01*
X234140632Y-172986670D01*
X234122219Y-172975634D01*
X234104976Y-172962846D01*
X234089070Y-172948430D01*
X234074654Y-172932524D01*
X234061866Y-172915281D01*
X234050830Y-172896868D01*
X234041651Y-172877462D01*
X234034419Y-172857250D01*
X234029203Y-172836426D01*
X234026053Y-172815191D01*
X234025000Y-172793750D01*
X234025000Y-172356250D01*
X234026053Y-172334809D01*
X234029203Y-172313574D01*
X234034419Y-172292750D01*
X234041651Y-172272538D01*
X234050830Y-172253132D01*
X234061866Y-172234719D01*
X234074654Y-172217476D01*
X234089070Y-172201570D01*
X234104976Y-172187154D01*
X234122219Y-172174366D01*
X234140632Y-172163330D01*
X234160038Y-172154151D01*
X234180250Y-172146919D01*
X234201074Y-172141703D01*
X234222309Y-172138553D01*
X234243750Y-172137500D01*
X234756250Y-172137500D01*
X234777691Y-172138553D01*
X234777691Y-172138553D01*
G37*
D11*
X234500000Y-172575000D03*
D10*
G36*
X218027691Y-193776053D02*
G01*
X218048926Y-193779203D01*
X218069750Y-193784419D01*
X218089962Y-193791651D01*
X218109368Y-193800830D01*
X218127781Y-193811866D01*
X218145024Y-193824654D01*
X218160930Y-193839070D01*
X218175346Y-193854976D01*
X218188134Y-193872219D01*
X218199170Y-193890632D01*
X218208349Y-193910038D01*
X218215581Y-193930250D01*
X218220797Y-193951074D01*
X218223947Y-193972309D01*
X218225000Y-193993750D01*
X218225000Y-194506250D01*
X218223947Y-194527691D01*
X218220797Y-194548926D01*
X218215581Y-194569750D01*
X218208349Y-194589962D01*
X218199170Y-194609368D01*
X218188134Y-194627781D01*
X218175346Y-194645024D01*
X218160930Y-194660930D01*
X218145024Y-194675346D01*
X218127781Y-194688134D01*
X218109368Y-194699170D01*
X218089962Y-194708349D01*
X218069750Y-194715581D01*
X218048926Y-194720797D01*
X218027691Y-194723947D01*
X218006250Y-194725000D01*
X217568750Y-194725000D01*
X217547309Y-194723947D01*
X217526074Y-194720797D01*
X217505250Y-194715581D01*
X217485038Y-194708349D01*
X217465632Y-194699170D01*
X217447219Y-194688134D01*
X217429976Y-194675346D01*
X217414070Y-194660930D01*
X217399654Y-194645024D01*
X217386866Y-194627781D01*
X217375830Y-194609368D01*
X217366651Y-194589962D01*
X217359419Y-194569750D01*
X217354203Y-194548926D01*
X217351053Y-194527691D01*
X217350000Y-194506250D01*
X217350000Y-193993750D01*
X217351053Y-193972309D01*
X217354203Y-193951074D01*
X217359419Y-193930250D01*
X217366651Y-193910038D01*
X217375830Y-193890632D01*
X217386866Y-193872219D01*
X217399654Y-193854976D01*
X217414070Y-193839070D01*
X217429976Y-193824654D01*
X217447219Y-193811866D01*
X217465632Y-193800830D01*
X217485038Y-193791651D01*
X217505250Y-193784419D01*
X217526074Y-193779203D01*
X217547309Y-193776053D01*
X217568750Y-193775000D01*
X218006250Y-193775000D01*
X218027691Y-193776053D01*
X218027691Y-193776053D01*
G37*
D11*
X217787500Y-194250000D03*
D10*
G36*
X216452691Y-193776053D02*
G01*
X216473926Y-193779203D01*
X216494750Y-193784419D01*
X216514962Y-193791651D01*
X216534368Y-193800830D01*
X216552781Y-193811866D01*
X216570024Y-193824654D01*
X216585930Y-193839070D01*
X216600346Y-193854976D01*
X216613134Y-193872219D01*
X216624170Y-193890632D01*
X216633349Y-193910038D01*
X216640581Y-193930250D01*
X216645797Y-193951074D01*
X216648947Y-193972309D01*
X216650000Y-193993750D01*
X216650000Y-194506250D01*
X216648947Y-194527691D01*
X216645797Y-194548926D01*
X216640581Y-194569750D01*
X216633349Y-194589962D01*
X216624170Y-194609368D01*
X216613134Y-194627781D01*
X216600346Y-194645024D01*
X216585930Y-194660930D01*
X216570024Y-194675346D01*
X216552781Y-194688134D01*
X216534368Y-194699170D01*
X216514962Y-194708349D01*
X216494750Y-194715581D01*
X216473926Y-194720797D01*
X216452691Y-194723947D01*
X216431250Y-194725000D01*
X215993750Y-194725000D01*
X215972309Y-194723947D01*
X215951074Y-194720797D01*
X215930250Y-194715581D01*
X215910038Y-194708349D01*
X215890632Y-194699170D01*
X215872219Y-194688134D01*
X215854976Y-194675346D01*
X215839070Y-194660930D01*
X215824654Y-194645024D01*
X215811866Y-194627781D01*
X215800830Y-194609368D01*
X215791651Y-194589962D01*
X215784419Y-194569750D01*
X215779203Y-194548926D01*
X215776053Y-194527691D01*
X215775000Y-194506250D01*
X215775000Y-193993750D01*
X215776053Y-193972309D01*
X215779203Y-193951074D01*
X215784419Y-193930250D01*
X215791651Y-193910038D01*
X215800830Y-193890632D01*
X215811866Y-193872219D01*
X215824654Y-193854976D01*
X215839070Y-193839070D01*
X215854976Y-193824654D01*
X215872219Y-193811866D01*
X215890632Y-193800830D01*
X215910038Y-193791651D01*
X215930250Y-193784419D01*
X215951074Y-193779203D01*
X215972309Y-193776053D01*
X215993750Y-193775000D01*
X216431250Y-193775000D01*
X216452691Y-193776053D01*
X216452691Y-193776053D01*
G37*
D11*
X216212500Y-194250000D03*
D10*
G36*
X232777691Y-175313553D02*
G01*
X232798926Y-175316703D01*
X232819750Y-175321919D01*
X232839962Y-175329151D01*
X232859368Y-175338330D01*
X232877781Y-175349366D01*
X232895024Y-175362154D01*
X232910930Y-175376570D01*
X232925346Y-175392476D01*
X232938134Y-175409719D01*
X232949170Y-175428132D01*
X232958349Y-175447538D01*
X232965581Y-175467750D01*
X232970797Y-175488574D01*
X232973947Y-175509809D01*
X232975000Y-175531250D01*
X232975000Y-175968750D01*
X232973947Y-175990191D01*
X232970797Y-176011426D01*
X232965581Y-176032250D01*
X232958349Y-176052462D01*
X232949170Y-176071868D01*
X232938134Y-176090281D01*
X232925346Y-176107524D01*
X232910930Y-176123430D01*
X232895024Y-176137846D01*
X232877781Y-176150634D01*
X232859368Y-176161670D01*
X232839962Y-176170849D01*
X232819750Y-176178081D01*
X232798926Y-176183297D01*
X232777691Y-176186447D01*
X232756250Y-176187500D01*
X232243750Y-176187500D01*
X232222309Y-176186447D01*
X232201074Y-176183297D01*
X232180250Y-176178081D01*
X232160038Y-176170849D01*
X232140632Y-176161670D01*
X232122219Y-176150634D01*
X232104976Y-176137846D01*
X232089070Y-176123430D01*
X232074654Y-176107524D01*
X232061866Y-176090281D01*
X232050830Y-176071868D01*
X232041651Y-176052462D01*
X232034419Y-176032250D01*
X232029203Y-176011426D01*
X232026053Y-175990191D01*
X232025000Y-175968750D01*
X232025000Y-175531250D01*
X232026053Y-175509809D01*
X232029203Y-175488574D01*
X232034419Y-175467750D01*
X232041651Y-175447538D01*
X232050830Y-175428132D01*
X232061866Y-175409719D01*
X232074654Y-175392476D01*
X232089070Y-175376570D01*
X232104976Y-175362154D01*
X232122219Y-175349366D01*
X232140632Y-175338330D01*
X232160038Y-175329151D01*
X232180250Y-175321919D01*
X232201074Y-175316703D01*
X232222309Y-175313553D01*
X232243750Y-175312500D01*
X232756250Y-175312500D01*
X232777691Y-175313553D01*
X232777691Y-175313553D01*
G37*
D11*
X232500000Y-175750000D03*
D10*
G36*
X232777691Y-176888553D02*
G01*
X232798926Y-176891703D01*
X232819750Y-176896919D01*
X232839962Y-176904151D01*
X232859368Y-176913330D01*
X232877781Y-176924366D01*
X232895024Y-176937154D01*
X232910930Y-176951570D01*
X232925346Y-176967476D01*
X232938134Y-176984719D01*
X232949170Y-177003132D01*
X232958349Y-177022538D01*
X232965581Y-177042750D01*
X232970797Y-177063574D01*
X232973947Y-177084809D01*
X232975000Y-177106250D01*
X232975000Y-177543750D01*
X232973947Y-177565191D01*
X232970797Y-177586426D01*
X232965581Y-177607250D01*
X232958349Y-177627462D01*
X232949170Y-177646868D01*
X232938134Y-177665281D01*
X232925346Y-177682524D01*
X232910930Y-177698430D01*
X232895024Y-177712846D01*
X232877781Y-177725634D01*
X232859368Y-177736670D01*
X232839962Y-177745849D01*
X232819750Y-177753081D01*
X232798926Y-177758297D01*
X232777691Y-177761447D01*
X232756250Y-177762500D01*
X232243750Y-177762500D01*
X232222309Y-177761447D01*
X232201074Y-177758297D01*
X232180250Y-177753081D01*
X232160038Y-177745849D01*
X232140632Y-177736670D01*
X232122219Y-177725634D01*
X232104976Y-177712846D01*
X232089070Y-177698430D01*
X232074654Y-177682524D01*
X232061866Y-177665281D01*
X232050830Y-177646868D01*
X232041651Y-177627462D01*
X232034419Y-177607250D01*
X232029203Y-177586426D01*
X232026053Y-177565191D01*
X232025000Y-177543750D01*
X232025000Y-177106250D01*
X232026053Y-177084809D01*
X232029203Y-177063574D01*
X232034419Y-177042750D01*
X232041651Y-177022538D01*
X232050830Y-177003132D01*
X232061866Y-176984719D01*
X232074654Y-176967476D01*
X232089070Y-176951570D01*
X232104976Y-176937154D01*
X232122219Y-176924366D01*
X232140632Y-176913330D01*
X232160038Y-176904151D01*
X232180250Y-176896919D01*
X232201074Y-176891703D01*
X232222309Y-176888553D01*
X232243750Y-176887500D01*
X232756250Y-176887500D01*
X232777691Y-176888553D01*
X232777691Y-176888553D01*
G37*
D11*
X232500000Y-177325000D03*
D10*
G36*
X260665191Y-161276053D02*
G01*
X260686426Y-161279203D01*
X260707250Y-161284419D01*
X260727462Y-161291651D01*
X260746868Y-161300830D01*
X260765281Y-161311866D01*
X260782524Y-161324654D01*
X260798430Y-161339070D01*
X260812846Y-161354976D01*
X260825634Y-161372219D01*
X260836670Y-161390632D01*
X260845849Y-161410038D01*
X260853081Y-161430250D01*
X260858297Y-161451074D01*
X260861447Y-161472309D01*
X260862500Y-161493750D01*
X260862500Y-162006250D01*
X260861447Y-162027691D01*
X260858297Y-162048926D01*
X260853081Y-162069750D01*
X260845849Y-162089962D01*
X260836670Y-162109368D01*
X260825634Y-162127781D01*
X260812846Y-162145024D01*
X260798430Y-162160930D01*
X260782524Y-162175346D01*
X260765281Y-162188134D01*
X260746868Y-162199170D01*
X260727462Y-162208349D01*
X260707250Y-162215581D01*
X260686426Y-162220797D01*
X260665191Y-162223947D01*
X260643750Y-162225000D01*
X260206250Y-162225000D01*
X260184809Y-162223947D01*
X260163574Y-162220797D01*
X260142750Y-162215581D01*
X260122538Y-162208349D01*
X260103132Y-162199170D01*
X260084719Y-162188134D01*
X260067476Y-162175346D01*
X260051570Y-162160930D01*
X260037154Y-162145024D01*
X260024366Y-162127781D01*
X260013330Y-162109368D01*
X260004151Y-162089962D01*
X259996919Y-162069750D01*
X259991703Y-162048926D01*
X259988553Y-162027691D01*
X259987500Y-162006250D01*
X259987500Y-161493750D01*
X259988553Y-161472309D01*
X259991703Y-161451074D01*
X259996919Y-161430250D01*
X260004151Y-161410038D01*
X260013330Y-161390632D01*
X260024366Y-161372219D01*
X260037154Y-161354976D01*
X260051570Y-161339070D01*
X260067476Y-161324654D01*
X260084719Y-161311866D01*
X260103132Y-161300830D01*
X260122538Y-161291651D01*
X260142750Y-161284419D01*
X260163574Y-161279203D01*
X260184809Y-161276053D01*
X260206250Y-161275000D01*
X260643750Y-161275000D01*
X260665191Y-161276053D01*
X260665191Y-161276053D01*
G37*
D11*
X260425000Y-161750000D03*
D10*
G36*
X262240191Y-161276053D02*
G01*
X262261426Y-161279203D01*
X262282250Y-161284419D01*
X262302462Y-161291651D01*
X262321868Y-161300830D01*
X262340281Y-161311866D01*
X262357524Y-161324654D01*
X262373430Y-161339070D01*
X262387846Y-161354976D01*
X262400634Y-161372219D01*
X262411670Y-161390632D01*
X262420849Y-161410038D01*
X262428081Y-161430250D01*
X262433297Y-161451074D01*
X262436447Y-161472309D01*
X262437500Y-161493750D01*
X262437500Y-162006250D01*
X262436447Y-162027691D01*
X262433297Y-162048926D01*
X262428081Y-162069750D01*
X262420849Y-162089962D01*
X262411670Y-162109368D01*
X262400634Y-162127781D01*
X262387846Y-162145024D01*
X262373430Y-162160930D01*
X262357524Y-162175346D01*
X262340281Y-162188134D01*
X262321868Y-162199170D01*
X262302462Y-162208349D01*
X262282250Y-162215581D01*
X262261426Y-162220797D01*
X262240191Y-162223947D01*
X262218750Y-162225000D01*
X261781250Y-162225000D01*
X261759809Y-162223947D01*
X261738574Y-162220797D01*
X261717750Y-162215581D01*
X261697538Y-162208349D01*
X261678132Y-162199170D01*
X261659719Y-162188134D01*
X261642476Y-162175346D01*
X261626570Y-162160930D01*
X261612154Y-162145024D01*
X261599366Y-162127781D01*
X261588330Y-162109368D01*
X261579151Y-162089962D01*
X261571919Y-162069750D01*
X261566703Y-162048926D01*
X261563553Y-162027691D01*
X261562500Y-162006250D01*
X261562500Y-161493750D01*
X261563553Y-161472309D01*
X261566703Y-161451074D01*
X261571919Y-161430250D01*
X261579151Y-161410038D01*
X261588330Y-161390632D01*
X261599366Y-161372219D01*
X261612154Y-161354976D01*
X261626570Y-161339070D01*
X261642476Y-161324654D01*
X261659719Y-161311866D01*
X261678132Y-161300830D01*
X261697538Y-161291651D01*
X261717750Y-161284419D01*
X261738574Y-161279203D01*
X261759809Y-161276053D01*
X261781250Y-161275000D01*
X262218750Y-161275000D01*
X262240191Y-161276053D01*
X262240191Y-161276053D01*
G37*
D11*
X262000000Y-161750000D03*
D10*
G36*
X264490191Y-161276053D02*
G01*
X264511426Y-161279203D01*
X264532250Y-161284419D01*
X264552462Y-161291651D01*
X264571868Y-161300830D01*
X264590281Y-161311866D01*
X264607524Y-161324654D01*
X264623430Y-161339070D01*
X264637846Y-161354976D01*
X264650634Y-161372219D01*
X264661670Y-161390632D01*
X264670849Y-161410038D01*
X264678081Y-161430250D01*
X264683297Y-161451074D01*
X264686447Y-161472309D01*
X264687500Y-161493750D01*
X264687500Y-162006250D01*
X264686447Y-162027691D01*
X264683297Y-162048926D01*
X264678081Y-162069750D01*
X264670849Y-162089962D01*
X264661670Y-162109368D01*
X264650634Y-162127781D01*
X264637846Y-162145024D01*
X264623430Y-162160930D01*
X264607524Y-162175346D01*
X264590281Y-162188134D01*
X264571868Y-162199170D01*
X264552462Y-162208349D01*
X264532250Y-162215581D01*
X264511426Y-162220797D01*
X264490191Y-162223947D01*
X264468750Y-162225000D01*
X264031250Y-162225000D01*
X264009809Y-162223947D01*
X263988574Y-162220797D01*
X263967750Y-162215581D01*
X263947538Y-162208349D01*
X263928132Y-162199170D01*
X263909719Y-162188134D01*
X263892476Y-162175346D01*
X263876570Y-162160930D01*
X263862154Y-162145024D01*
X263849366Y-162127781D01*
X263838330Y-162109368D01*
X263829151Y-162089962D01*
X263821919Y-162069750D01*
X263816703Y-162048926D01*
X263813553Y-162027691D01*
X263812500Y-162006250D01*
X263812500Y-161493750D01*
X263813553Y-161472309D01*
X263816703Y-161451074D01*
X263821919Y-161430250D01*
X263829151Y-161410038D01*
X263838330Y-161390632D01*
X263849366Y-161372219D01*
X263862154Y-161354976D01*
X263876570Y-161339070D01*
X263892476Y-161324654D01*
X263909719Y-161311866D01*
X263928132Y-161300830D01*
X263947538Y-161291651D01*
X263967750Y-161284419D01*
X263988574Y-161279203D01*
X264009809Y-161276053D01*
X264031250Y-161275000D01*
X264468750Y-161275000D01*
X264490191Y-161276053D01*
X264490191Y-161276053D01*
G37*
D11*
X264250000Y-161750000D03*
D10*
G36*
X266065191Y-161276053D02*
G01*
X266086426Y-161279203D01*
X266107250Y-161284419D01*
X266127462Y-161291651D01*
X266146868Y-161300830D01*
X266165281Y-161311866D01*
X266182524Y-161324654D01*
X266198430Y-161339070D01*
X266212846Y-161354976D01*
X266225634Y-161372219D01*
X266236670Y-161390632D01*
X266245849Y-161410038D01*
X266253081Y-161430250D01*
X266258297Y-161451074D01*
X266261447Y-161472309D01*
X266262500Y-161493750D01*
X266262500Y-162006250D01*
X266261447Y-162027691D01*
X266258297Y-162048926D01*
X266253081Y-162069750D01*
X266245849Y-162089962D01*
X266236670Y-162109368D01*
X266225634Y-162127781D01*
X266212846Y-162145024D01*
X266198430Y-162160930D01*
X266182524Y-162175346D01*
X266165281Y-162188134D01*
X266146868Y-162199170D01*
X266127462Y-162208349D01*
X266107250Y-162215581D01*
X266086426Y-162220797D01*
X266065191Y-162223947D01*
X266043750Y-162225000D01*
X265606250Y-162225000D01*
X265584809Y-162223947D01*
X265563574Y-162220797D01*
X265542750Y-162215581D01*
X265522538Y-162208349D01*
X265503132Y-162199170D01*
X265484719Y-162188134D01*
X265467476Y-162175346D01*
X265451570Y-162160930D01*
X265437154Y-162145024D01*
X265424366Y-162127781D01*
X265413330Y-162109368D01*
X265404151Y-162089962D01*
X265396919Y-162069750D01*
X265391703Y-162048926D01*
X265388553Y-162027691D01*
X265387500Y-162006250D01*
X265387500Y-161493750D01*
X265388553Y-161472309D01*
X265391703Y-161451074D01*
X265396919Y-161430250D01*
X265404151Y-161410038D01*
X265413330Y-161390632D01*
X265424366Y-161372219D01*
X265437154Y-161354976D01*
X265451570Y-161339070D01*
X265467476Y-161324654D01*
X265484719Y-161311866D01*
X265503132Y-161300830D01*
X265522538Y-161291651D01*
X265542750Y-161284419D01*
X265563574Y-161279203D01*
X265584809Y-161276053D01*
X265606250Y-161275000D01*
X266043750Y-161275000D01*
X266065191Y-161276053D01*
X266065191Y-161276053D01*
G37*
D11*
X265825000Y-161750000D03*
D10*
G36*
X234740191Y-176026053D02*
G01*
X234761426Y-176029203D01*
X234782250Y-176034419D01*
X234802462Y-176041651D01*
X234821868Y-176050830D01*
X234840281Y-176061866D01*
X234857524Y-176074654D01*
X234873430Y-176089070D01*
X234887846Y-176104976D01*
X234900634Y-176122219D01*
X234911670Y-176140632D01*
X234920849Y-176160038D01*
X234928081Y-176180250D01*
X234933297Y-176201074D01*
X234936447Y-176222309D01*
X234937500Y-176243750D01*
X234937500Y-176756250D01*
X234936447Y-176777691D01*
X234933297Y-176798926D01*
X234928081Y-176819750D01*
X234920849Y-176839962D01*
X234911670Y-176859368D01*
X234900634Y-176877781D01*
X234887846Y-176895024D01*
X234873430Y-176910930D01*
X234857524Y-176925346D01*
X234840281Y-176938134D01*
X234821868Y-176949170D01*
X234802462Y-176958349D01*
X234782250Y-176965581D01*
X234761426Y-176970797D01*
X234740191Y-176973947D01*
X234718750Y-176975000D01*
X234281250Y-176975000D01*
X234259809Y-176973947D01*
X234238574Y-176970797D01*
X234217750Y-176965581D01*
X234197538Y-176958349D01*
X234178132Y-176949170D01*
X234159719Y-176938134D01*
X234142476Y-176925346D01*
X234126570Y-176910930D01*
X234112154Y-176895024D01*
X234099366Y-176877781D01*
X234088330Y-176859368D01*
X234079151Y-176839962D01*
X234071919Y-176819750D01*
X234066703Y-176798926D01*
X234063553Y-176777691D01*
X234062500Y-176756250D01*
X234062500Y-176243750D01*
X234063553Y-176222309D01*
X234066703Y-176201074D01*
X234071919Y-176180250D01*
X234079151Y-176160038D01*
X234088330Y-176140632D01*
X234099366Y-176122219D01*
X234112154Y-176104976D01*
X234126570Y-176089070D01*
X234142476Y-176074654D01*
X234159719Y-176061866D01*
X234178132Y-176050830D01*
X234197538Y-176041651D01*
X234217750Y-176034419D01*
X234238574Y-176029203D01*
X234259809Y-176026053D01*
X234281250Y-176025000D01*
X234718750Y-176025000D01*
X234740191Y-176026053D01*
X234740191Y-176026053D01*
G37*
D11*
X234500000Y-176500000D03*
D10*
G36*
X236315191Y-176026053D02*
G01*
X236336426Y-176029203D01*
X236357250Y-176034419D01*
X236377462Y-176041651D01*
X236396868Y-176050830D01*
X236415281Y-176061866D01*
X236432524Y-176074654D01*
X236448430Y-176089070D01*
X236462846Y-176104976D01*
X236475634Y-176122219D01*
X236486670Y-176140632D01*
X236495849Y-176160038D01*
X236503081Y-176180250D01*
X236508297Y-176201074D01*
X236511447Y-176222309D01*
X236512500Y-176243750D01*
X236512500Y-176756250D01*
X236511447Y-176777691D01*
X236508297Y-176798926D01*
X236503081Y-176819750D01*
X236495849Y-176839962D01*
X236486670Y-176859368D01*
X236475634Y-176877781D01*
X236462846Y-176895024D01*
X236448430Y-176910930D01*
X236432524Y-176925346D01*
X236415281Y-176938134D01*
X236396868Y-176949170D01*
X236377462Y-176958349D01*
X236357250Y-176965581D01*
X236336426Y-176970797D01*
X236315191Y-176973947D01*
X236293750Y-176975000D01*
X235856250Y-176975000D01*
X235834809Y-176973947D01*
X235813574Y-176970797D01*
X235792750Y-176965581D01*
X235772538Y-176958349D01*
X235753132Y-176949170D01*
X235734719Y-176938134D01*
X235717476Y-176925346D01*
X235701570Y-176910930D01*
X235687154Y-176895024D01*
X235674366Y-176877781D01*
X235663330Y-176859368D01*
X235654151Y-176839962D01*
X235646919Y-176819750D01*
X235641703Y-176798926D01*
X235638553Y-176777691D01*
X235637500Y-176756250D01*
X235637500Y-176243750D01*
X235638553Y-176222309D01*
X235641703Y-176201074D01*
X235646919Y-176180250D01*
X235654151Y-176160038D01*
X235663330Y-176140632D01*
X235674366Y-176122219D01*
X235687154Y-176104976D01*
X235701570Y-176089070D01*
X235717476Y-176074654D01*
X235734719Y-176061866D01*
X235753132Y-176050830D01*
X235772538Y-176041651D01*
X235792750Y-176034419D01*
X235813574Y-176029203D01*
X235834809Y-176026053D01*
X235856250Y-176025000D01*
X236293750Y-176025000D01*
X236315191Y-176026053D01*
X236315191Y-176026053D01*
G37*
D11*
X236075000Y-176500000D03*
D10*
G36*
X234740191Y-178026053D02*
G01*
X234761426Y-178029203D01*
X234782250Y-178034419D01*
X234802462Y-178041651D01*
X234821868Y-178050830D01*
X234840281Y-178061866D01*
X234857524Y-178074654D01*
X234873430Y-178089070D01*
X234887846Y-178104976D01*
X234900634Y-178122219D01*
X234911670Y-178140632D01*
X234920849Y-178160038D01*
X234928081Y-178180250D01*
X234933297Y-178201074D01*
X234936447Y-178222309D01*
X234937500Y-178243750D01*
X234937500Y-178756250D01*
X234936447Y-178777691D01*
X234933297Y-178798926D01*
X234928081Y-178819750D01*
X234920849Y-178839962D01*
X234911670Y-178859368D01*
X234900634Y-178877781D01*
X234887846Y-178895024D01*
X234873430Y-178910930D01*
X234857524Y-178925346D01*
X234840281Y-178938134D01*
X234821868Y-178949170D01*
X234802462Y-178958349D01*
X234782250Y-178965581D01*
X234761426Y-178970797D01*
X234740191Y-178973947D01*
X234718750Y-178975000D01*
X234281250Y-178975000D01*
X234259809Y-178973947D01*
X234238574Y-178970797D01*
X234217750Y-178965581D01*
X234197538Y-178958349D01*
X234178132Y-178949170D01*
X234159719Y-178938134D01*
X234142476Y-178925346D01*
X234126570Y-178910930D01*
X234112154Y-178895024D01*
X234099366Y-178877781D01*
X234088330Y-178859368D01*
X234079151Y-178839962D01*
X234071919Y-178819750D01*
X234066703Y-178798926D01*
X234063553Y-178777691D01*
X234062500Y-178756250D01*
X234062500Y-178243750D01*
X234063553Y-178222309D01*
X234066703Y-178201074D01*
X234071919Y-178180250D01*
X234079151Y-178160038D01*
X234088330Y-178140632D01*
X234099366Y-178122219D01*
X234112154Y-178104976D01*
X234126570Y-178089070D01*
X234142476Y-178074654D01*
X234159719Y-178061866D01*
X234178132Y-178050830D01*
X234197538Y-178041651D01*
X234217750Y-178034419D01*
X234238574Y-178029203D01*
X234259809Y-178026053D01*
X234281250Y-178025000D01*
X234718750Y-178025000D01*
X234740191Y-178026053D01*
X234740191Y-178026053D01*
G37*
D11*
X234500000Y-178500000D03*
D10*
G36*
X236315191Y-178026053D02*
G01*
X236336426Y-178029203D01*
X236357250Y-178034419D01*
X236377462Y-178041651D01*
X236396868Y-178050830D01*
X236415281Y-178061866D01*
X236432524Y-178074654D01*
X236448430Y-178089070D01*
X236462846Y-178104976D01*
X236475634Y-178122219D01*
X236486670Y-178140632D01*
X236495849Y-178160038D01*
X236503081Y-178180250D01*
X236508297Y-178201074D01*
X236511447Y-178222309D01*
X236512500Y-178243750D01*
X236512500Y-178756250D01*
X236511447Y-178777691D01*
X236508297Y-178798926D01*
X236503081Y-178819750D01*
X236495849Y-178839962D01*
X236486670Y-178859368D01*
X236475634Y-178877781D01*
X236462846Y-178895024D01*
X236448430Y-178910930D01*
X236432524Y-178925346D01*
X236415281Y-178938134D01*
X236396868Y-178949170D01*
X236377462Y-178958349D01*
X236357250Y-178965581D01*
X236336426Y-178970797D01*
X236315191Y-178973947D01*
X236293750Y-178975000D01*
X235856250Y-178975000D01*
X235834809Y-178973947D01*
X235813574Y-178970797D01*
X235792750Y-178965581D01*
X235772538Y-178958349D01*
X235753132Y-178949170D01*
X235734719Y-178938134D01*
X235717476Y-178925346D01*
X235701570Y-178910930D01*
X235687154Y-178895024D01*
X235674366Y-178877781D01*
X235663330Y-178859368D01*
X235654151Y-178839962D01*
X235646919Y-178819750D01*
X235641703Y-178798926D01*
X235638553Y-178777691D01*
X235637500Y-178756250D01*
X235637500Y-178243750D01*
X235638553Y-178222309D01*
X235641703Y-178201074D01*
X235646919Y-178180250D01*
X235654151Y-178160038D01*
X235663330Y-178140632D01*
X235674366Y-178122219D01*
X235687154Y-178104976D01*
X235701570Y-178089070D01*
X235717476Y-178074654D01*
X235734719Y-178061866D01*
X235753132Y-178050830D01*
X235772538Y-178041651D01*
X235792750Y-178034419D01*
X235813574Y-178029203D01*
X235834809Y-178026053D01*
X235856250Y-178025000D01*
X236293750Y-178025000D01*
X236315191Y-178026053D01*
X236315191Y-178026053D01*
G37*
D11*
X236075000Y-178500000D03*
D10*
G36*
X235952691Y-162026053D02*
G01*
X235973926Y-162029203D01*
X235994750Y-162034419D01*
X236014962Y-162041651D01*
X236034368Y-162050830D01*
X236052781Y-162061866D01*
X236070024Y-162074654D01*
X236085930Y-162089070D01*
X236100346Y-162104976D01*
X236113134Y-162122219D01*
X236124170Y-162140632D01*
X236133349Y-162160038D01*
X236140581Y-162180250D01*
X236145797Y-162201074D01*
X236148947Y-162222309D01*
X236150000Y-162243750D01*
X236150000Y-162756250D01*
X236148947Y-162777691D01*
X236145797Y-162798926D01*
X236140581Y-162819750D01*
X236133349Y-162839962D01*
X236124170Y-162859368D01*
X236113134Y-162877781D01*
X236100346Y-162895024D01*
X236085930Y-162910930D01*
X236070024Y-162925346D01*
X236052781Y-162938134D01*
X236034368Y-162949170D01*
X236014962Y-162958349D01*
X235994750Y-162965581D01*
X235973926Y-162970797D01*
X235952691Y-162973947D01*
X235931250Y-162975000D01*
X235493750Y-162975000D01*
X235472309Y-162973947D01*
X235451074Y-162970797D01*
X235430250Y-162965581D01*
X235410038Y-162958349D01*
X235390632Y-162949170D01*
X235372219Y-162938134D01*
X235354976Y-162925346D01*
X235339070Y-162910930D01*
X235324654Y-162895024D01*
X235311866Y-162877781D01*
X235300830Y-162859368D01*
X235291651Y-162839962D01*
X235284419Y-162819750D01*
X235279203Y-162798926D01*
X235276053Y-162777691D01*
X235275000Y-162756250D01*
X235275000Y-162243750D01*
X235276053Y-162222309D01*
X235279203Y-162201074D01*
X235284419Y-162180250D01*
X235291651Y-162160038D01*
X235300830Y-162140632D01*
X235311866Y-162122219D01*
X235324654Y-162104976D01*
X235339070Y-162089070D01*
X235354976Y-162074654D01*
X235372219Y-162061866D01*
X235390632Y-162050830D01*
X235410038Y-162041651D01*
X235430250Y-162034419D01*
X235451074Y-162029203D01*
X235472309Y-162026053D01*
X235493750Y-162025000D01*
X235931250Y-162025000D01*
X235952691Y-162026053D01*
X235952691Y-162026053D01*
G37*
D11*
X235712500Y-162500000D03*
D10*
G36*
X237527691Y-162026053D02*
G01*
X237548926Y-162029203D01*
X237569750Y-162034419D01*
X237589962Y-162041651D01*
X237609368Y-162050830D01*
X237627781Y-162061866D01*
X237645024Y-162074654D01*
X237660930Y-162089070D01*
X237675346Y-162104976D01*
X237688134Y-162122219D01*
X237699170Y-162140632D01*
X237708349Y-162160038D01*
X237715581Y-162180250D01*
X237720797Y-162201074D01*
X237723947Y-162222309D01*
X237725000Y-162243750D01*
X237725000Y-162756250D01*
X237723947Y-162777691D01*
X237720797Y-162798926D01*
X237715581Y-162819750D01*
X237708349Y-162839962D01*
X237699170Y-162859368D01*
X237688134Y-162877781D01*
X237675346Y-162895024D01*
X237660930Y-162910930D01*
X237645024Y-162925346D01*
X237627781Y-162938134D01*
X237609368Y-162949170D01*
X237589962Y-162958349D01*
X237569750Y-162965581D01*
X237548926Y-162970797D01*
X237527691Y-162973947D01*
X237506250Y-162975000D01*
X237068750Y-162975000D01*
X237047309Y-162973947D01*
X237026074Y-162970797D01*
X237005250Y-162965581D01*
X236985038Y-162958349D01*
X236965632Y-162949170D01*
X236947219Y-162938134D01*
X236929976Y-162925346D01*
X236914070Y-162910930D01*
X236899654Y-162895024D01*
X236886866Y-162877781D01*
X236875830Y-162859368D01*
X236866651Y-162839962D01*
X236859419Y-162819750D01*
X236854203Y-162798926D01*
X236851053Y-162777691D01*
X236850000Y-162756250D01*
X236850000Y-162243750D01*
X236851053Y-162222309D01*
X236854203Y-162201074D01*
X236859419Y-162180250D01*
X236866651Y-162160038D01*
X236875830Y-162140632D01*
X236886866Y-162122219D01*
X236899654Y-162104976D01*
X236914070Y-162089070D01*
X236929976Y-162074654D01*
X236947219Y-162061866D01*
X236965632Y-162050830D01*
X236985038Y-162041651D01*
X237005250Y-162034419D01*
X237026074Y-162029203D01*
X237047309Y-162026053D01*
X237068750Y-162025000D01*
X237506250Y-162025000D01*
X237527691Y-162026053D01*
X237527691Y-162026053D01*
G37*
D11*
X237287500Y-162500000D03*
D10*
G36*
X236027691Y-158526053D02*
G01*
X236048926Y-158529203D01*
X236069750Y-158534419D01*
X236089962Y-158541651D01*
X236109368Y-158550830D01*
X236127781Y-158561866D01*
X236145024Y-158574654D01*
X236160930Y-158589070D01*
X236175346Y-158604976D01*
X236188134Y-158622219D01*
X236199170Y-158640632D01*
X236208349Y-158660038D01*
X236215581Y-158680250D01*
X236220797Y-158701074D01*
X236223947Y-158722309D01*
X236225000Y-158743750D01*
X236225000Y-159181250D01*
X236223947Y-159202691D01*
X236220797Y-159223926D01*
X236215581Y-159244750D01*
X236208349Y-159264962D01*
X236199170Y-159284368D01*
X236188134Y-159302781D01*
X236175346Y-159320024D01*
X236160930Y-159335930D01*
X236145024Y-159350346D01*
X236127781Y-159363134D01*
X236109368Y-159374170D01*
X236089962Y-159383349D01*
X236069750Y-159390581D01*
X236048926Y-159395797D01*
X236027691Y-159398947D01*
X236006250Y-159400000D01*
X235493750Y-159400000D01*
X235472309Y-159398947D01*
X235451074Y-159395797D01*
X235430250Y-159390581D01*
X235410038Y-159383349D01*
X235390632Y-159374170D01*
X235372219Y-159363134D01*
X235354976Y-159350346D01*
X235339070Y-159335930D01*
X235324654Y-159320024D01*
X235311866Y-159302781D01*
X235300830Y-159284368D01*
X235291651Y-159264962D01*
X235284419Y-159244750D01*
X235279203Y-159223926D01*
X235276053Y-159202691D01*
X235275000Y-159181250D01*
X235275000Y-158743750D01*
X235276053Y-158722309D01*
X235279203Y-158701074D01*
X235284419Y-158680250D01*
X235291651Y-158660038D01*
X235300830Y-158640632D01*
X235311866Y-158622219D01*
X235324654Y-158604976D01*
X235339070Y-158589070D01*
X235354976Y-158574654D01*
X235372219Y-158561866D01*
X235390632Y-158550830D01*
X235410038Y-158541651D01*
X235430250Y-158534419D01*
X235451074Y-158529203D01*
X235472309Y-158526053D01*
X235493750Y-158525000D01*
X236006250Y-158525000D01*
X236027691Y-158526053D01*
X236027691Y-158526053D01*
G37*
D11*
X235750000Y-158962500D03*
D10*
G36*
X236027691Y-160101053D02*
G01*
X236048926Y-160104203D01*
X236069750Y-160109419D01*
X236089962Y-160116651D01*
X236109368Y-160125830D01*
X236127781Y-160136866D01*
X236145024Y-160149654D01*
X236160930Y-160164070D01*
X236175346Y-160179976D01*
X236188134Y-160197219D01*
X236199170Y-160215632D01*
X236208349Y-160235038D01*
X236215581Y-160255250D01*
X236220797Y-160276074D01*
X236223947Y-160297309D01*
X236225000Y-160318750D01*
X236225000Y-160756250D01*
X236223947Y-160777691D01*
X236220797Y-160798926D01*
X236215581Y-160819750D01*
X236208349Y-160839962D01*
X236199170Y-160859368D01*
X236188134Y-160877781D01*
X236175346Y-160895024D01*
X236160930Y-160910930D01*
X236145024Y-160925346D01*
X236127781Y-160938134D01*
X236109368Y-160949170D01*
X236089962Y-160958349D01*
X236069750Y-160965581D01*
X236048926Y-160970797D01*
X236027691Y-160973947D01*
X236006250Y-160975000D01*
X235493750Y-160975000D01*
X235472309Y-160973947D01*
X235451074Y-160970797D01*
X235430250Y-160965581D01*
X235410038Y-160958349D01*
X235390632Y-160949170D01*
X235372219Y-160938134D01*
X235354976Y-160925346D01*
X235339070Y-160910930D01*
X235324654Y-160895024D01*
X235311866Y-160877781D01*
X235300830Y-160859368D01*
X235291651Y-160839962D01*
X235284419Y-160819750D01*
X235279203Y-160798926D01*
X235276053Y-160777691D01*
X235275000Y-160756250D01*
X235275000Y-160318750D01*
X235276053Y-160297309D01*
X235279203Y-160276074D01*
X235284419Y-160255250D01*
X235291651Y-160235038D01*
X235300830Y-160215632D01*
X235311866Y-160197219D01*
X235324654Y-160179976D01*
X235339070Y-160164070D01*
X235354976Y-160149654D01*
X235372219Y-160136866D01*
X235390632Y-160125830D01*
X235410038Y-160116651D01*
X235430250Y-160109419D01*
X235451074Y-160104203D01*
X235472309Y-160101053D01*
X235493750Y-160100000D01*
X236006250Y-160100000D01*
X236027691Y-160101053D01*
X236027691Y-160101053D01*
G37*
D11*
X235750000Y-160537500D03*
D10*
G36*
X234027691Y-160101053D02*
G01*
X234048926Y-160104203D01*
X234069750Y-160109419D01*
X234089962Y-160116651D01*
X234109368Y-160125830D01*
X234127781Y-160136866D01*
X234145024Y-160149654D01*
X234160930Y-160164070D01*
X234175346Y-160179976D01*
X234188134Y-160197219D01*
X234199170Y-160215632D01*
X234208349Y-160235038D01*
X234215581Y-160255250D01*
X234220797Y-160276074D01*
X234223947Y-160297309D01*
X234225000Y-160318750D01*
X234225000Y-160756250D01*
X234223947Y-160777691D01*
X234220797Y-160798926D01*
X234215581Y-160819750D01*
X234208349Y-160839962D01*
X234199170Y-160859368D01*
X234188134Y-160877781D01*
X234175346Y-160895024D01*
X234160930Y-160910930D01*
X234145024Y-160925346D01*
X234127781Y-160938134D01*
X234109368Y-160949170D01*
X234089962Y-160958349D01*
X234069750Y-160965581D01*
X234048926Y-160970797D01*
X234027691Y-160973947D01*
X234006250Y-160975000D01*
X233493750Y-160975000D01*
X233472309Y-160973947D01*
X233451074Y-160970797D01*
X233430250Y-160965581D01*
X233410038Y-160958349D01*
X233390632Y-160949170D01*
X233372219Y-160938134D01*
X233354976Y-160925346D01*
X233339070Y-160910930D01*
X233324654Y-160895024D01*
X233311866Y-160877781D01*
X233300830Y-160859368D01*
X233291651Y-160839962D01*
X233284419Y-160819750D01*
X233279203Y-160798926D01*
X233276053Y-160777691D01*
X233275000Y-160756250D01*
X233275000Y-160318750D01*
X233276053Y-160297309D01*
X233279203Y-160276074D01*
X233284419Y-160255250D01*
X233291651Y-160235038D01*
X233300830Y-160215632D01*
X233311866Y-160197219D01*
X233324654Y-160179976D01*
X233339070Y-160164070D01*
X233354976Y-160149654D01*
X233372219Y-160136866D01*
X233390632Y-160125830D01*
X233410038Y-160116651D01*
X233430250Y-160109419D01*
X233451074Y-160104203D01*
X233472309Y-160101053D01*
X233493750Y-160100000D01*
X234006250Y-160100000D01*
X234027691Y-160101053D01*
X234027691Y-160101053D01*
G37*
D11*
X233750000Y-160537500D03*
D10*
G36*
X234027691Y-158526053D02*
G01*
X234048926Y-158529203D01*
X234069750Y-158534419D01*
X234089962Y-158541651D01*
X234109368Y-158550830D01*
X234127781Y-158561866D01*
X234145024Y-158574654D01*
X234160930Y-158589070D01*
X234175346Y-158604976D01*
X234188134Y-158622219D01*
X234199170Y-158640632D01*
X234208349Y-158660038D01*
X234215581Y-158680250D01*
X234220797Y-158701074D01*
X234223947Y-158722309D01*
X234225000Y-158743750D01*
X234225000Y-159181250D01*
X234223947Y-159202691D01*
X234220797Y-159223926D01*
X234215581Y-159244750D01*
X234208349Y-159264962D01*
X234199170Y-159284368D01*
X234188134Y-159302781D01*
X234175346Y-159320024D01*
X234160930Y-159335930D01*
X234145024Y-159350346D01*
X234127781Y-159363134D01*
X234109368Y-159374170D01*
X234089962Y-159383349D01*
X234069750Y-159390581D01*
X234048926Y-159395797D01*
X234027691Y-159398947D01*
X234006250Y-159400000D01*
X233493750Y-159400000D01*
X233472309Y-159398947D01*
X233451074Y-159395797D01*
X233430250Y-159390581D01*
X233410038Y-159383349D01*
X233390632Y-159374170D01*
X233372219Y-159363134D01*
X233354976Y-159350346D01*
X233339070Y-159335930D01*
X233324654Y-159320024D01*
X233311866Y-159302781D01*
X233300830Y-159284368D01*
X233291651Y-159264962D01*
X233284419Y-159244750D01*
X233279203Y-159223926D01*
X233276053Y-159202691D01*
X233275000Y-159181250D01*
X233275000Y-158743750D01*
X233276053Y-158722309D01*
X233279203Y-158701074D01*
X233284419Y-158680250D01*
X233291651Y-158660038D01*
X233300830Y-158640632D01*
X233311866Y-158622219D01*
X233324654Y-158604976D01*
X233339070Y-158589070D01*
X233354976Y-158574654D01*
X233372219Y-158561866D01*
X233390632Y-158550830D01*
X233410038Y-158541651D01*
X233430250Y-158534419D01*
X233451074Y-158529203D01*
X233472309Y-158526053D01*
X233493750Y-158525000D01*
X234006250Y-158525000D01*
X234027691Y-158526053D01*
X234027691Y-158526053D01*
G37*
D11*
X233750000Y-158962500D03*
D10*
G36*
X234027691Y-154601053D02*
G01*
X234048926Y-154604203D01*
X234069750Y-154609419D01*
X234089962Y-154616651D01*
X234109368Y-154625830D01*
X234127781Y-154636866D01*
X234145024Y-154649654D01*
X234160930Y-154664070D01*
X234175346Y-154679976D01*
X234188134Y-154697219D01*
X234199170Y-154715632D01*
X234208349Y-154735038D01*
X234215581Y-154755250D01*
X234220797Y-154776074D01*
X234223947Y-154797309D01*
X234225000Y-154818750D01*
X234225000Y-155256250D01*
X234223947Y-155277691D01*
X234220797Y-155298926D01*
X234215581Y-155319750D01*
X234208349Y-155339962D01*
X234199170Y-155359368D01*
X234188134Y-155377781D01*
X234175346Y-155395024D01*
X234160930Y-155410930D01*
X234145024Y-155425346D01*
X234127781Y-155438134D01*
X234109368Y-155449170D01*
X234089962Y-155458349D01*
X234069750Y-155465581D01*
X234048926Y-155470797D01*
X234027691Y-155473947D01*
X234006250Y-155475000D01*
X233493750Y-155475000D01*
X233472309Y-155473947D01*
X233451074Y-155470797D01*
X233430250Y-155465581D01*
X233410038Y-155458349D01*
X233390632Y-155449170D01*
X233372219Y-155438134D01*
X233354976Y-155425346D01*
X233339070Y-155410930D01*
X233324654Y-155395024D01*
X233311866Y-155377781D01*
X233300830Y-155359368D01*
X233291651Y-155339962D01*
X233284419Y-155319750D01*
X233279203Y-155298926D01*
X233276053Y-155277691D01*
X233275000Y-155256250D01*
X233275000Y-154818750D01*
X233276053Y-154797309D01*
X233279203Y-154776074D01*
X233284419Y-154755250D01*
X233291651Y-154735038D01*
X233300830Y-154715632D01*
X233311866Y-154697219D01*
X233324654Y-154679976D01*
X233339070Y-154664070D01*
X233354976Y-154649654D01*
X233372219Y-154636866D01*
X233390632Y-154625830D01*
X233410038Y-154616651D01*
X233430250Y-154609419D01*
X233451074Y-154604203D01*
X233472309Y-154601053D01*
X233493750Y-154600000D01*
X234006250Y-154600000D01*
X234027691Y-154601053D01*
X234027691Y-154601053D01*
G37*
D11*
X233750000Y-155037500D03*
D10*
G36*
X234027691Y-153026053D02*
G01*
X234048926Y-153029203D01*
X234069750Y-153034419D01*
X234089962Y-153041651D01*
X234109368Y-153050830D01*
X234127781Y-153061866D01*
X234145024Y-153074654D01*
X234160930Y-153089070D01*
X234175346Y-153104976D01*
X234188134Y-153122219D01*
X234199170Y-153140632D01*
X234208349Y-153160038D01*
X234215581Y-153180250D01*
X234220797Y-153201074D01*
X234223947Y-153222309D01*
X234225000Y-153243750D01*
X234225000Y-153681250D01*
X234223947Y-153702691D01*
X234220797Y-153723926D01*
X234215581Y-153744750D01*
X234208349Y-153764962D01*
X234199170Y-153784368D01*
X234188134Y-153802781D01*
X234175346Y-153820024D01*
X234160930Y-153835930D01*
X234145024Y-153850346D01*
X234127781Y-153863134D01*
X234109368Y-153874170D01*
X234089962Y-153883349D01*
X234069750Y-153890581D01*
X234048926Y-153895797D01*
X234027691Y-153898947D01*
X234006250Y-153900000D01*
X233493750Y-153900000D01*
X233472309Y-153898947D01*
X233451074Y-153895797D01*
X233430250Y-153890581D01*
X233410038Y-153883349D01*
X233390632Y-153874170D01*
X233372219Y-153863134D01*
X233354976Y-153850346D01*
X233339070Y-153835930D01*
X233324654Y-153820024D01*
X233311866Y-153802781D01*
X233300830Y-153784368D01*
X233291651Y-153764962D01*
X233284419Y-153744750D01*
X233279203Y-153723926D01*
X233276053Y-153702691D01*
X233275000Y-153681250D01*
X233275000Y-153243750D01*
X233276053Y-153222309D01*
X233279203Y-153201074D01*
X233284419Y-153180250D01*
X233291651Y-153160038D01*
X233300830Y-153140632D01*
X233311866Y-153122219D01*
X233324654Y-153104976D01*
X233339070Y-153089070D01*
X233354976Y-153074654D01*
X233372219Y-153061866D01*
X233390632Y-153050830D01*
X233410038Y-153041651D01*
X233430250Y-153034419D01*
X233451074Y-153029203D01*
X233472309Y-153026053D01*
X233493750Y-153025000D01*
X234006250Y-153025000D01*
X234027691Y-153026053D01*
X234027691Y-153026053D01*
G37*
D11*
X233750000Y-153462500D03*
D10*
G36*
X237565191Y-154526053D02*
G01*
X237586426Y-154529203D01*
X237607250Y-154534419D01*
X237627462Y-154541651D01*
X237646868Y-154550830D01*
X237665281Y-154561866D01*
X237682524Y-154574654D01*
X237698430Y-154589070D01*
X237712846Y-154604976D01*
X237725634Y-154622219D01*
X237736670Y-154640632D01*
X237745849Y-154660038D01*
X237753081Y-154680250D01*
X237758297Y-154701074D01*
X237761447Y-154722309D01*
X237762500Y-154743750D01*
X237762500Y-155256250D01*
X237761447Y-155277691D01*
X237758297Y-155298926D01*
X237753081Y-155319750D01*
X237745849Y-155339962D01*
X237736670Y-155359368D01*
X237725634Y-155377781D01*
X237712846Y-155395024D01*
X237698430Y-155410930D01*
X237682524Y-155425346D01*
X237665281Y-155438134D01*
X237646868Y-155449170D01*
X237627462Y-155458349D01*
X237607250Y-155465581D01*
X237586426Y-155470797D01*
X237565191Y-155473947D01*
X237543750Y-155475000D01*
X237106250Y-155475000D01*
X237084809Y-155473947D01*
X237063574Y-155470797D01*
X237042750Y-155465581D01*
X237022538Y-155458349D01*
X237003132Y-155449170D01*
X236984719Y-155438134D01*
X236967476Y-155425346D01*
X236951570Y-155410930D01*
X236937154Y-155395024D01*
X236924366Y-155377781D01*
X236913330Y-155359368D01*
X236904151Y-155339962D01*
X236896919Y-155319750D01*
X236891703Y-155298926D01*
X236888553Y-155277691D01*
X236887500Y-155256250D01*
X236887500Y-154743750D01*
X236888553Y-154722309D01*
X236891703Y-154701074D01*
X236896919Y-154680250D01*
X236904151Y-154660038D01*
X236913330Y-154640632D01*
X236924366Y-154622219D01*
X236937154Y-154604976D01*
X236951570Y-154589070D01*
X236967476Y-154574654D01*
X236984719Y-154561866D01*
X237003132Y-154550830D01*
X237022538Y-154541651D01*
X237042750Y-154534419D01*
X237063574Y-154529203D01*
X237084809Y-154526053D01*
X237106250Y-154525000D01*
X237543750Y-154525000D01*
X237565191Y-154526053D01*
X237565191Y-154526053D01*
G37*
D11*
X237325000Y-155000000D03*
D10*
G36*
X235990191Y-154526053D02*
G01*
X236011426Y-154529203D01*
X236032250Y-154534419D01*
X236052462Y-154541651D01*
X236071868Y-154550830D01*
X236090281Y-154561866D01*
X236107524Y-154574654D01*
X236123430Y-154589070D01*
X236137846Y-154604976D01*
X236150634Y-154622219D01*
X236161670Y-154640632D01*
X236170849Y-154660038D01*
X236178081Y-154680250D01*
X236183297Y-154701074D01*
X236186447Y-154722309D01*
X236187500Y-154743750D01*
X236187500Y-155256250D01*
X236186447Y-155277691D01*
X236183297Y-155298926D01*
X236178081Y-155319750D01*
X236170849Y-155339962D01*
X236161670Y-155359368D01*
X236150634Y-155377781D01*
X236137846Y-155395024D01*
X236123430Y-155410930D01*
X236107524Y-155425346D01*
X236090281Y-155438134D01*
X236071868Y-155449170D01*
X236052462Y-155458349D01*
X236032250Y-155465581D01*
X236011426Y-155470797D01*
X235990191Y-155473947D01*
X235968750Y-155475000D01*
X235531250Y-155475000D01*
X235509809Y-155473947D01*
X235488574Y-155470797D01*
X235467750Y-155465581D01*
X235447538Y-155458349D01*
X235428132Y-155449170D01*
X235409719Y-155438134D01*
X235392476Y-155425346D01*
X235376570Y-155410930D01*
X235362154Y-155395024D01*
X235349366Y-155377781D01*
X235338330Y-155359368D01*
X235329151Y-155339962D01*
X235321919Y-155319750D01*
X235316703Y-155298926D01*
X235313553Y-155277691D01*
X235312500Y-155256250D01*
X235312500Y-154743750D01*
X235313553Y-154722309D01*
X235316703Y-154701074D01*
X235321919Y-154680250D01*
X235329151Y-154660038D01*
X235338330Y-154640632D01*
X235349366Y-154622219D01*
X235362154Y-154604976D01*
X235376570Y-154589070D01*
X235392476Y-154574654D01*
X235409719Y-154561866D01*
X235428132Y-154550830D01*
X235447538Y-154541651D01*
X235467750Y-154534419D01*
X235488574Y-154529203D01*
X235509809Y-154526053D01*
X235531250Y-154525000D01*
X235968750Y-154525000D01*
X235990191Y-154526053D01*
X235990191Y-154526053D01*
G37*
D11*
X235750000Y-155000000D03*
D10*
G36*
X237565191Y-152526053D02*
G01*
X237586426Y-152529203D01*
X237607250Y-152534419D01*
X237627462Y-152541651D01*
X237646868Y-152550830D01*
X237665281Y-152561866D01*
X237682524Y-152574654D01*
X237698430Y-152589070D01*
X237712846Y-152604976D01*
X237725634Y-152622219D01*
X237736670Y-152640632D01*
X237745849Y-152660038D01*
X237753081Y-152680250D01*
X237758297Y-152701074D01*
X237761447Y-152722309D01*
X237762500Y-152743750D01*
X237762500Y-153256250D01*
X237761447Y-153277691D01*
X237758297Y-153298926D01*
X237753081Y-153319750D01*
X237745849Y-153339962D01*
X237736670Y-153359368D01*
X237725634Y-153377781D01*
X237712846Y-153395024D01*
X237698430Y-153410930D01*
X237682524Y-153425346D01*
X237665281Y-153438134D01*
X237646868Y-153449170D01*
X237627462Y-153458349D01*
X237607250Y-153465581D01*
X237586426Y-153470797D01*
X237565191Y-153473947D01*
X237543750Y-153475000D01*
X237106250Y-153475000D01*
X237084809Y-153473947D01*
X237063574Y-153470797D01*
X237042750Y-153465581D01*
X237022538Y-153458349D01*
X237003132Y-153449170D01*
X236984719Y-153438134D01*
X236967476Y-153425346D01*
X236951570Y-153410930D01*
X236937154Y-153395024D01*
X236924366Y-153377781D01*
X236913330Y-153359368D01*
X236904151Y-153339962D01*
X236896919Y-153319750D01*
X236891703Y-153298926D01*
X236888553Y-153277691D01*
X236887500Y-153256250D01*
X236887500Y-152743750D01*
X236888553Y-152722309D01*
X236891703Y-152701074D01*
X236896919Y-152680250D01*
X236904151Y-152660038D01*
X236913330Y-152640632D01*
X236924366Y-152622219D01*
X236937154Y-152604976D01*
X236951570Y-152589070D01*
X236967476Y-152574654D01*
X236984719Y-152561866D01*
X237003132Y-152550830D01*
X237022538Y-152541651D01*
X237042750Y-152534419D01*
X237063574Y-152529203D01*
X237084809Y-152526053D01*
X237106250Y-152525000D01*
X237543750Y-152525000D01*
X237565191Y-152526053D01*
X237565191Y-152526053D01*
G37*
D11*
X237325000Y-153000000D03*
D10*
G36*
X235990191Y-152526053D02*
G01*
X236011426Y-152529203D01*
X236032250Y-152534419D01*
X236052462Y-152541651D01*
X236071868Y-152550830D01*
X236090281Y-152561866D01*
X236107524Y-152574654D01*
X236123430Y-152589070D01*
X236137846Y-152604976D01*
X236150634Y-152622219D01*
X236161670Y-152640632D01*
X236170849Y-152660038D01*
X236178081Y-152680250D01*
X236183297Y-152701074D01*
X236186447Y-152722309D01*
X236187500Y-152743750D01*
X236187500Y-153256250D01*
X236186447Y-153277691D01*
X236183297Y-153298926D01*
X236178081Y-153319750D01*
X236170849Y-153339962D01*
X236161670Y-153359368D01*
X236150634Y-153377781D01*
X236137846Y-153395024D01*
X236123430Y-153410930D01*
X236107524Y-153425346D01*
X236090281Y-153438134D01*
X236071868Y-153449170D01*
X236052462Y-153458349D01*
X236032250Y-153465581D01*
X236011426Y-153470797D01*
X235990191Y-153473947D01*
X235968750Y-153475000D01*
X235531250Y-153475000D01*
X235509809Y-153473947D01*
X235488574Y-153470797D01*
X235467750Y-153465581D01*
X235447538Y-153458349D01*
X235428132Y-153449170D01*
X235409719Y-153438134D01*
X235392476Y-153425346D01*
X235376570Y-153410930D01*
X235362154Y-153395024D01*
X235349366Y-153377781D01*
X235338330Y-153359368D01*
X235329151Y-153339962D01*
X235321919Y-153319750D01*
X235316703Y-153298926D01*
X235313553Y-153277691D01*
X235312500Y-153256250D01*
X235312500Y-152743750D01*
X235313553Y-152722309D01*
X235316703Y-152701074D01*
X235321919Y-152680250D01*
X235329151Y-152660038D01*
X235338330Y-152640632D01*
X235349366Y-152622219D01*
X235362154Y-152604976D01*
X235376570Y-152589070D01*
X235392476Y-152574654D01*
X235409719Y-152561866D01*
X235428132Y-152550830D01*
X235447538Y-152541651D01*
X235467750Y-152534419D01*
X235488574Y-152529203D01*
X235509809Y-152526053D01*
X235531250Y-152525000D01*
X235968750Y-152525000D01*
X235990191Y-152526053D01*
X235990191Y-152526053D01*
G37*
D11*
X235750000Y-153000000D03*
D10*
G36*
X228027691Y-162026053D02*
G01*
X228048926Y-162029203D01*
X228069750Y-162034419D01*
X228089962Y-162041651D01*
X228109368Y-162050830D01*
X228127781Y-162061866D01*
X228145024Y-162074654D01*
X228160930Y-162089070D01*
X228175346Y-162104976D01*
X228188134Y-162122219D01*
X228199170Y-162140632D01*
X228208349Y-162160038D01*
X228215581Y-162180250D01*
X228220797Y-162201074D01*
X228223947Y-162222309D01*
X228225000Y-162243750D01*
X228225000Y-162756250D01*
X228223947Y-162777691D01*
X228220797Y-162798926D01*
X228215581Y-162819750D01*
X228208349Y-162839962D01*
X228199170Y-162859368D01*
X228188134Y-162877781D01*
X228175346Y-162895024D01*
X228160930Y-162910930D01*
X228145024Y-162925346D01*
X228127781Y-162938134D01*
X228109368Y-162949170D01*
X228089962Y-162958349D01*
X228069750Y-162965581D01*
X228048926Y-162970797D01*
X228027691Y-162973947D01*
X228006250Y-162975000D01*
X227568750Y-162975000D01*
X227547309Y-162973947D01*
X227526074Y-162970797D01*
X227505250Y-162965581D01*
X227485038Y-162958349D01*
X227465632Y-162949170D01*
X227447219Y-162938134D01*
X227429976Y-162925346D01*
X227414070Y-162910930D01*
X227399654Y-162895024D01*
X227386866Y-162877781D01*
X227375830Y-162859368D01*
X227366651Y-162839962D01*
X227359419Y-162819750D01*
X227354203Y-162798926D01*
X227351053Y-162777691D01*
X227350000Y-162756250D01*
X227350000Y-162243750D01*
X227351053Y-162222309D01*
X227354203Y-162201074D01*
X227359419Y-162180250D01*
X227366651Y-162160038D01*
X227375830Y-162140632D01*
X227386866Y-162122219D01*
X227399654Y-162104976D01*
X227414070Y-162089070D01*
X227429976Y-162074654D01*
X227447219Y-162061866D01*
X227465632Y-162050830D01*
X227485038Y-162041651D01*
X227505250Y-162034419D01*
X227526074Y-162029203D01*
X227547309Y-162026053D01*
X227568750Y-162025000D01*
X228006250Y-162025000D01*
X228027691Y-162026053D01*
X228027691Y-162026053D01*
G37*
D11*
X227787500Y-162500000D03*
D10*
G36*
X226452691Y-162026053D02*
G01*
X226473926Y-162029203D01*
X226494750Y-162034419D01*
X226514962Y-162041651D01*
X226534368Y-162050830D01*
X226552781Y-162061866D01*
X226570024Y-162074654D01*
X226585930Y-162089070D01*
X226600346Y-162104976D01*
X226613134Y-162122219D01*
X226624170Y-162140632D01*
X226633349Y-162160038D01*
X226640581Y-162180250D01*
X226645797Y-162201074D01*
X226648947Y-162222309D01*
X226650000Y-162243750D01*
X226650000Y-162756250D01*
X226648947Y-162777691D01*
X226645797Y-162798926D01*
X226640581Y-162819750D01*
X226633349Y-162839962D01*
X226624170Y-162859368D01*
X226613134Y-162877781D01*
X226600346Y-162895024D01*
X226585930Y-162910930D01*
X226570024Y-162925346D01*
X226552781Y-162938134D01*
X226534368Y-162949170D01*
X226514962Y-162958349D01*
X226494750Y-162965581D01*
X226473926Y-162970797D01*
X226452691Y-162973947D01*
X226431250Y-162975000D01*
X225993750Y-162975000D01*
X225972309Y-162973947D01*
X225951074Y-162970797D01*
X225930250Y-162965581D01*
X225910038Y-162958349D01*
X225890632Y-162949170D01*
X225872219Y-162938134D01*
X225854976Y-162925346D01*
X225839070Y-162910930D01*
X225824654Y-162895024D01*
X225811866Y-162877781D01*
X225800830Y-162859368D01*
X225791651Y-162839962D01*
X225784419Y-162819750D01*
X225779203Y-162798926D01*
X225776053Y-162777691D01*
X225775000Y-162756250D01*
X225775000Y-162243750D01*
X225776053Y-162222309D01*
X225779203Y-162201074D01*
X225784419Y-162180250D01*
X225791651Y-162160038D01*
X225800830Y-162140632D01*
X225811866Y-162122219D01*
X225824654Y-162104976D01*
X225839070Y-162089070D01*
X225854976Y-162074654D01*
X225872219Y-162061866D01*
X225890632Y-162050830D01*
X225910038Y-162041651D01*
X225930250Y-162034419D01*
X225951074Y-162029203D01*
X225972309Y-162026053D01*
X225993750Y-162025000D01*
X226431250Y-162025000D01*
X226452691Y-162026053D01*
X226452691Y-162026053D01*
G37*
D11*
X226212500Y-162500000D03*
D10*
G36*
X228027691Y-158526053D02*
G01*
X228048926Y-158529203D01*
X228069750Y-158534419D01*
X228089962Y-158541651D01*
X228109368Y-158550830D01*
X228127781Y-158561866D01*
X228145024Y-158574654D01*
X228160930Y-158589070D01*
X228175346Y-158604976D01*
X228188134Y-158622219D01*
X228199170Y-158640632D01*
X228208349Y-158660038D01*
X228215581Y-158680250D01*
X228220797Y-158701074D01*
X228223947Y-158722309D01*
X228225000Y-158743750D01*
X228225000Y-159181250D01*
X228223947Y-159202691D01*
X228220797Y-159223926D01*
X228215581Y-159244750D01*
X228208349Y-159264962D01*
X228199170Y-159284368D01*
X228188134Y-159302781D01*
X228175346Y-159320024D01*
X228160930Y-159335930D01*
X228145024Y-159350346D01*
X228127781Y-159363134D01*
X228109368Y-159374170D01*
X228089962Y-159383349D01*
X228069750Y-159390581D01*
X228048926Y-159395797D01*
X228027691Y-159398947D01*
X228006250Y-159400000D01*
X227493750Y-159400000D01*
X227472309Y-159398947D01*
X227451074Y-159395797D01*
X227430250Y-159390581D01*
X227410038Y-159383349D01*
X227390632Y-159374170D01*
X227372219Y-159363134D01*
X227354976Y-159350346D01*
X227339070Y-159335930D01*
X227324654Y-159320024D01*
X227311866Y-159302781D01*
X227300830Y-159284368D01*
X227291651Y-159264962D01*
X227284419Y-159244750D01*
X227279203Y-159223926D01*
X227276053Y-159202691D01*
X227275000Y-159181250D01*
X227275000Y-158743750D01*
X227276053Y-158722309D01*
X227279203Y-158701074D01*
X227284419Y-158680250D01*
X227291651Y-158660038D01*
X227300830Y-158640632D01*
X227311866Y-158622219D01*
X227324654Y-158604976D01*
X227339070Y-158589070D01*
X227354976Y-158574654D01*
X227372219Y-158561866D01*
X227390632Y-158550830D01*
X227410038Y-158541651D01*
X227430250Y-158534419D01*
X227451074Y-158529203D01*
X227472309Y-158526053D01*
X227493750Y-158525000D01*
X228006250Y-158525000D01*
X228027691Y-158526053D01*
X228027691Y-158526053D01*
G37*
D11*
X227750000Y-158962500D03*
D10*
G36*
X228027691Y-160101053D02*
G01*
X228048926Y-160104203D01*
X228069750Y-160109419D01*
X228089962Y-160116651D01*
X228109368Y-160125830D01*
X228127781Y-160136866D01*
X228145024Y-160149654D01*
X228160930Y-160164070D01*
X228175346Y-160179976D01*
X228188134Y-160197219D01*
X228199170Y-160215632D01*
X228208349Y-160235038D01*
X228215581Y-160255250D01*
X228220797Y-160276074D01*
X228223947Y-160297309D01*
X228225000Y-160318750D01*
X228225000Y-160756250D01*
X228223947Y-160777691D01*
X228220797Y-160798926D01*
X228215581Y-160819750D01*
X228208349Y-160839962D01*
X228199170Y-160859368D01*
X228188134Y-160877781D01*
X228175346Y-160895024D01*
X228160930Y-160910930D01*
X228145024Y-160925346D01*
X228127781Y-160938134D01*
X228109368Y-160949170D01*
X228089962Y-160958349D01*
X228069750Y-160965581D01*
X228048926Y-160970797D01*
X228027691Y-160973947D01*
X228006250Y-160975000D01*
X227493750Y-160975000D01*
X227472309Y-160973947D01*
X227451074Y-160970797D01*
X227430250Y-160965581D01*
X227410038Y-160958349D01*
X227390632Y-160949170D01*
X227372219Y-160938134D01*
X227354976Y-160925346D01*
X227339070Y-160910930D01*
X227324654Y-160895024D01*
X227311866Y-160877781D01*
X227300830Y-160859368D01*
X227291651Y-160839962D01*
X227284419Y-160819750D01*
X227279203Y-160798926D01*
X227276053Y-160777691D01*
X227275000Y-160756250D01*
X227275000Y-160318750D01*
X227276053Y-160297309D01*
X227279203Y-160276074D01*
X227284419Y-160255250D01*
X227291651Y-160235038D01*
X227300830Y-160215632D01*
X227311866Y-160197219D01*
X227324654Y-160179976D01*
X227339070Y-160164070D01*
X227354976Y-160149654D01*
X227372219Y-160136866D01*
X227390632Y-160125830D01*
X227410038Y-160116651D01*
X227430250Y-160109419D01*
X227451074Y-160104203D01*
X227472309Y-160101053D01*
X227493750Y-160100000D01*
X228006250Y-160100000D01*
X228027691Y-160101053D01*
X228027691Y-160101053D01*
G37*
D11*
X227750000Y-160537500D03*
D10*
G36*
X230027691Y-158526053D02*
G01*
X230048926Y-158529203D01*
X230069750Y-158534419D01*
X230089962Y-158541651D01*
X230109368Y-158550830D01*
X230127781Y-158561866D01*
X230145024Y-158574654D01*
X230160930Y-158589070D01*
X230175346Y-158604976D01*
X230188134Y-158622219D01*
X230199170Y-158640632D01*
X230208349Y-158660038D01*
X230215581Y-158680250D01*
X230220797Y-158701074D01*
X230223947Y-158722309D01*
X230225000Y-158743750D01*
X230225000Y-159181250D01*
X230223947Y-159202691D01*
X230220797Y-159223926D01*
X230215581Y-159244750D01*
X230208349Y-159264962D01*
X230199170Y-159284368D01*
X230188134Y-159302781D01*
X230175346Y-159320024D01*
X230160930Y-159335930D01*
X230145024Y-159350346D01*
X230127781Y-159363134D01*
X230109368Y-159374170D01*
X230089962Y-159383349D01*
X230069750Y-159390581D01*
X230048926Y-159395797D01*
X230027691Y-159398947D01*
X230006250Y-159400000D01*
X229493750Y-159400000D01*
X229472309Y-159398947D01*
X229451074Y-159395797D01*
X229430250Y-159390581D01*
X229410038Y-159383349D01*
X229390632Y-159374170D01*
X229372219Y-159363134D01*
X229354976Y-159350346D01*
X229339070Y-159335930D01*
X229324654Y-159320024D01*
X229311866Y-159302781D01*
X229300830Y-159284368D01*
X229291651Y-159264962D01*
X229284419Y-159244750D01*
X229279203Y-159223926D01*
X229276053Y-159202691D01*
X229275000Y-159181250D01*
X229275000Y-158743750D01*
X229276053Y-158722309D01*
X229279203Y-158701074D01*
X229284419Y-158680250D01*
X229291651Y-158660038D01*
X229300830Y-158640632D01*
X229311866Y-158622219D01*
X229324654Y-158604976D01*
X229339070Y-158589070D01*
X229354976Y-158574654D01*
X229372219Y-158561866D01*
X229390632Y-158550830D01*
X229410038Y-158541651D01*
X229430250Y-158534419D01*
X229451074Y-158529203D01*
X229472309Y-158526053D01*
X229493750Y-158525000D01*
X230006250Y-158525000D01*
X230027691Y-158526053D01*
X230027691Y-158526053D01*
G37*
D11*
X229750000Y-158962500D03*
D10*
G36*
X230027691Y-160101053D02*
G01*
X230048926Y-160104203D01*
X230069750Y-160109419D01*
X230089962Y-160116651D01*
X230109368Y-160125830D01*
X230127781Y-160136866D01*
X230145024Y-160149654D01*
X230160930Y-160164070D01*
X230175346Y-160179976D01*
X230188134Y-160197219D01*
X230199170Y-160215632D01*
X230208349Y-160235038D01*
X230215581Y-160255250D01*
X230220797Y-160276074D01*
X230223947Y-160297309D01*
X230225000Y-160318750D01*
X230225000Y-160756250D01*
X230223947Y-160777691D01*
X230220797Y-160798926D01*
X230215581Y-160819750D01*
X230208349Y-160839962D01*
X230199170Y-160859368D01*
X230188134Y-160877781D01*
X230175346Y-160895024D01*
X230160930Y-160910930D01*
X230145024Y-160925346D01*
X230127781Y-160938134D01*
X230109368Y-160949170D01*
X230089962Y-160958349D01*
X230069750Y-160965581D01*
X230048926Y-160970797D01*
X230027691Y-160973947D01*
X230006250Y-160975000D01*
X229493750Y-160975000D01*
X229472309Y-160973947D01*
X229451074Y-160970797D01*
X229430250Y-160965581D01*
X229410038Y-160958349D01*
X229390632Y-160949170D01*
X229372219Y-160938134D01*
X229354976Y-160925346D01*
X229339070Y-160910930D01*
X229324654Y-160895024D01*
X229311866Y-160877781D01*
X229300830Y-160859368D01*
X229291651Y-160839962D01*
X229284419Y-160819750D01*
X229279203Y-160798926D01*
X229276053Y-160777691D01*
X229275000Y-160756250D01*
X229275000Y-160318750D01*
X229276053Y-160297309D01*
X229279203Y-160276074D01*
X229284419Y-160255250D01*
X229291651Y-160235038D01*
X229300830Y-160215632D01*
X229311866Y-160197219D01*
X229324654Y-160179976D01*
X229339070Y-160164070D01*
X229354976Y-160149654D01*
X229372219Y-160136866D01*
X229390632Y-160125830D01*
X229410038Y-160116651D01*
X229430250Y-160109419D01*
X229451074Y-160104203D01*
X229472309Y-160101053D01*
X229493750Y-160100000D01*
X230006250Y-160100000D01*
X230027691Y-160101053D01*
X230027691Y-160101053D01*
G37*
D11*
X229750000Y-160537500D03*
D10*
G36*
X232027691Y-153026053D02*
G01*
X232048926Y-153029203D01*
X232069750Y-153034419D01*
X232089962Y-153041651D01*
X232109368Y-153050830D01*
X232127781Y-153061866D01*
X232145024Y-153074654D01*
X232160930Y-153089070D01*
X232175346Y-153104976D01*
X232188134Y-153122219D01*
X232199170Y-153140632D01*
X232208349Y-153160038D01*
X232215581Y-153180250D01*
X232220797Y-153201074D01*
X232223947Y-153222309D01*
X232225000Y-153243750D01*
X232225000Y-153681250D01*
X232223947Y-153702691D01*
X232220797Y-153723926D01*
X232215581Y-153744750D01*
X232208349Y-153764962D01*
X232199170Y-153784368D01*
X232188134Y-153802781D01*
X232175346Y-153820024D01*
X232160930Y-153835930D01*
X232145024Y-153850346D01*
X232127781Y-153863134D01*
X232109368Y-153874170D01*
X232089962Y-153883349D01*
X232069750Y-153890581D01*
X232048926Y-153895797D01*
X232027691Y-153898947D01*
X232006250Y-153900000D01*
X231493750Y-153900000D01*
X231472309Y-153898947D01*
X231451074Y-153895797D01*
X231430250Y-153890581D01*
X231410038Y-153883349D01*
X231390632Y-153874170D01*
X231372219Y-153863134D01*
X231354976Y-153850346D01*
X231339070Y-153835930D01*
X231324654Y-153820024D01*
X231311866Y-153802781D01*
X231300830Y-153784368D01*
X231291651Y-153764962D01*
X231284419Y-153744750D01*
X231279203Y-153723926D01*
X231276053Y-153702691D01*
X231275000Y-153681250D01*
X231275000Y-153243750D01*
X231276053Y-153222309D01*
X231279203Y-153201074D01*
X231284419Y-153180250D01*
X231291651Y-153160038D01*
X231300830Y-153140632D01*
X231311866Y-153122219D01*
X231324654Y-153104976D01*
X231339070Y-153089070D01*
X231354976Y-153074654D01*
X231372219Y-153061866D01*
X231390632Y-153050830D01*
X231410038Y-153041651D01*
X231430250Y-153034419D01*
X231451074Y-153029203D01*
X231472309Y-153026053D01*
X231493750Y-153025000D01*
X232006250Y-153025000D01*
X232027691Y-153026053D01*
X232027691Y-153026053D01*
G37*
D11*
X231750000Y-153462500D03*
D10*
G36*
X232027691Y-154601053D02*
G01*
X232048926Y-154604203D01*
X232069750Y-154609419D01*
X232089962Y-154616651D01*
X232109368Y-154625830D01*
X232127781Y-154636866D01*
X232145024Y-154649654D01*
X232160930Y-154664070D01*
X232175346Y-154679976D01*
X232188134Y-154697219D01*
X232199170Y-154715632D01*
X232208349Y-154735038D01*
X232215581Y-154755250D01*
X232220797Y-154776074D01*
X232223947Y-154797309D01*
X232225000Y-154818750D01*
X232225000Y-155256250D01*
X232223947Y-155277691D01*
X232220797Y-155298926D01*
X232215581Y-155319750D01*
X232208349Y-155339962D01*
X232199170Y-155359368D01*
X232188134Y-155377781D01*
X232175346Y-155395024D01*
X232160930Y-155410930D01*
X232145024Y-155425346D01*
X232127781Y-155438134D01*
X232109368Y-155449170D01*
X232089962Y-155458349D01*
X232069750Y-155465581D01*
X232048926Y-155470797D01*
X232027691Y-155473947D01*
X232006250Y-155475000D01*
X231493750Y-155475000D01*
X231472309Y-155473947D01*
X231451074Y-155470797D01*
X231430250Y-155465581D01*
X231410038Y-155458349D01*
X231390632Y-155449170D01*
X231372219Y-155438134D01*
X231354976Y-155425346D01*
X231339070Y-155410930D01*
X231324654Y-155395024D01*
X231311866Y-155377781D01*
X231300830Y-155359368D01*
X231291651Y-155339962D01*
X231284419Y-155319750D01*
X231279203Y-155298926D01*
X231276053Y-155277691D01*
X231275000Y-155256250D01*
X231275000Y-154818750D01*
X231276053Y-154797309D01*
X231279203Y-154776074D01*
X231284419Y-154755250D01*
X231291651Y-154735038D01*
X231300830Y-154715632D01*
X231311866Y-154697219D01*
X231324654Y-154679976D01*
X231339070Y-154664070D01*
X231354976Y-154649654D01*
X231372219Y-154636866D01*
X231390632Y-154625830D01*
X231410038Y-154616651D01*
X231430250Y-154609419D01*
X231451074Y-154604203D01*
X231472309Y-154601053D01*
X231493750Y-154600000D01*
X232006250Y-154600000D01*
X232027691Y-154601053D01*
X232027691Y-154601053D01*
G37*
D11*
X231750000Y-155037500D03*
D10*
G36*
X228415191Y-154526053D02*
G01*
X228436426Y-154529203D01*
X228457250Y-154534419D01*
X228477462Y-154541651D01*
X228496868Y-154550830D01*
X228515281Y-154561866D01*
X228532524Y-154574654D01*
X228548430Y-154589070D01*
X228562846Y-154604976D01*
X228575634Y-154622219D01*
X228586670Y-154640632D01*
X228595849Y-154660038D01*
X228603081Y-154680250D01*
X228608297Y-154701074D01*
X228611447Y-154722309D01*
X228612500Y-154743750D01*
X228612500Y-155256250D01*
X228611447Y-155277691D01*
X228608297Y-155298926D01*
X228603081Y-155319750D01*
X228595849Y-155339962D01*
X228586670Y-155359368D01*
X228575634Y-155377781D01*
X228562846Y-155395024D01*
X228548430Y-155410930D01*
X228532524Y-155425346D01*
X228515281Y-155438134D01*
X228496868Y-155449170D01*
X228477462Y-155458349D01*
X228457250Y-155465581D01*
X228436426Y-155470797D01*
X228415191Y-155473947D01*
X228393750Y-155475000D01*
X227956250Y-155475000D01*
X227934809Y-155473947D01*
X227913574Y-155470797D01*
X227892750Y-155465581D01*
X227872538Y-155458349D01*
X227853132Y-155449170D01*
X227834719Y-155438134D01*
X227817476Y-155425346D01*
X227801570Y-155410930D01*
X227787154Y-155395024D01*
X227774366Y-155377781D01*
X227763330Y-155359368D01*
X227754151Y-155339962D01*
X227746919Y-155319750D01*
X227741703Y-155298926D01*
X227738553Y-155277691D01*
X227737500Y-155256250D01*
X227737500Y-154743750D01*
X227738553Y-154722309D01*
X227741703Y-154701074D01*
X227746919Y-154680250D01*
X227754151Y-154660038D01*
X227763330Y-154640632D01*
X227774366Y-154622219D01*
X227787154Y-154604976D01*
X227801570Y-154589070D01*
X227817476Y-154574654D01*
X227834719Y-154561866D01*
X227853132Y-154550830D01*
X227872538Y-154541651D01*
X227892750Y-154534419D01*
X227913574Y-154529203D01*
X227934809Y-154526053D01*
X227956250Y-154525000D01*
X228393750Y-154525000D01*
X228415191Y-154526053D01*
X228415191Y-154526053D01*
G37*
D11*
X228175000Y-155000000D03*
D10*
G36*
X229990191Y-154526053D02*
G01*
X230011426Y-154529203D01*
X230032250Y-154534419D01*
X230052462Y-154541651D01*
X230071868Y-154550830D01*
X230090281Y-154561866D01*
X230107524Y-154574654D01*
X230123430Y-154589070D01*
X230137846Y-154604976D01*
X230150634Y-154622219D01*
X230161670Y-154640632D01*
X230170849Y-154660038D01*
X230178081Y-154680250D01*
X230183297Y-154701074D01*
X230186447Y-154722309D01*
X230187500Y-154743750D01*
X230187500Y-155256250D01*
X230186447Y-155277691D01*
X230183297Y-155298926D01*
X230178081Y-155319750D01*
X230170849Y-155339962D01*
X230161670Y-155359368D01*
X230150634Y-155377781D01*
X230137846Y-155395024D01*
X230123430Y-155410930D01*
X230107524Y-155425346D01*
X230090281Y-155438134D01*
X230071868Y-155449170D01*
X230052462Y-155458349D01*
X230032250Y-155465581D01*
X230011426Y-155470797D01*
X229990191Y-155473947D01*
X229968750Y-155475000D01*
X229531250Y-155475000D01*
X229509809Y-155473947D01*
X229488574Y-155470797D01*
X229467750Y-155465581D01*
X229447538Y-155458349D01*
X229428132Y-155449170D01*
X229409719Y-155438134D01*
X229392476Y-155425346D01*
X229376570Y-155410930D01*
X229362154Y-155395024D01*
X229349366Y-155377781D01*
X229338330Y-155359368D01*
X229329151Y-155339962D01*
X229321919Y-155319750D01*
X229316703Y-155298926D01*
X229313553Y-155277691D01*
X229312500Y-155256250D01*
X229312500Y-154743750D01*
X229313553Y-154722309D01*
X229316703Y-154701074D01*
X229321919Y-154680250D01*
X229329151Y-154660038D01*
X229338330Y-154640632D01*
X229349366Y-154622219D01*
X229362154Y-154604976D01*
X229376570Y-154589070D01*
X229392476Y-154574654D01*
X229409719Y-154561866D01*
X229428132Y-154550830D01*
X229447538Y-154541651D01*
X229467750Y-154534419D01*
X229488574Y-154529203D01*
X229509809Y-154526053D01*
X229531250Y-154525000D01*
X229968750Y-154525000D01*
X229990191Y-154526053D01*
X229990191Y-154526053D01*
G37*
D11*
X229750000Y-155000000D03*
D10*
G36*
X228415191Y-152526053D02*
G01*
X228436426Y-152529203D01*
X228457250Y-152534419D01*
X228477462Y-152541651D01*
X228496868Y-152550830D01*
X228515281Y-152561866D01*
X228532524Y-152574654D01*
X228548430Y-152589070D01*
X228562846Y-152604976D01*
X228575634Y-152622219D01*
X228586670Y-152640632D01*
X228595849Y-152660038D01*
X228603081Y-152680250D01*
X228608297Y-152701074D01*
X228611447Y-152722309D01*
X228612500Y-152743750D01*
X228612500Y-153256250D01*
X228611447Y-153277691D01*
X228608297Y-153298926D01*
X228603081Y-153319750D01*
X228595849Y-153339962D01*
X228586670Y-153359368D01*
X228575634Y-153377781D01*
X228562846Y-153395024D01*
X228548430Y-153410930D01*
X228532524Y-153425346D01*
X228515281Y-153438134D01*
X228496868Y-153449170D01*
X228477462Y-153458349D01*
X228457250Y-153465581D01*
X228436426Y-153470797D01*
X228415191Y-153473947D01*
X228393750Y-153475000D01*
X227956250Y-153475000D01*
X227934809Y-153473947D01*
X227913574Y-153470797D01*
X227892750Y-153465581D01*
X227872538Y-153458349D01*
X227853132Y-153449170D01*
X227834719Y-153438134D01*
X227817476Y-153425346D01*
X227801570Y-153410930D01*
X227787154Y-153395024D01*
X227774366Y-153377781D01*
X227763330Y-153359368D01*
X227754151Y-153339962D01*
X227746919Y-153319750D01*
X227741703Y-153298926D01*
X227738553Y-153277691D01*
X227737500Y-153256250D01*
X227737500Y-152743750D01*
X227738553Y-152722309D01*
X227741703Y-152701074D01*
X227746919Y-152680250D01*
X227754151Y-152660038D01*
X227763330Y-152640632D01*
X227774366Y-152622219D01*
X227787154Y-152604976D01*
X227801570Y-152589070D01*
X227817476Y-152574654D01*
X227834719Y-152561866D01*
X227853132Y-152550830D01*
X227872538Y-152541651D01*
X227892750Y-152534419D01*
X227913574Y-152529203D01*
X227934809Y-152526053D01*
X227956250Y-152525000D01*
X228393750Y-152525000D01*
X228415191Y-152526053D01*
X228415191Y-152526053D01*
G37*
D11*
X228175000Y-153000000D03*
D10*
G36*
X229990191Y-152526053D02*
G01*
X230011426Y-152529203D01*
X230032250Y-152534419D01*
X230052462Y-152541651D01*
X230071868Y-152550830D01*
X230090281Y-152561866D01*
X230107524Y-152574654D01*
X230123430Y-152589070D01*
X230137846Y-152604976D01*
X230150634Y-152622219D01*
X230161670Y-152640632D01*
X230170849Y-152660038D01*
X230178081Y-152680250D01*
X230183297Y-152701074D01*
X230186447Y-152722309D01*
X230187500Y-152743750D01*
X230187500Y-153256250D01*
X230186447Y-153277691D01*
X230183297Y-153298926D01*
X230178081Y-153319750D01*
X230170849Y-153339962D01*
X230161670Y-153359368D01*
X230150634Y-153377781D01*
X230137846Y-153395024D01*
X230123430Y-153410930D01*
X230107524Y-153425346D01*
X230090281Y-153438134D01*
X230071868Y-153449170D01*
X230052462Y-153458349D01*
X230032250Y-153465581D01*
X230011426Y-153470797D01*
X229990191Y-153473947D01*
X229968750Y-153475000D01*
X229531250Y-153475000D01*
X229509809Y-153473947D01*
X229488574Y-153470797D01*
X229467750Y-153465581D01*
X229447538Y-153458349D01*
X229428132Y-153449170D01*
X229409719Y-153438134D01*
X229392476Y-153425346D01*
X229376570Y-153410930D01*
X229362154Y-153395024D01*
X229349366Y-153377781D01*
X229338330Y-153359368D01*
X229329151Y-153339962D01*
X229321919Y-153319750D01*
X229316703Y-153298926D01*
X229313553Y-153277691D01*
X229312500Y-153256250D01*
X229312500Y-152743750D01*
X229313553Y-152722309D01*
X229316703Y-152701074D01*
X229321919Y-152680250D01*
X229329151Y-152660038D01*
X229338330Y-152640632D01*
X229349366Y-152622219D01*
X229362154Y-152604976D01*
X229376570Y-152589070D01*
X229392476Y-152574654D01*
X229409719Y-152561866D01*
X229428132Y-152550830D01*
X229447538Y-152541651D01*
X229467750Y-152534419D01*
X229488574Y-152529203D01*
X229509809Y-152526053D01*
X229531250Y-152525000D01*
X229968750Y-152525000D01*
X229990191Y-152526053D01*
X229990191Y-152526053D01*
G37*
D11*
X229750000Y-153000000D03*
D10*
G36*
X248277691Y-197351053D02*
G01*
X248298926Y-197354203D01*
X248319750Y-197359419D01*
X248339962Y-197366651D01*
X248359368Y-197375830D01*
X248377781Y-197386866D01*
X248395024Y-197399654D01*
X248410930Y-197414070D01*
X248425346Y-197429976D01*
X248438134Y-197447219D01*
X248449170Y-197465632D01*
X248458349Y-197485038D01*
X248465581Y-197505250D01*
X248470797Y-197526074D01*
X248473947Y-197547309D01*
X248475000Y-197568750D01*
X248475000Y-198006250D01*
X248473947Y-198027691D01*
X248470797Y-198048926D01*
X248465581Y-198069750D01*
X248458349Y-198089962D01*
X248449170Y-198109368D01*
X248438134Y-198127781D01*
X248425346Y-198145024D01*
X248410930Y-198160930D01*
X248395024Y-198175346D01*
X248377781Y-198188134D01*
X248359368Y-198199170D01*
X248339962Y-198208349D01*
X248319750Y-198215581D01*
X248298926Y-198220797D01*
X248277691Y-198223947D01*
X248256250Y-198225000D01*
X247743750Y-198225000D01*
X247722309Y-198223947D01*
X247701074Y-198220797D01*
X247680250Y-198215581D01*
X247660038Y-198208349D01*
X247640632Y-198199170D01*
X247622219Y-198188134D01*
X247604976Y-198175346D01*
X247589070Y-198160930D01*
X247574654Y-198145024D01*
X247561866Y-198127781D01*
X247550830Y-198109368D01*
X247541651Y-198089962D01*
X247534419Y-198069750D01*
X247529203Y-198048926D01*
X247526053Y-198027691D01*
X247525000Y-198006250D01*
X247525000Y-197568750D01*
X247526053Y-197547309D01*
X247529203Y-197526074D01*
X247534419Y-197505250D01*
X247541651Y-197485038D01*
X247550830Y-197465632D01*
X247561866Y-197447219D01*
X247574654Y-197429976D01*
X247589070Y-197414070D01*
X247604976Y-197399654D01*
X247622219Y-197386866D01*
X247640632Y-197375830D01*
X247660038Y-197366651D01*
X247680250Y-197359419D01*
X247701074Y-197354203D01*
X247722309Y-197351053D01*
X247743750Y-197350000D01*
X248256250Y-197350000D01*
X248277691Y-197351053D01*
X248277691Y-197351053D01*
G37*
D11*
X248000000Y-197787500D03*
D10*
G36*
X248277691Y-195776053D02*
G01*
X248298926Y-195779203D01*
X248319750Y-195784419D01*
X248339962Y-195791651D01*
X248359368Y-195800830D01*
X248377781Y-195811866D01*
X248395024Y-195824654D01*
X248410930Y-195839070D01*
X248425346Y-195854976D01*
X248438134Y-195872219D01*
X248449170Y-195890632D01*
X248458349Y-195910038D01*
X248465581Y-195930250D01*
X248470797Y-195951074D01*
X248473947Y-195972309D01*
X248475000Y-195993750D01*
X248475000Y-196431250D01*
X248473947Y-196452691D01*
X248470797Y-196473926D01*
X248465581Y-196494750D01*
X248458349Y-196514962D01*
X248449170Y-196534368D01*
X248438134Y-196552781D01*
X248425346Y-196570024D01*
X248410930Y-196585930D01*
X248395024Y-196600346D01*
X248377781Y-196613134D01*
X248359368Y-196624170D01*
X248339962Y-196633349D01*
X248319750Y-196640581D01*
X248298926Y-196645797D01*
X248277691Y-196648947D01*
X248256250Y-196650000D01*
X247743750Y-196650000D01*
X247722309Y-196648947D01*
X247701074Y-196645797D01*
X247680250Y-196640581D01*
X247660038Y-196633349D01*
X247640632Y-196624170D01*
X247622219Y-196613134D01*
X247604976Y-196600346D01*
X247589070Y-196585930D01*
X247574654Y-196570024D01*
X247561866Y-196552781D01*
X247550830Y-196534368D01*
X247541651Y-196514962D01*
X247534419Y-196494750D01*
X247529203Y-196473926D01*
X247526053Y-196452691D01*
X247525000Y-196431250D01*
X247525000Y-195993750D01*
X247526053Y-195972309D01*
X247529203Y-195951074D01*
X247534419Y-195930250D01*
X247541651Y-195910038D01*
X247550830Y-195890632D01*
X247561866Y-195872219D01*
X247574654Y-195854976D01*
X247589070Y-195839070D01*
X247604976Y-195824654D01*
X247622219Y-195811866D01*
X247640632Y-195800830D01*
X247660038Y-195791651D01*
X247680250Y-195784419D01*
X247701074Y-195779203D01*
X247722309Y-195776053D01*
X247743750Y-195775000D01*
X248256250Y-195775000D01*
X248277691Y-195776053D01*
X248277691Y-195776053D01*
G37*
D11*
X248000000Y-196212500D03*
D10*
G36*
X248277691Y-208351053D02*
G01*
X248298926Y-208354203D01*
X248319750Y-208359419D01*
X248339962Y-208366651D01*
X248359368Y-208375830D01*
X248377781Y-208386866D01*
X248395024Y-208399654D01*
X248410930Y-208414070D01*
X248425346Y-208429976D01*
X248438134Y-208447219D01*
X248449170Y-208465632D01*
X248458349Y-208485038D01*
X248465581Y-208505250D01*
X248470797Y-208526074D01*
X248473947Y-208547309D01*
X248475000Y-208568750D01*
X248475000Y-209006250D01*
X248473947Y-209027691D01*
X248470797Y-209048926D01*
X248465581Y-209069750D01*
X248458349Y-209089962D01*
X248449170Y-209109368D01*
X248438134Y-209127781D01*
X248425346Y-209145024D01*
X248410930Y-209160930D01*
X248395024Y-209175346D01*
X248377781Y-209188134D01*
X248359368Y-209199170D01*
X248339962Y-209208349D01*
X248319750Y-209215581D01*
X248298926Y-209220797D01*
X248277691Y-209223947D01*
X248256250Y-209225000D01*
X247743750Y-209225000D01*
X247722309Y-209223947D01*
X247701074Y-209220797D01*
X247680250Y-209215581D01*
X247660038Y-209208349D01*
X247640632Y-209199170D01*
X247622219Y-209188134D01*
X247604976Y-209175346D01*
X247589070Y-209160930D01*
X247574654Y-209145024D01*
X247561866Y-209127781D01*
X247550830Y-209109368D01*
X247541651Y-209089962D01*
X247534419Y-209069750D01*
X247529203Y-209048926D01*
X247526053Y-209027691D01*
X247525000Y-209006250D01*
X247525000Y-208568750D01*
X247526053Y-208547309D01*
X247529203Y-208526074D01*
X247534419Y-208505250D01*
X247541651Y-208485038D01*
X247550830Y-208465632D01*
X247561866Y-208447219D01*
X247574654Y-208429976D01*
X247589070Y-208414070D01*
X247604976Y-208399654D01*
X247622219Y-208386866D01*
X247640632Y-208375830D01*
X247660038Y-208366651D01*
X247680250Y-208359419D01*
X247701074Y-208354203D01*
X247722309Y-208351053D01*
X247743750Y-208350000D01*
X248256250Y-208350000D01*
X248277691Y-208351053D01*
X248277691Y-208351053D01*
G37*
D11*
X248000000Y-208787500D03*
D10*
G36*
X248277691Y-206776053D02*
G01*
X248298926Y-206779203D01*
X248319750Y-206784419D01*
X248339962Y-206791651D01*
X248359368Y-206800830D01*
X248377781Y-206811866D01*
X248395024Y-206824654D01*
X248410930Y-206839070D01*
X248425346Y-206854976D01*
X248438134Y-206872219D01*
X248449170Y-206890632D01*
X248458349Y-206910038D01*
X248465581Y-206930250D01*
X248470797Y-206951074D01*
X248473947Y-206972309D01*
X248475000Y-206993750D01*
X248475000Y-207431250D01*
X248473947Y-207452691D01*
X248470797Y-207473926D01*
X248465581Y-207494750D01*
X248458349Y-207514962D01*
X248449170Y-207534368D01*
X248438134Y-207552781D01*
X248425346Y-207570024D01*
X248410930Y-207585930D01*
X248395024Y-207600346D01*
X248377781Y-207613134D01*
X248359368Y-207624170D01*
X248339962Y-207633349D01*
X248319750Y-207640581D01*
X248298926Y-207645797D01*
X248277691Y-207648947D01*
X248256250Y-207650000D01*
X247743750Y-207650000D01*
X247722309Y-207648947D01*
X247701074Y-207645797D01*
X247680250Y-207640581D01*
X247660038Y-207633349D01*
X247640632Y-207624170D01*
X247622219Y-207613134D01*
X247604976Y-207600346D01*
X247589070Y-207585930D01*
X247574654Y-207570024D01*
X247561866Y-207552781D01*
X247550830Y-207534368D01*
X247541651Y-207514962D01*
X247534419Y-207494750D01*
X247529203Y-207473926D01*
X247526053Y-207452691D01*
X247525000Y-207431250D01*
X247525000Y-206993750D01*
X247526053Y-206972309D01*
X247529203Y-206951074D01*
X247534419Y-206930250D01*
X247541651Y-206910038D01*
X247550830Y-206890632D01*
X247561866Y-206872219D01*
X247574654Y-206854976D01*
X247589070Y-206839070D01*
X247604976Y-206824654D01*
X247622219Y-206811866D01*
X247640632Y-206800830D01*
X247660038Y-206791651D01*
X247680250Y-206784419D01*
X247701074Y-206779203D01*
X247722309Y-206776053D01*
X247743750Y-206775000D01*
X248256250Y-206775000D01*
X248277691Y-206776053D01*
X248277691Y-206776053D01*
G37*
D11*
X248000000Y-207212500D03*
D10*
G36*
X263277691Y-204776053D02*
G01*
X263298926Y-204779203D01*
X263319750Y-204784419D01*
X263339962Y-204791651D01*
X263359368Y-204800830D01*
X263377781Y-204811866D01*
X263395024Y-204824654D01*
X263410930Y-204839070D01*
X263425346Y-204854976D01*
X263438134Y-204872219D01*
X263449170Y-204890632D01*
X263458349Y-204910038D01*
X263465581Y-204930250D01*
X263470797Y-204951074D01*
X263473947Y-204972309D01*
X263475000Y-204993750D01*
X263475000Y-205431250D01*
X263473947Y-205452691D01*
X263470797Y-205473926D01*
X263465581Y-205494750D01*
X263458349Y-205514962D01*
X263449170Y-205534368D01*
X263438134Y-205552781D01*
X263425346Y-205570024D01*
X263410930Y-205585930D01*
X263395024Y-205600346D01*
X263377781Y-205613134D01*
X263359368Y-205624170D01*
X263339962Y-205633349D01*
X263319750Y-205640581D01*
X263298926Y-205645797D01*
X263277691Y-205648947D01*
X263256250Y-205650000D01*
X262743750Y-205650000D01*
X262722309Y-205648947D01*
X262701074Y-205645797D01*
X262680250Y-205640581D01*
X262660038Y-205633349D01*
X262640632Y-205624170D01*
X262622219Y-205613134D01*
X262604976Y-205600346D01*
X262589070Y-205585930D01*
X262574654Y-205570024D01*
X262561866Y-205552781D01*
X262550830Y-205534368D01*
X262541651Y-205514962D01*
X262534419Y-205494750D01*
X262529203Y-205473926D01*
X262526053Y-205452691D01*
X262525000Y-205431250D01*
X262525000Y-204993750D01*
X262526053Y-204972309D01*
X262529203Y-204951074D01*
X262534419Y-204930250D01*
X262541651Y-204910038D01*
X262550830Y-204890632D01*
X262561866Y-204872219D01*
X262574654Y-204854976D01*
X262589070Y-204839070D01*
X262604976Y-204824654D01*
X262622219Y-204811866D01*
X262640632Y-204800830D01*
X262660038Y-204791651D01*
X262680250Y-204784419D01*
X262701074Y-204779203D01*
X262722309Y-204776053D01*
X262743750Y-204775000D01*
X263256250Y-204775000D01*
X263277691Y-204776053D01*
X263277691Y-204776053D01*
G37*
D11*
X263000000Y-205212500D03*
D10*
G36*
X263277691Y-206351053D02*
G01*
X263298926Y-206354203D01*
X263319750Y-206359419D01*
X263339962Y-206366651D01*
X263359368Y-206375830D01*
X263377781Y-206386866D01*
X263395024Y-206399654D01*
X263410930Y-206414070D01*
X263425346Y-206429976D01*
X263438134Y-206447219D01*
X263449170Y-206465632D01*
X263458349Y-206485038D01*
X263465581Y-206505250D01*
X263470797Y-206526074D01*
X263473947Y-206547309D01*
X263475000Y-206568750D01*
X263475000Y-207006250D01*
X263473947Y-207027691D01*
X263470797Y-207048926D01*
X263465581Y-207069750D01*
X263458349Y-207089962D01*
X263449170Y-207109368D01*
X263438134Y-207127781D01*
X263425346Y-207145024D01*
X263410930Y-207160930D01*
X263395024Y-207175346D01*
X263377781Y-207188134D01*
X263359368Y-207199170D01*
X263339962Y-207208349D01*
X263319750Y-207215581D01*
X263298926Y-207220797D01*
X263277691Y-207223947D01*
X263256250Y-207225000D01*
X262743750Y-207225000D01*
X262722309Y-207223947D01*
X262701074Y-207220797D01*
X262680250Y-207215581D01*
X262660038Y-207208349D01*
X262640632Y-207199170D01*
X262622219Y-207188134D01*
X262604976Y-207175346D01*
X262589070Y-207160930D01*
X262574654Y-207145024D01*
X262561866Y-207127781D01*
X262550830Y-207109368D01*
X262541651Y-207089962D01*
X262534419Y-207069750D01*
X262529203Y-207048926D01*
X262526053Y-207027691D01*
X262525000Y-207006250D01*
X262525000Y-206568750D01*
X262526053Y-206547309D01*
X262529203Y-206526074D01*
X262534419Y-206505250D01*
X262541651Y-206485038D01*
X262550830Y-206465632D01*
X262561866Y-206447219D01*
X262574654Y-206429976D01*
X262589070Y-206414070D01*
X262604976Y-206399654D01*
X262622219Y-206386866D01*
X262640632Y-206375830D01*
X262660038Y-206366651D01*
X262680250Y-206359419D01*
X262701074Y-206354203D01*
X262722309Y-206351053D01*
X262743750Y-206350000D01*
X263256250Y-206350000D01*
X263277691Y-206351053D01*
X263277691Y-206351053D01*
G37*
D11*
X263000000Y-206787500D03*
D10*
G36*
X274277691Y-206351053D02*
G01*
X274298926Y-206354203D01*
X274319750Y-206359419D01*
X274339962Y-206366651D01*
X274359368Y-206375830D01*
X274377781Y-206386866D01*
X274395024Y-206399654D01*
X274410930Y-206414070D01*
X274425346Y-206429976D01*
X274438134Y-206447219D01*
X274449170Y-206465632D01*
X274458349Y-206485038D01*
X274465581Y-206505250D01*
X274470797Y-206526074D01*
X274473947Y-206547309D01*
X274475000Y-206568750D01*
X274475000Y-207006250D01*
X274473947Y-207027691D01*
X274470797Y-207048926D01*
X274465581Y-207069750D01*
X274458349Y-207089962D01*
X274449170Y-207109368D01*
X274438134Y-207127781D01*
X274425346Y-207145024D01*
X274410930Y-207160930D01*
X274395024Y-207175346D01*
X274377781Y-207188134D01*
X274359368Y-207199170D01*
X274339962Y-207208349D01*
X274319750Y-207215581D01*
X274298926Y-207220797D01*
X274277691Y-207223947D01*
X274256250Y-207225000D01*
X273743750Y-207225000D01*
X273722309Y-207223947D01*
X273701074Y-207220797D01*
X273680250Y-207215581D01*
X273660038Y-207208349D01*
X273640632Y-207199170D01*
X273622219Y-207188134D01*
X273604976Y-207175346D01*
X273589070Y-207160930D01*
X273574654Y-207145024D01*
X273561866Y-207127781D01*
X273550830Y-207109368D01*
X273541651Y-207089962D01*
X273534419Y-207069750D01*
X273529203Y-207048926D01*
X273526053Y-207027691D01*
X273525000Y-207006250D01*
X273525000Y-206568750D01*
X273526053Y-206547309D01*
X273529203Y-206526074D01*
X273534419Y-206505250D01*
X273541651Y-206485038D01*
X273550830Y-206465632D01*
X273561866Y-206447219D01*
X273574654Y-206429976D01*
X273589070Y-206414070D01*
X273604976Y-206399654D01*
X273622219Y-206386866D01*
X273640632Y-206375830D01*
X273660038Y-206366651D01*
X273680250Y-206359419D01*
X273701074Y-206354203D01*
X273722309Y-206351053D01*
X273743750Y-206350000D01*
X274256250Y-206350000D01*
X274277691Y-206351053D01*
X274277691Y-206351053D01*
G37*
D11*
X274000000Y-206787500D03*
D10*
G36*
X274277691Y-204776053D02*
G01*
X274298926Y-204779203D01*
X274319750Y-204784419D01*
X274339962Y-204791651D01*
X274359368Y-204800830D01*
X274377781Y-204811866D01*
X274395024Y-204824654D01*
X274410930Y-204839070D01*
X274425346Y-204854976D01*
X274438134Y-204872219D01*
X274449170Y-204890632D01*
X274458349Y-204910038D01*
X274465581Y-204930250D01*
X274470797Y-204951074D01*
X274473947Y-204972309D01*
X274475000Y-204993750D01*
X274475000Y-205431250D01*
X274473947Y-205452691D01*
X274470797Y-205473926D01*
X274465581Y-205494750D01*
X274458349Y-205514962D01*
X274449170Y-205534368D01*
X274438134Y-205552781D01*
X274425346Y-205570024D01*
X274410930Y-205585930D01*
X274395024Y-205600346D01*
X274377781Y-205613134D01*
X274359368Y-205624170D01*
X274339962Y-205633349D01*
X274319750Y-205640581D01*
X274298926Y-205645797D01*
X274277691Y-205648947D01*
X274256250Y-205650000D01*
X273743750Y-205650000D01*
X273722309Y-205648947D01*
X273701074Y-205645797D01*
X273680250Y-205640581D01*
X273660038Y-205633349D01*
X273640632Y-205624170D01*
X273622219Y-205613134D01*
X273604976Y-205600346D01*
X273589070Y-205585930D01*
X273574654Y-205570024D01*
X273561866Y-205552781D01*
X273550830Y-205534368D01*
X273541651Y-205514962D01*
X273534419Y-205494750D01*
X273529203Y-205473926D01*
X273526053Y-205452691D01*
X273525000Y-205431250D01*
X273525000Y-204993750D01*
X273526053Y-204972309D01*
X273529203Y-204951074D01*
X273534419Y-204930250D01*
X273541651Y-204910038D01*
X273550830Y-204890632D01*
X273561866Y-204872219D01*
X273574654Y-204854976D01*
X273589070Y-204839070D01*
X273604976Y-204824654D01*
X273622219Y-204811866D01*
X273640632Y-204800830D01*
X273660038Y-204791651D01*
X273680250Y-204784419D01*
X273701074Y-204779203D01*
X273722309Y-204776053D01*
X273743750Y-204775000D01*
X274256250Y-204775000D01*
X274277691Y-204776053D01*
X274277691Y-204776053D01*
G37*
D11*
X274000000Y-205212500D03*
D10*
G36*
X287277691Y-206351053D02*
G01*
X287298926Y-206354203D01*
X287319750Y-206359419D01*
X287339962Y-206366651D01*
X287359368Y-206375830D01*
X287377781Y-206386866D01*
X287395024Y-206399654D01*
X287410930Y-206414070D01*
X287425346Y-206429976D01*
X287438134Y-206447219D01*
X287449170Y-206465632D01*
X287458349Y-206485038D01*
X287465581Y-206505250D01*
X287470797Y-206526074D01*
X287473947Y-206547309D01*
X287475000Y-206568750D01*
X287475000Y-207006250D01*
X287473947Y-207027691D01*
X287470797Y-207048926D01*
X287465581Y-207069750D01*
X287458349Y-207089962D01*
X287449170Y-207109368D01*
X287438134Y-207127781D01*
X287425346Y-207145024D01*
X287410930Y-207160930D01*
X287395024Y-207175346D01*
X287377781Y-207188134D01*
X287359368Y-207199170D01*
X287339962Y-207208349D01*
X287319750Y-207215581D01*
X287298926Y-207220797D01*
X287277691Y-207223947D01*
X287256250Y-207225000D01*
X286743750Y-207225000D01*
X286722309Y-207223947D01*
X286701074Y-207220797D01*
X286680250Y-207215581D01*
X286660038Y-207208349D01*
X286640632Y-207199170D01*
X286622219Y-207188134D01*
X286604976Y-207175346D01*
X286589070Y-207160930D01*
X286574654Y-207145024D01*
X286561866Y-207127781D01*
X286550830Y-207109368D01*
X286541651Y-207089962D01*
X286534419Y-207069750D01*
X286529203Y-207048926D01*
X286526053Y-207027691D01*
X286525000Y-207006250D01*
X286525000Y-206568750D01*
X286526053Y-206547309D01*
X286529203Y-206526074D01*
X286534419Y-206505250D01*
X286541651Y-206485038D01*
X286550830Y-206465632D01*
X286561866Y-206447219D01*
X286574654Y-206429976D01*
X286589070Y-206414070D01*
X286604976Y-206399654D01*
X286622219Y-206386866D01*
X286640632Y-206375830D01*
X286660038Y-206366651D01*
X286680250Y-206359419D01*
X286701074Y-206354203D01*
X286722309Y-206351053D01*
X286743750Y-206350000D01*
X287256250Y-206350000D01*
X287277691Y-206351053D01*
X287277691Y-206351053D01*
G37*
D11*
X287000000Y-206787500D03*
D10*
G36*
X287277691Y-204776053D02*
G01*
X287298926Y-204779203D01*
X287319750Y-204784419D01*
X287339962Y-204791651D01*
X287359368Y-204800830D01*
X287377781Y-204811866D01*
X287395024Y-204824654D01*
X287410930Y-204839070D01*
X287425346Y-204854976D01*
X287438134Y-204872219D01*
X287449170Y-204890632D01*
X287458349Y-204910038D01*
X287465581Y-204930250D01*
X287470797Y-204951074D01*
X287473947Y-204972309D01*
X287475000Y-204993750D01*
X287475000Y-205431250D01*
X287473947Y-205452691D01*
X287470797Y-205473926D01*
X287465581Y-205494750D01*
X287458349Y-205514962D01*
X287449170Y-205534368D01*
X287438134Y-205552781D01*
X287425346Y-205570024D01*
X287410930Y-205585930D01*
X287395024Y-205600346D01*
X287377781Y-205613134D01*
X287359368Y-205624170D01*
X287339962Y-205633349D01*
X287319750Y-205640581D01*
X287298926Y-205645797D01*
X287277691Y-205648947D01*
X287256250Y-205650000D01*
X286743750Y-205650000D01*
X286722309Y-205648947D01*
X286701074Y-205645797D01*
X286680250Y-205640581D01*
X286660038Y-205633349D01*
X286640632Y-205624170D01*
X286622219Y-205613134D01*
X286604976Y-205600346D01*
X286589070Y-205585930D01*
X286574654Y-205570024D01*
X286561866Y-205552781D01*
X286550830Y-205534368D01*
X286541651Y-205514962D01*
X286534419Y-205494750D01*
X286529203Y-205473926D01*
X286526053Y-205452691D01*
X286525000Y-205431250D01*
X286525000Y-204993750D01*
X286526053Y-204972309D01*
X286529203Y-204951074D01*
X286534419Y-204930250D01*
X286541651Y-204910038D01*
X286550830Y-204890632D01*
X286561866Y-204872219D01*
X286574654Y-204854976D01*
X286589070Y-204839070D01*
X286604976Y-204824654D01*
X286622219Y-204811866D01*
X286640632Y-204800830D01*
X286660038Y-204791651D01*
X286680250Y-204784419D01*
X286701074Y-204779203D01*
X286722309Y-204776053D01*
X286743750Y-204775000D01*
X287256250Y-204775000D01*
X287277691Y-204776053D01*
X287277691Y-204776053D01*
G37*
D11*
X287000000Y-205212500D03*
D10*
G36*
X211277691Y-150351053D02*
G01*
X211298926Y-150354203D01*
X211319750Y-150359419D01*
X211339962Y-150366651D01*
X211359368Y-150375830D01*
X211377781Y-150386866D01*
X211395024Y-150399654D01*
X211410930Y-150414070D01*
X211425346Y-150429976D01*
X211438134Y-150447219D01*
X211449170Y-150465632D01*
X211458349Y-150485038D01*
X211465581Y-150505250D01*
X211470797Y-150526074D01*
X211473947Y-150547309D01*
X211475000Y-150568750D01*
X211475000Y-151006250D01*
X211473947Y-151027691D01*
X211470797Y-151048926D01*
X211465581Y-151069750D01*
X211458349Y-151089962D01*
X211449170Y-151109368D01*
X211438134Y-151127781D01*
X211425346Y-151145024D01*
X211410930Y-151160930D01*
X211395024Y-151175346D01*
X211377781Y-151188134D01*
X211359368Y-151199170D01*
X211339962Y-151208349D01*
X211319750Y-151215581D01*
X211298926Y-151220797D01*
X211277691Y-151223947D01*
X211256250Y-151225000D01*
X210743750Y-151225000D01*
X210722309Y-151223947D01*
X210701074Y-151220797D01*
X210680250Y-151215581D01*
X210660038Y-151208349D01*
X210640632Y-151199170D01*
X210622219Y-151188134D01*
X210604976Y-151175346D01*
X210589070Y-151160930D01*
X210574654Y-151145024D01*
X210561866Y-151127781D01*
X210550830Y-151109368D01*
X210541651Y-151089962D01*
X210534419Y-151069750D01*
X210529203Y-151048926D01*
X210526053Y-151027691D01*
X210525000Y-151006250D01*
X210525000Y-150568750D01*
X210526053Y-150547309D01*
X210529203Y-150526074D01*
X210534419Y-150505250D01*
X210541651Y-150485038D01*
X210550830Y-150465632D01*
X210561866Y-150447219D01*
X210574654Y-150429976D01*
X210589070Y-150414070D01*
X210604976Y-150399654D01*
X210622219Y-150386866D01*
X210640632Y-150375830D01*
X210660038Y-150366651D01*
X210680250Y-150359419D01*
X210701074Y-150354203D01*
X210722309Y-150351053D01*
X210743750Y-150350000D01*
X211256250Y-150350000D01*
X211277691Y-150351053D01*
X211277691Y-150351053D01*
G37*
D11*
X211000000Y-150787500D03*
D10*
G36*
X211277691Y-148776053D02*
G01*
X211298926Y-148779203D01*
X211319750Y-148784419D01*
X211339962Y-148791651D01*
X211359368Y-148800830D01*
X211377781Y-148811866D01*
X211395024Y-148824654D01*
X211410930Y-148839070D01*
X211425346Y-148854976D01*
X211438134Y-148872219D01*
X211449170Y-148890632D01*
X211458349Y-148910038D01*
X211465581Y-148930250D01*
X211470797Y-148951074D01*
X211473947Y-148972309D01*
X211475000Y-148993750D01*
X211475000Y-149431250D01*
X211473947Y-149452691D01*
X211470797Y-149473926D01*
X211465581Y-149494750D01*
X211458349Y-149514962D01*
X211449170Y-149534368D01*
X211438134Y-149552781D01*
X211425346Y-149570024D01*
X211410930Y-149585930D01*
X211395024Y-149600346D01*
X211377781Y-149613134D01*
X211359368Y-149624170D01*
X211339962Y-149633349D01*
X211319750Y-149640581D01*
X211298926Y-149645797D01*
X211277691Y-149648947D01*
X211256250Y-149650000D01*
X210743750Y-149650000D01*
X210722309Y-149648947D01*
X210701074Y-149645797D01*
X210680250Y-149640581D01*
X210660038Y-149633349D01*
X210640632Y-149624170D01*
X210622219Y-149613134D01*
X210604976Y-149600346D01*
X210589070Y-149585930D01*
X210574654Y-149570024D01*
X210561866Y-149552781D01*
X210550830Y-149534368D01*
X210541651Y-149514962D01*
X210534419Y-149494750D01*
X210529203Y-149473926D01*
X210526053Y-149452691D01*
X210525000Y-149431250D01*
X210525000Y-148993750D01*
X210526053Y-148972309D01*
X210529203Y-148951074D01*
X210534419Y-148930250D01*
X210541651Y-148910038D01*
X210550830Y-148890632D01*
X210561866Y-148872219D01*
X210574654Y-148854976D01*
X210589070Y-148839070D01*
X210604976Y-148824654D01*
X210622219Y-148811866D01*
X210640632Y-148800830D01*
X210660038Y-148791651D01*
X210680250Y-148784419D01*
X210701074Y-148779203D01*
X210722309Y-148776053D01*
X210743750Y-148775000D01*
X211256250Y-148775000D01*
X211277691Y-148776053D01*
X211277691Y-148776053D01*
G37*
D11*
X211000000Y-149212500D03*
D10*
G36*
X214277691Y-150351053D02*
G01*
X214298926Y-150354203D01*
X214319750Y-150359419D01*
X214339962Y-150366651D01*
X214359368Y-150375830D01*
X214377781Y-150386866D01*
X214395024Y-150399654D01*
X214410930Y-150414070D01*
X214425346Y-150429976D01*
X214438134Y-150447219D01*
X214449170Y-150465632D01*
X214458349Y-150485038D01*
X214465581Y-150505250D01*
X214470797Y-150526074D01*
X214473947Y-150547309D01*
X214475000Y-150568750D01*
X214475000Y-151006250D01*
X214473947Y-151027691D01*
X214470797Y-151048926D01*
X214465581Y-151069750D01*
X214458349Y-151089962D01*
X214449170Y-151109368D01*
X214438134Y-151127781D01*
X214425346Y-151145024D01*
X214410930Y-151160930D01*
X214395024Y-151175346D01*
X214377781Y-151188134D01*
X214359368Y-151199170D01*
X214339962Y-151208349D01*
X214319750Y-151215581D01*
X214298926Y-151220797D01*
X214277691Y-151223947D01*
X214256250Y-151225000D01*
X213743750Y-151225000D01*
X213722309Y-151223947D01*
X213701074Y-151220797D01*
X213680250Y-151215581D01*
X213660038Y-151208349D01*
X213640632Y-151199170D01*
X213622219Y-151188134D01*
X213604976Y-151175346D01*
X213589070Y-151160930D01*
X213574654Y-151145024D01*
X213561866Y-151127781D01*
X213550830Y-151109368D01*
X213541651Y-151089962D01*
X213534419Y-151069750D01*
X213529203Y-151048926D01*
X213526053Y-151027691D01*
X213525000Y-151006250D01*
X213525000Y-150568750D01*
X213526053Y-150547309D01*
X213529203Y-150526074D01*
X213534419Y-150505250D01*
X213541651Y-150485038D01*
X213550830Y-150465632D01*
X213561866Y-150447219D01*
X213574654Y-150429976D01*
X213589070Y-150414070D01*
X213604976Y-150399654D01*
X213622219Y-150386866D01*
X213640632Y-150375830D01*
X213660038Y-150366651D01*
X213680250Y-150359419D01*
X213701074Y-150354203D01*
X213722309Y-150351053D01*
X213743750Y-150350000D01*
X214256250Y-150350000D01*
X214277691Y-150351053D01*
X214277691Y-150351053D01*
G37*
D11*
X214000000Y-150787500D03*
D10*
G36*
X214277691Y-148776053D02*
G01*
X214298926Y-148779203D01*
X214319750Y-148784419D01*
X214339962Y-148791651D01*
X214359368Y-148800830D01*
X214377781Y-148811866D01*
X214395024Y-148824654D01*
X214410930Y-148839070D01*
X214425346Y-148854976D01*
X214438134Y-148872219D01*
X214449170Y-148890632D01*
X214458349Y-148910038D01*
X214465581Y-148930250D01*
X214470797Y-148951074D01*
X214473947Y-148972309D01*
X214475000Y-148993750D01*
X214475000Y-149431250D01*
X214473947Y-149452691D01*
X214470797Y-149473926D01*
X214465581Y-149494750D01*
X214458349Y-149514962D01*
X214449170Y-149534368D01*
X214438134Y-149552781D01*
X214425346Y-149570024D01*
X214410930Y-149585930D01*
X214395024Y-149600346D01*
X214377781Y-149613134D01*
X214359368Y-149624170D01*
X214339962Y-149633349D01*
X214319750Y-149640581D01*
X214298926Y-149645797D01*
X214277691Y-149648947D01*
X214256250Y-149650000D01*
X213743750Y-149650000D01*
X213722309Y-149648947D01*
X213701074Y-149645797D01*
X213680250Y-149640581D01*
X213660038Y-149633349D01*
X213640632Y-149624170D01*
X213622219Y-149613134D01*
X213604976Y-149600346D01*
X213589070Y-149585930D01*
X213574654Y-149570024D01*
X213561866Y-149552781D01*
X213550830Y-149534368D01*
X213541651Y-149514962D01*
X213534419Y-149494750D01*
X213529203Y-149473926D01*
X213526053Y-149452691D01*
X213525000Y-149431250D01*
X213525000Y-148993750D01*
X213526053Y-148972309D01*
X213529203Y-148951074D01*
X213534419Y-148930250D01*
X213541651Y-148910038D01*
X213550830Y-148890632D01*
X213561866Y-148872219D01*
X213574654Y-148854976D01*
X213589070Y-148839070D01*
X213604976Y-148824654D01*
X213622219Y-148811866D01*
X213640632Y-148800830D01*
X213660038Y-148791651D01*
X213680250Y-148784419D01*
X213701074Y-148779203D01*
X213722309Y-148776053D01*
X213743750Y-148775000D01*
X214256250Y-148775000D01*
X214277691Y-148776053D01*
X214277691Y-148776053D01*
G37*
D11*
X214000000Y-149212500D03*
D10*
G36*
X217277691Y-148776053D02*
G01*
X217298926Y-148779203D01*
X217319750Y-148784419D01*
X217339962Y-148791651D01*
X217359368Y-148800830D01*
X217377781Y-148811866D01*
X217395024Y-148824654D01*
X217410930Y-148839070D01*
X217425346Y-148854976D01*
X217438134Y-148872219D01*
X217449170Y-148890632D01*
X217458349Y-148910038D01*
X217465581Y-148930250D01*
X217470797Y-148951074D01*
X217473947Y-148972309D01*
X217475000Y-148993750D01*
X217475000Y-149431250D01*
X217473947Y-149452691D01*
X217470797Y-149473926D01*
X217465581Y-149494750D01*
X217458349Y-149514962D01*
X217449170Y-149534368D01*
X217438134Y-149552781D01*
X217425346Y-149570024D01*
X217410930Y-149585930D01*
X217395024Y-149600346D01*
X217377781Y-149613134D01*
X217359368Y-149624170D01*
X217339962Y-149633349D01*
X217319750Y-149640581D01*
X217298926Y-149645797D01*
X217277691Y-149648947D01*
X217256250Y-149650000D01*
X216743750Y-149650000D01*
X216722309Y-149648947D01*
X216701074Y-149645797D01*
X216680250Y-149640581D01*
X216660038Y-149633349D01*
X216640632Y-149624170D01*
X216622219Y-149613134D01*
X216604976Y-149600346D01*
X216589070Y-149585930D01*
X216574654Y-149570024D01*
X216561866Y-149552781D01*
X216550830Y-149534368D01*
X216541651Y-149514962D01*
X216534419Y-149494750D01*
X216529203Y-149473926D01*
X216526053Y-149452691D01*
X216525000Y-149431250D01*
X216525000Y-148993750D01*
X216526053Y-148972309D01*
X216529203Y-148951074D01*
X216534419Y-148930250D01*
X216541651Y-148910038D01*
X216550830Y-148890632D01*
X216561866Y-148872219D01*
X216574654Y-148854976D01*
X216589070Y-148839070D01*
X216604976Y-148824654D01*
X216622219Y-148811866D01*
X216640632Y-148800830D01*
X216660038Y-148791651D01*
X216680250Y-148784419D01*
X216701074Y-148779203D01*
X216722309Y-148776053D01*
X216743750Y-148775000D01*
X217256250Y-148775000D01*
X217277691Y-148776053D01*
X217277691Y-148776053D01*
G37*
D11*
X217000000Y-149212500D03*
D10*
G36*
X217277691Y-150351053D02*
G01*
X217298926Y-150354203D01*
X217319750Y-150359419D01*
X217339962Y-150366651D01*
X217359368Y-150375830D01*
X217377781Y-150386866D01*
X217395024Y-150399654D01*
X217410930Y-150414070D01*
X217425346Y-150429976D01*
X217438134Y-150447219D01*
X217449170Y-150465632D01*
X217458349Y-150485038D01*
X217465581Y-150505250D01*
X217470797Y-150526074D01*
X217473947Y-150547309D01*
X217475000Y-150568750D01*
X217475000Y-151006250D01*
X217473947Y-151027691D01*
X217470797Y-151048926D01*
X217465581Y-151069750D01*
X217458349Y-151089962D01*
X217449170Y-151109368D01*
X217438134Y-151127781D01*
X217425346Y-151145024D01*
X217410930Y-151160930D01*
X217395024Y-151175346D01*
X217377781Y-151188134D01*
X217359368Y-151199170D01*
X217339962Y-151208349D01*
X217319750Y-151215581D01*
X217298926Y-151220797D01*
X217277691Y-151223947D01*
X217256250Y-151225000D01*
X216743750Y-151225000D01*
X216722309Y-151223947D01*
X216701074Y-151220797D01*
X216680250Y-151215581D01*
X216660038Y-151208349D01*
X216640632Y-151199170D01*
X216622219Y-151188134D01*
X216604976Y-151175346D01*
X216589070Y-151160930D01*
X216574654Y-151145024D01*
X216561866Y-151127781D01*
X216550830Y-151109368D01*
X216541651Y-151089962D01*
X216534419Y-151069750D01*
X216529203Y-151048926D01*
X216526053Y-151027691D01*
X216525000Y-151006250D01*
X216525000Y-150568750D01*
X216526053Y-150547309D01*
X216529203Y-150526074D01*
X216534419Y-150505250D01*
X216541651Y-150485038D01*
X216550830Y-150465632D01*
X216561866Y-150447219D01*
X216574654Y-150429976D01*
X216589070Y-150414070D01*
X216604976Y-150399654D01*
X216622219Y-150386866D01*
X216640632Y-150375830D01*
X216660038Y-150366651D01*
X216680250Y-150359419D01*
X216701074Y-150354203D01*
X216722309Y-150351053D01*
X216743750Y-150350000D01*
X217256250Y-150350000D01*
X217277691Y-150351053D01*
X217277691Y-150351053D01*
G37*
D11*
X217000000Y-150787500D03*
D10*
G36*
X220277691Y-150351053D02*
G01*
X220298926Y-150354203D01*
X220319750Y-150359419D01*
X220339962Y-150366651D01*
X220359368Y-150375830D01*
X220377781Y-150386866D01*
X220395024Y-150399654D01*
X220410930Y-150414070D01*
X220425346Y-150429976D01*
X220438134Y-150447219D01*
X220449170Y-150465632D01*
X220458349Y-150485038D01*
X220465581Y-150505250D01*
X220470797Y-150526074D01*
X220473947Y-150547309D01*
X220475000Y-150568750D01*
X220475000Y-151006250D01*
X220473947Y-151027691D01*
X220470797Y-151048926D01*
X220465581Y-151069750D01*
X220458349Y-151089962D01*
X220449170Y-151109368D01*
X220438134Y-151127781D01*
X220425346Y-151145024D01*
X220410930Y-151160930D01*
X220395024Y-151175346D01*
X220377781Y-151188134D01*
X220359368Y-151199170D01*
X220339962Y-151208349D01*
X220319750Y-151215581D01*
X220298926Y-151220797D01*
X220277691Y-151223947D01*
X220256250Y-151225000D01*
X219743750Y-151225000D01*
X219722309Y-151223947D01*
X219701074Y-151220797D01*
X219680250Y-151215581D01*
X219660038Y-151208349D01*
X219640632Y-151199170D01*
X219622219Y-151188134D01*
X219604976Y-151175346D01*
X219589070Y-151160930D01*
X219574654Y-151145024D01*
X219561866Y-151127781D01*
X219550830Y-151109368D01*
X219541651Y-151089962D01*
X219534419Y-151069750D01*
X219529203Y-151048926D01*
X219526053Y-151027691D01*
X219525000Y-151006250D01*
X219525000Y-150568750D01*
X219526053Y-150547309D01*
X219529203Y-150526074D01*
X219534419Y-150505250D01*
X219541651Y-150485038D01*
X219550830Y-150465632D01*
X219561866Y-150447219D01*
X219574654Y-150429976D01*
X219589070Y-150414070D01*
X219604976Y-150399654D01*
X219622219Y-150386866D01*
X219640632Y-150375830D01*
X219660038Y-150366651D01*
X219680250Y-150359419D01*
X219701074Y-150354203D01*
X219722309Y-150351053D01*
X219743750Y-150350000D01*
X220256250Y-150350000D01*
X220277691Y-150351053D01*
X220277691Y-150351053D01*
G37*
D11*
X220000000Y-150787500D03*
D10*
G36*
X220277691Y-148776053D02*
G01*
X220298926Y-148779203D01*
X220319750Y-148784419D01*
X220339962Y-148791651D01*
X220359368Y-148800830D01*
X220377781Y-148811866D01*
X220395024Y-148824654D01*
X220410930Y-148839070D01*
X220425346Y-148854976D01*
X220438134Y-148872219D01*
X220449170Y-148890632D01*
X220458349Y-148910038D01*
X220465581Y-148930250D01*
X220470797Y-148951074D01*
X220473947Y-148972309D01*
X220475000Y-148993750D01*
X220475000Y-149431250D01*
X220473947Y-149452691D01*
X220470797Y-149473926D01*
X220465581Y-149494750D01*
X220458349Y-149514962D01*
X220449170Y-149534368D01*
X220438134Y-149552781D01*
X220425346Y-149570024D01*
X220410930Y-149585930D01*
X220395024Y-149600346D01*
X220377781Y-149613134D01*
X220359368Y-149624170D01*
X220339962Y-149633349D01*
X220319750Y-149640581D01*
X220298926Y-149645797D01*
X220277691Y-149648947D01*
X220256250Y-149650000D01*
X219743750Y-149650000D01*
X219722309Y-149648947D01*
X219701074Y-149645797D01*
X219680250Y-149640581D01*
X219660038Y-149633349D01*
X219640632Y-149624170D01*
X219622219Y-149613134D01*
X219604976Y-149600346D01*
X219589070Y-149585930D01*
X219574654Y-149570024D01*
X219561866Y-149552781D01*
X219550830Y-149534368D01*
X219541651Y-149514962D01*
X219534419Y-149494750D01*
X219529203Y-149473926D01*
X219526053Y-149452691D01*
X219525000Y-149431250D01*
X219525000Y-148993750D01*
X219526053Y-148972309D01*
X219529203Y-148951074D01*
X219534419Y-148930250D01*
X219541651Y-148910038D01*
X219550830Y-148890632D01*
X219561866Y-148872219D01*
X219574654Y-148854976D01*
X219589070Y-148839070D01*
X219604976Y-148824654D01*
X219622219Y-148811866D01*
X219640632Y-148800830D01*
X219660038Y-148791651D01*
X219680250Y-148784419D01*
X219701074Y-148779203D01*
X219722309Y-148776053D01*
X219743750Y-148775000D01*
X220256250Y-148775000D01*
X220277691Y-148776053D01*
X220277691Y-148776053D01*
G37*
D11*
X220000000Y-149212500D03*
D12*
X229800000Y-168700000D03*
X230450000Y-168700000D03*
X231100000Y-168700000D03*
X231750000Y-168700000D03*
X232400000Y-168700000D03*
X233050000Y-168700000D03*
X233700000Y-168700000D03*
X233700000Y-162800000D03*
X233050000Y-162800000D03*
X232400000Y-162800000D03*
X231750000Y-162800000D03*
X231100000Y-162800000D03*
X230450000Y-162800000D03*
X229800000Y-162800000D03*
D13*
X211500000Y-197000000D03*
X212450000Y-197000000D03*
X213400000Y-197000000D03*
X213400000Y-194380000D03*
X212450000Y-194380000D03*
X211500000Y-194380000D03*
D14*
X221050000Y-194275000D03*
X221050000Y-194925000D03*
X221050000Y-195575000D03*
X221050000Y-196225000D03*
X225450000Y-196225000D03*
X225450000Y-195575000D03*
X225450000Y-194925000D03*
X225450000Y-194275000D03*
D15*
X253750000Y-163050000D03*
X253250000Y-163050000D03*
X252750000Y-163050000D03*
X252250000Y-163050000D03*
X251750000Y-163050000D03*
X251750000Y-167450000D03*
X252250000Y-167450000D03*
X252750000Y-167450000D03*
X253250000Y-167450000D03*
X253750000Y-167450000D03*
M02*
