G04 #@! TF.GenerationSoftware,KiCad,Pcbnew,5.1.4*
G04 #@! TF.CreationDate,2019-11-06T21:16:27-05:00*
G04 #@! TF.ProjectId,device-config-demo,64657669-6365-42d6-936f-6e6669672d64,rev?*
G04 #@! TF.SameCoordinates,Original*
G04 #@! TF.FileFunction,Other,Fab,Top*
%FSLAX46Y46*%
G04 Gerber Fmt 4.6, Leading zero omitted, Abs format (unit mm)*
G04 Created by KiCad (PCBNEW 5.1.4) date 2019-11-06 21:16:27*
%MOMM*%
%LPD*%
G04 APERTURE LIST*
%ADD10C,0.150000*%
G04 APERTURE END LIST*
D10*
X232100000Y-170987500D02*
X232900000Y-170987500D01*
X232900000Y-170987500D02*
X232900000Y-172587500D01*
X232900000Y-172587500D02*
X232100000Y-172587500D01*
X232100000Y-172587500D02*
X232100000Y-170987500D01*
X231350000Y-160550000D02*
X231350000Y-158950000D01*
X232150000Y-160550000D02*
X231350000Y-160550000D01*
X232150000Y-158950000D02*
X232150000Y-160550000D01*
X231350000Y-158950000D02*
X232150000Y-158950000D01*
X256150000Y-162800000D02*
X255350000Y-162800000D01*
X255350000Y-162800000D02*
X255350000Y-161200000D01*
X255350000Y-161200000D02*
X256150000Y-161200000D01*
X256150000Y-161200000D02*
X256150000Y-162800000D01*
X229087500Y-194650000D02*
X227487500Y-194650000D01*
X229087500Y-193850000D02*
X229087500Y-194650000D01*
X227487500Y-193850000D02*
X229087500Y-193850000D01*
X227487500Y-194650000D02*
X227487500Y-193850000D01*
X274100000Y-156237500D02*
X274100000Y-157537500D01*
X274100000Y-157537500D02*
X274400000Y-157837500D01*
X274400000Y-157837500D02*
X274900000Y-157837500D01*
X274900000Y-157837500D02*
X274900000Y-156237500D01*
X274900000Y-156237500D02*
X274100000Y-156237500D01*
X279100000Y-157837500D02*
X279900000Y-157837500D01*
X279100000Y-156237500D02*
X279100000Y-157837500D01*
X279600000Y-156237500D02*
X279100000Y-156237500D01*
X279900000Y-156537500D02*
X279600000Y-156237500D01*
X279900000Y-157837500D02*
X279900000Y-156537500D01*
X287100000Y-156237500D02*
X287100000Y-157537500D01*
X287100000Y-157537500D02*
X287400000Y-157837500D01*
X287400000Y-157837500D02*
X287900000Y-157837500D01*
X287900000Y-157837500D02*
X287900000Y-156237500D01*
X287900000Y-156237500D02*
X287100000Y-156237500D01*
X247600000Y-199700000D02*
X247600000Y-201000000D01*
X247600000Y-201000000D02*
X247900000Y-201300000D01*
X247900000Y-201300000D02*
X248400000Y-201300000D01*
X248400000Y-201300000D02*
X248400000Y-199700000D01*
X248400000Y-199700000D02*
X247600000Y-199700000D01*
X248400000Y-203700000D02*
X247600000Y-203700000D01*
X248400000Y-205300000D02*
X248400000Y-203700000D01*
X247900000Y-205300000D02*
X248400000Y-205300000D01*
X247600000Y-205000000D02*
X247900000Y-205300000D01*
X247600000Y-203700000D02*
X247600000Y-205000000D01*
X263400000Y-201700000D02*
X262600000Y-201700000D01*
X263400000Y-203300000D02*
X263400000Y-201700000D01*
X262900000Y-203300000D02*
X263400000Y-203300000D01*
X262600000Y-203000000D02*
X262900000Y-203300000D01*
X262600000Y-201700000D02*
X262600000Y-203000000D01*
X274400000Y-201700000D02*
X273600000Y-201700000D01*
X274400000Y-203300000D02*
X274400000Y-201700000D01*
X273900000Y-203300000D02*
X274400000Y-203300000D01*
X273600000Y-203000000D02*
X273900000Y-203300000D01*
X273600000Y-201700000D02*
X273600000Y-203000000D01*
X286600000Y-201700000D02*
X286600000Y-203000000D01*
X286600000Y-203000000D02*
X286900000Y-203300000D01*
X286900000Y-203300000D02*
X287400000Y-203300000D01*
X287400000Y-203300000D02*
X287400000Y-201700000D01*
X287400000Y-201700000D02*
X286600000Y-201700000D01*
X273190000Y-150635000D02*
X273190000Y-148730000D01*
X273190000Y-148730000D02*
X280810000Y-148730000D01*
X280810000Y-148730000D02*
X280810000Y-151270000D01*
X280810000Y-151270000D02*
X273825000Y-151270000D01*
X273825000Y-151270000D02*
X273190000Y-150635000D01*
X289365000Y-164730000D02*
X291270000Y-164730000D01*
X291270000Y-164730000D02*
X291270000Y-187590000D01*
X291270000Y-187590000D02*
X288730000Y-187590000D01*
X288730000Y-187590000D02*
X288730000Y-165365000D01*
X288730000Y-165365000D02*
X289365000Y-164730000D01*
X286190000Y-150635000D02*
X286190000Y-148730000D01*
X286190000Y-148730000D02*
X291270000Y-148730000D01*
X291270000Y-148730000D02*
X291270000Y-151270000D01*
X291270000Y-151270000D02*
X286825000Y-151270000D01*
X286825000Y-151270000D02*
X286190000Y-150635000D01*
X210825000Y-211270000D02*
X210190000Y-210635000D01*
X215270000Y-211270000D02*
X210825000Y-211270000D01*
X215270000Y-208730000D02*
X215270000Y-211270000D01*
X210190000Y-208730000D02*
X215270000Y-208730000D01*
X210190000Y-210635000D02*
X210190000Y-208730000D01*
X210635000Y-169270000D02*
X208730000Y-169270000D01*
X208730000Y-169270000D02*
X208730000Y-156570000D01*
X208730000Y-156570000D02*
X211270000Y-156570000D01*
X211270000Y-156570000D02*
X211270000Y-168635000D01*
X211270000Y-168635000D02*
X210635000Y-169270000D01*
X229190000Y-210635000D02*
X229190000Y-208730000D01*
X229190000Y-208730000D02*
X234270000Y-208730000D01*
X234270000Y-208730000D02*
X234270000Y-211270000D01*
X234270000Y-211270000D02*
X229825000Y-211270000D01*
X229825000Y-211270000D02*
X229190000Y-210635000D01*
X274900000Y-161337500D02*
X274100000Y-161337500D01*
X274100000Y-161337500D02*
X274100000Y-159737500D01*
X274100000Y-159737500D02*
X274900000Y-159737500D01*
X274900000Y-159737500D02*
X274900000Y-161337500D01*
X279100000Y-159737500D02*
X279900000Y-159737500D01*
X279900000Y-159737500D02*
X279900000Y-161337500D01*
X279900000Y-161337500D02*
X279100000Y-161337500D01*
X279100000Y-161337500D02*
X279100000Y-159737500D01*
X287900000Y-159737500D02*
X287900000Y-161337500D01*
X287100000Y-159737500D02*
X287900000Y-159737500D01*
X287100000Y-161337500D02*
X287100000Y-159737500D01*
X287900000Y-161337500D02*
X287100000Y-161337500D01*
X227762500Y-168600000D02*
X227762500Y-169400000D01*
X227762500Y-169400000D02*
X226162500Y-169400000D01*
X226162500Y-169400000D02*
X226162500Y-168600000D01*
X226162500Y-168600000D02*
X227762500Y-168600000D01*
X228100000Y-172550000D02*
X228100000Y-170950000D01*
X228900000Y-172550000D02*
X228100000Y-172550000D01*
X228900000Y-170950000D02*
X228900000Y-172550000D01*
X228100000Y-170950000D02*
X228900000Y-170950000D01*
X230100000Y-170950000D02*
X230900000Y-170950000D01*
X230900000Y-170950000D02*
X230900000Y-172550000D01*
X230900000Y-172550000D02*
X230100000Y-172550000D01*
X230100000Y-172550000D02*
X230100000Y-170950000D01*
X230900000Y-175737500D02*
X230900000Y-177337500D01*
X230100000Y-175737500D02*
X230900000Y-175737500D01*
X230100000Y-177337500D02*
X230100000Y-175737500D01*
X230900000Y-177337500D02*
X230100000Y-177337500D01*
X226912500Y-176150000D02*
X226912500Y-175350000D01*
X226912500Y-175350000D02*
X228512500Y-175350000D01*
X228512500Y-175350000D02*
X228512500Y-176150000D01*
X228512500Y-176150000D02*
X226912500Y-176150000D01*
X226912500Y-177350000D02*
X228512500Y-177350000D01*
X226912500Y-178150000D02*
X226912500Y-177350000D01*
X228512500Y-178150000D02*
X226912500Y-178150000D01*
X228512500Y-177350000D02*
X228512500Y-178150000D01*
X237262500Y-169400000D02*
X235662500Y-169400000D01*
X237262500Y-168600000D02*
X237262500Y-169400000D01*
X235662500Y-168600000D02*
X237262500Y-168600000D01*
X235662500Y-169400000D02*
X235662500Y-168600000D01*
X236100000Y-170987500D02*
X236900000Y-170987500D01*
X236900000Y-170987500D02*
X236900000Y-172587500D01*
X236900000Y-172587500D02*
X236100000Y-172587500D01*
X236100000Y-172587500D02*
X236100000Y-170987500D01*
X234100000Y-170987500D02*
X234900000Y-170987500D01*
X234900000Y-170987500D02*
X234900000Y-172587500D01*
X234900000Y-172587500D02*
X234100000Y-172587500D01*
X234100000Y-172587500D02*
X234100000Y-170987500D01*
X217800000Y-194650000D02*
X216200000Y-194650000D01*
X217800000Y-193850000D02*
X217800000Y-194650000D01*
X216200000Y-193850000D02*
X217800000Y-193850000D01*
X216200000Y-194650000D02*
X216200000Y-193850000D01*
X232900000Y-175737500D02*
X232900000Y-177337500D01*
X232100000Y-175737500D02*
X232900000Y-175737500D01*
X232100000Y-177337500D02*
X232100000Y-175737500D01*
X232900000Y-177337500D02*
X232100000Y-177337500D01*
X260412500Y-162150000D02*
X260412500Y-161350000D01*
X260412500Y-161350000D02*
X262012500Y-161350000D01*
X262012500Y-161350000D02*
X262012500Y-162150000D01*
X262012500Y-162150000D02*
X260412500Y-162150000D01*
X264237500Y-161350000D02*
X265837500Y-161350000D01*
X264237500Y-162150000D02*
X264237500Y-161350000D01*
X265837500Y-162150000D02*
X264237500Y-162150000D01*
X265837500Y-161350000D02*
X265837500Y-162150000D01*
X234487500Y-176100000D02*
X236087500Y-176100000D01*
X234487500Y-176900000D02*
X234487500Y-176100000D01*
X236087500Y-176900000D02*
X234487500Y-176900000D01*
X236087500Y-176100000D02*
X236087500Y-176900000D01*
X234487500Y-178900000D02*
X234487500Y-178100000D01*
X234487500Y-178100000D02*
X236087500Y-178100000D01*
X236087500Y-178100000D02*
X236087500Y-178900000D01*
X236087500Y-178900000D02*
X234487500Y-178900000D01*
X235700000Y-162900000D02*
X235700000Y-162100000D01*
X235700000Y-162100000D02*
X237300000Y-162100000D01*
X237300000Y-162100000D02*
X237300000Y-162900000D01*
X237300000Y-162900000D02*
X235700000Y-162900000D01*
X236150000Y-158950000D02*
X236150000Y-160550000D01*
X235350000Y-158950000D02*
X236150000Y-158950000D01*
X235350000Y-160550000D02*
X235350000Y-158950000D01*
X236150000Y-160550000D02*
X235350000Y-160550000D01*
X234150000Y-160550000D02*
X233350000Y-160550000D01*
X233350000Y-160550000D02*
X233350000Y-158950000D01*
X233350000Y-158950000D02*
X234150000Y-158950000D01*
X234150000Y-158950000D02*
X234150000Y-160550000D01*
X233350000Y-155050000D02*
X233350000Y-153450000D01*
X234150000Y-155050000D02*
X233350000Y-155050000D01*
X234150000Y-153450000D02*
X234150000Y-155050000D01*
X233350000Y-153450000D02*
X234150000Y-153450000D01*
X237337500Y-154600000D02*
X237337500Y-155400000D01*
X237337500Y-155400000D02*
X235737500Y-155400000D01*
X235737500Y-155400000D02*
X235737500Y-154600000D01*
X235737500Y-154600000D02*
X237337500Y-154600000D01*
X237337500Y-153400000D02*
X235737500Y-153400000D01*
X237337500Y-152600000D02*
X237337500Y-153400000D01*
X235737500Y-152600000D02*
X237337500Y-152600000D01*
X235737500Y-153400000D02*
X235737500Y-152600000D01*
X227800000Y-162100000D02*
X227800000Y-162900000D01*
X227800000Y-162900000D02*
X226200000Y-162900000D01*
X226200000Y-162900000D02*
X226200000Y-162100000D01*
X226200000Y-162100000D02*
X227800000Y-162100000D01*
X228150000Y-158950000D02*
X228150000Y-160550000D01*
X227350000Y-158950000D02*
X228150000Y-158950000D01*
X227350000Y-160550000D02*
X227350000Y-158950000D01*
X228150000Y-160550000D02*
X227350000Y-160550000D01*
X230150000Y-158950000D02*
X230150000Y-160550000D01*
X229350000Y-158950000D02*
X230150000Y-158950000D01*
X229350000Y-160550000D02*
X229350000Y-158950000D01*
X230150000Y-160550000D02*
X229350000Y-160550000D01*
X231350000Y-153450000D02*
X232150000Y-153450000D01*
X232150000Y-153450000D02*
X232150000Y-155050000D01*
X232150000Y-155050000D02*
X231350000Y-155050000D01*
X231350000Y-155050000D02*
X231350000Y-153450000D01*
X228162500Y-155400000D02*
X228162500Y-154600000D01*
X228162500Y-154600000D02*
X229762500Y-154600000D01*
X229762500Y-154600000D02*
X229762500Y-155400000D01*
X229762500Y-155400000D02*
X228162500Y-155400000D01*
X228162500Y-152600000D02*
X229762500Y-152600000D01*
X228162500Y-153400000D02*
X228162500Y-152600000D01*
X229762500Y-153400000D02*
X228162500Y-153400000D01*
X229762500Y-152600000D02*
X229762500Y-153400000D01*
X248400000Y-197800000D02*
X247600000Y-197800000D01*
X247600000Y-197800000D02*
X247600000Y-196200000D01*
X247600000Y-196200000D02*
X248400000Y-196200000D01*
X248400000Y-196200000D02*
X248400000Y-197800000D01*
X248400000Y-208800000D02*
X247600000Y-208800000D01*
X247600000Y-208800000D02*
X247600000Y-207200000D01*
X247600000Y-207200000D02*
X248400000Y-207200000D01*
X248400000Y-207200000D02*
X248400000Y-208800000D01*
X263400000Y-205200000D02*
X263400000Y-206800000D01*
X262600000Y-205200000D02*
X263400000Y-205200000D01*
X262600000Y-206800000D02*
X262600000Y-205200000D01*
X263400000Y-206800000D02*
X262600000Y-206800000D01*
X274400000Y-206800000D02*
X273600000Y-206800000D01*
X273600000Y-206800000D02*
X273600000Y-205200000D01*
X273600000Y-205200000D02*
X274400000Y-205200000D01*
X274400000Y-205200000D02*
X274400000Y-206800000D01*
X287400000Y-206800000D02*
X286600000Y-206800000D01*
X286600000Y-206800000D02*
X286600000Y-205200000D01*
X286600000Y-205200000D02*
X287400000Y-205200000D01*
X287400000Y-205200000D02*
X287400000Y-206800000D01*
X210600000Y-150800000D02*
X210600000Y-149200000D01*
X211400000Y-150800000D02*
X210600000Y-150800000D01*
X211400000Y-149200000D02*
X211400000Y-150800000D01*
X210600000Y-149200000D02*
X211400000Y-149200000D01*
X213600000Y-150800000D02*
X213600000Y-149200000D01*
X214400000Y-150800000D02*
X213600000Y-150800000D01*
X214400000Y-149200000D02*
X214400000Y-150800000D01*
X213600000Y-149200000D02*
X214400000Y-149200000D01*
X216600000Y-149200000D02*
X217400000Y-149200000D01*
X217400000Y-149200000D02*
X217400000Y-150800000D01*
X217400000Y-150800000D02*
X216600000Y-150800000D01*
X216600000Y-150800000D02*
X216600000Y-149200000D01*
X219600000Y-150800000D02*
X219600000Y-149200000D01*
X220400000Y-150800000D02*
X219600000Y-150800000D01*
X220400000Y-149200000D02*
X220400000Y-150800000D01*
X219600000Y-149200000D02*
X220400000Y-149200000D01*
X214250000Y-176100000D02*
X216750000Y-176100000D01*
X216750000Y-176100000D02*
X216750000Y-176900000D01*
X216750000Y-176900000D02*
X214250000Y-176900000D01*
X214250000Y-176900000D02*
X214250000Y-176100000D01*
X217100000Y-176500000D02*
G75*
G03X217100000Y-176500000I-1600000J0D01*
G01*
X229250000Y-166950000D02*
X229250000Y-163550000D01*
X229250000Y-163550000D02*
X234250000Y-163550000D01*
X234250000Y-163550000D02*
X234250000Y-167950000D01*
X234250000Y-167950000D02*
X230250000Y-167950000D01*
X230250000Y-167950000D02*
X229250000Y-166950000D01*
X211450000Y-196570000D02*
X211000000Y-196120000D01*
X211000000Y-194810000D02*
X211000000Y-196120000D01*
X211450000Y-196570000D02*
X213900000Y-196570000D01*
X213900000Y-194810000D02*
X213900000Y-196570000D01*
X211000000Y-194810000D02*
X213900000Y-194810000D01*
X222750000Y-193750000D02*
X224750000Y-193750000D01*
X224750000Y-193750000D02*
X224750000Y-196750000D01*
X224750000Y-196750000D02*
X221750000Y-196750000D01*
X221750000Y-196750000D02*
X221750000Y-194750000D01*
X221750000Y-194750000D02*
X222750000Y-193750000D01*
X254250000Y-164750000D02*
X254250000Y-166750000D01*
X254250000Y-166750000D02*
X251250000Y-166750000D01*
X251250000Y-166750000D02*
X251250000Y-163750000D01*
X251250000Y-163750000D02*
X253250000Y-163750000D01*
X253250000Y-163750000D02*
X254250000Y-164750000D01*
X230631904Y-172758928D02*
X230631904Y-172682738D01*
X230670000Y-172606547D01*
X230708095Y-172568452D01*
X230784285Y-172530357D01*
X230936666Y-172492261D01*
X231127142Y-172492261D01*
X231279523Y-172530357D01*
X231355714Y-172568452D01*
X231393809Y-172606547D01*
X231431904Y-172682738D01*
X231431904Y-172758928D01*
X231393809Y-172835119D01*
X231355714Y-172873214D01*
X231279523Y-172911309D01*
X231127142Y-172949404D01*
X230936666Y-172949404D01*
X230784285Y-172911309D01*
X230708095Y-172873214D01*
X230670000Y-172835119D01*
X230631904Y-172758928D01*
X231355714Y-172149404D02*
X231393809Y-172111309D01*
X231431904Y-172149404D01*
X231393809Y-172187500D01*
X231355714Y-172149404D01*
X231431904Y-172149404D01*
X231431904Y-171349404D02*
X231431904Y-171806547D01*
X231431904Y-171577976D02*
X230631904Y-171577976D01*
X230746190Y-171654166D01*
X230822380Y-171730357D01*
X230860476Y-171806547D01*
X230898571Y-170663690D02*
X231431904Y-170663690D01*
X230898571Y-171006547D02*
X231317619Y-171006547D01*
X231393809Y-170968452D01*
X231431904Y-170892261D01*
X231431904Y-170777976D01*
X231393809Y-170701785D01*
X231355714Y-170663690D01*
X232785714Y-171920833D02*
X232823809Y-171958928D01*
X232861904Y-172073214D01*
X232861904Y-172149404D01*
X232823809Y-172263690D01*
X232747619Y-172339880D01*
X232671428Y-172377976D01*
X232519047Y-172416071D01*
X232404761Y-172416071D01*
X232252380Y-172377976D01*
X232176190Y-172339880D01*
X232100000Y-172263690D01*
X232061904Y-172149404D01*
X232061904Y-172073214D01*
X232100000Y-171958928D01*
X232138095Y-171920833D01*
X232861904Y-171158928D02*
X232861904Y-171616071D01*
X232861904Y-171387500D02*
X232061904Y-171387500D01*
X232176190Y-171463690D01*
X232252380Y-171539880D01*
X232290476Y-171616071D01*
X229881904Y-160721428D02*
X229881904Y-160645238D01*
X229920000Y-160569047D01*
X229958095Y-160530952D01*
X230034285Y-160492857D01*
X230186666Y-160454761D01*
X230377142Y-160454761D01*
X230529523Y-160492857D01*
X230605714Y-160530952D01*
X230643809Y-160569047D01*
X230681904Y-160645238D01*
X230681904Y-160721428D01*
X230643809Y-160797619D01*
X230605714Y-160835714D01*
X230529523Y-160873809D01*
X230377142Y-160911904D01*
X230186666Y-160911904D01*
X230034285Y-160873809D01*
X229958095Y-160835714D01*
X229920000Y-160797619D01*
X229881904Y-160721428D01*
X230605714Y-160111904D02*
X230643809Y-160073809D01*
X230681904Y-160111904D01*
X230643809Y-160150000D01*
X230605714Y-160111904D01*
X230681904Y-160111904D01*
X230681904Y-159311904D02*
X230681904Y-159769047D01*
X230681904Y-159540476D02*
X229881904Y-159540476D01*
X229996190Y-159616666D01*
X230072380Y-159692857D01*
X230110476Y-159769047D01*
X230148571Y-158626190D02*
X230681904Y-158626190D01*
X230148571Y-158969047D02*
X230567619Y-158969047D01*
X230643809Y-158930952D01*
X230681904Y-158854761D01*
X230681904Y-158740476D01*
X230643809Y-158664285D01*
X230605714Y-158626190D01*
X232035714Y-159883333D02*
X232073809Y-159921428D01*
X232111904Y-160035714D01*
X232111904Y-160111904D01*
X232073809Y-160226190D01*
X231997619Y-160302380D01*
X231921428Y-160340476D01*
X231769047Y-160378571D01*
X231654761Y-160378571D01*
X231502380Y-160340476D01*
X231426190Y-160302380D01*
X231350000Y-160226190D01*
X231311904Y-160111904D01*
X231311904Y-160035714D01*
X231350000Y-159921428D01*
X231388095Y-159883333D01*
X231388095Y-159578571D02*
X231350000Y-159540476D01*
X231311904Y-159464285D01*
X231311904Y-159273809D01*
X231350000Y-159197619D01*
X231388095Y-159159523D01*
X231464285Y-159121428D01*
X231540476Y-159121428D01*
X231654761Y-159159523D01*
X232111904Y-159616666D01*
X232111904Y-159121428D01*
X256741904Y-162971428D02*
X256741904Y-162895238D01*
X256780000Y-162819047D01*
X256818095Y-162780952D01*
X256894285Y-162742857D01*
X257046666Y-162704761D01*
X257237142Y-162704761D01*
X257389523Y-162742857D01*
X257465714Y-162780952D01*
X257503809Y-162819047D01*
X257541904Y-162895238D01*
X257541904Y-162971428D01*
X257503809Y-163047619D01*
X257465714Y-163085714D01*
X257389523Y-163123809D01*
X257237142Y-163161904D01*
X257046666Y-163161904D01*
X256894285Y-163123809D01*
X256818095Y-163085714D01*
X256780000Y-163047619D01*
X256741904Y-162971428D01*
X257465714Y-162361904D02*
X257503809Y-162323809D01*
X257541904Y-162361904D01*
X257503809Y-162400000D01*
X257465714Y-162361904D01*
X257541904Y-162361904D01*
X257541904Y-161561904D02*
X257541904Y-162019047D01*
X257541904Y-161790476D02*
X256741904Y-161790476D01*
X256856190Y-161866666D01*
X256932380Y-161942857D01*
X256970476Y-162019047D01*
X257008571Y-160876190D02*
X257541904Y-160876190D01*
X257008571Y-161219047D02*
X257427619Y-161219047D01*
X257503809Y-161180952D01*
X257541904Y-161104761D01*
X257541904Y-160990476D01*
X257503809Y-160914285D01*
X257465714Y-160876190D01*
X256035714Y-162133333D02*
X256073809Y-162171428D01*
X256111904Y-162285714D01*
X256111904Y-162361904D01*
X256073809Y-162476190D01*
X255997619Y-162552380D01*
X255921428Y-162590476D01*
X255769047Y-162628571D01*
X255654761Y-162628571D01*
X255502380Y-162590476D01*
X255426190Y-162552380D01*
X255350000Y-162476190D01*
X255311904Y-162361904D01*
X255311904Y-162285714D01*
X255350000Y-162171428D01*
X255388095Y-162133333D01*
X255311904Y-161866666D02*
X255311904Y-161371428D01*
X255616666Y-161638095D01*
X255616666Y-161523809D01*
X255654761Y-161447619D01*
X255692857Y-161409523D01*
X255769047Y-161371428D01*
X255959523Y-161371428D01*
X256035714Y-161409523D01*
X256073809Y-161447619D01*
X256111904Y-161523809D01*
X256111904Y-161752380D01*
X256073809Y-161828571D01*
X256035714Y-161866666D01*
X227316071Y-195241904D02*
X227392261Y-195241904D01*
X227468452Y-195280000D01*
X227506547Y-195318095D01*
X227544642Y-195394285D01*
X227582738Y-195546666D01*
X227582738Y-195737142D01*
X227544642Y-195889523D01*
X227506547Y-195965714D01*
X227468452Y-196003809D01*
X227392261Y-196041904D01*
X227316071Y-196041904D01*
X227239880Y-196003809D01*
X227201785Y-195965714D01*
X227163690Y-195889523D01*
X227125595Y-195737142D01*
X227125595Y-195546666D01*
X227163690Y-195394285D01*
X227201785Y-195318095D01*
X227239880Y-195280000D01*
X227316071Y-195241904D01*
X227925595Y-195965714D02*
X227963690Y-196003809D01*
X227925595Y-196041904D01*
X227887500Y-196003809D01*
X227925595Y-195965714D01*
X227925595Y-196041904D01*
X228725595Y-196041904D02*
X228268452Y-196041904D01*
X228497023Y-196041904D02*
X228497023Y-195241904D01*
X228420833Y-195356190D01*
X228344642Y-195432380D01*
X228268452Y-195470476D01*
X229411309Y-195508571D02*
X229411309Y-196041904D01*
X229068452Y-195508571D02*
X229068452Y-195927619D01*
X229106547Y-196003809D01*
X229182738Y-196041904D01*
X229297023Y-196041904D01*
X229373214Y-196003809D01*
X229411309Y-195965714D01*
X228154166Y-194535714D02*
X228116071Y-194573809D01*
X228001785Y-194611904D01*
X227925595Y-194611904D01*
X227811309Y-194573809D01*
X227735119Y-194497619D01*
X227697023Y-194421428D01*
X227658928Y-194269047D01*
X227658928Y-194154761D01*
X227697023Y-194002380D01*
X227735119Y-193926190D01*
X227811309Y-193850000D01*
X227925595Y-193811904D01*
X228001785Y-193811904D01*
X228116071Y-193850000D01*
X228154166Y-193888095D01*
X228839880Y-194078571D02*
X228839880Y-194611904D01*
X228649404Y-193773809D02*
X228458928Y-194345238D01*
X228954166Y-194345238D01*
X275872857Y-158085119D02*
X275910952Y-157970833D01*
X275949047Y-157932738D01*
X276025238Y-157894642D01*
X276139523Y-157894642D01*
X276215714Y-157932738D01*
X276253809Y-157970833D01*
X276291904Y-158047023D01*
X276291904Y-158351785D01*
X275491904Y-158351785D01*
X275491904Y-158085119D01*
X275530000Y-158008928D01*
X275568095Y-157970833D01*
X275644285Y-157932738D01*
X275720476Y-157932738D01*
X275796666Y-157970833D01*
X275834761Y-158008928D01*
X275872857Y-158085119D01*
X275872857Y-158351785D01*
X276291904Y-157170833D02*
X276291904Y-157551785D01*
X275491904Y-157551785D01*
X275491904Y-156904166D02*
X276139523Y-156904166D01*
X276215714Y-156866071D01*
X276253809Y-156827976D01*
X276291904Y-156751785D01*
X276291904Y-156599404D01*
X276253809Y-156523214D01*
X276215714Y-156485119D01*
X276139523Y-156447023D01*
X275491904Y-156447023D01*
X275872857Y-156066071D02*
X275872857Y-155799404D01*
X276291904Y-155685119D02*
X276291904Y-156066071D01*
X275491904Y-156066071D01*
X275491904Y-155685119D01*
X274861904Y-157627976D02*
X274061904Y-157627976D01*
X274061904Y-157437500D01*
X274100000Y-157323214D01*
X274176190Y-157247023D01*
X274252380Y-157208928D01*
X274404761Y-157170833D01*
X274519047Y-157170833D01*
X274671428Y-157208928D01*
X274747619Y-157247023D01*
X274823809Y-157323214D01*
X274861904Y-157437500D01*
X274861904Y-157627976D01*
X274861904Y-156408928D02*
X274861904Y-156866071D01*
X274861904Y-156637500D02*
X274061904Y-156637500D01*
X274176190Y-156713690D01*
X274252380Y-156789880D01*
X274290476Y-156866071D01*
X278012857Y-158085119D02*
X278050952Y-157970833D01*
X278089047Y-157932738D01*
X278165238Y-157894642D01*
X278279523Y-157894642D01*
X278355714Y-157932738D01*
X278393809Y-157970833D01*
X278431904Y-158047023D01*
X278431904Y-158351785D01*
X277631904Y-158351785D01*
X277631904Y-158085119D01*
X277670000Y-158008928D01*
X277708095Y-157970833D01*
X277784285Y-157932738D01*
X277860476Y-157932738D01*
X277936666Y-157970833D01*
X277974761Y-158008928D01*
X278012857Y-158085119D01*
X278012857Y-158351785D01*
X278431904Y-157170833D02*
X278431904Y-157551785D01*
X277631904Y-157551785D01*
X277631904Y-156904166D02*
X278279523Y-156904166D01*
X278355714Y-156866071D01*
X278393809Y-156827976D01*
X278431904Y-156751785D01*
X278431904Y-156599404D01*
X278393809Y-156523214D01*
X278355714Y-156485119D01*
X278279523Y-156447023D01*
X277631904Y-156447023D01*
X278012857Y-156066071D02*
X278012857Y-155799404D01*
X278431904Y-155685119D02*
X278431904Y-156066071D01*
X277631904Y-156066071D01*
X277631904Y-155685119D01*
X279861904Y-157627976D02*
X279061904Y-157627976D01*
X279061904Y-157437500D01*
X279100000Y-157323214D01*
X279176190Y-157247023D01*
X279252380Y-157208928D01*
X279404761Y-157170833D01*
X279519047Y-157170833D01*
X279671428Y-157208928D01*
X279747619Y-157247023D01*
X279823809Y-157323214D01*
X279861904Y-157437500D01*
X279861904Y-157627976D01*
X279138095Y-156866071D02*
X279100000Y-156827976D01*
X279061904Y-156751785D01*
X279061904Y-156561309D01*
X279100000Y-156485119D01*
X279138095Y-156447023D01*
X279214285Y-156408928D01*
X279290476Y-156408928D01*
X279404761Y-156447023D01*
X279861904Y-156904166D01*
X279861904Y-156408928D01*
X288491904Y-159037500D02*
X288491904Y-158885119D01*
X288530000Y-158808928D01*
X288606190Y-158732738D01*
X288758571Y-158694642D01*
X289025238Y-158694642D01*
X289177619Y-158732738D01*
X289253809Y-158808928D01*
X289291904Y-158885119D01*
X289291904Y-159037500D01*
X289253809Y-159113690D01*
X289177619Y-159189880D01*
X289025238Y-159227976D01*
X288758571Y-159227976D01*
X288606190Y-159189880D01*
X288530000Y-159113690D01*
X288491904Y-159037500D01*
X289291904Y-157894642D02*
X288910952Y-158161309D01*
X289291904Y-158351785D02*
X288491904Y-158351785D01*
X288491904Y-158047023D01*
X288530000Y-157970833D01*
X288568095Y-157932738D01*
X288644285Y-157894642D01*
X288758571Y-157894642D01*
X288834761Y-157932738D01*
X288872857Y-157970833D01*
X288910952Y-158047023D01*
X288910952Y-158351785D01*
X289063333Y-157589880D02*
X289063333Y-157208928D01*
X289291904Y-157666071D02*
X288491904Y-157399404D01*
X289291904Y-157132738D01*
X289291904Y-156866071D02*
X288491904Y-156866071D01*
X289291904Y-156408928D01*
X288491904Y-156408928D01*
X288530000Y-155608928D02*
X288491904Y-155685119D01*
X288491904Y-155799404D01*
X288530000Y-155913690D01*
X288606190Y-155989880D01*
X288682380Y-156027976D01*
X288834761Y-156066071D01*
X288949047Y-156066071D01*
X289101428Y-156027976D01*
X289177619Y-155989880D01*
X289253809Y-155913690D01*
X289291904Y-155799404D01*
X289291904Y-155723214D01*
X289253809Y-155608928D01*
X289215714Y-155570833D01*
X288949047Y-155570833D01*
X288949047Y-155723214D01*
X288872857Y-155227976D02*
X288872857Y-154961309D01*
X289291904Y-154847023D02*
X289291904Y-155227976D01*
X288491904Y-155227976D01*
X288491904Y-154847023D01*
X287861904Y-157627976D02*
X287061904Y-157627976D01*
X287061904Y-157437500D01*
X287100000Y-157323214D01*
X287176190Y-157247023D01*
X287252380Y-157208928D01*
X287404761Y-157170833D01*
X287519047Y-157170833D01*
X287671428Y-157208928D01*
X287747619Y-157247023D01*
X287823809Y-157323214D01*
X287861904Y-157437500D01*
X287861904Y-157627976D01*
X287061904Y-156904166D02*
X287061904Y-156408928D01*
X287366666Y-156675595D01*
X287366666Y-156561309D01*
X287404761Y-156485119D01*
X287442857Y-156447023D01*
X287519047Y-156408928D01*
X287709523Y-156408928D01*
X287785714Y-156447023D01*
X287823809Y-156485119D01*
X287861904Y-156561309D01*
X287861904Y-156789880D01*
X287823809Y-156866071D01*
X287785714Y-156904166D01*
X249030000Y-201833333D02*
X248991904Y-201909523D01*
X248991904Y-202023809D01*
X249030000Y-202138095D01*
X249106190Y-202214285D01*
X249182380Y-202252380D01*
X249334761Y-202290476D01*
X249449047Y-202290476D01*
X249601428Y-202252380D01*
X249677619Y-202214285D01*
X249753809Y-202138095D01*
X249791904Y-202023809D01*
X249791904Y-201947619D01*
X249753809Y-201833333D01*
X249715714Y-201795238D01*
X249449047Y-201795238D01*
X249449047Y-201947619D01*
X249791904Y-200995238D02*
X249410952Y-201261904D01*
X249791904Y-201452380D02*
X248991904Y-201452380D01*
X248991904Y-201147619D01*
X249030000Y-201071428D01*
X249068095Y-201033333D01*
X249144285Y-200995238D01*
X249258571Y-200995238D01*
X249334761Y-201033333D01*
X249372857Y-201071428D01*
X249410952Y-201147619D01*
X249410952Y-201452380D01*
X249372857Y-200652380D02*
X249372857Y-200385714D01*
X249791904Y-200271428D02*
X249791904Y-200652380D01*
X248991904Y-200652380D01*
X248991904Y-200271428D01*
X249372857Y-199928571D02*
X249372857Y-199661904D01*
X249791904Y-199547619D02*
X249791904Y-199928571D01*
X248991904Y-199928571D01*
X248991904Y-199547619D01*
X249791904Y-199204761D02*
X248991904Y-199204761D01*
X249791904Y-198747619D01*
X248991904Y-198747619D01*
X248361904Y-201090476D02*
X247561904Y-201090476D01*
X247561904Y-200900000D01*
X247600000Y-200785714D01*
X247676190Y-200709523D01*
X247752380Y-200671428D01*
X247904761Y-200633333D01*
X248019047Y-200633333D01*
X248171428Y-200671428D01*
X248247619Y-200709523D01*
X248323809Y-200785714D01*
X248361904Y-200900000D01*
X248361904Y-201090476D01*
X247828571Y-199947619D02*
X248361904Y-199947619D01*
X247523809Y-200138095D02*
X248095238Y-200328571D01*
X248095238Y-199833333D01*
X249791904Y-205014285D02*
X249410952Y-205280952D01*
X249791904Y-205471428D02*
X248991904Y-205471428D01*
X248991904Y-205166666D01*
X249030000Y-205090476D01*
X249068095Y-205052380D01*
X249144285Y-205014285D01*
X249258571Y-205014285D01*
X249334761Y-205052380D01*
X249372857Y-205090476D01*
X249410952Y-205166666D01*
X249410952Y-205471428D01*
X249372857Y-204671428D02*
X249372857Y-204404761D01*
X249791904Y-204290476D02*
X249791904Y-204671428D01*
X248991904Y-204671428D01*
X248991904Y-204290476D01*
X249791904Y-203947619D02*
X248991904Y-203947619D01*
X248991904Y-203757142D01*
X249030000Y-203642857D01*
X249106190Y-203566666D01*
X249182380Y-203528571D01*
X249334761Y-203490476D01*
X249449047Y-203490476D01*
X249601428Y-203528571D01*
X249677619Y-203566666D01*
X249753809Y-203642857D01*
X249791904Y-203757142D01*
X249791904Y-203947619D01*
X248361904Y-205090476D02*
X247561904Y-205090476D01*
X247561904Y-204900000D01*
X247600000Y-204785714D01*
X247676190Y-204709523D01*
X247752380Y-204671428D01*
X247904761Y-204633333D01*
X248019047Y-204633333D01*
X248171428Y-204671428D01*
X248247619Y-204709523D01*
X248323809Y-204785714D01*
X248361904Y-204900000D01*
X248361904Y-205090476D01*
X247561904Y-203909523D02*
X247561904Y-204290476D01*
X247942857Y-204328571D01*
X247904761Y-204290476D01*
X247866666Y-204214285D01*
X247866666Y-204023809D01*
X247904761Y-203947619D01*
X247942857Y-203909523D01*
X248019047Y-203871428D01*
X248209523Y-203871428D01*
X248285714Y-203909523D01*
X248323809Y-203947619D01*
X248361904Y-204023809D01*
X248361904Y-204214285D01*
X248323809Y-204290476D01*
X248285714Y-204328571D01*
X264791904Y-203014285D02*
X264410952Y-203280952D01*
X264791904Y-203471428D02*
X263991904Y-203471428D01*
X263991904Y-203166666D01*
X264030000Y-203090476D01*
X264068095Y-203052380D01*
X264144285Y-203014285D01*
X264258571Y-203014285D01*
X264334761Y-203052380D01*
X264372857Y-203090476D01*
X264410952Y-203166666D01*
X264410952Y-203471428D01*
X264372857Y-202671428D02*
X264372857Y-202404761D01*
X264791904Y-202290476D02*
X264791904Y-202671428D01*
X263991904Y-202671428D01*
X263991904Y-202290476D01*
X264791904Y-201947619D02*
X263991904Y-201947619D01*
X263991904Y-201757142D01*
X264030000Y-201642857D01*
X264106190Y-201566666D01*
X264182380Y-201528571D01*
X264334761Y-201490476D01*
X264449047Y-201490476D01*
X264601428Y-201528571D01*
X264677619Y-201566666D01*
X264753809Y-201642857D01*
X264791904Y-201757142D01*
X264791904Y-201947619D01*
X263361904Y-203090476D02*
X262561904Y-203090476D01*
X262561904Y-202900000D01*
X262600000Y-202785714D01*
X262676190Y-202709523D01*
X262752380Y-202671428D01*
X262904761Y-202633333D01*
X263019047Y-202633333D01*
X263171428Y-202671428D01*
X263247619Y-202709523D01*
X263323809Y-202785714D01*
X263361904Y-202900000D01*
X263361904Y-203090476D01*
X262561904Y-201947619D02*
X262561904Y-202100000D01*
X262600000Y-202176190D01*
X262638095Y-202214285D01*
X262752380Y-202290476D01*
X262904761Y-202328571D01*
X263209523Y-202328571D01*
X263285714Y-202290476D01*
X263323809Y-202252380D01*
X263361904Y-202176190D01*
X263361904Y-202023809D01*
X263323809Y-201947619D01*
X263285714Y-201909523D01*
X263209523Y-201871428D01*
X263019047Y-201871428D01*
X262942857Y-201909523D01*
X262904761Y-201947619D01*
X262866666Y-202023809D01*
X262866666Y-202176190D01*
X262904761Y-202252380D01*
X262942857Y-202290476D01*
X263019047Y-202328571D01*
X275791904Y-203014285D02*
X275410952Y-203280952D01*
X275791904Y-203471428D02*
X274991904Y-203471428D01*
X274991904Y-203166666D01*
X275030000Y-203090476D01*
X275068095Y-203052380D01*
X275144285Y-203014285D01*
X275258571Y-203014285D01*
X275334761Y-203052380D01*
X275372857Y-203090476D01*
X275410952Y-203166666D01*
X275410952Y-203471428D01*
X275372857Y-202671428D02*
X275372857Y-202404761D01*
X275791904Y-202290476D02*
X275791904Y-202671428D01*
X274991904Y-202671428D01*
X274991904Y-202290476D01*
X275791904Y-201947619D02*
X274991904Y-201947619D01*
X274991904Y-201757142D01*
X275030000Y-201642857D01*
X275106190Y-201566666D01*
X275182380Y-201528571D01*
X275334761Y-201490476D01*
X275449047Y-201490476D01*
X275601428Y-201528571D01*
X275677619Y-201566666D01*
X275753809Y-201642857D01*
X275791904Y-201757142D01*
X275791904Y-201947619D01*
X274361904Y-203090476D02*
X273561904Y-203090476D01*
X273561904Y-202900000D01*
X273600000Y-202785714D01*
X273676190Y-202709523D01*
X273752380Y-202671428D01*
X273904761Y-202633333D01*
X274019047Y-202633333D01*
X274171428Y-202671428D01*
X274247619Y-202709523D01*
X274323809Y-202785714D01*
X274361904Y-202900000D01*
X274361904Y-203090476D01*
X273561904Y-202366666D02*
X273561904Y-201833333D01*
X274361904Y-202176190D01*
X288791904Y-203014285D02*
X288410952Y-203280952D01*
X288791904Y-203471428D02*
X287991904Y-203471428D01*
X287991904Y-203166666D01*
X288030000Y-203090476D01*
X288068095Y-203052380D01*
X288144285Y-203014285D01*
X288258571Y-203014285D01*
X288334761Y-203052380D01*
X288372857Y-203090476D01*
X288410952Y-203166666D01*
X288410952Y-203471428D01*
X288372857Y-202671428D02*
X288372857Y-202404761D01*
X288791904Y-202290476D02*
X288791904Y-202671428D01*
X287991904Y-202671428D01*
X287991904Y-202290476D01*
X288791904Y-201947619D02*
X287991904Y-201947619D01*
X287991904Y-201757142D01*
X288030000Y-201642857D01*
X288106190Y-201566666D01*
X288182380Y-201528571D01*
X288334761Y-201490476D01*
X288449047Y-201490476D01*
X288601428Y-201528571D01*
X288677619Y-201566666D01*
X288753809Y-201642857D01*
X288791904Y-201757142D01*
X288791904Y-201947619D01*
X287361904Y-203090476D02*
X286561904Y-203090476D01*
X286561904Y-202900000D01*
X286600000Y-202785714D01*
X286676190Y-202709523D01*
X286752380Y-202671428D01*
X286904761Y-202633333D01*
X287019047Y-202633333D01*
X287171428Y-202671428D01*
X287247619Y-202709523D01*
X287323809Y-202785714D01*
X287361904Y-202900000D01*
X287361904Y-203090476D01*
X286904761Y-202176190D02*
X286866666Y-202252380D01*
X286828571Y-202290476D01*
X286752380Y-202328571D01*
X286714285Y-202328571D01*
X286638095Y-202290476D01*
X286600000Y-202252380D01*
X286561904Y-202176190D01*
X286561904Y-202023809D01*
X286600000Y-201947619D01*
X286638095Y-201909523D01*
X286714285Y-201871428D01*
X286752380Y-201871428D01*
X286828571Y-201909523D01*
X286866666Y-201947619D01*
X286904761Y-202023809D01*
X286904761Y-202176190D01*
X286942857Y-202252380D01*
X286980952Y-202290476D01*
X287057142Y-202328571D01*
X287209523Y-202328571D01*
X287285714Y-202290476D01*
X287323809Y-202252380D01*
X287361904Y-202176190D01*
X287361904Y-202023809D01*
X287323809Y-201947619D01*
X287285714Y-201909523D01*
X287209523Y-201871428D01*
X287057142Y-201871428D01*
X286980952Y-201909523D01*
X286942857Y-201947619D01*
X286904761Y-202023809D01*
X281431904Y-152438095D02*
X281431904Y-152361904D01*
X281470000Y-152285714D01*
X281508095Y-152247619D01*
X281584285Y-152209523D01*
X281736666Y-152171428D01*
X281927142Y-152171428D01*
X282079523Y-152209523D01*
X282155714Y-152247619D01*
X282193809Y-152285714D01*
X282231904Y-152361904D01*
X282231904Y-152438095D01*
X282193809Y-152514285D01*
X282155714Y-152552380D01*
X282079523Y-152590476D01*
X281927142Y-152628571D01*
X281736666Y-152628571D01*
X281584285Y-152590476D01*
X281508095Y-152552380D01*
X281470000Y-152514285D01*
X281431904Y-152438095D01*
X282155714Y-151828571D02*
X282193809Y-151790476D01*
X282231904Y-151828571D01*
X282193809Y-151866666D01*
X282155714Y-151828571D01*
X282231904Y-151828571D01*
X282231904Y-151028571D02*
X282231904Y-151485714D01*
X282231904Y-151257142D02*
X281431904Y-151257142D01*
X281546190Y-151333333D01*
X281622380Y-151409523D01*
X281660476Y-151485714D01*
X281431904Y-150723809D02*
X281584285Y-150723809D01*
X281431904Y-150419047D02*
X281584285Y-150419047D01*
X282231904Y-149466666D02*
X281431904Y-149466666D01*
X281812857Y-149466666D02*
X281812857Y-149009523D01*
X282231904Y-149009523D02*
X281431904Y-149009523D01*
X282231904Y-148628571D02*
X281431904Y-148628571D01*
X281431904Y-148438095D01*
X281470000Y-148323809D01*
X281546190Y-148247619D01*
X281622380Y-148209523D01*
X281774761Y-148171428D01*
X281889047Y-148171428D01*
X282041428Y-148209523D01*
X282117619Y-148247619D01*
X282193809Y-148323809D01*
X282231904Y-148438095D01*
X282231904Y-148628571D01*
X282231904Y-147371428D02*
X281850952Y-147638095D01*
X282231904Y-147828571D02*
X281431904Y-147828571D01*
X281431904Y-147523809D01*
X281470000Y-147447619D01*
X281508095Y-147409523D01*
X281584285Y-147371428D01*
X281698571Y-147371428D01*
X281774761Y-147409523D01*
X281812857Y-147447619D01*
X281850952Y-147523809D01*
X281850952Y-147828571D01*
X276733333Y-149561904D02*
X276733333Y-150133333D01*
X276695238Y-150247619D01*
X276619047Y-150323809D01*
X276504761Y-150361904D01*
X276428571Y-150361904D01*
X277533333Y-150361904D02*
X277076190Y-150361904D01*
X277304761Y-150361904D02*
X277304761Y-149561904D01*
X277228571Y-149676190D01*
X277152380Y-149752380D01*
X277076190Y-149790476D01*
X287561904Y-188211904D02*
X287638095Y-188211904D01*
X287714285Y-188250000D01*
X287752380Y-188288095D01*
X287790476Y-188364285D01*
X287828571Y-188516666D01*
X287828571Y-188707142D01*
X287790476Y-188859523D01*
X287752380Y-188935714D01*
X287714285Y-188973809D01*
X287638095Y-189011904D01*
X287561904Y-189011904D01*
X287485714Y-188973809D01*
X287447619Y-188935714D01*
X287409523Y-188859523D01*
X287371428Y-188707142D01*
X287371428Y-188516666D01*
X287409523Y-188364285D01*
X287447619Y-188288095D01*
X287485714Y-188250000D01*
X287561904Y-188211904D01*
X288171428Y-188935714D02*
X288209523Y-188973809D01*
X288171428Y-189011904D01*
X288133333Y-188973809D01*
X288171428Y-188935714D01*
X288171428Y-189011904D01*
X288971428Y-189011904D02*
X288514285Y-189011904D01*
X288742857Y-189011904D02*
X288742857Y-188211904D01*
X288666666Y-188326190D01*
X288590476Y-188402380D01*
X288514285Y-188440476D01*
X289276190Y-188211904D02*
X289276190Y-188364285D01*
X289580952Y-188211904D02*
X289580952Y-188364285D01*
X290533333Y-189011904D02*
X290533333Y-188211904D01*
X290533333Y-188592857D02*
X290990476Y-188592857D01*
X290990476Y-189011904D02*
X290990476Y-188211904D01*
X291371428Y-189011904D02*
X291371428Y-188211904D01*
X291561904Y-188211904D01*
X291676190Y-188250000D01*
X291752380Y-188326190D01*
X291790476Y-188402380D01*
X291828571Y-188554761D01*
X291828571Y-188669047D01*
X291790476Y-188821428D01*
X291752380Y-188897619D01*
X291676190Y-188973809D01*
X291561904Y-189011904D01*
X291371428Y-189011904D01*
X292628571Y-189011904D02*
X292361904Y-188630952D01*
X292171428Y-189011904D02*
X292171428Y-188211904D01*
X292476190Y-188211904D01*
X292552380Y-188250000D01*
X292590476Y-188288095D01*
X292628571Y-188364285D01*
X292628571Y-188478571D01*
X292590476Y-188554761D01*
X292552380Y-188592857D01*
X292476190Y-188630952D01*
X292171428Y-188630952D01*
X289561904Y-176426666D02*
X290133333Y-176426666D01*
X290247619Y-176464761D01*
X290323809Y-176540952D01*
X290361904Y-176655238D01*
X290361904Y-176731428D01*
X289638095Y-176083809D02*
X289600000Y-176045714D01*
X289561904Y-175969523D01*
X289561904Y-175779047D01*
X289600000Y-175702857D01*
X289638095Y-175664761D01*
X289714285Y-175626666D01*
X289790476Y-175626666D01*
X289904761Y-175664761D01*
X290361904Y-176121904D01*
X290361904Y-175626666D01*
X291891904Y-152438095D02*
X291891904Y-152361904D01*
X291930000Y-152285714D01*
X291968095Y-152247619D01*
X292044285Y-152209523D01*
X292196666Y-152171428D01*
X292387142Y-152171428D01*
X292539523Y-152209523D01*
X292615714Y-152247619D01*
X292653809Y-152285714D01*
X292691904Y-152361904D01*
X292691904Y-152438095D01*
X292653809Y-152514285D01*
X292615714Y-152552380D01*
X292539523Y-152590476D01*
X292387142Y-152628571D01*
X292196666Y-152628571D01*
X292044285Y-152590476D01*
X291968095Y-152552380D01*
X291930000Y-152514285D01*
X291891904Y-152438095D01*
X292615714Y-151828571D02*
X292653809Y-151790476D01*
X292691904Y-151828571D01*
X292653809Y-151866666D01*
X292615714Y-151828571D01*
X292691904Y-151828571D01*
X292691904Y-151028571D02*
X292691904Y-151485714D01*
X292691904Y-151257142D02*
X291891904Y-151257142D01*
X292006190Y-151333333D01*
X292082380Y-151409523D01*
X292120476Y-151485714D01*
X291891904Y-150723809D02*
X292044285Y-150723809D01*
X291891904Y-150419047D02*
X292044285Y-150419047D01*
X292691904Y-149466666D02*
X291891904Y-149466666D01*
X292272857Y-149466666D02*
X292272857Y-149009523D01*
X292691904Y-149009523D02*
X291891904Y-149009523D01*
X292691904Y-148628571D02*
X291891904Y-148628571D01*
X291891904Y-148438095D01*
X291930000Y-148323809D01*
X292006190Y-148247619D01*
X292082380Y-148209523D01*
X292234761Y-148171428D01*
X292349047Y-148171428D01*
X292501428Y-148209523D01*
X292577619Y-148247619D01*
X292653809Y-148323809D01*
X292691904Y-148438095D01*
X292691904Y-148628571D01*
X292691904Y-147371428D02*
X292310952Y-147638095D01*
X292691904Y-147828571D02*
X291891904Y-147828571D01*
X291891904Y-147523809D01*
X291930000Y-147447619D01*
X291968095Y-147409523D01*
X292044285Y-147371428D01*
X292158571Y-147371428D01*
X292234761Y-147409523D01*
X292272857Y-147447619D01*
X292310952Y-147523809D01*
X292310952Y-147828571D01*
X288463333Y-149561904D02*
X288463333Y-150133333D01*
X288425238Y-150247619D01*
X288349047Y-150323809D01*
X288234761Y-150361904D01*
X288158571Y-150361904D01*
X288768095Y-149561904D02*
X289263333Y-149561904D01*
X288996666Y-149866666D01*
X289110952Y-149866666D01*
X289187142Y-149904761D01*
X289225238Y-149942857D01*
X289263333Y-150019047D01*
X289263333Y-150209523D01*
X289225238Y-150285714D01*
X289187142Y-150323809D01*
X289110952Y-150361904D01*
X288882380Y-150361904D01*
X288806190Y-150323809D01*
X288768095Y-150285714D01*
X215891904Y-212438095D02*
X215891904Y-212361904D01*
X215930000Y-212285714D01*
X215968095Y-212247619D01*
X216044285Y-212209523D01*
X216196666Y-212171428D01*
X216387142Y-212171428D01*
X216539523Y-212209523D01*
X216615714Y-212247619D01*
X216653809Y-212285714D01*
X216691904Y-212361904D01*
X216691904Y-212438095D01*
X216653809Y-212514285D01*
X216615714Y-212552380D01*
X216539523Y-212590476D01*
X216387142Y-212628571D01*
X216196666Y-212628571D01*
X216044285Y-212590476D01*
X215968095Y-212552380D01*
X215930000Y-212514285D01*
X215891904Y-212438095D01*
X216615714Y-211828571D02*
X216653809Y-211790476D01*
X216691904Y-211828571D01*
X216653809Y-211866666D01*
X216615714Y-211828571D01*
X216691904Y-211828571D01*
X216691904Y-211028571D02*
X216691904Y-211485714D01*
X216691904Y-211257142D02*
X215891904Y-211257142D01*
X216006190Y-211333333D01*
X216082380Y-211409523D01*
X216120476Y-211485714D01*
X215891904Y-210723809D02*
X216044285Y-210723809D01*
X215891904Y-210419047D02*
X216044285Y-210419047D01*
X216691904Y-209466666D02*
X215891904Y-209466666D01*
X216272857Y-209466666D02*
X216272857Y-209009523D01*
X216691904Y-209009523D02*
X215891904Y-209009523D01*
X216691904Y-208628571D02*
X215891904Y-208628571D01*
X215891904Y-208438095D01*
X215930000Y-208323809D01*
X216006190Y-208247619D01*
X216082380Y-208209523D01*
X216234761Y-208171428D01*
X216349047Y-208171428D01*
X216501428Y-208209523D01*
X216577619Y-208247619D01*
X216653809Y-208323809D01*
X216691904Y-208438095D01*
X216691904Y-208628571D01*
X216691904Y-207371428D02*
X216310952Y-207638095D01*
X216691904Y-207828571D02*
X215891904Y-207828571D01*
X215891904Y-207523809D01*
X215930000Y-207447619D01*
X215968095Y-207409523D01*
X216044285Y-207371428D01*
X216158571Y-207371428D01*
X216234761Y-207409523D01*
X216272857Y-207447619D01*
X216310952Y-207523809D01*
X216310952Y-207828571D01*
X212463333Y-209561904D02*
X212463333Y-210133333D01*
X212425238Y-210247619D01*
X212349047Y-210323809D01*
X212234761Y-210361904D01*
X212158571Y-210361904D01*
X213187142Y-209828571D02*
X213187142Y-210361904D01*
X212996666Y-209523809D02*
X212806190Y-210095238D01*
X213301428Y-210095238D01*
X207561904Y-155071904D02*
X207638095Y-155071904D01*
X207714285Y-155110000D01*
X207752380Y-155148095D01*
X207790476Y-155224285D01*
X207828571Y-155376666D01*
X207828571Y-155567142D01*
X207790476Y-155719523D01*
X207752380Y-155795714D01*
X207714285Y-155833809D01*
X207638095Y-155871904D01*
X207561904Y-155871904D01*
X207485714Y-155833809D01*
X207447619Y-155795714D01*
X207409523Y-155719523D01*
X207371428Y-155567142D01*
X207371428Y-155376666D01*
X207409523Y-155224285D01*
X207447619Y-155148095D01*
X207485714Y-155110000D01*
X207561904Y-155071904D01*
X208171428Y-155795714D02*
X208209523Y-155833809D01*
X208171428Y-155871904D01*
X208133333Y-155833809D01*
X208171428Y-155795714D01*
X208171428Y-155871904D01*
X208971428Y-155871904D02*
X208514285Y-155871904D01*
X208742857Y-155871904D02*
X208742857Y-155071904D01*
X208666666Y-155186190D01*
X208590476Y-155262380D01*
X208514285Y-155300476D01*
X209276190Y-155071904D02*
X209276190Y-155224285D01*
X209580952Y-155071904D02*
X209580952Y-155224285D01*
X210533333Y-155871904D02*
X210533333Y-155071904D01*
X210533333Y-155452857D02*
X210990476Y-155452857D01*
X210990476Y-155871904D02*
X210990476Y-155071904D01*
X211371428Y-155871904D02*
X211371428Y-155071904D01*
X211561904Y-155071904D01*
X211676190Y-155110000D01*
X211752380Y-155186190D01*
X211790476Y-155262380D01*
X211828571Y-155414761D01*
X211828571Y-155529047D01*
X211790476Y-155681428D01*
X211752380Y-155757619D01*
X211676190Y-155833809D01*
X211561904Y-155871904D01*
X211371428Y-155871904D01*
X212628571Y-155871904D02*
X212361904Y-155490952D01*
X212171428Y-155871904D02*
X212171428Y-155071904D01*
X212476190Y-155071904D01*
X212552380Y-155110000D01*
X212590476Y-155148095D01*
X212628571Y-155224285D01*
X212628571Y-155338571D01*
X212590476Y-155414761D01*
X212552380Y-155452857D01*
X212476190Y-155490952D01*
X212171428Y-155490952D01*
X209561904Y-163186666D02*
X210133333Y-163186666D01*
X210247619Y-163224761D01*
X210323809Y-163300952D01*
X210361904Y-163415238D01*
X210361904Y-163491428D01*
X209561904Y-162424761D02*
X209561904Y-162805714D01*
X209942857Y-162843809D01*
X209904761Y-162805714D01*
X209866666Y-162729523D01*
X209866666Y-162539047D01*
X209904761Y-162462857D01*
X209942857Y-162424761D01*
X210019047Y-162386666D01*
X210209523Y-162386666D01*
X210285714Y-162424761D01*
X210323809Y-162462857D01*
X210361904Y-162539047D01*
X210361904Y-162729523D01*
X210323809Y-162805714D01*
X210285714Y-162843809D01*
X234891904Y-212438095D02*
X234891904Y-212361904D01*
X234930000Y-212285714D01*
X234968095Y-212247619D01*
X235044285Y-212209523D01*
X235196666Y-212171428D01*
X235387142Y-212171428D01*
X235539523Y-212209523D01*
X235615714Y-212247619D01*
X235653809Y-212285714D01*
X235691904Y-212361904D01*
X235691904Y-212438095D01*
X235653809Y-212514285D01*
X235615714Y-212552380D01*
X235539523Y-212590476D01*
X235387142Y-212628571D01*
X235196666Y-212628571D01*
X235044285Y-212590476D01*
X234968095Y-212552380D01*
X234930000Y-212514285D01*
X234891904Y-212438095D01*
X235615714Y-211828571D02*
X235653809Y-211790476D01*
X235691904Y-211828571D01*
X235653809Y-211866666D01*
X235615714Y-211828571D01*
X235691904Y-211828571D01*
X235691904Y-211028571D02*
X235691904Y-211485714D01*
X235691904Y-211257142D02*
X234891904Y-211257142D01*
X235006190Y-211333333D01*
X235082380Y-211409523D01*
X235120476Y-211485714D01*
X234891904Y-210723809D02*
X235044285Y-210723809D01*
X234891904Y-210419047D02*
X235044285Y-210419047D01*
X235691904Y-209466666D02*
X234891904Y-209466666D01*
X235272857Y-209466666D02*
X235272857Y-209009523D01*
X235691904Y-209009523D02*
X234891904Y-209009523D01*
X235691904Y-208628571D02*
X234891904Y-208628571D01*
X234891904Y-208438095D01*
X234930000Y-208323809D01*
X235006190Y-208247619D01*
X235082380Y-208209523D01*
X235234761Y-208171428D01*
X235349047Y-208171428D01*
X235501428Y-208209523D01*
X235577619Y-208247619D01*
X235653809Y-208323809D01*
X235691904Y-208438095D01*
X235691904Y-208628571D01*
X235691904Y-207371428D02*
X235310952Y-207638095D01*
X235691904Y-207828571D02*
X234891904Y-207828571D01*
X234891904Y-207523809D01*
X234930000Y-207447619D01*
X234968095Y-207409523D01*
X235044285Y-207371428D01*
X235158571Y-207371428D01*
X235234761Y-207409523D01*
X235272857Y-207447619D01*
X235310952Y-207523809D01*
X235310952Y-207828571D01*
X231463333Y-209561904D02*
X231463333Y-210133333D01*
X231425238Y-210247619D01*
X231349047Y-210323809D01*
X231234761Y-210361904D01*
X231158571Y-210361904D01*
X232187142Y-209561904D02*
X232034761Y-209561904D01*
X231958571Y-209600000D01*
X231920476Y-209638095D01*
X231844285Y-209752380D01*
X231806190Y-209904761D01*
X231806190Y-210209523D01*
X231844285Y-210285714D01*
X231882380Y-210323809D01*
X231958571Y-210361904D01*
X232110952Y-210361904D01*
X232187142Y-210323809D01*
X232225238Y-210285714D01*
X232263333Y-210209523D01*
X232263333Y-210019047D01*
X232225238Y-209942857D01*
X232187142Y-209904761D01*
X232110952Y-209866666D01*
X231958571Y-209866666D01*
X231882380Y-209904761D01*
X231844285Y-209942857D01*
X231806190Y-210019047D01*
X275568095Y-161547023D02*
X275530000Y-161508928D01*
X275491904Y-161432738D01*
X275491904Y-161242261D01*
X275530000Y-161166071D01*
X275568095Y-161127976D01*
X275644285Y-161089880D01*
X275720476Y-161089880D01*
X275834761Y-161127976D01*
X276291904Y-161585119D01*
X276291904Y-161089880D01*
X275491904Y-160594642D02*
X275491904Y-160518452D01*
X275530000Y-160442261D01*
X275568095Y-160404166D01*
X275644285Y-160366071D01*
X275796666Y-160327976D01*
X275987142Y-160327976D01*
X276139523Y-160366071D01*
X276215714Y-160404166D01*
X276253809Y-160442261D01*
X276291904Y-160518452D01*
X276291904Y-160594642D01*
X276253809Y-160670833D01*
X276215714Y-160708928D01*
X276139523Y-160747023D01*
X275987142Y-160785119D01*
X275796666Y-160785119D01*
X275644285Y-160747023D01*
X275568095Y-160708928D01*
X275530000Y-160670833D01*
X275491904Y-160594642D01*
X276291904Y-159985119D02*
X275491904Y-159985119D01*
X276291904Y-159527976D02*
X275834761Y-159870833D01*
X275491904Y-159527976D02*
X275949047Y-159985119D01*
X274861904Y-160670833D02*
X274480952Y-160937500D01*
X274861904Y-161127976D02*
X274061904Y-161127976D01*
X274061904Y-160823214D01*
X274100000Y-160747023D01*
X274138095Y-160708928D01*
X274214285Y-160670833D01*
X274328571Y-160670833D01*
X274404761Y-160708928D01*
X274442857Y-160747023D01*
X274480952Y-160823214D01*
X274480952Y-161127976D01*
X274861904Y-159908928D02*
X274861904Y-160366071D01*
X274861904Y-160137500D02*
X274061904Y-160137500D01*
X274176190Y-160213690D01*
X274252380Y-160289880D01*
X274290476Y-160366071D01*
X277708095Y-161547023D02*
X277670000Y-161508928D01*
X277631904Y-161432738D01*
X277631904Y-161242261D01*
X277670000Y-161166071D01*
X277708095Y-161127976D01*
X277784285Y-161089880D01*
X277860476Y-161089880D01*
X277974761Y-161127976D01*
X278431904Y-161585119D01*
X278431904Y-161089880D01*
X277631904Y-160594642D02*
X277631904Y-160518452D01*
X277670000Y-160442261D01*
X277708095Y-160404166D01*
X277784285Y-160366071D01*
X277936666Y-160327976D01*
X278127142Y-160327976D01*
X278279523Y-160366071D01*
X278355714Y-160404166D01*
X278393809Y-160442261D01*
X278431904Y-160518452D01*
X278431904Y-160594642D01*
X278393809Y-160670833D01*
X278355714Y-160708928D01*
X278279523Y-160747023D01*
X278127142Y-160785119D01*
X277936666Y-160785119D01*
X277784285Y-160747023D01*
X277708095Y-160708928D01*
X277670000Y-160670833D01*
X277631904Y-160594642D01*
X278431904Y-159985119D02*
X277631904Y-159985119D01*
X278431904Y-159527976D02*
X277974761Y-159870833D01*
X277631904Y-159527976D02*
X278089047Y-159985119D01*
X279861904Y-160670833D02*
X279480952Y-160937500D01*
X279861904Y-161127976D02*
X279061904Y-161127976D01*
X279061904Y-160823214D01*
X279100000Y-160747023D01*
X279138095Y-160708928D01*
X279214285Y-160670833D01*
X279328571Y-160670833D01*
X279404761Y-160708928D01*
X279442857Y-160747023D01*
X279480952Y-160823214D01*
X279480952Y-161127976D01*
X279138095Y-160366071D02*
X279100000Y-160327976D01*
X279061904Y-160251785D01*
X279061904Y-160061309D01*
X279100000Y-159985119D01*
X279138095Y-159947023D01*
X279214285Y-159908928D01*
X279290476Y-159908928D01*
X279404761Y-159947023D01*
X279861904Y-160404166D01*
X279861904Y-159908928D01*
X289291904Y-160708928D02*
X289291904Y-161166071D01*
X289291904Y-160937500D02*
X288491904Y-160937500D01*
X288606190Y-161013690D01*
X288682380Y-161089880D01*
X288720476Y-161166071D01*
X289291904Y-160366071D02*
X288491904Y-160366071D01*
X289291904Y-159908928D02*
X288834761Y-160251785D01*
X288491904Y-159908928D02*
X288949047Y-160366071D01*
X287861904Y-160670833D02*
X287480952Y-160937500D01*
X287861904Y-161127976D02*
X287061904Y-161127976D01*
X287061904Y-160823214D01*
X287100000Y-160747023D01*
X287138095Y-160708928D01*
X287214285Y-160670833D01*
X287328571Y-160670833D01*
X287404761Y-160708928D01*
X287442857Y-160747023D01*
X287480952Y-160823214D01*
X287480952Y-161127976D01*
X287061904Y-160404166D02*
X287061904Y-159908928D01*
X287366666Y-160175595D01*
X287366666Y-160061309D01*
X287404761Y-159985119D01*
X287442857Y-159947023D01*
X287519047Y-159908928D01*
X287709523Y-159908928D01*
X287785714Y-159947023D01*
X287823809Y-159985119D01*
X287861904Y-160061309D01*
X287861904Y-160289880D01*
X287823809Y-160366071D01*
X287785714Y-160404166D01*
X226733928Y-167931904D02*
X226276785Y-167931904D01*
X226505357Y-167931904D02*
X226505357Y-167131904D01*
X226429166Y-167246190D01*
X226352976Y-167322380D01*
X226276785Y-167360476D01*
X227076785Y-167931904D02*
X227076785Y-167131904D01*
X227343452Y-167703333D01*
X227610119Y-167131904D01*
X227610119Y-167931904D01*
X226829166Y-169361904D02*
X226562500Y-168980952D01*
X226372023Y-169361904D02*
X226372023Y-168561904D01*
X226676785Y-168561904D01*
X226752976Y-168600000D01*
X226791071Y-168638095D01*
X226829166Y-168714285D01*
X226829166Y-168828571D01*
X226791071Y-168904761D01*
X226752976Y-168942857D01*
X226676785Y-168980952D01*
X226372023Y-168980952D01*
X227514880Y-168828571D02*
X227514880Y-169361904D01*
X227324404Y-168523809D02*
X227133928Y-169095238D01*
X227629166Y-169095238D01*
X226631904Y-172378571D02*
X226631904Y-172530952D01*
X226670000Y-172607142D01*
X226708095Y-172645238D01*
X226822380Y-172721428D01*
X226974761Y-172759523D01*
X227279523Y-172759523D01*
X227355714Y-172721428D01*
X227393809Y-172683333D01*
X227431904Y-172607142D01*
X227431904Y-172454761D01*
X227393809Y-172378571D01*
X227355714Y-172340476D01*
X227279523Y-172302380D01*
X227089047Y-172302380D01*
X227012857Y-172340476D01*
X226974761Y-172378571D01*
X226936666Y-172454761D01*
X226936666Y-172607142D01*
X226974761Y-172683333D01*
X227012857Y-172721428D01*
X227089047Y-172759523D01*
X226974761Y-171845238D02*
X226936666Y-171921428D01*
X226898571Y-171959523D01*
X226822380Y-171997619D01*
X226784285Y-171997619D01*
X226708095Y-171959523D01*
X226670000Y-171921428D01*
X226631904Y-171845238D01*
X226631904Y-171692857D01*
X226670000Y-171616666D01*
X226708095Y-171578571D01*
X226784285Y-171540476D01*
X226822380Y-171540476D01*
X226898571Y-171578571D01*
X226936666Y-171616666D01*
X226974761Y-171692857D01*
X226974761Y-171845238D01*
X227012857Y-171921428D01*
X227050952Y-171959523D01*
X227127142Y-171997619D01*
X227279523Y-171997619D01*
X227355714Y-171959523D01*
X227393809Y-171921428D01*
X227431904Y-171845238D01*
X227431904Y-171692857D01*
X227393809Y-171616666D01*
X227355714Y-171578571D01*
X227279523Y-171540476D01*
X227127142Y-171540476D01*
X227050952Y-171578571D01*
X227012857Y-171616666D01*
X226974761Y-171692857D01*
X227431904Y-171197619D02*
X226631904Y-171197619D01*
X227431904Y-170740476D02*
X226974761Y-171083333D01*
X226631904Y-170740476D02*
X227089047Y-171197619D01*
X228861904Y-171883333D02*
X228480952Y-172150000D01*
X228861904Y-172340476D02*
X228061904Y-172340476D01*
X228061904Y-172035714D01*
X228100000Y-171959523D01*
X228138095Y-171921428D01*
X228214285Y-171883333D01*
X228328571Y-171883333D01*
X228404761Y-171921428D01*
X228442857Y-171959523D01*
X228480952Y-172035714D01*
X228480952Y-172340476D01*
X228061904Y-171159523D02*
X228061904Y-171540476D01*
X228442857Y-171578571D01*
X228404761Y-171540476D01*
X228366666Y-171464285D01*
X228366666Y-171273809D01*
X228404761Y-171197619D01*
X228442857Y-171159523D01*
X228519047Y-171121428D01*
X228709523Y-171121428D01*
X228785714Y-171159523D01*
X228823809Y-171197619D01*
X228861904Y-171273809D01*
X228861904Y-171464285D01*
X228823809Y-171540476D01*
X228785714Y-171578571D01*
X228631904Y-172378571D02*
X228631904Y-172530952D01*
X228670000Y-172607142D01*
X228708095Y-172645238D01*
X228822380Y-172721428D01*
X228974761Y-172759523D01*
X229279523Y-172759523D01*
X229355714Y-172721428D01*
X229393809Y-172683333D01*
X229431904Y-172607142D01*
X229431904Y-172454761D01*
X229393809Y-172378571D01*
X229355714Y-172340476D01*
X229279523Y-172302380D01*
X229089047Y-172302380D01*
X229012857Y-172340476D01*
X228974761Y-172378571D01*
X228936666Y-172454761D01*
X228936666Y-172607142D01*
X228974761Y-172683333D01*
X229012857Y-172721428D01*
X229089047Y-172759523D01*
X228974761Y-171845238D02*
X228936666Y-171921428D01*
X228898571Y-171959523D01*
X228822380Y-171997619D01*
X228784285Y-171997619D01*
X228708095Y-171959523D01*
X228670000Y-171921428D01*
X228631904Y-171845238D01*
X228631904Y-171692857D01*
X228670000Y-171616666D01*
X228708095Y-171578571D01*
X228784285Y-171540476D01*
X228822380Y-171540476D01*
X228898571Y-171578571D01*
X228936666Y-171616666D01*
X228974761Y-171692857D01*
X228974761Y-171845238D01*
X229012857Y-171921428D01*
X229050952Y-171959523D01*
X229127142Y-171997619D01*
X229279523Y-171997619D01*
X229355714Y-171959523D01*
X229393809Y-171921428D01*
X229431904Y-171845238D01*
X229431904Y-171692857D01*
X229393809Y-171616666D01*
X229355714Y-171578571D01*
X229279523Y-171540476D01*
X229127142Y-171540476D01*
X229050952Y-171578571D01*
X229012857Y-171616666D01*
X228974761Y-171692857D01*
X229431904Y-171197619D02*
X228631904Y-171197619D01*
X229431904Y-170740476D02*
X228974761Y-171083333D01*
X228631904Y-170740476D02*
X229089047Y-171197619D01*
X230861904Y-171883333D02*
X230480952Y-172150000D01*
X230861904Y-172340476D02*
X230061904Y-172340476D01*
X230061904Y-172035714D01*
X230100000Y-171959523D01*
X230138095Y-171921428D01*
X230214285Y-171883333D01*
X230328571Y-171883333D01*
X230404761Y-171921428D01*
X230442857Y-171959523D01*
X230480952Y-172035714D01*
X230480952Y-172340476D01*
X230061904Y-171197619D02*
X230061904Y-171350000D01*
X230100000Y-171426190D01*
X230138095Y-171464285D01*
X230252380Y-171540476D01*
X230404761Y-171578571D01*
X230709523Y-171578571D01*
X230785714Y-171540476D01*
X230823809Y-171502380D01*
X230861904Y-171426190D01*
X230861904Y-171273809D01*
X230823809Y-171197619D01*
X230785714Y-171159523D01*
X230709523Y-171121428D01*
X230519047Y-171121428D01*
X230442857Y-171159523D01*
X230404761Y-171197619D01*
X230366666Y-171273809D01*
X230366666Y-171426190D01*
X230404761Y-171502380D01*
X230442857Y-171540476D01*
X230519047Y-171578571D01*
X232291904Y-176766071D02*
X232291904Y-177223214D01*
X232291904Y-176994642D02*
X231491904Y-176994642D01*
X231606190Y-177070833D01*
X231682380Y-177147023D01*
X231720476Y-177223214D01*
X232291904Y-176423214D02*
X231491904Y-176423214D01*
X232063333Y-176156547D01*
X231491904Y-175889880D01*
X232291904Y-175889880D01*
X230861904Y-176670833D02*
X230480952Y-176937500D01*
X230861904Y-177127976D02*
X230061904Y-177127976D01*
X230061904Y-176823214D01*
X230100000Y-176747023D01*
X230138095Y-176708928D01*
X230214285Y-176670833D01*
X230328571Y-176670833D01*
X230404761Y-176708928D01*
X230442857Y-176747023D01*
X230480952Y-176823214D01*
X230480952Y-177127976D01*
X230061904Y-176404166D02*
X230061904Y-175870833D01*
X230861904Y-176213690D01*
X227160119Y-177541904D02*
X226702976Y-177541904D01*
X226931547Y-177541904D02*
X226931547Y-176741904D01*
X226855357Y-176856190D01*
X226779166Y-176932380D01*
X226702976Y-176970476D01*
X227655357Y-176741904D02*
X227731547Y-176741904D01*
X227807738Y-176780000D01*
X227845833Y-176818095D01*
X227883928Y-176894285D01*
X227922023Y-177046666D01*
X227922023Y-177237142D01*
X227883928Y-177389523D01*
X227845833Y-177465714D01*
X227807738Y-177503809D01*
X227731547Y-177541904D01*
X227655357Y-177541904D01*
X227579166Y-177503809D01*
X227541071Y-177465714D01*
X227502976Y-177389523D01*
X227464880Y-177237142D01*
X227464880Y-177046666D01*
X227502976Y-176894285D01*
X227541071Y-176818095D01*
X227579166Y-176780000D01*
X227655357Y-176741904D01*
X228264880Y-177541904D02*
X228264880Y-176741904D01*
X228722023Y-177541904D02*
X228379166Y-177084761D01*
X228722023Y-176741904D02*
X228264880Y-177199047D01*
X227579166Y-176111904D02*
X227312500Y-175730952D01*
X227122023Y-176111904D02*
X227122023Y-175311904D01*
X227426785Y-175311904D01*
X227502976Y-175350000D01*
X227541071Y-175388095D01*
X227579166Y-175464285D01*
X227579166Y-175578571D01*
X227541071Y-175654761D01*
X227502976Y-175692857D01*
X227426785Y-175730952D01*
X227122023Y-175730952D01*
X228036309Y-175654761D02*
X227960119Y-175616666D01*
X227922023Y-175578571D01*
X227883928Y-175502380D01*
X227883928Y-175464285D01*
X227922023Y-175388095D01*
X227960119Y-175350000D01*
X228036309Y-175311904D01*
X228188690Y-175311904D01*
X228264880Y-175350000D01*
X228302976Y-175388095D01*
X228341071Y-175464285D01*
X228341071Y-175502380D01*
X228302976Y-175578571D01*
X228264880Y-175616666D01*
X228188690Y-175654761D01*
X228036309Y-175654761D01*
X227960119Y-175692857D01*
X227922023Y-175730952D01*
X227883928Y-175807142D01*
X227883928Y-175959523D01*
X227922023Y-176035714D01*
X227960119Y-176073809D01*
X228036309Y-176111904D01*
X228188690Y-176111904D01*
X228264880Y-176073809D01*
X228302976Y-176035714D01*
X228341071Y-175959523D01*
X228341071Y-175807142D01*
X228302976Y-175730952D01*
X228264880Y-175692857D01*
X228188690Y-175654761D01*
X227160119Y-176681904D02*
X226702976Y-176681904D01*
X226931547Y-176681904D02*
X226931547Y-175881904D01*
X226855357Y-175996190D01*
X226779166Y-176072380D01*
X226702976Y-176110476D01*
X227655357Y-175881904D02*
X227731547Y-175881904D01*
X227807738Y-175920000D01*
X227845833Y-175958095D01*
X227883928Y-176034285D01*
X227922023Y-176186666D01*
X227922023Y-176377142D01*
X227883928Y-176529523D01*
X227845833Y-176605714D01*
X227807738Y-176643809D01*
X227731547Y-176681904D01*
X227655357Y-176681904D01*
X227579166Y-176643809D01*
X227541071Y-176605714D01*
X227502976Y-176529523D01*
X227464880Y-176377142D01*
X227464880Y-176186666D01*
X227502976Y-176034285D01*
X227541071Y-175958095D01*
X227579166Y-175920000D01*
X227655357Y-175881904D01*
X228264880Y-176681904D02*
X228264880Y-175881904D01*
X228722023Y-176681904D02*
X228379166Y-176224761D01*
X228722023Y-175881904D02*
X228264880Y-176339047D01*
X227579166Y-178111904D02*
X227312500Y-177730952D01*
X227122023Y-178111904D02*
X227122023Y-177311904D01*
X227426785Y-177311904D01*
X227502976Y-177350000D01*
X227541071Y-177388095D01*
X227579166Y-177464285D01*
X227579166Y-177578571D01*
X227541071Y-177654761D01*
X227502976Y-177692857D01*
X227426785Y-177730952D01*
X227122023Y-177730952D01*
X227960119Y-178111904D02*
X228112500Y-178111904D01*
X228188690Y-178073809D01*
X228226785Y-178035714D01*
X228302976Y-177921428D01*
X228341071Y-177769047D01*
X228341071Y-177464285D01*
X228302976Y-177388095D01*
X228264880Y-177350000D01*
X228188690Y-177311904D01*
X228036309Y-177311904D01*
X227960119Y-177350000D01*
X227922023Y-177388095D01*
X227883928Y-177464285D01*
X227883928Y-177654761D01*
X227922023Y-177730952D01*
X227960119Y-177769047D01*
X228036309Y-177807142D01*
X228188690Y-177807142D01*
X228264880Y-177769047D01*
X228302976Y-177730952D01*
X228341071Y-177654761D01*
X236233928Y-170791904D02*
X235776785Y-170791904D01*
X236005357Y-170791904D02*
X236005357Y-169991904D01*
X235929166Y-170106190D01*
X235852976Y-170182380D01*
X235776785Y-170220476D01*
X236576785Y-170791904D02*
X236576785Y-169991904D01*
X236843452Y-170563333D01*
X237110119Y-169991904D01*
X237110119Y-170791904D01*
X235948214Y-169361904D02*
X235681547Y-168980952D01*
X235491071Y-169361904D02*
X235491071Y-168561904D01*
X235795833Y-168561904D01*
X235872023Y-168600000D01*
X235910119Y-168638095D01*
X235948214Y-168714285D01*
X235948214Y-168828571D01*
X235910119Y-168904761D01*
X235872023Y-168942857D01*
X235795833Y-168980952D01*
X235491071Y-168980952D01*
X236710119Y-169361904D02*
X236252976Y-169361904D01*
X236481547Y-169361904D02*
X236481547Y-168561904D01*
X236405357Y-168676190D01*
X236329166Y-168752380D01*
X236252976Y-168790476D01*
X237205357Y-168561904D02*
X237281547Y-168561904D01*
X237357738Y-168600000D01*
X237395833Y-168638095D01*
X237433928Y-168714285D01*
X237472023Y-168866666D01*
X237472023Y-169057142D01*
X237433928Y-169209523D01*
X237395833Y-169285714D01*
X237357738Y-169323809D01*
X237281547Y-169361904D01*
X237205357Y-169361904D01*
X237129166Y-169323809D01*
X237091071Y-169285714D01*
X237052976Y-169209523D01*
X237014880Y-169057142D01*
X237014880Y-168866666D01*
X237052976Y-168714285D01*
X237091071Y-168638095D01*
X237129166Y-168600000D01*
X237205357Y-168561904D01*
X234631904Y-172416071D02*
X234631904Y-172568452D01*
X234670000Y-172644642D01*
X234708095Y-172682738D01*
X234822380Y-172758928D01*
X234974761Y-172797023D01*
X235279523Y-172797023D01*
X235355714Y-172758928D01*
X235393809Y-172720833D01*
X235431904Y-172644642D01*
X235431904Y-172492261D01*
X235393809Y-172416071D01*
X235355714Y-172377976D01*
X235279523Y-172339880D01*
X235089047Y-172339880D01*
X235012857Y-172377976D01*
X234974761Y-172416071D01*
X234936666Y-172492261D01*
X234936666Y-172644642D01*
X234974761Y-172720833D01*
X235012857Y-172758928D01*
X235089047Y-172797023D01*
X234974761Y-171882738D02*
X234936666Y-171958928D01*
X234898571Y-171997023D01*
X234822380Y-172035119D01*
X234784285Y-172035119D01*
X234708095Y-171997023D01*
X234670000Y-171958928D01*
X234631904Y-171882738D01*
X234631904Y-171730357D01*
X234670000Y-171654166D01*
X234708095Y-171616071D01*
X234784285Y-171577976D01*
X234822380Y-171577976D01*
X234898571Y-171616071D01*
X234936666Y-171654166D01*
X234974761Y-171730357D01*
X234974761Y-171882738D01*
X235012857Y-171958928D01*
X235050952Y-171997023D01*
X235127142Y-172035119D01*
X235279523Y-172035119D01*
X235355714Y-171997023D01*
X235393809Y-171958928D01*
X235431904Y-171882738D01*
X235431904Y-171730357D01*
X235393809Y-171654166D01*
X235355714Y-171616071D01*
X235279523Y-171577976D01*
X235127142Y-171577976D01*
X235050952Y-171616071D01*
X235012857Y-171654166D01*
X234974761Y-171730357D01*
X235431904Y-171235119D02*
X234631904Y-171235119D01*
X235431904Y-170777976D02*
X234974761Y-171120833D01*
X234631904Y-170777976D02*
X235089047Y-171235119D01*
X236861904Y-172301785D02*
X236480952Y-172568452D01*
X236861904Y-172758928D02*
X236061904Y-172758928D01*
X236061904Y-172454166D01*
X236100000Y-172377976D01*
X236138095Y-172339880D01*
X236214285Y-172301785D01*
X236328571Y-172301785D01*
X236404761Y-172339880D01*
X236442857Y-172377976D01*
X236480952Y-172454166D01*
X236480952Y-172758928D01*
X236861904Y-171539880D02*
X236861904Y-171997023D01*
X236861904Y-171768452D02*
X236061904Y-171768452D01*
X236176190Y-171844642D01*
X236252380Y-171920833D01*
X236290476Y-171997023D01*
X236861904Y-170777976D02*
X236861904Y-171235119D01*
X236861904Y-171006547D02*
X236061904Y-171006547D01*
X236176190Y-171082738D01*
X236252380Y-171158928D01*
X236290476Y-171235119D01*
X232631904Y-172416071D02*
X232631904Y-172568452D01*
X232670000Y-172644642D01*
X232708095Y-172682738D01*
X232822380Y-172758928D01*
X232974761Y-172797023D01*
X233279523Y-172797023D01*
X233355714Y-172758928D01*
X233393809Y-172720833D01*
X233431904Y-172644642D01*
X233431904Y-172492261D01*
X233393809Y-172416071D01*
X233355714Y-172377976D01*
X233279523Y-172339880D01*
X233089047Y-172339880D01*
X233012857Y-172377976D01*
X232974761Y-172416071D01*
X232936666Y-172492261D01*
X232936666Y-172644642D01*
X232974761Y-172720833D01*
X233012857Y-172758928D01*
X233089047Y-172797023D01*
X232974761Y-171882738D02*
X232936666Y-171958928D01*
X232898571Y-171997023D01*
X232822380Y-172035119D01*
X232784285Y-172035119D01*
X232708095Y-171997023D01*
X232670000Y-171958928D01*
X232631904Y-171882738D01*
X232631904Y-171730357D01*
X232670000Y-171654166D01*
X232708095Y-171616071D01*
X232784285Y-171577976D01*
X232822380Y-171577976D01*
X232898571Y-171616071D01*
X232936666Y-171654166D01*
X232974761Y-171730357D01*
X232974761Y-171882738D01*
X233012857Y-171958928D01*
X233050952Y-171997023D01*
X233127142Y-172035119D01*
X233279523Y-172035119D01*
X233355714Y-171997023D01*
X233393809Y-171958928D01*
X233431904Y-171882738D01*
X233431904Y-171730357D01*
X233393809Y-171654166D01*
X233355714Y-171616071D01*
X233279523Y-171577976D01*
X233127142Y-171577976D01*
X233050952Y-171616071D01*
X233012857Y-171654166D01*
X232974761Y-171730357D01*
X233431904Y-171235119D02*
X232631904Y-171235119D01*
X233431904Y-170777976D02*
X232974761Y-171120833D01*
X232631904Y-170777976D02*
X233089047Y-171235119D01*
X234861904Y-172301785D02*
X234480952Y-172568452D01*
X234861904Y-172758928D02*
X234061904Y-172758928D01*
X234061904Y-172454166D01*
X234100000Y-172377976D01*
X234138095Y-172339880D01*
X234214285Y-172301785D01*
X234328571Y-172301785D01*
X234404761Y-172339880D01*
X234442857Y-172377976D01*
X234480952Y-172454166D01*
X234480952Y-172758928D01*
X234861904Y-171539880D02*
X234861904Y-171997023D01*
X234861904Y-171768452D02*
X234061904Y-171768452D01*
X234176190Y-171844642D01*
X234252380Y-171920833D01*
X234290476Y-171997023D01*
X234138095Y-171235119D02*
X234100000Y-171197023D01*
X234061904Y-171120833D01*
X234061904Y-170930357D01*
X234100000Y-170854166D01*
X234138095Y-170816071D01*
X234214285Y-170777976D01*
X234290476Y-170777976D01*
X234404761Y-170816071D01*
X234861904Y-171273214D01*
X234861904Y-170777976D01*
X216066666Y-196041904D02*
X215609523Y-196041904D01*
X215838095Y-196041904D02*
X215838095Y-195241904D01*
X215761904Y-195356190D01*
X215685714Y-195432380D01*
X215609523Y-195470476D01*
X216561904Y-195241904D02*
X216638095Y-195241904D01*
X216714285Y-195280000D01*
X216752380Y-195318095D01*
X216790476Y-195394285D01*
X216828571Y-195546666D01*
X216828571Y-195737142D01*
X216790476Y-195889523D01*
X216752380Y-195965714D01*
X216714285Y-196003809D01*
X216638095Y-196041904D01*
X216561904Y-196041904D01*
X216485714Y-196003809D01*
X216447619Y-195965714D01*
X216409523Y-195889523D01*
X216371428Y-195737142D01*
X216371428Y-195546666D01*
X216409523Y-195394285D01*
X216447619Y-195318095D01*
X216485714Y-195280000D01*
X216561904Y-195241904D01*
X217323809Y-195241904D02*
X217400000Y-195241904D01*
X217476190Y-195280000D01*
X217514285Y-195318095D01*
X217552380Y-195394285D01*
X217590476Y-195546666D01*
X217590476Y-195737142D01*
X217552380Y-195889523D01*
X217514285Y-195965714D01*
X217476190Y-196003809D01*
X217400000Y-196041904D01*
X217323809Y-196041904D01*
X217247619Y-196003809D01*
X217209523Y-195965714D01*
X217171428Y-195889523D01*
X217133333Y-195737142D01*
X217133333Y-195546666D01*
X217171428Y-195394285D01*
X217209523Y-195318095D01*
X217247619Y-195280000D01*
X217323809Y-195241904D01*
X217933333Y-196041904D02*
X217933333Y-195241904D01*
X218390476Y-196041904D02*
X218047619Y-195584761D01*
X218390476Y-195241904D02*
X217933333Y-195699047D01*
X216485714Y-194611904D02*
X216219047Y-194230952D01*
X216028571Y-194611904D02*
X216028571Y-193811904D01*
X216333333Y-193811904D01*
X216409523Y-193850000D01*
X216447619Y-193888095D01*
X216485714Y-193964285D01*
X216485714Y-194078571D01*
X216447619Y-194154761D01*
X216409523Y-194192857D01*
X216333333Y-194230952D01*
X216028571Y-194230952D01*
X217247619Y-194611904D02*
X216790476Y-194611904D01*
X217019047Y-194611904D02*
X217019047Y-193811904D01*
X216942857Y-193926190D01*
X216866666Y-194002380D01*
X216790476Y-194040476D01*
X217514285Y-193811904D02*
X218009523Y-193811904D01*
X217742857Y-194116666D01*
X217857142Y-194116666D01*
X217933333Y-194154761D01*
X217971428Y-194192857D01*
X218009523Y-194269047D01*
X218009523Y-194459523D01*
X217971428Y-194535714D01*
X217933333Y-194573809D01*
X217857142Y-194611904D01*
X217628571Y-194611904D01*
X217552380Y-194573809D01*
X217514285Y-194535714D01*
X234291904Y-176766071D02*
X234291904Y-177223214D01*
X234291904Y-176994642D02*
X233491904Y-176994642D01*
X233606190Y-177070833D01*
X233682380Y-177147023D01*
X233720476Y-177223214D01*
X234291904Y-176423214D02*
X233491904Y-176423214D01*
X234063333Y-176156547D01*
X233491904Y-175889880D01*
X234291904Y-175889880D01*
X232861904Y-177051785D02*
X232480952Y-177318452D01*
X232861904Y-177508928D02*
X232061904Y-177508928D01*
X232061904Y-177204166D01*
X232100000Y-177127976D01*
X232138095Y-177089880D01*
X232214285Y-177051785D01*
X232328571Y-177051785D01*
X232404761Y-177089880D01*
X232442857Y-177127976D01*
X232480952Y-177204166D01*
X232480952Y-177508928D01*
X232861904Y-176289880D02*
X232861904Y-176747023D01*
X232861904Y-176518452D02*
X232061904Y-176518452D01*
X232176190Y-176594642D01*
X232252380Y-176670833D01*
X232290476Y-176747023D01*
X232328571Y-175604166D02*
X232861904Y-175604166D01*
X232023809Y-175794642D02*
X232595238Y-175985119D01*
X232595238Y-175489880D01*
X260393452Y-163008571D02*
X260393452Y-163541904D01*
X260202976Y-162703809D02*
X260012500Y-163275238D01*
X260507738Y-163275238D01*
X260812500Y-163465714D02*
X260850595Y-163503809D01*
X260812500Y-163541904D01*
X260774404Y-163503809D01*
X260812500Y-163465714D01*
X260812500Y-163541904D01*
X261117261Y-162741904D02*
X261650595Y-162741904D01*
X261307738Y-163541904D01*
X261955357Y-163541904D02*
X261955357Y-162741904D01*
X262412500Y-163541904D02*
X262069642Y-163084761D01*
X262412500Y-162741904D02*
X261955357Y-163199047D01*
X260698214Y-162111904D02*
X260431547Y-161730952D01*
X260241071Y-162111904D02*
X260241071Y-161311904D01*
X260545833Y-161311904D01*
X260622023Y-161350000D01*
X260660119Y-161388095D01*
X260698214Y-161464285D01*
X260698214Y-161578571D01*
X260660119Y-161654761D01*
X260622023Y-161692857D01*
X260545833Y-161730952D01*
X260241071Y-161730952D01*
X261460119Y-162111904D02*
X261002976Y-162111904D01*
X261231547Y-162111904D02*
X261231547Y-161311904D01*
X261155357Y-161426190D01*
X261079166Y-161502380D01*
X261002976Y-161540476D01*
X262183928Y-161311904D02*
X261802976Y-161311904D01*
X261764880Y-161692857D01*
X261802976Y-161654761D01*
X261879166Y-161616666D01*
X262069642Y-161616666D01*
X262145833Y-161654761D01*
X262183928Y-161692857D01*
X262222023Y-161769047D01*
X262222023Y-161959523D01*
X262183928Y-162035714D01*
X262145833Y-162073809D01*
X262069642Y-162111904D01*
X261879166Y-162111904D01*
X261802976Y-162073809D01*
X261764880Y-162035714D01*
X264218452Y-160148571D02*
X264218452Y-160681904D01*
X264027976Y-159843809D02*
X263837500Y-160415238D01*
X264332738Y-160415238D01*
X264637500Y-160605714D02*
X264675595Y-160643809D01*
X264637500Y-160681904D01*
X264599404Y-160643809D01*
X264637500Y-160605714D01*
X264637500Y-160681904D01*
X264942261Y-159881904D02*
X265475595Y-159881904D01*
X265132738Y-160681904D01*
X265780357Y-160681904D02*
X265780357Y-159881904D01*
X266237500Y-160681904D02*
X265894642Y-160224761D01*
X266237500Y-159881904D02*
X265780357Y-160339047D01*
X264523214Y-162111904D02*
X264256547Y-161730952D01*
X264066071Y-162111904D02*
X264066071Y-161311904D01*
X264370833Y-161311904D01*
X264447023Y-161350000D01*
X264485119Y-161388095D01*
X264523214Y-161464285D01*
X264523214Y-161578571D01*
X264485119Y-161654761D01*
X264447023Y-161692857D01*
X264370833Y-161730952D01*
X264066071Y-161730952D01*
X265285119Y-162111904D02*
X264827976Y-162111904D01*
X265056547Y-162111904D02*
X265056547Y-161311904D01*
X264980357Y-161426190D01*
X264904166Y-161502380D01*
X264827976Y-161540476D01*
X265970833Y-161311904D02*
X265818452Y-161311904D01*
X265742261Y-161350000D01*
X265704166Y-161388095D01*
X265627976Y-161502380D01*
X265589880Y-161654761D01*
X265589880Y-161959523D01*
X265627976Y-162035714D01*
X265666071Y-162073809D01*
X265742261Y-162111904D01*
X265894642Y-162111904D01*
X265970833Y-162073809D01*
X266008928Y-162035714D01*
X266047023Y-161959523D01*
X266047023Y-161769047D01*
X266008928Y-161692857D01*
X265970833Y-161654761D01*
X265894642Y-161616666D01*
X265742261Y-161616666D01*
X265666071Y-161654761D01*
X265627976Y-161692857D01*
X265589880Y-161769047D01*
X234735119Y-175431904D02*
X234277976Y-175431904D01*
X234506547Y-175431904D02*
X234506547Y-174631904D01*
X234430357Y-174746190D01*
X234354166Y-174822380D01*
X234277976Y-174860476D01*
X235230357Y-174631904D02*
X235306547Y-174631904D01*
X235382738Y-174670000D01*
X235420833Y-174708095D01*
X235458928Y-174784285D01*
X235497023Y-174936666D01*
X235497023Y-175127142D01*
X235458928Y-175279523D01*
X235420833Y-175355714D01*
X235382738Y-175393809D01*
X235306547Y-175431904D01*
X235230357Y-175431904D01*
X235154166Y-175393809D01*
X235116071Y-175355714D01*
X235077976Y-175279523D01*
X235039880Y-175127142D01*
X235039880Y-174936666D01*
X235077976Y-174784285D01*
X235116071Y-174708095D01*
X235154166Y-174670000D01*
X235230357Y-174631904D01*
X235839880Y-175431904D02*
X235839880Y-174631904D01*
X236297023Y-175431904D02*
X235954166Y-174974761D01*
X236297023Y-174631904D02*
X235839880Y-175089047D01*
X234773214Y-176861904D02*
X234506547Y-176480952D01*
X234316071Y-176861904D02*
X234316071Y-176061904D01*
X234620833Y-176061904D01*
X234697023Y-176100000D01*
X234735119Y-176138095D01*
X234773214Y-176214285D01*
X234773214Y-176328571D01*
X234735119Y-176404761D01*
X234697023Y-176442857D01*
X234620833Y-176480952D01*
X234316071Y-176480952D01*
X235535119Y-176861904D02*
X235077976Y-176861904D01*
X235306547Y-176861904D02*
X235306547Y-176061904D01*
X235230357Y-176176190D01*
X235154166Y-176252380D01*
X235077976Y-176290476D01*
X235801785Y-176061904D02*
X236335119Y-176061904D01*
X235992261Y-176861904D01*
X234735119Y-180291904D02*
X234277976Y-180291904D01*
X234506547Y-180291904D02*
X234506547Y-179491904D01*
X234430357Y-179606190D01*
X234354166Y-179682380D01*
X234277976Y-179720476D01*
X235230357Y-179491904D02*
X235306547Y-179491904D01*
X235382738Y-179530000D01*
X235420833Y-179568095D01*
X235458928Y-179644285D01*
X235497023Y-179796666D01*
X235497023Y-179987142D01*
X235458928Y-180139523D01*
X235420833Y-180215714D01*
X235382738Y-180253809D01*
X235306547Y-180291904D01*
X235230357Y-180291904D01*
X235154166Y-180253809D01*
X235116071Y-180215714D01*
X235077976Y-180139523D01*
X235039880Y-179987142D01*
X235039880Y-179796666D01*
X235077976Y-179644285D01*
X235116071Y-179568095D01*
X235154166Y-179530000D01*
X235230357Y-179491904D01*
X235839880Y-180291904D02*
X235839880Y-179491904D01*
X236297023Y-180291904D02*
X235954166Y-179834761D01*
X236297023Y-179491904D02*
X235839880Y-179949047D01*
X234773214Y-178861904D02*
X234506547Y-178480952D01*
X234316071Y-178861904D02*
X234316071Y-178061904D01*
X234620833Y-178061904D01*
X234697023Y-178100000D01*
X234735119Y-178138095D01*
X234773214Y-178214285D01*
X234773214Y-178328571D01*
X234735119Y-178404761D01*
X234697023Y-178442857D01*
X234620833Y-178480952D01*
X234316071Y-178480952D01*
X235535119Y-178861904D02*
X235077976Y-178861904D01*
X235306547Y-178861904D02*
X235306547Y-178061904D01*
X235230357Y-178176190D01*
X235154166Y-178252380D01*
X235077976Y-178290476D01*
X235992261Y-178404761D02*
X235916071Y-178366666D01*
X235877976Y-178328571D01*
X235839880Y-178252380D01*
X235839880Y-178214285D01*
X235877976Y-178138095D01*
X235916071Y-178100000D01*
X235992261Y-178061904D01*
X236144642Y-178061904D01*
X236220833Y-178100000D01*
X236258928Y-178138095D01*
X236297023Y-178214285D01*
X236297023Y-178252380D01*
X236258928Y-178328571D01*
X236220833Y-178366666D01*
X236144642Y-178404761D01*
X235992261Y-178404761D01*
X235916071Y-178442857D01*
X235877976Y-178480952D01*
X235839880Y-178557142D01*
X235839880Y-178709523D01*
X235877976Y-178785714D01*
X235916071Y-178823809D01*
X235992261Y-178861904D01*
X236144642Y-178861904D01*
X236220833Y-178823809D01*
X236258928Y-178785714D01*
X236297023Y-178709523D01*
X236297023Y-178557142D01*
X236258928Y-178480952D01*
X236220833Y-178442857D01*
X236144642Y-178404761D01*
X236271428Y-164291904D02*
X235814285Y-164291904D01*
X236042857Y-164291904D02*
X236042857Y-163491904D01*
X235966666Y-163606190D01*
X235890476Y-163682380D01*
X235814285Y-163720476D01*
X236614285Y-164291904D02*
X236614285Y-163491904D01*
X236880952Y-164063333D01*
X237147619Y-163491904D01*
X237147619Y-164291904D01*
X235985714Y-162861904D02*
X235719047Y-162480952D01*
X235528571Y-162861904D02*
X235528571Y-162061904D01*
X235833333Y-162061904D01*
X235909523Y-162100000D01*
X235947619Y-162138095D01*
X235985714Y-162214285D01*
X235985714Y-162328571D01*
X235947619Y-162404761D01*
X235909523Y-162442857D01*
X235833333Y-162480952D01*
X235528571Y-162480952D01*
X236747619Y-162861904D02*
X236290476Y-162861904D01*
X236519047Y-162861904D02*
X236519047Y-162061904D01*
X236442857Y-162176190D01*
X236366666Y-162252380D01*
X236290476Y-162290476D01*
X237128571Y-162861904D02*
X237280952Y-162861904D01*
X237357142Y-162823809D01*
X237395238Y-162785714D01*
X237471428Y-162671428D01*
X237509523Y-162519047D01*
X237509523Y-162214285D01*
X237471428Y-162138095D01*
X237433333Y-162100000D01*
X237357142Y-162061904D01*
X237204761Y-162061904D01*
X237128571Y-162100000D01*
X237090476Y-162138095D01*
X237052380Y-162214285D01*
X237052380Y-162404761D01*
X237090476Y-162480952D01*
X237128571Y-162519047D01*
X237204761Y-162557142D01*
X237357142Y-162557142D01*
X237433333Y-162519047D01*
X237471428Y-162480952D01*
X237509523Y-162404761D01*
X236741904Y-160378571D02*
X236741904Y-160530952D01*
X236780000Y-160607142D01*
X236818095Y-160645238D01*
X236932380Y-160721428D01*
X237084761Y-160759523D01*
X237389523Y-160759523D01*
X237465714Y-160721428D01*
X237503809Y-160683333D01*
X237541904Y-160607142D01*
X237541904Y-160454761D01*
X237503809Y-160378571D01*
X237465714Y-160340476D01*
X237389523Y-160302380D01*
X237199047Y-160302380D01*
X237122857Y-160340476D01*
X237084761Y-160378571D01*
X237046666Y-160454761D01*
X237046666Y-160607142D01*
X237084761Y-160683333D01*
X237122857Y-160721428D01*
X237199047Y-160759523D01*
X237084761Y-159845238D02*
X237046666Y-159921428D01*
X237008571Y-159959523D01*
X236932380Y-159997619D01*
X236894285Y-159997619D01*
X236818095Y-159959523D01*
X236780000Y-159921428D01*
X236741904Y-159845238D01*
X236741904Y-159692857D01*
X236780000Y-159616666D01*
X236818095Y-159578571D01*
X236894285Y-159540476D01*
X236932380Y-159540476D01*
X237008571Y-159578571D01*
X237046666Y-159616666D01*
X237084761Y-159692857D01*
X237084761Y-159845238D01*
X237122857Y-159921428D01*
X237160952Y-159959523D01*
X237237142Y-159997619D01*
X237389523Y-159997619D01*
X237465714Y-159959523D01*
X237503809Y-159921428D01*
X237541904Y-159845238D01*
X237541904Y-159692857D01*
X237503809Y-159616666D01*
X237465714Y-159578571D01*
X237389523Y-159540476D01*
X237237142Y-159540476D01*
X237160952Y-159578571D01*
X237122857Y-159616666D01*
X237084761Y-159692857D01*
X237541904Y-159197619D02*
X236741904Y-159197619D01*
X237541904Y-158740476D02*
X237084761Y-159083333D01*
X236741904Y-158740476D02*
X237199047Y-159197619D01*
X236111904Y-160264285D02*
X235730952Y-160530952D01*
X236111904Y-160721428D02*
X235311904Y-160721428D01*
X235311904Y-160416666D01*
X235350000Y-160340476D01*
X235388095Y-160302380D01*
X235464285Y-160264285D01*
X235578571Y-160264285D01*
X235654761Y-160302380D01*
X235692857Y-160340476D01*
X235730952Y-160416666D01*
X235730952Y-160721428D01*
X235388095Y-159959523D02*
X235350000Y-159921428D01*
X235311904Y-159845238D01*
X235311904Y-159654761D01*
X235350000Y-159578571D01*
X235388095Y-159540476D01*
X235464285Y-159502380D01*
X235540476Y-159502380D01*
X235654761Y-159540476D01*
X236111904Y-159997619D01*
X236111904Y-159502380D01*
X235311904Y-159007142D02*
X235311904Y-158930952D01*
X235350000Y-158854761D01*
X235388095Y-158816666D01*
X235464285Y-158778571D01*
X235616666Y-158740476D01*
X235807142Y-158740476D01*
X235959523Y-158778571D01*
X236035714Y-158816666D01*
X236073809Y-158854761D01*
X236111904Y-158930952D01*
X236111904Y-159007142D01*
X236073809Y-159083333D01*
X236035714Y-159121428D01*
X235959523Y-159159523D01*
X235807142Y-159197619D01*
X235616666Y-159197619D01*
X235464285Y-159159523D01*
X235388095Y-159121428D01*
X235350000Y-159083333D01*
X235311904Y-159007142D01*
X234741904Y-160378571D02*
X234741904Y-160530952D01*
X234780000Y-160607142D01*
X234818095Y-160645238D01*
X234932380Y-160721428D01*
X235084761Y-160759523D01*
X235389523Y-160759523D01*
X235465714Y-160721428D01*
X235503809Y-160683333D01*
X235541904Y-160607142D01*
X235541904Y-160454761D01*
X235503809Y-160378571D01*
X235465714Y-160340476D01*
X235389523Y-160302380D01*
X235199047Y-160302380D01*
X235122857Y-160340476D01*
X235084761Y-160378571D01*
X235046666Y-160454761D01*
X235046666Y-160607142D01*
X235084761Y-160683333D01*
X235122857Y-160721428D01*
X235199047Y-160759523D01*
X235084761Y-159845238D02*
X235046666Y-159921428D01*
X235008571Y-159959523D01*
X234932380Y-159997619D01*
X234894285Y-159997619D01*
X234818095Y-159959523D01*
X234780000Y-159921428D01*
X234741904Y-159845238D01*
X234741904Y-159692857D01*
X234780000Y-159616666D01*
X234818095Y-159578571D01*
X234894285Y-159540476D01*
X234932380Y-159540476D01*
X235008571Y-159578571D01*
X235046666Y-159616666D01*
X235084761Y-159692857D01*
X235084761Y-159845238D01*
X235122857Y-159921428D01*
X235160952Y-159959523D01*
X235237142Y-159997619D01*
X235389523Y-159997619D01*
X235465714Y-159959523D01*
X235503809Y-159921428D01*
X235541904Y-159845238D01*
X235541904Y-159692857D01*
X235503809Y-159616666D01*
X235465714Y-159578571D01*
X235389523Y-159540476D01*
X235237142Y-159540476D01*
X235160952Y-159578571D01*
X235122857Y-159616666D01*
X235084761Y-159692857D01*
X235541904Y-159197619D02*
X234741904Y-159197619D01*
X235541904Y-158740476D02*
X235084761Y-159083333D01*
X234741904Y-158740476D02*
X235199047Y-159197619D01*
X234111904Y-160264285D02*
X233730952Y-160530952D01*
X234111904Y-160721428D02*
X233311904Y-160721428D01*
X233311904Y-160416666D01*
X233350000Y-160340476D01*
X233388095Y-160302380D01*
X233464285Y-160264285D01*
X233578571Y-160264285D01*
X233654761Y-160302380D01*
X233692857Y-160340476D01*
X233730952Y-160416666D01*
X233730952Y-160721428D01*
X233388095Y-159959523D02*
X233350000Y-159921428D01*
X233311904Y-159845238D01*
X233311904Y-159654761D01*
X233350000Y-159578571D01*
X233388095Y-159540476D01*
X233464285Y-159502380D01*
X233540476Y-159502380D01*
X233654761Y-159540476D01*
X234111904Y-159997619D01*
X234111904Y-159502380D01*
X234111904Y-158740476D02*
X234111904Y-159197619D01*
X234111904Y-158969047D02*
X233311904Y-158969047D01*
X233426190Y-159045238D01*
X233502380Y-159121428D01*
X233540476Y-159197619D01*
X232681904Y-154478571D02*
X232681904Y-154935714D01*
X232681904Y-154707142D02*
X231881904Y-154707142D01*
X231996190Y-154783333D01*
X232072380Y-154859523D01*
X232110476Y-154935714D01*
X232681904Y-154135714D02*
X231881904Y-154135714D01*
X232453333Y-153869047D01*
X231881904Y-153602380D01*
X232681904Y-153602380D01*
X234111904Y-154764285D02*
X233730952Y-155030952D01*
X234111904Y-155221428D02*
X233311904Y-155221428D01*
X233311904Y-154916666D01*
X233350000Y-154840476D01*
X233388095Y-154802380D01*
X233464285Y-154764285D01*
X233578571Y-154764285D01*
X233654761Y-154802380D01*
X233692857Y-154840476D01*
X233730952Y-154916666D01*
X233730952Y-155221428D01*
X233388095Y-154459523D02*
X233350000Y-154421428D01*
X233311904Y-154345238D01*
X233311904Y-154154761D01*
X233350000Y-154078571D01*
X233388095Y-154040476D01*
X233464285Y-154002380D01*
X233540476Y-154002380D01*
X233654761Y-154040476D01*
X234111904Y-154497619D01*
X234111904Y-154002380D01*
X233388095Y-153697619D02*
X233350000Y-153659523D01*
X233311904Y-153583333D01*
X233311904Y-153392857D01*
X233350000Y-153316666D01*
X233388095Y-153278571D01*
X233464285Y-153240476D01*
X233540476Y-153240476D01*
X233654761Y-153278571D01*
X234111904Y-153735714D01*
X234111904Y-153240476D01*
X235985119Y-153931904D02*
X235527976Y-153931904D01*
X235756547Y-153931904D02*
X235756547Y-153131904D01*
X235680357Y-153246190D01*
X235604166Y-153322380D01*
X235527976Y-153360476D01*
X236480357Y-153131904D02*
X236556547Y-153131904D01*
X236632738Y-153170000D01*
X236670833Y-153208095D01*
X236708928Y-153284285D01*
X236747023Y-153436666D01*
X236747023Y-153627142D01*
X236708928Y-153779523D01*
X236670833Y-153855714D01*
X236632738Y-153893809D01*
X236556547Y-153931904D01*
X236480357Y-153931904D01*
X236404166Y-153893809D01*
X236366071Y-153855714D01*
X236327976Y-153779523D01*
X236289880Y-153627142D01*
X236289880Y-153436666D01*
X236327976Y-153284285D01*
X236366071Y-153208095D01*
X236404166Y-153170000D01*
X236480357Y-153131904D01*
X237089880Y-153931904D02*
X237089880Y-153131904D01*
X237547023Y-153931904D02*
X237204166Y-153474761D01*
X237547023Y-153131904D02*
X237089880Y-153589047D01*
X236023214Y-155361904D02*
X235756547Y-154980952D01*
X235566071Y-155361904D02*
X235566071Y-154561904D01*
X235870833Y-154561904D01*
X235947023Y-154600000D01*
X235985119Y-154638095D01*
X236023214Y-154714285D01*
X236023214Y-154828571D01*
X235985119Y-154904761D01*
X235947023Y-154942857D01*
X235870833Y-154980952D01*
X235566071Y-154980952D01*
X236327976Y-154638095D02*
X236366071Y-154600000D01*
X236442261Y-154561904D01*
X236632738Y-154561904D01*
X236708928Y-154600000D01*
X236747023Y-154638095D01*
X236785119Y-154714285D01*
X236785119Y-154790476D01*
X236747023Y-154904761D01*
X236289880Y-155361904D01*
X236785119Y-155361904D01*
X237051785Y-154561904D02*
X237547023Y-154561904D01*
X237280357Y-154866666D01*
X237394642Y-154866666D01*
X237470833Y-154904761D01*
X237508928Y-154942857D01*
X237547023Y-155019047D01*
X237547023Y-155209523D01*
X237508928Y-155285714D01*
X237470833Y-155323809D01*
X237394642Y-155361904D01*
X237166071Y-155361904D01*
X237089880Y-155323809D01*
X237051785Y-155285714D01*
X235985119Y-154791904D02*
X235527976Y-154791904D01*
X235756547Y-154791904D02*
X235756547Y-153991904D01*
X235680357Y-154106190D01*
X235604166Y-154182380D01*
X235527976Y-154220476D01*
X236480357Y-153991904D02*
X236556547Y-153991904D01*
X236632738Y-154030000D01*
X236670833Y-154068095D01*
X236708928Y-154144285D01*
X236747023Y-154296666D01*
X236747023Y-154487142D01*
X236708928Y-154639523D01*
X236670833Y-154715714D01*
X236632738Y-154753809D01*
X236556547Y-154791904D01*
X236480357Y-154791904D01*
X236404166Y-154753809D01*
X236366071Y-154715714D01*
X236327976Y-154639523D01*
X236289880Y-154487142D01*
X236289880Y-154296666D01*
X236327976Y-154144285D01*
X236366071Y-154068095D01*
X236404166Y-154030000D01*
X236480357Y-153991904D01*
X237089880Y-154791904D02*
X237089880Y-153991904D01*
X237547023Y-154791904D02*
X237204166Y-154334761D01*
X237547023Y-153991904D02*
X237089880Y-154449047D01*
X236023214Y-153361904D02*
X235756547Y-152980952D01*
X235566071Y-153361904D02*
X235566071Y-152561904D01*
X235870833Y-152561904D01*
X235947023Y-152600000D01*
X235985119Y-152638095D01*
X236023214Y-152714285D01*
X236023214Y-152828571D01*
X235985119Y-152904761D01*
X235947023Y-152942857D01*
X235870833Y-152980952D01*
X235566071Y-152980952D01*
X236327976Y-152638095D02*
X236366071Y-152600000D01*
X236442261Y-152561904D01*
X236632738Y-152561904D01*
X236708928Y-152600000D01*
X236747023Y-152638095D01*
X236785119Y-152714285D01*
X236785119Y-152790476D01*
X236747023Y-152904761D01*
X236289880Y-153361904D01*
X236785119Y-153361904D01*
X237470833Y-152828571D02*
X237470833Y-153361904D01*
X237280357Y-152523809D02*
X237089880Y-153095238D01*
X237585119Y-153095238D01*
X226771428Y-161431904D02*
X226314285Y-161431904D01*
X226542857Y-161431904D02*
X226542857Y-160631904D01*
X226466666Y-160746190D01*
X226390476Y-160822380D01*
X226314285Y-160860476D01*
X227114285Y-161431904D02*
X227114285Y-160631904D01*
X227380952Y-161203333D01*
X227647619Y-160631904D01*
X227647619Y-161431904D01*
X226485714Y-162861904D02*
X226219047Y-162480952D01*
X226028571Y-162861904D02*
X226028571Y-162061904D01*
X226333333Y-162061904D01*
X226409523Y-162100000D01*
X226447619Y-162138095D01*
X226485714Y-162214285D01*
X226485714Y-162328571D01*
X226447619Y-162404761D01*
X226409523Y-162442857D01*
X226333333Y-162480952D01*
X226028571Y-162480952D01*
X226790476Y-162138095D02*
X226828571Y-162100000D01*
X226904761Y-162061904D01*
X227095238Y-162061904D01*
X227171428Y-162100000D01*
X227209523Y-162138095D01*
X227247619Y-162214285D01*
X227247619Y-162290476D01*
X227209523Y-162404761D01*
X226752380Y-162861904D01*
X227247619Y-162861904D01*
X227971428Y-162061904D02*
X227590476Y-162061904D01*
X227552380Y-162442857D01*
X227590476Y-162404761D01*
X227666666Y-162366666D01*
X227857142Y-162366666D01*
X227933333Y-162404761D01*
X227971428Y-162442857D01*
X228009523Y-162519047D01*
X228009523Y-162709523D01*
X227971428Y-162785714D01*
X227933333Y-162823809D01*
X227857142Y-162861904D01*
X227666666Y-162861904D01*
X227590476Y-162823809D01*
X227552380Y-162785714D01*
X228741904Y-160378571D02*
X228741904Y-160530952D01*
X228780000Y-160607142D01*
X228818095Y-160645238D01*
X228932380Y-160721428D01*
X229084761Y-160759523D01*
X229389523Y-160759523D01*
X229465714Y-160721428D01*
X229503809Y-160683333D01*
X229541904Y-160607142D01*
X229541904Y-160454761D01*
X229503809Y-160378571D01*
X229465714Y-160340476D01*
X229389523Y-160302380D01*
X229199047Y-160302380D01*
X229122857Y-160340476D01*
X229084761Y-160378571D01*
X229046666Y-160454761D01*
X229046666Y-160607142D01*
X229084761Y-160683333D01*
X229122857Y-160721428D01*
X229199047Y-160759523D01*
X229084761Y-159845238D02*
X229046666Y-159921428D01*
X229008571Y-159959523D01*
X228932380Y-159997619D01*
X228894285Y-159997619D01*
X228818095Y-159959523D01*
X228780000Y-159921428D01*
X228741904Y-159845238D01*
X228741904Y-159692857D01*
X228780000Y-159616666D01*
X228818095Y-159578571D01*
X228894285Y-159540476D01*
X228932380Y-159540476D01*
X229008571Y-159578571D01*
X229046666Y-159616666D01*
X229084761Y-159692857D01*
X229084761Y-159845238D01*
X229122857Y-159921428D01*
X229160952Y-159959523D01*
X229237142Y-159997619D01*
X229389523Y-159997619D01*
X229465714Y-159959523D01*
X229503809Y-159921428D01*
X229541904Y-159845238D01*
X229541904Y-159692857D01*
X229503809Y-159616666D01*
X229465714Y-159578571D01*
X229389523Y-159540476D01*
X229237142Y-159540476D01*
X229160952Y-159578571D01*
X229122857Y-159616666D01*
X229084761Y-159692857D01*
X229541904Y-159197619D02*
X228741904Y-159197619D01*
X229541904Y-158740476D02*
X229084761Y-159083333D01*
X228741904Y-158740476D02*
X229199047Y-159197619D01*
X228111904Y-160264285D02*
X227730952Y-160530952D01*
X228111904Y-160721428D02*
X227311904Y-160721428D01*
X227311904Y-160416666D01*
X227350000Y-160340476D01*
X227388095Y-160302380D01*
X227464285Y-160264285D01*
X227578571Y-160264285D01*
X227654761Y-160302380D01*
X227692857Y-160340476D01*
X227730952Y-160416666D01*
X227730952Y-160721428D01*
X227388095Y-159959523D02*
X227350000Y-159921428D01*
X227311904Y-159845238D01*
X227311904Y-159654761D01*
X227350000Y-159578571D01*
X227388095Y-159540476D01*
X227464285Y-159502380D01*
X227540476Y-159502380D01*
X227654761Y-159540476D01*
X228111904Y-159997619D01*
X228111904Y-159502380D01*
X227311904Y-158816666D02*
X227311904Y-158969047D01*
X227350000Y-159045238D01*
X227388095Y-159083333D01*
X227502380Y-159159523D01*
X227654761Y-159197619D01*
X227959523Y-159197619D01*
X228035714Y-159159523D01*
X228073809Y-159121428D01*
X228111904Y-159045238D01*
X228111904Y-158892857D01*
X228073809Y-158816666D01*
X228035714Y-158778571D01*
X227959523Y-158740476D01*
X227769047Y-158740476D01*
X227692857Y-158778571D01*
X227654761Y-158816666D01*
X227616666Y-158892857D01*
X227616666Y-159045238D01*
X227654761Y-159121428D01*
X227692857Y-159159523D01*
X227769047Y-159197619D01*
X230741904Y-160378571D02*
X230741904Y-160530952D01*
X230780000Y-160607142D01*
X230818095Y-160645238D01*
X230932380Y-160721428D01*
X231084761Y-160759523D01*
X231389523Y-160759523D01*
X231465714Y-160721428D01*
X231503809Y-160683333D01*
X231541904Y-160607142D01*
X231541904Y-160454761D01*
X231503809Y-160378571D01*
X231465714Y-160340476D01*
X231389523Y-160302380D01*
X231199047Y-160302380D01*
X231122857Y-160340476D01*
X231084761Y-160378571D01*
X231046666Y-160454761D01*
X231046666Y-160607142D01*
X231084761Y-160683333D01*
X231122857Y-160721428D01*
X231199047Y-160759523D01*
X231084761Y-159845238D02*
X231046666Y-159921428D01*
X231008571Y-159959523D01*
X230932380Y-159997619D01*
X230894285Y-159997619D01*
X230818095Y-159959523D01*
X230780000Y-159921428D01*
X230741904Y-159845238D01*
X230741904Y-159692857D01*
X230780000Y-159616666D01*
X230818095Y-159578571D01*
X230894285Y-159540476D01*
X230932380Y-159540476D01*
X231008571Y-159578571D01*
X231046666Y-159616666D01*
X231084761Y-159692857D01*
X231084761Y-159845238D01*
X231122857Y-159921428D01*
X231160952Y-159959523D01*
X231237142Y-159997619D01*
X231389523Y-159997619D01*
X231465714Y-159959523D01*
X231503809Y-159921428D01*
X231541904Y-159845238D01*
X231541904Y-159692857D01*
X231503809Y-159616666D01*
X231465714Y-159578571D01*
X231389523Y-159540476D01*
X231237142Y-159540476D01*
X231160952Y-159578571D01*
X231122857Y-159616666D01*
X231084761Y-159692857D01*
X231541904Y-159197619D02*
X230741904Y-159197619D01*
X231541904Y-158740476D02*
X231084761Y-159083333D01*
X230741904Y-158740476D02*
X231199047Y-159197619D01*
X230111904Y-160264285D02*
X229730952Y-160530952D01*
X230111904Y-160721428D02*
X229311904Y-160721428D01*
X229311904Y-160416666D01*
X229350000Y-160340476D01*
X229388095Y-160302380D01*
X229464285Y-160264285D01*
X229578571Y-160264285D01*
X229654761Y-160302380D01*
X229692857Y-160340476D01*
X229730952Y-160416666D01*
X229730952Y-160721428D01*
X229388095Y-159959523D02*
X229350000Y-159921428D01*
X229311904Y-159845238D01*
X229311904Y-159654761D01*
X229350000Y-159578571D01*
X229388095Y-159540476D01*
X229464285Y-159502380D01*
X229540476Y-159502380D01*
X229654761Y-159540476D01*
X230111904Y-159997619D01*
X230111904Y-159502380D01*
X229311904Y-159235714D02*
X229311904Y-158702380D01*
X230111904Y-159045238D01*
X230681904Y-154478571D02*
X230681904Y-154935714D01*
X230681904Y-154707142D02*
X229881904Y-154707142D01*
X229996190Y-154783333D01*
X230072380Y-154859523D01*
X230110476Y-154935714D01*
X230681904Y-154135714D02*
X229881904Y-154135714D01*
X230453333Y-153869047D01*
X229881904Y-153602380D01*
X230681904Y-153602380D01*
X232111904Y-154764285D02*
X231730952Y-155030952D01*
X232111904Y-155221428D02*
X231311904Y-155221428D01*
X231311904Y-154916666D01*
X231350000Y-154840476D01*
X231388095Y-154802380D01*
X231464285Y-154764285D01*
X231578571Y-154764285D01*
X231654761Y-154802380D01*
X231692857Y-154840476D01*
X231730952Y-154916666D01*
X231730952Y-155221428D01*
X231388095Y-154459523D02*
X231350000Y-154421428D01*
X231311904Y-154345238D01*
X231311904Y-154154761D01*
X231350000Y-154078571D01*
X231388095Y-154040476D01*
X231464285Y-154002380D01*
X231540476Y-154002380D01*
X231654761Y-154040476D01*
X232111904Y-154497619D01*
X232111904Y-154002380D01*
X231654761Y-153545238D02*
X231616666Y-153621428D01*
X231578571Y-153659523D01*
X231502380Y-153697619D01*
X231464285Y-153697619D01*
X231388095Y-153659523D01*
X231350000Y-153621428D01*
X231311904Y-153545238D01*
X231311904Y-153392857D01*
X231350000Y-153316666D01*
X231388095Y-153278571D01*
X231464285Y-153240476D01*
X231502380Y-153240476D01*
X231578571Y-153278571D01*
X231616666Y-153316666D01*
X231654761Y-153392857D01*
X231654761Y-153545238D01*
X231692857Y-153621428D01*
X231730952Y-153659523D01*
X231807142Y-153697619D01*
X231959523Y-153697619D01*
X232035714Y-153659523D01*
X232073809Y-153621428D01*
X232111904Y-153545238D01*
X232111904Y-153392857D01*
X232073809Y-153316666D01*
X232035714Y-153278571D01*
X231959523Y-153240476D01*
X231807142Y-153240476D01*
X231730952Y-153278571D01*
X231692857Y-153316666D01*
X231654761Y-153392857D01*
X228410119Y-156791904D02*
X227952976Y-156791904D01*
X228181547Y-156791904D02*
X228181547Y-155991904D01*
X228105357Y-156106190D01*
X228029166Y-156182380D01*
X227952976Y-156220476D01*
X228905357Y-155991904D02*
X228981547Y-155991904D01*
X229057738Y-156030000D01*
X229095833Y-156068095D01*
X229133928Y-156144285D01*
X229172023Y-156296666D01*
X229172023Y-156487142D01*
X229133928Y-156639523D01*
X229095833Y-156715714D01*
X229057738Y-156753809D01*
X228981547Y-156791904D01*
X228905357Y-156791904D01*
X228829166Y-156753809D01*
X228791071Y-156715714D01*
X228752976Y-156639523D01*
X228714880Y-156487142D01*
X228714880Y-156296666D01*
X228752976Y-156144285D01*
X228791071Y-156068095D01*
X228829166Y-156030000D01*
X228905357Y-155991904D01*
X229514880Y-156791904D02*
X229514880Y-155991904D01*
X229972023Y-156791904D02*
X229629166Y-156334761D01*
X229972023Y-155991904D02*
X229514880Y-156449047D01*
X228448214Y-155361904D02*
X228181547Y-154980952D01*
X227991071Y-155361904D02*
X227991071Y-154561904D01*
X228295833Y-154561904D01*
X228372023Y-154600000D01*
X228410119Y-154638095D01*
X228448214Y-154714285D01*
X228448214Y-154828571D01*
X228410119Y-154904761D01*
X228372023Y-154942857D01*
X228295833Y-154980952D01*
X227991071Y-154980952D01*
X228752976Y-154638095D02*
X228791071Y-154600000D01*
X228867261Y-154561904D01*
X229057738Y-154561904D01*
X229133928Y-154600000D01*
X229172023Y-154638095D01*
X229210119Y-154714285D01*
X229210119Y-154790476D01*
X229172023Y-154904761D01*
X228714880Y-155361904D01*
X229210119Y-155361904D01*
X229591071Y-155361904D02*
X229743452Y-155361904D01*
X229819642Y-155323809D01*
X229857738Y-155285714D01*
X229933928Y-155171428D01*
X229972023Y-155019047D01*
X229972023Y-154714285D01*
X229933928Y-154638095D01*
X229895833Y-154600000D01*
X229819642Y-154561904D01*
X229667261Y-154561904D01*
X229591071Y-154600000D01*
X229552976Y-154638095D01*
X229514880Y-154714285D01*
X229514880Y-154904761D01*
X229552976Y-154980952D01*
X229591071Y-155019047D01*
X229667261Y-155057142D01*
X229819642Y-155057142D01*
X229895833Y-155019047D01*
X229933928Y-154980952D01*
X229972023Y-154904761D01*
X228410119Y-151931904D02*
X227952976Y-151931904D01*
X228181547Y-151931904D02*
X228181547Y-151131904D01*
X228105357Y-151246190D01*
X228029166Y-151322380D01*
X227952976Y-151360476D01*
X228905357Y-151131904D02*
X228981547Y-151131904D01*
X229057738Y-151170000D01*
X229095833Y-151208095D01*
X229133928Y-151284285D01*
X229172023Y-151436666D01*
X229172023Y-151627142D01*
X229133928Y-151779523D01*
X229095833Y-151855714D01*
X229057738Y-151893809D01*
X228981547Y-151931904D01*
X228905357Y-151931904D01*
X228829166Y-151893809D01*
X228791071Y-151855714D01*
X228752976Y-151779523D01*
X228714880Y-151627142D01*
X228714880Y-151436666D01*
X228752976Y-151284285D01*
X228791071Y-151208095D01*
X228829166Y-151170000D01*
X228905357Y-151131904D01*
X229514880Y-151931904D02*
X229514880Y-151131904D01*
X229972023Y-151931904D02*
X229629166Y-151474761D01*
X229972023Y-151131904D02*
X229514880Y-151589047D01*
X228448214Y-153361904D02*
X228181547Y-152980952D01*
X227991071Y-153361904D02*
X227991071Y-152561904D01*
X228295833Y-152561904D01*
X228372023Y-152600000D01*
X228410119Y-152638095D01*
X228448214Y-152714285D01*
X228448214Y-152828571D01*
X228410119Y-152904761D01*
X228372023Y-152942857D01*
X228295833Y-152980952D01*
X227991071Y-152980952D01*
X228714880Y-152561904D02*
X229210119Y-152561904D01*
X228943452Y-152866666D01*
X229057738Y-152866666D01*
X229133928Y-152904761D01*
X229172023Y-152942857D01*
X229210119Y-153019047D01*
X229210119Y-153209523D01*
X229172023Y-153285714D01*
X229133928Y-153323809D01*
X229057738Y-153361904D01*
X228829166Y-153361904D01*
X228752976Y-153323809D01*
X228714880Y-153285714D01*
X229705357Y-152561904D02*
X229781547Y-152561904D01*
X229857738Y-152600000D01*
X229895833Y-152638095D01*
X229933928Y-152714285D01*
X229972023Y-152866666D01*
X229972023Y-153057142D01*
X229933928Y-153209523D01*
X229895833Y-153285714D01*
X229857738Y-153323809D01*
X229781547Y-153361904D01*
X229705357Y-153361904D01*
X229629166Y-153323809D01*
X229591071Y-153285714D01*
X229552976Y-153209523D01*
X229514880Y-153057142D01*
X229514880Y-152866666D01*
X229552976Y-152714285D01*
X229591071Y-152638095D01*
X229629166Y-152600000D01*
X229705357Y-152561904D01*
X249791904Y-197171428D02*
X249791904Y-197628571D01*
X249791904Y-197400000D02*
X248991904Y-197400000D01*
X249106190Y-197476190D01*
X249182380Y-197552380D01*
X249220476Y-197628571D01*
X249791904Y-196828571D02*
X248991904Y-196828571D01*
X249791904Y-196371428D02*
X249334761Y-196714285D01*
X248991904Y-196371428D02*
X249449047Y-196828571D01*
X248361904Y-197514285D02*
X247980952Y-197780952D01*
X248361904Y-197971428D02*
X247561904Y-197971428D01*
X247561904Y-197666666D01*
X247600000Y-197590476D01*
X247638095Y-197552380D01*
X247714285Y-197514285D01*
X247828571Y-197514285D01*
X247904761Y-197552380D01*
X247942857Y-197590476D01*
X247980952Y-197666666D01*
X247980952Y-197971428D01*
X247561904Y-197247619D02*
X247561904Y-196752380D01*
X247866666Y-197019047D01*
X247866666Y-196904761D01*
X247904761Y-196828571D01*
X247942857Y-196790476D01*
X248019047Y-196752380D01*
X248209523Y-196752380D01*
X248285714Y-196790476D01*
X248323809Y-196828571D01*
X248361904Y-196904761D01*
X248361904Y-197133333D01*
X248323809Y-197209523D01*
X248285714Y-197247619D01*
X248361904Y-195990476D02*
X248361904Y-196447619D01*
X248361904Y-196219047D02*
X247561904Y-196219047D01*
X247676190Y-196295238D01*
X247752380Y-196371428D01*
X247790476Y-196447619D01*
X249791904Y-208171428D02*
X249791904Y-208628571D01*
X249791904Y-208400000D02*
X248991904Y-208400000D01*
X249106190Y-208476190D01*
X249182380Y-208552380D01*
X249220476Y-208628571D01*
X249791904Y-207828571D02*
X248991904Y-207828571D01*
X249791904Y-207371428D02*
X249334761Y-207714285D01*
X248991904Y-207371428D02*
X249449047Y-207828571D01*
X248361904Y-208514285D02*
X247980952Y-208780952D01*
X248361904Y-208971428D02*
X247561904Y-208971428D01*
X247561904Y-208666666D01*
X247600000Y-208590476D01*
X247638095Y-208552380D01*
X247714285Y-208514285D01*
X247828571Y-208514285D01*
X247904761Y-208552380D01*
X247942857Y-208590476D01*
X247980952Y-208666666D01*
X247980952Y-208971428D01*
X247561904Y-208247619D02*
X247561904Y-207752380D01*
X247866666Y-208019047D01*
X247866666Y-207904761D01*
X247904761Y-207828571D01*
X247942857Y-207790476D01*
X248019047Y-207752380D01*
X248209523Y-207752380D01*
X248285714Y-207790476D01*
X248323809Y-207828571D01*
X248361904Y-207904761D01*
X248361904Y-208133333D01*
X248323809Y-208209523D01*
X248285714Y-208247619D01*
X247638095Y-207447619D02*
X247600000Y-207409523D01*
X247561904Y-207333333D01*
X247561904Y-207142857D01*
X247600000Y-207066666D01*
X247638095Y-207028571D01*
X247714285Y-206990476D01*
X247790476Y-206990476D01*
X247904761Y-207028571D01*
X248361904Y-207485714D01*
X248361904Y-206990476D01*
X264791904Y-206171428D02*
X264791904Y-206628571D01*
X264791904Y-206400000D02*
X263991904Y-206400000D01*
X264106190Y-206476190D01*
X264182380Y-206552380D01*
X264220476Y-206628571D01*
X264791904Y-205828571D02*
X263991904Y-205828571D01*
X264791904Y-205371428D02*
X264334761Y-205714285D01*
X263991904Y-205371428D02*
X264449047Y-205828571D01*
X263361904Y-206514285D02*
X262980952Y-206780952D01*
X263361904Y-206971428D02*
X262561904Y-206971428D01*
X262561904Y-206666666D01*
X262600000Y-206590476D01*
X262638095Y-206552380D01*
X262714285Y-206514285D01*
X262828571Y-206514285D01*
X262904761Y-206552380D01*
X262942857Y-206590476D01*
X262980952Y-206666666D01*
X262980952Y-206971428D01*
X262561904Y-206247619D02*
X262561904Y-205752380D01*
X262866666Y-206019047D01*
X262866666Y-205904761D01*
X262904761Y-205828571D01*
X262942857Y-205790476D01*
X263019047Y-205752380D01*
X263209523Y-205752380D01*
X263285714Y-205790476D01*
X263323809Y-205828571D01*
X263361904Y-205904761D01*
X263361904Y-206133333D01*
X263323809Y-206209523D01*
X263285714Y-206247619D01*
X262561904Y-205485714D02*
X262561904Y-204990476D01*
X262866666Y-205257142D01*
X262866666Y-205142857D01*
X262904761Y-205066666D01*
X262942857Y-205028571D01*
X263019047Y-204990476D01*
X263209523Y-204990476D01*
X263285714Y-205028571D01*
X263323809Y-205066666D01*
X263361904Y-205142857D01*
X263361904Y-205371428D01*
X263323809Y-205447619D01*
X263285714Y-205485714D01*
X275791904Y-206171428D02*
X275791904Y-206628571D01*
X275791904Y-206400000D02*
X274991904Y-206400000D01*
X275106190Y-206476190D01*
X275182380Y-206552380D01*
X275220476Y-206628571D01*
X275791904Y-205828571D02*
X274991904Y-205828571D01*
X275791904Y-205371428D02*
X275334761Y-205714285D01*
X274991904Y-205371428D02*
X275449047Y-205828571D01*
X274361904Y-206514285D02*
X273980952Y-206780952D01*
X274361904Y-206971428D02*
X273561904Y-206971428D01*
X273561904Y-206666666D01*
X273600000Y-206590476D01*
X273638095Y-206552380D01*
X273714285Y-206514285D01*
X273828571Y-206514285D01*
X273904761Y-206552380D01*
X273942857Y-206590476D01*
X273980952Y-206666666D01*
X273980952Y-206971428D01*
X273561904Y-206247619D02*
X273561904Y-205752380D01*
X273866666Y-206019047D01*
X273866666Y-205904761D01*
X273904761Y-205828571D01*
X273942857Y-205790476D01*
X274019047Y-205752380D01*
X274209523Y-205752380D01*
X274285714Y-205790476D01*
X274323809Y-205828571D01*
X274361904Y-205904761D01*
X274361904Y-206133333D01*
X274323809Y-206209523D01*
X274285714Y-206247619D01*
X273828571Y-205066666D02*
X274361904Y-205066666D01*
X273523809Y-205257142D02*
X274095238Y-205447619D01*
X274095238Y-204952380D01*
X288791904Y-206171428D02*
X288791904Y-206628571D01*
X288791904Y-206400000D02*
X287991904Y-206400000D01*
X288106190Y-206476190D01*
X288182380Y-206552380D01*
X288220476Y-206628571D01*
X288791904Y-205828571D02*
X287991904Y-205828571D01*
X288791904Y-205371428D02*
X288334761Y-205714285D01*
X287991904Y-205371428D02*
X288449047Y-205828571D01*
X287361904Y-206514285D02*
X286980952Y-206780952D01*
X287361904Y-206971428D02*
X286561904Y-206971428D01*
X286561904Y-206666666D01*
X286600000Y-206590476D01*
X286638095Y-206552380D01*
X286714285Y-206514285D01*
X286828571Y-206514285D01*
X286904761Y-206552380D01*
X286942857Y-206590476D01*
X286980952Y-206666666D01*
X286980952Y-206971428D01*
X286561904Y-206247619D02*
X286561904Y-205752380D01*
X286866666Y-206019047D01*
X286866666Y-205904761D01*
X286904761Y-205828571D01*
X286942857Y-205790476D01*
X287019047Y-205752380D01*
X287209523Y-205752380D01*
X287285714Y-205790476D01*
X287323809Y-205828571D01*
X287361904Y-205904761D01*
X287361904Y-206133333D01*
X287323809Y-206209523D01*
X287285714Y-206247619D01*
X286561904Y-205028571D02*
X286561904Y-205409523D01*
X286942857Y-205447619D01*
X286904761Y-205409523D01*
X286866666Y-205333333D01*
X286866666Y-205142857D01*
X286904761Y-205066666D01*
X286942857Y-205028571D01*
X287019047Y-204990476D01*
X287209523Y-204990476D01*
X287285714Y-205028571D01*
X287323809Y-205066666D01*
X287361904Y-205142857D01*
X287361904Y-205333333D01*
X287323809Y-205409523D01*
X287285714Y-205447619D01*
X209931904Y-149752380D02*
X209550952Y-150019047D01*
X209931904Y-150209523D02*
X209131904Y-150209523D01*
X209131904Y-149904761D01*
X209170000Y-149828571D01*
X209208095Y-149790476D01*
X209284285Y-149752380D01*
X209398571Y-149752380D01*
X209474761Y-149790476D01*
X209512857Y-149828571D01*
X209550952Y-149904761D01*
X209550952Y-150209523D01*
X211361904Y-150514285D02*
X210980952Y-150780952D01*
X211361904Y-150971428D02*
X210561904Y-150971428D01*
X210561904Y-150666666D01*
X210600000Y-150590476D01*
X210638095Y-150552380D01*
X210714285Y-150514285D01*
X210828571Y-150514285D01*
X210904761Y-150552380D01*
X210942857Y-150590476D01*
X210980952Y-150666666D01*
X210980952Y-150971428D01*
X210561904Y-150247619D02*
X210561904Y-149752380D01*
X210866666Y-150019047D01*
X210866666Y-149904761D01*
X210904761Y-149828571D01*
X210942857Y-149790476D01*
X211019047Y-149752380D01*
X211209523Y-149752380D01*
X211285714Y-149790476D01*
X211323809Y-149828571D01*
X211361904Y-149904761D01*
X211361904Y-150133333D01*
X211323809Y-150209523D01*
X211285714Y-150247619D01*
X210561904Y-149066666D02*
X210561904Y-149219047D01*
X210600000Y-149295238D01*
X210638095Y-149333333D01*
X210752380Y-149409523D01*
X210904761Y-149447619D01*
X211209523Y-149447619D01*
X211285714Y-149409523D01*
X211323809Y-149371428D01*
X211361904Y-149295238D01*
X211361904Y-149142857D01*
X211323809Y-149066666D01*
X211285714Y-149028571D01*
X211209523Y-148990476D01*
X211019047Y-148990476D01*
X210942857Y-149028571D01*
X210904761Y-149066666D01*
X210866666Y-149142857D01*
X210866666Y-149295238D01*
X210904761Y-149371428D01*
X210942857Y-149409523D01*
X211019047Y-149447619D01*
X212931904Y-149752380D02*
X212550952Y-150019047D01*
X212931904Y-150209523D02*
X212131904Y-150209523D01*
X212131904Y-149904761D01*
X212170000Y-149828571D01*
X212208095Y-149790476D01*
X212284285Y-149752380D01*
X212398571Y-149752380D01*
X212474761Y-149790476D01*
X212512857Y-149828571D01*
X212550952Y-149904761D01*
X212550952Y-150209523D01*
X214361904Y-150514285D02*
X213980952Y-150780952D01*
X214361904Y-150971428D02*
X213561904Y-150971428D01*
X213561904Y-150666666D01*
X213600000Y-150590476D01*
X213638095Y-150552380D01*
X213714285Y-150514285D01*
X213828571Y-150514285D01*
X213904761Y-150552380D01*
X213942857Y-150590476D01*
X213980952Y-150666666D01*
X213980952Y-150971428D01*
X213561904Y-150247619D02*
X213561904Y-149752380D01*
X213866666Y-150019047D01*
X213866666Y-149904761D01*
X213904761Y-149828571D01*
X213942857Y-149790476D01*
X214019047Y-149752380D01*
X214209523Y-149752380D01*
X214285714Y-149790476D01*
X214323809Y-149828571D01*
X214361904Y-149904761D01*
X214361904Y-150133333D01*
X214323809Y-150209523D01*
X214285714Y-150247619D01*
X213561904Y-149485714D02*
X213561904Y-148952380D01*
X214361904Y-149295238D01*
X215931904Y-149752380D02*
X215550952Y-150019047D01*
X215931904Y-150209523D02*
X215131904Y-150209523D01*
X215131904Y-149904761D01*
X215170000Y-149828571D01*
X215208095Y-149790476D01*
X215284285Y-149752380D01*
X215398571Y-149752380D01*
X215474761Y-149790476D01*
X215512857Y-149828571D01*
X215550952Y-149904761D01*
X215550952Y-150209523D01*
X217361904Y-150514285D02*
X216980952Y-150780952D01*
X217361904Y-150971428D02*
X216561904Y-150971428D01*
X216561904Y-150666666D01*
X216600000Y-150590476D01*
X216638095Y-150552380D01*
X216714285Y-150514285D01*
X216828571Y-150514285D01*
X216904761Y-150552380D01*
X216942857Y-150590476D01*
X216980952Y-150666666D01*
X216980952Y-150971428D01*
X216561904Y-150247619D02*
X216561904Y-149752380D01*
X216866666Y-150019047D01*
X216866666Y-149904761D01*
X216904761Y-149828571D01*
X216942857Y-149790476D01*
X217019047Y-149752380D01*
X217209523Y-149752380D01*
X217285714Y-149790476D01*
X217323809Y-149828571D01*
X217361904Y-149904761D01*
X217361904Y-150133333D01*
X217323809Y-150209523D01*
X217285714Y-150247619D01*
X216904761Y-149295238D02*
X216866666Y-149371428D01*
X216828571Y-149409523D01*
X216752380Y-149447619D01*
X216714285Y-149447619D01*
X216638095Y-149409523D01*
X216600000Y-149371428D01*
X216561904Y-149295238D01*
X216561904Y-149142857D01*
X216600000Y-149066666D01*
X216638095Y-149028571D01*
X216714285Y-148990476D01*
X216752380Y-148990476D01*
X216828571Y-149028571D01*
X216866666Y-149066666D01*
X216904761Y-149142857D01*
X216904761Y-149295238D01*
X216942857Y-149371428D01*
X216980952Y-149409523D01*
X217057142Y-149447619D01*
X217209523Y-149447619D01*
X217285714Y-149409523D01*
X217323809Y-149371428D01*
X217361904Y-149295238D01*
X217361904Y-149142857D01*
X217323809Y-149066666D01*
X217285714Y-149028571D01*
X217209523Y-148990476D01*
X217057142Y-148990476D01*
X216980952Y-149028571D01*
X216942857Y-149066666D01*
X216904761Y-149142857D01*
X218931904Y-149752380D02*
X218550952Y-150019047D01*
X218931904Y-150209523D02*
X218131904Y-150209523D01*
X218131904Y-149904761D01*
X218170000Y-149828571D01*
X218208095Y-149790476D01*
X218284285Y-149752380D01*
X218398571Y-149752380D01*
X218474761Y-149790476D01*
X218512857Y-149828571D01*
X218550952Y-149904761D01*
X218550952Y-150209523D01*
X220361904Y-150514285D02*
X219980952Y-150780952D01*
X220361904Y-150971428D02*
X219561904Y-150971428D01*
X219561904Y-150666666D01*
X219600000Y-150590476D01*
X219638095Y-150552380D01*
X219714285Y-150514285D01*
X219828571Y-150514285D01*
X219904761Y-150552380D01*
X219942857Y-150590476D01*
X219980952Y-150666666D01*
X219980952Y-150971428D01*
X219561904Y-150247619D02*
X219561904Y-149752380D01*
X219866666Y-150019047D01*
X219866666Y-149904761D01*
X219904761Y-149828571D01*
X219942857Y-149790476D01*
X220019047Y-149752380D01*
X220209523Y-149752380D01*
X220285714Y-149790476D01*
X220323809Y-149828571D01*
X220361904Y-149904761D01*
X220361904Y-150133333D01*
X220323809Y-150209523D01*
X220285714Y-150247619D01*
X220361904Y-149371428D02*
X220361904Y-149219047D01*
X220323809Y-149142857D01*
X220285714Y-149104761D01*
X220171428Y-149028571D01*
X220019047Y-148990476D01*
X219714285Y-148990476D01*
X219638095Y-149028571D01*
X219600000Y-149066666D01*
X219561904Y-149142857D01*
X219561904Y-149295238D01*
X219600000Y-149371428D01*
X219638095Y-149409523D01*
X219714285Y-149447619D01*
X219904761Y-149447619D01*
X219980952Y-149409523D01*
X220019047Y-149371428D01*
X220057142Y-149295238D01*
X220057142Y-149142857D01*
X220019047Y-149066666D01*
X219980952Y-149028571D01*
X219904761Y-148990476D01*
X214490476Y-176061904D02*
X214947619Y-176061904D01*
X214719047Y-176861904D02*
X214719047Y-176061904D01*
X215214285Y-176861904D02*
X215214285Y-176061904D01*
X215519047Y-176061904D01*
X215595238Y-176100000D01*
X215633333Y-176138095D01*
X215671428Y-176214285D01*
X215671428Y-176328571D01*
X215633333Y-176404761D01*
X215595238Y-176442857D01*
X215519047Y-176480952D01*
X215214285Y-176480952D01*
X216433333Y-176861904D02*
X215976190Y-176861904D01*
X216204761Y-176861904D02*
X216204761Y-176061904D01*
X216128571Y-176176190D01*
X216052380Y-176252380D01*
X215976190Y-176290476D01*
X243240476Y-168861904D02*
X243697619Y-168861904D01*
X243469047Y-169661904D02*
X243469047Y-168861904D01*
X243964285Y-169661904D02*
X243964285Y-168861904D01*
X244269047Y-168861904D01*
X244345238Y-168900000D01*
X244383333Y-168938095D01*
X244421428Y-169014285D01*
X244421428Y-169128571D01*
X244383333Y-169204761D01*
X244345238Y-169242857D01*
X244269047Y-169280952D01*
X243964285Y-169280952D01*
X244726190Y-168938095D02*
X244764285Y-168900000D01*
X244840476Y-168861904D01*
X245030952Y-168861904D01*
X245107142Y-168900000D01*
X245145238Y-168938095D01*
X245183333Y-169014285D01*
X245183333Y-169090476D01*
X245145238Y-169204761D01*
X244688095Y-169661904D01*
X245183333Y-169661904D01*
X217490476Y-169011904D02*
X217947619Y-169011904D01*
X217719047Y-169811904D02*
X217719047Y-169011904D01*
X218214285Y-169811904D02*
X218214285Y-169011904D01*
X218519047Y-169011904D01*
X218595238Y-169050000D01*
X218633333Y-169088095D01*
X218671428Y-169164285D01*
X218671428Y-169278571D01*
X218633333Y-169354761D01*
X218595238Y-169392857D01*
X218519047Y-169430952D01*
X218214285Y-169430952D01*
X218938095Y-169011904D02*
X219433333Y-169011904D01*
X219166666Y-169316666D01*
X219280952Y-169316666D01*
X219357142Y-169354761D01*
X219395238Y-169392857D01*
X219433333Y-169469047D01*
X219433333Y-169659523D01*
X219395238Y-169735714D01*
X219357142Y-169773809D01*
X219280952Y-169811904D01*
X219052380Y-169811904D01*
X218976190Y-169773809D01*
X218938095Y-169735714D01*
X243240476Y-165111904D02*
X243697619Y-165111904D01*
X243469047Y-165911904D02*
X243469047Y-165111904D01*
X243964285Y-165911904D02*
X243964285Y-165111904D01*
X244269047Y-165111904D01*
X244345238Y-165150000D01*
X244383333Y-165188095D01*
X244421428Y-165264285D01*
X244421428Y-165378571D01*
X244383333Y-165454761D01*
X244345238Y-165492857D01*
X244269047Y-165530952D01*
X243964285Y-165530952D01*
X245107142Y-165378571D02*
X245107142Y-165911904D01*
X244916666Y-165073809D02*
X244726190Y-165645238D01*
X245221428Y-165645238D01*
X217490476Y-166511904D02*
X217947619Y-166511904D01*
X217719047Y-167311904D02*
X217719047Y-166511904D01*
X218214285Y-167311904D02*
X218214285Y-166511904D01*
X218519047Y-166511904D01*
X218595238Y-166550000D01*
X218633333Y-166588095D01*
X218671428Y-166664285D01*
X218671428Y-166778571D01*
X218633333Y-166854761D01*
X218595238Y-166892857D01*
X218519047Y-166930952D01*
X218214285Y-166930952D01*
X219395238Y-166511904D02*
X219014285Y-166511904D01*
X218976190Y-166892857D01*
X219014285Y-166854761D01*
X219090476Y-166816666D01*
X219280952Y-166816666D01*
X219357142Y-166854761D01*
X219395238Y-166892857D01*
X219433333Y-166969047D01*
X219433333Y-167159523D01*
X219395238Y-167235714D01*
X219357142Y-167273809D01*
X219280952Y-167311904D01*
X219090476Y-167311904D01*
X219014285Y-167273809D01*
X218976190Y-167235714D01*
X209611904Y-206509523D02*
X209611904Y-206052380D01*
X210411904Y-206280952D02*
X209611904Y-206280952D01*
X210411904Y-205785714D02*
X209611904Y-205785714D01*
X209611904Y-205480952D01*
X209650000Y-205404761D01*
X209688095Y-205366666D01*
X209764285Y-205328571D01*
X209878571Y-205328571D01*
X209954761Y-205366666D01*
X209992857Y-205404761D01*
X210030952Y-205480952D01*
X210030952Y-205785714D01*
X209611904Y-205061904D02*
X209611904Y-204528571D01*
X210411904Y-204871428D01*
X224990476Y-185861904D02*
X225447619Y-185861904D01*
X225219047Y-186661904D02*
X225219047Y-185861904D01*
X225714285Y-186661904D02*
X225714285Y-185861904D01*
X226019047Y-185861904D01*
X226095238Y-185900000D01*
X226133333Y-185938095D01*
X226171428Y-186014285D01*
X226171428Y-186128571D01*
X226133333Y-186204761D01*
X226095238Y-186242857D01*
X226019047Y-186280952D01*
X225714285Y-186280952D01*
X226628571Y-186204761D02*
X226552380Y-186166666D01*
X226514285Y-186128571D01*
X226476190Y-186052380D01*
X226476190Y-186014285D01*
X226514285Y-185938095D01*
X226552380Y-185900000D01*
X226628571Y-185861904D01*
X226780952Y-185861904D01*
X226857142Y-185900000D01*
X226895238Y-185938095D01*
X226933333Y-186014285D01*
X226933333Y-186052380D01*
X226895238Y-186128571D01*
X226857142Y-186166666D01*
X226780952Y-186204761D01*
X226628571Y-186204761D01*
X226552380Y-186242857D01*
X226514285Y-186280952D01*
X226476190Y-186357142D01*
X226476190Y-186509523D01*
X226514285Y-186585714D01*
X226552380Y-186623809D01*
X226628571Y-186661904D01*
X226780952Y-186661904D01*
X226857142Y-186623809D01*
X226895238Y-186585714D01*
X226933333Y-186509523D01*
X226933333Y-186357142D01*
X226895238Y-186280952D01*
X226857142Y-186242857D01*
X226780952Y-186204761D01*
X216740476Y-192011904D02*
X217197619Y-192011904D01*
X216969047Y-192811904D02*
X216969047Y-192011904D01*
X217464285Y-192811904D02*
X217464285Y-192011904D01*
X217769047Y-192011904D01*
X217845238Y-192050000D01*
X217883333Y-192088095D01*
X217921428Y-192164285D01*
X217921428Y-192278571D01*
X217883333Y-192354761D01*
X217845238Y-192392857D01*
X217769047Y-192430952D01*
X217464285Y-192430952D01*
X218302380Y-192811904D02*
X218454761Y-192811904D01*
X218530952Y-192773809D01*
X218569047Y-192735714D01*
X218645238Y-192621428D01*
X218683333Y-192469047D01*
X218683333Y-192164285D01*
X218645238Y-192088095D01*
X218607142Y-192050000D01*
X218530952Y-192011904D01*
X218378571Y-192011904D01*
X218302380Y-192050000D01*
X218264285Y-192088095D01*
X218226190Y-192164285D01*
X218226190Y-192354761D01*
X218264285Y-192430952D01*
X218302380Y-192469047D01*
X218378571Y-192507142D01*
X218530952Y-192507142D01*
X218607142Y-192469047D01*
X218645238Y-192430952D01*
X218683333Y-192354761D01*
X268109523Y-166611904D02*
X268566666Y-166611904D01*
X268338095Y-167411904D02*
X268338095Y-166611904D01*
X268833333Y-167411904D02*
X268833333Y-166611904D01*
X269138095Y-166611904D01*
X269214285Y-166650000D01*
X269252380Y-166688095D01*
X269290476Y-166764285D01*
X269290476Y-166878571D01*
X269252380Y-166954761D01*
X269214285Y-166992857D01*
X269138095Y-167030952D01*
X268833333Y-167030952D01*
X270052380Y-167411904D02*
X269595238Y-167411904D01*
X269823809Y-167411904D02*
X269823809Y-166611904D01*
X269747619Y-166726190D01*
X269671428Y-166802380D01*
X269595238Y-166840476D01*
X270547619Y-166611904D02*
X270623809Y-166611904D01*
X270700000Y-166650000D01*
X270738095Y-166688095D01*
X270776190Y-166764285D01*
X270814285Y-166916666D01*
X270814285Y-167107142D01*
X270776190Y-167259523D01*
X270738095Y-167335714D01*
X270700000Y-167373809D01*
X270623809Y-167411904D01*
X270547619Y-167411904D01*
X270471428Y-167373809D01*
X270433333Y-167335714D01*
X270395238Y-167259523D01*
X270357142Y-167107142D01*
X270357142Y-166916666D01*
X270395238Y-166764285D01*
X270433333Y-166688095D01*
X270471428Y-166650000D01*
X270547619Y-166611904D01*
X268109523Y-164111904D02*
X268566666Y-164111904D01*
X268338095Y-164911904D02*
X268338095Y-164111904D01*
X268833333Y-164911904D02*
X268833333Y-164111904D01*
X269138095Y-164111904D01*
X269214285Y-164150000D01*
X269252380Y-164188095D01*
X269290476Y-164264285D01*
X269290476Y-164378571D01*
X269252380Y-164454761D01*
X269214285Y-164492857D01*
X269138095Y-164530952D01*
X268833333Y-164530952D01*
X270052380Y-164911904D02*
X269595238Y-164911904D01*
X269823809Y-164911904D02*
X269823809Y-164111904D01*
X269747619Y-164226190D01*
X269671428Y-164302380D01*
X269595238Y-164340476D01*
X270814285Y-164911904D02*
X270357142Y-164911904D01*
X270585714Y-164911904D02*
X270585714Y-164111904D01*
X270509523Y-164226190D01*
X270433333Y-164302380D01*
X270357142Y-164340476D01*
X251859523Y-155611904D02*
X252316666Y-155611904D01*
X252088095Y-156411904D02*
X252088095Y-155611904D01*
X252583333Y-156411904D02*
X252583333Y-155611904D01*
X252888095Y-155611904D01*
X252964285Y-155650000D01*
X253002380Y-155688095D01*
X253040476Y-155764285D01*
X253040476Y-155878571D01*
X253002380Y-155954761D01*
X252964285Y-155992857D01*
X252888095Y-156030952D01*
X252583333Y-156030952D01*
X253802380Y-156411904D02*
X253345238Y-156411904D01*
X253573809Y-156411904D02*
X253573809Y-155611904D01*
X253497619Y-155726190D01*
X253421428Y-155802380D01*
X253345238Y-155840476D01*
X254107142Y-155688095D02*
X254145238Y-155650000D01*
X254221428Y-155611904D01*
X254411904Y-155611904D01*
X254488095Y-155650000D01*
X254526190Y-155688095D01*
X254564285Y-155764285D01*
X254564285Y-155840476D01*
X254526190Y-155954761D01*
X254069047Y-156411904D01*
X254564285Y-156411904D01*
X249359523Y-158361904D02*
X249816666Y-158361904D01*
X249588095Y-159161904D02*
X249588095Y-158361904D01*
X250083333Y-159161904D02*
X250083333Y-158361904D01*
X250388095Y-158361904D01*
X250464285Y-158400000D01*
X250502380Y-158438095D01*
X250540476Y-158514285D01*
X250540476Y-158628571D01*
X250502380Y-158704761D01*
X250464285Y-158742857D01*
X250388095Y-158780952D01*
X250083333Y-158780952D01*
X251302380Y-159161904D02*
X250845238Y-159161904D01*
X251073809Y-159161904D02*
X251073809Y-158361904D01*
X250997619Y-158476190D01*
X250921428Y-158552380D01*
X250845238Y-158590476D01*
X251569047Y-158361904D02*
X252064285Y-158361904D01*
X251797619Y-158666666D01*
X251911904Y-158666666D01*
X251988095Y-158704761D01*
X252026190Y-158742857D01*
X252064285Y-158819047D01*
X252064285Y-159009523D01*
X252026190Y-159085714D01*
X251988095Y-159123809D01*
X251911904Y-159161904D01*
X251683333Y-159161904D01*
X251607142Y-159123809D01*
X251569047Y-159085714D01*
X242859523Y-161611904D02*
X243316666Y-161611904D01*
X243088095Y-162411904D02*
X243088095Y-161611904D01*
X243583333Y-162411904D02*
X243583333Y-161611904D01*
X243888095Y-161611904D01*
X243964285Y-161650000D01*
X244002380Y-161688095D01*
X244040476Y-161764285D01*
X244040476Y-161878571D01*
X244002380Y-161954761D01*
X243964285Y-161992857D01*
X243888095Y-162030952D01*
X243583333Y-162030952D01*
X244802380Y-162411904D02*
X244345238Y-162411904D01*
X244573809Y-162411904D02*
X244573809Y-161611904D01*
X244497619Y-161726190D01*
X244421428Y-161802380D01*
X244345238Y-161840476D01*
X245488095Y-161878571D02*
X245488095Y-162411904D01*
X245297619Y-161573809D02*
X245107142Y-162145238D01*
X245602380Y-162145238D01*
X217109523Y-164011904D02*
X217566666Y-164011904D01*
X217338095Y-164811904D02*
X217338095Y-164011904D01*
X217833333Y-164811904D02*
X217833333Y-164011904D01*
X218138095Y-164011904D01*
X218214285Y-164050000D01*
X218252380Y-164088095D01*
X218290476Y-164164285D01*
X218290476Y-164278571D01*
X218252380Y-164354761D01*
X218214285Y-164392857D01*
X218138095Y-164430952D01*
X217833333Y-164430952D01*
X219052380Y-164811904D02*
X218595238Y-164811904D01*
X218823809Y-164811904D02*
X218823809Y-164011904D01*
X218747619Y-164126190D01*
X218671428Y-164202380D01*
X218595238Y-164240476D01*
X219776190Y-164011904D02*
X219395238Y-164011904D01*
X219357142Y-164392857D01*
X219395238Y-164354761D01*
X219471428Y-164316666D01*
X219661904Y-164316666D01*
X219738095Y-164354761D01*
X219776190Y-164392857D01*
X219814285Y-164469047D01*
X219814285Y-164659523D01*
X219776190Y-164735714D01*
X219738095Y-164773809D01*
X219661904Y-164811904D01*
X219471428Y-164811904D01*
X219395238Y-164773809D01*
X219357142Y-164735714D01*
X224609523Y-188611904D02*
X225066666Y-188611904D01*
X224838095Y-189411904D02*
X224838095Y-188611904D01*
X225333333Y-189411904D02*
X225333333Y-188611904D01*
X225638095Y-188611904D01*
X225714285Y-188650000D01*
X225752380Y-188688095D01*
X225790476Y-188764285D01*
X225790476Y-188878571D01*
X225752380Y-188954761D01*
X225714285Y-188992857D01*
X225638095Y-189030952D01*
X225333333Y-189030952D01*
X226552380Y-189411904D02*
X226095238Y-189411904D01*
X226323809Y-189411904D02*
X226323809Y-188611904D01*
X226247619Y-188726190D01*
X226171428Y-188802380D01*
X226095238Y-188840476D01*
X227238095Y-188611904D02*
X227085714Y-188611904D01*
X227009523Y-188650000D01*
X226971428Y-188688095D01*
X226895238Y-188802380D01*
X226857142Y-188954761D01*
X226857142Y-189259523D01*
X226895238Y-189335714D01*
X226933333Y-189373809D01*
X227009523Y-189411904D01*
X227161904Y-189411904D01*
X227238095Y-189373809D01*
X227276190Y-189335714D01*
X227314285Y-189259523D01*
X227314285Y-189069047D01*
X227276190Y-188992857D01*
X227238095Y-188954761D01*
X227161904Y-188916666D01*
X227009523Y-188916666D01*
X226933333Y-188954761D01*
X226895238Y-188992857D01*
X226857142Y-189069047D01*
X229109523Y-203611904D02*
X229566666Y-203611904D01*
X229338095Y-204411904D02*
X229338095Y-203611904D01*
X229833333Y-204411904D02*
X229833333Y-203611904D01*
X230138095Y-203611904D01*
X230214285Y-203650000D01*
X230252380Y-203688095D01*
X230290476Y-203764285D01*
X230290476Y-203878571D01*
X230252380Y-203954761D01*
X230214285Y-203992857D01*
X230138095Y-204030952D01*
X229833333Y-204030952D01*
X231052380Y-204411904D02*
X230595238Y-204411904D01*
X230823809Y-204411904D02*
X230823809Y-203611904D01*
X230747619Y-203726190D01*
X230671428Y-203802380D01*
X230595238Y-203840476D01*
X231319047Y-203611904D02*
X231852380Y-203611904D01*
X231509523Y-204411904D01*
X242859523Y-158111904D02*
X243316666Y-158111904D01*
X243088095Y-158911904D02*
X243088095Y-158111904D01*
X243583333Y-158911904D02*
X243583333Y-158111904D01*
X243888095Y-158111904D01*
X243964285Y-158150000D01*
X244002380Y-158188095D01*
X244040476Y-158264285D01*
X244040476Y-158378571D01*
X244002380Y-158454761D01*
X243964285Y-158492857D01*
X243888095Y-158530952D01*
X243583333Y-158530952D01*
X244802380Y-158911904D02*
X244345238Y-158911904D01*
X244573809Y-158911904D02*
X244573809Y-158111904D01*
X244497619Y-158226190D01*
X244421428Y-158302380D01*
X244345238Y-158340476D01*
X245259523Y-158454761D02*
X245183333Y-158416666D01*
X245145238Y-158378571D01*
X245107142Y-158302380D01*
X245107142Y-158264285D01*
X245145238Y-158188095D01*
X245183333Y-158150000D01*
X245259523Y-158111904D01*
X245411904Y-158111904D01*
X245488095Y-158150000D01*
X245526190Y-158188095D01*
X245564285Y-158264285D01*
X245564285Y-158302380D01*
X245526190Y-158378571D01*
X245488095Y-158416666D01*
X245411904Y-158454761D01*
X245259523Y-158454761D01*
X245183333Y-158492857D01*
X245145238Y-158530952D01*
X245107142Y-158607142D01*
X245107142Y-158759523D01*
X245145238Y-158835714D01*
X245183333Y-158873809D01*
X245259523Y-158911904D01*
X245411904Y-158911904D01*
X245488095Y-158873809D01*
X245526190Y-158835714D01*
X245564285Y-158759523D01*
X245564285Y-158607142D01*
X245526190Y-158530952D01*
X245488095Y-158492857D01*
X245411904Y-158454761D01*
X217109523Y-161511904D02*
X217566666Y-161511904D01*
X217338095Y-162311904D02*
X217338095Y-161511904D01*
X217833333Y-162311904D02*
X217833333Y-161511904D01*
X218138095Y-161511904D01*
X218214285Y-161550000D01*
X218252380Y-161588095D01*
X218290476Y-161664285D01*
X218290476Y-161778571D01*
X218252380Y-161854761D01*
X218214285Y-161892857D01*
X218138095Y-161930952D01*
X217833333Y-161930952D01*
X219052380Y-162311904D02*
X218595238Y-162311904D01*
X218823809Y-162311904D02*
X218823809Y-161511904D01*
X218747619Y-161626190D01*
X218671428Y-161702380D01*
X218595238Y-161740476D01*
X219433333Y-162311904D02*
X219585714Y-162311904D01*
X219661904Y-162273809D01*
X219700000Y-162235714D01*
X219776190Y-162121428D01*
X219814285Y-161969047D01*
X219814285Y-161664285D01*
X219776190Y-161588095D01*
X219738095Y-161550000D01*
X219661904Y-161511904D01*
X219509523Y-161511904D01*
X219433333Y-161550000D01*
X219395238Y-161588095D01*
X219357142Y-161664285D01*
X219357142Y-161854761D01*
X219395238Y-161930952D01*
X219433333Y-161969047D01*
X219509523Y-162007142D01*
X219661904Y-162007142D01*
X219738095Y-161969047D01*
X219776190Y-161930952D01*
X219814285Y-161854761D01*
X272609523Y-195611904D02*
X273066666Y-195611904D01*
X272838095Y-196411904D02*
X272838095Y-195611904D01*
X273333333Y-196411904D02*
X273333333Y-195611904D01*
X273638095Y-195611904D01*
X273714285Y-195650000D01*
X273752380Y-195688095D01*
X273790476Y-195764285D01*
X273790476Y-195878571D01*
X273752380Y-195954761D01*
X273714285Y-195992857D01*
X273638095Y-196030952D01*
X273333333Y-196030952D01*
X274095238Y-195688095D02*
X274133333Y-195650000D01*
X274209523Y-195611904D01*
X274400000Y-195611904D01*
X274476190Y-195650000D01*
X274514285Y-195688095D01*
X274552380Y-195764285D01*
X274552380Y-195840476D01*
X274514285Y-195954761D01*
X274057142Y-196411904D01*
X274552380Y-196411904D01*
X275047619Y-195611904D02*
X275123809Y-195611904D01*
X275200000Y-195650000D01*
X275238095Y-195688095D01*
X275276190Y-195764285D01*
X275314285Y-195916666D01*
X275314285Y-196107142D01*
X275276190Y-196259523D01*
X275238095Y-196335714D01*
X275200000Y-196373809D01*
X275123809Y-196411904D01*
X275047619Y-196411904D01*
X274971428Y-196373809D01*
X274933333Y-196335714D01*
X274895238Y-196259523D01*
X274857142Y-196107142D01*
X274857142Y-195916666D01*
X274895238Y-195764285D01*
X274933333Y-195688095D01*
X274971428Y-195650000D01*
X275047619Y-195611904D01*
X261609523Y-195611904D02*
X262066666Y-195611904D01*
X261838095Y-196411904D02*
X261838095Y-195611904D01*
X262333333Y-196411904D02*
X262333333Y-195611904D01*
X262638095Y-195611904D01*
X262714285Y-195650000D01*
X262752380Y-195688095D01*
X262790476Y-195764285D01*
X262790476Y-195878571D01*
X262752380Y-195954761D01*
X262714285Y-195992857D01*
X262638095Y-196030952D01*
X262333333Y-196030952D01*
X263095238Y-195688095D02*
X263133333Y-195650000D01*
X263209523Y-195611904D01*
X263400000Y-195611904D01*
X263476190Y-195650000D01*
X263514285Y-195688095D01*
X263552380Y-195764285D01*
X263552380Y-195840476D01*
X263514285Y-195954761D01*
X263057142Y-196411904D01*
X263552380Y-196411904D01*
X264314285Y-196411904D02*
X263857142Y-196411904D01*
X264085714Y-196411904D02*
X264085714Y-195611904D01*
X264009523Y-195726190D01*
X263933333Y-195802380D01*
X263857142Y-195840476D01*
X250609523Y-195611904D02*
X251066666Y-195611904D01*
X250838095Y-196411904D02*
X250838095Y-195611904D01*
X251333333Y-196411904D02*
X251333333Y-195611904D01*
X251638095Y-195611904D01*
X251714285Y-195650000D01*
X251752380Y-195688095D01*
X251790476Y-195764285D01*
X251790476Y-195878571D01*
X251752380Y-195954761D01*
X251714285Y-195992857D01*
X251638095Y-196030952D01*
X251333333Y-196030952D01*
X252095238Y-195688095D02*
X252133333Y-195650000D01*
X252209523Y-195611904D01*
X252400000Y-195611904D01*
X252476190Y-195650000D01*
X252514285Y-195688095D01*
X252552380Y-195764285D01*
X252552380Y-195840476D01*
X252514285Y-195954761D01*
X252057142Y-196411904D01*
X252552380Y-196411904D01*
X252857142Y-195688095D02*
X252895238Y-195650000D01*
X252971428Y-195611904D01*
X253161904Y-195611904D01*
X253238095Y-195650000D01*
X253276190Y-195688095D01*
X253314285Y-195764285D01*
X253314285Y-195840476D01*
X253276190Y-195954761D01*
X252819047Y-196411904D01*
X253314285Y-196411904D01*
X285609523Y-195611904D02*
X286066666Y-195611904D01*
X285838095Y-196411904D02*
X285838095Y-195611904D01*
X286333333Y-196411904D02*
X286333333Y-195611904D01*
X286638095Y-195611904D01*
X286714285Y-195650000D01*
X286752380Y-195688095D01*
X286790476Y-195764285D01*
X286790476Y-195878571D01*
X286752380Y-195954761D01*
X286714285Y-195992857D01*
X286638095Y-196030952D01*
X286333333Y-196030952D01*
X287095238Y-195688095D02*
X287133333Y-195650000D01*
X287209523Y-195611904D01*
X287400000Y-195611904D01*
X287476190Y-195650000D01*
X287514285Y-195688095D01*
X287552380Y-195764285D01*
X287552380Y-195840476D01*
X287514285Y-195954761D01*
X287057142Y-196411904D01*
X287552380Y-196411904D01*
X287819047Y-195611904D02*
X288314285Y-195611904D01*
X288047619Y-195916666D01*
X288161904Y-195916666D01*
X288238095Y-195954761D01*
X288276190Y-195992857D01*
X288314285Y-196069047D01*
X288314285Y-196259523D01*
X288276190Y-196335714D01*
X288238095Y-196373809D01*
X288161904Y-196411904D01*
X287933333Y-196411904D01*
X287857142Y-196373809D01*
X287819047Y-196335714D01*
X208333333Y-148111904D02*
X208790476Y-148111904D01*
X208561904Y-148911904D02*
X208561904Y-148111904D01*
X209361904Y-148873809D02*
X209285714Y-148911904D01*
X209133333Y-148911904D01*
X209057142Y-148873809D01*
X209019047Y-148797619D01*
X209019047Y-148492857D01*
X209057142Y-148416666D01*
X209133333Y-148378571D01*
X209285714Y-148378571D01*
X209361904Y-148416666D01*
X209400000Y-148492857D01*
X209400000Y-148569047D01*
X209019047Y-148645238D01*
X209704761Y-148873809D02*
X209780952Y-148911904D01*
X209933333Y-148911904D01*
X210009523Y-148873809D01*
X210047619Y-148797619D01*
X210047619Y-148759523D01*
X210009523Y-148683333D01*
X209933333Y-148645238D01*
X209819047Y-148645238D01*
X209742857Y-148607142D01*
X209704761Y-148530952D01*
X209704761Y-148492857D01*
X209742857Y-148416666D01*
X209819047Y-148378571D01*
X209933333Y-148378571D01*
X210009523Y-148416666D01*
X210276190Y-148378571D02*
X210580952Y-148378571D01*
X210390476Y-148111904D02*
X210390476Y-148797619D01*
X210428571Y-148873809D01*
X210504761Y-148911904D01*
X210580952Y-148911904D01*
X210847619Y-148911904D02*
X210847619Y-148111904D01*
X211152380Y-148111904D01*
X211228571Y-148150000D01*
X211266666Y-148188095D01*
X211304761Y-148264285D01*
X211304761Y-148378571D01*
X211266666Y-148454761D01*
X211228571Y-148492857D01*
X211152380Y-148530952D01*
X210847619Y-148530952D01*
X211761904Y-148911904D02*
X211685714Y-148873809D01*
X211647619Y-148835714D01*
X211609523Y-148759523D01*
X211609523Y-148530952D01*
X211647619Y-148454761D01*
X211685714Y-148416666D01*
X211761904Y-148378571D01*
X211876190Y-148378571D01*
X211952380Y-148416666D01*
X211990476Y-148454761D01*
X212028571Y-148530952D01*
X212028571Y-148759523D01*
X211990476Y-148835714D01*
X211952380Y-148873809D01*
X211876190Y-148911904D01*
X211761904Y-148911904D01*
X212371428Y-148911904D02*
X212371428Y-148378571D01*
X212371428Y-148111904D02*
X212333333Y-148150000D01*
X212371428Y-148188095D01*
X212409523Y-148150000D01*
X212371428Y-148111904D01*
X212371428Y-148188095D01*
X212752380Y-148378571D02*
X212752380Y-148911904D01*
X212752380Y-148454761D02*
X212790476Y-148416666D01*
X212866666Y-148378571D01*
X212980952Y-148378571D01*
X213057142Y-148416666D01*
X213095238Y-148492857D01*
X213095238Y-148911904D01*
X213361904Y-148378571D02*
X213666666Y-148378571D01*
X213476190Y-148111904D02*
X213476190Y-148797619D01*
X213514285Y-148873809D01*
X213590476Y-148911904D01*
X213666666Y-148911904D01*
X209609523Y-145111904D02*
X210066666Y-145111904D01*
X209838095Y-145911904D02*
X209838095Y-145111904D01*
X210333333Y-145911904D02*
X210333333Y-145111904D01*
X210638095Y-145111904D01*
X210714285Y-145150000D01*
X210752380Y-145188095D01*
X210790476Y-145264285D01*
X210790476Y-145378571D01*
X210752380Y-145454761D01*
X210714285Y-145492857D01*
X210638095Y-145530952D01*
X210333333Y-145530952D01*
X211095238Y-145188095D02*
X211133333Y-145150000D01*
X211209523Y-145111904D01*
X211400000Y-145111904D01*
X211476190Y-145150000D01*
X211514285Y-145188095D01*
X211552380Y-145264285D01*
X211552380Y-145340476D01*
X211514285Y-145454761D01*
X211057142Y-145911904D01*
X211552380Y-145911904D01*
X212238095Y-145378571D02*
X212238095Y-145911904D01*
X212047619Y-145073809D02*
X211857142Y-145645238D01*
X212352380Y-145645238D01*
X211333333Y-148111904D02*
X211790476Y-148111904D01*
X211561904Y-148911904D02*
X211561904Y-148111904D01*
X212361904Y-148873809D02*
X212285714Y-148911904D01*
X212133333Y-148911904D01*
X212057142Y-148873809D01*
X212019047Y-148797619D01*
X212019047Y-148492857D01*
X212057142Y-148416666D01*
X212133333Y-148378571D01*
X212285714Y-148378571D01*
X212361904Y-148416666D01*
X212400000Y-148492857D01*
X212400000Y-148569047D01*
X212019047Y-148645238D01*
X212704761Y-148873809D02*
X212780952Y-148911904D01*
X212933333Y-148911904D01*
X213009523Y-148873809D01*
X213047619Y-148797619D01*
X213047619Y-148759523D01*
X213009523Y-148683333D01*
X212933333Y-148645238D01*
X212819047Y-148645238D01*
X212742857Y-148607142D01*
X212704761Y-148530952D01*
X212704761Y-148492857D01*
X212742857Y-148416666D01*
X212819047Y-148378571D01*
X212933333Y-148378571D01*
X213009523Y-148416666D01*
X213276190Y-148378571D02*
X213580952Y-148378571D01*
X213390476Y-148111904D02*
X213390476Y-148797619D01*
X213428571Y-148873809D01*
X213504761Y-148911904D01*
X213580952Y-148911904D01*
X213847619Y-148911904D02*
X213847619Y-148111904D01*
X214152380Y-148111904D01*
X214228571Y-148150000D01*
X214266666Y-148188095D01*
X214304761Y-148264285D01*
X214304761Y-148378571D01*
X214266666Y-148454761D01*
X214228571Y-148492857D01*
X214152380Y-148530952D01*
X213847619Y-148530952D01*
X214761904Y-148911904D02*
X214685714Y-148873809D01*
X214647619Y-148835714D01*
X214609523Y-148759523D01*
X214609523Y-148530952D01*
X214647619Y-148454761D01*
X214685714Y-148416666D01*
X214761904Y-148378571D01*
X214876190Y-148378571D01*
X214952380Y-148416666D01*
X214990476Y-148454761D01*
X215028571Y-148530952D01*
X215028571Y-148759523D01*
X214990476Y-148835714D01*
X214952380Y-148873809D01*
X214876190Y-148911904D01*
X214761904Y-148911904D01*
X215371428Y-148911904D02*
X215371428Y-148378571D01*
X215371428Y-148111904D02*
X215333333Y-148150000D01*
X215371428Y-148188095D01*
X215409523Y-148150000D01*
X215371428Y-148111904D01*
X215371428Y-148188095D01*
X215752380Y-148378571D02*
X215752380Y-148911904D01*
X215752380Y-148454761D02*
X215790476Y-148416666D01*
X215866666Y-148378571D01*
X215980952Y-148378571D01*
X216057142Y-148416666D01*
X216095238Y-148492857D01*
X216095238Y-148911904D01*
X216361904Y-148378571D02*
X216666666Y-148378571D01*
X216476190Y-148111904D02*
X216476190Y-148797619D01*
X216514285Y-148873809D01*
X216590476Y-148911904D01*
X216666666Y-148911904D01*
X212609523Y-145111904D02*
X213066666Y-145111904D01*
X212838095Y-145911904D02*
X212838095Y-145111904D01*
X213333333Y-145911904D02*
X213333333Y-145111904D01*
X213638095Y-145111904D01*
X213714285Y-145150000D01*
X213752380Y-145188095D01*
X213790476Y-145264285D01*
X213790476Y-145378571D01*
X213752380Y-145454761D01*
X213714285Y-145492857D01*
X213638095Y-145530952D01*
X213333333Y-145530952D01*
X214095238Y-145188095D02*
X214133333Y-145150000D01*
X214209523Y-145111904D01*
X214400000Y-145111904D01*
X214476190Y-145150000D01*
X214514285Y-145188095D01*
X214552380Y-145264285D01*
X214552380Y-145340476D01*
X214514285Y-145454761D01*
X214057142Y-145911904D01*
X214552380Y-145911904D01*
X215276190Y-145111904D02*
X214895238Y-145111904D01*
X214857142Y-145492857D01*
X214895238Y-145454761D01*
X214971428Y-145416666D01*
X215161904Y-145416666D01*
X215238095Y-145454761D01*
X215276190Y-145492857D01*
X215314285Y-145569047D01*
X215314285Y-145759523D01*
X215276190Y-145835714D01*
X215238095Y-145873809D01*
X215161904Y-145911904D01*
X214971428Y-145911904D01*
X214895238Y-145873809D01*
X214857142Y-145835714D01*
X214333333Y-148111904D02*
X214790476Y-148111904D01*
X214561904Y-148911904D02*
X214561904Y-148111904D01*
X215361904Y-148873809D02*
X215285714Y-148911904D01*
X215133333Y-148911904D01*
X215057142Y-148873809D01*
X215019047Y-148797619D01*
X215019047Y-148492857D01*
X215057142Y-148416666D01*
X215133333Y-148378571D01*
X215285714Y-148378571D01*
X215361904Y-148416666D01*
X215400000Y-148492857D01*
X215400000Y-148569047D01*
X215019047Y-148645238D01*
X215704761Y-148873809D02*
X215780952Y-148911904D01*
X215933333Y-148911904D01*
X216009523Y-148873809D01*
X216047619Y-148797619D01*
X216047619Y-148759523D01*
X216009523Y-148683333D01*
X215933333Y-148645238D01*
X215819047Y-148645238D01*
X215742857Y-148607142D01*
X215704761Y-148530952D01*
X215704761Y-148492857D01*
X215742857Y-148416666D01*
X215819047Y-148378571D01*
X215933333Y-148378571D01*
X216009523Y-148416666D01*
X216276190Y-148378571D02*
X216580952Y-148378571D01*
X216390476Y-148111904D02*
X216390476Y-148797619D01*
X216428571Y-148873809D01*
X216504761Y-148911904D01*
X216580952Y-148911904D01*
X216847619Y-148911904D02*
X216847619Y-148111904D01*
X217152380Y-148111904D01*
X217228571Y-148150000D01*
X217266666Y-148188095D01*
X217304761Y-148264285D01*
X217304761Y-148378571D01*
X217266666Y-148454761D01*
X217228571Y-148492857D01*
X217152380Y-148530952D01*
X216847619Y-148530952D01*
X217761904Y-148911904D02*
X217685714Y-148873809D01*
X217647619Y-148835714D01*
X217609523Y-148759523D01*
X217609523Y-148530952D01*
X217647619Y-148454761D01*
X217685714Y-148416666D01*
X217761904Y-148378571D01*
X217876190Y-148378571D01*
X217952380Y-148416666D01*
X217990476Y-148454761D01*
X218028571Y-148530952D01*
X218028571Y-148759523D01*
X217990476Y-148835714D01*
X217952380Y-148873809D01*
X217876190Y-148911904D01*
X217761904Y-148911904D01*
X218371428Y-148911904D02*
X218371428Y-148378571D01*
X218371428Y-148111904D02*
X218333333Y-148150000D01*
X218371428Y-148188095D01*
X218409523Y-148150000D01*
X218371428Y-148111904D01*
X218371428Y-148188095D01*
X218752380Y-148378571D02*
X218752380Y-148911904D01*
X218752380Y-148454761D02*
X218790476Y-148416666D01*
X218866666Y-148378571D01*
X218980952Y-148378571D01*
X219057142Y-148416666D01*
X219095238Y-148492857D01*
X219095238Y-148911904D01*
X219361904Y-148378571D02*
X219666666Y-148378571D01*
X219476190Y-148111904D02*
X219476190Y-148797619D01*
X219514285Y-148873809D01*
X219590476Y-148911904D01*
X219666666Y-148911904D01*
X215609523Y-145111904D02*
X216066666Y-145111904D01*
X215838095Y-145911904D02*
X215838095Y-145111904D01*
X216333333Y-145911904D02*
X216333333Y-145111904D01*
X216638095Y-145111904D01*
X216714285Y-145150000D01*
X216752380Y-145188095D01*
X216790476Y-145264285D01*
X216790476Y-145378571D01*
X216752380Y-145454761D01*
X216714285Y-145492857D01*
X216638095Y-145530952D01*
X216333333Y-145530952D01*
X217095238Y-145188095D02*
X217133333Y-145150000D01*
X217209523Y-145111904D01*
X217400000Y-145111904D01*
X217476190Y-145150000D01*
X217514285Y-145188095D01*
X217552380Y-145264285D01*
X217552380Y-145340476D01*
X217514285Y-145454761D01*
X217057142Y-145911904D01*
X217552380Y-145911904D01*
X218238095Y-145111904D02*
X218085714Y-145111904D01*
X218009523Y-145150000D01*
X217971428Y-145188095D01*
X217895238Y-145302380D01*
X217857142Y-145454761D01*
X217857142Y-145759523D01*
X217895238Y-145835714D01*
X217933333Y-145873809D01*
X218009523Y-145911904D01*
X218161904Y-145911904D01*
X218238095Y-145873809D01*
X218276190Y-145835714D01*
X218314285Y-145759523D01*
X218314285Y-145569047D01*
X218276190Y-145492857D01*
X218238095Y-145454761D01*
X218161904Y-145416666D01*
X218009523Y-145416666D01*
X217933333Y-145454761D01*
X217895238Y-145492857D01*
X217857142Y-145569047D01*
X217333333Y-148111904D02*
X217790476Y-148111904D01*
X217561904Y-148911904D02*
X217561904Y-148111904D01*
X218361904Y-148873809D02*
X218285714Y-148911904D01*
X218133333Y-148911904D01*
X218057142Y-148873809D01*
X218019047Y-148797619D01*
X218019047Y-148492857D01*
X218057142Y-148416666D01*
X218133333Y-148378571D01*
X218285714Y-148378571D01*
X218361904Y-148416666D01*
X218400000Y-148492857D01*
X218400000Y-148569047D01*
X218019047Y-148645238D01*
X218704761Y-148873809D02*
X218780952Y-148911904D01*
X218933333Y-148911904D01*
X219009523Y-148873809D01*
X219047619Y-148797619D01*
X219047619Y-148759523D01*
X219009523Y-148683333D01*
X218933333Y-148645238D01*
X218819047Y-148645238D01*
X218742857Y-148607142D01*
X218704761Y-148530952D01*
X218704761Y-148492857D01*
X218742857Y-148416666D01*
X218819047Y-148378571D01*
X218933333Y-148378571D01*
X219009523Y-148416666D01*
X219276190Y-148378571D02*
X219580952Y-148378571D01*
X219390476Y-148111904D02*
X219390476Y-148797619D01*
X219428571Y-148873809D01*
X219504761Y-148911904D01*
X219580952Y-148911904D01*
X219847619Y-148911904D02*
X219847619Y-148111904D01*
X220152380Y-148111904D01*
X220228571Y-148150000D01*
X220266666Y-148188095D01*
X220304761Y-148264285D01*
X220304761Y-148378571D01*
X220266666Y-148454761D01*
X220228571Y-148492857D01*
X220152380Y-148530952D01*
X219847619Y-148530952D01*
X220761904Y-148911904D02*
X220685714Y-148873809D01*
X220647619Y-148835714D01*
X220609523Y-148759523D01*
X220609523Y-148530952D01*
X220647619Y-148454761D01*
X220685714Y-148416666D01*
X220761904Y-148378571D01*
X220876190Y-148378571D01*
X220952380Y-148416666D01*
X220990476Y-148454761D01*
X221028571Y-148530952D01*
X221028571Y-148759523D01*
X220990476Y-148835714D01*
X220952380Y-148873809D01*
X220876190Y-148911904D01*
X220761904Y-148911904D01*
X221371428Y-148911904D02*
X221371428Y-148378571D01*
X221371428Y-148111904D02*
X221333333Y-148150000D01*
X221371428Y-148188095D01*
X221409523Y-148150000D01*
X221371428Y-148111904D01*
X221371428Y-148188095D01*
X221752380Y-148378571D02*
X221752380Y-148911904D01*
X221752380Y-148454761D02*
X221790476Y-148416666D01*
X221866666Y-148378571D01*
X221980952Y-148378571D01*
X222057142Y-148416666D01*
X222095238Y-148492857D01*
X222095238Y-148911904D01*
X222361904Y-148378571D02*
X222666666Y-148378571D01*
X222476190Y-148111904D02*
X222476190Y-148797619D01*
X222514285Y-148873809D01*
X222590476Y-148911904D01*
X222666666Y-148911904D01*
X218609523Y-145111904D02*
X219066666Y-145111904D01*
X218838095Y-145911904D02*
X218838095Y-145111904D01*
X219333333Y-145911904D02*
X219333333Y-145111904D01*
X219638095Y-145111904D01*
X219714285Y-145150000D01*
X219752380Y-145188095D01*
X219790476Y-145264285D01*
X219790476Y-145378571D01*
X219752380Y-145454761D01*
X219714285Y-145492857D01*
X219638095Y-145530952D01*
X219333333Y-145530952D01*
X220095238Y-145188095D02*
X220133333Y-145150000D01*
X220209523Y-145111904D01*
X220400000Y-145111904D01*
X220476190Y-145150000D01*
X220514285Y-145188095D01*
X220552380Y-145264285D01*
X220552380Y-145340476D01*
X220514285Y-145454761D01*
X220057142Y-145911904D01*
X220552380Y-145911904D01*
X220819047Y-145111904D02*
X221352380Y-145111904D01*
X221009523Y-145911904D01*
X208333333Y-154111904D02*
X208790476Y-154111904D01*
X208561904Y-154911904D02*
X208561904Y-154111904D01*
X209361904Y-154873809D02*
X209285714Y-154911904D01*
X209133333Y-154911904D01*
X209057142Y-154873809D01*
X209019047Y-154797619D01*
X209019047Y-154492857D01*
X209057142Y-154416666D01*
X209133333Y-154378571D01*
X209285714Y-154378571D01*
X209361904Y-154416666D01*
X209400000Y-154492857D01*
X209400000Y-154569047D01*
X209019047Y-154645238D01*
X209704761Y-154873809D02*
X209780952Y-154911904D01*
X209933333Y-154911904D01*
X210009523Y-154873809D01*
X210047619Y-154797619D01*
X210047619Y-154759523D01*
X210009523Y-154683333D01*
X209933333Y-154645238D01*
X209819047Y-154645238D01*
X209742857Y-154607142D01*
X209704761Y-154530952D01*
X209704761Y-154492857D01*
X209742857Y-154416666D01*
X209819047Y-154378571D01*
X209933333Y-154378571D01*
X210009523Y-154416666D01*
X210276190Y-154378571D02*
X210580952Y-154378571D01*
X210390476Y-154111904D02*
X210390476Y-154797619D01*
X210428571Y-154873809D01*
X210504761Y-154911904D01*
X210580952Y-154911904D01*
X210847619Y-154911904D02*
X210847619Y-154111904D01*
X211152380Y-154111904D01*
X211228571Y-154150000D01*
X211266666Y-154188095D01*
X211304761Y-154264285D01*
X211304761Y-154378571D01*
X211266666Y-154454761D01*
X211228571Y-154492857D01*
X211152380Y-154530952D01*
X210847619Y-154530952D01*
X211761904Y-154911904D02*
X211685714Y-154873809D01*
X211647619Y-154835714D01*
X211609523Y-154759523D01*
X211609523Y-154530952D01*
X211647619Y-154454761D01*
X211685714Y-154416666D01*
X211761904Y-154378571D01*
X211876190Y-154378571D01*
X211952380Y-154416666D01*
X211990476Y-154454761D01*
X212028571Y-154530952D01*
X212028571Y-154759523D01*
X211990476Y-154835714D01*
X211952380Y-154873809D01*
X211876190Y-154911904D01*
X211761904Y-154911904D01*
X212371428Y-154911904D02*
X212371428Y-154378571D01*
X212371428Y-154111904D02*
X212333333Y-154150000D01*
X212371428Y-154188095D01*
X212409523Y-154150000D01*
X212371428Y-154111904D01*
X212371428Y-154188095D01*
X212752380Y-154378571D02*
X212752380Y-154911904D01*
X212752380Y-154454761D02*
X212790476Y-154416666D01*
X212866666Y-154378571D01*
X212980952Y-154378571D01*
X213057142Y-154416666D01*
X213095238Y-154492857D01*
X213095238Y-154911904D01*
X213361904Y-154378571D02*
X213666666Y-154378571D01*
X213476190Y-154111904D02*
X213476190Y-154797619D01*
X213514285Y-154873809D01*
X213590476Y-154911904D01*
X213666666Y-154911904D01*
X209609523Y-151111904D02*
X210066666Y-151111904D01*
X209838095Y-151911904D02*
X209838095Y-151111904D01*
X210333333Y-151911904D02*
X210333333Y-151111904D01*
X210638095Y-151111904D01*
X210714285Y-151150000D01*
X210752380Y-151188095D01*
X210790476Y-151264285D01*
X210790476Y-151378571D01*
X210752380Y-151454761D01*
X210714285Y-151492857D01*
X210638095Y-151530952D01*
X210333333Y-151530952D01*
X211095238Y-151188095D02*
X211133333Y-151150000D01*
X211209523Y-151111904D01*
X211400000Y-151111904D01*
X211476190Y-151150000D01*
X211514285Y-151188095D01*
X211552380Y-151264285D01*
X211552380Y-151340476D01*
X211514285Y-151454761D01*
X211057142Y-151911904D01*
X211552380Y-151911904D01*
X212009523Y-151454761D02*
X211933333Y-151416666D01*
X211895238Y-151378571D01*
X211857142Y-151302380D01*
X211857142Y-151264285D01*
X211895238Y-151188095D01*
X211933333Y-151150000D01*
X212009523Y-151111904D01*
X212161904Y-151111904D01*
X212238095Y-151150000D01*
X212276190Y-151188095D01*
X212314285Y-151264285D01*
X212314285Y-151302380D01*
X212276190Y-151378571D01*
X212238095Y-151416666D01*
X212161904Y-151454761D01*
X212009523Y-151454761D01*
X211933333Y-151492857D01*
X211895238Y-151530952D01*
X211857142Y-151607142D01*
X211857142Y-151759523D01*
X211895238Y-151835714D01*
X211933333Y-151873809D01*
X212009523Y-151911904D01*
X212161904Y-151911904D01*
X212238095Y-151873809D01*
X212276190Y-151835714D01*
X212314285Y-151759523D01*
X212314285Y-151607142D01*
X212276190Y-151530952D01*
X212238095Y-151492857D01*
X212161904Y-151454761D01*
X211333333Y-154111904D02*
X211790476Y-154111904D01*
X211561904Y-154911904D02*
X211561904Y-154111904D01*
X212361904Y-154873809D02*
X212285714Y-154911904D01*
X212133333Y-154911904D01*
X212057142Y-154873809D01*
X212019047Y-154797619D01*
X212019047Y-154492857D01*
X212057142Y-154416666D01*
X212133333Y-154378571D01*
X212285714Y-154378571D01*
X212361904Y-154416666D01*
X212400000Y-154492857D01*
X212400000Y-154569047D01*
X212019047Y-154645238D01*
X212704761Y-154873809D02*
X212780952Y-154911904D01*
X212933333Y-154911904D01*
X213009523Y-154873809D01*
X213047619Y-154797619D01*
X213047619Y-154759523D01*
X213009523Y-154683333D01*
X212933333Y-154645238D01*
X212819047Y-154645238D01*
X212742857Y-154607142D01*
X212704761Y-154530952D01*
X212704761Y-154492857D01*
X212742857Y-154416666D01*
X212819047Y-154378571D01*
X212933333Y-154378571D01*
X213009523Y-154416666D01*
X213276190Y-154378571D02*
X213580952Y-154378571D01*
X213390476Y-154111904D02*
X213390476Y-154797619D01*
X213428571Y-154873809D01*
X213504761Y-154911904D01*
X213580952Y-154911904D01*
X213847619Y-154911904D02*
X213847619Y-154111904D01*
X214152380Y-154111904D01*
X214228571Y-154150000D01*
X214266666Y-154188095D01*
X214304761Y-154264285D01*
X214304761Y-154378571D01*
X214266666Y-154454761D01*
X214228571Y-154492857D01*
X214152380Y-154530952D01*
X213847619Y-154530952D01*
X214761904Y-154911904D02*
X214685714Y-154873809D01*
X214647619Y-154835714D01*
X214609523Y-154759523D01*
X214609523Y-154530952D01*
X214647619Y-154454761D01*
X214685714Y-154416666D01*
X214761904Y-154378571D01*
X214876190Y-154378571D01*
X214952380Y-154416666D01*
X214990476Y-154454761D01*
X215028571Y-154530952D01*
X215028571Y-154759523D01*
X214990476Y-154835714D01*
X214952380Y-154873809D01*
X214876190Y-154911904D01*
X214761904Y-154911904D01*
X215371428Y-154911904D02*
X215371428Y-154378571D01*
X215371428Y-154111904D02*
X215333333Y-154150000D01*
X215371428Y-154188095D01*
X215409523Y-154150000D01*
X215371428Y-154111904D01*
X215371428Y-154188095D01*
X215752380Y-154378571D02*
X215752380Y-154911904D01*
X215752380Y-154454761D02*
X215790476Y-154416666D01*
X215866666Y-154378571D01*
X215980952Y-154378571D01*
X216057142Y-154416666D01*
X216095238Y-154492857D01*
X216095238Y-154911904D01*
X216361904Y-154378571D02*
X216666666Y-154378571D01*
X216476190Y-154111904D02*
X216476190Y-154797619D01*
X216514285Y-154873809D01*
X216590476Y-154911904D01*
X216666666Y-154911904D01*
X212609523Y-151111904D02*
X213066666Y-151111904D01*
X212838095Y-151911904D02*
X212838095Y-151111904D01*
X213333333Y-151911904D02*
X213333333Y-151111904D01*
X213638095Y-151111904D01*
X213714285Y-151150000D01*
X213752380Y-151188095D01*
X213790476Y-151264285D01*
X213790476Y-151378571D01*
X213752380Y-151454761D01*
X213714285Y-151492857D01*
X213638095Y-151530952D01*
X213333333Y-151530952D01*
X214095238Y-151188095D02*
X214133333Y-151150000D01*
X214209523Y-151111904D01*
X214400000Y-151111904D01*
X214476190Y-151150000D01*
X214514285Y-151188095D01*
X214552380Y-151264285D01*
X214552380Y-151340476D01*
X214514285Y-151454761D01*
X214057142Y-151911904D01*
X214552380Y-151911904D01*
X214933333Y-151911904D02*
X215085714Y-151911904D01*
X215161904Y-151873809D01*
X215200000Y-151835714D01*
X215276190Y-151721428D01*
X215314285Y-151569047D01*
X215314285Y-151264285D01*
X215276190Y-151188095D01*
X215238095Y-151150000D01*
X215161904Y-151111904D01*
X215009523Y-151111904D01*
X214933333Y-151150000D01*
X214895238Y-151188095D01*
X214857142Y-151264285D01*
X214857142Y-151454761D01*
X214895238Y-151530952D01*
X214933333Y-151569047D01*
X215009523Y-151607142D01*
X215161904Y-151607142D01*
X215238095Y-151569047D01*
X215276190Y-151530952D01*
X215314285Y-151454761D01*
X214333333Y-154111904D02*
X214790476Y-154111904D01*
X214561904Y-154911904D02*
X214561904Y-154111904D01*
X215361904Y-154873809D02*
X215285714Y-154911904D01*
X215133333Y-154911904D01*
X215057142Y-154873809D01*
X215019047Y-154797619D01*
X215019047Y-154492857D01*
X215057142Y-154416666D01*
X215133333Y-154378571D01*
X215285714Y-154378571D01*
X215361904Y-154416666D01*
X215400000Y-154492857D01*
X215400000Y-154569047D01*
X215019047Y-154645238D01*
X215704761Y-154873809D02*
X215780952Y-154911904D01*
X215933333Y-154911904D01*
X216009523Y-154873809D01*
X216047619Y-154797619D01*
X216047619Y-154759523D01*
X216009523Y-154683333D01*
X215933333Y-154645238D01*
X215819047Y-154645238D01*
X215742857Y-154607142D01*
X215704761Y-154530952D01*
X215704761Y-154492857D01*
X215742857Y-154416666D01*
X215819047Y-154378571D01*
X215933333Y-154378571D01*
X216009523Y-154416666D01*
X216276190Y-154378571D02*
X216580952Y-154378571D01*
X216390476Y-154111904D02*
X216390476Y-154797619D01*
X216428571Y-154873809D01*
X216504761Y-154911904D01*
X216580952Y-154911904D01*
X216847619Y-154911904D02*
X216847619Y-154111904D01*
X217152380Y-154111904D01*
X217228571Y-154150000D01*
X217266666Y-154188095D01*
X217304761Y-154264285D01*
X217304761Y-154378571D01*
X217266666Y-154454761D01*
X217228571Y-154492857D01*
X217152380Y-154530952D01*
X216847619Y-154530952D01*
X217761904Y-154911904D02*
X217685714Y-154873809D01*
X217647619Y-154835714D01*
X217609523Y-154759523D01*
X217609523Y-154530952D01*
X217647619Y-154454761D01*
X217685714Y-154416666D01*
X217761904Y-154378571D01*
X217876190Y-154378571D01*
X217952380Y-154416666D01*
X217990476Y-154454761D01*
X218028571Y-154530952D01*
X218028571Y-154759523D01*
X217990476Y-154835714D01*
X217952380Y-154873809D01*
X217876190Y-154911904D01*
X217761904Y-154911904D01*
X218371428Y-154911904D02*
X218371428Y-154378571D01*
X218371428Y-154111904D02*
X218333333Y-154150000D01*
X218371428Y-154188095D01*
X218409523Y-154150000D01*
X218371428Y-154111904D01*
X218371428Y-154188095D01*
X218752380Y-154378571D02*
X218752380Y-154911904D01*
X218752380Y-154454761D02*
X218790476Y-154416666D01*
X218866666Y-154378571D01*
X218980952Y-154378571D01*
X219057142Y-154416666D01*
X219095238Y-154492857D01*
X219095238Y-154911904D01*
X219361904Y-154378571D02*
X219666666Y-154378571D01*
X219476190Y-154111904D02*
X219476190Y-154797619D01*
X219514285Y-154873809D01*
X219590476Y-154911904D01*
X219666666Y-154911904D01*
X215609523Y-151111904D02*
X216066666Y-151111904D01*
X215838095Y-151911904D02*
X215838095Y-151111904D01*
X216333333Y-151911904D02*
X216333333Y-151111904D01*
X216638095Y-151111904D01*
X216714285Y-151150000D01*
X216752380Y-151188095D01*
X216790476Y-151264285D01*
X216790476Y-151378571D01*
X216752380Y-151454761D01*
X216714285Y-151492857D01*
X216638095Y-151530952D01*
X216333333Y-151530952D01*
X217057142Y-151111904D02*
X217552380Y-151111904D01*
X217285714Y-151416666D01*
X217400000Y-151416666D01*
X217476190Y-151454761D01*
X217514285Y-151492857D01*
X217552380Y-151569047D01*
X217552380Y-151759523D01*
X217514285Y-151835714D01*
X217476190Y-151873809D01*
X217400000Y-151911904D01*
X217171428Y-151911904D01*
X217095238Y-151873809D01*
X217057142Y-151835714D01*
X218047619Y-151111904D02*
X218123809Y-151111904D01*
X218200000Y-151150000D01*
X218238095Y-151188095D01*
X218276190Y-151264285D01*
X218314285Y-151416666D01*
X218314285Y-151607142D01*
X218276190Y-151759523D01*
X218238095Y-151835714D01*
X218200000Y-151873809D01*
X218123809Y-151911904D01*
X218047619Y-151911904D01*
X217971428Y-151873809D01*
X217933333Y-151835714D01*
X217895238Y-151759523D01*
X217857142Y-151607142D01*
X217857142Y-151416666D01*
X217895238Y-151264285D01*
X217933333Y-151188095D01*
X217971428Y-151150000D01*
X218047619Y-151111904D01*
X217333333Y-154111904D02*
X217790476Y-154111904D01*
X217561904Y-154911904D02*
X217561904Y-154111904D01*
X218361904Y-154873809D02*
X218285714Y-154911904D01*
X218133333Y-154911904D01*
X218057142Y-154873809D01*
X218019047Y-154797619D01*
X218019047Y-154492857D01*
X218057142Y-154416666D01*
X218133333Y-154378571D01*
X218285714Y-154378571D01*
X218361904Y-154416666D01*
X218400000Y-154492857D01*
X218400000Y-154569047D01*
X218019047Y-154645238D01*
X218704761Y-154873809D02*
X218780952Y-154911904D01*
X218933333Y-154911904D01*
X219009523Y-154873809D01*
X219047619Y-154797619D01*
X219047619Y-154759523D01*
X219009523Y-154683333D01*
X218933333Y-154645238D01*
X218819047Y-154645238D01*
X218742857Y-154607142D01*
X218704761Y-154530952D01*
X218704761Y-154492857D01*
X218742857Y-154416666D01*
X218819047Y-154378571D01*
X218933333Y-154378571D01*
X219009523Y-154416666D01*
X219276190Y-154378571D02*
X219580952Y-154378571D01*
X219390476Y-154111904D02*
X219390476Y-154797619D01*
X219428571Y-154873809D01*
X219504761Y-154911904D01*
X219580952Y-154911904D01*
X219847619Y-154911904D02*
X219847619Y-154111904D01*
X220152380Y-154111904D01*
X220228571Y-154150000D01*
X220266666Y-154188095D01*
X220304761Y-154264285D01*
X220304761Y-154378571D01*
X220266666Y-154454761D01*
X220228571Y-154492857D01*
X220152380Y-154530952D01*
X219847619Y-154530952D01*
X220761904Y-154911904D02*
X220685714Y-154873809D01*
X220647619Y-154835714D01*
X220609523Y-154759523D01*
X220609523Y-154530952D01*
X220647619Y-154454761D01*
X220685714Y-154416666D01*
X220761904Y-154378571D01*
X220876190Y-154378571D01*
X220952380Y-154416666D01*
X220990476Y-154454761D01*
X221028571Y-154530952D01*
X221028571Y-154759523D01*
X220990476Y-154835714D01*
X220952380Y-154873809D01*
X220876190Y-154911904D01*
X220761904Y-154911904D01*
X221371428Y-154911904D02*
X221371428Y-154378571D01*
X221371428Y-154111904D02*
X221333333Y-154150000D01*
X221371428Y-154188095D01*
X221409523Y-154150000D01*
X221371428Y-154111904D01*
X221371428Y-154188095D01*
X221752380Y-154378571D02*
X221752380Y-154911904D01*
X221752380Y-154454761D02*
X221790476Y-154416666D01*
X221866666Y-154378571D01*
X221980952Y-154378571D01*
X222057142Y-154416666D01*
X222095238Y-154492857D01*
X222095238Y-154911904D01*
X222361904Y-154378571D02*
X222666666Y-154378571D01*
X222476190Y-154111904D02*
X222476190Y-154797619D01*
X222514285Y-154873809D01*
X222590476Y-154911904D01*
X222666666Y-154911904D01*
X218609523Y-151111904D02*
X219066666Y-151111904D01*
X218838095Y-151911904D02*
X218838095Y-151111904D01*
X219333333Y-151911904D02*
X219333333Y-151111904D01*
X219638095Y-151111904D01*
X219714285Y-151150000D01*
X219752380Y-151188095D01*
X219790476Y-151264285D01*
X219790476Y-151378571D01*
X219752380Y-151454761D01*
X219714285Y-151492857D01*
X219638095Y-151530952D01*
X219333333Y-151530952D01*
X220057142Y-151111904D02*
X220552380Y-151111904D01*
X220285714Y-151416666D01*
X220400000Y-151416666D01*
X220476190Y-151454761D01*
X220514285Y-151492857D01*
X220552380Y-151569047D01*
X220552380Y-151759523D01*
X220514285Y-151835714D01*
X220476190Y-151873809D01*
X220400000Y-151911904D01*
X220171428Y-151911904D01*
X220095238Y-151873809D01*
X220057142Y-151835714D01*
X221314285Y-151911904D02*
X220857142Y-151911904D01*
X221085714Y-151911904D02*
X221085714Y-151111904D01*
X221009523Y-151226190D01*
X220933333Y-151302380D01*
X220857142Y-151340476D01*
X235433333Y-169083333D02*
X235433333Y-168702380D01*
X235661904Y-169159523D02*
X234861904Y-168892857D01*
X235661904Y-168626190D01*
X235661904Y-168359523D02*
X234861904Y-168359523D01*
X234861904Y-168169047D01*
X234900000Y-168054761D01*
X234976190Y-167978571D01*
X235052380Y-167940476D01*
X235204761Y-167902380D01*
X235319047Y-167902380D01*
X235471428Y-167940476D01*
X235547619Y-167978571D01*
X235623809Y-168054761D01*
X235661904Y-168169047D01*
X235661904Y-168359523D01*
X235433333Y-167597619D02*
X235433333Y-167216666D01*
X235661904Y-167673809D02*
X234861904Y-167407142D01*
X235661904Y-167140476D01*
X235128571Y-166530952D02*
X235661904Y-166530952D01*
X234823809Y-166721428D02*
X235395238Y-166911904D01*
X235395238Y-166416666D01*
X234861904Y-165730952D02*
X234861904Y-166111904D01*
X235242857Y-166150000D01*
X235204761Y-166111904D01*
X235166666Y-166035714D01*
X235166666Y-165845238D01*
X235204761Y-165769047D01*
X235242857Y-165730952D01*
X235319047Y-165692857D01*
X235509523Y-165692857D01*
X235585714Y-165730952D01*
X235623809Y-165769047D01*
X235661904Y-165845238D01*
X235661904Y-166035714D01*
X235623809Y-166111904D01*
X235585714Y-166150000D01*
X234938095Y-165388095D02*
X234900000Y-165350000D01*
X234861904Y-165273809D01*
X234861904Y-165083333D01*
X234900000Y-165007142D01*
X234938095Y-164969047D01*
X235014285Y-164930952D01*
X235090476Y-164930952D01*
X235204761Y-164969047D01*
X235661904Y-165426190D01*
X235661904Y-164930952D01*
X234938095Y-164626190D02*
X234900000Y-164588095D01*
X234861904Y-164511904D01*
X234861904Y-164321428D01*
X234900000Y-164245238D01*
X234938095Y-164207142D01*
X235014285Y-164169047D01*
X235090476Y-164169047D01*
X235204761Y-164207142D01*
X235661904Y-164664285D01*
X235661904Y-164169047D01*
X235357142Y-163826190D02*
X235357142Y-163216666D01*
X235128571Y-162492857D02*
X235661904Y-162492857D01*
X234823809Y-162683333D02*
X235395238Y-162873809D01*
X235395238Y-162378571D01*
X231311904Y-166359523D02*
X231959523Y-166359523D01*
X232035714Y-166321428D01*
X232073809Y-166283333D01*
X232111904Y-166207142D01*
X232111904Y-166054761D01*
X232073809Y-165978571D01*
X232035714Y-165940476D01*
X231959523Y-165902380D01*
X231311904Y-165902380D01*
X232111904Y-165102380D02*
X232111904Y-165559523D01*
X232111904Y-165330952D02*
X231311904Y-165330952D01*
X231426190Y-165407142D01*
X231502380Y-165483333D01*
X231540476Y-165559523D01*
X215311904Y-197670952D02*
X215311904Y-198051904D01*
X214511904Y-198051904D01*
X214511904Y-197518571D02*
X214511904Y-197061428D01*
X215311904Y-197290000D02*
X214511904Y-197290000D01*
X215235714Y-196337619D02*
X215273809Y-196375714D01*
X215311904Y-196490000D01*
X215311904Y-196566190D01*
X215273809Y-196680476D01*
X215197619Y-196756666D01*
X215121428Y-196794761D01*
X214969047Y-196832857D01*
X214854761Y-196832857D01*
X214702380Y-196794761D01*
X214626190Y-196756666D01*
X214550000Y-196680476D01*
X214511904Y-196566190D01*
X214511904Y-196490000D01*
X214550000Y-196375714D01*
X214588095Y-196337619D01*
X214511904Y-195651904D02*
X214511904Y-195804285D01*
X214550000Y-195880476D01*
X214588095Y-195918571D01*
X214702380Y-195994761D01*
X214854761Y-196032857D01*
X215159523Y-196032857D01*
X215235714Y-195994761D01*
X215273809Y-195956666D01*
X215311904Y-195880476D01*
X215311904Y-195728095D01*
X215273809Y-195651904D01*
X215235714Y-195613809D01*
X215159523Y-195575714D01*
X214969047Y-195575714D01*
X214892857Y-195613809D01*
X214854761Y-195651904D01*
X214816666Y-195728095D01*
X214816666Y-195880476D01*
X214854761Y-195956666D01*
X214892857Y-195994761D01*
X214969047Y-196032857D01*
X215311904Y-195194761D02*
X215311904Y-195042380D01*
X215273809Y-194966190D01*
X215235714Y-194928095D01*
X215121428Y-194851904D01*
X214969047Y-194813809D01*
X214664285Y-194813809D01*
X214588095Y-194851904D01*
X214550000Y-194890000D01*
X214511904Y-194966190D01*
X214511904Y-195118571D01*
X214550000Y-195194761D01*
X214588095Y-195232857D01*
X214664285Y-195270952D01*
X214854761Y-195270952D01*
X214930952Y-195232857D01*
X214969047Y-195194761D01*
X215007142Y-195118571D01*
X215007142Y-194966190D01*
X214969047Y-194890000D01*
X214930952Y-194851904D01*
X214854761Y-194813809D01*
X214511904Y-194318571D02*
X214511904Y-194242380D01*
X214550000Y-194166190D01*
X214588095Y-194128095D01*
X214664285Y-194090000D01*
X214816666Y-194051904D01*
X215007142Y-194051904D01*
X215159523Y-194090000D01*
X215235714Y-194128095D01*
X215273809Y-194166190D01*
X215311904Y-194242380D01*
X215311904Y-194318571D01*
X215273809Y-194394761D01*
X215235714Y-194432857D01*
X215159523Y-194470952D01*
X215007142Y-194509047D01*
X214816666Y-194509047D01*
X214664285Y-194470952D01*
X214588095Y-194432857D01*
X214550000Y-194394761D01*
X214511904Y-194318571D01*
X214511904Y-193366190D02*
X214511904Y-193518571D01*
X214550000Y-193594761D01*
X214588095Y-193632857D01*
X214702380Y-193709047D01*
X214854761Y-193747142D01*
X215159523Y-193747142D01*
X215235714Y-193709047D01*
X215273809Y-193670952D01*
X215311904Y-193594761D01*
X215311904Y-193442380D01*
X215273809Y-193366190D01*
X215235714Y-193328095D01*
X215159523Y-193290000D01*
X214969047Y-193290000D01*
X214892857Y-193328095D01*
X214854761Y-193366190D01*
X214816666Y-193442380D01*
X214816666Y-193594761D01*
X214854761Y-193670952D01*
X214892857Y-193709047D01*
X214969047Y-193747142D01*
X211840476Y-195251904D02*
X211840476Y-195899523D01*
X211878571Y-195975714D01*
X211916666Y-196013809D01*
X211992857Y-196051904D01*
X212145238Y-196051904D01*
X212221428Y-196013809D01*
X212259523Y-195975714D01*
X212297619Y-195899523D01*
X212297619Y-195251904D01*
X212640476Y-195328095D02*
X212678571Y-195290000D01*
X212754761Y-195251904D01*
X212945238Y-195251904D01*
X213021428Y-195290000D01*
X213059523Y-195328095D01*
X213097619Y-195404285D01*
X213097619Y-195480476D01*
X213059523Y-195594761D01*
X212602380Y-196051904D01*
X213097619Y-196051904D01*
X219002380Y-198211904D02*
X219002380Y-197411904D01*
X219269047Y-197983333D01*
X219535714Y-197411904D01*
X219535714Y-198211904D01*
X220373809Y-198135714D02*
X220335714Y-198173809D01*
X220221428Y-198211904D01*
X220145238Y-198211904D01*
X220030952Y-198173809D01*
X219954761Y-198097619D01*
X219916666Y-198021428D01*
X219878571Y-197869047D01*
X219878571Y-197754761D01*
X219916666Y-197602380D01*
X219954761Y-197526190D01*
X220030952Y-197450000D01*
X220145238Y-197411904D01*
X220221428Y-197411904D01*
X220335714Y-197450000D01*
X220373809Y-197488095D01*
X220716666Y-198211904D02*
X220716666Y-197411904D01*
X221021428Y-197411904D01*
X221097619Y-197450000D01*
X221135714Y-197488095D01*
X221173809Y-197564285D01*
X221173809Y-197678571D01*
X221135714Y-197754761D01*
X221097619Y-197792857D01*
X221021428Y-197830952D01*
X220716666Y-197830952D01*
X221859523Y-197411904D02*
X221707142Y-197411904D01*
X221630952Y-197450000D01*
X221592857Y-197488095D01*
X221516666Y-197602380D01*
X221478571Y-197754761D01*
X221478571Y-198059523D01*
X221516666Y-198135714D01*
X221554761Y-198173809D01*
X221630952Y-198211904D01*
X221783333Y-198211904D01*
X221859523Y-198173809D01*
X221897619Y-198135714D01*
X221935714Y-198059523D01*
X221935714Y-197869047D01*
X221897619Y-197792857D01*
X221859523Y-197754761D01*
X221783333Y-197716666D01*
X221630952Y-197716666D01*
X221554761Y-197754761D01*
X221516666Y-197792857D01*
X221478571Y-197869047D01*
X222430952Y-197411904D02*
X222507142Y-197411904D01*
X222583333Y-197450000D01*
X222621428Y-197488095D01*
X222659523Y-197564285D01*
X222697619Y-197716666D01*
X222697619Y-197907142D01*
X222659523Y-198059523D01*
X222621428Y-198135714D01*
X222583333Y-198173809D01*
X222507142Y-198211904D01*
X222430952Y-198211904D01*
X222354761Y-198173809D01*
X222316666Y-198135714D01*
X222278571Y-198059523D01*
X222240476Y-197907142D01*
X222240476Y-197716666D01*
X222278571Y-197564285D01*
X222316666Y-197488095D01*
X222354761Y-197450000D01*
X222430952Y-197411904D01*
X223192857Y-197411904D02*
X223269047Y-197411904D01*
X223345238Y-197450000D01*
X223383333Y-197488095D01*
X223421428Y-197564285D01*
X223459523Y-197716666D01*
X223459523Y-197907142D01*
X223421428Y-198059523D01*
X223383333Y-198135714D01*
X223345238Y-198173809D01*
X223269047Y-198211904D01*
X223192857Y-198211904D01*
X223116666Y-198173809D01*
X223078571Y-198135714D01*
X223040476Y-198059523D01*
X223002380Y-197907142D01*
X223002380Y-197716666D01*
X223040476Y-197564285D01*
X223078571Y-197488095D01*
X223116666Y-197450000D01*
X223192857Y-197411904D01*
X223764285Y-197488095D02*
X223802380Y-197450000D01*
X223878571Y-197411904D01*
X224069047Y-197411904D01*
X224145238Y-197450000D01*
X224183333Y-197488095D01*
X224221428Y-197564285D01*
X224221428Y-197640476D01*
X224183333Y-197754761D01*
X223726190Y-198211904D01*
X224221428Y-198211904D01*
X224564285Y-197907142D02*
X225173809Y-197907142D01*
X225478571Y-198211904D02*
X225897619Y-197678571D01*
X225478571Y-197678571D02*
X225897619Y-198211904D01*
X226202380Y-198211904D02*
X226202380Y-197411904D01*
X226469047Y-197983333D01*
X226735714Y-197411904D01*
X226735714Y-198211904D01*
X227078571Y-198173809D02*
X227192857Y-198211904D01*
X227383333Y-198211904D01*
X227459523Y-198173809D01*
X227497619Y-198135714D01*
X227535714Y-198059523D01*
X227535714Y-197983333D01*
X227497619Y-197907142D01*
X227459523Y-197869047D01*
X227383333Y-197830952D01*
X227230952Y-197792857D01*
X227154761Y-197754761D01*
X227116666Y-197716666D01*
X227078571Y-197640476D01*
X227078571Y-197564285D01*
X227116666Y-197488095D01*
X227154761Y-197450000D01*
X227230952Y-197411904D01*
X227421428Y-197411904D01*
X227535714Y-197450000D01*
X222640476Y-194811904D02*
X222640476Y-195459523D01*
X222678571Y-195535714D01*
X222716666Y-195573809D01*
X222792857Y-195611904D01*
X222945238Y-195611904D01*
X223021428Y-195573809D01*
X223059523Y-195535714D01*
X223097619Y-195459523D01*
X223097619Y-194811904D01*
X223402380Y-194811904D02*
X223897619Y-194811904D01*
X223630952Y-195116666D01*
X223745238Y-195116666D01*
X223821428Y-195154761D01*
X223859523Y-195192857D01*
X223897619Y-195269047D01*
X223897619Y-195459523D01*
X223859523Y-195535714D01*
X223821428Y-195573809D01*
X223745238Y-195611904D01*
X223516666Y-195611904D01*
X223440476Y-195573809D01*
X223402380Y-195535714D01*
X250511904Y-168564285D02*
X249711904Y-168564285D01*
X250283333Y-168297619D01*
X249711904Y-168030952D01*
X250511904Y-168030952D01*
X250435714Y-167192857D02*
X250473809Y-167230952D01*
X250511904Y-167345238D01*
X250511904Y-167421428D01*
X250473809Y-167535714D01*
X250397619Y-167611904D01*
X250321428Y-167650000D01*
X250169047Y-167688095D01*
X250054761Y-167688095D01*
X249902380Y-167650000D01*
X249826190Y-167611904D01*
X249750000Y-167535714D01*
X249711904Y-167421428D01*
X249711904Y-167345238D01*
X249750000Y-167230952D01*
X249788095Y-167192857D01*
X250511904Y-166850000D02*
X249711904Y-166850000D01*
X249711904Y-166545238D01*
X249750000Y-166469047D01*
X249788095Y-166430952D01*
X249864285Y-166392857D01*
X249978571Y-166392857D01*
X250054761Y-166430952D01*
X250092857Y-166469047D01*
X250130952Y-166545238D01*
X250130952Y-166850000D01*
X249978571Y-165707142D02*
X250511904Y-165707142D01*
X249673809Y-165897619D02*
X250245238Y-166088095D01*
X250245238Y-165592857D01*
X249711904Y-165364285D02*
X249711904Y-164830952D01*
X250511904Y-165173809D01*
X249788095Y-164564285D02*
X249750000Y-164526190D01*
X249711904Y-164450000D01*
X249711904Y-164259523D01*
X249750000Y-164183333D01*
X249788095Y-164145238D01*
X249864285Y-164107142D01*
X249940476Y-164107142D01*
X250054761Y-164145238D01*
X250511904Y-164602380D01*
X250511904Y-164107142D01*
X250054761Y-163650000D02*
X250016666Y-163726190D01*
X249978571Y-163764285D01*
X249902380Y-163802380D01*
X249864285Y-163802380D01*
X249788095Y-163764285D01*
X249750000Y-163726190D01*
X249711904Y-163650000D01*
X249711904Y-163497619D01*
X249750000Y-163421428D01*
X249788095Y-163383333D01*
X249864285Y-163345238D01*
X249902380Y-163345238D01*
X249978571Y-163383333D01*
X250016666Y-163421428D01*
X250054761Y-163497619D01*
X250054761Y-163650000D01*
X250092857Y-163726190D01*
X250130952Y-163764285D01*
X250207142Y-163802380D01*
X250359523Y-163802380D01*
X250435714Y-163764285D01*
X250473809Y-163726190D01*
X250511904Y-163650000D01*
X250511904Y-163497619D01*
X250473809Y-163421428D01*
X250435714Y-163383333D01*
X250359523Y-163345238D01*
X250207142Y-163345238D01*
X250130952Y-163383333D01*
X250092857Y-163421428D01*
X250054761Y-163497619D01*
X250283333Y-163040476D02*
X250283333Y-162659523D01*
X250511904Y-163116666D02*
X249711904Y-162850000D01*
X250511904Y-162583333D01*
X249711904Y-162164285D02*
X249711904Y-162088095D01*
X249750000Y-162011904D01*
X249788095Y-161973809D01*
X249864285Y-161935714D01*
X250016666Y-161897619D01*
X250207142Y-161897619D01*
X250359523Y-161935714D01*
X250435714Y-161973809D01*
X250473809Y-162011904D01*
X250511904Y-162088095D01*
X250511904Y-162164285D01*
X250473809Y-162240476D01*
X250435714Y-162278571D01*
X250359523Y-162316666D01*
X250207142Y-162354761D01*
X250016666Y-162354761D01*
X249864285Y-162316666D01*
X249788095Y-162278571D01*
X249750000Y-162240476D01*
X249711904Y-162164285D01*
X252311904Y-165859523D02*
X252959523Y-165859523D01*
X253035714Y-165821428D01*
X253073809Y-165783333D01*
X253111904Y-165707142D01*
X253111904Y-165554761D01*
X253073809Y-165478571D01*
X253035714Y-165440476D01*
X252959523Y-165402380D01*
X252311904Y-165402380D01*
X252578571Y-164678571D02*
X253111904Y-164678571D01*
X252273809Y-164869047D02*
X252845238Y-165059523D01*
X252845238Y-164564285D01*
M02*
