G04 #@! TF.GenerationSoftware,KiCad,Pcbnew,5.1.4*
G04 #@! TF.CreationDate,2019-11-05T22:35:51-05:00*
G04 #@! TF.ProjectId,24_regulator_demo,32345f72-6567-4756-9c61-746f725f6465,rev?*
G04 #@! TF.SameCoordinates,Original*
G04 #@! TF.FileFunction,Other,Fab,Top*
%FSLAX46Y46*%
G04 Gerber Fmt 4.6, Leading zero omitted, Abs format (unit mm)*
G04 Created by KiCad (PCBNEW 5.1.4) date 2019-11-05 22:35:51*
%MOMM*%
%LPD*%
G04 APERTURE LIST*
%ADD10C,0.150000*%
G04 APERTURE END LIST*
D10*
X229866666Y-126361904D02*
X229485714Y-126361904D01*
X229485714Y-125561904D01*
X230095238Y-125638095D02*
X230133333Y-125600000D01*
X230209523Y-125561904D01*
X230400000Y-125561904D01*
X230476190Y-125600000D01*
X230514285Y-125638095D01*
X230552380Y-125714285D01*
X230552380Y-125790476D01*
X230514285Y-125904761D01*
X230057142Y-126361904D01*
X230552380Y-126361904D01*
X218116666Y-140361904D02*
X217735714Y-140361904D01*
X217735714Y-139561904D01*
X218802380Y-140361904D02*
X218345238Y-140361904D01*
X218573809Y-140361904D02*
X218573809Y-139561904D01*
X218497619Y-139676190D01*
X218421428Y-139752380D01*
X218345238Y-139790476D01*
X214250000Y-144500000D02*
X214250000Y-136750000D01*
X222250000Y-144500000D02*
X214250000Y-144500000D01*
X222250000Y-136750000D02*
X222250000Y-144500000D01*
X214250000Y-136750000D02*
X222250000Y-136750000D01*
X226250000Y-130750000D02*
X226250000Y-122750000D01*
X234000000Y-130750000D02*
X226250000Y-130750000D01*
X234000000Y-122750000D02*
X234000000Y-130750000D01*
X226250000Y-122750000D02*
X234000000Y-122750000D01*
X223350000Y-153450000D02*
X224150000Y-153450000D01*
X224150000Y-153450000D02*
X224150000Y-155050000D01*
X224150000Y-155050000D02*
X223350000Y-155050000D01*
X223350000Y-155050000D02*
X223350000Y-153450000D01*
X221950000Y-156600000D02*
X223550000Y-156600000D01*
X221950000Y-157400000D02*
X221950000Y-156600000D01*
X223550000Y-157400000D02*
X221950000Y-157400000D01*
X223550000Y-156600000D02*
X223550000Y-157400000D01*
X223337500Y-125900000D02*
X221737500Y-125900000D01*
X223337500Y-125100000D02*
X223337500Y-125900000D01*
X221737500Y-125100000D02*
X223337500Y-125100000D01*
X221737500Y-125900000D02*
X221737500Y-125100000D01*
X229300000Y-139850000D02*
X230900000Y-139850000D01*
X229300000Y-140650000D02*
X229300000Y-139850000D01*
X230900000Y-140650000D02*
X229300000Y-140650000D01*
X230900000Y-139850000D02*
X230900000Y-140650000D01*
X229300000Y-137850000D02*
X230900000Y-137850000D01*
X229300000Y-138650000D02*
X229300000Y-137850000D01*
X230900000Y-138650000D02*
X229300000Y-138650000D01*
X230900000Y-137850000D02*
X230900000Y-138650000D01*
X229200000Y-115400000D02*
X229200000Y-114600000D01*
X229200000Y-114600000D02*
X230800000Y-114600000D01*
X230800000Y-114600000D02*
X230800000Y-115400000D01*
X230800000Y-115400000D02*
X229200000Y-115400000D01*
X227850000Y-151450000D02*
X228650000Y-151450000D01*
X228650000Y-151450000D02*
X228650000Y-153050000D01*
X228650000Y-153050000D02*
X227850000Y-153050000D01*
X227850000Y-153050000D02*
X227850000Y-151450000D01*
X228450000Y-155400000D02*
X228450000Y-154600000D01*
X228450000Y-154600000D02*
X230050000Y-154600000D01*
X230050000Y-154600000D02*
X230050000Y-155400000D01*
X230050000Y-155400000D02*
X228450000Y-155400000D01*
X220700000Y-135200000D02*
X218900000Y-135200000D01*
X218900000Y-135200000D02*
X218900000Y-133800000D01*
X218900000Y-133800000D02*
X220700000Y-133800000D01*
X220700000Y-133800000D02*
X220700000Y-135200000D01*
X220100000Y-134850000D02*
X220100000Y-134150000D01*
X220100000Y-134500000D02*
X220300000Y-134500000D01*
X220100000Y-134500000D02*
X219600000Y-134850000D01*
X219600000Y-134850000D02*
X219600000Y-134150000D01*
X219600000Y-134150000D02*
X220100000Y-134500000D01*
X219600000Y-134500000D02*
X219350000Y-134500000D01*
X231650000Y-165012500D02*
X231650000Y-163712500D01*
X231650000Y-163712500D02*
X231350000Y-163412500D01*
X231350000Y-163412500D02*
X230850000Y-163412500D01*
X230850000Y-163412500D02*
X230850000Y-165012500D01*
X230850000Y-165012500D02*
X231650000Y-165012500D01*
X236250000Y-122300000D02*
X236250000Y-122050000D01*
X236600000Y-122300000D02*
X236250000Y-122800000D01*
X235900000Y-122300000D02*
X236600000Y-122300000D01*
X236250000Y-122800000D02*
X235900000Y-122300000D01*
X236250000Y-122800000D02*
X236250000Y-123000000D01*
X235900000Y-122800000D02*
X236600000Y-122800000D01*
X236950000Y-123400000D02*
X235550000Y-123400000D01*
X236950000Y-121600000D02*
X236950000Y-123400000D01*
X235550000Y-121600000D02*
X236950000Y-121600000D01*
X235550000Y-123400000D02*
X235550000Y-121600000D01*
X216050000Y-115900000D02*
X216050000Y-115100000D01*
X214450000Y-115900000D02*
X216050000Y-115900000D01*
X214450000Y-115400000D02*
X214450000Y-115900000D01*
X214750000Y-115100000D02*
X214450000Y-115400000D01*
X216050000Y-115100000D02*
X214750000Y-115100000D01*
X238800000Y-115100000D02*
X237500000Y-115100000D01*
X237500000Y-115100000D02*
X237200000Y-115400000D01*
X237200000Y-115400000D02*
X237200000Y-115900000D01*
X237200000Y-115900000D02*
X238800000Y-115900000D01*
X238800000Y-115900000D02*
X238800000Y-115100000D01*
X227520000Y-164365000D02*
X227520000Y-166270000D01*
X227520000Y-166270000D02*
X222440000Y-166270000D01*
X222440000Y-166270000D02*
X222440000Y-163730000D01*
X222440000Y-163730000D02*
X226885000Y-163730000D01*
X226885000Y-163730000D02*
X227520000Y-164365000D01*
X221190000Y-110635000D02*
X221190000Y-108730000D01*
X221190000Y-108730000D02*
X228810000Y-108730000D01*
X228810000Y-108730000D02*
X228810000Y-111270000D01*
X228810000Y-111270000D02*
X221825000Y-111270000D01*
X221825000Y-111270000D02*
X221190000Y-110635000D01*
X222150000Y-155050000D02*
X221350000Y-155050000D01*
X221350000Y-155050000D02*
X221350000Y-153450000D01*
X221350000Y-153450000D02*
X222150000Y-153450000D01*
X222150000Y-153450000D02*
X222150000Y-155050000D01*
X215050000Y-150650000D02*
X213450000Y-150650000D01*
X215050000Y-149850000D02*
X215050000Y-150650000D01*
X213450000Y-149850000D02*
X215050000Y-149850000D01*
X213450000Y-150650000D02*
X213450000Y-149850000D01*
X216950000Y-150650000D02*
X216950000Y-149850000D01*
X216950000Y-149850000D02*
X218550000Y-149850000D01*
X218550000Y-149850000D02*
X218550000Y-150650000D01*
X218550000Y-150650000D02*
X216950000Y-150650000D01*
X232850000Y-165012500D02*
X232850000Y-163412500D01*
X233650000Y-165012500D02*
X232850000Y-165012500D01*
X233650000Y-163412500D02*
X233650000Y-165012500D01*
X232850000Y-163412500D02*
X233650000Y-163412500D01*
X237050000Y-151150000D02*
X235450000Y-151150000D01*
X237050000Y-150350000D02*
X237050000Y-151150000D01*
X235450000Y-150350000D02*
X237050000Y-150350000D01*
X235450000Y-151150000D02*
X235450000Y-150350000D01*
X238987500Y-151150000D02*
X238987500Y-150350000D01*
X238987500Y-150350000D02*
X240587500Y-150350000D01*
X240587500Y-150350000D02*
X240587500Y-151150000D01*
X240587500Y-151150000D02*
X238987500Y-151150000D01*
X230650000Y-153050000D02*
X229850000Y-153050000D01*
X229850000Y-153050000D02*
X229850000Y-151450000D01*
X229850000Y-151450000D02*
X230650000Y-151450000D01*
X230650000Y-151450000D02*
X230650000Y-153050000D01*
X210950000Y-115100000D02*
X212550000Y-115100000D01*
X210950000Y-115900000D02*
X210950000Y-115100000D01*
X212550000Y-115900000D02*
X210950000Y-115900000D01*
X212550000Y-115100000D02*
X212550000Y-115900000D01*
X240700000Y-115100000D02*
X242300000Y-115100000D01*
X240700000Y-115900000D02*
X240700000Y-115100000D01*
X242300000Y-115900000D02*
X240700000Y-115900000D01*
X242300000Y-115100000D02*
X242300000Y-115900000D01*
X208750000Y-164600000D02*
X211250000Y-164600000D01*
X211250000Y-164600000D02*
X211250000Y-165400000D01*
X211250000Y-165400000D02*
X208750000Y-165400000D01*
X208750000Y-165400000D02*
X208750000Y-164600000D01*
X211600000Y-165000000D02*
G75*
G03X211600000Y-165000000I-1600000J0D01*
G01*
X225850000Y-143175000D02*
X229250000Y-143175000D01*
X229250000Y-143175000D02*
X229250000Y-149675000D01*
X229250000Y-149675000D02*
X224850000Y-149675000D01*
X224850000Y-149675000D02*
X224850000Y-144175000D01*
X224850000Y-144175000D02*
X225850000Y-143175000D01*
X224100000Y-129050000D02*
X220900000Y-129050000D01*
X224100000Y-127450000D02*
X224100000Y-129050000D01*
X220900000Y-127450000D02*
X224100000Y-127450000D01*
X220900000Y-129050000D02*
X220900000Y-127450000D01*
X220900000Y-132050000D02*
X220900000Y-130450000D01*
X220900000Y-130450000D02*
X224100000Y-130450000D01*
X224100000Y-130450000D02*
X224100000Y-132050000D01*
X224100000Y-132050000D02*
X220900000Y-132050000D01*
X231700000Y-132000000D02*
X231700000Y-133600000D01*
X231700000Y-133600000D02*
X228500000Y-133600000D01*
X228500000Y-133600000D02*
X228500000Y-132000000D01*
X228500000Y-132000000D02*
X231700000Y-132000000D01*
X228500000Y-135000000D02*
X231700000Y-135000000D01*
X228500000Y-136600000D02*
X228500000Y-135000000D01*
X231700000Y-136600000D02*
X228500000Y-136600000D01*
X231700000Y-135000000D02*
X231700000Y-136600000D01*
X232900000Y-146300000D02*
X232900000Y-144700000D01*
X232900000Y-144700000D02*
X236100000Y-144700000D01*
X236100000Y-144700000D02*
X236100000Y-146300000D01*
X236100000Y-146300000D02*
X232900000Y-146300000D01*
X231600000Y-118300000D02*
X228400000Y-118300000D01*
X231600000Y-116700000D02*
X231600000Y-118300000D01*
X228400000Y-116700000D02*
X231600000Y-116700000D01*
X228400000Y-118300000D02*
X228400000Y-116700000D01*
X228400000Y-121300000D02*
X228400000Y-119700000D01*
X228400000Y-119700000D02*
X231600000Y-119700000D01*
X231600000Y-119700000D02*
X231600000Y-121300000D01*
X231600000Y-121300000D02*
X228400000Y-121300000D01*
X232900000Y-149050000D02*
X232900000Y-147450000D01*
X232900000Y-147450000D02*
X236100000Y-147450000D01*
X236100000Y-147450000D02*
X236100000Y-149050000D01*
X236100000Y-149050000D02*
X232900000Y-149050000D01*
X240600000Y-166800000D02*
X240600000Y-165200000D01*
X241400000Y-166800000D02*
X240600000Y-166800000D01*
X241400000Y-165200000D02*
X241400000Y-166800000D01*
X240600000Y-165200000D02*
X241400000Y-165200000D01*
X243600000Y-165200000D02*
X244400000Y-165200000D01*
X244400000Y-165200000D02*
X244400000Y-166800000D01*
X244400000Y-166800000D02*
X243600000Y-166800000D01*
X243600000Y-166800000D02*
X243600000Y-165200000D01*
X209800000Y-106400000D02*
X208200000Y-106400000D01*
X209800000Y-105600000D02*
X209800000Y-106400000D01*
X208200000Y-105600000D02*
X209800000Y-105600000D01*
X208200000Y-106400000D02*
X208200000Y-105600000D01*
X208200000Y-109400000D02*
X208200000Y-108600000D01*
X208200000Y-108600000D02*
X209800000Y-108600000D01*
X209800000Y-108600000D02*
X209800000Y-109400000D01*
X209800000Y-109400000D02*
X208200000Y-109400000D01*
X223897619Y-156638095D02*
X223935714Y-156600000D01*
X224011904Y-156561904D01*
X224202380Y-156561904D01*
X224278571Y-156600000D01*
X224316666Y-156638095D01*
X224354761Y-156714285D01*
X224354761Y-156790476D01*
X224316666Y-156904761D01*
X223859523Y-157361904D01*
X224354761Y-157361904D01*
X224621428Y-156561904D02*
X225154761Y-156561904D01*
X224811904Y-157361904D01*
X225611904Y-156561904D02*
X225688095Y-156561904D01*
X225764285Y-156600000D01*
X225802380Y-156638095D01*
X225840476Y-156714285D01*
X225878571Y-156866666D01*
X225878571Y-157057142D01*
X225840476Y-157209523D01*
X225802380Y-157285714D01*
X225764285Y-157323809D01*
X225688095Y-157361904D01*
X225611904Y-157361904D01*
X225535714Y-157323809D01*
X225497619Y-157285714D01*
X225459523Y-157209523D01*
X225421428Y-157057142D01*
X225421428Y-156866666D01*
X225459523Y-156714285D01*
X225497619Y-156638095D01*
X225535714Y-156600000D01*
X225611904Y-156561904D01*
X226221428Y-156828571D02*
X226221428Y-157628571D01*
X226221428Y-156866666D02*
X226297619Y-156828571D01*
X226450000Y-156828571D01*
X226526190Y-156866666D01*
X226564285Y-156904761D01*
X226602380Y-156980952D01*
X226602380Y-157209523D01*
X226564285Y-157285714D01*
X226526190Y-157323809D01*
X226450000Y-157361904D01*
X226297619Y-157361904D01*
X226221428Y-157323809D01*
X220866666Y-157285714D02*
X220828571Y-157323809D01*
X220714285Y-157361904D01*
X220638095Y-157361904D01*
X220523809Y-157323809D01*
X220447619Y-157247619D01*
X220409523Y-157171428D01*
X220371428Y-157019047D01*
X220371428Y-156904761D01*
X220409523Y-156752380D01*
X220447619Y-156676190D01*
X220523809Y-156600000D01*
X220638095Y-156561904D01*
X220714285Y-156561904D01*
X220828571Y-156600000D01*
X220866666Y-156638095D01*
X221171428Y-156638095D02*
X221209523Y-156600000D01*
X221285714Y-156561904D01*
X221476190Y-156561904D01*
X221552380Y-156600000D01*
X221590476Y-156638095D01*
X221628571Y-156714285D01*
X221628571Y-156790476D01*
X221590476Y-156904761D01*
X221133333Y-157361904D01*
X221628571Y-157361904D01*
X231528571Y-139811904D02*
X231604761Y-139811904D01*
X231680952Y-139850000D01*
X231719047Y-139888095D01*
X231757142Y-139964285D01*
X231795238Y-140116666D01*
X231795238Y-140307142D01*
X231757142Y-140459523D01*
X231719047Y-140535714D01*
X231680952Y-140573809D01*
X231604761Y-140611904D01*
X231528571Y-140611904D01*
X231452380Y-140573809D01*
X231414285Y-140535714D01*
X231376190Y-140459523D01*
X231338095Y-140307142D01*
X231338095Y-140116666D01*
X231376190Y-139964285D01*
X231414285Y-139888095D01*
X231452380Y-139850000D01*
X231528571Y-139811904D01*
X232138095Y-140535714D02*
X232176190Y-140573809D01*
X232138095Y-140611904D01*
X232100000Y-140573809D01*
X232138095Y-140535714D01*
X232138095Y-140611904D01*
X232938095Y-140611904D02*
X232480952Y-140611904D01*
X232709523Y-140611904D02*
X232709523Y-139811904D01*
X232633333Y-139926190D01*
X232557142Y-140002380D01*
X232480952Y-140040476D01*
X233623809Y-140078571D02*
X233623809Y-140611904D01*
X233280952Y-140078571D02*
X233280952Y-140497619D01*
X233319047Y-140573809D01*
X233395238Y-140611904D01*
X233509523Y-140611904D01*
X233585714Y-140573809D01*
X233623809Y-140535714D01*
X228116666Y-140535714D02*
X228078571Y-140573809D01*
X227964285Y-140611904D01*
X227888095Y-140611904D01*
X227773809Y-140573809D01*
X227697619Y-140497619D01*
X227659523Y-140421428D01*
X227621428Y-140269047D01*
X227621428Y-140154761D01*
X227659523Y-140002380D01*
X227697619Y-139926190D01*
X227773809Y-139850000D01*
X227888095Y-139811904D01*
X227964285Y-139811904D01*
X228078571Y-139850000D01*
X228116666Y-139888095D01*
X228573809Y-140154761D02*
X228497619Y-140116666D01*
X228459523Y-140078571D01*
X228421428Y-140002380D01*
X228421428Y-139964285D01*
X228459523Y-139888095D01*
X228497619Y-139850000D01*
X228573809Y-139811904D01*
X228726190Y-139811904D01*
X228802380Y-139850000D01*
X228840476Y-139888095D01*
X228878571Y-139964285D01*
X228878571Y-140002380D01*
X228840476Y-140078571D01*
X228802380Y-140116666D01*
X228726190Y-140154761D01*
X228573809Y-140154761D01*
X228497619Y-140192857D01*
X228459523Y-140230952D01*
X228421428Y-140307142D01*
X228421428Y-140459523D01*
X228459523Y-140535714D01*
X228497619Y-140573809D01*
X228573809Y-140611904D01*
X228726190Y-140611904D01*
X228802380Y-140573809D01*
X228840476Y-140535714D01*
X228878571Y-140459523D01*
X228878571Y-140307142D01*
X228840476Y-140230952D01*
X228802380Y-140192857D01*
X228726190Y-140154761D01*
X230647619Y-154561904D02*
X230723809Y-154561904D01*
X230800000Y-154600000D01*
X230838095Y-154638095D01*
X230876190Y-154714285D01*
X230914285Y-154866666D01*
X230914285Y-155057142D01*
X230876190Y-155209523D01*
X230838095Y-155285714D01*
X230800000Y-155323809D01*
X230723809Y-155361904D01*
X230647619Y-155361904D01*
X230571428Y-155323809D01*
X230533333Y-155285714D01*
X230495238Y-155209523D01*
X230457142Y-155057142D01*
X230457142Y-154866666D01*
X230495238Y-154714285D01*
X230533333Y-154638095D01*
X230571428Y-154600000D01*
X230647619Y-154561904D01*
X231257142Y-155285714D02*
X231295238Y-155323809D01*
X231257142Y-155361904D01*
X231219047Y-155323809D01*
X231257142Y-155285714D01*
X231257142Y-155361904D01*
X231600000Y-154638095D02*
X231638095Y-154600000D01*
X231714285Y-154561904D01*
X231904761Y-154561904D01*
X231980952Y-154600000D01*
X232019047Y-154638095D01*
X232057142Y-154714285D01*
X232057142Y-154790476D01*
X232019047Y-154904761D01*
X231561904Y-155361904D01*
X232057142Y-155361904D01*
X232361904Y-154638095D02*
X232400000Y-154600000D01*
X232476190Y-154561904D01*
X232666666Y-154561904D01*
X232742857Y-154600000D01*
X232780952Y-154638095D01*
X232819047Y-154714285D01*
X232819047Y-154790476D01*
X232780952Y-154904761D01*
X232323809Y-155361904D01*
X232819047Y-155361904D01*
X233504761Y-154828571D02*
X233504761Y-155361904D01*
X233161904Y-154828571D02*
X233161904Y-155247619D01*
X233200000Y-155323809D01*
X233276190Y-155361904D01*
X233390476Y-155361904D01*
X233466666Y-155323809D01*
X233504761Y-155285714D01*
X226485714Y-155285714D02*
X226447619Y-155323809D01*
X226333333Y-155361904D01*
X226257142Y-155361904D01*
X226142857Y-155323809D01*
X226066666Y-155247619D01*
X226028571Y-155171428D01*
X225990476Y-155019047D01*
X225990476Y-154904761D01*
X226028571Y-154752380D01*
X226066666Y-154676190D01*
X226142857Y-154600000D01*
X226257142Y-154561904D01*
X226333333Y-154561904D01*
X226447619Y-154600000D01*
X226485714Y-154638095D01*
X227247619Y-155361904D02*
X226790476Y-155361904D01*
X227019047Y-155361904D02*
X227019047Y-154561904D01*
X226942857Y-154676190D01*
X226866666Y-154752380D01*
X226790476Y-154790476D01*
X227933333Y-154561904D02*
X227780952Y-154561904D01*
X227704761Y-154600000D01*
X227666666Y-154638095D01*
X227590476Y-154752380D01*
X227552380Y-154904761D01*
X227552380Y-155209523D01*
X227590476Y-155285714D01*
X227628571Y-155323809D01*
X227704761Y-155361904D01*
X227857142Y-155361904D01*
X227933333Y-155323809D01*
X227971428Y-155285714D01*
X228009523Y-155209523D01*
X228009523Y-155019047D01*
X227971428Y-154942857D01*
X227933333Y-154904761D01*
X227857142Y-154866666D01*
X227704761Y-154866666D01*
X227628571Y-154904761D01*
X227590476Y-154942857D01*
X227552380Y-155019047D01*
X210461904Y-134861904D02*
X210461904Y-134061904D01*
X210919047Y-134861904D01*
X210919047Y-134061904D01*
X211261904Y-134823809D02*
X211376190Y-134861904D01*
X211566666Y-134861904D01*
X211642857Y-134823809D01*
X211680952Y-134785714D01*
X211719047Y-134709523D01*
X211719047Y-134633333D01*
X211680952Y-134557142D01*
X211642857Y-134519047D01*
X211566666Y-134480952D01*
X211414285Y-134442857D01*
X211338095Y-134404761D01*
X211300000Y-134366666D01*
X211261904Y-134290476D01*
X211261904Y-134214285D01*
X211300000Y-134138095D01*
X211338095Y-134100000D01*
X211414285Y-134061904D01*
X211604761Y-134061904D01*
X211719047Y-134100000D01*
X212519047Y-134861904D02*
X212252380Y-134480952D01*
X212061904Y-134861904D02*
X212061904Y-134061904D01*
X212366666Y-134061904D01*
X212442857Y-134100000D01*
X212480952Y-134138095D01*
X212519047Y-134214285D01*
X212519047Y-134328571D01*
X212480952Y-134404761D01*
X212442857Y-134442857D01*
X212366666Y-134480952D01*
X212061904Y-134480952D01*
X213014285Y-134061904D02*
X213090476Y-134061904D01*
X213166666Y-134100000D01*
X213204761Y-134138095D01*
X213242857Y-134214285D01*
X213280952Y-134366666D01*
X213280952Y-134557142D01*
X213242857Y-134709523D01*
X213204761Y-134785714D01*
X213166666Y-134823809D01*
X213090476Y-134861904D01*
X213014285Y-134861904D01*
X212938095Y-134823809D01*
X212900000Y-134785714D01*
X212861904Y-134709523D01*
X212823809Y-134557142D01*
X212823809Y-134366666D01*
X212861904Y-134214285D01*
X212900000Y-134138095D01*
X212938095Y-134100000D01*
X213014285Y-134061904D01*
X214004761Y-134061904D02*
X213623809Y-134061904D01*
X213585714Y-134442857D01*
X213623809Y-134404761D01*
X213700000Y-134366666D01*
X213890476Y-134366666D01*
X213966666Y-134404761D01*
X214004761Y-134442857D01*
X214042857Y-134519047D01*
X214042857Y-134709523D01*
X214004761Y-134785714D01*
X213966666Y-134823809D01*
X213890476Y-134861904D01*
X213700000Y-134861904D01*
X213623809Y-134823809D01*
X213585714Y-134785714D01*
X214309523Y-134061904D02*
X214804761Y-134061904D01*
X214538095Y-134366666D01*
X214652380Y-134366666D01*
X214728571Y-134404761D01*
X214766666Y-134442857D01*
X214804761Y-134519047D01*
X214804761Y-134709523D01*
X214766666Y-134785714D01*
X214728571Y-134823809D01*
X214652380Y-134861904D01*
X214423809Y-134861904D01*
X214347619Y-134823809D01*
X214309523Y-134785714D01*
X215300000Y-134061904D02*
X215376190Y-134061904D01*
X215452380Y-134100000D01*
X215490476Y-134138095D01*
X215528571Y-134214285D01*
X215566666Y-134366666D01*
X215566666Y-134557142D01*
X215528571Y-134709523D01*
X215490476Y-134785714D01*
X215452380Y-134823809D01*
X215376190Y-134861904D01*
X215300000Y-134861904D01*
X215223809Y-134823809D01*
X215185714Y-134785714D01*
X215147619Y-134709523D01*
X215109523Y-134557142D01*
X215109523Y-134366666D01*
X215147619Y-134214285D01*
X215185714Y-134138095D01*
X215223809Y-134100000D01*
X215300000Y-134061904D01*
X215909523Y-134861904D02*
X215909523Y-134061904D01*
X215909523Y-134442857D02*
X216366666Y-134442857D01*
X216366666Y-134861904D02*
X216366666Y-134061904D01*
X216633333Y-134061904D02*
X217090476Y-134061904D01*
X216861904Y-134861904D02*
X216861904Y-134061904D01*
X217776190Y-134861904D02*
X217319047Y-134861904D01*
X217547619Y-134861904D02*
X217547619Y-134061904D01*
X217471428Y-134176190D01*
X217395238Y-134252380D01*
X217319047Y-134290476D01*
X218538095Y-134100000D02*
X218461904Y-134061904D01*
X218347619Y-134061904D01*
X218233333Y-134100000D01*
X218157142Y-134176190D01*
X218119047Y-134252380D01*
X218080952Y-134404761D01*
X218080952Y-134519047D01*
X218119047Y-134671428D01*
X218157142Y-134747619D01*
X218233333Y-134823809D01*
X218347619Y-134861904D01*
X218423809Y-134861904D01*
X218538095Y-134823809D01*
X218576190Y-134785714D01*
X218576190Y-134519047D01*
X218423809Y-134519047D01*
X221159523Y-134861904D02*
X221159523Y-134061904D01*
X221350000Y-134061904D01*
X221464285Y-134100000D01*
X221540476Y-134176190D01*
X221578571Y-134252380D01*
X221616666Y-134404761D01*
X221616666Y-134519047D01*
X221578571Y-134671428D01*
X221540476Y-134747619D01*
X221464285Y-134823809D01*
X221350000Y-134861904D01*
X221159523Y-134861904D01*
X222378571Y-134861904D02*
X221921428Y-134861904D01*
X222150000Y-134861904D02*
X222150000Y-134061904D01*
X222073809Y-134176190D01*
X221997619Y-134252380D01*
X221921428Y-134290476D01*
X230850000Y-162583333D02*
X230811904Y-162659523D01*
X230811904Y-162773809D01*
X230850000Y-162888095D01*
X230926190Y-162964285D01*
X231002380Y-163002380D01*
X231154761Y-163040476D01*
X231269047Y-163040476D01*
X231421428Y-163002380D01*
X231497619Y-162964285D01*
X231573809Y-162888095D01*
X231611904Y-162773809D01*
X231611904Y-162697619D01*
X231573809Y-162583333D01*
X231535714Y-162545238D01*
X231269047Y-162545238D01*
X231269047Y-162697619D01*
X231611904Y-161745238D02*
X231230952Y-162011904D01*
X231611904Y-162202380D02*
X230811904Y-162202380D01*
X230811904Y-161897619D01*
X230850000Y-161821428D01*
X230888095Y-161783333D01*
X230964285Y-161745238D01*
X231078571Y-161745238D01*
X231154761Y-161783333D01*
X231192857Y-161821428D01*
X231230952Y-161897619D01*
X231230952Y-162202380D01*
X231192857Y-161402380D02*
X231192857Y-161135714D01*
X231611904Y-161021428D02*
X231611904Y-161402380D01*
X230811904Y-161402380D01*
X230811904Y-161021428D01*
X231192857Y-160678571D02*
X231192857Y-160411904D01*
X231611904Y-160297619D02*
X231611904Y-160678571D01*
X230811904Y-160678571D01*
X230811904Y-160297619D01*
X231611904Y-159954761D02*
X230811904Y-159954761D01*
X231611904Y-159497619D01*
X230811904Y-159497619D01*
X231611904Y-166590476D02*
X230811904Y-166590476D01*
X230811904Y-166400000D01*
X230850000Y-166285714D01*
X230926190Y-166209523D01*
X231002380Y-166171428D01*
X231154761Y-166133333D01*
X231269047Y-166133333D01*
X231421428Y-166171428D01*
X231497619Y-166209523D01*
X231573809Y-166285714D01*
X231611904Y-166400000D01*
X231611904Y-166590476D01*
X230888095Y-165828571D02*
X230850000Y-165790476D01*
X230811904Y-165714285D01*
X230811904Y-165523809D01*
X230850000Y-165447619D01*
X230888095Y-165409523D01*
X230964285Y-165371428D01*
X231040476Y-165371428D01*
X231154761Y-165409523D01*
X231611904Y-165866666D01*
X231611904Y-165371428D01*
X236611904Y-131788095D02*
X235811904Y-131788095D01*
X236611904Y-131330952D01*
X235811904Y-131330952D01*
X236573809Y-130988095D02*
X236611904Y-130873809D01*
X236611904Y-130683333D01*
X236573809Y-130607142D01*
X236535714Y-130569047D01*
X236459523Y-130530952D01*
X236383333Y-130530952D01*
X236307142Y-130569047D01*
X236269047Y-130607142D01*
X236230952Y-130683333D01*
X236192857Y-130835714D01*
X236154761Y-130911904D01*
X236116666Y-130950000D01*
X236040476Y-130988095D01*
X235964285Y-130988095D01*
X235888095Y-130950000D01*
X235850000Y-130911904D01*
X235811904Y-130835714D01*
X235811904Y-130645238D01*
X235850000Y-130530952D01*
X236611904Y-129730952D02*
X236230952Y-129997619D01*
X236611904Y-130188095D02*
X235811904Y-130188095D01*
X235811904Y-129883333D01*
X235850000Y-129807142D01*
X235888095Y-129769047D01*
X235964285Y-129730952D01*
X236078571Y-129730952D01*
X236154761Y-129769047D01*
X236192857Y-129807142D01*
X236230952Y-129883333D01*
X236230952Y-130188095D01*
X235811904Y-129235714D02*
X235811904Y-129159523D01*
X235850000Y-129083333D01*
X235888095Y-129045238D01*
X235964285Y-129007142D01*
X236116666Y-128969047D01*
X236307142Y-128969047D01*
X236459523Y-129007142D01*
X236535714Y-129045238D01*
X236573809Y-129083333D01*
X236611904Y-129159523D01*
X236611904Y-129235714D01*
X236573809Y-129311904D01*
X236535714Y-129350000D01*
X236459523Y-129388095D01*
X236307142Y-129426190D01*
X236116666Y-129426190D01*
X235964285Y-129388095D01*
X235888095Y-129350000D01*
X235850000Y-129311904D01*
X235811904Y-129235714D01*
X235811904Y-128245238D02*
X235811904Y-128626190D01*
X236192857Y-128664285D01*
X236154761Y-128626190D01*
X236116666Y-128550000D01*
X236116666Y-128359523D01*
X236154761Y-128283333D01*
X236192857Y-128245238D01*
X236269047Y-128207142D01*
X236459523Y-128207142D01*
X236535714Y-128245238D01*
X236573809Y-128283333D01*
X236611904Y-128359523D01*
X236611904Y-128550000D01*
X236573809Y-128626190D01*
X236535714Y-128664285D01*
X235811904Y-127940476D02*
X235811904Y-127445238D01*
X236116666Y-127711904D01*
X236116666Y-127597619D01*
X236154761Y-127521428D01*
X236192857Y-127483333D01*
X236269047Y-127445238D01*
X236459523Y-127445238D01*
X236535714Y-127483333D01*
X236573809Y-127521428D01*
X236611904Y-127597619D01*
X236611904Y-127826190D01*
X236573809Y-127902380D01*
X236535714Y-127940476D01*
X235811904Y-126950000D02*
X235811904Y-126873809D01*
X235850000Y-126797619D01*
X235888095Y-126759523D01*
X235964285Y-126721428D01*
X236116666Y-126683333D01*
X236307142Y-126683333D01*
X236459523Y-126721428D01*
X236535714Y-126759523D01*
X236573809Y-126797619D01*
X236611904Y-126873809D01*
X236611904Y-126950000D01*
X236573809Y-127026190D01*
X236535714Y-127064285D01*
X236459523Y-127102380D01*
X236307142Y-127140476D01*
X236116666Y-127140476D01*
X235964285Y-127102380D01*
X235888095Y-127064285D01*
X235850000Y-127026190D01*
X235811904Y-126950000D01*
X236611904Y-126340476D02*
X235811904Y-126340476D01*
X236192857Y-126340476D02*
X236192857Y-125883333D01*
X236611904Y-125883333D02*
X235811904Y-125883333D01*
X235811904Y-125616666D02*
X235811904Y-125159523D01*
X236611904Y-125388095D02*
X235811904Y-125388095D01*
X236611904Y-124473809D02*
X236611904Y-124930952D01*
X236611904Y-124702380D02*
X235811904Y-124702380D01*
X235926190Y-124778571D01*
X236002380Y-124854761D01*
X236040476Y-124930952D01*
X235850000Y-123711904D02*
X235811904Y-123788095D01*
X235811904Y-123902380D01*
X235850000Y-124016666D01*
X235926190Y-124092857D01*
X236002380Y-124130952D01*
X236154761Y-124169047D01*
X236269047Y-124169047D01*
X236421428Y-124130952D01*
X236497619Y-124092857D01*
X236573809Y-124016666D01*
X236611904Y-123902380D01*
X236611904Y-123826190D01*
X236573809Y-123711904D01*
X236535714Y-123673809D01*
X236269047Y-123673809D01*
X236269047Y-123826190D01*
X236611904Y-121090476D02*
X235811904Y-121090476D01*
X235811904Y-120900000D01*
X235850000Y-120785714D01*
X235926190Y-120709523D01*
X236002380Y-120671428D01*
X236154761Y-120633333D01*
X236269047Y-120633333D01*
X236421428Y-120671428D01*
X236497619Y-120709523D01*
X236573809Y-120785714D01*
X236611904Y-120900000D01*
X236611904Y-121090476D01*
X235811904Y-120366666D02*
X235811904Y-119871428D01*
X236116666Y-120138095D01*
X236116666Y-120023809D01*
X236154761Y-119947619D01*
X236192857Y-119909523D01*
X236269047Y-119871428D01*
X236459523Y-119871428D01*
X236535714Y-119909523D01*
X236573809Y-119947619D01*
X236611904Y-120023809D01*
X236611904Y-120252380D01*
X236573809Y-120328571D01*
X236535714Y-120366666D01*
X214202380Y-116692857D02*
X214316666Y-116730952D01*
X214354761Y-116769047D01*
X214392857Y-116845238D01*
X214392857Y-116959523D01*
X214354761Y-117035714D01*
X214316666Y-117073809D01*
X214240476Y-117111904D01*
X213935714Y-117111904D01*
X213935714Y-116311904D01*
X214202380Y-116311904D01*
X214278571Y-116350000D01*
X214316666Y-116388095D01*
X214354761Y-116464285D01*
X214354761Y-116540476D01*
X214316666Y-116616666D01*
X214278571Y-116654761D01*
X214202380Y-116692857D01*
X213935714Y-116692857D01*
X215116666Y-117111904D02*
X214735714Y-117111904D01*
X214735714Y-116311904D01*
X215383333Y-116311904D02*
X215383333Y-116959523D01*
X215421428Y-117035714D01*
X215459523Y-117073809D01*
X215535714Y-117111904D01*
X215688095Y-117111904D01*
X215764285Y-117073809D01*
X215802380Y-117035714D01*
X215840476Y-116959523D01*
X215840476Y-116311904D01*
X216221428Y-116692857D02*
X216488095Y-116692857D01*
X216602380Y-117111904D02*
X216221428Y-117111904D01*
X216221428Y-116311904D01*
X216602380Y-116311904D01*
X214659523Y-114861904D02*
X214659523Y-114061904D01*
X214850000Y-114061904D01*
X214964285Y-114100000D01*
X215040476Y-114176190D01*
X215078571Y-114252380D01*
X215116666Y-114404761D01*
X215116666Y-114519047D01*
X215078571Y-114671428D01*
X215040476Y-114747619D01*
X214964285Y-114823809D01*
X214850000Y-114861904D01*
X214659523Y-114861904D01*
X215802380Y-114328571D02*
X215802380Y-114861904D01*
X215611904Y-114023809D02*
X215421428Y-114595238D01*
X215916666Y-114595238D01*
X236952380Y-116692857D02*
X237066666Y-116730952D01*
X237104761Y-116769047D01*
X237142857Y-116845238D01*
X237142857Y-116959523D01*
X237104761Y-117035714D01*
X237066666Y-117073809D01*
X236990476Y-117111904D01*
X236685714Y-117111904D01*
X236685714Y-116311904D01*
X236952380Y-116311904D01*
X237028571Y-116350000D01*
X237066666Y-116388095D01*
X237104761Y-116464285D01*
X237104761Y-116540476D01*
X237066666Y-116616666D01*
X237028571Y-116654761D01*
X236952380Y-116692857D01*
X236685714Y-116692857D01*
X237866666Y-117111904D02*
X237485714Y-117111904D01*
X237485714Y-116311904D01*
X238133333Y-116311904D02*
X238133333Y-116959523D01*
X238171428Y-117035714D01*
X238209523Y-117073809D01*
X238285714Y-117111904D01*
X238438095Y-117111904D01*
X238514285Y-117073809D01*
X238552380Y-117035714D01*
X238590476Y-116959523D01*
X238590476Y-116311904D01*
X238971428Y-116692857D02*
X239238095Y-116692857D01*
X239352380Y-117111904D02*
X238971428Y-117111904D01*
X238971428Y-116311904D01*
X239352380Y-116311904D01*
X237409523Y-114861904D02*
X237409523Y-114061904D01*
X237600000Y-114061904D01*
X237714285Y-114100000D01*
X237790476Y-114176190D01*
X237828571Y-114252380D01*
X237866666Y-114404761D01*
X237866666Y-114519047D01*
X237828571Y-114671428D01*
X237790476Y-114747619D01*
X237714285Y-114823809D01*
X237600000Y-114861904D01*
X237409523Y-114861904D01*
X238590476Y-114061904D02*
X238209523Y-114061904D01*
X238171428Y-114442857D01*
X238209523Y-114404761D01*
X238285714Y-114366666D01*
X238476190Y-114366666D01*
X238552380Y-114404761D01*
X238590476Y-114442857D01*
X238628571Y-114519047D01*
X238628571Y-114709523D01*
X238590476Y-114785714D01*
X238552380Y-114823809D01*
X238476190Y-114861904D01*
X238285714Y-114861904D01*
X238209523Y-114823809D01*
X238171428Y-114785714D01*
X222561904Y-166811904D02*
X222638095Y-166811904D01*
X222714285Y-166850000D01*
X222752380Y-166888095D01*
X222790476Y-166964285D01*
X222828571Y-167116666D01*
X222828571Y-167307142D01*
X222790476Y-167459523D01*
X222752380Y-167535714D01*
X222714285Y-167573809D01*
X222638095Y-167611904D01*
X222561904Y-167611904D01*
X222485714Y-167573809D01*
X222447619Y-167535714D01*
X222409523Y-167459523D01*
X222371428Y-167307142D01*
X222371428Y-167116666D01*
X222409523Y-166964285D01*
X222447619Y-166888095D01*
X222485714Y-166850000D01*
X222561904Y-166811904D01*
X223171428Y-167535714D02*
X223209523Y-167573809D01*
X223171428Y-167611904D01*
X223133333Y-167573809D01*
X223171428Y-167535714D01*
X223171428Y-167611904D01*
X223971428Y-167611904D02*
X223514285Y-167611904D01*
X223742857Y-167611904D02*
X223742857Y-166811904D01*
X223666666Y-166926190D01*
X223590476Y-167002380D01*
X223514285Y-167040476D01*
X224276190Y-166811904D02*
X224276190Y-166964285D01*
X224580952Y-166811904D02*
X224580952Y-166964285D01*
X225533333Y-167611904D02*
X225533333Y-166811904D01*
X225533333Y-167192857D02*
X225990476Y-167192857D01*
X225990476Y-167611904D02*
X225990476Y-166811904D01*
X226371428Y-167611904D02*
X226371428Y-166811904D01*
X226561904Y-166811904D01*
X226676190Y-166850000D01*
X226752380Y-166926190D01*
X226790476Y-167002380D01*
X226828571Y-167154761D01*
X226828571Y-167269047D01*
X226790476Y-167421428D01*
X226752380Y-167497619D01*
X226676190Y-167573809D01*
X226561904Y-167611904D01*
X226371428Y-167611904D01*
X227628571Y-167611904D02*
X227361904Y-167230952D01*
X227171428Y-167611904D02*
X227171428Y-166811904D01*
X227476190Y-166811904D01*
X227552380Y-166850000D01*
X227590476Y-166888095D01*
X227628571Y-166964285D01*
X227628571Y-167078571D01*
X227590476Y-167154761D01*
X227552380Y-167192857D01*
X227476190Y-167230952D01*
X227171428Y-167230952D01*
X224713333Y-164561904D02*
X224713333Y-165133333D01*
X224675238Y-165247619D01*
X224599047Y-165323809D01*
X224484761Y-165361904D01*
X224408571Y-165361904D01*
X225513333Y-165361904D02*
X225056190Y-165361904D01*
X225284761Y-165361904D02*
X225284761Y-164561904D01*
X225208571Y-164676190D01*
X225132380Y-164752380D01*
X225056190Y-164790476D01*
X222561904Y-111561904D02*
X222638095Y-111561904D01*
X222714285Y-111600000D01*
X222752380Y-111638095D01*
X222790476Y-111714285D01*
X222828571Y-111866666D01*
X222828571Y-112057142D01*
X222790476Y-112209523D01*
X222752380Y-112285714D01*
X222714285Y-112323809D01*
X222638095Y-112361904D01*
X222561904Y-112361904D01*
X222485714Y-112323809D01*
X222447619Y-112285714D01*
X222409523Y-112209523D01*
X222371428Y-112057142D01*
X222371428Y-111866666D01*
X222409523Y-111714285D01*
X222447619Y-111638095D01*
X222485714Y-111600000D01*
X222561904Y-111561904D01*
X223171428Y-112285714D02*
X223209523Y-112323809D01*
X223171428Y-112361904D01*
X223133333Y-112323809D01*
X223171428Y-112285714D01*
X223171428Y-112361904D01*
X223971428Y-112361904D02*
X223514285Y-112361904D01*
X223742857Y-112361904D02*
X223742857Y-111561904D01*
X223666666Y-111676190D01*
X223590476Y-111752380D01*
X223514285Y-111790476D01*
X224276190Y-111561904D02*
X224276190Y-111714285D01*
X224580952Y-111561904D02*
X224580952Y-111714285D01*
X225533333Y-112361904D02*
X225533333Y-111561904D01*
X225533333Y-111942857D02*
X225990476Y-111942857D01*
X225990476Y-112361904D02*
X225990476Y-111561904D01*
X226371428Y-112361904D02*
X226371428Y-111561904D01*
X226561904Y-111561904D01*
X226676190Y-111600000D01*
X226752380Y-111676190D01*
X226790476Y-111752380D01*
X226828571Y-111904761D01*
X226828571Y-112019047D01*
X226790476Y-112171428D01*
X226752380Y-112247619D01*
X226676190Y-112323809D01*
X226561904Y-112361904D01*
X226371428Y-112361904D01*
X227628571Y-112361904D02*
X227361904Y-111980952D01*
X227171428Y-112361904D02*
X227171428Y-111561904D01*
X227476190Y-111561904D01*
X227552380Y-111600000D01*
X227590476Y-111638095D01*
X227628571Y-111714285D01*
X227628571Y-111828571D01*
X227590476Y-111904761D01*
X227552380Y-111942857D01*
X227476190Y-111980952D01*
X227171428Y-111980952D01*
X224733333Y-109561904D02*
X224733333Y-110133333D01*
X224695238Y-110247619D01*
X224619047Y-110323809D01*
X224504761Y-110361904D01*
X224428571Y-110361904D01*
X225076190Y-109638095D02*
X225114285Y-109600000D01*
X225190476Y-109561904D01*
X225380952Y-109561904D01*
X225457142Y-109600000D01*
X225495238Y-109638095D01*
X225533333Y-109714285D01*
X225533333Y-109790476D01*
X225495238Y-109904761D01*
X225038095Y-110361904D01*
X225533333Y-110361904D01*
X217735714Y-141861904D02*
X217278571Y-141861904D01*
X217507142Y-141861904D02*
X217507142Y-141061904D01*
X217430952Y-141176190D01*
X217354761Y-141252380D01*
X217278571Y-141290476D01*
X218459523Y-141061904D02*
X218078571Y-141061904D01*
X218040476Y-141442857D01*
X218078571Y-141404761D01*
X218154761Y-141366666D01*
X218345238Y-141366666D01*
X218421428Y-141404761D01*
X218459523Y-141442857D01*
X218497619Y-141519047D01*
X218497619Y-141709523D01*
X218459523Y-141785714D01*
X218421428Y-141823809D01*
X218345238Y-141861904D01*
X218154761Y-141861904D01*
X218078571Y-141823809D01*
X218040476Y-141785714D01*
X219183333Y-141328571D02*
X219183333Y-141861904D01*
X218840476Y-141328571D02*
X218840476Y-141747619D01*
X218878571Y-141823809D01*
X218954761Y-141861904D01*
X219069047Y-141861904D01*
X219145238Y-141823809D01*
X219183333Y-141785714D01*
X229485714Y-127861904D02*
X229028571Y-127861904D01*
X229257142Y-127861904D02*
X229257142Y-127061904D01*
X229180952Y-127176190D01*
X229104761Y-127252380D01*
X229028571Y-127290476D01*
X230209523Y-127061904D02*
X229828571Y-127061904D01*
X229790476Y-127442857D01*
X229828571Y-127404761D01*
X229904761Y-127366666D01*
X230095238Y-127366666D01*
X230171428Y-127404761D01*
X230209523Y-127442857D01*
X230247619Y-127519047D01*
X230247619Y-127709523D01*
X230209523Y-127785714D01*
X230171428Y-127823809D01*
X230095238Y-127861904D01*
X229904761Y-127861904D01*
X229828571Y-127823809D01*
X229790476Y-127785714D01*
X230933333Y-127328571D02*
X230933333Y-127861904D01*
X230590476Y-127328571D02*
X230590476Y-127747619D01*
X230628571Y-127823809D01*
X230704761Y-127861904D01*
X230819047Y-127861904D01*
X230895238Y-127823809D01*
X230933333Y-127785714D01*
X221311904Y-153178571D02*
X221311904Y-152683333D01*
X221616666Y-152950000D01*
X221616666Y-152835714D01*
X221654761Y-152759523D01*
X221692857Y-152721428D01*
X221769047Y-152683333D01*
X221959523Y-152683333D01*
X222035714Y-152721428D01*
X222073809Y-152759523D01*
X222111904Y-152835714D01*
X222111904Y-153064285D01*
X222073809Y-153140476D01*
X222035714Y-153178571D01*
X221578571Y-151997619D02*
X222111904Y-151997619D01*
X221273809Y-152188095D02*
X221845238Y-152378571D01*
X221845238Y-151883333D01*
X221311904Y-151426190D02*
X221311904Y-151350000D01*
X221350000Y-151273809D01*
X221388095Y-151235714D01*
X221464285Y-151197619D01*
X221616666Y-151159523D01*
X221807142Y-151159523D01*
X221959523Y-151197619D01*
X222035714Y-151235714D01*
X222073809Y-151273809D01*
X222111904Y-151350000D01*
X222111904Y-151426190D01*
X222073809Y-151502380D01*
X222035714Y-151540476D01*
X221959523Y-151578571D01*
X221807142Y-151616666D01*
X221616666Y-151616666D01*
X221464285Y-151578571D01*
X221388095Y-151540476D01*
X221350000Y-151502380D01*
X221311904Y-151426190D01*
X222111904Y-150816666D02*
X221311904Y-150816666D01*
X222111904Y-150359523D02*
X221654761Y-150702380D01*
X221311904Y-150359523D02*
X221769047Y-150816666D01*
X212323809Y-151061904D02*
X212819047Y-151061904D01*
X212552380Y-151366666D01*
X212666666Y-151366666D01*
X212742857Y-151404761D01*
X212780952Y-151442857D01*
X212819047Y-151519047D01*
X212819047Y-151709523D01*
X212780952Y-151785714D01*
X212742857Y-151823809D01*
X212666666Y-151861904D01*
X212438095Y-151861904D01*
X212361904Y-151823809D01*
X212323809Y-151785714D01*
X213161904Y-151785714D02*
X213200000Y-151823809D01*
X213161904Y-151861904D01*
X213123809Y-151823809D01*
X213161904Y-151785714D01*
X213161904Y-151861904D01*
X213695238Y-151061904D02*
X213771428Y-151061904D01*
X213847619Y-151100000D01*
X213885714Y-151138095D01*
X213923809Y-151214285D01*
X213961904Y-151366666D01*
X213961904Y-151557142D01*
X213923809Y-151709523D01*
X213885714Y-151785714D01*
X213847619Y-151823809D01*
X213771428Y-151861904D01*
X213695238Y-151861904D01*
X213619047Y-151823809D01*
X213580952Y-151785714D01*
X213542857Y-151709523D01*
X213504761Y-151557142D01*
X213504761Y-151366666D01*
X213542857Y-151214285D01*
X213580952Y-151138095D01*
X213619047Y-151100000D01*
X213695238Y-151061904D01*
X214342857Y-151861904D02*
X214495238Y-151861904D01*
X214571428Y-151823809D01*
X214609523Y-151785714D01*
X214685714Y-151671428D01*
X214723809Y-151519047D01*
X214723809Y-151214285D01*
X214685714Y-151138095D01*
X214647619Y-151100000D01*
X214571428Y-151061904D01*
X214419047Y-151061904D01*
X214342857Y-151100000D01*
X214304761Y-151138095D01*
X214266666Y-151214285D01*
X214266666Y-151404761D01*
X214304761Y-151480952D01*
X214342857Y-151519047D01*
X214419047Y-151557142D01*
X214571428Y-151557142D01*
X214647619Y-151519047D01*
X214685714Y-151480952D01*
X214723809Y-151404761D01*
X215066666Y-151861904D02*
X215066666Y-151061904D01*
X215333333Y-151633333D01*
X215600000Y-151061904D01*
X215600000Y-151861904D01*
X214116666Y-149611904D02*
X213850000Y-149230952D01*
X213659523Y-149611904D02*
X213659523Y-148811904D01*
X213964285Y-148811904D01*
X214040476Y-148850000D01*
X214078571Y-148888095D01*
X214116666Y-148964285D01*
X214116666Y-149078571D01*
X214078571Y-149154761D01*
X214040476Y-149192857D01*
X213964285Y-149230952D01*
X213659523Y-149230952D01*
X214802380Y-148811904D02*
X214650000Y-148811904D01*
X214573809Y-148850000D01*
X214535714Y-148888095D01*
X214459523Y-149002380D01*
X214421428Y-149154761D01*
X214421428Y-149459523D01*
X214459523Y-149535714D01*
X214497619Y-149573809D01*
X214573809Y-149611904D01*
X214726190Y-149611904D01*
X214802380Y-149573809D01*
X214840476Y-149535714D01*
X214878571Y-149459523D01*
X214878571Y-149269047D01*
X214840476Y-149192857D01*
X214802380Y-149154761D01*
X214726190Y-149116666D01*
X214573809Y-149116666D01*
X214497619Y-149154761D01*
X214459523Y-149192857D01*
X214421428Y-149269047D01*
X217316666Y-151861904D02*
X216859523Y-151861904D01*
X217088095Y-151861904D02*
X217088095Y-151061904D01*
X217011904Y-151176190D01*
X216935714Y-151252380D01*
X216859523Y-151290476D01*
X217811904Y-151061904D02*
X217888095Y-151061904D01*
X217964285Y-151100000D01*
X218002380Y-151138095D01*
X218040476Y-151214285D01*
X218078571Y-151366666D01*
X218078571Y-151557142D01*
X218040476Y-151709523D01*
X218002380Y-151785714D01*
X217964285Y-151823809D01*
X217888095Y-151861904D01*
X217811904Y-151861904D01*
X217735714Y-151823809D01*
X217697619Y-151785714D01*
X217659523Y-151709523D01*
X217621428Y-151557142D01*
X217621428Y-151366666D01*
X217659523Y-151214285D01*
X217697619Y-151138095D01*
X217735714Y-151100000D01*
X217811904Y-151061904D01*
X218345238Y-151061904D02*
X218878571Y-151061904D01*
X218535714Y-151861904D01*
X219183333Y-151861904D02*
X219183333Y-151061904D01*
X219640476Y-151861904D02*
X219297619Y-151404761D01*
X219640476Y-151061904D02*
X219183333Y-151519047D01*
X217616666Y-149611904D02*
X217350000Y-149230952D01*
X217159523Y-149611904D02*
X217159523Y-148811904D01*
X217464285Y-148811904D01*
X217540476Y-148850000D01*
X217578571Y-148888095D01*
X217616666Y-148964285D01*
X217616666Y-149078571D01*
X217578571Y-149154761D01*
X217540476Y-149192857D01*
X217464285Y-149230952D01*
X217159523Y-149230952D01*
X217883333Y-148811904D02*
X218416666Y-148811904D01*
X218073809Y-149611904D01*
X233611904Y-162552380D02*
X233611904Y-163009523D01*
X233611904Y-162780952D02*
X232811904Y-162780952D01*
X232926190Y-162857142D01*
X233002380Y-162933333D01*
X233040476Y-163009523D01*
X232811904Y-162057142D02*
X232811904Y-161980952D01*
X232850000Y-161904761D01*
X232888095Y-161866666D01*
X232964285Y-161828571D01*
X233116666Y-161790476D01*
X233307142Y-161790476D01*
X233459523Y-161828571D01*
X233535714Y-161866666D01*
X233573809Y-161904761D01*
X233611904Y-161980952D01*
X233611904Y-162057142D01*
X233573809Y-162133333D01*
X233535714Y-162171428D01*
X233459523Y-162209523D01*
X233307142Y-162247619D01*
X233116666Y-162247619D01*
X232964285Y-162209523D01*
X232888095Y-162171428D01*
X232850000Y-162133333D01*
X232811904Y-162057142D01*
X233611904Y-161447619D02*
X232811904Y-161447619D01*
X233611904Y-160990476D02*
X233154761Y-161333333D01*
X232811904Y-160990476D02*
X233269047Y-161447619D01*
X233611904Y-166133333D02*
X233230952Y-166400000D01*
X233611904Y-166590476D02*
X232811904Y-166590476D01*
X232811904Y-166285714D01*
X232850000Y-166209523D01*
X232888095Y-166171428D01*
X232964285Y-166133333D01*
X233078571Y-166133333D01*
X233154761Y-166171428D01*
X233192857Y-166209523D01*
X233230952Y-166285714D01*
X233230952Y-166590476D01*
X233154761Y-165676190D02*
X233116666Y-165752380D01*
X233078571Y-165790476D01*
X233002380Y-165828571D01*
X232964285Y-165828571D01*
X232888095Y-165790476D01*
X232850000Y-165752380D01*
X232811904Y-165676190D01*
X232811904Y-165523809D01*
X232850000Y-165447619D01*
X232888095Y-165409523D01*
X232964285Y-165371428D01*
X233002380Y-165371428D01*
X233078571Y-165409523D01*
X233116666Y-165447619D01*
X233154761Y-165523809D01*
X233154761Y-165676190D01*
X233192857Y-165752380D01*
X233230952Y-165790476D01*
X233307142Y-165828571D01*
X233459523Y-165828571D01*
X233535714Y-165790476D01*
X233573809Y-165752380D01*
X233611904Y-165676190D01*
X233611904Y-165523809D01*
X233573809Y-165447619D01*
X233535714Y-165409523D01*
X233459523Y-165371428D01*
X233307142Y-165371428D01*
X233230952Y-165409523D01*
X233192857Y-165447619D01*
X233154761Y-165523809D01*
X235316666Y-152111904D02*
X234859523Y-152111904D01*
X235088095Y-152111904D02*
X235088095Y-151311904D01*
X235011904Y-151426190D01*
X234935714Y-151502380D01*
X234859523Y-151540476D01*
X235811904Y-151311904D02*
X235888095Y-151311904D01*
X235964285Y-151350000D01*
X236002380Y-151388095D01*
X236040476Y-151464285D01*
X236078571Y-151616666D01*
X236078571Y-151807142D01*
X236040476Y-151959523D01*
X236002380Y-152035714D01*
X235964285Y-152073809D01*
X235888095Y-152111904D01*
X235811904Y-152111904D01*
X235735714Y-152073809D01*
X235697619Y-152035714D01*
X235659523Y-151959523D01*
X235621428Y-151807142D01*
X235621428Y-151616666D01*
X235659523Y-151464285D01*
X235697619Y-151388095D01*
X235735714Y-151350000D01*
X235811904Y-151311904D01*
X236383333Y-151388095D02*
X236421428Y-151350000D01*
X236497619Y-151311904D01*
X236688095Y-151311904D01*
X236764285Y-151350000D01*
X236802380Y-151388095D01*
X236840476Y-151464285D01*
X236840476Y-151540476D01*
X236802380Y-151654761D01*
X236345238Y-152111904D01*
X236840476Y-152111904D01*
X237183333Y-152111904D02*
X237183333Y-151311904D01*
X237640476Y-152111904D02*
X237297619Y-151654761D01*
X237640476Y-151311904D02*
X237183333Y-151769047D01*
X236116666Y-150111904D02*
X235850000Y-149730952D01*
X235659523Y-150111904D02*
X235659523Y-149311904D01*
X235964285Y-149311904D01*
X236040476Y-149350000D01*
X236078571Y-149388095D01*
X236116666Y-149464285D01*
X236116666Y-149578571D01*
X236078571Y-149654761D01*
X236040476Y-149692857D01*
X235964285Y-149730952D01*
X235659523Y-149730952D01*
X236497619Y-150111904D02*
X236650000Y-150111904D01*
X236726190Y-150073809D01*
X236764285Y-150035714D01*
X236840476Y-149921428D01*
X236878571Y-149769047D01*
X236878571Y-149464285D01*
X236840476Y-149388095D01*
X236802380Y-149350000D01*
X236726190Y-149311904D01*
X236573809Y-149311904D01*
X236497619Y-149350000D01*
X236459523Y-149388095D01*
X236421428Y-149464285D01*
X236421428Y-149654761D01*
X236459523Y-149730952D01*
X236497619Y-149769047D01*
X236573809Y-149807142D01*
X236726190Y-149807142D01*
X236802380Y-149769047D01*
X236840476Y-149730952D01*
X236878571Y-149654761D01*
X238323809Y-151311904D02*
X238819047Y-151311904D01*
X238552380Y-151616666D01*
X238666666Y-151616666D01*
X238742857Y-151654761D01*
X238780952Y-151692857D01*
X238819047Y-151769047D01*
X238819047Y-151959523D01*
X238780952Y-152035714D01*
X238742857Y-152073809D01*
X238666666Y-152111904D01*
X238438095Y-152111904D01*
X238361904Y-152073809D01*
X238323809Y-152035714D01*
X239161904Y-152035714D02*
X239200000Y-152073809D01*
X239161904Y-152111904D01*
X239123809Y-152073809D01*
X239161904Y-152035714D01*
X239161904Y-152111904D01*
X239961904Y-152111904D02*
X239504761Y-152111904D01*
X239733333Y-152111904D02*
X239733333Y-151311904D01*
X239657142Y-151426190D01*
X239580952Y-151502380D01*
X239504761Y-151540476D01*
X240647619Y-151311904D02*
X240495238Y-151311904D01*
X240419047Y-151350000D01*
X240380952Y-151388095D01*
X240304761Y-151502380D01*
X240266666Y-151654761D01*
X240266666Y-151959523D01*
X240304761Y-152035714D01*
X240342857Y-152073809D01*
X240419047Y-152111904D01*
X240571428Y-152111904D01*
X240647619Y-152073809D01*
X240685714Y-152035714D01*
X240723809Y-151959523D01*
X240723809Y-151769047D01*
X240685714Y-151692857D01*
X240647619Y-151654761D01*
X240571428Y-151616666D01*
X240419047Y-151616666D01*
X240342857Y-151654761D01*
X240304761Y-151692857D01*
X240266666Y-151769047D01*
X241066666Y-152111904D02*
X241066666Y-151311904D01*
X241333333Y-151883333D01*
X241600000Y-151311904D01*
X241600000Y-152111904D01*
X239235714Y-150111904D02*
X238969047Y-149730952D01*
X238778571Y-150111904D02*
X238778571Y-149311904D01*
X239083333Y-149311904D01*
X239159523Y-149350000D01*
X239197619Y-149388095D01*
X239235714Y-149464285D01*
X239235714Y-149578571D01*
X239197619Y-149654761D01*
X239159523Y-149692857D01*
X239083333Y-149730952D01*
X238778571Y-149730952D01*
X239997619Y-150111904D02*
X239540476Y-150111904D01*
X239769047Y-150111904D02*
X239769047Y-149311904D01*
X239692857Y-149426190D01*
X239616666Y-149502380D01*
X239540476Y-149540476D01*
X240492857Y-149311904D02*
X240569047Y-149311904D01*
X240645238Y-149350000D01*
X240683333Y-149388095D01*
X240721428Y-149464285D01*
X240759523Y-149616666D01*
X240759523Y-149807142D01*
X240721428Y-149959523D01*
X240683333Y-150035714D01*
X240645238Y-150073809D01*
X240569047Y-150111904D01*
X240492857Y-150111904D01*
X240416666Y-150073809D01*
X240378571Y-150035714D01*
X240340476Y-149959523D01*
X240302380Y-149807142D01*
X240302380Y-149616666D01*
X240340476Y-149464285D01*
X240378571Y-149388095D01*
X240416666Y-149350000D01*
X240492857Y-149311904D01*
X230811904Y-153411904D02*
X230811904Y-153792857D01*
X231192857Y-153830952D01*
X231154761Y-153792857D01*
X231116666Y-153716666D01*
X231116666Y-153526190D01*
X231154761Y-153450000D01*
X231192857Y-153411904D01*
X231269047Y-153373809D01*
X231459523Y-153373809D01*
X231535714Y-153411904D01*
X231573809Y-153450000D01*
X231611904Y-153526190D01*
X231611904Y-153716666D01*
X231573809Y-153792857D01*
X231535714Y-153830952D01*
X231535714Y-153030952D02*
X231573809Y-152992857D01*
X231611904Y-153030952D01*
X231573809Y-153069047D01*
X231535714Y-153030952D01*
X231611904Y-153030952D01*
X230811904Y-152726190D02*
X230811904Y-152230952D01*
X231116666Y-152497619D01*
X231116666Y-152383333D01*
X231154761Y-152307142D01*
X231192857Y-152269047D01*
X231269047Y-152230952D01*
X231459523Y-152230952D01*
X231535714Y-152269047D01*
X231573809Y-152307142D01*
X231611904Y-152383333D01*
X231611904Y-152611904D01*
X231573809Y-152688095D01*
X231535714Y-152726190D01*
X230811904Y-151545238D02*
X230811904Y-151697619D01*
X230850000Y-151773809D01*
X230888095Y-151811904D01*
X231002380Y-151888095D01*
X231154761Y-151926190D01*
X231459523Y-151926190D01*
X231535714Y-151888095D01*
X231573809Y-151850000D01*
X231611904Y-151773809D01*
X231611904Y-151621428D01*
X231573809Y-151545238D01*
X231535714Y-151507142D01*
X231459523Y-151469047D01*
X231269047Y-151469047D01*
X231192857Y-151507142D01*
X231154761Y-151545238D01*
X231116666Y-151621428D01*
X231116666Y-151773809D01*
X231154761Y-151850000D01*
X231192857Y-151888095D01*
X231269047Y-151926190D01*
X231611904Y-151126190D02*
X230811904Y-151126190D01*
X231611904Y-150669047D02*
X231154761Y-151011904D01*
X230811904Y-150669047D02*
X231269047Y-151126190D01*
X229611904Y-152764285D02*
X229230952Y-153030952D01*
X229611904Y-153221428D02*
X228811904Y-153221428D01*
X228811904Y-152916666D01*
X228850000Y-152840476D01*
X228888095Y-152802380D01*
X228964285Y-152764285D01*
X229078571Y-152764285D01*
X229154761Y-152802380D01*
X229192857Y-152840476D01*
X229230952Y-152916666D01*
X229230952Y-153221428D01*
X229611904Y-152002380D02*
X229611904Y-152459523D01*
X229611904Y-152230952D02*
X228811904Y-152230952D01*
X228926190Y-152307142D01*
X229002380Y-152383333D01*
X229040476Y-152459523D01*
X229611904Y-151240476D02*
X229611904Y-151697619D01*
X229611904Y-151469047D02*
X228811904Y-151469047D01*
X228926190Y-151545238D01*
X229002380Y-151621428D01*
X229040476Y-151697619D01*
X211197619Y-117111904D02*
X210740476Y-117111904D01*
X210969047Y-117111904D02*
X210969047Y-116311904D01*
X210892857Y-116426190D01*
X210816666Y-116502380D01*
X210740476Y-116540476D01*
X211692857Y-116311904D02*
X211769047Y-116311904D01*
X211845238Y-116350000D01*
X211883333Y-116388095D01*
X211921428Y-116464285D01*
X211959523Y-116616666D01*
X211959523Y-116807142D01*
X211921428Y-116959523D01*
X211883333Y-117035714D01*
X211845238Y-117073809D01*
X211769047Y-117111904D01*
X211692857Y-117111904D01*
X211616666Y-117073809D01*
X211578571Y-117035714D01*
X211540476Y-116959523D01*
X211502380Y-116807142D01*
X211502380Y-116616666D01*
X211540476Y-116464285D01*
X211578571Y-116388095D01*
X211616666Y-116350000D01*
X211692857Y-116311904D01*
X212302380Y-117111904D02*
X212302380Y-116311904D01*
X212759523Y-117111904D02*
X212416666Y-116654761D01*
X212759523Y-116311904D02*
X212302380Y-116769047D01*
X211235714Y-114861904D02*
X210969047Y-114480952D01*
X210778571Y-114861904D02*
X210778571Y-114061904D01*
X211083333Y-114061904D01*
X211159523Y-114100000D01*
X211197619Y-114138095D01*
X211235714Y-114214285D01*
X211235714Y-114328571D01*
X211197619Y-114404761D01*
X211159523Y-114442857D01*
X211083333Y-114480952D01*
X210778571Y-114480952D01*
X211997619Y-114861904D02*
X211540476Y-114861904D01*
X211769047Y-114861904D02*
X211769047Y-114061904D01*
X211692857Y-114176190D01*
X211616666Y-114252380D01*
X211540476Y-114290476D01*
X212302380Y-114138095D02*
X212340476Y-114100000D01*
X212416666Y-114061904D01*
X212607142Y-114061904D01*
X212683333Y-114100000D01*
X212721428Y-114138095D01*
X212759523Y-114214285D01*
X212759523Y-114290476D01*
X212721428Y-114404761D01*
X212264285Y-114861904D01*
X212759523Y-114861904D01*
X240947619Y-117111904D02*
X240490476Y-117111904D01*
X240719047Y-117111904D02*
X240719047Y-116311904D01*
X240642857Y-116426190D01*
X240566666Y-116502380D01*
X240490476Y-116540476D01*
X241442857Y-116311904D02*
X241519047Y-116311904D01*
X241595238Y-116350000D01*
X241633333Y-116388095D01*
X241671428Y-116464285D01*
X241709523Y-116616666D01*
X241709523Y-116807142D01*
X241671428Y-116959523D01*
X241633333Y-117035714D01*
X241595238Y-117073809D01*
X241519047Y-117111904D01*
X241442857Y-117111904D01*
X241366666Y-117073809D01*
X241328571Y-117035714D01*
X241290476Y-116959523D01*
X241252380Y-116807142D01*
X241252380Y-116616666D01*
X241290476Y-116464285D01*
X241328571Y-116388095D01*
X241366666Y-116350000D01*
X241442857Y-116311904D01*
X242052380Y-117111904D02*
X242052380Y-116311904D01*
X242509523Y-117111904D02*
X242166666Y-116654761D01*
X242509523Y-116311904D02*
X242052380Y-116769047D01*
X240985714Y-114861904D02*
X240719047Y-114480952D01*
X240528571Y-114861904D02*
X240528571Y-114061904D01*
X240833333Y-114061904D01*
X240909523Y-114100000D01*
X240947619Y-114138095D01*
X240985714Y-114214285D01*
X240985714Y-114328571D01*
X240947619Y-114404761D01*
X240909523Y-114442857D01*
X240833333Y-114480952D01*
X240528571Y-114480952D01*
X241747619Y-114861904D02*
X241290476Y-114861904D01*
X241519047Y-114861904D02*
X241519047Y-114061904D01*
X241442857Y-114176190D01*
X241366666Y-114252380D01*
X241290476Y-114290476D01*
X242014285Y-114061904D02*
X242509523Y-114061904D01*
X242242857Y-114366666D01*
X242357142Y-114366666D01*
X242433333Y-114404761D01*
X242471428Y-114442857D01*
X242509523Y-114519047D01*
X242509523Y-114709523D01*
X242471428Y-114785714D01*
X242433333Y-114823809D01*
X242357142Y-114861904D01*
X242128571Y-114861904D01*
X242052380Y-114823809D01*
X242014285Y-114785714D01*
X209390476Y-167100000D02*
X209314285Y-167061904D01*
X209200000Y-167061904D01*
X209085714Y-167100000D01*
X209009523Y-167176190D01*
X208971428Y-167252380D01*
X208933333Y-167404761D01*
X208933333Y-167519047D01*
X208971428Y-167671428D01*
X209009523Y-167747619D01*
X209085714Y-167823809D01*
X209200000Y-167861904D01*
X209276190Y-167861904D01*
X209390476Y-167823809D01*
X209428571Y-167785714D01*
X209428571Y-167519047D01*
X209276190Y-167519047D01*
X209771428Y-167861904D02*
X209771428Y-167061904D01*
X210228571Y-167861904D01*
X210228571Y-167061904D01*
X210609523Y-167861904D02*
X210609523Y-167061904D01*
X210800000Y-167061904D01*
X210914285Y-167100000D01*
X210990476Y-167176190D01*
X211028571Y-167252380D01*
X211066666Y-167404761D01*
X211066666Y-167519047D01*
X211028571Y-167671428D01*
X210990476Y-167747619D01*
X210914285Y-167823809D01*
X210800000Y-167861904D01*
X210609523Y-167861904D01*
X224133333Y-151000000D02*
X224133333Y-150619047D01*
X224361904Y-151076190D02*
X223561904Y-150809523D01*
X224361904Y-150542857D01*
X224361904Y-150276190D02*
X223561904Y-150276190D01*
X223561904Y-150085714D01*
X223600000Y-149971428D01*
X223676190Y-149895238D01*
X223752380Y-149857142D01*
X223904761Y-149819047D01*
X224019047Y-149819047D01*
X224171428Y-149857142D01*
X224247619Y-149895238D01*
X224323809Y-149971428D01*
X224361904Y-150085714D01*
X224361904Y-150276190D01*
X224361904Y-149476190D02*
X223561904Y-149476190D01*
X223561904Y-149171428D01*
X223600000Y-149095238D01*
X223638095Y-149057142D01*
X223714285Y-149019047D01*
X223828571Y-149019047D01*
X223904761Y-149057142D01*
X223942857Y-149095238D01*
X223980952Y-149171428D01*
X223980952Y-149476190D01*
X223561904Y-148295238D02*
X223561904Y-148676190D01*
X223942857Y-148714285D01*
X223904761Y-148676190D01*
X223866666Y-148600000D01*
X223866666Y-148409523D01*
X223904761Y-148333333D01*
X223942857Y-148295238D01*
X224019047Y-148257142D01*
X224209523Y-148257142D01*
X224285714Y-148295238D01*
X224323809Y-148333333D01*
X224361904Y-148409523D01*
X224361904Y-148600000D01*
X224323809Y-148676190D01*
X224285714Y-148714285D01*
X223561904Y-147761904D02*
X223561904Y-147685714D01*
X223600000Y-147609523D01*
X223638095Y-147571428D01*
X223714285Y-147533333D01*
X223866666Y-147495238D01*
X224057142Y-147495238D01*
X224209523Y-147533333D01*
X224285714Y-147571428D01*
X224323809Y-147609523D01*
X224361904Y-147685714D01*
X224361904Y-147761904D01*
X224323809Y-147838095D01*
X224285714Y-147876190D01*
X224209523Y-147914285D01*
X224057142Y-147952380D01*
X223866666Y-147952380D01*
X223714285Y-147914285D01*
X223638095Y-147876190D01*
X223600000Y-147838095D01*
X223561904Y-147761904D01*
X223561904Y-147228571D02*
X223561904Y-146695238D01*
X224361904Y-147038095D01*
X223561904Y-146238095D02*
X223561904Y-146161904D01*
X223600000Y-146085714D01*
X223638095Y-146047619D01*
X223714285Y-146009523D01*
X223866666Y-145971428D01*
X224057142Y-145971428D01*
X224209523Y-146009523D01*
X224285714Y-146047619D01*
X224323809Y-146085714D01*
X224361904Y-146161904D01*
X224361904Y-146238095D01*
X224323809Y-146314285D01*
X224285714Y-146352380D01*
X224209523Y-146390476D01*
X224057142Y-146428571D01*
X223866666Y-146428571D01*
X223714285Y-146390476D01*
X223638095Y-146352380D01*
X223600000Y-146314285D01*
X223561904Y-146238095D01*
X224133333Y-145666666D02*
X224133333Y-145285714D01*
X224361904Y-145742857D02*
X223561904Y-145476190D01*
X224361904Y-145209523D01*
X224361904Y-144485714D02*
X223980952Y-144752380D01*
X224361904Y-144942857D02*
X223561904Y-144942857D01*
X223561904Y-144638095D01*
X223600000Y-144561904D01*
X223638095Y-144523809D01*
X223714285Y-144485714D01*
X223828571Y-144485714D01*
X223904761Y-144523809D01*
X223942857Y-144561904D01*
X223980952Y-144638095D01*
X223980952Y-144942857D01*
X223942857Y-144142857D02*
X223942857Y-143876190D01*
X224361904Y-143761904D02*
X224361904Y-144142857D01*
X223561904Y-144142857D01*
X223561904Y-143761904D01*
X223561904Y-143495238D02*
X223561904Y-142961904D01*
X224361904Y-143495238D01*
X224361904Y-142961904D01*
X226440476Y-145986904D02*
X226440476Y-146634523D01*
X226478571Y-146710714D01*
X226516666Y-146748809D01*
X226592857Y-146786904D01*
X226745238Y-146786904D01*
X226821428Y-146748809D01*
X226859523Y-146710714D01*
X226897619Y-146634523D01*
X226897619Y-145986904D01*
X227697619Y-146786904D02*
X227240476Y-146786904D01*
X227469047Y-146786904D02*
X227469047Y-145986904D01*
X227392857Y-146101190D01*
X227316666Y-146177380D01*
X227240476Y-146215476D01*
X224735714Y-131611904D02*
X224278571Y-131611904D01*
X224507142Y-131611904D02*
X224507142Y-130811904D01*
X224430952Y-130926190D01*
X224354761Y-131002380D01*
X224278571Y-131040476D01*
X225230952Y-130811904D02*
X225307142Y-130811904D01*
X225383333Y-130850000D01*
X225421428Y-130888095D01*
X225459523Y-130964285D01*
X225497619Y-131116666D01*
X225497619Y-131307142D01*
X225459523Y-131459523D01*
X225421428Y-131535714D01*
X225383333Y-131573809D01*
X225307142Y-131611904D01*
X225230952Y-131611904D01*
X225154761Y-131573809D01*
X225116666Y-131535714D01*
X225078571Y-131459523D01*
X225040476Y-131307142D01*
X225040476Y-131116666D01*
X225078571Y-130964285D01*
X225116666Y-130888095D01*
X225154761Y-130850000D01*
X225230952Y-130811904D01*
X226183333Y-131078571D02*
X226183333Y-131611904D01*
X225840476Y-131078571D02*
X225840476Y-131497619D01*
X225878571Y-131573809D01*
X225954761Y-131611904D01*
X226069047Y-131611904D01*
X226145238Y-131573809D01*
X226183333Y-131535714D01*
X219866666Y-131535714D02*
X219828571Y-131573809D01*
X219714285Y-131611904D01*
X219638095Y-131611904D01*
X219523809Y-131573809D01*
X219447619Y-131497619D01*
X219409523Y-131421428D01*
X219371428Y-131269047D01*
X219371428Y-131154761D01*
X219409523Y-131002380D01*
X219447619Y-130926190D01*
X219523809Y-130850000D01*
X219638095Y-130811904D01*
X219714285Y-130811904D01*
X219828571Y-130850000D01*
X219866666Y-130888095D01*
X220552380Y-131078571D02*
X220552380Y-131611904D01*
X220361904Y-130773809D02*
X220171428Y-131345238D01*
X220666666Y-131345238D01*
X232485714Y-136111904D02*
X232028571Y-136111904D01*
X232257142Y-136111904D02*
X232257142Y-135311904D01*
X232180952Y-135426190D01*
X232104761Y-135502380D01*
X232028571Y-135540476D01*
X232980952Y-135311904D02*
X233057142Y-135311904D01*
X233133333Y-135350000D01*
X233171428Y-135388095D01*
X233209523Y-135464285D01*
X233247619Y-135616666D01*
X233247619Y-135807142D01*
X233209523Y-135959523D01*
X233171428Y-136035714D01*
X233133333Y-136073809D01*
X233057142Y-136111904D01*
X232980952Y-136111904D01*
X232904761Y-136073809D01*
X232866666Y-136035714D01*
X232828571Y-135959523D01*
X232790476Y-135807142D01*
X232790476Y-135616666D01*
X232828571Y-135464285D01*
X232866666Y-135388095D01*
X232904761Y-135350000D01*
X232980952Y-135311904D01*
X233933333Y-135578571D02*
X233933333Y-136111904D01*
X233590476Y-135578571D02*
X233590476Y-135997619D01*
X233628571Y-136073809D01*
X233704761Y-136111904D01*
X233819047Y-136111904D01*
X233895238Y-136073809D01*
X233933333Y-136035714D01*
X227366666Y-136035714D02*
X227328571Y-136073809D01*
X227214285Y-136111904D01*
X227138095Y-136111904D01*
X227023809Y-136073809D01*
X226947619Y-135997619D01*
X226909523Y-135921428D01*
X226871428Y-135769047D01*
X226871428Y-135654761D01*
X226909523Y-135502380D01*
X226947619Y-135426190D01*
X227023809Y-135350000D01*
X227138095Y-135311904D01*
X227214285Y-135311904D01*
X227328571Y-135350000D01*
X227366666Y-135388095D01*
X227633333Y-135311904D02*
X228166666Y-135311904D01*
X227823809Y-136111904D01*
X236866666Y-145861904D02*
X236409523Y-145861904D01*
X236638095Y-145861904D02*
X236638095Y-145061904D01*
X236561904Y-145176190D01*
X236485714Y-145252380D01*
X236409523Y-145290476D01*
X237552380Y-145328571D02*
X237552380Y-145861904D01*
X237209523Y-145328571D02*
X237209523Y-145747619D01*
X237247619Y-145823809D01*
X237323809Y-145861904D01*
X237438095Y-145861904D01*
X237514285Y-145823809D01*
X237552380Y-145785714D01*
X230985714Y-145785714D02*
X230947619Y-145823809D01*
X230833333Y-145861904D01*
X230757142Y-145861904D01*
X230642857Y-145823809D01*
X230566666Y-145747619D01*
X230528571Y-145671428D01*
X230490476Y-145519047D01*
X230490476Y-145404761D01*
X230528571Y-145252380D01*
X230566666Y-145176190D01*
X230642857Y-145100000D01*
X230757142Y-145061904D01*
X230833333Y-145061904D01*
X230947619Y-145100000D01*
X230985714Y-145138095D01*
X231747619Y-145861904D02*
X231290476Y-145861904D01*
X231519047Y-145861904D02*
X231519047Y-145061904D01*
X231442857Y-145176190D01*
X231366666Y-145252380D01*
X231290476Y-145290476D01*
X232242857Y-145061904D02*
X232319047Y-145061904D01*
X232395238Y-145100000D01*
X232433333Y-145138095D01*
X232471428Y-145214285D01*
X232509523Y-145366666D01*
X232509523Y-145557142D01*
X232471428Y-145709523D01*
X232433333Y-145785714D01*
X232395238Y-145823809D01*
X232319047Y-145861904D01*
X232242857Y-145861904D01*
X232166666Y-145823809D01*
X232128571Y-145785714D01*
X232090476Y-145709523D01*
X232052380Y-145557142D01*
X232052380Y-145366666D01*
X232090476Y-145214285D01*
X232128571Y-145138095D01*
X232166666Y-145100000D01*
X232242857Y-145061904D01*
X232485714Y-120861904D02*
X232028571Y-120861904D01*
X232257142Y-120861904D02*
X232257142Y-120061904D01*
X232180952Y-120176190D01*
X232104761Y-120252380D01*
X232028571Y-120290476D01*
X232980952Y-120061904D02*
X233057142Y-120061904D01*
X233133333Y-120100000D01*
X233171428Y-120138095D01*
X233209523Y-120214285D01*
X233247619Y-120366666D01*
X233247619Y-120557142D01*
X233209523Y-120709523D01*
X233171428Y-120785714D01*
X233133333Y-120823809D01*
X233057142Y-120861904D01*
X232980952Y-120861904D01*
X232904761Y-120823809D01*
X232866666Y-120785714D01*
X232828571Y-120709523D01*
X232790476Y-120557142D01*
X232790476Y-120366666D01*
X232828571Y-120214285D01*
X232866666Y-120138095D01*
X232904761Y-120100000D01*
X232980952Y-120061904D01*
X233933333Y-120328571D02*
X233933333Y-120861904D01*
X233590476Y-120328571D02*
X233590476Y-120747619D01*
X233628571Y-120823809D01*
X233704761Y-120861904D01*
X233819047Y-120861904D01*
X233895238Y-120823809D01*
X233933333Y-120785714D01*
X226485714Y-120785714D02*
X226447619Y-120823809D01*
X226333333Y-120861904D01*
X226257142Y-120861904D01*
X226142857Y-120823809D01*
X226066666Y-120747619D01*
X226028571Y-120671428D01*
X225990476Y-120519047D01*
X225990476Y-120404761D01*
X226028571Y-120252380D01*
X226066666Y-120176190D01*
X226142857Y-120100000D01*
X226257142Y-120061904D01*
X226333333Y-120061904D01*
X226447619Y-120100000D01*
X226485714Y-120138095D01*
X227247619Y-120861904D02*
X226790476Y-120861904D01*
X227019047Y-120861904D02*
X227019047Y-120061904D01*
X226942857Y-120176190D01*
X226866666Y-120252380D01*
X226790476Y-120290476D01*
X227514285Y-120061904D02*
X228009523Y-120061904D01*
X227742857Y-120366666D01*
X227857142Y-120366666D01*
X227933333Y-120404761D01*
X227971428Y-120442857D01*
X228009523Y-120519047D01*
X228009523Y-120709523D01*
X227971428Y-120785714D01*
X227933333Y-120823809D01*
X227857142Y-120861904D01*
X227628571Y-120861904D01*
X227552380Y-120823809D01*
X227514285Y-120785714D01*
X236866666Y-148611904D02*
X236409523Y-148611904D01*
X236638095Y-148611904D02*
X236638095Y-147811904D01*
X236561904Y-147926190D01*
X236485714Y-148002380D01*
X236409523Y-148040476D01*
X237552380Y-148078571D02*
X237552380Y-148611904D01*
X237209523Y-148078571D02*
X237209523Y-148497619D01*
X237247619Y-148573809D01*
X237323809Y-148611904D01*
X237438095Y-148611904D01*
X237514285Y-148573809D01*
X237552380Y-148535714D01*
X230985714Y-148535714D02*
X230947619Y-148573809D01*
X230833333Y-148611904D01*
X230757142Y-148611904D01*
X230642857Y-148573809D01*
X230566666Y-148497619D01*
X230528571Y-148421428D01*
X230490476Y-148269047D01*
X230490476Y-148154761D01*
X230528571Y-148002380D01*
X230566666Y-147926190D01*
X230642857Y-147850000D01*
X230757142Y-147811904D01*
X230833333Y-147811904D01*
X230947619Y-147850000D01*
X230985714Y-147888095D01*
X231747619Y-148611904D02*
X231290476Y-148611904D01*
X231519047Y-148611904D02*
X231519047Y-147811904D01*
X231442857Y-147926190D01*
X231366666Y-148002380D01*
X231290476Y-148040476D01*
X232509523Y-148611904D02*
X232052380Y-148611904D01*
X232280952Y-148611904D02*
X232280952Y-147811904D01*
X232204761Y-147926190D01*
X232128571Y-148002380D01*
X232052380Y-148040476D01*
M02*
