G04 #@! TF.GenerationSoftware,KiCad,Pcbnew,5.1.4*
G04 #@! TF.CreationDate,2019-11-05T22:35:51-05:00*
G04 #@! TF.ProjectId,24_regulator_demo,32345f72-6567-4756-9c61-746f725f6465,rev?*
G04 #@! TF.SameCoordinates,Original*
G04 #@! TF.FileFunction,Copper,L2,Bot*
G04 #@! TF.FilePolarity,Positive*
%FSLAX46Y46*%
G04 Gerber Fmt 4.6, Leading zero omitted, Abs format (unit mm)*
G04 Created by KiCad (PCBNEW 5.1.4) date 2019-11-05 22:35:51*
%MOMM*%
%LPD*%
G04 APERTURE LIST*
%ADD10R,1.700000X1.700000*%
%ADD11O,1.700000X1.700000*%
%ADD12C,2.800000*%
%ADD13C,1.000000*%
%ADD14C,0.700000*%
%ADD15C,0.150000*%
%ADD16C,2.000000*%
%ADD17C,0.250000*%
G04 APERTURE END LIST*
D10*
X226250000Y-165000000D03*
D11*
X223710000Y-165000000D03*
D10*
X222460000Y-110000000D03*
D11*
X225000000Y-110000000D03*
X227540000Y-110000000D03*
D12*
X210000000Y-165000000D03*
D13*
X241000000Y-163000000D03*
X244000000Y-163000000D03*
X206000000Y-106000000D03*
X206000000Y-109000000D03*
X241000000Y-169000000D03*
X244000000Y-169000000D03*
X212000000Y-106000000D03*
X212000000Y-109000000D03*
X218500000Y-155750000D03*
X212750000Y-135000000D03*
X219000000Y-120750000D03*
X212500000Y-143250000D03*
X218500000Y-153250000D03*
X235250000Y-142250000D03*
X224000000Y-151250000D03*
X219750000Y-148250000D03*
X221500000Y-146250000D03*
X233500000Y-153250000D03*
X232250000Y-155500000D03*
X236250000Y-129750000D03*
X233500000Y-111250000D03*
D14*
X233250000Y-166000000D03*
X226100000Y-144900000D03*
X227000000Y-144900000D03*
X226100000Y-145700000D03*
X227000000Y-145700000D03*
X227900000Y-144900000D03*
X227900000Y-145700000D03*
X226100000Y-146500000D03*
X227000000Y-146500000D03*
X227900000Y-146500000D03*
X226100000Y-147300000D03*
X227000000Y-147300000D03*
X227900000Y-147300000D03*
X226100000Y-148100000D03*
X227000000Y-148100000D03*
X227900000Y-148100000D03*
X235900000Y-146800000D03*
X236700000Y-146800000D03*
X235100000Y-146800000D03*
X210250000Y-115500000D03*
X243000000Y-115500000D03*
X223750000Y-156000000D03*
X228250000Y-154000000D03*
X219241445Y-150241445D03*
X226250000Y-129000000D03*
X225250000Y-129000000D03*
X225250000Y-130000000D03*
X227250000Y-133750000D03*
X227250000Y-134750000D03*
X226250000Y-134750000D03*
X228000000Y-138750000D03*
X228000000Y-139750000D03*
X224500000Y-125500000D03*
X227000000Y-118500000D03*
X227000000Y-119500000D03*
X226000000Y-119500000D03*
X226000000Y-118500000D03*
X228000000Y-115000000D03*
X226250000Y-133750000D03*
X226250000Y-130000000D03*
X236500000Y-132500000D03*
X236500000Y-133500000D03*
X235500000Y-133500000D03*
X235500000Y-132500000D03*
X228350000Y-149350000D03*
X231000000Y-144750000D03*
X230250000Y-142250000D03*
X229500000Y-142250000D03*
X229500000Y-141500000D03*
X230250000Y-141500000D03*
X235300000Y-126100000D03*
X236100000Y-126100000D03*
X236100000Y-126900000D03*
X235300000Y-126900000D03*
D15*
X228350000Y-149350000D02*
X229000000Y-148700000D01*
X229000000Y-148700000D02*
X229000000Y-145250000D01*
X229000000Y-145250000D02*
X229500000Y-144750000D01*
X229500000Y-144750000D02*
X231000000Y-144750000D01*
D16*
X239000000Y-133000000D02*
X235750000Y-133000000D01*
X243000000Y-137000000D02*
X239000000Y-133000000D01*
X238500000Y-158750000D02*
X243000000Y-154250000D01*
X243000000Y-154250000D02*
X243000000Y-137000000D01*
X226250000Y-165000000D02*
X226250000Y-163000000D01*
X226250000Y-163000000D02*
X230500000Y-158750000D01*
X230500000Y-158750000D02*
X238500000Y-158750000D01*
X234200000Y-126500000D02*
X235750000Y-126500000D01*
X229850000Y-141900000D02*
X229850000Y-130850000D01*
X229850000Y-130850000D02*
X234200000Y-126500000D01*
D17*
G36*
X248875000Y-173875000D02*
G01*
X201125000Y-173875000D01*
X201125000Y-168913820D01*
X240125000Y-168913820D01*
X240125000Y-169086180D01*
X240158626Y-169255228D01*
X240224585Y-169414468D01*
X240320343Y-169557780D01*
X240442220Y-169679657D01*
X240585532Y-169775415D01*
X240744772Y-169841374D01*
X240913820Y-169875000D01*
X241086180Y-169875000D01*
X241255228Y-169841374D01*
X241414468Y-169775415D01*
X241557780Y-169679657D01*
X241679657Y-169557780D01*
X241775415Y-169414468D01*
X241841374Y-169255228D01*
X241875000Y-169086180D01*
X241875000Y-168913820D01*
X243125000Y-168913820D01*
X243125000Y-169086180D01*
X243158626Y-169255228D01*
X243224585Y-169414468D01*
X243320343Y-169557780D01*
X243442220Y-169679657D01*
X243585532Y-169775415D01*
X243744772Y-169841374D01*
X243913820Y-169875000D01*
X244086180Y-169875000D01*
X244255228Y-169841374D01*
X244414468Y-169775415D01*
X244557780Y-169679657D01*
X244679657Y-169557780D01*
X244775415Y-169414468D01*
X244841374Y-169255228D01*
X244875000Y-169086180D01*
X244875000Y-168913820D01*
X244841374Y-168744772D01*
X244775415Y-168585532D01*
X244679657Y-168442220D01*
X244557780Y-168320343D01*
X244414468Y-168224585D01*
X244255228Y-168158626D01*
X244086180Y-168125000D01*
X243913820Y-168125000D01*
X243744772Y-168158626D01*
X243585532Y-168224585D01*
X243442220Y-168320343D01*
X243320343Y-168442220D01*
X243224585Y-168585532D01*
X243158626Y-168744772D01*
X243125000Y-168913820D01*
X241875000Y-168913820D01*
X241841374Y-168744772D01*
X241775415Y-168585532D01*
X241679657Y-168442220D01*
X241557780Y-168320343D01*
X241414468Y-168224585D01*
X241255228Y-168158626D01*
X241086180Y-168125000D01*
X240913820Y-168125000D01*
X240744772Y-168158626D01*
X240585532Y-168224585D01*
X240442220Y-168320343D01*
X240320343Y-168442220D01*
X240224585Y-168585532D01*
X240158626Y-168744772D01*
X240125000Y-168913820D01*
X201125000Y-168913820D01*
X201125000Y-166280010D01*
X208896766Y-166280010D01*
X209055339Y-166512878D01*
X209368638Y-166668103D01*
X209706201Y-166759223D01*
X210055053Y-166782737D01*
X210401790Y-166737742D01*
X210733087Y-166625967D01*
X210944661Y-166512878D01*
X211103234Y-166280010D01*
X210000000Y-165176777D01*
X208896766Y-166280010D01*
X201125000Y-166280010D01*
X201125000Y-165055053D01*
X208217263Y-165055053D01*
X208262258Y-165401790D01*
X208374033Y-165733087D01*
X208487122Y-165944661D01*
X208719990Y-166103234D01*
X209823223Y-165000000D01*
X210176777Y-165000000D01*
X211280010Y-166103234D01*
X211512878Y-165944661D01*
X211668103Y-165631362D01*
X211753744Y-165314094D01*
X222525945Y-165314094D01*
X222609973Y-165539056D01*
X222736274Y-165743303D01*
X222899995Y-165918985D01*
X223094844Y-166059351D01*
X223313333Y-166159007D01*
X223395907Y-166184049D01*
X223585000Y-166124323D01*
X223585000Y-165125000D01*
X222585138Y-165125000D01*
X222525945Y-165314094D01*
X211753744Y-165314094D01*
X211759223Y-165293799D01*
X211782737Y-164944947D01*
X211749123Y-164685906D01*
X222525945Y-164685906D01*
X222585138Y-164875000D01*
X223585000Y-164875000D01*
X223585000Y-163875677D01*
X223835000Y-163875677D01*
X223835000Y-164875000D01*
X223855000Y-164875000D01*
X223855000Y-165125000D01*
X223835000Y-165125000D01*
X223835000Y-166124323D01*
X224024093Y-166184049D01*
X224106667Y-166159007D01*
X224325156Y-166059351D01*
X224520005Y-165918985D01*
X224683726Y-165743303D01*
X224810027Y-165539056D01*
X224894055Y-165314094D01*
X224834863Y-165125002D01*
X224880659Y-165125002D01*
X224894895Y-165269546D01*
X224973519Y-165528735D01*
X225023186Y-165621655D01*
X225023186Y-165850000D01*
X225030426Y-165923513D01*
X225051869Y-165994200D01*
X225086691Y-166059347D01*
X225133552Y-166116448D01*
X225190653Y-166163309D01*
X225255800Y-166198131D01*
X225326487Y-166219574D01*
X225400000Y-166226814D01*
X225628344Y-166226814D01*
X225721264Y-166276481D01*
X225980453Y-166355105D01*
X226250000Y-166381653D01*
X226519546Y-166355105D01*
X226778735Y-166276481D01*
X226871655Y-166226814D01*
X227100000Y-166226814D01*
X227173513Y-166219574D01*
X227244200Y-166198131D01*
X227309347Y-166163309D01*
X227366448Y-166116448D01*
X227413309Y-166059347D01*
X227448131Y-165994200D01*
X227469574Y-165923513D01*
X227476814Y-165850000D01*
X227476814Y-165621656D01*
X227526481Y-165528736D01*
X227605105Y-165269547D01*
X227625000Y-165067549D01*
X227625000Y-163569543D01*
X228280723Y-162913820D01*
X240125000Y-162913820D01*
X240125000Y-163086180D01*
X240158626Y-163255228D01*
X240224585Y-163414468D01*
X240320343Y-163557780D01*
X240442220Y-163679657D01*
X240585532Y-163775415D01*
X240744772Y-163841374D01*
X240913820Y-163875000D01*
X241086180Y-163875000D01*
X241255228Y-163841374D01*
X241414468Y-163775415D01*
X241557780Y-163679657D01*
X241679657Y-163557780D01*
X241775415Y-163414468D01*
X241841374Y-163255228D01*
X241875000Y-163086180D01*
X241875000Y-162913820D01*
X243125000Y-162913820D01*
X243125000Y-163086180D01*
X243158626Y-163255228D01*
X243224585Y-163414468D01*
X243320343Y-163557780D01*
X243442220Y-163679657D01*
X243585532Y-163775415D01*
X243744772Y-163841374D01*
X243913820Y-163875000D01*
X244086180Y-163875000D01*
X244255228Y-163841374D01*
X244414468Y-163775415D01*
X244557780Y-163679657D01*
X244679657Y-163557780D01*
X244775415Y-163414468D01*
X244841374Y-163255228D01*
X244875000Y-163086180D01*
X244875000Y-162913820D01*
X244841374Y-162744772D01*
X244775415Y-162585532D01*
X244679657Y-162442220D01*
X244557780Y-162320343D01*
X244414468Y-162224585D01*
X244255228Y-162158626D01*
X244086180Y-162125000D01*
X243913820Y-162125000D01*
X243744772Y-162158626D01*
X243585532Y-162224585D01*
X243442220Y-162320343D01*
X243320343Y-162442220D01*
X243224585Y-162585532D01*
X243158626Y-162744772D01*
X243125000Y-162913820D01*
X241875000Y-162913820D01*
X241841374Y-162744772D01*
X241775415Y-162585532D01*
X241679657Y-162442220D01*
X241557780Y-162320343D01*
X241414468Y-162224585D01*
X241255228Y-162158626D01*
X241086180Y-162125000D01*
X240913820Y-162125000D01*
X240744772Y-162158626D01*
X240585532Y-162224585D01*
X240442220Y-162320343D01*
X240320343Y-162442220D01*
X240224585Y-162585532D01*
X240158626Y-162744772D01*
X240125000Y-162913820D01*
X228280723Y-162913820D01*
X231069544Y-160125000D01*
X238432461Y-160125000D01*
X238500000Y-160131652D01*
X238567539Y-160125000D01*
X238567549Y-160125000D01*
X238769547Y-160105105D01*
X239028736Y-160026481D01*
X239267605Y-159898802D01*
X239476976Y-159726976D01*
X239520037Y-159674506D01*
X243924516Y-155270028D01*
X243976975Y-155226976D01*
X244020028Y-155174516D01*
X244020036Y-155174508D01*
X244148802Y-155017606D01*
X244276481Y-154778736D01*
X244276481Y-154778735D01*
X244355105Y-154519547D01*
X244375000Y-154317549D01*
X244375000Y-154317540D01*
X244381652Y-154250001D01*
X244375000Y-154182462D01*
X244375000Y-137067538D01*
X244381652Y-136999999D01*
X244375000Y-136932460D01*
X244375000Y-136932451D01*
X244355105Y-136730453D01*
X244276481Y-136471264D01*
X244148802Y-136232394D01*
X244020036Y-136075492D01*
X244020032Y-136075488D01*
X243976976Y-136023024D01*
X243924512Y-135979968D01*
X240020037Y-132075493D01*
X239976976Y-132023024D01*
X239767605Y-131851198D01*
X239528736Y-131723519D01*
X239269547Y-131644895D01*
X239067549Y-131625000D01*
X239067539Y-131625000D01*
X239000000Y-131618348D01*
X238932461Y-131625000D01*
X235682451Y-131625000D01*
X235480453Y-131644895D01*
X235221264Y-131723519D01*
X234982395Y-131851198D01*
X234773024Y-132023024D01*
X234601198Y-132232395D01*
X234473519Y-132471264D01*
X234394895Y-132730453D01*
X234368347Y-133000000D01*
X234394895Y-133269547D01*
X234473519Y-133528736D01*
X234601198Y-133767605D01*
X234773024Y-133976976D01*
X234982395Y-134148802D01*
X235221264Y-134276481D01*
X235480453Y-134355105D01*
X235682451Y-134375000D01*
X238430457Y-134375000D01*
X241625001Y-137569545D01*
X241625000Y-153680456D01*
X237930457Y-157375000D01*
X230567539Y-157375000D01*
X230500000Y-157368348D01*
X230432461Y-157375000D01*
X230432451Y-157375000D01*
X230230453Y-157394895D01*
X229971264Y-157473519D01*
X229732394Y-157601198D01*
X229575492Y-157729964D01*
X229575488Y-157729968D01*
X229523024Y-157773024D01*
X229479968Y-157825488D01*
X225325489Y-161979968D01*
X225273025Y-162023024D01*
X225229969Y-162075488D01*
X225229964Y-162075493D01*
X225101198Y-162232395D01*
X224973519Y-162471265D01*
X224894896Y-162730454D01*
X224868348Y-163000000D01*
X224875001Y-163067548D01*
X224875000Y-164634892D01*
X224810027Y-164460944D01*
X224683726Y-164256697D01*
X224520005Y-164081015D01*
X224325156Y-163940649D01*
X224106667Y-163840993D01*
X224024093Y-163815951D01*
X223835000Y-163875677D01*
X223585000Y-163875677D01*
X223395907Y-163815951D01*
X223313333Y-163840993D01*
X223094844Y-163940649D01*
X222899995Y-164081015D01*
X222736274Y-164256697D01*
X222609973Y-164460944D01*
X222525945Y-164685906D01*
X211749123Y-164685906D01*
X211737742Y-164598210D01*
X211625967Y-164266913D01*
X211512878Y-164055339D01*
X211280010Y-163896766D01*
X210176777Y-165000000D01*
X209823223Y-165000000D01*
X208719990Y-163896766D01*
X208487122Y-164055339D01*
X208331897Y-164368638D01*
X208240777Y-164706201D01*
X208217263Y-165055053D01*
X201125000Y-165055053D01*
X201125000Y-163719990D01*
X208896766Y-163719990D01*
X210000000Y-164823223D01*
X211103234Y-163719990D01*
X210944661Y-163487122D01*
X210631362Y-163331897D01*
X210293799Y-163240777D01*
X209944947Y-163217263D01*
X209598210Y-163262258D01*
X209266913Y-163374033D01*
X209055339Y-163487122D01*
X208896766Y-163719990D01*
X201125000Y-163719990D01*
X201125000Y-155663820D01*
X217625000Y-155663820D01*
X217625000Y-155836180D01*
X217658626Y-156005228D01*
X217724585Y-156164468D01*
X217820343Y-156307780D01*
X217942220Y-156429657D01*
X218085532Y-156525415D01*
X218244772Y-156591374D01*
X218413820Y-156625000D01*
X218586180Y-156625000D01*
X218755228Y-156591374D01*
X218914468Y-156525415D01*
X219057780Y-156429657D01*
X219179657Y-156307780D01*
X219275415Y-156164468D01*
X219341374Y-156005228D01*
X219375000Y-155836180D01*
X219375000Y-155663820D01*
X219341374Y-155494772D01*
X219307843Y-155413820D01*
X231375000Y-155413820D01*
X231375000Y-155586180D01*
X231408626Y-155755228D01*
X231474585Y-155914468D01*
X231570343Y-156057780D01*
X231692220Y-156179657D01*
X231835532Y-156275415D01*
X231994772Y-156341374D01*
X232163820Y-156375000D01*
X232336180Y-156375000D01*
X232505228Y-156341374D01*
X232664468Y-156275415D01*
X232807780Y-156179657D01*
X232929657Y-156057780D01*
X233025415Y-155914468D01*
X233091374Y-155755228D01*
X233125000Y-155586180D01*
X233125000Y-155413820D01*
X233091374Y-155244772D01*
X233025415Y-155085532D01*
X232929657Y-154942220D01*
X232807780Y-154820343D01*
X232664468Y-154724585D01*
X232505228Y-154658626D01*
X232336180Y-154625000D01*
X232163820Y-154625000D01*
X231994772Y-154658626D01*
X231835532Y-154724585D01*
X231692220Y-154820343D01*
X231570343Y-154942220D01*
X231474585Y-155085532D01*
X231408626Y-155244772D01*
X231375000Y-155413820D01*
X219307843Y-155413820D01*
X219275415Y-155335532D01*
X219179657Y-155192220D01*
X219057780Y-155070343D01*
X218914468Y-154974585D01*
X218755228Y-154908626D01*
X218586180Y-154875000D01*
X218413820Y-154875000D01*
X218244772Y-154908626D01*
X218085532Y-154974585D01*
X217942220Y-155070343D01*
X217820343Y-155192220D01*
X217724585Y-155335532D01*
X217658626Y-155494772D01*
X217625000Y-155663820D01*
X201125000Y-155663820D01*
X201125000Y-153163820D01*
X217625000Y-153163820D01*
X217625000Y-153336180D01*
X217658626Y-153505228D01*
X217724585Y-153664468D01*
X217820343Y-153807780D01*
X217942220Y-153929657D01*
X218085532Y-154025415D01*
X218244772Y-154091374D01*
X218413820Y-154125000D01*
X218586180Y-154125000D01*
X218755228Y-154091374D01*
X218914468Y-154025415D01*
X219057780Y-153929657D01*
X219179657Y-153807780D01*
X219275415Y-153664468D01*
X219341374Y-153505228D01*
X219375000Y-153336180D01*
X219375000Y-153163820D01*
X232625000Y-153163820D01*
X232625000Y-153336180D01*
X232658626Y-153505228D01*
X232724585Y-153664468D01*
X232820343Y-153807780D01*
X232942220Y-153929657D01*
X233085532Y-154025415D01*
X233244772Y-154091374D01*
X233413820Y-154125000D01*
X233586180Y-154125000D01*
X233755228Y-154091374D01*
X233914468Y-154025415D01*
X234057780Y-153929657D01*
X234179657Y-153807780D01*
X234275415Y-153664468D01*
X234341374Y-153505228D01*
X234375000Y-153336180D01*
X234375000Y-153163820D01*
X234341374Y-152994772D01*
X234275415Y-152835532D01*
X234179657Y-152692220D01*
X234057780Y-152570343D01*
X233914468Y-152474585D01*
X233755228Y-152408626D01*
X233586180Y-152375000D01*
X233413820Y-152375000D01*
X233244772Y-152408626D01*
X233085532Y-152474585D01*
X232942220Y-152570343D01*
X232820343Y-152692220D01*
X232724585Y-152835532D01*
X232658626Y-152994772D01*
X232625000Y-153163820D01*
X219375000Y-153163820D01*
X219341374Y-152994772D01*
X219275415Y-152835532D01*
X219179657Y-152692220D01*
X219057780Y-152570343D01*
X218914468Y-152474585D01*
X218755228Y-152408626D01*
X218586180Y-152375000D01*
X218413820Y-152375000D01*
X218244772Y-152408626D01*
X218085532Y-152474585D01*
X217942220Y-152570343D01*
X217820343Y-152692220D01*
X217724585Y-152835532D01*
X217658626Y-152994772D01*
X217625000Y-153163820D01*
X201125000Y-153163820D01*
X201125000Y-151163820D01*
X223125000Y-151163820D01*
X223125000Y-151336180D01*
X223158626Y-151505228D01*
X223224585Y-151664468D01*
X223320343Y-151807780D01*
X223442220Y-151929657D01*
X223585532Y-152025415D01*
X223744772Y-152091374D01*
X223913820Y-152125000D01*
X224086180Y-152125000D01*
X224255228Y-152091374D01*
X224414468Y-152025415D01*
X224557780Y-151929657D01*
X224679657Y-151807780D01*
X224775415Y-151664468D01*
X224841374Y-151505228D01*
X224875000Y-151336180D01*
X224875000Y-151163820D01*
X224841374Y-150994772D01*
X224775415Y-150835532D01*
X224679657Y-150692220D01*
X224557780Y-150570343D01*
X224414468Y-150474585D01*
X224255228Y-150408626D01*
X224086180Y-150375000D01*
X223913820Y-150375000D01*
X223744772Y-150408626D01*
X223585532Y-150474585D01*
X223442220Y-150570343D01*
X223320343Y-150692220D01*
X223224585Y-150835532D01*
X223158626Y-150994772D01*
X223125000Y-151163820D01*
X201125000Y-151163820D01*
X201125000Y-149278594D01*
X227625000Y-149278594D01*
X227625000Y-149421406D01*
X227652861Y-149561475D01*
X227707513Y-149693416D01*
X227786856Y-149812161D01*
X227887839Y-149913144D01*
X228006584Y-149992487D01*
X228138525Y-150047139D01*
X228278594Y-150075000D01*
X228421406Y-150075000D01*
X228561475Y-150047139D01*
X228693416Y-149992487D01*
X228812161Y-149913144D01*
X228913144Y-149812161D01*
X228992487Y-149693416D01*
X229047139Y-149561475D01*
X229075000Y-149421406D01*
X229075000Y-149278594D01*
X229072147Y-149264249D01*
X229302573Y-149033823D01*
X229319737Y-149019737D01*
X229333824Y-149002572D01*
X229333828Y-149002568D01*
X229375971Y-148951217D01*
X229417757Y-148873041D01*
X229417757Y-148873040D01*
X229443489Y-148788215D01*
X229450000Y-148722105D01*
X229450000Y-148722094D01*
X229452176Y-148700000D01*
X229450000Y-148677906D01*
X229450000Y-145436395D01*
X229686396Y-145200000D01*
X230428730Y-145200000D01*
X230436856Y-145212161D01*
X230537839Y-145313144D01*
X230656584Y-145392487D01*
X230788525Y-145447139D01*
X230928594Y-145475000D01*
X231071406Y-145475000D01*
X231211475Y-145447139D01*
X231343416Y-145392487D01*
X231462161Y-145313144D01*
X231563144Y-145212161D01*
X231642487Y-145093416D01*
X231697139Y-144961475D01*
X231725000Y-144821406D01*
X231725000Y-144678594D01*
X231697139Y-144538525D01*
X231642487Y-144406584D01*
X231563144Y-144287839D01*
X231462161Y-144186856D01*
X231343416Y-144107513D01*
X231211475Y-144052861D01*
X231071406Y-144025000D01*
X230928594Y-144025000D01*
X230788525Y-144052861D01*
X230656584Y-144107513D01*
X230537839Y-144186856D01*
X230436856Y-144287839D01*
X230428730Y-144300000D01*
X229522094Y-144300000D01*
X229500000Y-144297824D01*
X229477906Y-144300000D01*
X229477895Y-144300000D01*
X229411785Y-144306511D01*
X229326959Y-144332243D01*
X229248783Y-144374029D01*
X229197432Y-144416172D01*
X229197428Y-144416176D01*
X229180263Y-144430263D01*
X229166176Y-144447428D01*
X228697429Y-144916176D01*
X228680264Y-144930263D01*
X228666177Y-144947428D01*
X228666172Y-144947433D01*
X228624029Y-144998784D01*
X228582243Y-145076960D01*
X228556512Y-145161785D01*
X228547824Y-145250000D01*
X228550001Y-145272104D01*
X228550000Y-148513604D01*
X228435751Y-148627853D01*
X228421406Y-148625000D01*
X228278594Y-148625000D01*
X228138525Y-148652861D01*
X228006584Y-148707513D01*
X227887839Y-148786856D01*
X227786856Y-148887839D01*
X227707513Y-149006584D01*
X227652861Y-149138525D01*
X227625000Y-149278594D01*
X201125000Y-149278594D01*
X201125000Y-148163820D01*
X218875000Y-148163820D01*
X218875000Y-148336180D01*
X218908626Y-148505228D01*
X218974585Y-148664468D01*
X219070343Y-148807780D01*
X219192220Y-148929657D01*
X219335532Y-149025415D01*
X219494772Y-149091374D01*
X219663820Y-149125000D01*
X219836180Y-149125000D01*
X220005228Y-149091374D01*
X220164468Y-149025415D01*
X220307780Y-148929657D01*
X220429657Y-148807780D01*
X220525415Y-148664468D01*
X220591374Y-148505228D01*
X220625000Y-148336180D01*
X220625000Y-148163820D01*
X220591374Y-147994772D01*
X220525415Y-147835532D01*
X220429657Y-147692220D01*
X220307780Y-147570343D01*
X220164468Y-147474585D01*
X220005228Y-147408626D01*
X219836180Y-147375000D01*
X219663820Y-147375000D01*
X219494772Y-147408626D01*
X219335532Y-147474585D01*
X219192220Y-147570343D01*
X219070343Y-147692220D01*
X218974585Y-147835532D01*
X218908626Y-147994772D01*
X218875000Y-148163820D01*
X201125000Y-148163820D01*
X201125000Y-146163820D01*
X220625000Y-146163820D01*
X220625000Y-146336180D01*
X220658626Y-146505228D01*
X220724585Y-146664468D01*
X220820343Y-146807780D01*
X220942220Y-146929657D01*
X221085532Y-147025415D01*
X221244772Y-147091374D01*
X221413820Y-147125000D01*
X221586180Y-147125000D01*
X221755228Y-147091374D01*
X221914468Y-147025415D01*
X222057780Y-146929657D01*
X222179657Y-146807780D01*
X222275415Y-146664468D01*
X222341374Y-146505228D01*
X222375000Y-146336180D01*
X222375000Y-146163820D01*
X222341374Y-145994772D01*
X222275415Y-145835532D01*
X222179657Y-145692220D01*
X222057780Y-145570343D01*
X221914468Y-145474585D01*
X221755228Y-145408626D01*
X221586180Y-145375000D01*
X221413820Y-145375000D01*
X221244772Y-145408626D01*
X221085532Y-145474585D01*
X220942220Y-145570343D01*
X220820343Y-145692220D01*
X220724585Y-145835532D01*
X220658626Y-145994772D01*
X220625000Y-146163820D01*
X201125000Y-146163820D01*
X201125000Y-143163820D01*
X211625000Y-143163820D01*
X211625000Y-143336180D01*
X211658626Y-143505228D01*
X211724585Y-143664468D01*
X211820343Y-143807780D01*
X211942220Y-143929657D01*
X212085532Y-144025415D01*
X212244772Y-144091374D01*
X212413820Y-144125000D01*
X212586180Y-144125000D01*
X212755228Y-144091374D01*
X212914468Y-144025415D01*
X213057780Y-143929657D01*
X213179657Y-143807780D01*
X213275415Y-143664468D01*
X213341374Y-143505228D01*
X213375000Y-143336180D01*
X213375000Y-143163820D01*
X213341374Y-142994772D01*
X213275415Y-142835532D01*
X213179657Y-142692220D01*
X213057780Y-142570343D01*
X212914468Y-142474585D01*
X212755228Y-142408626D01*
X212586180Y-142375000D01*
X212413820Y-142375000D01*
X212244772Y-142408626D01*
X212085532Y-142474585D01*
X211942220Y-142570343D01*
X211820343Y-142692220D01*
X211724585Y-142835532D01*
X211658626Y-142994772D01*
X211625000Y-143163820D01*
X201125000Y-143163820D01*
X201125000Y-134913820D01*
X211875000Y-134913820D01*
X211875000Y-135086180D01*
X211908626Y-135255228D01*
X211974585Y-135414468D01*
X212070343Y-135557780D01*
X212192220Y-135679657D01*
X212335532Y-135775415D01*
X212494772Y-135841374D01*
X212663820Y-135875000D01*
X212836180Y-135875000D01*
X213005228Y-135841374D01*
X213164468Y-135775415D01*
X213307780Y-135679657D01*
X213429657Y-135557780D01*
X213525415Y-135414468D01*
X213591374Y-135255228D01*
X213625000Y-135086180D01*
X213625000Y-134913820D01*
X213591374Y-134744772D01*
X213525415Y-134585532D01*
X213429657Y-134442220D01*
X213307780Y-134320343D01*
X213164468Y-134224585D01*
X213005228Y-134158626D01*
X212836180Y-134125000D01*
X212663820Y-134125000D01*
X212494772Y-134158626D01*
X212335532Y-134224585D01*
X212192220Y-134320343D01*
X212070343Y-134442220D01*
X211974585Y-134585532D01*
X211908626Y-134744772D01*
X211875000Y-134913820D01*
X201125000Y-134913820D01*
X201125000Y-130850000D01*
X228468348Y-130850000D01*
X228475001Y-130917549D01*
X228475000Y-141967548D01*
X228494895Y-142169546D01*
X228573519Y-142428735D01*
X228701198Y-142667604D01*
X228873024Y-142876975D01*
X229082395Y-143048802D01*
X229321264Y-143176481D01*
X229580453Y-143255105D01*
X229850000Y-143281653D01*
X230119546Y-143255105D01*
X230378735Y-143176481D01*
X230617604Y-143048802D01*
X230826975Y-142876976D01*
X230998802Y-142667605D01*
X231126481Y-142428736D01*
X231205105Y-142169547D01*
X231205669Y-142163820D01*
X234375000Y-142163820D01*
X234375000Y-142336180D01*
X234408626Y-142505228D01*
X234474585Y-142664468D01*
X234570343Y-142807780D01*
X234692220Y-142929657D01*
X234835532Y-143025415D01*
X234994772Y-143091374D01*
X235163820Y-143125000D01*
X235336180Y-143125000D01*
X235505228Y-143091374D01*
X235664468Y-143025415D01*
X235807780Y-142929657D01*
X235929657Y-142807780D01*
X236025415Y-142664468D01*
X236091374Y-142505228D01*
X236125000Y-142336180D01*
X236125000Y-142163820D01*
X236091374Y-141994772D01*
X236025415Y-141835532D01*
X235929657Y-141692220D01*
X235807780Y-141570343D01*
X235664468Y-141474585D01*
X235505228Y-141408626D01*
X235336180Y-141375000D01*
X235163820Y-141375000D01*
X234994772Y-141408626D01*
X234835532Y-141474585D01*
X234692220Y-141570343D01*
X234570343Y-141692220D01*
X234474585Y-141835532D01*
X234408626Y-141994772D01*
X234375000Y-142163820D01*
X231205669Y-142163820D01*
X231225000Y-141967549D01*
X231225000Y-131419543D01*
X232980723Y-129663820D01*
X235375000Y-129663820D01*
X235375000Y-129836180D01*
X235408626Y-130005228D01*
X235474585Y-130164468D01*
X235570343Y-130307780D01*
X235692220Y-130429657D01*
X235835532Y-130525415D01*
X235994772Y-130591374D01*
X236163820Y-130625000D01*
X236336180Y-130625000D01*
X236505228Y-130591374D01*
X236664468Y-130525415D01*
X236807780Y-130429657D01*
X236929657Y-130307780D01*
X237025415Y-130164468D01*
X237091374Y-130005228D01*
X237125000Y-129836180D01*
X237125000Y-129663820D01*
X237091374Y-129494772D01*
X237025415Y-129335532D01*
X236929657Y-129192220D01*
X236807780Y-129070343D01*
X236664468Y-128974585D01*
X236505228Y-128908626D01*
X236336180Y-128875000D01*
X236163820Y-128875000D01*
X235994772Y-128908626D01*
X235835532Y-128974585D01*
X235692220Y-129070343D01*
X235570343Y-129192220D01*
X235474585Y-129335532D01*
X235408626Y-129494772D01*
X235375000Y-129663820D01*
X232980723Y-129663820D01*
X234769544Y-127875000D01*
X235817549Y-127875000D01*
X236019547Y-127855105D01*
X236278736Y-127776481D01*
X236517605Y-127648802D01*
X236726976Y-127476976D01*
X236898802Y-127267605D01*
X237026481Y-127028736D01*
X237105105Y-126769547D01*
X237131653Y-126500000D01*
X237105105Y-126230453D01*
X237026481Y-125971264D01*
X236898802Y-125732395D01*
X236726976Y-125523024D01*
X236517605Y-125351198D01*
X236278736Y-125223519D01*
X236019547Y-125144895D01*
X235817549Y-125125000D01*
X234267539Y-125125000D01*
X234200000Y-125118348D01*
X234132461Y-125125000D01*
X234132451Y-125125000D01*
X233930453Y-125144895D01*
X233671264Y-125223519D01*
X233432394Y-125351198D01*
X233275492Y-125479964D01*
X233275488Y-125479968D01*
X233223024Y-125523024D01*
X233179968Y-125575488D01*
X228925489Y-129829968D01*
X228873025Y-129873024D01*
X228829969Y-129925488D01*
X228829964Y-129925493D01*
X228701198Y-130082395D01*
X228573519Y-130321265D01*
X228494896Y-130580454D01*
X228468348Y-130850000D01*
X201125000Y-130850000D01*
X201125000Y-120663820D01*
X218125000Y-120663820D01*
X218125000Y-120836180D01*
X218158626Y-121005228D01*
X218224585Y-121164468D01*
X218320343Y-121307780D01*
X218442220Y-121429657D01*
X218585532Y-121525415D01*
X218744772Y-121591374D01*
X218913820Y-121625000D01*
X219086180Y-121625000D01*
X219255228Y-121591374D01*
X219414468Y-121525415D01*
X219557780Y-121429657D01*
X219679657Y-121307780D01*
X219775415Y-121164468D01*
X219841374Y-121005228D01*
X219875000Y-120836180D01*
X219875000Y-120663820D01*
X219841374Y-120494772D01*
X219775415Y-120335532D01*
X219679657Y-120192220D01*
X219557780Y-120070343D01*
X219414468Y-119974585D01*
X219255228Y-119908626D01*
X219086180Y-119875000D01*
X218913820Y-119875000D01*
X218744772Y-119908626D01*
X218585532Y-119974585D01*
X218442220Y-120070343D01*
X218320343Y-120192220D01*
X218224585Y-120335532D01*
X218158626Y-120494772D01*
X218125000Y-120663820D01*
X201125000Y-120663820D01*
X201125000Y-108913820D01*
X205125000Y-108913820D01*
X205125000Y-109086180D01*
X205158626Y-109255228D01*
X205224585Y-109414468D01*
X205320343Y-109557780D01*
X205442220Y-109679657D01*
X205585532Y-109775415D01*
X205744772Y-109841374D01*
X205913820Y-109875000D01*
X206086180Y-109875000D01*
X206255228Y-109841374D01*
X206414468Y-109775415D01*
X206557780Y-109679657D01*
X206679657Y-109557780D01*
X206775415Y-109414468D01*
X206841374Y-109255228D01*
X206875000Y-109086180D01*
X206875000Y-108913820D01*
X211125000Y-108913820D01*
X211125000Y-109086180D01*
X211158626Y-109255228D01*
X211224585Y-109414468D01*
X211320343Y-109557780D01*
X211442220Y-109679657D01*
X211585532Y-109775415D01*
X211744772Y-109841374D01*
X211913820Y-109875000D01*
X212086180Y-109875000D01*
X212255228Y-109841374D01*
X212414468Y-109775415D01*
X212557780Y-109679657D01*
X212679657Y-109557780D01*
X212775415Y-109414468D01*
X212841374Y-109255228D01*
X212862305Y-109150000D01*
X221233186Y-109150000D01*
X221233186Y-110850000D01*
X221240426Y-110923513D01*
X221261869Y-110994200D01*
X221296691Y-111059347D01*
X221343552Y-111116448D01*
X221400653Y-111163309D01*
X221465800Y-111198131D01*
X221536487Y-111219574D01*
X221610000Y-111226814D01*
X223310000Y-111226814D01*
X223383513Y-111219574D01*
X223454200Y-111198131D01*
X223519347Y-111163309D01*
X223576448Y-111116448D01*
X223623309Y-111059347D01*
X223658131Y-110994200D01*
X223679574Y-110923513D01*
X223686814Y-110850000D01*
X223686814Y-110314094D01*
X223815945Y-110314094D01*
X223899973Y-110539056D01*
X224026274Y-110743303D01*
X224189995Y-110918985D01*
X224384844Y-111059351D01*
X224603333Y-111159007D01*
X224685907Y-111184049D01*
X224875000Y-111124323D01*
X224875000Y-110125000D01*
X225125000Y-110125000D01*
X225125000Y-111124323D01*
X225314093Y-111184049D01*
X225396667Y-111159007D01*
X225615156Y-111059351D01*
X225810005Y-110918985D01*
X225973726Y-110743303D01*
X226100027Y-110539056D01*
X226184055Y-110314094D01*
X226124862Y-110125000D01*
X225125000Y-110125000D01*
X224875000Y-110125000D01*
X223875138Y-110125000D01*
X223815945Y-110314094D01*
X223686814Y-110314094D01*
X223686814Y-110000000D01*
X226309073Y-110000000D01*
X226332725Y-110240142D01*
X226402772Y-110471055D01*
X226516522Y-110683866D01*
X226669603Y-110870397D01*
X226856134Y-111023478D01*
X227068945Y-111137228D01*
X227299858Y-111207275D01*
X227479822Y-111225000D01*
X227600178Y-111225000D01*
X227780142Y-111207275D01*
X227923393Y-111163820D01*
X232625000Y-111163820D01*
X232625000Y-111336180D01*
X232658626Y-111505228D01*
X232724585Y-111664468D01*
X232820343Y-111807780D01*
X232942220Y-111929657D01*
X233085532Y-112025415D01*
X233244772Y-112091374D01*
X233413820Y-112125000D01*
X233586180Y-112125000D01*
X233755228Y-112091374D01*
X233914468Y-112025415D01*
X234057780Y-111929657D01*
X234179657Y-111807780D01*
X234275415Y-111664468D01*
X234341374Y-111505228D01*
X234375000Y-111336180D01*
X234375000Y-111163820D01*
X234341374Y-110994772D01*
X234275415Y-110835532D01*
X234179657Y-110692220D01*
X234057780Y-110570343D01*
X233914468Y-110474585D01*
X233755228Y-110408626D01*
X233586180Y-110375000D01*
X233413820Y-110375000D01*
X233244772Y-110408626D01*
X233085532Y-110474585D01*
X232942220Y-110570343D01*
X232820343Y-110692220D01*
X232724585Y-110835532D01*
X232658626Y-110994772D01*
X232625000Y-111163820D01*
X227923393Y-111163820D01*
X228011055Y-111137228D01*
X228223866Y-111023478D01*
X228410397Y-110870397D01*
X228563478Y-110683866D01*
X228677228Y-110471055D01*
X228747275Y-110240142D01*
X228770927Y-110000000D01*
X228747275Y-109759858D01*
X228677228Y-109528945D01*
X228563478Y-109316134D01*
X228410397Y-109129603D01*
X228223866Y-108976522D01*
X228011055Y-108862772D01*
X227780142Y-108792725D01*
X227600178Y-108775000D01*
X227479822Y-108775000D01*
X227299858Y-108792725D01*
X227068945Y-108862772D01*
X226856134Y-108976522D01*
X226669603Y-109129603D01*
X226516522Y-109316134D01*
X226402772Y-109528945D01*
X226332725Y-109759858D01*
X226309073Y-110000000D01*
X223686814Y-110000000D01*
X223686814Y-109685906D01*
X223815945Y-109685906D01*
X223875138Y-109875000D01*
X224875000Y-109875000D01*
X224875000Y-108875677D01*
X225125000Y-108875677D01*
X225125000Y-109875000D01*
X226124862Y-109875000D01*
X226184055Y-109685906D01*
X226100027Y-109460944D01*
X225973726Y-109256697D01*
X225810005Y-109081015D01*
X225615156Y-108940649D01*
X225396667Y-108840993D01*
X225314093Y-108815951D01*
X225125000Y-108875677D01*
X224875000Y-108875677D01*
X224685907Y-108815951D01*
X224603333Y-108840993D01*
X224384844Y-108940649D01*
X224189995Y-109081015D01*
X224026274Y-109256697D01*
X223899973Y-109460944D01*
X223815945Y-109685906D01*
X223686814Y-109685906D01*
X223686814Y-109150000D01*
X223679574Y-109076487D01*
X223658131Y-109005800D01*
X223623309Y-108940653D01*
X223576448Y-108883552D01*
X223519347Y-108836691D01*
X223454200Y-108801869D01*
X223383513Y-108780426D01*
X223310000Y-108773186D01*
X221610000Y-108773186D01*
X221536487Y-108780426D01*
X221465800Y-108801869D01*
X221400653Y-108836691D01*
X221343552Y-108883552D01*
X221296691Y-108940653D01*
X221261869Y-109005800D01*
X221240426Y-109076487D01*
X221233186Y-109150000D01*
X212862305Y-109150000D01*
X212875000Y-109086180D01*
X212875000Y-108913820D01*
X212841374Y-108744772D01*
X212775415Y-108585532D01*
X212679657Y-108442220D01*
X212557780Y-108320343D01*
X212414468Y-108224585D01*
X212255228Y-108158626D01*
X212086180Y-108125000D01*
X211913820Y-108125000D01*
X211744772Y-108158626D01*
X211585532Y-108224585D01*
X211442220Y-108320343D01*
X211320343Y-108442220D01*
X211224585Y-108585532D01*
X211158626Y-108744772D01*
X211125000Y-108913820D01*
X206875000Y-108913820D01*
X206841374Y-108744772D01*
X206775415Y-108585532D01*
X206679657Y-108442220D01*
X206557780Y-108320343D01*
X206414468Y-108224585D01*
X206255228Y-108158626D01*
X206086180Y-108125000D01*
X205913820Y-108125000D01*
X205744772Y-108158626D01*
X205585532Y-108224585D01*
X205442220Y-108320343D01*
X205320343Y-108442220D01*
X205224585Y-108585532D01*
X205158626Y-108744772D01*
X205125000Y-108913820D01*
X201125000Y-108913820D01*
X201125000Y-105913820D01*
X205125000Y-105913820D01*
X205125000Y-106086180D01*
X205158626Y-106255228D01*
X205224585Y-106414468D01*
X205320343Y-106557780D01*
X205442220Y-106679657D01*
X205585532Y-106775415D01*
X205744772Y-106841374D01*
X205913820Y-106875000D01*
X206086180Y-106875000D01*
X206255228Y-106841374D01*
X206414468Y-106775415D01*
X206557780Y-106679657D01*
X206679657Y-106557780D01*
X206775415Y-106414468D01*
X206841374Y-106255228D01*
X206875000Y-106086180D01*
X206875000Y-105913820D01*
X211125000Y-105913820D01*
X211125000Y-106086180D01*
X211158626Y-106255228D01*
X211224585Y-106414468D01*
X211320343Y-106557780D01*
X211442220Y-106679657D01*
X211585532Y-106775415D01*
X211744772Y-106841374D01*
X211913820Y-106875000D01*
X212086180Y-106875000D01*
X212255228Y-106841374D01*
X212414468Y-106775415D01*
X212557780Y-106679657D01*
X212679657Y-106557780D01*
X212775415Y-106414468D01*
X212841374Y-106255228D01*
X212875000Y-106086180D01*
X212875000Y-105913820D01*
X212841374Y-105744772D01*
X212775415Y-105585532D01*
X212679657Y-105442220D01*
X212557780Y-105320343D01*
X212414468Y-105224585D01*
X212255228Y-105158626D01*
X212086180Y-105125000D01*
X211913820Y-105125000D01*
X211744772Y-105158626D01*
X211585532Y-105224585D01*
X211442220Y-105320343D01*
X211320343Y-105442220D01*
X211224585Y-105585532D01*
X211158626Y-105744772D01*
X211125000Y-105913820D01*
X206875000Y-105913820D01*
X206841374Y-105744772D01*
X206775415Y-105585532D01*
X206679657Y-105442220D01*
X206557780Y-105320343D01*
X206414468Y-105224585D01*
X206255228Y-105158626D01*
X206086180Y-105125000D01*
X205913820Y-105125000D01*
X205744772Y-105158626D01*
X205585532Y-105224585D01*
X205442220Y-105320343D01*
X205320343Y-105442220D01*
X205224585Y-105585532D01*
X205158626Y-105744772D01*
X205125000Y-105913820D01*
X201125000Y-105913820D01*
X201125000Y-101125000D01*
X248875000Y-101125000D01*
X248875000Y-173875000D01*
X248875000Y-173875000D01*
G37*
X248875000Y-173875000D02*
X201125000Y-173875000D01*
X201125000Y-168913820D01*
X240125000Y-168913820D01*
X240125000Y-169086180D01*
X240158626Y-169255228D01*
X240224585Y-169414468D01*
X240320343Y-169557780D01*
X240442220Y-169679657D01*
X240585532Y-169775415D01*
X240744772Y-169841374D01*
X240913820Y-169875000D01*
X241086180Y-169875000D01*
X241255228Y-169841374D01*
X241414468Y-169775415D01*
X241557780Y-169679657D01*
X241679657Y-169557780D01*
X241775415Y-169414468D01*
X241841374Y-169255228D01*
X241875000Y-169086180D01*
X241875000Y-168913820D01*
X243125000Y-168913820D01*
X243125000Y-169086180D01*
X243158626Y-169255228D01*
X243224585Y-169414468D01*
X243320343Y-169557780D01*
X243442220Y-169679657D01*
X243585532Y-169775415D01*
X243744772Y-169841374D01*
X243913820Y-169875000D01*
X244086180Y-169875000D01*
X244255228Y-169841374D01*
X244414468Y-169775415D01*
X244557780Y-169679657D01*
X244679657Y-169557780D01*
X244775415Y-169414468D01*
X244841374Y-169255228D01*
X244875000Y-169086180D01*
X244875000Y-168913820D01*
X244841374Y-168744772D01*
X244775415Y-168585532D01*
X244679657Y-168442220D01*
X244557780Y-168320343D01*
X244414468Y-168224585D01*
X244255228Y-168158626D01*
X244086180Y-168125000D01*
X243913820Y-168125000D01*
X243744772Y-168158626D01*
X243585532Y-168224585D01*
X243442220Y-168320343D01*
X243320343Y-168442220D01*
X243224585Y-168585532D01*
X243158626Y-168744772D01*
X243125000Y-168913820D01*
X241875000Y-168913820D01*
X241841374Y-168744772D01*
X241775415Y-168585532D01*
X241679657Y-168442220D01*
X241557780Y-168320343D01*
X241414468Y-168224585D01*
X241255228Y-168158626D01*
X241086180Y-168125000D01*
X240913820Y-168125000D01*
X240744772Y-168158626D01*
X240585532Y-168224585D01*
X240442220Y-168320343D01*
X240320343Y-168442220D01*
X240224585Y-168585532D01*
X240158626Y-168744772D01*
X240125000Y-168913820D01*
X201125000Y-168913820D01*
X201125000Y-166280010D01*
X208896766Y-166280010D01*
X209055339Y-166512878D01*
X209368638Y-166668103D01*
X209706201Y-166759223D01*
X210055053Y-166782737D01*
X210401790Y-166737742D01*
X210733087Y-166625967D01*
X210944661Y-166512878D01*
X211103234Y-166280010D01*
X210000000Y-165176777D01*
X208896766Y-166280010D01*
X201125000Y-166280010D01*
X201125000Y-165055053D01*
X208217263Y-165055053D01*
X208262258Y-165401790D01*
X208374033Y-165733087D01*
X208487122Y-165944661D01*
X208719990Y-166103234D01*
X209823223Y-165000000D01*
X210176777Y-165000000D01*
X211280010Y-166103234D01*
X211512878Y-165944661D01*
X211668103Y-165631362D01*
X211753744Y-165314094D01*
X222525945Y-165314094D01*
X222609973Y-165539056D01*
X222736274Y-165743303D01*
X222899995Y-165918985D01*
X223094844Y-166059351D01*
X223313333Y-166159007D01*
X223395907Y-166184049D01*
X223585000Y-166124323D01*
X223585000Y-165125000D01*
X222585138Y-165125000D01*
X222525945Y-165314094D01*
X211753744Y-165314094D01*
X211759223Y-165293799D01*
X211782737Y-164944947D01*
X211749123Y-164685906D01*
X222525945Y-164685906D01*
X222585138Y-164875000D01*
X223585000Y-164875000D01*
X223585000Y-163875677D01*
X223835000Y-163875677D01*
X223835000Y-164875000D01*
X223855000Y-164875000D01*
X223855000Y-165125000D01*
X223835000Y-165125000D01*
X223835000Y-166124323D01*
X224024093Y-166184049D01*
X224106667Y-166159007D01*
X224325156Y-166059351D01*
X224520005Y-165918985D01*
X224683726Y-165743303D01*
X224810027Y-165539056D01*
X224894055Y-165314094D01*
X224834863Y-165125002D01*
X224880659Y-165125002D01*
X224894895Y-165269546D01*
X224973519Y-165528735D01*
X225023186Y-165621655D01*
X225023186Y-165850000D01*
X225030426Y-165923513D01*
X225051869Y-165994200D01*
X225086691Y-166059347D01*
X225133552Y-166116448D01*
X225190653Y-166163309D01*
X225255800Y-166198131D01*
X225326487Y-166219574D01*
X225400000Y-166226814D01*
X225628344Y-166226814D01*
X225721264Y-166276481D01*
X225980453Y-166355105D01*
X226250000Y-166381653D01*
X226519546Y-166355105D01*
X226778735Y-166276481D01*
X226871655Y-166226814D01*
X227100000Y-166226814D01*
X227173513Y-166219574D01*
X227244200Y-166198131D01*
X227309347Y-166163309D01*
X227366448Y-166116448D01*
X227413309Y-166059347D01*
X227448131Y-165994200D01*
X227469574Y-165923513D01*
X227476814Y-165850000D01*
X227476814Y-165621656D01*
X227526481Y-165528736D01*
X227605105Y-165269547D01*
X227625000Y-165067549D01*
X227625000Y-163569543D01*
X228280723Y-162913820D01*
X240125000Y-162913820D01*
X240125000Y-163086180D01*
X240158626Y-163255228D01*
X240224585Y-163414468D01*
X240320343Y-163557780D01*
X240442220Y-163679657D01*
X240585532Y-163775415D01*
X240744772Y-163841374D01*
X240913820Y-163875000D01*
X241086180Y-163875000D01*
X241255228Y-163841374D01*
X241414468Y-163775415D01*
X241557780Y-163679657D01*
X241679657Y-163557780D01*
X241775415Y-163414468D01*
X241841374Y-163255228D01*
X241875000Y-163086180D01*
X241875000Y-162913820D01*
X243125000Y-162913820D01*
X243125000Y-163086180D01*
X243158626Y-163255228D01*
X243224585Y-163414468D01*
X243320343Y-163557780D01*
X243442220Y-163679657D01*
X243585532Y-163775415D01*
X243744772Y-163841374D01*
X243913820Y-163875000D01*
X244086180Y-163875000D01*
X244255228Y-163841374D01*
X244414468Y-163775415D01*
X244557780Y-163679657D01*
X244679657Y-163557780D01*
X244775415Y-163414468D01*
X244841374Y-163255228D01*
X244875000Y-163086180D01*
X244875000Y-162913820D01*
X244841374Y-162744772D01*
X244775415Y-162585532D01*
X244679657Y-162442220D01*
X244557780Y-162320343D01*
X244414468Y-162224585D01*
X244255228Y-162158626D01*
X244086180Y-162125000D01*
X243913820Y-162125000D01*
X243744772Y-162158626D01*
X243585532Y-162224585D01*
X243442220Y-162320343D01*
X243320343Y-162442220D01*
X243224585Y-162585532D01*
X243158626Y-162744772D01*
X243125000Y-162913820D01*
X241875000Y-162913820D01*
X241841374Y-162744772D01*
X241775415Y-162585532D01*
X241679657Y-162442220D01*
X241557780Y-162320343D01*
X241414468Y-162224585D01*
X241255228Y-162158626D01*
X241086180Y-162125000D01*
X240913820Y-162125000D01*
X240744772Y-162158626D01*
X240585532Y-162224585D01*
X240442220Y-162320343D01*
X240320343Y-162442220D01*
X240224585Y-162585532D01*
X240158626Y-162744772D01*
X240125000Y-162913820D01*
X228280723Y-162913820D01*
X231069544Y-160125000D01*
X238432461Y-160125000D01*
X238500000Y-160131652D01*
X238567539Y-160125000D01*
X238567549Y-160125000D01*
X238769547Y-160105105D01*
X239028736Y-160026481D01*
X239267605Y-159898802D01*
X239476976Y-159726976D01*
X239520037Y-159674506D01*
X243924516Y-155270028D01*
X243976975Y-155226976D01*
X244020028Y-155174516D01*
X244020036Y-155174508D01*
X244148802Y-155017606D01*
X244276481Y-154778736D01*
X244276481Y-154778735D01*
X244355105Y-154519547D01*
X244375000Y-154317549D01*
X244375000Y-154317540D01*
X244381652Y-154250001D01*
X244375000Y-154182462D01*
X244375000Y-137067538D01*
X244381652Y-136999999D01*
X244375000Y-136932460D01*
X244375000Y-136932451D01*
X244355105Y-136730453D01*
X244276481Y-136471264D01*
X244148802Y-136232394D01*
X244020036Y-136075492D01*
X244020032Y-136075488D01*
X243976976Y-136023024D01*
X243924512Y-135979968D01*
X240020037Y-132075493D01*
X239976976Y-132023024D01*
X239767605Y-131851198D01*
X239528736Y-131723519D01*
X239269547Y-131644895D01*
X239067549Y-131625000D01*
X239067539Y-131625000D01*
X239000000Y-131618348D01*
X238932461Y-131625000D01*
X235682451Y-131625000D01*
X235480453Y-131644895D01*
X235221264Y-131723519D01*
X234982395Y-131851198D01*
X234773024Y-132023024D01*
X234601198Y-132232395D01*
X234473519Y-132471264D01*
X234394895Y-132730453D01*
X234368347Y-133000000D01*
X234394895Y-133269547D01*
X234473519Y-133528736D01*
X234601198Y-133767605D01*
X234773024Y-133976976D01*
X234982395Y-134148802D01*
X235221264Y-134276481D01*
X235480453Y-134355105D01*
X235682451Y-134375000D01*
X238430457Y-134375000D01*
X241625001Y-137569545D01*
X241625000Y-153680456D01*
X237930457Y-157375000D01*
X230567539Y-157375000D01*
X230500000Y-157368348D01*
X230432461Y-157375000D01*
X230432451Y-157375000D01*
X230230453Y-157394895D01*
X229971264Y-157473519D01*
X229732394Y-157601198D01*
X229575492Y-157729964D01*
X229575488Y-157729968D01*
X229523024Y-157773024D01*
X229479968Y-157825488D01*
X225325489Y-161979968D01*
X225273025Y-162023024D01*
X225229969Y-162075488D01*
X225229964Y-162075493D01*
X225101198Y-162232395D01*
X224973519Y-162471265D01*
X224894896Y-162730454D01*
X224868348Y-163000000D01*
X224875001Y-163067548D01*
X224875000Y-164634892D01*
X224810027Y-164460944D01*
X224683726Y-164256697D01*
X224520005Y-164081015D01*
X224325156Y-163940649D01*
X224106667Y-163840993D01*
X224024093Y-163815951D01*
X223835000Y-163875677D01*
X223585000Y-163875677D01*
X223395907Y-163815951D01*
X223313333Y-163840993D01*
X223094844Y-163940649D01*
X222899995Y-164081015D01*
X222736274Y-164256697D01*
X222609973Y-164460944D01*
X222525945Y-164685906D01*
X211749123Y-164685906D01*
X211737742Y-164598210D01*
X211625967Y-164266913D01*
X211512878Y-164055339D01*
X211280010Y-163896766D01*
X210176777Y-165000000D01*
X209823223Y-165000000D01*
X208719990Y-163896766D01*
X208487122Y-164055339D01*
X208331897Y-164368638D01*
X208240777Y-164706201D01*
X208217263Y-165055053D01*
X201125000Y-165055053D01*
X201125000Y-163719990D01*
X208896766Y-163719990D01*
X210000000Y-164823223D01*
X211103234Y-163719990D01*
X210944661Y-163487122D01*
X210631362Y-163331897D01*
X210293799Y-163240777D01*
X209944947Y-163217263D01*
X209598210Y-163262258D01*
X209266913Y-163374033D01*
X209055339Y-163487122D01*
X208896766Y-163719990D01*
X201125000Y-163719990D01*
X201125000Y-155663820D01*
X217625000Y-155663820D01*
X217625000Y-155836180D01*
X217658626Y-156005228D01*
X217724585Y-156164468D01*
X217820343Y-156307780D01*
X217942220Y-156429657D01*
X218085532Y-156525415D01*
X218244772Y-156591374D01*
X218413820Y-156625000D01*
X218586180Y-156625000D01*
X218755228Y-156591374D01*
X218914468Y-156525415D01*
X219057780Y-156429657D01*
X219179657Y-156307780D01*
X219275415Y-156164468D01*
X219341374Y-156005228D01*
X219375000Y-155836180D01*
X219375000Y-155663820D01*
X219341374Y-155494772D01*
X219307843Y-155413820D01*
X231375000Y-155413820D01*
X231375000Y-155586180D01*
X231408626Y-155755228D01*
X231474585Y-155914468D01*
X231570343Y-156057780D01*
X231692220Y-156179657D01*
X231835532Y-156275415D01*
X231994772Y-156341374D01*
X232163820Y-156375000D01*
X232336180Y-156375000D01*
X232505228Y-156341374D01*
X232664468Y-156275415D01*
X232807780Y-156179657D01*
X232929657Y-156057780D01*
X233025415Y-155914468D01*
X233091374Y-155755228D01*
X233125000Y-155586180D01*
X233125000Y-155413820D01*
X233091374Y-155244772D01*
X233025415Y-155085532D01*
X232929657Y-154942220D01*
X232807780Y-154820343D01*
X232664468Y-154724585D01*
X232505228Y-154658626D01*
X232336180Y-154625000D01*
X232163820Y-154625000D01*
X231994772Y-154658626D01*
X231835532Y-154724585D01*
X231692220Y-154820343D01*
X231570343Y-154942220D01*
X231474585Y-155085532D01*
X231408626Y-155244772D01*
X231375000Y-155413820D01*
X219307843Y-155413820D01*
X219275415Y-155335532D01*
X219179657Y-155192220D01*
X219057780Y-155070343D01*
X218914468Y-154974585D01*
X218755228Y-154908626D01*
X218586180Y-154875000D01*
X218413820Y-154875000D01*
X218244772Y-154908626D01*
X218085532Y-154974585D01*
X217942220Y-155070343D01*
X217820343Y-155192220D01*
X217724585Y-155335532D01*
X217658626Y-155494772D01*
X217625000Y-155663820D01*
X201125000Y-155663820D01*
X201125000Y-153163820D01*
X217625000Y-153163820D01*
X217625000Y-153336180D01*
X217658626Y-153505228D01*
X217724585Y-153664468D01*
X217820343Y-153807780D01*
X217942220Y-153929657D01*
X218085532Y-154025415D01*
X218244772Y-154091374D01*
X218413820Y-154125000D01*
X218586180Y-154125000D01*
X218755228Y-154091374D01*
X218914468Y-154025415D01*
X219057780Y-153929657D01*
X219179657Y-153807780D01*
X219275415Y-153664468D01*
X219341374Y-153505228D01*
X219375000Y-153336180D01*
X219375000Y-153163820D01*
X232625000Y-153163820D01*
X232625000Y-153336180D01*
X232658626Y-153505228D01*
X232724585Y-153664468D01*
X232820343Y-153807780D01*
X232942220Y-153929657D01*
X233085532Y-154025415D01*
X233244772Y-154091374D01*
X233413820Y-154125000D01*
X233586180Y-154125000D01*
X233755228Y-154091374D01*
X233914468Y-154025415D01*
X234057780Y-153929657D01*
X234179657Y-153807780D01*
X234275415Y-153664468D01*
X234341374Y-153505228D01*
X234375000Y-153336180D01*
X234375000Y-153163820D01*
X234341374Y-152994772D01*
X234275415Y-152835532D01*
X234179657Y-152692220D01*
X234057780Y-152570343D01*
X233914468Y-152474585D01*
X233755228Y-152408626D01*
X233586180Y-152375000D01*
X233413820Y-152375000D01*
X233244772Y-152408626D01*
X233085532Y-152474585D01*
X232942220Y-152570343D01*
X232820343Y-152692220D01*
X232724585Y-152835532D01*
X232658626Y-152994772D01*
X232625000Y-153163820D01*
X219375000Y-153163820D01*
X219341374Y-152994772D01*
X219275415Y-152835532D01*
X219179657Y-152692220D01*
X219057780Y-152570343D01*
X218914468Y-152474585D01*
X218755228Y-152408626D01*
X218586180Y-152375000D01*
X218413820Y-152375000D01*
X218244772Y-152408626D01*
X218085532Y-152474585D01*
X217942220Y-152570343D01*
X217820343Y-152692220D01*
X217724585Y-152835532D01*
X217658626Y-152994772D01*
X217625000Y-153163820D01*
X201125000Y-153163820D01*
X201125000Y-151163820D01*
X223125000Y-151163820D01*
X223125000Y-151336180D01*
X223158626Y-151505228D01*
X223224585Y-151664468D01*
X223320343Y-151807780D01*
X223442220Y-151929657D01*
X223585532Y-152025415D01*
X223744772Y-152091374D01*
X223913820Y-152125000D01*
X224086180Y-152125000D01*
X224255228Y-152091374D01*
X224414468Y-152025415D01*
X224557780Y-151929657D01*
X224679657Y-151807780D01*
X224775415Y-151664468D01*
X224841374Y-151505228D01*
X224875000Y-151336180D01*
X224875000Y-151163820D01*
X224841374Y-150994772D01*
X224775415Y-150835532D01*
X224679657Y-150692220D01*
X224557780Y-150570343D01*
X224414468Y-150474585D01*
X224255228Y-150408626D01*
X224086180Y-150375000D01*
X223913820Y-150375000D01*
X223744772Y-150408626D01*
X223585532Y-150474585D01*
X223442220Y-150570343D01*
X223320343Y-150692220D01*
X223224585Y-150835532D01*
X223158626Y-150994772D01*
X223125000Y-151163820D01*
X201125000Y-151163820D01*
X201125000Y-149278594D01*
X227625000Y-149278594D01*
X227625000Y-149421406D01*
X227652861Y-149561475D01*
X227707513Y-149693416D01*
X227786856Y-149812161D01*
X227887839Y-149913144D01*
X228006584Y-149992487D01*
X228138525Y-150047139D01*
X228278594Y-150075000D01*
X228421406Y-150075000D01*
X228561475Y-150047139D01*
X228693416Y-149992487D01*
X228812161Y-149913144D01*
X228913144Y-149812161D01*
X228992487Y-149693416D01*
X229047139Y-149561475D01*
X229075000Y-149421406D01*
X229075000Y-149278594D01*
X229072147Y-149264249D01*
X229302573Y-149033823D01*
X229319737Y-149019737D01*
X229333824Y-149002572D01*
X229333828Y-149002568D01*
X229375971Y-148951217D01*
X229417757Y-148873041D01*
X229417757Y-148873040D01*
X229443489Y-148788215D01*
X229450000Y-148722105D01*
X229450000Y-148722094D01*
X229452176Y-148700000D01*
X229450000Y-148677906D01*
X229450000Y-145436395D01*
X229686396Y-145200000D01*
X230428730Y-145200000D01*
X230436856Y-145212161D01*
X230537839Y-145313144D01*
X230656584Y-145392487D01*
X230788525Y-145447139D01*
X230928594Y-145475000D01*
X231071406Y-145475000D01*
X231211475Y-145447139D01*
X231343416Y-145392487D01*
X231462161Y-145313144D01*
X231563144Y-145212161D01*
X231642487Y-145093416D01*
X231697139Y-144961475D01*
X231725000Y-144821406D01*
X231725000Y-144678594D01*
X231697139Y-144538525D01*
X231642487Y-144406584D01*
X231563144Y-144287839D01*
X231462161Y-144186856D01*
X231343416Y-144107513D01*
X231211475Y-144052861D01*
X231071406Y-144025000D01*
X230928594Y-144025000D01*
X230788525Y-144052861D01*
X230656584Y-144107513D01*
X230537839Y-144186856D01*
X230436856Y-144287839D01*
X230428730Y-144300000D01*
X229522094Y-144300000D01*
X229500000Y-144297824D01*
X229477906Y-144300000D01*
X229477895Y-144300000D01*
X229411785Y-144306511D01*
X229326959Y-144332243D01*
X229248783Y-144374029D01*
X229197432Y-144416172D01*
X229197428Y-144416176D01*
X229180263Y-144430263D01*
X229166176Y-144447428D01*
X228697429Y-144916176D01*
X228680264Y-144930263D01*
X228666177Y-144947428D01*
X228666172Y-144947433D01*
X228624029Y-144998784D01*
X228582243Y-145076960D01*
X228556512Y-145161785D01*
X228547824Y-145250000D01*
X228550001Y-145272104D01*
X228550000Y-148513604D01*
X228435751Y-148627853D01*
X228421406Y-148625000D01*
X228278594Y-148625000D01*
X228138525Y-148652861D01*
X228006584Y-148707513D01*
X227887839Y-148786856D01*
X227786856Y-148887839D01*
X227707513Y-149006584D01*
X227652861Y-149138525D01*
X227625000Y-149278594D01*
X201125000Y-149278594D01*
X201125000Y-148163820D01*
X218875000Y-148163820D01*
X218875000Y-148336180D01*
X218908626Y-148505228D01*
X218974585Y-148664468D01*
X219070343Y-148807780D01*
X219192220Y-148929657D01*
X219335532Y-149025415D01*
X219494772Y-149091374D01*
X219663820Y-149125000D01*
X219836180Y-149125000D01*
X220005228Y-149091374D01*
X220164468Y-149025415D01*
X220307780Y-148929657D01*
X220429657Y-148807780D01*
X220525415Y-148664468D01*
X220591374Y-148505228D01*
X220625000Y-148336180D01*
X220625000Y-148163820D01*
X220591374Y-147994772D01*
X220525415Y-147835532D01*
X220429657Y-147692220D01*
X220307780Y-147570343D01*
X220164468Y-147474585D01*
X220005228Y-147408626D01*
X219836180Y-147375000D01*
X219663820Y-147375000D01*
X219494772Y-147408626D01*
X219335532Y-147474585D01*
X219192220Y-147570343D01*
X219070343Y-147692220D01*
X218974585Y-147835532D01*
X218908626Y-147994772D01*
X218875000Y-148163820D01*
X201125000Y-148163820D01*
X201125000Y-146163820D01*
X220625000Y-146163820D01*
X220625000Y-146336180D01*
X220658626Y-146505228D01*
X220724585Y-146664468D01*
X220820343Y-146807780D01*
X220942220Y-146929657D01*
X221085532Y-147025415D01*
X221244772Y-147091374D01*
X221413820Y-147125000D01*
X221586180Y-147125000D01*
X221755228Y-147091374D01*
X221914468Y-147025415D01*
X222057780Y-146929657D01*
X222179657Y-146807780D01*
X222275415Y-146664468D01*
X222341374Y-146505228D01*
X222375000Y-146336180D01*
X222375000Y-146163820D01*
X222341374Y-145994772D01*
X222275415Y-145835532D01*
X222179657Y-145692220D01*
X222057780Y-145570343D01*
X221914468Y-145474585D01*
X221755228Y-145408626D01*
X221586180Y-145375000D01*
X221413820Y-145375000D01*
X221244772Y-145408626D01*
X221085532Y-145474585D01*
X220942220Y-145570343D01*
X220820343Y-145692220D01*
X220724585Y-145835532D01*
X220658626Y-145994772D01*
X220625000Y-146163820D01*
X201125000Y-146163820D01*
X201125000Y-143163820D01*
X211625000Y-143163820D01*
X211625000Y-143336180D01*
X211658626Y-143505228D01*
X211724585Y-143664468D01*
X211820343Y-143807780D01*
X211942220Y-143929657D01*
X212085532Y-144025415D01*
X212244772Y-144091374D01*
X212413820Y-144125000D01*
X212586180Y-144125000D01*
X212755228Y-144091374D01*
X212914468Y-144025415D01*
X213057780Y-143929657D01*
X213179657Y-143807780D01*
X213275415Y-143664468D01*
X213341374Y-143505228D01*
X213375000Y-143336180D01*
X213375000Y-143163820D01*
X213341374Y-142994772D01*
X213275415Y-142835532D01*
X213179657Y-142692220D01*
X213057780Y-142570343D01*
X212914468Y-142474585D01*
X212755228Y-142408626D01*
X212586180Y-142375000D01*
X212413820Y-142375000D01*
X212244772Y-142408626D01*
X212085532Y-142474585D01*
X211942220Y-142570343D01*
X211820343Y-142692220D01*
X211724585Y-142835532D01*
X211658626Y-142994772D01*
X211625000Y-143163820D01*
X201125000Y-143163820D01*
X201125000Y-134913820D01*
X211875000Y-134913820D01*
X211875000Y-135086180D01*
X211908626Y-135255228D01*
X211974585Y-135414468D01*
X212070343Y-135557780D01*
X212192220Y-135679657D01*
X212335532Y-135775415D01*
X212494772Y-135841374D01*
X212663820Y-135875000D01*
X212836180Y-135875000D01*
X213005228Y-135841374D01*
X213164468Y-135775415D01*
X213307780Y-135679657D01*
X213429657Y-135557780D01*
X213525415Y-135414468D01*
X213591374Y-135255228D01*
X213625000Y-135086180D01*
X213625000Y-134913820D01*
X213591374Y-134744772D01*
X213525415Y-134585532D01*
X213429657Y-134442220D01*
X213307780Y-134320343D01*
X213164468Y-134224585D01*
X213005228Y-134158626D01*
X212836180Y-134125000D01*
X212663820Y-134125000D01*
X212494772Y-134158626D01*
X212335532Y-134224585D01*
X212192220Y-134320343D01*
X212070343Y-134442220D01*
X211974585Y-134585532D01*
X211908626Y-134744772D01*
X211875000Y-134913820D01*
X201125000Y-134913820D01*
X201125000Y-130850000D01*
X228468348Y-130850000D01*
X228475001Y-130917549D01*
X228475000Y-141967548D01*
X228494895Y-142169546D01*
X228573519Y-142428735D01*
X228701198Y-142667604D01*
X228873024Y-142876975D01*
X229082395Y-143048802D01*
X229321264Y-143176481D01*
X229580453Y-143255105D01*
X229850000Y-143281653D01*
X230119546Y-143255105D01*
X230378735Y-143176481D01*
X230617604Y-143048802D01*
X230826975Y-142876976D01*
X230998802Y-142667605D01*
X231126481Y-142428736D01*
X231205105Y-142169547D01*
X231205669Y-142163820D01*
X234375000Y-142163820D01*
X234375000Y-142336180D01*
X234408626Y-142505228D01*
X234474585Y-142664468D01*
X234570343Y-142807780D01*
X234692220Y-142929657D01*
X234835532Y-143025415D01*
X234994772Y-143091374D01*
X235163820Y-143125000D01*
X235336180Y-143125000D01*
X235505228Y-143091374D01*
X235664468Y-143025415D01*
X235807780Y-142929657D01*
X235929657Y-142807780D01*
X236025415Y-142664468D01*
X236091374Y-142505228D01*
X236125000Y-142336180D01*
X236125000Y-142163820D01*
X236091374Y-141994772D01*
X236025415Y-141835532D01*
X235929657Y-141692220D01*
X235807780Y-141570343D01*
X235664468Y-141474585D01*
X235505228Y-141408626D01*
X235336180Y-141375000D01*
X235163820Y-141375000D01*
X234994772Y-141408626D01*
X234835532Y-141474585D01*
X234692220Y-141570343D01*
X234570343Y-141692220D01*
X234474585Y-141835532D01*
X234408626Y-141994772D01*
X234375000Y-142163820D01*
X231205669Y-142163820D01*
X231225000Y-141967549D01*
X231225000Y-131419543D01*
X232980723Y-129663820D01*
X235375000Y-129663820D01*
X235375000Y-129836180D01*
X235408626Y-130005228D01*
X235474585Y-130164468D01*
X235570343Y-130307780D01*
X235692220Y-130429657D01*
X235835532Y-130525415D01*
X235994772Y-130591374D01*
X236163820Y-130625000D01*
X236336180Y-130625000D01*
X236505228Y-130591374D01*
X236664468Y-130525415D01*
X236807780Y-130429657D01*
X236929657Y-130307780D01*
X237025415Y-130164468D01*
X237091374Y-130005228D01*
X237125000Y-129836180D01*
X237125000Y-129663820D01*
X237091374Y-129494772D01*
X237025415Y-129335532D01*
X236929657Y-129192220D01*
X236807780Y-129070343D01*
X236664468Y-128974585D01*
X236505228Y-128908626D01*
X236336180Y-128875000D01*
X236163820Y-128875000D01*
X235994772Y-128908626D01*
X235835532Y-128974585D01*
X235692220Y-129070343D01*
X235570343Y-129192220D01*
X235474585Y-129335532D01*
X235408626Y-129494772D01*
X235375000Y-129663820D01*
X232980723Y-129663820D01*
X234769544Y-127875000D01*
X235817549Y-127875000D01*
X236019547Y-127855105D01*
X236278736Y-127776481D01*
X236517605Y-127648802D01*
X236726976Y-127476976D01*
X236898802Y-127267605D01*
X237026481Y-127028736D01*
X237105105Y-126769547D01*
X237131653Y-126500000D01*
X237105105Y-126230453D01*
X237026481Y-125971264D01*
X236898802Y-125732395D01*
X236726976Y-125523024D01*
X236517605Y-125351198D01*
X236278736Y-125223519D01*
X236019547Y-125144895D01*
X235817549Y-125125000D01*
X234267539Y-125125000D01*
X234200000Y-125118348D01*
X234132461Y-125125000D01*
X234132451Y-125125000D01*
X233930453Y-125144895D01*
X233671264Y-125223519D01*
X233432394Y-125351198D01*
X233275492Y-125479964D01*
X233275488Y-125479968D01*
X233223024Y-125523024D01*
X233179968Y-125575488D01*
X228925489Y-129829968D01*
X228873025Y-129873024D01*
X228829969Y-129925488D01*
X228829964Y-129925493D01*
X228701198Y-130082395D01*
X228573519Y-130321265D01*
X228494896Y-130580454D01*
X228468348Y-130850000D01*
X201125000Y-130850000D01*
X201125000Y-120663820D01*
X218125000Y-120663820D01*
X218125000Y-120836180D01*
X218158626Y-121005228D01*
X218224585Y-121164468D01*
X218320343Y-121307780D01*
X218442220Y-121429657D01*
X218585532Y-121525415D01*
X218744772Y-121591374D01*
X218913820Y-121625000D01*
X219086180Y-121625000D01*
X219255228Y-121591374D01*
X219414468Y-121525415D01*
X219557780Y-121429657D01*
X219679657Y-121307780D01*
X219775415Y-121164468D01*
X219841374Y-121005228D01*
X219875000Y-120836180D01*
X219875000Y-120663820D01*
X219841374Y-120494772D01*
X219775415Y-120335532D01*
X219679657Y-120192220D01*
X219557780Y-120070343D01*
X219414468Y-119974585D01*
X219255228Y-119908626D01*
X219086180Y-119875000D01*
X218913820Y-119875000D01*
X218744772Y-119908626D01*
X218585532Y-119974585D01*
X218442220Y-120070343D01*
X218320343Y-120192220D01*
X218224585Y-120335532D01*
X218158626Y-120494772D01*
X218125000Y-120663820D01*
X201125000Y-120663820D01*
X201125000Y-108913820D01*
X205125000Y-108913820D01*
X205125000Y-109086180D01*
X205158626Y-109255228D01*
X205224585Y-109414468D01*
X205320343Y-109557780D01*
X205442220Y-109679657D01*
X205585532Y-109775415D01*
X205744772Y-109841374D01*
X205913820Y-109875000D01*
X206086180Y-109875000D01*
X206255228Y-109841374D01*
X206414468Y-109775415D01*
X206557780Y-109679657D01*
X206679657Y-109557780D01*
X206775415Y-109414468D01*
X206841374Y-109255228D01*
X206875000Y-109086180D01*
X206875000Y-108913820D01*
X211125000Y-108913820D01*
X211125000Y-109086180D01*
X211158626Y-109255228D01*
X211224585Y-109414468D01*
X211320343Y-109557780D01*
X211442220Y-109679657D01*
X211585532Y-109775415D01*
X211744772Y-109841374D01*
X211913820Y-109875000D01*
X212086180Y-109875000D01*
X212255228Y-109841374D01*
X212414468Y-109775415D01*
X212557780Y-109679657D01*
X212679657Y-109557780D01*
X212775415Y-109414468D01*
X212841374Y-109255228D01*
X212862305Y-109150000D01*
X221233186Y-109150000D01*
X221233186Y-110850000D01*
X221240426Y-110923513D01*
X221261869Y-110994200D01*
X221296691Y-111059347D01*
X221343552Y-111116448D01*
X221400653Y-111163309D01*
X221465800Y-111198131D01*
X221536487Y-111219574D01*
X221610000Y-111226814D01*
X223310000Y-111226814D01*
X223383513Y-111219574D01*
X223454200Y-111198131D01*
X223519347Y-111163309D01*
X223576448Y-111116448D01*
X223623309Y-111059347D01*
X223658131Y-110994200D01*
X223679574Y-110923513D01*
X223686814Y-110850000D01*
X223686814Y-110314094D01*
X223815945Y-110314094D01*
X223899973Y-110539056D01*
X224026274Y-110743303D01*
X224189995Y-110918985D01*
X224384844Y-111059351D01*
X224603333Y-111159007D01*
X224685907Y-111184049D01*
X224875000Y-111124323D01*
X224875000Y-110125000D01*
X225125000Y-110125000D01*
X225125000Y-111124323D01*
X225314093Y-111184049D01*
X225396667Y-111159007D01*
X225615156Y-111059351D01*
X225810005Y-110918985D01*
X225973726Y-110743303D01*
X226100027Y-110539056D01*
X226184055Y-110314094D01*
X226124862Y-110125000D01*
X225125000Y-110125000D01*
X224875000Y-110125000D01*
X223875138Y-110125000D01*
X223815945Y-110314094D01*
X223686814Y-110314094D01*
X223686814Y-110000000D01*
X226309073Y-110000000D01*
X226332725Y-110240142D01*
X226402772Y-110471055D01*
X226516522Y-110683866D01*
X226669603Y-110870397D01*
X226856134Y-111023478D01*
X227068945Y-111137228D01*
X227299858Y-111207275D01*
X227479822Y-111225000D01*
X227600178Y-111225000D01*
X227780142Y-111207275D01*
X227923393Y-111163820D01*
X232625000Y-111163820D01*
X232625000Y-111336180D01*
X232658626Y-111505228D01*
X232724585Y-111664468D01*
X232820343Y-111807780D01*
X232942220Y-111929657D01*
X233085532Y-112025415D01*
X233244772Y-112091374D01*
X233413820Y-112125000D01*
X233586180Y-112125000D01*
X233755228Y-112091374D01*
X233914468Y-112025415D01*
X234057780Y-111929657D01*
X234179657Y-111807780D01*
X234275415Y-111664468D01*
X234341374Y-111505228D01*
X234375000Y-111336180D01*
X234375000Y-111163820D01*
X234341374Y-110994772D01*
X234275415Y-110835532D01*
X234179657Y-110692220D01*
X234057780Y-110570343D01*
X233914468Y-110474585D01*
X233755228Y-110408626D01*
X233586180Y-110375000D01*
X233413820Y-110375000D01*
X233244772Y-110408626D01*
X233085532Y-110474585D01*
X232942220Y-110570343D01*
X232820343Y-110692220D01*
X232724585Y-110835532D01*
X232658626Y-110994772D01*
X232625000Y-111163820D01*
X227923393Y-111163820D01*
X228011055Y-111137228D01*
X228223866Y-111023478D01*
X228410397Y-110870397D01*
X228563478Y-110683866D01*
X228677228Y-110471055D01*
X228747275Y-110240142D01*
X228770927Y-110000000D01*
X228747275Y-109759858D01*
X228677228Y-109528945D01*
X228563478Y-109316134D01*
X228410397Y-109129603D01*
X228223866Y-108976522D01*
X228011055Y-108862772D01*
X227780142Y-108792725D01*
X227600178Y-108775000D01*
X227479822Y-108775000D01*
X227299858Y-108792725D01*
X227068945Y-108862772D01*
X226856134Y-108976522D01*
X226669603Y-109129603D01*
X226516522Y-109316134D01*
X226402772Y-109528945D01*
X226332725Y-109759858D01*
X226309073Y-110000000D01*
X223686814Y-110000000D01*
X223686814Y-109685906D01*
X223815945Y-109685906D01*
X223875138Y-109875000D01*
X224875000Y-109875000D01*
X224875000Y-108875677D01*
X225125000Y-108875677D01*
X225125000Y-109875000D01*
X226124862Y-109875000D01*
X226184055Y-109685906D01*
X226100027Y-109460944D01*
X225973726Y-109256697D01*
X225810005Y-109081015D01*
X225615156Y-108940649D01*
X225396667Y-108840993D01*
X225314093Y-108815951D01*
X225125000Y-108875677D01*
X224875000Y-108875677D01*
X224685907Y-108815951D01*
X224603333Y-108840993D01*
X224384844Y-108940649D01*
X224189995Y-109081015D01*
X224026274Y-109256697D01*
X223899973Y-109460944D01*
X223815945Y-109685906D01*
X223686814Y-109685906D01*
X223686814Y-109150000D01*
X223679574Y-109076487D01*
X223658131Y-109005800D01*
X223623309Y-108940653D01*
X223576448Y-108883552D01*
X223519347Y-108836691D01*
X223454200Y-108801869D01*
X223383513Y-108780426D01*
X223310000Y-108773186D01*
X221610000Y-108773186D01*
X221536487Y-108780426D01*
X221465800Y-108801869D01*
X221400653Y-108836691D01*
X221343552Y-108883552D01*
X221296691Y-108940653D01*
X221261869Y-109005800D01*
X221240426Y-109076487D01*
X221233186Y-109150000D01*
X212862305Y-109150000D01*
X212875000Y-109086180D01*
X212875000Y-108913820D01*
X212841374Y-108744772D01*
X212775415Y-108585532D01*
X212679657Y-108442220D01*
X212557780Y-108320343D01*
X212414468Y-108224585D01*
X212255228Y-108158626D01*
X212086180Y-108125000D01*
X211913820Y-108125000D01*
X211744772Y-108158626D01*
X211585532Y-108224585D01*
X211442220Y-108320343D01*
X211320343Y-108442220D01*
X211224585Y-108585532D01*
X211158626Y-108744772D01*
X211125000Y-108913820D01*
X206875000Y-108913820D01*
X206841374Y-108744772D01*
X206775415Y-108585532D01*
X206679657Y-108442220D01*
X206557780Y-108320343D01*
X206414468Y-108224585D01*
X206255228Y-108158626D01*
X206086180Y-108125000D01*
X205913820Y-108125000D01*
X205744772Y-108158626D01*
X205585532Y-108224585D01*
X205442220Y-108320343D01*
X205320343Y-108442220D01*
X205224585Y-108585532D01*
X205158626Y-108744772D01*
X205125000Y-108913820D01*
X201125000Y-108913820D01*
X201125000Y-105913820D01*
X205125000Y-105913820D01*
X205125000Y-106086180D01*
X205158626Y-106255228D01*
X205224585Y-106414468D01*
X205320343Y-106557780D01*
X205442220Y-106679657D01*
X205585532Y-106775415D01*
X205744772Y-106841374D01*
X205913820Y-106875000D01*
X206086180Y-106875000D01*
X206255228Y-106841374D01*
X206414468Y-106775415D01*
X206557780Y-106679657D01*
X206679657Y-106557780D01*
X206775415Y-106414468D01*
X206841374Y-106255228D01*
X206875000Y-106086180D01*
X206875000Y-105913820D01*
X211125000Y-105913820D01*
X211125000Y-106086180D01*
X211158626Y-106255228D01*
X211224585Y-106414468D01*
X211320343Y-106557780D01*
X211442220Y-106679657D01*
X211585532Y-106775415D01*
X211744772Y-106841374D01*
X211913820Y-106875000D01*
X212086180Y-106875000D01*
X212255228Y-106841374D01*
X212414468Y-106775415D01*
X212557780Y-106679657D01*
X212679657Y-106557780D01*
X212775415Y-106414468D01*
X212841374Y-106255228D01*
X212875000Y-106086180D01*
X212875000Y-105913820D01*
X212841374Y-105744772D01*
X212775415Y-105585532D01*
X212679657Y-105442220D01*
X212557780Y-105320343D01*
X212414468Y-105224585D01*
X212255228Y-105158626D01*
X212086180Y-105125000D01*
X211913820Y-105125000D01*
X211744772Y-105158626D01*
X211585532Y-105224585D01*
X211442220Y-105320343D01*
X211320343Y-105442220D01*
X211224585Y-105585532D01*
X211158626Y-105744772D01*
X211125000Y-105913820D01*
X206875000Y-105913820D01*
X206841374Y-105744772D01*
X206775415Y-105585532D01*
X206679657Y-105442220D01*
X206557780Y-105320343D01*
X206414468Y-105224585D01*
X206255228Y-105158626D01*
X206086180Y-105125000D01*
X205913820Y-105125000D01*
X205744772Y-105158626D01*
X205585532Y-105224585D01*
X205442220Y-105320343D01*
X205320343Y-105442220D01*
X205224585Y-105585532D01*
X205158626Y-105744772D01*
X205125000Y-105913820D01*
X201125000Y-105913820D01*
X201125000Y-101125000D01*
X248875000Y-101125000D01*
X248875000Y-173875000D01*
M02*
