M48
; DRILL file {KiCad 5.1.4} date Tue 05 Nov 2019 10:36:17 PM EST
; FORMAT={-:-/ absolute / metric / decimal}
; #@! TF.CreationDate,2019-11-05T22:36:17-05:00
; #@! TF.GenerationSoftware,Kicad,Pcbnew,5.1.4
; #@! TF.FileFunction,Plated,1,2,PTH
FMAT,2
METRIC
T1C0.300
T2C0.500
T3C1.000
T4C1.600
%
G90
G05
T1
X210.25Y-115.5
X219.241Y-150.241
X223.75Y-156.0
X224.5Y-125.5
X225.25Y-129.0
X225.25Y-130.0
X226.0Y-118.5
X226.0Y-119.5
X226.1Y-144.9
X226.1Y-145.7
X226.1Y-146.5
X226.1Y-147.3
X226.1Y-148.1
X226.25Y-129.0
X226.25Y-130.0
X226.25Y-133.75
X226.25Y-134.75
X227.0Y-118.5
X227.0Y-119.5
X227.0Y-144.9
X227.0Y-145.7
X227.0Y-146.5
X227.0Y-147.3
X227.0Y-148.1
X227.25Y-133.75
X227.25Y-134.75
X227.9Y-144.9
X227.9Y-145.7
X227.9Y-146.5
X227.9Y-147.3
X227.9Y-148.1
X228.0Y-115.0
X228.0Y-138.75
X228.0Y-139.75
X228.25Y-154.0
X228.35Y-149.35
X229.5Y-141.5
X229.5Y-142.25
X230.25Y-141.5
X230.25Y-142.25
X231.0Y-144.75
X233.25Y-166.0
X235.1Y-146.8
X235.3Y-126.1
X235.3Y-126.9
X235.5Y-132.5
X235.5Y-133.5
X235.9Y-146.8
X236.1Y-126.1
X236.1Y-126.9
X236.5Y-132.5
X236.5Y-133.5
X236.7Y-146.8
X243.0Y-115.5
T2
X241.0Y-169.0
X218.5Y-155.75
X233.5Y-153.25
X232.25Y-155.5
X224.0Y-151.25
X206.0Y-106.0
X219.75Y-148.25
X212.5Y-143.25
X218.5Y-153.25
X244.0Y-169.0
X233.5Y-111.25
X212.75Y-135.0
X212.0Y-106.0
X219.0Y-120.75
X236.25Y-129.75
X244.0Y-163.0
X221.5Y-146.25
X235.25Y-142.25
X212.0Y-109.0
X241.0Y-163.0
X206.0Y-109.0
T3
X223.71Y-165.0
X226.25Y-165.0
X222.46Y-110.0
X225.0Y-110.0
X227.54Y-110.0
T4
X210.0Y-165.0
T0
M30
