G04 #@! TF.GenerationSoftware,KiCad,Pcbnew,5.1.4*
G04 #@! TF.CreationDate,2019-11-05T22:35:51-05:00*
G04 #@! TF.ProjectId,24_regulator_demo,32345f72-6567-4756-9c61-746f725f6465,rev?*
G04 #@! TF.SameCoordinates,Original*
G04 #@! TF.FileFunction,Legend,Top*
G04 #@! TF.FilePolarity,Positive*
%FSLAX46Y46*%
G04 Gerber Fmt 4.6, Leading zero omitted, Abs format (unit mm)*
G04 Created by KiCad (PCBNEW 5.1.4) date 2019-11-05 22:35:51*
%MOMM*%
%LPD*%
G04 APERTURE LIST*
%ADD10C,0.150000*%
%ADD11C,0.300000*%
%ADD12C,0.120000*%
G04 APERTURE END LIST*
D10*
X224600000Y-107292976D02*
X224561904Y-107369166D01*
X224561904Y-107483452D01*
X224600000Y-107597738D01*
X224676190Y-107673928D01*
X224752380Y-107712023D01*
X224904761Y-107750119D01*
X225019047Y-107750119D01*
X225171428Y-107712023D01*
X225247619Y-107673928D01*
X225323809Y-107597738D01*
X225361904Y-107483452D01*
X225361904Y-107407261D01*
X225323809Y-107292976D01*
X225285714Y-107254880D01*
X225019047Y-107254880D01*
X225019047Y-107407261D01*
X225361904Y-106912023D02*
X224561904Y-106912023D01*
X225361904Y-106454880D01*
X224561904Y-106454880D01*
X225361904Y-106073928D02*
X224561904Y-106073928D01*
X224561904Y-105883452D01*
X224600000Y-105769166D01*
X224676190Y-105692976D01*
X224752380Y-105654880D01*
X224904761Y-105616785D01*
X225019047Y-105616785D01*
X225171428Y-105654880D01*
X225247619Y-105692976D01*
X225323809Y-105769166D01*
X225361904Y-105883452D01*
X225361904Y-106073928D01*
X222057142Y-107712023D02*
X222057142Y-107102500D01*
X221638095Y-106759642D02*
X221600000Y-106721547D01*
X221561904Y-106645357D01*
X221561904Y-106454880D01*
X221600000Y-106378690D01*
X221638095Y-106340595D01*
X221714285Y-106302500D01*
X221790476Y-106302500D01*
X221904761Y-106340595D01*
X222361904Y-106797738D01*
X222361904Y-106302500D01*
X221828571Y-105616785D02*
X222361904Y-105616785D01*
X221523809Y-105807261D02*
X222095238Y-105997738D01*
X222095238Y-105502500D01*
X221561904Y-105312023D02*
X222361904Y-105045357D01*
X221561904Y-104778690D01*
X228057142Y-107712023D02*
X228057142Y-107102500D01*
X228361904Y-107407261D02*
X227752380Y-107407261D01*
X227638095Y-106759642D02*
X227600000Y-106721547D01*
X227561904Y-106645357D01*
X227561904Y-106454880D01*
X227600000Y-106378690D01*
X227638095Y-106340595D01*
X227714285Y-106302500D01*
X227790476Y-106302500D01*
X227904761Y-106340595D01*
X228361904Y-106797738D01*
X228361904Y-106302500D01*
X227828571Y-105616785D02*
X228361904Y-105616785D01*
X227523809Y-105807261D02*
X228095238Y-105997738D01*
X228095238Y-105502500D01*
X227561904Y-105312023D02*
X228361904Y-105045357D01*
X227561904Y-104778690D01*
D11*
X228607142Y-103821428D02*
X228321428Y-103821428D01*
X228178571Y-103750000D01*
X228035714Y-103607142D01*
X227964285Y-103321428D01*
X227964285Y-102821428D01*
X228035714Y-102535714D01*
X228178571Y-102392857D01*
X228321428Y-102321428D01*
X228607142Y-102321428D01*
X228750000Y-102392857D01*
X228892857Y-102535714D01*
X228964285Y-102821428D01*
X228964285Y-103321428D01*
X228892857Y-103607142D01*
X228750000Y-103750000D01*
X228607142Y-103821428D01*
X227321428Y-103821428D02*
X227321428Y-102607142D01*
X227250000Y-102464285D01*
X227178571Y-102392857D01*
X227035714Y-102321428D01*
X226750000Y-102321428D01*
X226607142Y-102392857D01*
X226535714Y-102464285D01*
X226464285Y-102607142D01*
X226464285Y-103821428D01*
X225964285Y-103821428D02*
X225107142Y-103821428D01*
X225535714Y-102321428D02*
X225535714Y-103821428D01*
X224607142Y-102321428D02*
X224607142Y-103821428D01*
X224035714Y-103821428D01*
X223892857Y-103750000D01*
X223821428Y-103678571D01*
X223750000Y-103535714D01*
X223750000Y-103321428D01*
X223821428Y-103178571D01*
X223892857Y-103107142D01*
X224035714Y-103035714D01*
X224607142Y-103035714D01*
X223107142Y-103821428D02*
X223107142Y-102607142D01*
X223035714Y-102464285D01*
X222964285Y-102392857D01*
X222821428Y-102321428D01*
X222535714Y-102321428D01*
X222392857Y-102392857D01*
X222321428Y-102464285D01*
X222250000Y-102607142D01*
X222250000Y-103821428D01*
X221750000Y-103821428D02*
X220892857Y-103821428D01*
X221321428Y-102321428D02*
X221321428Y-103821428D01*
X216821428Y-170678571D02*
X216821428Y-169178571D01*
X217535714Y-170678571D02*
X217535714Y-169178571D01*
X218392857Y-170678571D01*
X218392857Y-169178571D01*
X219107142Y-170678571D02*
X219107142Y-169178571D01*
X219678571Y-169178571D01*
X219821428Y-169250000D01*
X219892857Y-169321428D01*
X219964285Y-169464285D01*
X219964285Y-169678571D01*
X219892857Y-169821428D01*
X219821428Y-169892857D01*
X219678571Y-169964285D01*
X219107142Y-169964285D01*
X220607142Y-169178571D02*
X220607142Y-170392857D01*
X220678571Y-170535714D01*
X220750000Y-170607142D01*
X220892857Y-170678571D01*
X221178571Y-170678571D01*
X221321428Y-170607142D01*
X221392857Y-170535714D01*
X221464285Y-170392857D01*
X221464285Y-169178571D01*
X221964285Y-169178571D02*
X222821428Y-169178571D01*
X222392857Y-170678571D02*
X222392857Y-169178571D01*
X224892857Y-171250000D02*
X224821428Y-171178571D01*
X224678571Y-170964285D01*
X224607142Y-170821428D01*
X224535714Y-170607142D01*
X224464285Y-170250000D01*
X224464285Y-169964285D01*
X224535714Y-169607142D01*
X224607142Y-169392857D01*
X224678571Y-169250000D01*
X224821428Y-169035714D01*
X224892857Y-168964285D01*
X226178571Y-169178571D02*
X225464285Y-169178571D01*
X225392857Y-169892857D01*
X225464285Y-169821428D01*
X225607142Y-169750000D01*
X225964285Y-169750000D01*
X226107142Y-169821428D01*
X226178571Y-169892857D01*
X226250000Y-170035714D01*
X226250000Y-170392857D01*
X226178571Y-170535714D01*
X226107142Y-170607142D01*
X225964285Y-170678571D01*
X225607142Y-170678571D01*
X225464285Y-170607142D01*
X225392857Y-170535714D01*
X226892857Y-170107142D02*
X228035714Y-170107142D01*
X229535714Y-170678571D02*
X228678571Y-170678571D01*
X229107142Y-170678571D02*
X229107142Y-169178571D01*
X228964285Y-169392857D01*
X228821428Y-169535714D01*
X228678571Y-169607142D01*
X230107142Y-169321428D02*
X230178571Y-169250000D01*
X230321428Y-169178571D01*
X230678571Y-169178571D01*
X230821428Y-169250000D01*
X230892857Y-169321428D01*
X230964285Y-169464285D01*
X230964285Y-169607142D01*
X230892857Y-169821428D01*
X230035714Y-170678571D01*
X230964285Y-170678571D01*
X231392857Y-169178571D02*
X231892857Y-170678571D01*
X232392857Y-169178571D01*
X232750000Y-171250000D02*
X232821428Y-171178571D01*
X232964285Y-170964285D01*
X233035714Y-170821428D01*
X233107142Y-170607142D01*
X233178571Y-170250000D01*
X233178571Y-169964285D01*
X233107142Y-169607142D01*
X233035714Y-169392857D01*
X232964285Y-169250000D01*
X232821428Y-169035714D01*
X232750000Y-168964285D01*
D10*
X209390476Y-161850000D02*
X209314285Y-161811904D01*
X209200000Y-161811904D01*
X209085714Y-161850000D01*
X209009523Y-161926190D01*
X208971428Y-162002380D01*
X208933333Y-162154761D01*
X208933333Y-162269047D01*
X208971428Y-162421428D01*
X209009523Y-162497619D01*
X209085714Y-162573809D01*
X209200000Y-162611904D01*
X209276190Y-162611904D01*
X209390476Y-162573809D01*
X209428571Y-162535714D01*
X209428571Y-162269047D01*
X209276190Y-162269047D01*
X209771428Y-162611904D02*
X209771428Y-161811904D01*
X210228571Y-162611904D01*
X210228571Y-161811904D01*
X210609523Y-162611904D02*
X210609523Y-161811904D01*
X210800000Y-161811904D01*
X210914285Y-161850000D01*
X210990476Y-161926190D01*
X211028571Y-162002380D01*
X211066666Y-162154761D01*
X211066666Y-162269047D01*
X211028571Y-162421428D01*
X210990476Y-162497619D01*
X210914285Y-162573809D01*
X210800000Y-162611904D01*
X210609523Y-162611904D01*
D12*
X224260000Y-154087221D02*
X224260000Y-154412779D01*
X223240000Y-154087221D02*
X223240000Y-154412779D01*
X222912779Y-156490000D02*
X222587221Y-156490000D01*
X222912779Y-157510000D02*
X222587221Y-157510000D01*
X222374721Y-126010000D02*
X222700279Y-126010000D01*
X222374721Y-124990000D02*
X222700279Y-124990000D01*
X230262779Y-139740000D02*
X229937221Y-139740000D01*
X230262779Y-140760000D02*
X229937221Y-140760000D01*
X230262779Y-137740000D02*
X229937221Y-137740000D01*
X230262779Y-138760000D02*
X229937221Y-138760000D01*
X229837221Y-114490000D02*
X230162779Y-114490000D01*
X229837221Y-115510000D02*
X230162779Y-115510000D01*
X228760000Y-152087221D02*
X228760000Y-152412779D01*
X227740000Y-152087221D02*
X227740000Y-152412779D01*
X229087221Y-154490000D02*
X229412779Y-154490000D01*
X229087221Y-155510000D02*
X229412779Y-155510000D01*
X221300000Y-135350000D02*
X218750000Y-135350000D01*
X221300000Y-133650000D02*
X218750000Y-133650000D01*
X221300000Y-135350000D02*
X221300000Y-133650000D01*
X231985000Y-165012500D02*
X231985000Y-162727500D01*
X231985000Y-162727500D02*
X230515000Y-162727500D01*
X230515000Y-162727500D02*
X230515000Y-165012500D01*
X235400000Y-124000000D02*
X237100000Y-124000000D01*
X237100000Y-124000000D02*
X237100000Y-121450000D01*
X235400000Y-124000000D02*
X235400000Y-121450000D01*
X213765000Y-116235000D02*
X216050000Y-116235000D01*
X213765000Y-114765000D02*
X213765000Y-116235000D01*
X216050000Y-114765000D02*
X213765000Y-114765000D01*
X238800000Y-114765000D02*
X236515000Y-114765000D01*
X236515000Y-114765000D02*
X236515000Y-116235000D01*
X236515000Y-116235000D02*
X238800000Y-116235000D01*
X222380000Y-163670000D02*
X222380000Y-166330000D01*
X224980000Y-163670000D02*
X222380000Y-163670000D01*
X224980000Y-166330000D02*
X222380000Y-166330000D01*
X224980000Y-163670000D02*
X224980000Y-166330000D01*
X226250000Y-163670000D02*
X227580000Y-163670000D01*
X227580000Y-163670000D02*
X227580000Y-165000000D01*
X228870000Y-111330000D02*
X228870000Y-108670000D01*
X223730000Y-111330000D02*
X228870000Y-111330000D01*
X223730000Y-108670000D02*
X228870000Y-108670000D01*
X223730000Y-111330000D02*
X223730000Y-108670000D01*
X222460000Y-111330000D02*
X221130000Y-111330000D01*
X221130000Y-111330000D02*
X221130000Y-110000000D01*
X214250000Y-144625000D02*
X222250000Y-144625000D01*
X222250000Y-144625000D02*
X222250000Y-136625000D01*
X214250000Y-136625000D02*
X222250000Y-136625000D01*
X214250000Y-144625000D02*
X214250000Y-136625000D01*
X234125000Y-130750000D02*
X226125000Y-130750000D01*
X226125000Y-130750000D02*
X226125000Y-122750000D01*
X234125000Y-122750000D02*
X226125000Y-122750000D01*
X234125000Y-130750000D02*
X234125000Y-122750000D01*
X221240000Y-154412779D02*
X221240000Y-154087221D01*
X222260000Y-154412779D02*
X222260000Y-154087221D01*
X214087221Y-150760000D02*
X214412779Y-150760000D01*
X214087221Y-149740000D02*
X214412779Y-149740000D01*
X217587221Y-149740000D02*
X217912779Y-149740000D01*
X217587221Y-150760000D02*
X217912779Y-150760000D01*
X232740000Y-164049721D02*
X232740000Y-164375279D01*
X233760000Y-164049721D02*
X233760000Y-164375279D01*
X236087221Y-151260000D02*
X236412779Y-151260000D01*
X236087221Y-150240000D02*
X236412779Y-150240000D01*
X239624721Y-150240000D02*
X239950279Y-150240000D01*
X239624721Y-151260000D02*
X239950279Y-151260000D01*
X229740000Y-152412779D02*
X229740000Y-152087221D01*
X230760000Y-152412779D02*
X230760000Y-152087221D01*
X211912779Y-114990000D02*
X211587221Y-114990000D01*
X211912779Y-116010000D02*
X211587221Y-116010000D01*
X241662779Y-114990000D02*
X241337221Y-114990000D01*
X241662779Y-116010000D02*
X241337221Y-116010000D01*
X211750000Y-165000000D02*
G75*
G03X211750000Y-165000000I-1750000J0D01*
G01*
X224825000Y-149875000D02*
X229275000Y-149875000D01*
X223300000Y-142975000D02*
X229275000Y-142975000D01*
X221897936Y-129160000D02*
X223102064Y-129160000D01*
X221897936Y-127340000D02*
X223102064Y-127340000D01*
X221897936Y-130340000D02*
X223102064Y-130340000D01*
X221897936Y-132160000D02*
X223102064Y-132160000D01*
X230702064Y-133710000D02*
X229497936Y-133710000D01*
X230702064Y-131890000D02*
X229497936Y-131890000D01*
X230702064Y-134890000D02*
X229497936Y-134890000D01*
X230702064Y-136710000D02*
X229497936Y-136710000D01*
X233897936Y-144590000D02*
X235102064Y-144590000D01*
X233897936Y-146410000D02*
X235102064Y-146410000D01*
X229397936Y-118410000D02*
X230602064Y-118410000D01*
X229397936Y-116590000D02*
X230602064Y-116590000D01*
X229397936Y-119590000D02*
X230602064Y-119590000D01*
X229397936Y-121410000D02*
X230602064Y-121410000D01*
X241700000Y-163000000D02*
G75*
G03X241700000Y-163000000I-700000J0D01*
G01*
X244700000Y-163000000D02*
G75*
G03X244700000Y-163000000I-700000J0D01*
G01*
X206700000Y-106000000D02*
G75*
G03X206700000Y-106000000I-700000J0D01*
G01*
X206700000Y-109000000D02*
G75*
G03X206700000Y-109000000I-700000J0D01*
G01*
X241700000Y-169000000D02*
G75*
G03X241700000Y-169000000I-700000J0D01*
G01*
X244700000Y-169000000D02*
G75*
G03X244700000Y-169000000I-700000J0D01*
G01*
X212700000Y-106000000D02*
G75*
G03X212700000Y-106000000I-700000J0D01*
G01*
X212700000Y-109000000D02*
G75*
G03X212700000Y-109000000I-700000J0D01*
G01*
X219200000Y-155750000D02*
G75*
G03X219200000Y-155750000I-700000J0D01*
G01*
X213450000Y-135000000D02*
G75*
G03X213450000Y-135000000I-700000J0D01*
G01*
X219700000Y-120750000D02*
G75*
G03X219700000Y-120750000I-700000J0D01*
G01*
X213200000Y-143250000D02*
G75*
G03X213200000Y-143250000I-700000J0D01*
G01*
X219200000Y-153250000D02*
G75*
G03X219200000Y-153250000I-700000J0D01*
G01*
X235950000Y-142250000D02*
G75*
G03X235950000Y-142250000I-700000J0D01*
G01*
X224700000Y-151250000D02*
G75*
G03X224700000Y-151250000I-700000J0D01*
G01*
X220450000Y-148250000D02*
G75*
G03X220450000Y-148250000I-700000J0D01*
G01*
X222200000Y-146250000D02*
G75*
G03X222200000Y-146250000I-700000J0D01*
G01*
X234200000Y-153250000D02*
G75*
G03X234200000Y-153250000I-700000J0D01*
G01*
X232950000Y-155500000D02*
G75*
G03X232950000Y-155500000I-700000J0D01*
G01*
X236950000Y-129750000D02*
G75*
G03X236950000Y-129750000I-700000J0D01*
G01*
X234200000Y-111250000D02*
G75*
G03X234200000Y-111250000I-700000J0D01*
G01*
X233897936Y-147340000D02*
X235102064Y-147340000D01*
X233897936Y-149160000D02*
X235102064Y-149160000D01*
X240490000Y-165828733D02*
X240490000Y-166171267D01*
X241510000Y-165828733D02*
X241510000Y-166171267D01*
X244510000Y-165828733D02*
X244510000Y-166171267D01*
X243490000Y-165828733D02*
X243490000Y-166171267D01*
X208828733Y-106510000D02*
X209171267Y-106510000D01*
X208828733Y-105490000D02*
X209171267Y-105490000D01*
X208828733Y-108490000D02*
X209171267Y-108490000D01*
X208828733Y-109510000D02*
X209171267Y-109510000D01*
D10*
X225285714Y-154383333D02*
X225323809Y-154421428D01*
X225361904Y-154535714D01*
X225361904Y-154611904D01*
X225323809Y-154726190D01*
X225247619Y-154802380D01*
X225171428Y-154840476D01*
X225019047Y-154878571D01*
X224904761Y-154878571D01*
X224752380Y-154840476D01*
X224676190Y-154802380D01*
X224600000Y-154726190D01*
X224561904Y-154611904D01*
X224561904Y-154535714D01*
X224600000Y-154421428D01*
X224638095Y-154383333D01*
X225361904Y-153621428D02*
X225361904Y-154078571D01*
X225361904Y-153850000D02*
X224561904Y-153850000D01*
X224676190Y-153926190D01*
X224752380Y-154002380D01*
X224790476Y-154078571D01*
X220366666Y-157285714D02*
X220328571Y-157323809D01*
X220214285Y-157361904D01*
X220138095Y-157361904D01*
X220023809Y-157323809D01*
X219947619Y-157247619D01*
X219909523Y-157171428D01*
X219871428Y-157019047D01*
X219871428Y-156904761D01*
X219909523Y-156752380D01*
X219947619Y-156676190D01*
X220023809Y-156600000D01*
X220138095Y-156561904D01*
X220214285Y-156561904D01*
X220328571Y-156600000D01*
X220366666Y-156638095D01*
X220671428Y-156638095D02*
X220709523Y-156600000D01*
X220785714Y-156561904D01*
X220976190Y-156561904D01*
X221052380Y-156600000D01*
X221090476Y-156638095D01*
X221128571Y-156714285D01*
X221128571Y-156790476D01*
X221090476Y-156904761D01*
X220633333Y-157361904D01*
X221128571Y-157361904D01*
X222404166Y-124355714D02*
X222366071Y-124393809D01*
X222251785Y-124431904D01*
X222175595Y-124431904D01*
X222061309Y-124393809D01*
X221985119Y-124317619D01*
X221947023Y-124241428D01*
X221908928Y-124089047D01*
X221908928Y-123974761D01*
X221947023Y-123822380D01*
X221985119Y-123746190D01*
X222061309Y-123670000D01*
X222175595Y-123631904D01*
X222251785Y-123631904D01*
X222366071Y-123670000D01*
X222404166Y-123708095D01*
X223127976Y-123631904D02*
X222747023Y-123631904D01*
X222708928Y-124012857D01*
X222747023Y-123974761D01*
X222823214Y-123936666D01*
X223013690Y-123936666D01*
X223089880Y-123974761D01*
X223127976Y-124012857D01*
X223166071Y-124089047D01*
X223166071Y-124279523D01*
X223127976Y-124355714D01*
X223089880Y-124393809D01*
X223013690Y-124431904D01*
X222823214Y-124431904D01*
X222747023Y-124393809D01*
X222708928Y-124355714D01*
X232216666Y-140535714D02*
X232178571Y-140573809D01*
X232064285Y-140611904D01*
X231988095Y-140611904D01*
X231873809Y-140573809D01*
X231797619Y-140497619D01*
X231759523Y-140421428D01*
X231721428Y-140269047D01*
X231721428Y-140154761D01*
X231759523Y-140002380D01*
X231797619Y-139926190D01*
X231873809Y-139850000D01*
X231988095Y-139811904D01*
X232064285Y-139811904D01*
X232178571Y-139850000D01*
X232216666Y-139888095D01*
X232673809Y-140154761D02*
X232597619Y-140116666D01*
X232559523Y-140078571D01*
X232521428Y-140002380D01*
X232521428Y-139964285D01*
X232559523Y-139888095D01*
X232597619Y-139850000D01*
X232673809Y-139811904D01*
X232826190Y-139811904D01*
X232902380Y-139850000D01*
X232940476Y-139888095D01*
X232978571Y-139964285D01*
X232978571Y-140002380D01*
X232940476Y-140078571D01*
X232902380Y-140116666D01*
X232826190Y-140154761D01*
X232673809Y-140154761D01*
X232597619Y-140192857D01*
X232559523Y-140230952D01*
X232521428Y-140307142D01*
X232521428Y-140459523D01*
X232559523Y-140535714D01*
X232597619Y-140573809D01*
X232673809Y-140611904D01*
X232826190Y-140611904D01*
X232902380Y-140573809D01*
X232940476Y-140535714D01*
X232978571Y-140459523D01*
X232978571Y-140307142D01*
X232940476Y-140230952D01*
X232902380Y-140192857D01*
X232826190Y-140154761D01*
X232216666Y-138535714D02*
X232178571Y-138573809D01*
X232064285Y-138611904D01*
X231988095Y-138611904D01*
X231873809Y-138573809D01*
X231797619Y-138497619D01*
X231759523Y-138421428D01*
X231721428Y-138269047D01*
X231721428Y-138154761D01*
X231759523Y-138002380D01*
X231797619Y-137926190D01*
X231873809Y-137850000D01*
X231988095Y-137811904D01*
X232064285Y-137811904D01*
X232178571Y-137850000D01*
X232216666Y-137888095D01*
X232597619Y-138611904D02*
X232750000Y-138611904D01*
X232826190Y-138573809D01*
X232864285Y-138535714D01*
X232940476Y-138421428D01*
X232978571Y-138269047D01*
X232978571Y-137964285D01*
X232940476Y-137888095D01*
X232902380Y-137850000D01*
X232826190Y-137811904D01*
X232673809Y-137811904D01*
X232597619Y-137850000D01*
X232559523Y-137888095D01*
X232521428Y-137964285D01*
X232521428Y-138154761D01*
X232559523Y-138230952D01*
X232597619Y-138269047D01*
X232673809Y-138307142D01*
X232826190Y-138307142D01*
X232902380Y-138269047D01*
X232940476Y-138230952D01*
X232978571Y-138154761D01*
X231985714Y-115285714D02*
X231947619Y-115323809D01*
X231833333Y-115361904D01*
X231757142Y-115361904D01*
X231642857Y-115323809D01*
X231566666Y-115247619D01*
X231528571Y-115171428D01*
X231490476Y-115019047D01*
X231490476Y-114904761D01*
X231528571Y-114752380D01*
X231566666Y-114676190D01*
X231642857Y-114600000D01*
X231757142Y-114561904D01*
X231833333Y-114561904D01*
X231947619Y-114600000D01*
X231985714Y-114638095D01*
X232747619Y-115361904D02*
X232290476Y-115361904D01*
X232519047Y-115361904D02*
X232519047Y-114561904D01*
X232442857Y-114676190D01*
X232366666Y-114752380D01*
X232290476Y-114790476D01*
X233433333Y-114828571D02*
X233433333Y-115361904D01*
X233242857Y-114523809D02*
X233052380Y-115095238D01*
X233547619Y-115095238D01*
X227285714Y-152764285D02*
X227323809Y-152802380D01*
X227361904Y-152916666D01*
X227361904Y-152992857D01*
X227323809Y-153107142D01*
X227247619Y-153183333D01*
X227171428Y-153221428D01*
X227019047Y-153259523D01*
X226904761Y-153259523D01*
X226752380Y-153221428D01*
X226676190Y-153183333D01*
X226600000Y-153107142D01*
X226561904Y-152992857D01*
X226561904Y-152916666D01*
X226600000Y-152802380D01*
X226638095Y-152764285D01*
X227361904Y-152002380D02*
X227361904Y-152459523D01*
X227361904Y-152230952D02*
X226561904Y-152230952D01*
X226676190Y-152307142D01*
X226752380Y-152383333D01*
X226790476Y-152459523D01*
X226561904Y-151278571D02*
X226561904Y-151659523D01*
X226942857Y-151697619D01*
X226904761Y-151659523D01*
X226866666Y-151583333D01*
X226866666Y-151392857D01*
X226904761Y-151316666D01*
X226942857Y-151278571D01*
X227019047Y-151240476D01*
X227209523Y-151240476D01*
X227285714Y-151278571D01*
X227323809Y-151316666D01*
X227361904Y-151392857D01*
X227361904Y-151583333D01*
X227323809Y-151659523D01*
X227285714Y-151697619D01*
X228735714Y-156535714D02*
X228697619Y-156573809D01*
X228583333Y-156611904D01*
X228507142Y-156611904D01*
X228392857Y-156573809D01*
X228316666Y-156497619D01*
X228278571Y-156421428D01*
X228240476Y-156269047D01*
X228240476Y-156154761D01*
X228278571Y-156002380D01*
X228316666Y-155926190D01*
X228392857Y-155850000D01*
X228507142Y-155811904D01*
X228583333Y-155811904D01*
X228697619Y-155850000D01*
X228735714Y-155888095D01*
X229497619Y-156611904D02*
X229040476Y-156611904D01*
X229269047Y-156611904D02*
X229269047Y-155811904D01*
X229192857Y-155926190D01*
X229116666Y-156002380D01*
X229040476Y-156040476D01*
X230183333Y-155811904D02*
X230030952Y-155811904D01*
X229954761Y-155850000D01*
X229916666Y-155888095D01*
X229840476Y-156002380D01*
X229802380Y-156154761D01*
X229802380Y-156459523D01*
X229840476Y-156535714D01*
X229878571Y-156573809D01*
X229954761Y-156611904D01*
X230107142Y-156611904D01*
X230183333Y-156573809D01*
X230221428Y-156535714D01*
X230259523Y-156459523D01*
X230259523Y-156269047D01*
X230221428Y-156192857D01*
X230183333Y-156154761D01*
X230107142Y-156116666D01*
X229954761Y-156116666D01*
X229878571Y-156154761D01*
X229840476Y-156192857D01*
X229802380Y-156269047D01*
X221709523Y-134861904D02*
X221709523Y-134061904D01*
X221900000Y-134061904D01*
X222014285Y-134100000D01*
X222090476Y-134176190D01*
X222128571Y-134252380D01*
X222166666Y-134404761D01*
X222166666Y-134519047D01*
X222128571Y-134671428D01*
X222090476Y-134747619D01*
X222014285Y-134823809D01*
X221900000Y-134861904D01*
X221709523Y-134861904D01*
X222928571Y-134861904D02*
X222471428Y-134861904D01*
X222700000Y-134861904D02*
X222700000Y-134061904D01*
X222623809Y-134176190D01*
X222547619Y-134252380D01*
X222471428Y-134290476D01*
X231611904Y-162340476D02*
X230811904Y-162340476D01*
X230811904Y-162150000D01*
X230850000Y-162035714D01*
X230926190Y-161959523D01*
X231002380Y-161921428D01*
X231154761Y-161883333D01*
X231269047Y-161883333D01*
X231421428Y-161921428D01*
X231497619Y-161959523D01*
X231573809Y-162035714D01*
X231611904Y-162150000D01*
X231611904Y-162340476D01*
X230888095Y-161578571D02*
X230850000Y-161540476D01*
X230811904Y-161464285D01*
X230811904Y-161273809D01*
X230850000Y-161197619D01*
X230888095Y-161159523D01*
X230964285Y-161121428D01*
X231040476Y-161121428D01*
X231154761Y-161159523D01*
X231611904Y-161616666D01*
X231611904Y-161121428D01*
X238361904Y-123090476D02*
X237561904Y-123090476D01*
X237561904Y-122900000D01*
X237600000Y-122785714D01*
X237676190Y-122709523D01*
X237752380Y-122671428D01*
X237904761Y-122633333D01*
X238019047Y-122633333D01*
X238171428Y-122671428D01*
X238247619Y-122709523D01*
X238323809Y-122785714D01*
X238361904Y-122900000D01*
X238361904Y-123090476D01*
X237561904Y-122366666D02*
X237561904Y-121871428D01*
X237866666Y-122138095D01*
X237866666Y-122023809D01*
X237904761Y-121947619D01*
X237942857Y-121909523D01*
X238019047Y-121871428D01*
X238209523Y-121871428D01*
X238285714Y-121909523D01*
X238323809Y-121947619D01*
X238361904Y-122023809D01*
X238361904Y-122252380D01*
X238323809Y-122328571D01*
X238285714Y-122366666D01*
X214659523Y-114611904D02*
X214659523Y-113811904D01*
X214850000Y-113811904D01*
X214964285Y-113850000D01*
X215040476Y-113926190D01*
X215078571Y-114002380D01*
X215116666Y-114154761D01*
X215116666Y-114269047D01*
X215078571Y-114421428D01*
X215040476Y-114497619D01*
X214964285Y-114573809D01*
X214850000Y-114611904D01*
X214659523Y-114611904D01*
X215802380Y-114078571D02*
X215802380Y-114611904D01*
X215611904Y-113773809D02*
X215421428Y-114345238D01*
X215916666Y-114345238D01*
X237409523Y-114611904D02*
X237409523Y-113811904D01*
X237600000Y-113811904D01*
X237714285Y-113850000D01*
X237790476Y-113926190D01*
X237828571Y-114002380D01*
X237866666Y-114154761D01*
X237866666Y-114269047D01*
X237828571Y-114421428D01*
X237790476Y-114497619D01*
X237714285Y-114573809D01*
X237600000Y-114611904D01*
X237409523Y-114611904D01*
X238590476Y-113811904D02*
X238209523Y-113811904D01*
X238171428Y-114192857D01*
X238209523Y-114154761D01*
X238285714Y-114116666D01*
X238476190Y-114116666D01*
X238552380Y-114154761D01*
X238590476Y-114192857D01*
X238628571Y-114269047D01*
X238628571Y-114459523D01*
X238590476Y-114535714D01*
X238552380Y-114573809D01*
X238476190Y-114611904D01*
X238285714Y-114611904D01*
X238209523Y-114573809D01*
X238171428Y-114535714D01*
X228141904Y-165266666D02*
X228713333Y-165266666D01*
X228827619Y-165304761D01*
X228903809Y-165380952D01*
X228941904Y-165495238D01*
X228941904Y-165571428D01*
X228941904Y-164466666D02*
X228941904Y-164923809D01*
X228941904Y-164695238D02*
X228141904Y-164695238D01*
X228256190Y-164771428D01*
X228332380Y-164847619D01*
X228370476Y-164923809D01*
X219691904Y-110266666D02*
X220263333Y-110266666D01*
X220377619Y-110304761D01*
X220453809Y-110380952D01*
X220491904Y-110495238D01*
X220491904Y-110571428D01*
X219768095Y-109923809D02*
X219730000Y-109885714D01*
X219691904Y-109809523D01*
X219691904Y-109619047D01*
X219730000Y-109542857D01*
X219768095Y-109504761D01*
X219844285Y-109466666D01*
X219920476Y-109466666D01*
X220034761Y-109504761D01*
X220491904Y-109961904D01*
X220491904Y-109466666D01*
X213116666Y-137611904D02*
X212735714Y-137611904D01*
X212735714Y-136811904D01*
X213802380Y-137611904D02*
X213345238Y-137611904D01*
X213573809Y-137611904D02*
X213573809Y-136811904D01*
X213497619Y-136926190D01*
X213421428Y-137002380D01*
X213345238Y-137040476D01*
X224866666Y-123611904D02*
X224485714Y-123611904D01*
X224485714Y-122811904D01*
X225095238Y-122888095D02*
X225133333Y-122850000D01*
X225209523Y-122811904D01*
X225400000Y-122811904D01*
X225476190Y-122850000D01*
X225514285Y-122888095D01*
X225552380Y-122964285D01*
X225552380Y-123040476D01*
X225514285Y-123154761D01*
X225057142Y-123611904D01*
X225552380Y-123611904D01*
X220861904Y-154383333D02*
X220480952Y-154650000D01*
X220861904Y-154840476D02*
X220061904Y-154840476D01*
X220061904Y-154535714D01*
X220100000Y-154459523D01*
X220138095Y-154421428D01*
X220214285Y-154383333D01*
X220328571Y-154383333D01*
X220404761Y-154421428D01*
X220442857Y-154459523D01*
X220480952Y-154535714D01*
X220480952Y-154840476D01*
X220061904Y-153659523D02*
X220061904Y-154040476D01*
X220442857Y-154078571D01*
X220404761Y-154040476D01*
X220366666Y-153964285D01*
X220366666Y-153773809D01*
X220404761Y-153697619D01*
X220442857Y-153659523D01*
X220519047Y-153621428D01*
X220709523Y-153621428D01*
X220785714Y-153659523D01*
X220823809Y-153697619D01*
X220861904Y-153773809D01*
X220861904Y-153964285D01*
X220823809Y-154040476D01*
X220785714Y-154078571D01*
X214116666Y-151861904D02*
X213850000Y-151480952D01*
X213659523Y-151861904D02*
X213659523Y-151061904D01*
X213964285Y-151061904D01*
X214040476Y-151100000D01*
X214078571Y-151138095D01*
X214116666Y-151214285D01*
X214116666Y-151328571D01*
X214078571Y-151404761D01*
X214040476Y-151442857D01*
X213964285Y-151480952D01*
X213659523Y-151480952D01*
X214802380Y-151061904D02*
X214650000Y-151061904D01*
X214573809Y-151100000D01*
X214535714Y-151138095D01*
X214459523Y-151252380D01*
X214421428Y-151404761D01*
X214421428Y-151709523D01*
X214459523Y-151785714D01*
X214497619Y-151823809D01*
X214573809Y-151861904D01*
X214726190Y-151861904D01*
X214802380Y-151823809D01*
X214840476Y-151785714D01*
X214878571Y-151709523D01*
X214878571Y-151519047D01*
X214840476Y-151442857D01*
X214802380Y-151404761D01*
X214726190Y-151366666D01*
X214573809Y-151366666D01*
X214497619Y-151404761D01*
X214459523Y-151442857D01*
X214421428Y-151519047D01*
X217616666Y-151861904D02*
X217350000Y-151480952D01*
X217159523Y-151861904D02*
X217159523Y-151061904D01*
X217464285Y-151061904D01*
X217540476Y-151100000D01*
X217578571Y-151138095D01*
X217616666Y-151214285D01*
X217616666Y-151328571D01*
X217578571Y-151404761D01*
X217540476Y-151442857D01*
X217464285Y-151480952D01*
X217159523Y-151480952D01*
X217883333Y-151061904D02*
X218416666Y-151061904D01*
X218073809Y-151861904D01*
X233611904Y-161883333D02*
X233230952Y-162150000D01*
X233611904Y-162340476D02*
X232811904Y-162340476D01*
X232811904Y-162035714D01*
X232850000Y-161959523D01*
X232888095Y-161921428D01*
X232964285Y-161883333D01*
X233078571Y-161883333D01*
X233154761Y-161921428D01*
X233192857Y-161959523D01*
X233230952Y-162035714D01*
X233230952Y-162340476D01*
X233154761Y-161426190D02*
X233116666Y-161502380D01*
X233078571Y-161540476D01*
X233002380Y-161578571D01*
X232964285Y-161578571D01*
X232888095Y-161540476D01*
X232850000Y-161502380D01*
X232811904Y-161426190D01*
X232811904Y-161273809D01*
X232850000Y-161197619D01*
X232888095Y-161159523D01*
X232964285Y-161121428D01*
X233002380Y-161121428D01*
X233078571Y-161159523D01*
X233116666Y-161197619D01*
X233154761Y-161273809D01*
X233154761Y-161426190D01*
X233192857Y-161502380D01*
X233230952Y-161540476D01*
X233307142Y-161578571D01*
X233459523Y-161578571D01*
X233535714Y-161540476D01*
X233573809Y-161502380D01*
X233611904Y-161426190D01*
X233611904Y-161273809D01*
X233573809Y-161197619D01*
X233535714Y-161159523D01*
X233459523Y-161121428D01*
X233307142Y-161121428D01*
X233230952Y-161159523D01*
X233192857Y-161197619D01*
X233154761Y-161273809D01*
X236116666Y-152361904D02*
X235850000Y-151980952D01*
X235659523Y-152361904D02*
X235659523Y-151561904D01*
X235964285Y-151561904D01*
X236040476Y-151600000D01*
X236078571Y-151638095D01*
X236116666Y-151714285D01*
X236116666Y-151828571D01*
X236078571Y-151904761D01*
X236040476Y-151942857D01*
X235964285Y-151980952D01*
X235659523Y-151980952D01*
X236497619Y-152361904D02*
X236650000Y-152361904D01*
X236726190Y-152323809D01*
X236764285Y-152285714D01*
X236840476Y-152171428D01*
X236878571Y-152019047D01*
X236878571Y-151714285D01*
X236840476Y-151638095D01*
X236802380Y-151600000D01*
X236726190Y-151561904D01*
X236573809Y-151561904D01*
X236497619Y-151600000D01*
X236459523Y-151638095D01*
X236421428Y-151714285D01*
X236421428Y-151904761D01*
X236459523Y-151980952D01*
X236497619Y-152019047D01*
X236573809Y-152057142D01*
X236726190Y-152057142D01*
X236802380Y-152019047D01*
X236840476Y-151980952D01*
X236878571Y-151904761D01*
X239273214Y-152361904D02*
X239006547Y-151980952D01*
X238816071Y-152361904D02*
X238816071Y-151561904D01*
X239120833Y-151561904D01*
X239197023Y-151600000D01*
X239235119Y-151638095D01*
X239273214Y-151714285D01*
X239273214Y-151828571D01*
X239235119Y-151904761D01*
X239197023Y-151942857D01*
X239120833Y-151980952D01*
X238816071Y-151980952D01*
X240035119Y-152361904D02*
X239577976Y-152361904D01*
X239806547Y-152361904D02*
X239806547Y-151561904D01*
X239730357Y-151676190D01*
X239654166Y-151752380D01*
X239577976Y-151790476D01*
X240530357Y-151561904D02*
X240606547Y-151561904D01*
X240682738Y-151600000D01*
X240720833Y-151638095D01*
X240758928Y-151714285D01*
X240797023Y-151866666D01*
X240797023Y-152057142D01*
X240758928Y-152209523D01*
X240720833Y-152285714D01*
X240682738Y-152323809D01*
X240606547Y-152361904D01*
X240530357Y-152361904D01*
X240454166Y-152323809D01*
X240416071Y-152285714D01*
X240377976Y-152209523D01*
X240339880Y-152057142D01*
X240339880Y-151866666D01*
X240377976Y-151714285D01*
X240416071Y-151638095D01*
X240454166Y-151600000D01*
X240530357Y-151561904D01*
X231861904Y-152764285D02*
X231480952Y-153030952D01*
X231861904Y-153221428D02*
X231061904Y-153221428D01*
X231061904Y-152916666D01*
X231100000Y-152840476D01*
X231138095Y-152802380D01*
X231214285Y-152764285D01*
X231328571Y-152764285D01*
X231404761Y-152802380D01*
X231442857Y-152840476D01*
X231480952Y-152916666D01*
X231480952Y-153221428D01*
X231861904Y-152002380D02*
X231861904Y-152459523D01*
X231861904Y-152230952D02*
X231061904Y-152230952D01*
X231176190Y-152307142D01*
X231252380Y-152383333D01*
X231290476Y-152459523D01*
X231861904Y-151240476D02*
X231861904Y-151697619D01*
X231861904Y-151469047D02*
X231061904Y-151469047D01*
X231176190Y-151545238D01*
X231252380Y-151621428D01*
X231290476Y-151697619D01*
X211235714Y-114611904D02*
X210969047Y-114230952D01*
X210778571Y-114611904D02*
X210778571Y-113811904D01*
X211083333Y-113811904D01*
X211159523Y-113850000D01*
X211197619Y-113888095D01*
X211235714Y-113964285D01*
X211235714Y-114078571D01*
X211197619Y-114154761D01*
X211159523Y-114192857D01*
X211083333Y-114230952D01*
X210778571Y-114230952D01*
X211997619Y-114611904D02*
X211540476Y-114611904D01*
X211769047Y-114611904D02*
X211769047Y-113811904D01*
X211692857Y-113926190D01*
X211616666Y-114002380D01*
X211540476Y-114040476D01*
X212302380Y-113888095D02*
X212340476Y-113850000D01*
X212416666Y-113811904D01*
X212607142Y-113811904D01*
X212683333Y-113850000D01*
X212721428Y-113888095D01*
X212759523Y-113964285D01*
X212759523Y-114040476D01*
X212721428Y-114154761D01*
X212264285Y-114611904D01*
X212759523Y-114611904D01*
X240985714Y-114611904D02*
X240719047Y-114230952D01*
X240528571Y-114611904D02*
X240528571Y-113811904D01*
X240833333Y-113811904D01*
X240909523Y-113850000D01*
X240947619Y-113888095D01*
X240985714Y-113964285D01*
X240985714Y-114078571D01*
X240947619Y-114154761D01*
X240909523Y-114192857D01*
X240833333Y-114230952D01*
X240528571Y-114230952D01*
X241747619Y-114611904D02*
X241290476Y-114611904D01*
X241519047Y-114611904D02*
X241519047Y-113811904D01*
X241442857Y-113926190D01*
X241366666Y-114002380D01*
X241290476Y-114040476D01*
X242014285Y-113811904D02*
X242509523Y-113811904D01*
X242242857Y-114116666D01*
X242357142Y-114116666D01*
X242433333Y-114154761D01*
X242471428Y-114192857D01*
X242509523Y-114269047D01*
X242509523Y-114459523D01*
X242471428Y-114535714D01*
X242433333Y-114573809D01*
X242357142Y-114611904D01*
X242128571Y-114611904D01*
X242052380Y-114573809D01*
X242014285Y-114535714D01*
X226440476Y-141686904D02*
X226440476Y-142334523D01*
X226478571Y-142410714D01*
X226516666Y-142448809D01*
X226592857Y-142486904D01*
X226745238Y-142486904D01*
X226821428Y-142448809D01*
X226859523Y-142410714D01*
X226897619Y-142334523D01*
X226897619Y-141686904D01*
X227697619Y-142486904D02*
X227240476Y-142486904D01*
X227469047Y-142486904D02*
X227469047Y-141686904D01*
X227392857Y-141801190D01*
X227316666Y-141877380D01*
X227240476Y-141915476D01*
X219466666Y-128535714D02*
X219428571Y-128573809D01*
X219314285Y-128611904D01*
X219238095Y-128611904D01*
X219123809Y-128573809D01*
X219047619Y-128497619D01*
X219009523Y-128421428D01*
X218971428Y-128269047D01*
X218971428Y-128154761D01*
X219009523Y-128002380D01*
X219047619Y-127926190D01*
X219123809Y-127850000D01*
X219238095Y-127811904D01*
X219314285Y-127811904D01*
X219428571Y-127850000D01*
X219466666Y-127888095D01*
X219733333Y-127811904D02*
X220228571Y-127811904D01*
X219961904Y-128116666D01*
X220076190Y-128116666D01*
X220152380Y-128154761D01*
X220190476Y-128192857D01*
X220228571Y-128269047D01*
X220228571Y-128459523D01*
X220190476Y-128535714D01*
X220152380Y-128573809D01*
X220076190Y-128611904D01*
X219847619Y-128611904D01*
X219771428Y-128573809D01*
X219733333Y-128535714D01*
X219366666Y-131535714D02*
X219328571Y-131573809D01*
X219214285Y-131611904D01*
X219138095Y-131611904D01*
X219023809Y-131573809D01*
X218947619Y-131497619D01*
X218909523Y-131421428D01*
X218871428Y-131269047D01*
X218871428Y-131154761D01*
X218909523Y-131002380D01*
X218947619Y-130926190D01*
X219023809Y-130850000D01*
X219138095Y-130811904D01*
X219214285Y-130811904D01*
X219328571Y-130850000D01*
X219366666Y-130888095D01*
X220052380Y-131078571D02*
X220052380Y-131611904D01*
X219861904Y-130773809D02*
X219671428Y-131345238D01*
X220166666Y-131345238D01*
X232866666Y-133035714D02*
X232828571Y-133073809D01*
X232714285Y-133111904D01*
X232638095Y-133111904D01*
X232523809Y-133073809D01*
X232447619Y-132997619D01*
X232409523Y-132921428D01*
X232371428Y-132769047D01*
X232371428Y-132654761D01*
X232409523Y-132502380D01*
X232447619Y-132426190D01*
X232523809Y-132350000D01*
X232638095Y-132311904D01*
X232714285Y-132311904D01*
X232828571Y-132350000D01*
X232866666Y-132388095D01*
X233552380Y-132311904D02*
X233400000Y-132311904D01*
X233323809Y-132350000D01*
X233285714Y-132388095D01*
X233209523Y-132502380D01*
X233171428Y-132654761D01*
X233171428Y-132959523D01*
X233209523Y-133035714D01*
X233247619Y-133073809D01*
X233323809Y-133111904D01*
X233476190Y-133111904D01*
X233552380Y-133073809D01*
X233590476Y-133035714D01*
X233628571Y-132959523D01*
X233628571Y-132769047D01*
X233590476Y-132692857D01*
X233552380Y-132654761D01*
X233476190Y-132616666D01*
X233323809Y-132616666D01*
X233247619Y-132654761D01*
X233209523Y-132692857D01*
X233171428Y-132769047D01*
X232966666Y-136085714D02*
X232928571Y-136123809D01*
X232814285Y-136161904D01*
X232738095Y-136161904D01*
X232623809Y-136123809D01*
X232547619Y-136047619D01*
X232509523Y-135971428D01*
X232471428Y-135819047D01*
X232471428Y-135704761D01*
X232509523Y-135552380D01*
X232547619Y-135476190D01*
X232623809Y-135400000D01*
X232738095Y-135361904D01*
X232814285Y-135361904D01*
X232928571Y-135400000D01*
X232966666Y-135438095D01*
X233233333Y-135361904D02*
X233766666Y-135361904D01*
X233423809Y-136161904D01*
X237485714Y-145785714D02*
X237447619Y-145823809D01*
X237333333Y-145861904D01*
X237257142Y-145861904D01*
X237142857Y-145823809D01*
X237066666Y-145747619D01*
X237028571Y-145671428D01*
X236990476Y-145519047D01*
X236990476Y-145404761D01*
X237028571Y-145252380D01*
X237066666Y-145176190D01*
X237142857Y-145100000D01*
X237257142Y-145061904D01*
X237333333Y-145061904D01*
X237447619Y-145100000D01*
X237485714Y-145138095D01*
X238247619Y-145861904D02*
X237790476Y-145861904D01*
X238019047Y-145861904D02*
X238019047Y-145061904D01*
X237942857Y-145176190D01*
X237866666Y-145252380D01*
X237790476Y-145290476D01*
X238742857Y-145061904D02*
X238819047Y-145061904D01*
X238895238Y-145100000D01*
X238933333Y-145138095D01*
X238971428Y-145214285D01*
X239009523Y-145366666D01*
X239009523Y-145557142D01*
X238971428Y-145709523D01*
X238933333Y-145785714D01*
X238895238Y-145823809D01*
X238819047Y-145861904D01*
X238742857Y-145861904D01*
X238666666Y-145823809D01*
X238628571Y-145785714D01*
X238590476Y-145709523D01*
X238552380Y-145557142D01*
X238552380Y-145366666D01*
X238590476Y-145214285D01*
X238628571Y-145138095D01*
X238666666Y-145100000D01*
X238742857Y-145061904D01*
X232885714Y-117785714D02*
X232847619Y-117823809D01*
X232733333Y-117861904D01*
X232657142Y-117861904D01*
X232542857Y-117823809D01*
X232466666Y-117747619D01*
X232428571Y-117671428D01*
X232390476Y-117519047D01*
X232390476Y-117404761D01*
X232428571Y-117252380D01*
X232466666Y-117176190D01*
X232542857Y-117100000D01*
X232657142Y-117061904D01*
X232733333Y-117061904D01*
X232847619Y-117100000D01*
X232885714Y-117138095D01*
X233647619Y-117861904D02*
X233190476Y-117861904D01*
X233419047Y-117861904D02*
X233419047Y-117061904D01*
X233342857Y-117176190D01*
X233266666Y-117252380D01*
X233190476Y-117290476D01*
X233952380Y-117138095D02*
X233990476Y-117100000D01*
X234066666Y-117061904D01*
X234257142Y-117061904D01*
X234333333Y-117100000D01*
X234371428Y-117138095D01*
X234409523Y-117214285D01*
X234409523Y-117290476D01*
X234371428Y-117404761D01*
X233914285Y-117861904D01*
X234409523Y-117861904D01*
X232885714Y-120785714D02*
X232847619Y-120823809D01*
X232733333Y-120861904D01*
X232657142Y-120861904D01*
X232542857Y-120823809D01*
X232466666Y-120747619D01*
X232428571Y-120671428D01*
X232390476Y-120519047D01*
X232390476Y-120404761D01*
X232428571Y-120252380D01*
X232466666Y-120176190D01*
X232542857Y-120100000D01*
X232657142Y-120061904D01*
X232733333Y-120061904D01*
X232847619Y-120100000D01*
X232885714Y-120138095D01*
X233647619Y-120861904D02*
X233190476Y-120861904D01*
X233419047Y-120861904D02*
X233419047Y-120061904D01*
X233342857Y-120176190D01*
X233266666Y-120252380D01*
X233190476Y-120290476D01*
X233914285Y-120061904D02*
X234409523Y-120061904D01*
X234142857Y-120366666D01*
X234257142Y-120366666D01*
X234333333Y-120404761D01*
X234371428Y-120442857D01*
X234409523Y-120519047D01*
X234409523Y-120709523D01*
X234371428Y-120785714D01*
X234333333Y-120823809D01*
X234257142Y-120861904D01*
X234028571Y-120861904D01*
X233952380Y-120823809D01*
X233914285Y-120785714D01*
X214090476Y-156035714D02*
X214052380Y-156073809D01*
X213938095Y-156111904D01*
X213861904Y-156111904D01*
X213747619Y-156073809D01*
X213671428Y-155997619D01*
X213633333Y-155921428D01*
X213595238Y-155769047D01*
X213595238Y-155654761D01*
X213633333Y-155502380D01*
X213671428Y-155426190D01*
X213747619Y-155350000D01*
X213861904Y-155311904D01*
X213938095Y-155311904D01*
X214052380Y-155350000D01*
X214090476Y-155388095D01*
X214585714Y-155311904D02*
X214738095Y-155311904D01*
X214814285Y-155350000D01*
X214890476Y-155426190D01*
X214928571Y-155578571D01*
X214928571Y-155845238D01*
X214890476Y-155997619D01*
X214814285Y-156073809D01*
X214738095Y-156111904D01*
X214585714Y-156111904D01*
X214509523Y-156073809D01*
X214433333Y-155997619D01*
X214395238Y-155845238D01*
X214395238Y-155578571D01*
X214433333Y-155426190D01*
X214509523Y-155350000D01*
X214585714Y-155311904D01*
X215271428Y-156111904D02*
X215271428Y-155311904D01*
X215538095Y-155883333D01*
X215804761Y-155311904D01*
X215804761Y-156111904D01*
X216185714Y-156111904D02*
X216185714Y-155311904D01*
X216490476Y-155311904D01*
X216566666Y-155350000D01*
X216604761Y-155388095D01*
X216642857Y-155464285D01*
X216642857Y-155578571D01*
X216604761Y-155654761D01*
X216566666Y-155692857D01*
X216490476Y-155730952D01*
X216185714Y-155730952D01*
X217404761Y-156111904D02*
X216947619Y-156111904D01*
X217176190Y-156111904D02*
X217176190Y-155311904D01*
X217100000Y-155426190D01*
X217023809Y-155502380D01*
X216947619Y-155540476D01*
X209683333Y-135323809D02*
X209797619Y-135361904D01*
X209988095Y-135361904D01*
X210064285Y-135323809D01*
X210102380Y-135285714D01*
X210140476Y-135209523D01*
X210140476Y-135133333D01*
X210102380Y-135057142D01*
X210064285Y-135019047D01*
X209988095Y-134980952D01*
X209835714Y-134942857D01*
X209759523Y-134904761D01*
X209721428Y-134866666D01*
X209683333Y-134790476D01*
X209683333Y-134714285D01*
X209721428Y-134638095D01*
X209759523Y-134600000D01*
X209835714Y-134561904D01*
X210026190Y-134561904D01*
X210140476Y-134600000D01*
X210407142Y-134561904D02*
X210597619Y-135361904D01*
X210750000Y-134790476D01*
X210902380Y-135361904D01*
X211092857Y-134561904D01*
X211816666Y-135361904D02*
X211359523Y-135361904D01*
X211588095Y-135361904D02*
X211588095Y-134561904D01*
X211511904Y-134676190D01*
X211435714Y-134752380D01*
X211359523Y-134790476D01*
X215090476Y-120807142D02*
X215700000Y-120807142D01*
X215395238Y-121111904D02*
X215395238Y-120502380D01*
X216042857Y-120388095D02*
X216080952Y-120350000D01*
X216157142Y-120311904D01*
X216347619Y-120311904D01*
X216423809Y-120350000D01*
X216461904Y-120388095D01*
X216500000Y-120464285D01*
X216500000Y-120540476D01*
X216461904Y-120654761D01*
X216004761Y-121111904D01*
X216500000Y-121111904D01*
X217185714Y-120578571D02*
X217185714Y-121111904D01*
X216995238Y-120273809D02*
X216804761Y-120845238D01*
X217300000Y-120845238D01*
X217490476Y-120311904D02*
X217757142Y-121111904D01*
X218023809Y-120311904D01*
X209030952Y-143611904D02*
X209030952Y-142811904D01*
X209411904Y-143611904D02*
X209411904Y-142811904D01*
X209869047Y-143611904D01*
X209869047Y-142811904D01*
X210516666Y-143192857D02*
X210630952Y-143230952D01*
X210669047Y-143269047D01*
X210707142Y-143345238D01*
X210707142Y-143459523D01*
X210669047Y-143535714D01*
X210630952Y-143573809D01*
X210554761Y-143611904D01*
X210250000Y-143611904D01*
X210250000Y-142811904D01*
X210516666Y-142811904D01*
X210592857Y-142850000D01*
X210630952Y-142888095D01*
X210669047Y-142964285D01*
X210669047Y-143040476D01*
X210630952Y-143116666D01*
X210592857Y-143154761D01*
X210516666Y-143192857D01*
X210250000Y-143192857D01*
X211050000Y-143611904D02*
X211050000Y-142811904D01*
X211507142Y-143611904D02*
X211164285Y-143154761D01*
X211507142Y-142811904D02*
X211050000Y-143269047D01*
X215833333Y-153192857D02*
X215566666Y-153192857D01*
X215566666Y-153611904D02*
X215566666Y-152811904D01*
X215947619Y-152811904D01*
X216519047Y-153192857D02*
X216633333Y-153230952D01*
X216671428Y-153269047D01*
X216709523Y-153345238D01*
X216709523Y-153459523D01*
X216671428Y-153535714D01*
X216633333Y-153573809D01*
X216557142Y-153611904D01*
X216252380Y-153611904D01*
X216252380Y-152811904D01*
X216519047Y-152811904D01*
X216595238Y-152850000D01*
X216633333Y-152888095D01*
X216671428Y-152964285D01*
X216671428Y-153040476D01*
X216633333Y-153116666D01*
X216595238Y-153154761D01*
X216519047Y-153192857D01*
X216252380Y-153192857D01*
X217471428Y-153611904D02*
X217014285Y-153611904D01*
X217242857Y-153611904D02*
X217242857Y-152811904D01*
X217166666Y-152926190D01*
X217090476Y-153002380D01*
X217014285Y-153040476D01*
X236373809Y-141811904D02*
X236640476Y-142611904D01*
X236907142Y-141811904D01*
X237173809Y-142611904D02*
X237173809Y-141811904D01*
X237554761Y-142611904D02*
X237554761Y-141811904D01*
X238011904Y-142611904D01*
X238011904Y-141811904D01*
X221640476Y-151573809D02*
X221754761Y-151611904D01*
X221945238Y-151611904D01*
X222021428Y-151573809D01*
X222059523Y-151535714D01*
X222097619Y-151459523D01*
X222097619Y-151383333D01*
X222059523Y-151307142D01*
X222021428Y-151269047D01*
X221945238Y-151230952D01*
X221792857Y-151192857D01*
X221716666Y-151154761D01*
X221678571Y-151116666D01*
X221640476Y-151040476D01*
X221640476Y-150964285D01*
X221678571Y-150888095D01*
X221716666Y-150850000D01*
X221792857Y-150811904D01*
X221983333Y-150811904D01*
X222097619Y-150850000D01*
X222402380Y-151573809D02*
X222516666Y-151611904D01*
X222707142Y-151611904D01*
X222783333Y-151573809D01*
X222821428Y-151535714D01*
X222859523Y-151459523D01*
X222859523Y-151383333D01*
X222821428Y-151307142D01*
X222783333Y-151269047D01*
X222707142Y-151230952D01*
X222554761Y-151192857D01*
X222478571Y-151154761D01*
X222440476Y-151116666D01*
X222402380Y-151040476D01*
X222402380Y-150964285D01*
X222440476Y-150888095D01*
X222478571Y-150850000D01*
X222554761Y-150811904D01*
X222745238Y-150811904D01*
X222859523Y-150850000D01*
X215878571Y-148573809D02*
X215992857Y-148611904D01*
X216183333Y-148611904D01*
X216259523Y-148573809D01*
X216297619Y-148535714D01*
X216335714Y-148459523D01*
X216335714Y-148383333D01*
X216297619Y-148307142D01*
X216259523Y-148269047D01*
X216183333Y-148230952D01*
X216030952Y-148192857D01*
X215954761Y-148154761D01*
X215916666Y-148116666D01*
X215878571Y-148040476D01*
X215878571Y-147964285D01*
X215916666Y-147888095D01*
X215954761Y-147850000D01*
X216030952Y-147811904D01*
X216221428Y-147811904D01*
X216335714Y-147850000D01*
X217059523Y-148611904D02*
X216678571Y-148611904D01*
X216678571Y-147811904D01*
X217326190Y-148192857D02*
X217592857Y-148192857D01*
X217707142Y-148611904D02*
X217326190Y-148611904D01*
X217326190Y-147811904D01*
X217707142Y-147811904D01*
X217973809Y-147811904D02*
X218164285Y-148611904D01*
X218316666Y-148040476D01*
X218469047Y-148611904D01*
X218659523Y-147811904D01*
X218490476Y-146573809D02*
X218604761Y-146611904D01*
X218795238Y-146611904D01*
X218871428Y-146573809D01*
X218909523Y-146535714D01*
X218947619Y-146459523D01*
X218947619Y-146383333D01*
X218909523Y-146307142D01*
X218871428Y-146269047D01*
X218795238Y-146230952D01*
X218642857Y-146192857D01*
X218566666Y-146154761D01*
X218528571Y-146116666D01*
X218490476Y-146040476D01*
X218490476Y-145964285D01*
X218528571Y-145888095D01*
X218566666Y-145850000D01*
X218642857Y-145811904D01*
X218833333Y-145811904D01*
X218947619Y-145850000D01*
X219290476Y-146192857D02*
X219557142Y-146192857D01*
X219671428Y-146611904D02*
X219290476Y-146611904D01*
X219290476Y-145811904D01*
X219671428Y-145811904D01*
X220547619Y-146688095D02*
X220471428Y-146650000D01*
X220395238Y-146573809D01*
X220280952Y-146459523D01*
X220204761Y-146421428D01*
X220128571Y-146421428D01*
X220166666Y-146611904D02*
X220090476Y-146573809D01*
X220014285Y-146497619D01*
X219976190Y-146345238D01*
X219976190Y-146078571D01*
X220014285Y-145926190D01*
X220090476Y-145850000D01*
X220166666Y-145811904D01*
X220319047Y-145811904D01*
X220395238Y-145850000D01*
X220471428Y-145926190D01*
X220509523Y-146078571D01*
X220509523Y-146345238D01*
X220471428Y-146497619D01*
X220395238Y-146573809D01*
X220319047Y-146611904D01*
X220166666Y-146611904D01*
X234833333Y-153442857D02*
X234566666Y-153442857D01*
X234566666Y-153861904D02*
X234566666Y-153061904D01*
X234947619Y-153061904D01*
X235519047Y-153442857D02*
X235633333Y-153480952D01*
X235671428Y-153519047D01*
X235709523Y-153595238D01*
X235709523Y-153709523D01*
X235671428Y-153785714D01*
X235633333Y-153823809D01*
X235557142Y-153861904D01*
X235252380Y-153861904D01*
X235252380Y-153061904D01*
X235519047Y-153061904D01*
X235595238Y-153100000D01*
X235633333Y-153138095D01*
X235671428Y-153214285D01*
X235671428Y-153290476D01*
X235633333Y-153366666D01*
X235595238Y-153404761D01*
X235519047Y-153442857D01*
X235252380Y-153442857D01*
X236014285Y-153138095D02*
X236052380Y-153100000D01*
X236128571Y-153061904D01*
X236319047Y-153061904D01*
X236395238Y-153100000D01*
X236433333Y-153138095D01*
X236471428Y-153214285D01*
X236471428Y-153290476D01*
X236433333Y-153404761D01*
X235976190Y-153861904D01*
X236471428Y-153861904D01*
X233840476Y-155785714D02*
X233802380Y-155823809D01*
X233688095Y-155861904D01*
X233611904Y-155861904D01*
X233497619Y-155823809D01*
X233421428Y-155747619D01*
X233383333Y-155671428D01*
X233345238Y-155519047D01*
X233345238Y-155404761D01*
X233383333Y-155252380D01*
X233421428Y-155176190D01*
X233497619Y-155100000D01*
X233611904Y-155061904D01*
X233688095Y-155061904D01*
X233802380Y-155100000D01*
X233840476Y-155138095D01*
X234335714Y-155061904D02*
X234488095Y-155061904D01*
X234564285Y-155100000D01*
X234640476Y-155176190D01*
X234678571Y-155328571D01*
X234678571Y-155595238D01*
X234640476Y-155747619D01*
X234564285Y-155823809D01*
X234488095Y-155861904D01*
X234335714Y-155861904D01*
X234259523Y-155823809D01*
X234183333Y-155747619D01*
X234145238Y-155595238D01*
X234145238Y-155328571D01*
X234183333Y-155176190D01*
X234259523Y-155100000D01*
X234335714Y-155061904D01*
X235021428Y-155861904D02*
X235021428Y-155061904D01*
X235288095Y-155633333D01*
X235554761Y-155061904D01*
X235554761Y-155861904D01*
X235935714Y-155861904D02*
X235935714Y-155061904D01*
X236240476Y-155061904D01*
X236316666Y-155100000D01*
X236354761Y-155138095D01*
X236392857Y-155214285D01*
X236392857Y-155328571D01*
X236354761Y-155404761D01*
X236316666Y-155442857D01*
X236240476Y-155480952D01*
X235935714Y-155480952D01*
X236697619Y-155138095D02*
X236735714Y-155100000D01*
X236811904Y-155061904D01*
X237002380Y-155061904D01*
X237078571Y-155100000D01*
X237116666Y-155138095D01*
X237154761Y-155214285D01*
X237154761Y-155290476D01*
X237116666Y-155404761D01*
X236659523Y-155861904D01*
X237154761Y-155861904D01*
X237433333Y-130073809D02*
X237547619Y-130111904D01*
X237738095Y-130111904D01*
X237814285Y-130073809D01*
X237852380Y-130035714D01*
X237890476Y-129959523D01*
X237890476Y-129883333D01*
X237852380Y-129807142D01*
X237814285Y-129769047D01*
X237738095Y-129730952D01*
X237585714Y-129692857D01*
X237509523Y-129654761D01*
X237471428Y-129616666D01*
X237433333Y-129540476D01*
X237433333Y-129464285D01*
X237471428Y-129388095D01*
X237509523Y-129350000D01*
X237585714Y-129311904D01*
X237776190Y-129311904D01*
X237890476Y-129350000D01*
X238157142Y-129311904D02*
X238347619Y-130111904D01*
X238500000Y-129540476D01*
X238652380Y-130111904D01*
X238842857Y-129311904D01*
X239109523Y-129388095D02*
X239147619Y-129350000D01*
X239223809Y-129311904D01*
X239414285Y-129311904D01*
X239490476Y-129350000D01*
X239528571Y-129388095D01*
X239566666Y-129464285D01*
X239566666Y-129540476D01*
X239528571Y-129654761D01*
X239071428Y-130111904D01*
X239566666Y-130111904D01*
X234590476Y-111307142D02*
X235200000Y-111307142D01*
X235542857Y-110888095D02*
X235580952Y-110850000D01*
X235657142Y-110811904D01*
X235847619Y-110811904D01*
X235923809Y-110850000D01*
X235961904Y-110888095D01*
X236000000Y-110964285D01*
X236000000Y-111040476D01*
X235961904Y-111154761D01*
X235504761Y-111611904D01*
X236000000Y-111611904D01*
X236685714Y-111078571D02*
X236685714Y-111611904D01*
X236495238Y-110773809D02*
X236304761Y-111345238D01*
X236800000Y-111345238D01*
X236990476Y-110811904D02*
X237257142Y-111611904D01*
X237523809Y-110811904D01*
X237485714Y-148535714D02*
X237447619Y-148573809D01*
X237333333Y-148611904D01*
X237257142Y-148611904D01*
X237142857Y-148573809D01*
X237066666Y-148497619D01*
X237028571Y-148421428D01*
X236990476Y-148269047D01*
X236990476Y-148154761D01*
X237028571Y-148002380D01*
X237066666Y-147926190D01*
X237142857Y-147850000D01*
X237257142Y-147811904D01*
X237333333Y-147811904D01*
X237447619Y-147850000D01*
X237485714Y-147888095D01*
X238247619Y-148611904D02*
X237790476Y-148611904D01*
X238019047Y-148611904D02*
X238019047Y-147811904D01*
X237942857Y-147926190D01*
X237866666Y-148002380D01*
X237790476Y-148040476D01*
X239009523Y-148611904D02*
X238552380Y-148611904D01*
X238780952Y-148611904D02*
X238780952Y-147811904D01*
X238704761Y-147926190D01*
X238628571Y-148002380D01*
X238552380Y-148040476D01*
M02*
