G04 #@! TF.GenerationSoftware,KiCad,Pcbnew,5.1.5*
G04 #@! TF.CreationDate,2020-02-13T08:46:51-05:00*
G04 #@! TF.ProjectId,io-master,696f2d6d-6173-4746-9572-2e6b69636164,A*
G04 #@! TF.SameCoordinates,Original*
G04 #@! TF.FileFunction,Soldermask,Bot*
G04 #@! TF.FilePolarity,Negative*
%FSLAX46Y46*%
G04 Gerber Fmt 4.6, Leading zero omitted, Abs format (unit mm)*
G04 Created by KiCad (PCBNEW 5.1.5) date 2020-02-13 08:46:51*
%MOMM*%
%LPD*%
G04 APERTURE LIST*
%ADD10C,0.100000*%
G04 APERTURE END LIST*
D10*
G36*
X195956741Y-121846048D02*
G01*
X196553663Y-122093301D01*
X197090878Y-122452257D01*
X197547743Y-122909122D01*
X197906699Y-123446337D01*
X198153952Y-124043259D01*
X198280000Y-124676948D01*
X198280000Y-125323052D01*
X198153952Y-125956741D01*
X197906699Y-126553663D01*
X197547743Y-127090878D01*
X197090878Y-127547743D01*
X196553663Y-127906699D01*
X195956741Y-128153952D01*
X195323052Y-128280000D01*
X194676948Y-128280000D01*
X194043259Y-128153952D01*
X193446337Y-127906699D01*
X192909122Y-127547743D01*
X192452257Y-127090878D01*
X192093301Y-126553663D01*
X191846048Y-125956741D01*
X191720000Y-125323052D01*
X191720000Y-124676948D01*
X191846048Y-124043259D01*
X192093301Y-123446337D01*
X192452257Y-122909122D01*
X192909122Y-122452257D01*
X193446337Y-122093301D01*
X194043259Y-121846048D01*
X194676948Y-121720000D01*
X195323052Y-121720000D01*
X195956741Y-121846048D01*
G37*
G36*
X35956741Y-121846048D02*
G01*
X36553663Y-122093301D01*
X37090878Y-122452257D01*
X37547743Y-122909122D01*
X37906699Y-123446337D01*
X38153952Y-124043259D01*
X38280000Y-124676948D01*
X38280000Y-125323052D01*
X38153952Y-125956741D01*
X37906699Y-126553663D01*
X37547743Y-127090878D01*
X37090878Y-127547743D01*
X36553663Y-127906699D01*
X35956741Y-128153952D01*
X35323052Y-128280000D01*
X34676948Y-128280000D01*
X34043259Y-128153952D01*
X33446337Y-127906699D01*
X32909122Y-127547743D01*
X32452257Y-127090878D01*
X32093301Y-126553663D01*
X31846048Y-125956741D01*
X31720000Y-125323052D01*
X31720000Y-124676948D01*
X31846048Y-124043259D01*
X32093301Y-123446337D01*
X32452257Y-122909122D01*
X32909122Y-122452257D01*
X33446337Y-122093301D01*
X34043259Y-121846048D01*
X34676948Y-121720000D01*
X35323052Y-121720000D01*
X35956741Y-121846048D01*
G37*
G36*
X190260140Y-105542750D02*
G01*
X190431703Y-105576876D01*
X190614753Y-105652699D01*
X190701043Y-105688441D01*
X190943445Y-105850409D01*
X191149591Y-106056555D01*
X191311559Y-106298957D01*
X191347301Y-106385247D01*
X191423124Y-106568297D01*
X191480000Y-106854235D01*
X191480000Y-107145765D01*
X191423124Y-107431703D01*
X191347301Y-107614753D01*
X191311559Y-107701043D01*
X191149591Y-107943445D01*
X190943445Y-108149591D01*
X190701043Y-108311559D01*
X190614753Y-108347301D01*
X190431703Y-108423124D01*
X190260140Y-108457250D01*
X190145767Y-108480000D01*
X189854233Y-108480000D01*
X189739860Y-108457250D01*
X189568297Y-108423124D01*
X189385247Y-108347301D01*
X189298957Y-108311559D01*
X189056555Y-108149591D01*
X188850409Y-107943445D01*
X188688441Y-107701043D01*
X188652699Y-107614753D01*
X188576876Y-107431703D01*
X188520000Y-107145765D01*
X188520000Y-106854235D01*
X188576876Y-106568297D01*
X188652699Y-106385247D01*
X188688441Y-106298957D01*
X188850409Y-106056555D01*
X189056555Y-105850409D01*
X189298957Y-105688441D01*
X189385247Y-105652699D01*
X189568297Y-105576876D01*
X189739860Y-105542750D01*
X189854233Y-105520000D01*
X190145767Y-105520000D01*
X190260140Y-105542750D01*
G37*
G36*
X191930000Y-83010000D02*
G01*
X190070000Y-83010000D01*
X190070000Y-81150000D01*
X191930000Y-81150000D01*
X191930000Y-83010000D01*
G37*
G36*
X193811271Y-81185739D02*
G01*
X193811273Y-81185740D01*
X193811274Y-81185740D01*
X193980520Y-81255844D01*
X194132841Y-81357622D01*
X194262378Y-81487159D01*
X194364156Y-81639480D01*
X194434260Y-81808726D01*
X194470000Y-81988405D01*
X194470000Y-82171595D01*
X194434260Y-82351274D01*
X194364156Y-82520520D01*
X194262378Y-82672841D01*
X194132841Y-82802378D01*
X193980520Y-82904156D01*
X193811274Y-82974260D01*
X193811273Y-82974260D01*
X193811271Y-82974261D01*
X193631597Y-83010000D01*
X193448403Y-83010000D01*
X193268729Y-82974261D01*
X193268727Y-82974260D01*
X193268726Y-82974260D01*
X193099480Y-82904156D01*
X192947159Y-82802378D01*
X192817622Y-82672841D01*
X192715844Y-82520520D01*
X192645740Y-82351274D01*
X192610000Y-82171595D01*
X192610000Y-81988405D01*
X192645740Y-81808726D01*
X192715844Y-81639480D01*
X192817622Y-81487159D01*
X192947159Y-81357622D01*
X193099480Y-81255844D01*
X193268726Y-81185740D01*
X193268727Y-81185740D01*
X193268729Y-81185739D01*
X193448403Y-81150000D01*
X193631597Y-81150000D01*
X193811271Y-81185739D01*
G37*
G36*
X193811271Y-78645739D02*
G01*
X193811273Y-78645740D01*
X193811274Y-78645740D01*
X193980520Y-78715844D01*
X194132841Y-78817622D01*
X194262378Y-78947159D01*
X194364156Y-79099480D01*
X194434260Y-79268726D01*
X194470000Y-79448405D01*
X194470000Y-79631595D01*
X194434260Y-79811274D01*
X194364156Y-79980520D01*
X194262378Y-80132841D01*
X194132841Y-80262378D01*
X193980520Y-80364156D01*
X193811274Y-80434260D01*
X193811273Y-80434260D01*
X193811271Y-80434261D01*
X193631597Y-80470000D01*
X193448403Y-80470000D01*
X193268729Y-80434261D01*
X193268727Y-80434260D01*
X193268726Y-80434260D01*
X193099480Y-80364156D01*
X192947159Y-80262378D01*
X192817622Y-80132841D01*
X192715844Y-79980520D01*
X192645740Y-79811274D01*
X192610000Y-79631595D01*
X192610000Y-79448405D01*
X192645740Y-79268726D01*
X192715844Y-79099480D01*
X192817622Y-78947159D01*
X192947159Y-78817622D01*
X193099480Y-78715844D01*
X193268726Y-78645740D01*
X193268727Y-78645740D01*
X193268729Y-78645739D01*
X193448403Y-78610000D01*
X193631597Y-78610000D01*
X193811271Y-78645739D01*
G37*
G36*
X191271271Y-78645739D02*
G01*
X191271273Y-78645740D01*
X191271274Y-78645740D01*
X191440520Y-78715844D01*
X191592841Y-78817622D01*
X191722378Y-78947159D01*
X191824156Y-79099480D01*
X191894260Y-79268726D01*
X191930000Y-79448405D01*
X191930000Y-79631595D01*
X191894260Y-79811274D01*
X191824156Y-79980520D01*
X191722378Y-80132841D01*
X191592841Y-80262378D01*
X191440520Y-80364156D01*
X191271274Y-80434260D01*
X191271273Y-80434260D01*
X191271271Y-80434261D01*
X191091597Y-80470000D01*
X190908403Y-80470000D01*
X190728729Y-80434261D01*
X190728727Y-80434260D01*
X190728726Y-80434260D01*
X190559480Y-80364156D01*
X190407159Y-80262378D01*
X190277622Y-80132841D01*
X190175844Y-79980520D01*
X190105740Y-79811274D01*
X190070000Y-79631595D01*
X190070000Y-79448405D01*
X190105740Y-79268726D01*
X190175844Y-79099480D01*
X190277622Y-78947159D01*
X190407159Y-78817622D01*
X190559480Y-78715844D01*
X190728726Y-78645740D01*
X190728727Y-78645740D01*
X190728729Y-78645739D01*
X190908403Y-78610000D01*
X191091597Y-78610000D01*
X191271271Y-78645739D01*
G37*
G36*
X191271271Y-76105739D02*
G01*
X191271273Y-76105740D01*
X191271274Y-76105740D01*
X191440520Y-76175844D01*
X191592841Y-76277622D01*
X191722378Y-76407159D01*
X191824156Y-76559480D01*
X191894260Y-76728726D01*
X191930000Y-76908405D01*
X191930000Y-77091595D01*
X191894260Y-77271274D01*
X191824156Y-77440520D01*
X191722378Y-77592841D01*
X191592841Y-77722378D01*
X191440520Y-77824156D01*
X191271274Y-77894260D01*
X191271273Y-77894260D01*
X191271271Y-77894261D01*
X191091597Y-77930000D01*
X190908403Y-77930000D01*
X190728729Y-77894261D01*
X190728727Y-77894260D01*
X190728726Y-77894260D01*
X190559480Y-77824156D01*
X190407159Y-77722378D01*
X190277622Y-77592841D01*
X190175844Y-77440520D01*
X190105740Y-77271274D01*
X190070000Y-77091595D01*
X190070000Y-76908405D01*
X190105740Y-76728726D01*
X190175844Y-76559480D01*
X190277622Y-76407159D01*
X190407159Y-76277622D01*
X190559480Y-76175844D01*
X190728726Y-76105740D01*
X190728727Y-76105740D01*
X190728729Y-76105739D01*
X190908403Y-76070000D01*
X191091597Y-76070000D01*
X191271271Y-76105739D01*
G37*
G36*
X193811271Y-76105739D02*
G01*
X193811273Y-76105740D01*
X193811274Y-76105740D01*
X193980520Y-76175844D01*
X194132841Y-76277622D01*
X194262378Y-76407159D01*
X194364156Y-76559480D01*
X194434260Y-76728726D01*
X194470000Y-76908405D01*
X194470000Y-77091595D01*
X194434260Y-77271274D01*
X194364156Y-77440520D01*
X194262378Y-77592841D01*
X194132841Y-77722378D01*
X193980520Y-77824156D01*
X193811274Y-77894260D01*
X193811273Y-77894260D01*
X193811271Y-77894261D01*
X193631597Y-77930000D01*
X193448403Y-77930000D01*
X193268729Y-77894261D01*
X193268727Y-77894260D01*
X193268726Y-77894260D01*
X193099480Y-77824156D01*
X192947159Y-77722378D01*
X192817622Y-77592841D01*
X192715844Y-77440520D01*
X192645740Y-77271274D01*
X192610000Y-77091595D01*
X192610000Y-76908405D01*
X192645740Y-76728726D01*
X192715844Y-76559480D01*
X192817622Y-76407159D01*
X192947159Y-76277622D01*
X193099480Y-76175844D01*
X193268726Y-76105740D01*
X193268727Y-76105740D01*
X193268729Y-76105739D01*
X193448403Y-76070000D01*
X193631597Y-76070000D01*
X193811271Y-76105739D01*
G37*
G36*
X64361271Y-74855739D02*
G01*
X64361273Y-74855740D01*
X64361274Y-74855740D01*
X64530520Y-74925844D01*
X64682841Y-75027622D01*
X64812378Y-75157159D01*
X64914156Y-75309480D01*
X64984260Y-75478726D01*
X65020000Y-75658405D01*
X65020000Y-75841595D01*
X64984260Y-76021274D01*
X64914156Y-76190520D01*
X64812378Y-76342841D01*
X64682841Y-76472378D01*
X64530520Y-76574156D01*
X64361274Y-76644260D01*
X64361273Y-76644260D01*
X64361271Y-76644261D01*
X64181597Y-76680000D01*
X63998403Y-76680000D01*
X63818729Y-76644261D01*
X63818727Y-76644260D01*
X63818726Y-76644260D01*
X63649480Y-76574156D01*
X63497159Y-76472378D01*
X63367622Y-76342841D01*
X63265844Y-76190520D01*
X63195740Y-76021274D01*
X63160000Y-75841595D01*
X63160000Y-75658405D01*
X63195740Y-75478726D01*
X63265844Y-75309480D01*
X63367622Y-75157159D01*
X63497159Y-75027622D01*
X63649480Y-74925844D01*
X63818726Y-74855740D01*
X63818727Y-74855740D01*
X63818729Y-74855739D01*
X63998403Y-74820000D01*
X64181597Y-74820000D01*
X64361271Y-74855739D01*
G37*
G36*
X75180000Y-76680000D02*
G01*
X73320000Y-76680000D01*
X73320000Y-74820000D01*
X75180000Y-74820000D01*
X75180000Y-76680000D01*
G37*
G36*
X71981271Y-74855739D02*
G01*
X71981273Y-74855740D01*
X71981274Y-74855740D01*
X72150520Y-74925844D01*
X72302841Y-75027622D01*
X72432378Y-75157159D01*
X72534156Y-75309480D01*
X72604260Y-75478726D01*
X72640000Y-75658405D01*
X72640000Y-75841595D01*
X72604260Y-76021274D01*
X72534156Y-76190520D01*
X72432378Y-76342841D01*
X72302841Y-76472378D01*
X72150520Y-76574156D01*
X71981274Y-76644260D01*
X71981273Y-76644260D01*
X71981271Y-76644261D01*
X71801597Y-76680000D01*
X71618403Y-76680000D01*
X71438729Y-76644261D01*
X71438727Y-76644260D01*
X71438726Y-76644260D01*
X71269480Y-76574156D01*
X71117159Y-76472378D01*
X70987622Y-76342841D01*
X70885844Y-76190520D01*
X70815740Y-76021274D01*
X70780000Y-75841595D01*
X70780000Y-75658405D01*
X70815740Y-75478726D01*
X70885844Y-75309480D01*
X70987622Y-75157159D01*
X71117159Y-75027622D01*
X71269480Y-74925844D01*
X71438726Y-74855740D01*
X71438727Y-74855740D01*
X71438729Y-74855739D01*
X71618403Y-74820000D01*
X71801597Y-74820000D01*
X71981271Y-74855739D01*
G37*
G36*
X69441271Y-74855739D02*
G01*
X69441273Y-74855740D01*
X69441274Y-74855740D01*
X69610520Y-74925844D01*
X69762841Y-75027622D01*
X69892378Y-75157159D01*
X69994156Y-75309480D01*
X70064260Y-75478726D01*
X70100000Y-75658405D01*
X70100000Y-75841595D01*
X70064260Y-76021274D01*
X69994156Y-76190520D01*
X69892378Y-76342841D01*
X69762841Y-76472378D01*
X69610520Y-76574156D01*
X69441274Y-76644260D01*
X69441273Y-76644260D01*
X69441271Y-76644261D01*
X69261597Y-76680000D01*
X69078403Y-76680000D01*
X68898729Y-76644261D01*
X68898727Y-76644260D01*
X68898726Y-76644260D01*
X68729480Y-76574156D01*
X68577159Y-76472378D01*
X68447622Y-76342841D01*
X68345844Y-76190520D01*
X68275740Y-76021274D01*
X68240000Y-75841595D01*
X68240000Y-75658405D01*
X68275740Y-75478726D01*
X68345844Y-75309480D01*
X68447622Y-75157159D01*
X68577159Y-75027622D01*
X68729480Y-74925844D01*
X68898726Y-74855740D01*
X68898727Y-74855740D01*
X68898729Y-74855739D01*
X69078403Y-74820000D01*
X69261597Y-74820000D01*
X69441271Y-74855739D01*
G37*
G36*
X66901271Y-74855739D02*
G01*
X66901273Y-74855740D01*
X66901274Y-74855740D01*
X67070520Y-74925844D01*
X67222841Y-75027622D01*
X67352378Y-75157159D01*
X67454156Y-75309480D01*
X67524260Y-75478726D01*
X67560000Y-75658405D01*
X67560000Y-75841595D01*
X67524260Y-76021274D01*
X67454156Y-76190520D01*
X67352378Y-76342841D01*
X67222841Y-76472378D01*
X67070520Y-76574156D01*
X66901274Y-76644260D01*
X66901273Y-76644260D01*
X66901271Y-76644261D01*
X66721597Y-76680000D01*
X66538403Y-76680000D01*
X66358729Y-76644261D01*
X66358727Y-76644260D01*
X66358726Y-76644260D01*
X66189480Y-76574156D01*
X66037159Y-76472378D01*
X65907622Y-76342841D01*
X65805844Y-76190520D01*
X65735740Y-76021274D01*
X65700000Y-75841595D01*
X65700000Y-75658405D01*
X65735740Y-75478726D01*
X65805844Y-75309480D01*
X65907622Y-75157159D01*
X66037159Y-75027622D01*
X66189480Y-74925844D01*
X66358726Y-74855740D01*
X66358727Y-74855740D01*
X66358729Y-74855739D01*
X66538403Y-74820000D01*
X66721597Y-74820000D01*
X66901271Y-74855739D01*
G37*
G36*
X191271271Y-73565739D02*
G01*
X191271273Y-73565740D01*
X191271274Y-73565740D01*
X191440520Y-73635844D01*
X191592841Y-73737622D01*
X191722378Y-73867159D01*
X191824156Y-74019480D01*
X191894260Y-74188726D01*
X191930000Y-74368405D01*
X191930000Y-74551595D01*
X191894260Y-74731274D01*
X191824156Y-74900520D01*
X191722378Y-75052841D01*
X191592841Y-75182378D01*
X191440520Y-75284156D01*
X191271274Y-75354260D01*
X191271273Y-75354260D01*
X191271271Y-75354261D01*
X191091597Y-75390000D01*
X190908403Y-75390000D01*
X190728729Y-75354261D01*
X190728727Y-75354260D01*
X190728726Y-75354260D01*
X190559480Y-75284156D01*
X190407159Y-75182378D01*
X190277622Y-75052841D01*
X190175844Y-74900520D01*
X190105740Y-74731274D01*
X190070000Y-74551595D01*
X190070000Y-74368405D01*
X190105740Y-74188726D01*
X190175844Y-74019480D01*
X190277622Y-73867159D01*
X190407159Y-73737622D01*
X190559480Y-73635844D01*
X190728726Y-73565740D01*
X190728727Y-73565740D01*
X190728729Y-73565739D01*
X190908403Y-73530000D01*
X191091597Y-73530000D01*
X191271271Y-73565739D01*
G37*
G36*
X193811271Y-73565739D02*
G01*
X193811273Y-73565740D01*
X193811274Y-73565740D01*
X193980520Y-73635844D01*
X194132841Y-73737622D01*
X194262378Y-73867159D01*
X194364156Y-74019480D01*
X194434260Y-74188726D01*
X194470000Y-74368405D01*
X194470000Y-74551595D01*
X194434260Y-74731274D01*
X194364156Y-74900520D01*
X194262378Y-75052841D01*
X194132841Y-75182378D01*
X193980520Y-75284156D01*
X193811274Y-75354260D01*
X193811273Y-75354260D01*
X193811271Y-75354261D01*
X193631597Y-75390000D01*
X193448403Y-75390000D01*
X193268729Y-75354261D01*
X193268727Y-75354260D01*
X193268726Y-75354260D01*
X193099480Y-75284156D01*
X192947159Y-75182378D01*
X192817622Y-75052841D01*
X192715844Y-74900520D01*
X192645740Y-74731274D01*
X192610000Y-74551595D01*
X192610000Y-74368405D01*
X192645740Y-74188726D01*
X192715844Y-74019480D01*
X192817622Y-73867159D01*
X192947159Y-73737622D01*
X193099480Y-73635844D01*
X193268726Y-73565740D01*
X193268727Y-73565740D01*
X193268729Y-73565739D01*
X193448403Y-73530000D01*
X193631597Y-73530000D01*
X193811271Y-73565739D01*
G37*
G36*
X74521271Y-72315739D02*
G01*
X74521273Y-72315740D01*
X74521274Y-72315740D01*
X74690520Y-72385844D01*
X74842841Y-72487622D01*
X74972378Y-72617159D01*
X75074156Y-72769480D01*
X75110486Y-72857189D01*
X75144261Y-72938729D01*
X75180000Y-73118403D01*
X75180000Y-73301597D01*
X75159652Y-73403896D01*
X75144260Y-73481274D01*
X75074156Y-73650520D01*
X74972378Y-73802841D01*
X74842841Y-73932378D01*
X74690520Y-74034156D01*
X74521274Y-74104260D01*
X74521273Y-74104260D01*
X74521271Y-74104261D01*
X74341597Y-74140000D01*
X74158403Y-74140000D01*
X73978729Y-74104261D01*
X73978727Y-74104260D01*
X73978726Y-74104260D01*
X73809480Y-74034156D01*
X73657159Y-73932378D01*
X73527622Y-73802841D01*
X73425844Y-73650520D01*
X73355740Y-73481274D01*
X73340349Y-73403896D01*
X73320000Y-73301597D01*
X73320000Y-73118403D01*
X73355739Y-72938729D01*
X73389514Y-72857189D01*
X73425844Y-72769480D01*
X73527622Y-72617159D01*
X73657159Y-72487622D01*
X73809480Y-72385844D01*
X73978726Y-72315740D01*
X73978727Y-72315740D01*
X73978729Y-72315739D01*
X74158403Y-72280000D01*
X74341597Y-72280000D01*
X74521271Y-72315739D01*
G37*
G36*
X71981271Y-72315739D02*
G01*
X71981273Y-72315740D01*
X71981274Y-72315740D01*
X72150520Y-72385844D01*
X72302841Y-72487622D01*
X72432378Y-72617159D01*
X72534156Y-72769480D01*
X72570486Y-72857189D01*
X72604261Y-72938729D01*
X72640000Y-73118403D01*
X72640000Y-73301597D01*
X72619652Y-73403896D01*
X72604260Y-73481274D01*
X72534156Y-73650520D01*
X72432378Y-73802841D01*
X72302841Y-73932378D01*
X72150520Y-74034156D01*
X71981274Y-74104260D01*
X71981273Y-74104260D01*
X71981271Y-74104261D01*
X71801597Y-74140000D01*
X71618403Y-74140000D01*
X71438729Y-74104261D01*
X71438727Y-74104260D01*
X71438726Y-74104260D01*
X71269480Y-74034156D01*
X71117159Y-73932378D01*
X70987622Y-73802841D01*
X70885844Y-73650520D01*
X70815740Y-73481274D01*
X70800349Y-73403896D01*
X70780000Y-73301597D01*
X70780000Y-73118403D01*
X70815739Y-72938729D01*
X70849514Y-72857189D01*
X70885844Y-72769480D01*
X70987622Y-72617159D01*
X71117159Y-72487622D01*
X71269480Y-72385844D01*
X71438726Y-72315740D01*
X71438727Y-72315740D01*
X71438729Y-72315739D01*
X71618403Y-72280000D01*
X71801597Y-72280000D01*
X71981271Y-72315739D01*
G37*
G36*
X69441271Y-72315739D02*
G01*
X69441273Y-72315740D01*
X69441274Y-72315740D01*
X69610520Y-72385844D01*
X69762841Y-72487622D01*
X69892378Y-72617159D01*
X69994156Y-72769480D01*
X70030486Y-72857189D01*
X70064261Y-72938729D01*
X70100000Y-73118403D01*
X70100000Y-73301597D01*
X70079652Y-73403896D01*
X70064260Y-73481274D01*
X69994156Y-73650520D01*
X69892378Y-73802841D01*
X69762841Y-73932378D01*
X69610520Y-74034156D01*
X69441274Y-74104260D01*
X69441273Y-74104260D01*
X69441271Y-74104261D01*
X69261597Y-74140000D01*
X69078403Y-74140000D01*
X68898729Y-74104261D01*
X68898727Y-74104260D01*
X68898726Y-74104260D01*
X68729480Y-74034156D01*
X68577159Y-73932378D01*
X68447622Y-73802841D01*
X68345844Y-73650520D01*
X68275740Y-73481274D01*
X68260349Y-73403896D01*
X68240000Y-73301597D01*
X68240000Y-73118403D01*
X68275739Y-72938729D01*
X68309514Y-72857189D01*
X68345844Y-72769480D01*
X68447622Y-72617159D01*
X68577159Y-72487622D01*
X68729480Y-72385844D01*
X68898726Y-72315740D01*
X68898727Y-72315740D01*
X68898729Y-72315739D01*
X69078403Y-72280000D01*
X69261597Y-72280000D01*
X69441271Y-72315739D01*
G37*
G36*
X66901271Y-72315739D02*
G01*
X66901273Y-72315740D01*
X66901274Y-72315740D01*
X67070520Y-72385844D01*
X67222841Y-72487622D01*
X67352378Y-72617159D01*
X67454156Y-72769480D01*
X67490486Y-72857189D01*
X67524261Y-72938729D01*
X67560000Y-73118403D01*
X67560000Y-73301597D01*
X67539652Y-73403896D01*
X67524260Y-73481274D01*
X67454156Y-73650520D01*
X67352378Y-73802841D01*
X67222841Y-73932378D01*
X67070520Y-74034156D01*
X66901274Y-74104260D01*
X66901273Y-74104260D01*
X66901271Y-74104261D01*
X66721597Y-74140000D01*
X66538403Y-74140000D01*
X66358729Y-74104261D01*
X66358727Y-74104260D01*
X66358726Y-74104260D01*
X66189480Y-74034156D01*
X66037159Y-73932378D01*
X65907622Y-73802841D01*
X65805844Y-73650520D01*
X65735740Y-73481274D01*
X65720349Y-73403896D01*
X65700000Y-73301597D01*
X65700000Y-73118403D01*
X65735739Y-72938729D01*
X65769514Y-72857189D01*
X65805844Y-72769480D01*
X65907622Y-72617159D01*
X66037159Y-72487622D01*
X66189480Y-72385844D01*
X66358726Y-72315740D01*
X66358727Y-72315740D01*
X66358729Y-72315739D01*
X66538403Y-72280000D01*
X66721597Y-72280000D01*
X66901271Y-72315739D01*
G37*
G36*
X64361271Y-72315739D02*
G01*
X64361273Y-72315740D01*
X64361274Y-72315740D01*
X64530520Y-72385844D01*
X64682841Y-72487622D01*
X64812378Y-72617159D01*
X64914156Y-72769480D01*
X64950486Y-72857189D01*
X64984261Y-72938729D01*
X65020000Y-73118403D01*
X65020000Y-73301597D01*
X64999652Y-73403896D01*
X64984260Y-73481274D01*
X64914156Y-73650520D01*
X64812378Y-73802841D01*
X64682841Y-73932378D01*
X64530520Y-74034156D01*
X64361274Y-74104260D01*
X64361273Y-74104260D01*
X64361271Y-74104261D01*
X64181597Y-74140000D01*
X63998403Y-74140000D01*
X63818729Y-74104261D01*
X63818727Y-74104260D01*
X63818726Y-74104260D01*
X63649480Y-74034156D01*
X63497159Y-73932378D01*
X63367622Y-73802841D01*
X63265844Y-73650520D01*
X63195740Y-73481274D01*
X63180349Y-73403896D01*
X63160000Y-73301597D01*
X63160000Y-73118403D01*
X63195739Y-72938729D01*
X63229514Y-72857189D01*
X63265844Y-72769480D01*
X63367622Y-72617159D01*
X63497159Y-72487622D01*
X63649480Y-72385844D01*
X63818726Y-72315740D01*
X63818727Y-72315740D01*
X63818729Y-72315739D01*
X63998403Y-72280000D01*
X64181597Y-72280000D01*
X64361271Y-72315739D01*
G37*
G36*
X31931651Y-72775478D02*
G01*
X31953898Y-72777669D01*
X32003851Y-72792822D01*
X32053805Y-72807975D01*
X32132427Y-72850000D01*
X32145877Y-72857189D01*
X32226580Y-72923420D01*
X32292811Y-73004123D01*
X32292812Y-73004125D01*
X32342025Y-73096195D01*
X32372332Y-73196104D01*
X32382565Y-73300000D01*
X32372332Y-73403896D01*
X32342025Y-73503805D01*
X32295796Y-73590292D01*
X32292811Y-73595877D01*
X32226580Y-73676580D01*
X32145877Y-73742811D01*
X32145875Y-73742812D01*
X32053805Y-73792025D01*
X32018148Y-73802841D01*
X31953898Y-73822331D01*
X31931651Y-73824522D01*
X31876038Y-73830000D01*
X31123962Y-73830000D01*
X31068349Y-73824522D01*
X31046102Y-73822331D01*
X30981852Y-73802841D01*
X30946195Y-73792025D01*
X30854125Y-73742812D01*
X30854123Y-73742811D01*
X30773420Y-73676580D01*
X30707189Y-73595877D01*
X30704204Y-73590292D01*
X30657975Y-73503805D01*
X30627668Y-73403896D01*
X30617435Y-73300000D01*
X30627668Y-73196104D01*
X30657975Y-73096195D01*
X30707188Y-73004125D01*
X30707189Y-73004123D01*
X30773420Y-72923420D01*
X30854123Y-72857189D01*
X30867573Y-72850000D01*
X30946195Y-72807975D01*
X30996150Y-72792822D01*
X31046102Y-72777669D01*
X31068349Y-72775478D01*
X31123962Y-72770000D01*
X31876038Y-72770000D01*
X31931651Y-72775478D01*
G37*
G36*
X191271271Y-71025739D02*
G01*
X191271273Y-71025740D01*
X191271274Y-71025740D01*
X191440520Y-71095844D01*
X191592841Y-71197622D01*
X191722378Y-71327159D01*
X191824156Y-71479480D01*
X191894260Y-71648726D01*
X191930000Y-71828405D01*
X191930000Y-72011595D01*
X191894260Y-72191274D01*
X191824156Y-72360520D01*
X191722378Y-72512841D01*
X191592841Y-72642378D01*
X191440520Y-72744156D01*
X191271274Y-72814260D01*
X191271273Y-72814260D01*
X191271271Y-72814261D01*
X191091597Y-72850000D01*
X190908403Y-72850000D01*
X190728729Y-72814261D01*
X190728727Y-72814260D01*
X190728726Y-72814260D01*
X190559480Y-72744156D01*
X190407159Y-72642378D01*
X190277622Y-72512841D01*
X190175844Y-72360520D01*
X190105740Y-72191274D01*
X190070000Y-72011595D01*
X190070000Y-71828405D01*
X190105740Y-71648726D01*
X190175844Y-71479480D01*
X190277622Y-71327159D01*
X190407159Y-71197622D01*
X190559480Y-71095844D01*
X190728726Y-71025740D01*
X190728727Y-71025740D01*
X190728729Y-71025739D01*
X190908403Y-70990000D01*
X191091597Y-70990000D01*
X191271271Y-71025739D01*
G37*
G36*
X193811271Y-71025739D02*
G01*
X193811273Y-71025740D01*
X193811274Y-71025740D01*
X193980520Y-71095844D01*
X194132841Y-71197622D01*
X194262378Y-71327159D01*
X194364156Y-71479480D01*
X194434260Y-71648726D01*
X194470000Y-71828405D01*
X194470000Y-72011595D01*
X194434260Y-72191274D01*
X194364156Y-72360520D01*
X194262378Y-72512841D01*
X194132841Y-72642378D01*
X193980520Y-72744156D01*
X193811274Y-72814260D01*
X193811273Y-72814260D01*
X193811271Y-72814261D01*
X193631597Y-72850000D01*
X193448403Y-72850000D01*
X193268729Y-72814261D01*
X193268727Y-72814260D01*
X193268726Y-72814260D01*
X193099480Y-72744156D01*
X192947159Y-72642378D01*
X192817622Y-72512841D01*
X192715844Y-72360520D01*
X192645740Y-72191274D01*
X192610000Y-72011595D01*
X192610000Y-71828405D01*
X192645740Y-71648726D01*
X192715844Y-71479480D01*
X192817622Y-71327159D01*
X192947159Y-71197622D01*
X193099480Y-71095844D01*
X193268726Y-71025740D01*
X193268727Y-71025740D01*
X193268729Y-71025739D01*
X193448403Y-70990000D01*
X193631597Y-70990000D01*
X193811271Y-71025739D01*
G37*
G36*
X31931651Y-66175478D02*
G01*
X31953898Y-66177669D01*
X32003851Y-66192822D01*
X32053805Y-66207975D01*
X32140292Y-66254204D01*
X32145877Y-66257189D01*
X32226580Y-66323420D01*
X32292811Y-66404123D01*
X32292812Y-66404125D01*
X32342025Y-66496195D01*
X32372332Y-66596104D01*
X32382565Y-66700000D01*
X32372332Y-66803896D01*
X32342025Y-66903805D01*
X32295796Y-66990292D01*
X32292811Y-66995877D01*
X32226580Y-67076580D01*
X32145877Y-67142811D01*
X32145875Y-67142812D01*
X32053805Y-67192025D01*
X32003851Y-67207178D01*
X31953898Y-67222331D01*
X31931651Y-67224522D01*
X31876038Y-67230000D01*
X31123962Y-67230000D01*
X31068349Y-67224522D01*
X31046102Y-67222331D01*
X30996149Y-67207178D01*
X30946195Y-67192025D01*
X30854125Y-67142812D01*
X30854123Y-67142811D01*
X30773420Y-67076580D01*
X30707189Y-66995877D01*
X30704204Y-66990292D01*
X30657975Y-66903805D01*
X30627668Y-66803896D01*
X30617435Y-66700000D01*
X30627668Y-66596104D01*
X30657975Y-66496195D01*
X30707188Y-66404125D01*
X30707189Y-66404123D01*
X30773420Y-66323420D01*
X30854123Y-66257189D01*
X30859708Y-66254204D01*
X30946195Y-66207975D01*
X30996149Y-66192822D01*
X31046102Y-66177669D01*
X31068349Y-66175478D01*
X31123962Y-66170000D01*
X31876038Y-66170000D01*
X31931651Y-66175478D01*
G37*
G36*
X41211879Y-53484433D02*
G01*
X41260726Y-53489244D01*
X41427863Y-53539945D01*
X41511433Y-53565295D01*
X41742482Y-53688793D01*
X41945002Y-53854998D01*
X42111207Y-54057518D01*
X42234705Y-54288567D01*
X42234705Y-54288568D01*
X42310756Y-54539274D01*
X42310756Y-54539276D01*
X42336436Y-54800000D01*
X42314982Y-55017818D01*
X42310756Y-55060726D01*
X42260055Y-55227863D01*
X42234705Y-55311433D01*
X42111207Y-55542482D01*
X41945002Y-55745002D01*
X41742482Y-55911207D01*
X41511433Y-56034705D01*
X41427863Y-56060055D01*
X41260726Y-56110756D01*
X41211878Y-56115567D01*
X41065342Y-56130000D01*
X38934658Y-56130000D01*
X38788122Y-56115567D01*
X38739274Y-56110756D01*
X38572137Y-56060055D01*
X38488567Y-56034705D01*
X38257518Y-55911207D01*
X38054998Y-55745002D01*
X37888793Y-55542482D01*
X37765295Y-55311433D01*
X37739945Y-55227863D01*
X37689244Y-55060726D01*
X37685018Y-55017818D01*
X37663564Y-54800000D01*
X37689244Y-54539276D01*
X37689244Y-54539274D01*
X37765295Y-54288568D01*
X37765295Y-54288567D01*
X37888793Y-54057518D01*
X38054998Y-53854998D01*
X38257518Y-53688793D01*
X38488567Y-53565295D01*
X38572137Y-53539945D01*
X38739274Y-53489244D01*
X38788121Y-53484433D01*
X38934658Y-53470000D01*
X41065342Y-53470000D01*
X41211879Y-53484433D01*
G37*
G36*
X36967818Y-47685018D02*
G01*
X37010726Y-47689244D01*
X37177863Y-47739945D01*
X37261433Y-47765295D01*
X37492482Y-47888793D01*
X37695002Y-48054998D01*
X37861207Y-48257518D01*
X37984705Y-48488567D01*
X37984705Y-48488568D01*
X38060756Y-48739274D01*
X38060756Y-48739276D01*
X38080000Y-48934658D01*
X38080000Y-51065342D01*
X38065567Y-51211879D01*
X38060756Y-51260726D01*
X38010055Y-51427863D01*
X37984705Y-51511433D01*
X37861207Y-51742482D01*
X37861205Y-51742484D01*
X37695002Y-51945002D01*
X37554069Y-52060662D01*
X37492481Y-52111207D01*
X37261432Y-52234705D01*
X37177862Y-52260055D01*
X37010725Y-52310756D01*
X36967817Y-52314982D01*
X36750000Y-52336436D01*
X36532182Y-52314982D01*
X36489274Y-52310756D01*
X36322137Y-52260055D01*
X36238567Y-52234705D01*
X36007518Y-52111207D01*
X35954059Y-52067334D01*
X35804998Y-51945002D01*
X35689338Y-51804069D01*
X35638793Y-51742481D01*
X35515295Y-51511432D01*
X35489945Y-51427862D01*
X35439244Y-51260725D01*
X35434433Y-51211877D01*
X35420000Y-51065341D01*
X35420001Y-48934658D01*
X35439245Y-48739276D01*
X35439245Y-48739274D01*
X35515296Y-48488568D01*
X35515296Y-48488567D01*
X35638794Y-48257518D01*
X35804999Y-48054998D01*
X36007519Y-47888793D01*
X36238568Y-47765295D01*
X36322138Y-47739945D01*
X36489275Y-47689244D01*
X36532183Y-47685018D01*
X36750000Y-47663564D01*
X36967818Y-47685018D01*
G37*
G36*
X44330000Y-52330000D02*
G01*
X41670000Y-52330000D01*
X41670000Y-47670000D01*
X44330000Y-47670000D01*
X44330000Y-52330000D01*
G37*
G36*
X195956741Y-31846048D02*
G01*
X196553663Y-32093301D01*
X197090878Y-32452257D01*
X197547743Y-32909122D01*
X197906699Y-33446337D01*
X198153952Y-34043259D01*
X198280000Y-34676948D01*
X198280000Y-35323052D01*
X198153952Y-35956741D01*
X197906699Y-36553663D01*
X197547743Y-37090878D01*
X197090878Y-37547743D01*
X196553663Y-37906699D01*
X195956741Y-38153952D01*
X195323052Y-38280000D01*
X194676948Y-38280000D01*
X194043259Y-38153952D01*
X193446337Y-37906699D01*
X192909122Y-37547743D01*
X192452257Y-37090878D01*
X192093301Y-36553663D01*
X191846048Y-35956741D01*
X191720000Y-35323052D01*
X191720000Y-34676948D01*
X191846048Y-34043259D01*
X192093301Y-33446337D01*
X192452257Y-32909122D01*
X192909122Y-32452257D01*
X193446337Y-32093301D01*
X194043259Y-31846048D01*
X194676948Y-31720000D01*
X195323052Y-31720000D01*
X195956741Y-31846048D01*
G37*
G36*
X35956741Y-31846048D02*
G01*
X36553663Y-32093301D01*
X37090878Y-32452257D01*
X37547743Y-32909122D01*
X37906699Y-33446337D01*
X38153952Y-34043259D01*
X38280000Y-34676948D01*
X38280000Y-35323052D01*
X38153952Y-35956741D01*
X37906699Y-36553663D01*
X37547743Y-37090878D01*
X37090878Y-37547743D01*
X36553663Y-37906699D01*
X35956741Y-38153952D01*
X35323052Y-38280000D01*
X34676948Y-38280000D01*
X34043259Y-38153952D01*
X33446337Y-37906699D01*
X32909122Y-37547743D01*
X32452257Y-37090878D01*
X32093301Y-36553663D01*
X31846048Y-35956741D01*
X31720000Y-35323052D01*
X31720000Y-34676948D01*
X31846048Y-34043259D01*
X32093301Y-33446337D01*
X32452257Y-32909122D01*
X32909122Y-32452257D01*
X33446337Y-32093301D01*
X34043259Y-31846048D01*
X34676948Y-31720000D01*
X35323052Y-31720000D01*
X35956741Y-31846048D01*
G37*
M02*
