M48
; DRILL file {KiCad 5.1.5} date Thu 13 Feb 2020 08:47:58 AM EST
; FORMAT={-:-/ absolute / metric / decimal}
; #@! TF.CreationDate,2020-02-13T08:47:58-05:00
; #@! TF.GenerationSoftware,Kicad,Pcbnew,5.1.5
; #@! TF.FileFunction,Plated,1,4,PTH
FMAT,2
METRIC
T1C0.330
T2C0.406
T3C0.500
T4C1.000
T5C1.600
T6C3.200
%
G90
G05
T1
X33.6Y-40.5
X33.6Y-48.0
X33.6Y-52.0
X33.6Y-56.0
X33.7Y-44.0
X35.0Y-96.5
X35.5Y-107.75
X35.6Y-70.25
X35.6Y-71.6
X35.6Y-72.5
X35.6Y-73.4
X35.6Y-74.4
X35.6Y-75.3
X35.75Y-58.5
X36.465Y-69.385
X37.0Y-40.5
X37.0Y-56.0
X38.75Y-65.75
X40.5Y-33.6
X40.5Y-37.0
X40.5Y-40.5
X42.5Y-44.0
X42.5Y-47.0
X42.5Y-56.0
X43.5Y-72.0
X43.75Y-65.0
X44.0Y-40.75
X44.0Y-66.75
X44.0Y-68.25
X44.5Y-79.75
X44.5Y-84.75
X45.1Y-72.0
X45.5Y-33.6
X45.5Y-40.75
X45.7Y-66.7
X46.25Y-70.0
X46.5Y-40.75
X46.5Y-94.5
X47.25Y-39.0
X47.39Y-77.0
X48.0Y-64.5
X48.25Y-70.25
X48.25Y-71.5
X48.25Y-72.75
X48.25Y-77.0
X48.75Y-110.25
X48.75Y-111.75
X49.25Y-35.25
X49.25Y-39.0
X49.25Y-77.0
X49.25Y-101.25
X49.25Y-103.0
X49.25Y-105.0
X49.25Y-107.0
X49.5Y-70.25
X49.5Y-71.5
X49.5Y-72.75
X49.703Y-77.852
X50.25Y-33.6
X50.25Y-35.0
X50.25Y-63.75
X50.5Y-111.75
X50.75Y-70.25
X50.75Y-71.5
X50.75Y-72.75
X50.75Y-78.0
X51.25Y-107.0
X51.5Y-98.25
X51.75Y-108.75
X52.0Y-103.0
X52.5Y-76.5
X52.5Y-78.25
X53.25Y-65.25
X53.25Y-98.25
X53.25Y-101.25
X53.25Y-107.0
X53.5Y-108.75
X53.55Y-74.25
X53.6Y-67.0
X53.6Y-68.5
X54.205Y-75.0
X54.718Y-69.645
X55.25Y-68.25
X55.5Y-67.0
X55.5Y-70.093
X55.583Y-71.355
X55.629Y-72.605
X56.263Y-70.507
X56.27Y-72.0
X56.496Y-72.91
X57.25Y-99.0
X57.25Y-106.5
X57.4Y-103.3
X57.522Y-105.684
X57.75Y-73.75
X58.0Y-85.75
X58.0Y-87.5
X58.5Y-105.0
X58.776Y-109.5
X59.0Y-113.25
X59.0Y-115.25
X60.0Y-104.0
X60.195Y-87.6
X60.25Y-46.0
X60.25Y-109.5
X60.8Y-88.3
X61.355Y-107.995
X61.595Y-87.5
X62.5Y-90.9
X62.5Y-109.5
X63.4Y-109.475
X64.75Y-85.75
X64.75Y-87.5
X64.8Y-99.5
X65.0Y-90.75
X65.0Y-109.75
X65.5Y-113.3
X65.5Y-115.25
X65.7Y-97.5
X66.4Y-93.8
X66.5Y-38.5
X66.5Y-45.5
X67.2Y-96.4
X67.5Y-35.5
X67.5Y-37.0
X69.195Y-95.5
X69.195Y-92.607
X69.2Y-91.367
X69.75Y-86.0
X69.9Y-93.1
X69.915Y-90.89
X70.0Y-51.25
X70.0Y-109.75
X70.25Y-45.75
X70.32Y-98.22
X70.5Y-113.3
X70.5Y-115.25
X70.75Y-85.0
X70.75Y-87.0
X70.772Y-91.972
X71.0Y-97.5
X71.6Y-93.4
X71.6Y-99.5
X71.75Y-43.0
X71.75Y-44.0
X71.75Y-45.0
X72.19Y-106.298
X72.197Y-107.18
X72.198Y-108.9
X72.2Y-105.4
X72.2Y-108.04
X72.5Y-95.5
X72.75Y-43.0
X72.75Y-44.0
X72.75Y-45.0
X72.78Y-87.997
X72.971Y-48.027
X73.0Y-52.25
X73.0Y-53.25
X73.0Y-54.25
X73.0Y-55.25
X73.0Y-56.25
X73.5Y-106.7
X73.68Y-93.4
X73.75Y-43.0
X73.75Y-44.0
X73.75Y-45.0
X74.0Y-52.25
X74.0Y-53.25
X74.105Y-107.343
X74.145Y-39.911
X74.4Y-91.1
X74.75Y-43.0
X74.75Y-44.0
X74.75Y-45.0
X74.8Y-106.7
X75.0Y-50.0
X75.0Y-51.5
X75.0Y-115.5
X75.024Y-109.702
X75.1Y-80.7
X75.14Y-84.25
X75.278Y-103.922
X75.3Y-101.379
X75.304Y-102.239
X75.405Y-107.314
X76.0Y-80.1
X76.0Y-84.25
X76.01Y-106.7
X76.066Y-98.619
X76.1Y-100.7
X76.159Y-97.764
X76.2Y-103.0
X76.2Y-104.0
X76.5Y-49.5
X76.75Y-113.25
X76.75Y-115.25
X77.25Y-40.75
X77.25Y-42.25
X77.5Y-78.8
X78.5Y-88.25
X78.5Y-90.0
X79.0Y-91.93
X79.173Y-112.931
X79.25Y-40.75
X79.25Y-42.25
X79.6Y-95.0
X79.6Y-96.5
X79.6Y-98.0
X79.7Y-103.5
X79.9Y-104.4
X80.0Y-35.5
X80.067Y-112.074
X80.084Y-112.951
X80.25Y-87.75
X80.4Y-98.73
X80.6Y-95.8
X80.935Y-111.191
X80.968Y-112.084
X81.25Y-40.75
X81.25Y-42.25
X81.3Y-103.5
X81.4Y-82.7
X81.9Y-110.405
X81.9Y-111.265
X82.3Y-74.1
X82.3Y-76.3
X82.6Y-103.3
X82.7Y-102.2
X82.75Y-42.0
X82.779Y-110.201
X83.0Y-67.7
X83.0Y-78.3
X83.34Y-94.3
X83.345Y-95.32
X83.5Y-50.0
X83.535Y-108.51
X83.59Y-89.7
X83.64Y-110.207
X83.7Y-80.7
X83.7Y-85.5
X83.71Y-72.71
X83.75Y-106.8
X84.0Y-42.75
X84.5Y-108.6
X84.5Y-110.2
X84.6Y-77.4
X84.6Y-80.7
X84.6Y-84.6
X84.6Y-88.5
X84.995Y-106.8
X85.0Y-42.0
X85.5Y-67.75
X85.5Y-69.5
X85.5Y-76.5
X85.5Y-78.25
X85.5Y-88.75
X85.5Y-90.5
X85.75Y-94.3
X85.75Y-95.3
X86.0Y-42.75
X86.0Y-98.25
X86.25Y-109.25
X86.278Y-111.722
X87.0Y-42.0
X87.25Y-110.5
X87.75Y-64.25
X87.75Y-66.0
X87.75Y-73.0
X87.75Y-74.75
X87.75Y-81.75
X87.75Y-83.5
X87.75Y-85.25
X87.75Y-87.0
X87.75Y-95.75
X87.75Y-102.75
X87.75Y-104.5
X88.0Y-42.75
X88.7Y-99.2
X88.75Y-78.25
X88.75Y-90.5
X89.0Y-40.25
X89.0Y-42.75
X89.6Y-92.873
X89.6Y-91.23
X90.25Y-47.25
X90.5Y-38.5
X91.0Y-93.0
X91.0Y-100.1
X92.75Y-67.75
X92.75Y-69.0
X92.75Y-70.25
X92.75Y-71.25
X92.75Y-76.5
X92.75Y-77.75
X92.75Y-79.0
X92.75Y-90.0
X92.75Y-91.25
X92.75Y-98.75
X92.75Y-100.0
X95.75Y-87.75
X97.0Y-72.5
X97.5Y-77.75
X98.0Y-33.6
X98.0Y-34.5
X98.0Y-65.145
X98.0Y-66.75
X98.0Y-72.5
X98.0Y-87.5
X98.0Y-92.75
X98.0Y-98.75
X98.25Y-78.75
X98.254Y-93.572
X99.0Y-94.0
X99.0Y-91.693
X99.75Y-33.6
X99.75Y-34.5
X99.75Y-63.25
X99.75Y-72.75
X99.75Y-87.0
X99.75Y-96.5
X100.5Y-81.75
X100.5Y-91.2
X100.7Y-65.8
X100.997Y-93.55
X101.0Y-35.25
X101.1Y-72.2
X101.5Y-33.6
X101.75Y-81.75
X102.5Y-35.25
X103.0Y-36.25
X103.25Y-81.75
X103.5Y-33.6
X104.0Y-100.5
X104.0Y-102.5
X105.25Y-33.6
X105.25Y-34.75
X105.25Y-36.25
X105.5Y-100.645
X105.5Y-103.25
X106.5Y-58.5
X106.5Y-60.0
X106.5Y-61.5
X106.5Y-71.5
X106.5Y-73.0
X106.5Y-74.5
X106.5Y-82.25
X106.5Y-83.75
X106.5Y-85.25
X106.5Y-95.25
X106.5Y-96.75
X106.5Y-98.25
X107.75Y-42.5
X109.475Y-86.1
X109.6Y-53.6
X110.75Y-106.5
X111.0Y-65.2
X111.0Y-66.505
X111.75Y-59.25
X111.75Y-61.0
X111.75Y-72.0
X111.75Y-73.75
X111.75Y-83.0
X111.75Y-84.75
X111.75Y-95.75
X111.75Y-97.5
X113.0Y-45.5
X114.25Y-89.395
X115.5Y-42.25
X115.5Y-45.5
X116.75Y-56.75
X116.932Y-61.432
X117.0Y-42.25
X117.0Y-44.0
X117.0Y-58.5
X117.0Y-60.0
X117.0Y-71.5
X117.0Y-73.0
X117.0Y-74.5
X117.0Y-82.25
X117.0Y-83.75
X117.0Y-85.25
X117.0Y-90.5
X117.0Y-95.25
X117.0Y-96.75
X117.0Y-98.25
X118.0Y-81.75
X118.0Y-100.5
X118.0Y-104.5
X118.1Y-68.1
X118.1Y-69.0
X118.25Y-42.25
X118.25Y-45.5
X118.648Y-62.42
X118.734Y-61.484
X118.75Y-63.75
X119.0Y-43.0
X119.0Y-57.5
X119.405Y-67.94
X119.405Y-68.8
X119.75Y-99.25
X119.75Y-103.75
X120.2Y-69.5
X120.2Y-71.6
X120.3Y-70.6
X120.392Y-58.358
X120.395Y-68.5
X120.553Y-56.447
X121.0Y-43.0
X121.0Y-45.5
X121.0Y-57.75
X121.0Y-85.495
X121.513Y-56.343
X121.605Y-68.6
X121.605Y-69.5
X121.605Y-70.6
X122.25Y-38.75
X122.5Y-57.1
X122.5Y-71.75
X122.75Y-66.25
X122.892Y-60.858
X123.25Y-105.0
X123.5Y-60.25
X123.6Y-57.3
X123.858Y-104.392
X124.0Y-62.5
X124.25Y-66.25
X124.5Y-102.0
X124.593Y-59.145
X125.2Y-69.4
X125.5Y-65.0
X125.5Y-108.0
X126.7Y-74.1
X127.0Y-67.5
X127.0Y-110.5
X127.5Y-59.0
X127.5Y-102.0
X127.7Y-73.5
X127.85Y-63.75
X127.991Y-75.291
X128.0Y-61.5
X128.0Y-104.5
X128.5Y-65.0
X128.75Y-108.0
X128.75Y-39.5
X129.2Y-61.3
X129.2Y-66.1
X129.3Y-44.3
X129.6Y-74.0
X129.75Y-100.0
X129.75Y-101.0
X130.0Y-93.0
X130.25Y-75.75
X130.25Y-111.25
X130.25Y-118.75
X130.5Y-41.25
X130.5Y-84.25
X130.6Y-65.0
X130.75Y-39.5
X130.75Y-44.5
X130.75Y-59.0
X130.75Y-60.5
X130.75Y-63.5
X130.75Y-72.5
X130.75Y-74.0
X130.75Y-81.23
X130.75Y-82.5
X130.75Y-87.5
X130.75Y-102.0
X130.75Y-103.5
X130.75Y-105.0
X130.75Y-106.5
X130.75Y-108.0
X130.75Y-112.5
X130.75Y-115.5
X130.75Y-117.0
X130.766Y-69.516
X131.0Y-48.5
X131.0Y-91.5
X131.944Y-120.0
X132.0Y-46.5
X132.0Y-89.5
X132.25Y-85.0
X132.5Y-43.0
X132.5Y-44.5
X132.5Y-48.5
X132.5Y-50.0
X132.5Y-69.5
X132.5Y-86.0
X132.5Y-87.5
X132.5Y-91.5
X132.5Y-93.0
X132.5Y-112.5
X133.5Y-64.5
X133.5Y-107.5
X134.0Y-60.5
X134.4Y-62.4
X134.695Y-61.2
X135.905Y-61.3
X136.4Y-42.9
X136.6Y-48.9
X136.8Y-65.9
X136.9Y-63.1
X137.0Y-55.25
X137.0Y-76.2
X137.25Y-98.25
X137.5Y-81.75
X137.6Y-44.9
X138.0Y-109.5
X138.0Y-108.0
X138.1Y-68.4
X138.25Y-56.5
X138.25Y-84.25
X138.25Y-91.25
X138.25Y-117.5
X138.283Y-99.283
X138.3Y-64.4
X138.5Y-78.8
X139.25Y-104.25
X139.75Y-44.0
X142.5Y-56.75
X142.5Y-66.25
X142.5Y-99.75
X142.5Y-109.25
X142.75Y-39.25
X142.75Y-71.0
X142.75Y-90.75
X144.234Y-89.516
X144.25Y-42.5
X144.25Y-47.0
X144.25Y-56.75
X144.25Y-58.25
X144.25Y-66.25
X144.25Y-72.75
X144.25Y-85.5
X144.25Y-99.75
X144.25Y-101.25
X144.25Y-109.25
X144.25Y-115.75
X144.75Y-39.355
X144.75Y-71.0
X144.75Y-82.25
X144.75Y-114.0
X145.75Y-89.0
X146.0Y-93.5
X146.0Y-101.91
X146.0Y-102.77
X146.016Y-92.516
X146.5Y-47.3
X146.607Y-48.153
X147.2Y-62.3
X147.25Y-46.0
X147.5Y-42.5
X147.5Y-47.5
X147.5Y-64.0
X147.5Y-69.25
X147.5Y-70.75
X147.5Y-75.75
X147.5Y-85.5
X147.5Y-90.5
X147.5Y-107.0
X147.5Y-112.25
X147.5Y-113.75
X147.5Y-118.25
X147.6Y-58.3
X147.75Y-81.75
X147.75Y-103.5
X149.75Y-113.0
X149.8Y-62.8
X149.8Y-70.0
X150.5Y-42.5
X150.5Y-64.0
X150.5Y-75.75
X150.5Y-85.5
X150.5Y-90.5
X150.5Y-107.0
X150.5Y-118.75
X150.6Y-47.5
X150.8Y-50.7
X151.0Y-103.5
X151.75Y-57.5
X151.75Y-59.0
X151.75Y-100.5
X151.9Y-81.7
X152.5Y-46.0
X152.5Y-66.53
X152.5Y-89.0
X152.5Y-113.75
X153.0Y-49.3
X153.0Y-74.5
X153.0Y-117.5
X153.2Y-71.8
X154.5Y-92.5
X154.5Y-93.5
X156.0Y-45.0
X156.0Y-88.0
X156.0Y-113.27
X156.25Y-62.75
X156.25Y-105.75
X156.92Y-60.0
X156.92Y-103.0
X157.098Y-56.579
X157.098Y-99.579
X157.75Y-38.75
X158.0Y-71.75
X158.0Y-89.48
X158.0Y-114.75
X160.75Y-89.75
X161.0Y-73.0
X161.0Y-116.0
X161.25Y-42.5
X161.25Y-57.5
X161.25Y-85.5
X161.25Y-100.5
X161.5Y-46.0
X161.5Y-70.8
X161.5Y-113.75
X161.7Y-72.0
X162.4Y-72.8
X163.1Y-69.4
X164.5Y-49.75
X164.5Y-51.25
X164.5Y-69.5
X164.5Y-71.0
X164.5Y-92.75
X164.5Y-94.25
X164.5Y-112.5
X164.5Y-114.0
X166.25Y-51.25
X166.25Y-71.0
X166.25Y-94.25
X166.25Y-114.0
X168.25Y-61.0
X168.25Y-80.75
X168.25Y-104.0
X168.25Y-123.75
X168.75Y-45.0
X168.75Y-64.75
X168.75Y-88.0
X168.75Y-107.75
X169.365Y-54.361
X169.365Y-97.361
X169.4Y-74.3
X169.4Y-117.3
X171.0Y-80.75
X171.0Y-123.75
X171.25Y-61.0
X171.25Y-104.0
X173.662Y-67.6
X173.662Y-110.6
X173.75Y-47.75
X173.75Y-49.25
X173.75Y-55.25
X173.75Y-69.0
X173.75Y-75.0
X173.75Y-90.75
X173.75Y-92.25
X173.75Y-98.25
X173.75Y-112.0
X173.75Y-118.0
X176.0Y-58.25
X176.0Y-59.75
X176.0Y-78.0
X176.0Y-79.5
X176.0Y-101.25
X176.0Y-102.75
X176.0Y-121.0
X176.0Y-122.5
X176.5Y-100.0
X176.6Y-56.4
X176.75Y-76.75
X176.75Y-119.75
T2
X50.5Y-108.75
X57.62Y-95.712
X58.75Y-42.5
X61.25Y-42.5
X88.25Y-36.0
X88.25Y-49.5
X105.65Y-46.6
X115.75Y-39.6
X129.0Y-38.25
X129.75Y-37.5
X134.25Y-37.5
X135.224Y-38.069
T4
X64.09Y-73.21
X64.09Y-75.75
X66.63Y-73.21
X66.63Y-75.75
X69.17Y-73.21
X69.17Y-75.75
X71.71Y-73.21
X71.71Y-75.75
X74.25Y-73.21
X74.25Y-75.75
X191.0Y-71.92
X191.0Y-74.46
X191.0Y-77.0
X191.0Y-79.54
X191.0Y-82.08
X193.54Y-71.92
X193.54Y-74.46
X193.54Y-77.0
X193.54Y-79.54
X193.54Y-82.08
T5
X190.0Y-107.0
T6
X35.0Y-125.0
X35.0Y-35.0
X195.0Y-125.0
X195.0Y-35.0
T3
G00X31.15Y-66.7
M15
G01X31.85Y-66.7
M16
G05
G00X31.15Y-73.3
M15
G01X31.85Y-73.3
M16
G05
T4
G00X36.75Y-49.0
M15
G01X36.75Y-51.0
M16
G05
G00X39.0Y-54.8
M15
G01X41.0Y-54.8
M16
G05
G00X43.0Y-49.0
M15
G01X43.0Y-51.0
M16
G05
T0
M30
